<?xml version="1.0" encoding="utf-8"?>
<!-- Generator: Adobe Illustrator 16.0.1, SVG Export Plug-In . SVG Version: 6.00 Build 0)  -->
<!DOCTYPE svg PUBLIC "-//W3C//DTD SVG 1.1//EN" "http://www.w3.org/Graphics/SVG/1.1/DTD/svg11.dtd">
<svg version="1.1" id="Layer_1" xmlns="http://www.w3.org/2000/svg" xmlns:xlink="http://www.w3.org/1999/xlink" x="0px" y="0px"
	 width="925px" height="809px" viewBox="0 0 925 809" enable-background="new 0 0 925 809" xml:space="preserve">
<g>
	
		<linearGradient id="SVGID_1_" gradientUnits="userSpaceOnUse" x1="421" y1="925.415" x2="421" y2="263.1762" gradientTransform="matrix(1 0 0 -1 41.5 913)">
		<stop  offset="0" style="stop-color:#0DADDD"/>
		<stop  offset="0.0619" style="stop-color:#1FBADD"/>
		<stop  offset="0.1429" style="stop-color:#56C2DF"/>
		<stop  offset="0.2375" style="stop-color:#8DD1E5"/>
		<stop  offset="0.3678" style="stop-color:#C6E6ED"/>
		<stop  offset="0.6184" style="stop-color:#D5ECF2"/>
		<stop  offset="0.6206" style="stop-color:#D9EEF4"/>
		<stop  offset="0.6338" style="stop-color:#EAF6F9"/>
		<stop  offset="0.6486" style="stop-color:#F6FBFD"/>
		<stop  offset="0.6663" style="stop-color:#FDFEFE"/>
		<stop  offset="0.6943" style="stop-color:#FFFFFF"/>
		<stop  offset="0.7063" style="stop-color:#FFFBF4"/>
		<stop  offset="0.7262" style="stop-color:#FFF7E7"/>
		<stop  offset="0.751" style="stop-color:#FFF4DD"/>
		<stop  offset="0.7858" style="stop-color:#FFF2D8"/>
		<stop  offset="0.8822" style="stop-color:#FFF2D6"/>
		<stop  offset="0.9843" style="stop-color:#E9DAB8"/>
	</linearGradient>
	<rect fill="url(#SVGID_1_)" width="925" height="649.82"/>
	
		<linearGradient id="SVGID_2_" gradientUnits="userSpaceOnUse" x1="59.4683" y1="527.1973" x2="59.4683" y2="744.5996" gradientTransform="matrix(1 0 0 -1 41.5 913)">
		<stop  offset="0.0053" style="stop-color:#9AD4DC"/>
		<stop  offset="0.4278" style="stop-color:#E3F0E6"/>
		<stop  offset="1" style="stop-color:#FFFFFF"/>
	</linearGradient>
	<path opacity="0.6" fill="url(#SVGID_2_)" enable-background="new    " d="M201.939,271.842c0.083-5.205-5.89-9.567-13.342-9.75
		c-0.343-0.013-0.682-0.008-1.018,0.002c-0.985-3.063-3.042-5.625-5.812-6.802c-3.463-1.474-7.116-0.393-9.555,2.42
		c-0.106-1.314-0.427-2.63-0.987-3.859c-2.103-4.614-6.758-6.324-10.534-3.943c-0.183-0.549-0.394-1.083-0.641-1.607
		c-2.983-6.367-9.563-8.525-14.698-4.83c-0.011,0.009-0.02,0.017-0.03,0.024c-1.812-0.681-3.861-1.096-6.038-1.149
		c-0.342-0.011-0.682-0.007-1.019,0.003c-0.984-3.061-3.042-5.624-5.81-6.799c-3.982-1.695-8.22-0.013-10.568,3.805
		c-0.071-0.185-0.147-0.365-0.229-0.542c-1.425-3.129-4.022-4.924-6.724-5.014c0.934-3.495,0.701-7.448-0.909-10.885
		c-1.73-3.689-4.674-5.962-7.844-6.503c-2.38-2.583-6.474-4.347-11.152-4.461c-0.343-0.009-0.682-0.002-1.02,0.007
		c-0.984-3.066-3.041-5.628-5.809-6.806c-2.839-1.206-5.807-0.692-8.127,1.076c-0.485-2.736-1.774-5.292-3.784-7.091
		c-0.601-0.538-1.236-0.971-1.888-1.318c-1.837-2.929-5.057-5.62-9.033-7.223c-0.831-0.332-1.657-0.602-2.47-0.816
		c0.991-2.622,1.305-5.661,0.725-8.702c-1.367-7.163-7.161-11.593-12.939-9.902c-2.75,0.806-5,2.859-6.457,5.552
		c-2.328-2.328-5.624-2.927-8.491-1.196c-0.772,0.467-1.453,1.067-2.041,1.767c-2.515-0.905-5.302-0.686-7.826,0.891
		c-0.011,0.007-0.021,0.012-0.032,0.019c-1.774-0.816-3.8-1.38-5.97-1.601c-0.341-0.032-0.68-0.056-1.019-0.072
		c-0.832-3.129-2.761-5.841-5.468-7.22c-4.823-2.468-10.292,0.215-12.213,5.989c-0.258,0.776-0.436,1.566-0.544,2.364
		c-0.199-0.011-0.419,0.024-0.625,0.027v197.015c1.176-0.164,2.39-0.414,3.685-0.904c-0.792,8.238,6.893,15.089,11.554,8.649
		c10.621,5.292,16.49,6.368,16.316-12.52c0.459,5.85,6.205,13.229,13.088-0.099c10.858,3.874,16.773-2.124,14.292-20.53
		c0,0,2.47,3.83,5.685,5.192c1.793,1.234,6.116,3.966,9.955-5.851c-1.544,5.822,2.812,18.848,13.66,5.572
		c4.668,6.034,11.119,8.439,18.367-8.145c3.563,5.865,8.57,4.599,10.585-3.817c0,0,13.504,2.904,15.87-10.919
		c9.46,4.653,11.58,0.623,16.209-10.951c0.121,7.782,13.766,1.536,14.961-7.705c2.065,4.091,7.586,1.737,9.609-4.487
		c2.997,1.884,8.971-1.12,9.93-5.521c0.132,0.858,3.407-2.693,3.802-6.438c0.758-0.292,1.504-0.695,2.222-1.207
		c4.322-3.114,6.24-9.386,4.96-15.085C198.98,278.455,201.882,275.414,201.939,271.842z"/>
	
		<linearGradient id="SVGID_3_" gradientUnits="userSpaceOnUse" x1="-3923.5681" y1="1163.7949" x2="-3923.5681" y2="1032.5723" gradientTransform="matrix(-1 0 0 1 -3602.2285 -787.2559)">
		<stop  offset="0.0053" style="stop-color:#9AD4DC"/>
		<stop  offset="0.4278" style="stop-color:#E3F0E6"/>
		<stop  offset="1" style="stop-color:#FFFFFF"/>
	</linearGradient>
	<path opacity="0.4" fill="url(#SVGID_3_)" enable-background="new    " d="M201.941,314.105c-0.052,3.138,3.693,5.774,8.365,5.889
		c0.215,0.002,0.426,0,0.637-0.002c0.618,1.848,1.909,3.392,3.644,4.1c2.17,0.893,4.46,0.238,5.989-1.459
		c0.068,0.793,0.269,1.59,0.62,2.329c1.318,2.787,4.237,3.813,6.604,2.384c0.115,0.328,0.248,0.651,0.4,0.968
		c1.872,3.843,5.997,5.144,9.215,2.917c0.006-0.012,0.014-0.014,0.02-0.021c1.135,0.416,2.419,0.663,3.784,0.696
		c0.216,0.004,0.428,0.002,0.639,0c0.617,1.849,1.907,3.394,3.643,4.104c2.498,1.021,5.152,0.005,6.625-2.294
		c0.046,0.105,0.092,0.216,0.144,0.326c0.893,1.888,2.521,2.969,4.216,3.024c-0.585,2.111-0.441,4.496,0.568,6.567
		c1.086,2.229,2.932,3.6,4.917,3.926c1.493,1.56,4.058,2.623,6.992,2.693c0.214,0.002,0.426,0.002,0.638-0.002
		c0.616,1.846,1.906,3.392,3.643,4.104c1.779,0.728,3.64,0.418,5.094-0.648c0.305,1.65,1.113,3.198,2.372,4.278
		c0.376,0.324,0.774,0.591,1.184,0.796c1.152,1.768,3.17,3.396,5.663,4.36c0.521,0.2,1.038,0.363,1.548,0.49
		c-0.622,1.586-0.817,3.42-0.453,5.253c0.857,4.324,4.487,7,8.111,5.978c1.722-0.483,3.133-1.725,4.046-3.35
		c1.459,1.402,3.525,1.767,5.323,0.721c0.484-0.277,0.912-0.643,1.28-1.064c1.575,0.545,3.323,0.411,4.906-0.538
		c0.008-0.004,0.014-0.009,0.02-0.014c1.113,0.496,2.382,0.834,3.744,0.968c0.212,0.021,0.426,0.032,0.637,0.045
		c0.522,1.89,1.73,3.523,3.428,4.356c3.024,1.488,6.453-0.132,7.656-3.615c0.161-0.467,0.274-0.947,0.343-1.427
		c0.711,0.033,1.49-0.062,2.289-0.31c1.06-0.32,1.987-0.854,2.693-1.485c3.449,1.344,7.19-0.818,8.427-4.916
		c0.004-0.009,0.005-0.017,0.007-0.027c1.091-0.548,2.211-1.344,3.274-2.367c0.166-0.161,0.329-0.326,0.486-0.489
		c1.47,0.94,3.29,1.137,5.003,0.349c1.907-0.879,3.229-2.765,3.676-4.912c0.312,0.043,0.632,0.075,0.958,0.088
		c0.351,0.013,0.695,0.008,1.03-0.022c0.039,0.093,0.076,0.178,0.117,0.265c1.354,2.862,4.399,3.873,6.798,2.257
		c0.467-0.313,0.876-0.71,1.222-1.155c1.602,0.431,3.339,0.171,4.869-0.889c0.007-0.002,0.014-0.012,0.021-0.015
		c1.135,0.413,2.42,0.657,3.784,0.691c0.216,0.008,0.428,0.005,0.64-0.002c0.617,1.85,1.906,3.395,3.641,4.106
		c3.096,1.267,6.436-0.599,7.461-4.16c0.137-0.48,0.225-0.966,0.268-1.449c0.711-0.021,1.486-0.171,2.271-0.475
		c0.778-0.298,1.478-0.71,2.063-1.181c0.716,2.052,2.136,3.743,4.037,4.523c3.52,1.438,7.355-0.794,8.564-5
		c0.133-0.46,0.227-0.932,0.286-1.396c2.95,0.199,5.619-2.146,6.157-5.587c0.022-0.141,0.039-0.273,0.054-0.419
		c0.461-0.148,0.889-0.403,1.254-0.759c0.38,0.267,0.807,0.465,1.265,0.564c2.131,0.475,4.18-1.196,4.578-3.738
		c0.031-0.196,0.048-0.394,0.06-0.586c0.229-0.065,0.462-0.142,0.695-0.23c0.118-0.048,0.234-0.096,0.351-0.146
		c0.631,0.882,1.587,1.441,2.655,1.441c1.904,0,3.447-1.778,3.447-3.971c0-0.061,0-0.116-0.003-0.17
		c0.315,0.104,0.649,0.17,0.996,0.17c1.07,0,2.024-0.562,2.657-1.445c0.417,0.178,0.864,0.276,1.332,0.276
		c2.167,0,3.923-2.098,3.923-4.683v-0.015c0.311-0.343,0.617-0.745,0.896-1.189c0.439-0.388,0.848-0.797,1.219-1.224
		c0.798-0.006,1.607-0.344,2.268-1.026c1.202-1.239,1.53-3.225,0.907-4.812c0.196-0.636,0.355-1.272,0.487-1.908
		c0.663-0.811,1.004-1.871,0.998-2.916c0.413-0.19,0.806-0.471,1.157-0.831c1.638-1.693,1.816-4.646,0.396-6.603
		c-0.195-0.272-0.413-0.509-0.647-0.714c0.521-1.604,0.457-3.463-0.308-5.075c-0.322-0.682-0.743-1.256-1.229-1.716
		c2.779-0.744,3.642-2.296-6.347-5.468c-0.621-4.53-3.216-7.978-7.331-5.96c-1.271-3.26-3.229-2.361-6.557-1.237
		c-3.196-5.3-7.734-0.89-8.98,0.616c-0.152-1.78-3.055-4.875-6.071-2.915c-0.136-3.438-1.905-9.643-6.247-9.691
		c-2.031-2.814-3.977-1.578-5.758,0.595c-2.654-4.585-6.407,1.427-7.396,3.224c-1.883-2.401-4.133-0.651-5.799,3.213
		c0.25-3.434-3.141-6.864-5.312-4.536c-1.335-5.575-4.555-8.199-9.036-8.037c-2.014-4.592-8.027-9.941-13.858-4.699
		c-2.524-6.688-5.158-8.753-9.323-3.387c0.465-7.387-3.876-18.251-13.355-14.825c0.498-4.974-4.319-9.105-7.243-5.22
		c-6.657-3.193-10.336-3.844-10.227,7.556c0.02,0.249,0.022,0.495,0.01,0.727c-0.004-0.248-0.008-0.485-0.01-0.727
		c-0.289-3.53-3.892-7.984-8.205,0.06c-6.808-2.335-10.516,1.286-8.961,12.39c0,0-1.549-2.31-3.565-3.135
		c-1.122-0.74-3.833-2.39-6.24,3.538c0.969-3.518-1.765-11.382-8.563-3.368c-2.927-3.643-6.97-5.097-11.515,4.918
		c-2.234-3.539-5.372-2.775-6.636,2.304c0,0-8.465-1.753-9.949,6.591c-5.931-2.812-7.259-0.38-10.161,6.605
		c-0.076-4.696-8.63-0.924-9.377,4.657c-1.296-2.469-4.757-1.058-6.025,2.71c-1.879-1.143-5.624,0.671-6.224,3.327
		c0.008,0.06-0.007,0.146-0.053,0.281c0.013-0.096,0.031-0.191,0.053-0.281c-0.084-0.518-2.137,1.625-2.385,3.888
		c-0.477,0.174-0.945,0.415-1.395,0.729c-2.707,1.875-3.91,5.664-3.108,9.104C203.796,310.112,201.978,311.949,201.941,314.105z"/>
	
		<linearGradient id="SVGID_4_" gradientUnits="userSpaceOnUse" x1="134.5005" y1="479.3496" x2="134.5005" y2="630.4072" gradientTransform="matrix(1 0 0 -1 41.5 913)">
		<stop  offset="0.0053" style="stop-color:#9AD4DC"/>
		<stop  offset="0.4278" style="stop-color:#E3F0E6"/>
		<stop  offset="1" style="stop-color:#FFFFFF"/>
	</linearGradient>
	<path opacity="0.4" fill="url(#SVGID_4_)" enable-background="new    " d="M352.001,386.034c0.083-5.202-5.889-9.569-13.341-9.752
		c-0.343-0.011-0.682-0.002-1.02,0.007c-0.984-3.065-3.042-5.627-5.811-6.804c-3.462-1.473-7.116-0.393-9.555,2.426
		c-0.105-1.322-0.428-2.634-0.987-3.863c-2.103-4.618-6.757-6.325-10.535-3.946c-0.182-0.547-0.393-1.084-0.639-1.604
		c-2.984-6.363-9.565-8.526-14.699-4.831c-0.009,0.009-0.02,0.015-0.031,0.024c-1.81-0.685-3.859-1.098-6.037-1.147
		c-0.342-0.01-0.682-0.008-1.018,0.002c-0.983-3.066-3.042-5.625-5.812-6.802c-3.982-1.695-8.219-0.012-10.566,3.805
		c-0.072-0.182-0.146-0.363-0.229-0.544c-1.424-3.128-4.022-4.921-6.724-5.014c0.933-3.495,0.702-7.447-0.909-10.878
		c-1.731-3.694-4.675-5.968-7.844-6.505c-2.379-2.585-6.475-4.348-11.151-4.462c-0.344-0.011-0.683-0.006-1.021,0.004
		c-0.983-3.065-3.04-5.625-5.809-6.803c-2.84-1.207-5.806-0.695-8.127,1.074c-0.485-2.736-1.774-5.294-3.784-7.091
		c-0.602-0.536-1.237-0.977-1.889-1.32c-1.835-2.929-5.056-5.621-9.032-7.219c-0.83-0.334-1.658-0.604-2.471-0.814
		c0.991-2.628,1.304-5.667,0.724-8.707c-1.367-7.163-7.159-11.595-12.938-9.901c-2.749,0.807-5,2.856-6.457,5.557
		c-2.327-2.335-5.625-2.933-8.492-1.204c-0.772,0.465-1.453,1.071-2.04,1.767c-2.516-0.903-5.302-0.68-7.827,0.89
		c-0.011,0.009-0.021,0.017-0.031,0.026c-1.773-0.821-3.799-1.384-5.971-1.604c-0.341-0.035-0.679-0.056-1.017-0.069
		c-0.833-3.135-2.763-5.843-5.469-7.225c-4.825-2.464-10.293,0.214-12.214,5.987c-0.258,0.776-0.437,1.568-0.544,2.364
		c-1.134-0.05-2.378,0.109-3.652,0.515c-1.688,0.536-3.168,1.411-4.295,2.459c-5.502-2.223-11.468,1.356-13.443,8.148
		c-0.005,0.014-0.008,0.022-0.013,0.038c-1.741,0.922-3.526,2.238-5.22,3.929c-0.268,0.267-0.525,0.54-0.779,0.816
		c-2.342-1.563-5.247-1.883-7.978-0.574c-3.043,1.446-5.152,4.569-5.864,8.13c-0.499-0.072-1.009-0.122-1.529-0.145
		c-0.56-0.021-1.108-0.012-1.645,0.03c-0.057-0.146-0.12-0.292-0.183-0.43c-2.162-4.746-7.016-6.421-10.843-3.743
		c-0.747,0.524-1.398,1.17-1.95,1.915c-2.555-0.715-5.324-0.281-7.768,1.479c-0.013,0.004-0.021,0.01-0.031,0.021
		c-1.81-0.688-3.86-1.102-6.039-1.154c-0.342-0.005-0.682-0.003-1.018,0.005c-0.985-3.063-3.041-5.622-5.81-6.799
		c-4.938-2.097-10.264,0.984-11.899,6.89c-0.221,0.794-0.361,1.6-0.428,2.402c-1.137,0.036-2.371,0.29-3.622,0.786
		c-1.243,0.494-2.357,1.172-3.293,1.956c-1.141-3.403-3.405-6.2-6.438-7.494c-5.617-2.385-11.732,1.317-13.66,8.278
		c-0.211,0.767-0.362,1.542-0.458,2.315c-4.706-0.331-8.96,3.554-9.821,9.255c-0.035,0.23-0.061,0.463-0.083,0.694
		c-0.738,0.248-1.421,0.669-2.002,1.254c-0.61-0.439-1.287-0.763-2.019-0.936c-3.398-0.789-6.666,1.988-7.301,6.197
		c-0.051,0.329-0.081,0.65-0.096,0.975c-0.367,0.104-0.736,0.232-1.107,0.378c-0.191,0.076-0.377,0.157-0.559,0.241
		c-1.009-1.458-2.533-2.384-4.237-2.384c-3.038,0-5.5,2.943-5.5,6.582c0,0.092,0.004,0.188,0.006,0.275
		c-0.034-0.012-0.073-0.007-0.107-0.021v89.285c2.737,0.61,5.452-0.063,7.66-1.805c0.533,0.351,1.105,0.63,1.713,0.826
		c3.213,1.03,6.475-0.521,8.354-3.609c6.28,0.271,16.688-1.195,35.811-4.058c47.035-7.051,77.379,5.168,125.551,6.104
		c48.171,0.946,120.24-6.104,145.274-16.917c2.542-1.094,4.69-2.35,6.491-3.718c2.874,1.267,6.159,1.017,8.999-1.033
		c4.323-3.109,6.241-9.382,4.962-15.083C349.041,392.646,351.944,389.604,352.001,386.034z"/>
	
		<linearGradient id="SVGID_5_" gradientUnits="userSpaceOnUse" x1="538.6016" y1="472.3086" x2="538.6016" y2="676.7676" gradientTransform="matrix(1 0 0 -1 41.5 913)">
		<stop  offset="0.4278" style="stop-color:#E3F1EC"/>
		<stop  offset="1" style="stop-color:#FFFFFF"/>
	</linearGradient>
	<path fill="url(#SVGID_5_)" d="M873,388.816c-7.583-8.342-20.13-6.729-26.761-4.329c-9.129-12.07-21.413-16.923-30.13-16.367
		c5.565-4.68,2.896-9.65-7.568-14.654c2.497-6.106-1.797-11.872-18.533-14.849c7.101-14.812-59.49-36.755-82.891-30.69
		c-5.842-28.56-30.708-32.521-37.36-21.894c-5.781-17.528-18.225-20.895-27.646-17.662c-32.16-33.928-76.96-47.135-104.363-8.932
		c-9.645-4.692-17.932,8.729-19.015,18.121c-10.272,3.002-12.05,10.717-11.433,17.949c-5.963-11.661-11.471-13.73-22.078-10.784
		c-6.026-8.877-11.076-6.154-13.483,1.64c-14.292-6.901-29.396,3.876-39.779,30.638c-6.486-4.504-15.5-2.634-20.177,10.168
		c-11.098-0.352-27.446,3.7-31.718,27.776c-6.521-1.958-26.662-6.658-37.556,13.09c-7.064,0.3-11.713,7.111-11.828,17.795
		c-6.519-5.905-13.553-6.23-17.693,0.784c-7.703-2.041-12.58-3.608-18.355,4.873c-8.582-0.798-16.844,5.374,18.784,4.798
		c3.075,6.723,10.235,12.125,26.608,12.337c8.926,10.791,27.37,15.768,39.193,10.481c8.145,4.992,22.015,12.147,28.355-2.267
		c8.857,5.755,22.118,13.565,48.827,0.06c13.283,7.677,24.07,11.688,44.656,5.393c26.338,3.519,51.181,9.135,51.722-11.668
		c37.102,53.464,59.575,25.357,89.243-5.335c35.147,31.13,56.466,12.514,59.729,0.854c1.779-6.305,40.794,4.312,41.205-3.64
		c12.559,2.83,76.788,7.342,115.695,5.998c3.354-0.116,8.383-0.324,14.352-0.606v-19.078H873z"/>
	
		<linearGradient id="SVGID_6_" gradientUnits="userSpaceOnUse" x1="-7518.3887" y1="771.2539" x2="-7518.3887" y2="966.3916" gradientTransform="matrix(-0.747 -0.0611 0.0659 -0.8058 -4841.3252 577.2951)">
		<stop  offset="0.0053" style="stop-color:#9AD4DC"/>
		<stop  offset="0.4278" style="stop-color:#E3F0E6"/>
		<stop  offset="1" style="stop-color:#FFFFFF"/>
	</linearGradient>
	<path opacity="0.4" fill="url(#SVGID_6_)" enable-background="new    " d="M925,278.045c-1.031-0.231-2.109-0.21-3.196,0.125
		c-0.008,0.003-0.017,0.006-0.023,0.008c-1.188-1.06-2.599-1.984-4.172-2.667c-0.246-0.105-0.492-0.202-0.736-0.292
		c-0.14-2.661-1.149-5.241-2.938-6.966c-3.191-3.074-7.635-2.257-9.934,1.825c-0.312,0.546-0.564,1.129-0.765,1.728
		c-0.83-0.309-1.771-0.479-2.777-0.459c-0.991,0.017-1.929,0.211-2.755,0.54c-0.19-2.961-1.309-5.789-3.268-7.678
		c-3.627-3.5-8.763-2.438-11.468,2.372c-0.302,0.531-0.556,1.087-0.771,1.655c-3.352-1.639-7.173,0.107-8.868,4.256
		c-0.068,0.17-0.129,0.343-0.193,0.514c-0.584-0.024-1.156,0.1-1.688,0.381c-0.356-0.52-0.789-0.966-1.289-1.313
		c-2.319-1.611-5.209-0.43-6.466,2.636c-0.1,0.236-0.18,0.483-0.249,0.724c-0.286-0.026-0.578-0.04-0.875-0.03
		c-0.156,0-0.304,0.009-0.454,0.019c-0.457-1.418-1.389-2.586-2.626-3.087c-2.204-0.892-4.547,0.658-5.232,3.464
		c-0.018,0.071-0.031,0.147-0.047,0.222c-0.334-0.288-0.7-0.526-1.097-0.687c-1.243-0.5-2.522-0.232-3.532,0.601
		c-0.424-0.425-0.909-0.758-1.454-0.979c-2.509-1.014-5.192,0.841-5.999,4.15c0,0.007-0.004,0.015-0.004,0.019
		c-0.472,0.293-0.945,0.666-1.41,1.102c-0.63,0.292-1.229,0.627-1.792,0.994c-0.926-0.364-1.965-0.314-2.943,0.255
		c-1.777,1.02-2.774,3.402-2.552,5.723c-0.421,0.726-0.811,1.469-1.158,2.218c-1.02,0.726-1.743,1.921-2.062,3.263
		c-0.539,0.051-1.078,0.221-1.601,0.518c-2.426,1.4-3.555,5.1-2.52,8.265c0.141,0.441,0.324,0.85,0.53,1.217
		c-1.102,1.812-1.605,4.217-1.226,6.641c0.32,2.021,1.198,3.682,2.382,4.792c-2.188,1.367-3.942,3.217-5.024,5.181
		c-0.476,0.294-0.933,0.659-1.369,1.108c-1.461,1.495-2.385,3.589-2.721,5.81c-1.707-1.382-3.883-1.728-5.947-0.692
		c-2.015,1.011-3.503,3.12-4.205,5.614c-0.248,0-0.493,0.004-0.742,0.019c-3.422,0.194-6.4,1.705-8.121,3.844
		c-2.312,0.503-4.451,2.403-5.694,5.424c-1.155,2.806-1.301,6.005-0.6,8.81c-1.977,0.128-3.859,1.634-4.882,4.193
		c-0.058,0.146-0.112,0.295-0.166,0.443c-1.737-3.034-4.843-4.306-7.742-2.852c-2.02,1.01-3.507,3.125-4.205,5.619
		c-0.244,0-0.495,0.002-0.744,0.02c-1.59,0.086-3.085,0.465-4.404,1.057c-0.009-0.004-0.013-0.014-0.022-0.016
		c-3.773-2.879-8.569-0.993-10.709,4.208c-0.177,0.428-0.333,0.868-0.456,1.314c-2.778-1.844-6.171-0.363-7.679,3.409
		c-0.4,1.008-0.63,2.072-0.698,3.144c-1.798-2.226-4.476-3.021-6.995-1.757c-2.017,1.01-3.503,3.125-4.203,5.618
		c-0.249,0-0.495,0.002-0.745,0.019c-5.441,0.309-9.782,3.965-9.692,8.161c0.066,2.886,2.204,5.281,5.302,6.399
		c-0.897,4.628,0.539,9.655,3.72,12.075c2.087,1.596,4.487,1.729,6.581,0.646c1.323,1.067,2.901,2.031,4.766,2.864
		c18.357,8.203,71.063,12.368,106.253,10.579c26.618-1.344,45.752-7.68,68.379-8.658V278.045H925z"/>
</g>
<linearGradient id="SVGID_7_" gradientUnits="userSpaceOnUse" x1="421" y1="553" x2="421" y2="173.5728" gradientTransform="matrix(1 0 0 -1 41.5 913)">
	<stop  offset="0" style="stop-color:#0DADDD"/>
	<stop  offset="0.0619" style="stop-color:#1FBADD"/>
	<stop  offset="0.1231" style="stop-color:#56C2DF"/>
	<stop  offset="0.1941" style="stop-color:#8DD1E5"/>
	<stop  offset="0.2888" style="stop-color:#C6E6ED"/>
	<stop  offset="0.3654" style="stop-color:#D5ECF2"/>
	<stop  offset="0.368" style="stop-color:#D9EEF4"/>
	<stop  offset="0.3832" style="stop-color:#EAF6F9"/>
	<stop  offset="0.4004" style="stop-color:#F6FBFD"/>
	<stop  offset="0.4208" style="stop-color:#FDFEFE"/>
	<stop  offset="0.4532" style="stop-color:#FFFFFF"/>
	<stop  offset="0.466" style="stop-color:#FFFBF4"/>
	<stop  offset="0.4871" style="stop-color:#FFF7E7"/>
	<stop  offset="0.5135" style="stop-color:#FFF4DD"/>
	<stop  offset="0.5504" style="stop-color:#FFF2D8"/>
	<stop  offset="0.653" style="stop-color:#FFF2D6"/>
	<stop  offset="0.9289" style="stop-color:#E9DAB8"/>
</linearGradient>
<rect y="390" fill="url(#SVGID_7_)" width="925" height="419"/>
<linearGradient id="SVGID_8_" gradientUnits="userSpaceOnUse" x1="762.5029" y1="222.6641" x2="762.5029" y2="20.9944">
	<stop  offset="0" style="stop-color:#FFED00"/>
	<stop  offset="0.5" style="stop-color:#F5B006"/>
	<stop  offset="1" style="stop-color:#74B72C"/>
</linearGradient>
<circle fill="url(#SVGID_8_)" cx="762.503" cy="132.498" r="86.849"/>
</svg>
