<?xml version="1.0" encoding="utf-8"?>
<!-- Generator: Adobe Illustrator 16.0.1, SVG Export Plug-In . SVG Version: 6.00 Build 0)  -->
<!DOCTYPE svg PUBLIC "-//W3C//DTD SVG 1.1//EN" "http://www.w3.org/Graphics/SVG/1.1/DTD/svg11.dtd">
<svg version="1.1" id="Layer_1" xmlns="http://www.w3.org/2000/svg" xmlns:xlink="http://www.w3.org/1999/xlink" x="0px" y="0px"
	 width="925px" height="809px" viewBox="0 0 925 809" enable-background="new 0 0 925 809" xml:space="preserve">
<g>
	<defs>
		<rect id="SVGID_1_" width="925" height="809.015"/>
	</defs>
	<clipPath id="SVGID_2_">
		<use xlink:href="#SVGID_1_"  overflow="visible"/>
	</clipPath>
	<linearGradient id="Hintergrund_1_" gradientUnits="userSpaceOnUse" x1="462.5005" y1="691.9854" x2="462.5005" y2="4.882812e-04">
		<stop  offset="0" style="stop-color:#FFFFFF"/>
		<stop  offset="1" style="stop-color:#D6EDF9"/>
	</linearGradient>
	<rect id="Hintergrund" clip-path="url(#SVGID_2_)" fill="url(#Hintergrund_1_)" width="925" height="691.985"/>
	<linearGradient id="SVGID_3_" gradientUnits="userSpaceOnUse" x1="762.5029" y1="237.5991" x2="762.5029" y2="76.5402">
		<stop  offset="0" style="stop-color:#FBEFCF"/>
		<stop  offset="0.5" style="stop-color:#F6E0A0"/>
		<stop  offset="1" style="stop-color:#EEC840"/>
	</linearGradient>
	<circle clip-path="url(#SVGID_2_)" fill="url(#SVGID_3_)" cx="762.503" cy="132.498" r="86.849"/>
	<g id="Wolken_1_" clip-path="url(#SVGID_2_)">
		<path id="Wolke_13_" fill="#FFFFFF" d="M121.676,256.81c16.869,3.61,11.58,19.02-5.15,18.84c-1.83,5.95-15.13,13.22-23.189,5.15
			c-6.871,11.44-20.041,10.37-23.92,0.01c-15.73,15.73-43.15,0.95-48.25-6.57c-8.021,13.47-41.9,9.94-41.9-6.82
			c-43.73,10.85-40.27-33.38-1.061-28.52c-3.209-24.19,45.211-16.68,42.36-6.94c5.08-5.98,26.24-6.54,29.341,5.41
			c7.079-7.14,20.869-6.63,23.35,2.48C86.266,222.36,137.936,241,121.676,256.81z"/>
		<path id="Wolke_3_" fill="#FFFFFF" d="M699.421,79.365c13.55,2.9,9.302,15.277-4.137,15.133
			c-1.47,4.779-12.151,10.618-18.626,4.137c-5.519,9.188-16.097,8.329-19.213,0.008c-12.635,12.634-34.658,0.763-38.755-5.277
			c-6.441,10.819-33.655,7.984-33.655-5.478c-35.124,8.714-32.344-26.812-0.852-22.908c-2.577-19.43,36.314-13.397,34.025-5.574
			c4.08-4.804,21.076-5.253,23.566,4.345c5.687-5.735,16.762-5.325,18.754,1.992C670.979,51.694,712.481,66.666,699.421,79.365z"/>
		<path id="Wolke" fill="#FFFFFF" d="M354.171,165.402c19.049-1.499,26.736,3.735,27.541,5.949
			c18.64-13.057,44.709-6.621,48.006,1.725c20.324-0.941,30.508,11.346,26.374,18.698c-5.761,10.246-37.372,8.292-42.601,5.093
			c9.009,19.062-28.246,21.142-46.555,19.787c-16.182-1.198-23.184-7.496-23.75-10.536c-21.908,5.423-32.376,1.985-35.576-4.177
			c-4.768-9.177,2.578-10.852,7.402-12.055c-7.119-4.357-4.474-8.456-1.508-11.133c2.07-1.869,8.119-2.756,10.122-2.086
			C323.627,176.666,327.333,167.514,354.171,165.402z"/>
		<path id="Wolke_1_" fill="#FFFFFF" d="M869.171,248.402c19.049-1.499,26.736,3.735,27.541,5.949
			c18.64-13.057,44.709-6.621,48.006,1.725c20.324-0.941,30.508,11.346,26.374,18.698c-5.761,10.246-37.372,8.292-42.601,5.093
			c9.009,19.062-28.246,21.142-46.555,19.787c-16.182-1.198-23.184-7.496-23.75-10.536c-21.908,5.423-32.376,1.985-35.576-4.177
			c-4.768-9.177,2.578-10.852,7.402-12.055c-7.119-4.357-4.474-8.456-1.508-11.133c2.07-1.869,8.119-2.756,10.122-2.086
			C838.627,259.666,842.333,250.514,869.171,248.402z"/>
		<path id="Wolke_2_" fill="#FFFFFF" d="M547.171,288.402c19.049-1.499,26.736,3.735,27.541,5.949
			c18.64-13.057,44.709-6.621,48.006,1.725c20.324-0.941,30.508,11.346,26.374,18.698c-5.761,10.246-37.372,8.292-42.601,5.093
			c9.009,19.062-28.246,21.142-46.555,19.787c-16.182-1.198-23.184-7.496-23.75-10.536c-21.908,5.423-32.376,1.985-35.576-4.177
			c-4.768-9.177,2.578-10.852,7.402-12.055c-7.119-4.357-4.474-8.456-1.508-11.133c2.07-1.869,8.119-2.756,10.122-2.086
			C516.627,299.666,520.333,290.514,547.171,288.402z"/>
		<path id="Wolke_7_" fill="#FFFFFF" d="M214.017,76.867c-14.021-0.725-28.176,2.506-31.319,8.541
			c-4.988-5.834-21.897-12.891-38.874-9.026c-10.717,2.44-22.629,9.672-17.759,17.635c-2.353,0.291-32.06,0.581-24.711,22.859
			c3.146,9.538,26.647,13.22,34.096,2.897c11.576,13.829,29.48,14.082,41.202,14.118c14.042,0.045,51.244,0.728,62.792-9.468
			c33.315,15.869,37.762-19.65,17.646-20.392c8.816-6.858,4.586-17.961-4.352-20.327c-7.197-1.906-14.219-2.197-19.129,3.193
			C233.609,86.896,226.705,77.522,214.017,76.867z"/>
	</g>
	<g id="V_x2C6_gel" clip-path="url(#SVGID_2_)">
		<path fill="#98AABA" d="M766.731,177.963c-2-1.55-8.004-5.648-15.787-5.648c-6.603,0-13.203,6.833-13.203,6.833
			c0.072-0.044,7.285-4.433,13.203-4.433c8.443,0,14.893,5.598,14.957,5.655c0,0,0.135,0.326,0.746,0.326s0.787-0.279,0.787-0.279
			c0.075-0.059,7.657-5.894,15.206-5.894c6.359,0,12.957,5.964,13.022,6.025c0,0-5.724-8.425-13.022-8.425
			C775.595,172.124,768.905,176.424,766.731,177.963z"/>
		<path fill="#98AABA" d="M727.93,149.579c-1.19-0.651-4.767-2.375-9.403-2.375c-3.932,0-7.863,2.874-7.863,2.874
			c0.043-0.019,4.34-1.864,7.863-1.864c5.029,0,8.871,2.354,8.91,2.377c0,0,0.08,0.137,0.443,0.137s0.469-0.117,0.469-0.117
			c0.045-0.024,4.561-2.479,9.057-2.479c3.787,0,7.717,2.508,7.757,2.534c0,0-3.409-3.542-7.757-3.542
			C733.209,147.124,729.225,148.932,727.93,149.579z"/>
	</g>
	<linearGradient id="Wiese_1_" gradientUnits="userSpaceOnUse" x1="462.5005" y1="809.0146" x2="462.5005" y2="555.9863">
		<stop  offset="0" style="stop-color:#87B32B"/>
		<stop  offset="1" style="stop-color:#CED951"/>
	</linearGradient>
	<rect id="Wiese" y="555.986" clip-path="url(#SVGID_2_)" fill="url(#Wiese_1_)" width="925" height="253.028"/>
	<g id="Haus_2_" clip-path="url(#SVGID_2_)">
		<g id="Fassade_4_">
			<rect x="324.225" y="530.589" fill="#D2DBE5" width="290.257" height="25.397"/>
			<path fill="#D2DBE5" d="M614.481,454.396v76.192H324.225V429h290.257v21.769V454.396z M581.827,501.563v-54.423h-21.77h-54.423
				h-21.77v54.423h21.77h54.423H581.827z M454.84,501.563v-54.423h-21.769h-54.423h-21.77v54.423h21.77h54.423H454.84z"/>
			<polygon fill="#AFBFCF" points="676.16,454.396 676.16,530.589 614.481,530.589 614.481,454.396 625.365,454.396 
				625.365,501.563 665.276,501.563 665.276,454.396 			"/>
			<rect x="614.481" y="530.589" fill="#AFBFCF" width="61.679" height="25.397"/>
			<path fill="#C7D3E7" d="M560.058,345.551v54.423h-181.41v-54.423h3.628H560.058z M556.43,389.089v-32.653h-14.513h-54.423
				h-14.513v32.653h14.513h54.423H556.43z M465.725,389.089v-32.653h-14.513h-54.423h-14.513v32.653h14.513h54.423H465.725z"/>
		</g>
		<g id="S_x2030_ule">
			<polygon fill="#3E3125" points="712.442,552.358 712.442,555.986 690.674,555.986 690.674,552.358 694.302,552.358 
				708.814,552.358 			"/>
			<polygon fill="#3E3125" points="708.814,548.73 708.814,552.358 694.302,552.358 694.302,548.73 697.93,548.73 705.187,548.73 
							"/>
			<polygon fill="#3E3125" points="708.814,454.396 708.814,458.025 705.187,458.025 697.93,458.025 694.302,458.025 
				694.302,454.396 			"/>
			<rect x="697.93" y="458.025" fill="#3E3125" width="7.257" height="90.705"/>
		</g>
		<g id="Fenster_18_">
			<g id="Glas_21_">
				<rect x="647.135" y="483.423" fill="#E4F2FB" width="14.513" height="14.513"/>
				<rect x="647.135" y="465.281" fill="#E4F2FB" width="14.513" height="14.514"/>
				<rect x="647.135" y="454.396" fill="#E4F2FB" width="14.513" height="7.257"/>
				<rect x="628.994" y="483.423" fill="#E4F2FB" width="14.513" height="14.513"/>
				<rect x="628.994" y="465.281" fill="#E4F2FB" width="14.513" height="14.514"/>
				<rect x="628.994" y="454.396" fill="#E4F2FB" width="14.513" height="7.257"/>
			</g>
			<path id="Rahmen_33_" fill="#5A3D1C" d="M665.276,454.396v47.167h-39.911v-47.167h3.629v7.257h14.513v-7.257h3.628v7.257h14.513
				v-7.257H665.276z M661.647,497.936v-14.513h-14.513v14.513H661.647z M661.647,479.795v-14.514h-14.513v14.514H661.647z
				 M643.507,497.936v-14.513h-14.513v14.513H643.507z M643.507,479.795v-14.514h-14.513v14.514H643.507z"/>
		</g>
		<g id="Fenster_17_">
			<g>
				<path fill="#7696B1" d="M581.827,447.141v54.423h-21.77v-54.423H581.827z M578.199,497.936v-21.77h-14.513v21.77H578.199z
					 M578.199,472.538v-21.77h-14.513v21.77H578.199z"/>
				<rect x="563.687" y="476.166" fill="#D2DBE5" width="14.513" height="21.77"/>
				<rect x="563.687" y="450.769" fill="#D2DBE5" width="14.513" height="21.77"/>
			</g>
			<g>
				<path fill="#7696B1" d="M505.635,447.141v54.423h-21.77v-54.423H505.635z M502.007,497.936v-21.77h-14.513v21.77H502.007z
					 M502.007,472.538v-21.77h-14.513v21.77H502.007z"/>
				<rect x="487.494" y="476.166" fill="#D2DBE5" width="14.513" height="21.77"/>
				<rect x="487.494" y="450.769" fill="#D2DBE5" width="14.513" height="21.77"/>
			</g>
			<g id="Glas_20_">
				<rect x="534.66" y="476.166" fill="#E4F2FB" width="21.77" height="21.77"/>
				<rect x="534.66" y="450.769" fill="#E4F2FB" width="21.77" height="21.77"/>
				<rect x="509.264" y="476.166" fill="#E4F2FB" width="21.769" height="21.77"/>
				<rect x="509.264" y="450.769" fill="#E4F2FB" width="21.769" height="21.77"/>
			</g>
			<path id="Rahmen_32_" fill="#5A3D1C" d="M560.058,447.141v54.423h-54.423v-54.423H560.058z M556.43,497.936v-21.77h-21.77v21.77
				H556.43z M556.43,472.538v-21.77h-21.77v21.77H556.43z M531.032,497.936v-21.77h-21.769v21.77H531.032z M531.032,472.538v-21.77
				h-21.769v21.77H531.032z"/>
		</g>
		<g id="Fenster_16_">
			<g>
				<path fill="#7696B1" d="M454.84,447.141v54.423h-21.769v-54.423H454.84z M451.212,497.936v-21.77h-14.513v21.77H451.212z
					 M451.212,472.538v-21.77h-14.513v21.77H451.212z"/>
				<rect x="436.699" y="476.166" fill="#D2DBE5" width="14.513" height="21.77"/>
				<rect x="436.699" y="450.769" fill="#D2DBE5" width="14.513" height="21.77"/>
			</g>
			<g>
				<path fill="#7696B1" d="M378.648,447.141v54.423h-21.77v-54.423H378.648z M375.02,497.936v-21.77h-14.513v21.77H375.02z
					 M375.02,472.538v-21.77h-14.513v21.77H375.02z"/>
				<rect x="360.507" y="476.166" fill="#D2DBE5" width="14.513" height="21.77"/>
				<rect x="360.507" y="450.769" fill="#D2DBE5" width="14.513" height="21.77"/>
			</g>
			<g id="Glas_19_">
				<rect x="407.673" y="476.166" fill="#E4F2FB" width="21.77" height="21.77"/>
				<rect x="407.673" y="450.769" fill="#E4F2FB" width="21.77" height="21.77"/>
				<rect x="382.276" y="476.166" fill="#E4F2FB" width="21.77" height="21.77"/>
				<rect x="382.276" y="450.769" fill="#E4F2FB" width="21.77" height="21.77"/>
			</g>
			<path id="Rahmen_31_" fill="#5A3D1C" d="M433.071,447.141v54.423h-54.423v-54.423H433.071z M429.443,497.936v-21.77h-21.77v21.77
				H429.443z M429.443,472.538v-21.77h-21.77v21.77H429.443z M404.045,497.936v-21.77h-21.77v21.77H404.045z M404.045,472.538
				v-21.77h-21.77v21.77H404.045z"/>
		</g>
		<g id="Fenster_15_">
			<g>
				<path fill="#7696B1" d="M556.43,356.436v32.653h-14.513v-32.653H556.43z M552.802,385.461v-25.397h-7.257v25.397H552.802z"/>
				<rect x="545.545" y="360.063" fill="#3E3125" width="7.257" height="25.397"/>
			</g>
			<g>
				<path fill="#7696B1" d="M487.494,356.436v32.653h-14.513v-32.653H487.494z M483.865,385.461v-25.397h-7.256v25.397H483.865z"/>
				<rect x="476.609" y="360.063" fill="#3E3125" width="7.256" height="25.397"/>
			</g>
			<g id="Glas_18_">
				<path fill="#E4F2FB" d="M538.289,360.063v25.397h-21.77c0,0,0-11.36,0-25.397H538.289z"/>
				<path fill="#E4F2FB" d="M512.892,360.063c0,14.037,0,25.397,0,25.397c-12.031,0-21.77,0-21.77,0v-25.397
					C491.122,360.063,500.86,360.063,512.892,360.063z"/>
			</g>
			<path id="Rahmen_30_" fill="#5A3D1C" d="M541.917,356.436v32.653h-54.423v-32.653H541.917z M538.289,385.461v-25.397h-21.77
				c0,14.037,0,25.397,0,25.397H538.289z M512.892,385.461c0,0,0-11.36,0-25.397c-12.031,0-21.77,0-21.77,0v25.397
				C491.122,385.461,500.86,385.461,512.892,385.461z"/>
		</g>
		<g id="Fenster_14_">
			<g>
				<path fill="#7696B1" d="M465.725,356.436v32.653h-14.513v-32.653H465.725z M462.097,385.461v-25.397h-7.257v25.397H462.097z"/>
				<rect x="454.84" y="360.063" fill="#3E3125" width="7.257" height="25.397"/>
			</g>
			<g>
				<path fill="#7696B1" d="M396.789,356.436v32.653h-14.513v-32.653H396.789z M393.161,385.461v-25.397h-7.256v25.397H393.161z"/>
				<rect x="385.904" y="360.063" fill="#3E3125" width="7.256" height="25.397"/>
			</g>
			<g id="Glas_17_">
				<path fill="#E4F2FB" d="M447.583,360.063v25.397h-21.769c0,0,0-11.36,0-25.397H447.583z"/>
				<path fill="#E4F2FB" d="M422.186,360.063c0,14.037,0,25.397,0,25.397c-12.031,0-21.769,0-21.769,0v-25.397
					C400.417,360.063,410.155,360.063,422.186,360.063z"/>
			</g>
			<path id="Rahmen_29_" fill="#5A3D1C" d="M451.212,356.436v32.653h-54.423v-32.653H451.212z M447.583,385.461v-25.397h-21.769
				c0,14.037,0,25.397,0,25.397H447.583z M422.186,385.461c0,0,0-11.36,0-25.397c-12.031,0-21.769,0-21.769,0v25.397
				C400.417,385.461,410.155,385.461,422.186,385.461z"/>
		</g>
		<g id="Dach_5_">
			<polygon fill="#7A4F38" points="712.442,374.576 712.442,450.769 614.481,450.769 614.481,429 628.994,429 628.994,425.371 
				623.018,374.576 			"/>
			<path fill="#5A3D1C" d="M623.018,374.576l5.977,50.795H309.712l14.513-123.359h14.513h21.77h253.975L623.018,374.576z
				 M567.314,345.551v-3.628l-3.628-7.257H375.02l-3.628,7.257v3.628h7.256v54.423h181.41v-54.423H567.314z"/>
			<polygon fill="#7A4F38" points="576.23,328.948 580.34,350.163 358.365,350.163 362.476,328.948 			"/>
			<polygon fill="#3E3125" points="628.994,425.371 628.994,429 614.481,429 324.225,429 309.712,429 309.712,425.371 			"/>
			<polygon fill="#3E3125" points="712.442,450.769 712.442,454.396 708.814,454.396 694.302,454.396 676.16,454.396 
				665.276,454.396 661.647,454.396 647.135,454.396 643.507,454.396 628.994,454.396 625.365,454.396 614.481,454.396 
				614.481,450.769 			"/>
		</g>
		<g id="Schornstein_3_">
			<polygon fill="#676F6B" points="364.135,280.243 364.135,283.871 360.507,283.871 338.737,283.871 335.109,283.871 
				335.109,280.243 			"/>
			<rect x="338.737" y="283.871" fill="#AAB0AB" width="21.77" height="18.141"/>
		</g>
		<g id="Schatten_27_">
			<polygon fill="#D2DBE5" points="628.994,429 614.481,439.884 324.225,439.884 324.225,429 614.481,429 			"/>
		</g>
	</g>
	<g id="Haus" clip-path="url(#SVGID_2_)">
		<g id="Fassade">
			<rect x="990.043" y="537.509" fill="#E1E2D5" width="108.846" height="21.77"/>
			<rect x="736.068" y="533.881" fill="#BDBBA2" width="159.642" height="21.77"/>
			<path fill="#BDBBA2" d="M895.71,385.125v36.281H736.068v-36.281v-7.257l79.82-90.705l0,0l79.821,90.705V385.125z
				 M841.286,410.521v-72.563h-54.423v72.563H841.286z"/>
			<path fill="#BDBBA2" d="M895.71,439.548v94.333H736.068V425.035H895.71v10.884V439.548z M873.94,508.483v-3.628h-3.628v-68.937
				H761.466v68.937h-3.628v3.628H873.94z"/>
			<path fill="#E1E2D5" d="M1077.12,519.368v-3.628h-3.629v-68.937h-58.051v68.937h-3.628v3.628H1077.12z"/>
			<rect x="736.068" y="421.406" fill="#FAFAFA" width="159.642" height="3.629"/>
		</g>
		<g id="T_xB8_r">
			<path id="T_xB8_r_x5F_1_x5F_" fill="#5A3D1C" d="M982.786,454.061v101.59h-58.051v-101.59H982.786z M975.53,493.971v-14.513
				c0-10.028-7.731-18.142-21.77-18.142s-21.77,8.113-21.77,18.142v14.513H975.53z"/>
			<path id="Glas_3_" fill="#E4F2FB" d="M971.902,479.458v10.885H935.62v-10.885c0-8.021,6.109-14.513,18.141-14.513
				S971.902,471.437,971.902,479.458z"/>
			<path id="Rahmen_7_" fill="#8F6A4E" d="M975.53,479.458v14.513h-43.539v-14.513c0-10.028,7.731-18.142,21.77-18.142
				S975.53,469.43,975.53,479.458z M971.902,490.343v-10.885c0-8.021-6.11-14.513-18.142-14.513s-18.141,6.491-18.141,14.513v10.885
				H971.902z"/>
		</g>
		<g id="Fenster_4_">
			<rect id="Glas_5_" x="993.671" y="352.471" fill="#E4F2FB" width="29.026" height="47.167"/>
			<path id="Rahmen_9_" fill="#8F6A4E" d="M1026.325,348.842v54.423h-36.282v-54.423H1026.325z M1022.697,399.638v-47.167h-29.026
				v47.167H1022.697z"/>
			<rect id="Schatten_7_" x="990.043" y="403.266" opacity="0.3" fill="#010202" width="36.282" height="1.814"/>
		</g>
		<g id="Fenster_3_">
			<rect id="Glas_4_" x="939.248" y="352.471" fill="#E4F2FB" width="29.025" height="47.167"/>
			<path id="Rahmen_8_" fill="#8F6A4E" d="M971.902,348.842v54.423H935.62v-54.423H971.902z M968.273,399.638v-47.167h-29.025
				v47.167H968.273z"/>
			<rect id="Schatten_8_" x="935.62" y="403.266" opacity="0.3" fill="#010202" width="36.282" height="1.814"/>
		</g>
		<g id="Fenster">
			<g id="Glas">
				<rect x="797.748" y="348.842" fill="#E4F2FB" width="32.654" height="10.885"/>
				<rect x="797.748" y="363.355" fill="#E4F2FB" width="32.654" height="36.282"/>
			</g>
			<path id="Rahmen_1_" fill="#8F6A4E" d="M834.03,345.214v58.051h-39.91v-58.051H834.03z M830.402,399.638v-36.282h-32.654v36.282
				H830.402z M830.402,359.727v-10.885h-32.654v10.885H830.402z"/>
			<path id="Rahmen" fill="#FAFAFA" d="M841.286,337.958v72.563h-54.423v-72.563H841.286z M834.03,403.266v-58.051h-39.91v58.051
				H834.03z"/>
		</g>
		<g id="Fenster_1_">
			<g id="Glas_1_">
				<rect x="772.351" y="446.804" fill="#E4F2FB" width="25.397" height="10.885"/>
				<rect x="772.351" y="461.316" fill="#E4F2FB" width="25.397" height="36.282"/>
				<rect x="801.376" y="461.316" fill="#E4F2FB" width="29.026" height="36.282"/>
				<rect x="801.376" y="446.804" fill="#E4F2FB" width="29.026" height="10.885"/>
				<rect x="834.03" y="446.804" fill="#E4F2FB" width="25.397" height="10.885"/>
				<rect x="834.03" y="461.316" fill="#E4F2FB" width="25.397" height="36.282"/>
			</g>
			<path id="Rahmen_2_" fill="#8F6A4E" d="M863.056,443.176v58.051h-94.333v-58.051H863.056z M859.428,497.599v-36.282H834.03
				v36.282H859.428z M859.428,457.688v-10.885H834.03v10.885H859.428z M830.402,497.599v-36.282h-29.026v36.282H830.402z
				 M830.402,457.688v-10.885h-29.026v10.885H830.402z M797.748,497.599v-36.282h-25.397v36.282H797.748z M797.748,457.688v-10.885
				h-25.397v10.885H797.748z"/>
			<path id="Rahmen_3_" fill="#FAFAFA" d="M873.94,504.855v3.628H757.838v-3.628h3.628v-68.937h108.847v68.937H873.94z
				 M863.056,501.227v-58.051h-94.333v58.051H863.056z"/>
		</g>
		<g id="Fenster_2_">
			<g id="Glas_2_">
				<rect x="1026.325" y="457.688" fill="#E4F2FB" width="36.282" height="10.885"/>
				<rect x="1026.325" y="472.201" fill="#E4F2FB" width="36.282" height="36.282"/>
			</g>
			<path id="Rahmen_5_" fill="#8F6A4E" d="M1066.235,454.061v58.051h-43.538v-58.051H1066.235z M1062.607,508.483v-36.282h-36.282
				v36.282H1062.607z M1062.607,468.573v-10.885h-36.282v10.885H1062.607z"/>
			<path id="Rahmen_4_" fill="#FAFAFA" d="M1066.235,512.111v-58.051h-43.538v58.051H1066.235z"/>
			<g id="Schatten_1_">
				<rect x="1026.325" y="457.688" opacity="0.3" fill="#010202" width="36.282" height="1.814"/>
				<rect x="1026.325" y="472.201" opacity="0.3" fill="#010202" width="36.282" height="1.814"/>
			</g>
		</g>
		<g id="Dach">
			<g id="Dach_1_">
				<path fill="#672223" d="M908.531,385.104l-60.046-68.915h206.865v25.397h18.141v-25.397h29.026l14.476,119.73h-18.104H895.71
					v-10.884v-3.629v-36.281h14.513h3.628L908.531,385.104z M1026.325,403.266v-54.423h-36.282v54.423H1026.325z M971.902,403.266
					v-54.423H935.62v54.423H971.902z"/>
				<polygon fill="#4B2723" points="1117.03,435.919 1117.03,439.548 1098.889,439.548 895.71,439.548 895.71,435.919 
					1098.889,435.919 1116.993,435.919 				"/>
			</g>
			<g id="Giebel">
				<polygon fill="#8F6A4E" points="815.889,276.278 910.223,385.125 895.71,385.125 895.71,377.868 838.238,312.561 
					835.046,308.932 815.889,287.163 796.731,308.932 793.539,312.561 736.068,377.868 736.068,385.125 721.556,385.125 				"/>
			</g>
			<rect id="Schatten_9_" x="895.71" y="438.022" fill="#E1E2D5" width="203.179" height="117.978"/>
		</g>
		<g id="Schornstein">
			<polygon fill="#676F6B" points="1077.12,296.302 1077.12,299.93 1073.491,299.93 1055.351,299.93 1051.723,299.93 
				1051.723,296.302 			"/>
			<polygon fill="#A09B86" points="1073.491,316.188 1073.491,341.586 1055.351,341.586 1055.351,316.188 1055.351,299.93 
				1073.491,299.93 			"/>
			<rect x="1055.351" y="299.93" opacity="0.3" fill="#010202" width="18.141" height="2.178"/>
		</g>
	</g>
	<g id="Haus_3_" clip-path="url(#SVGID_2_)">
		<g id="Fassade_2_">
			<rect x="152.05" y="533.881" fill="#A09B86" width="117.433" height="21.77"/>
			<rect x="50.275" y="533.881" fill="#A09B86" width="23.486" height="21.77"/>
			<rect x="-121.96" y="533.881" fill="#BDBBA2" width="172.235" height="21.77"/>
			<path fill="#BDBBA2" d="M50.275,385.125v36.281H-121.96v-36.281v-7.257l86.117-90.705l0,0l86.118,90.705V385.125z
				 M-8.442,410.521v-72.563h-58.716v72.563H-8.442z"/>
			<path fill="#BDBBA2" d="M50.275,439.548v94.333H-121.96V425.035H50.275v10.884V439.548z M26.788,508.483v-3.628h-3.914v-68.937
				H-94.559v68.937h-3.915v3.628H26.788z"/>
			<path fill="#E1E2D5" d="M269.483,439.548v94.333H152.05v-87.077H73.762v87.077H50.275v-94.333H269.483z M245.997,519.368v-3.628
				h-3.915v-68.937h-62.631v68.937h-3.915v3.628H245.997z"/>
			<rect x="-121.96" y="421.406" fill="#FAFAFA" width="172.235" height="3.629"/>
		</g>
		<g id="T_xB8_r_1_">
			<path id="T_xB8_r_x5F_1_x5F__1_" fill="#5A3D1C" d="M144.221,454.061v101.59H81.59v-101.59H144.221z M136.393,493.971v-14.513
				c0-10.028-8.341-18.142-23.487-18.142s-23.486,8.113-23.486,18.142v14.513H136.393z"/>
			<path id="Glas_11_" fill="#E4F2FB" d="M132.478,479.458v10.885H93.333v-10.885c0-8.021,6.591-14.513,19.572-14.513
				C125.886,464.945,132.478,471.437,132.478,479.458z"/>
			<path id="Schatten_16_" opacity="0.3" fill="#010202" d="M135.418,481.271l-0.062,11.841l-44.648,0.401l-0.372-12.242
				c0-10.028,7.424-18.141,22.569-18.141S135.418,471.243,135.418,481.271z M132.478,492.156v-10.885
				c0-8.021-6.592-14.513-19.572-14.513c-12.981,0-19.572,6.491-19.572,14.513v10.885H132.478z"/>
			<path id="Rahmen_19_" fill="#8F6A4E" d="M136.393,479.458v14.513H89.419v-14.513c0-10.028,8.341-18.142,23.486-18.142
				S136.393,469.43,136.393,479.458z M132.478,490.343v-10.885c0-8.021-6.592-14.513-19.572-14.513
				c-12.981,0-19.572,6.491-19.572,14.513v10.885H132.478z"/>
			<polygon id="Rahmen_18_" fill="#FAFAFA" points="152.05,533.881 152.05,555.65 144.221,555.65 144.221,454.061 81.59,454.061 
				81.59,555.65 73.762,555.65 73.762,533.881 73.762,446.804 152.05,446.804 			"/>
			<rect id="Schatten_15_" x="81.59" y="454.061" opacity="0.3" fill="#010202" width="62.631" height="3.628"/>
		</g>
		<g id="Fenster_19_">
			<rect id="Glas_10_" x="155.964" y="352.471" fill="#E4F2FB" width="31.316" height="47.167"/>
			<path id="Rahmen_17_" fill="#8F6A4E" d="M191.195,348.842v54.423H152.05v-54.423H191.195z M187.28,399.638v-47.167h-31.316
				v47.167H187.28z"/>
			<rect id="Schatten_14_" x="155.964" y="352.471" opacity="0.3" fill="#010202" width="31.316" height="1.814"/>
			<rect id="Schatten_11_" x="152.05" y="403.266" opacity="0.3" fill="#010202" width="39.145" height="1.814"/>
		</g>
		<g id="Fenster_13_">
			<rect id="Glas_9_" x="97.248" y="352.471" fill="#E4F2FB" width="31.316" height="47.167"/>
			<path id="Rahmen_16_" fill="#8F6A4E" d="M132.478,348.842v54.423H93.333v-54.423H132.478z M128.564,399.638v-47.167H97.248
				v47.167H128.564z"/>
			<rect id="Schatten_10_" x="97.248" y="352.471" opacity="0.3" fill="#010202" width="31.316" height="1.814"/>
			<rect id="Schatten_4_" x="93.333" y="403.266" opacity="0.3" fill="#010202" width="39.145" height="1.814"/>
		</g>
		<g id="Fenster_12_">
			<g id="Glas_8_">
				<rect x="-55.415" y="348.842" fill="#E4F2FB" width="35.229" height="10.885"/>
				<rect x="-55.415" y="363.355" fill="#E4F2FB" width="35.229" height="36.282"/>
			</g>
			<path id="Rahmen_15_" fill="#8F6A4E" d="M-16.271,345.214v58.051h-43.059v-58.051H-16.271z M-20.185,399.638v-36.282h-35.229
				v36.282H-20.185z M-20.185,359.727v-10.885h-35.229v10.885H-20.185z"/>
			<path id="Rahmen_14_" fill="#FAFAFA" d="M-8.442,337.958v72.563h-58.716v-72.563H-8.442z M-16.271,403.266v-58.051h-43.059
				v58.051H-16.271z"/>
		</g>
		<g id="Fenster_11_">
			<g id="Glas_7_">
				<rect x="-82.816" y="446.804" fill="#E4F2FB" width="27.401" height="10.885"/>
				<rect x="-82.816" y="461.316" fill="#E4F2FB" width="27.401" height="36.282"/>
				<rect x="-51.5" y="461.316" fill="#E4F2FB" width="31.315" height="36.282"/>
				<rect x="-51.5" y="446.804" fill="#E4F2FB" width="31.315" height="10.885"/>
				<rect x="-16.271" y="446.804" fill="#E4F2FB" width="27.401" height="10.885"/>
				<rect x="-16.271" y="461.316" fill="#E4F2FB" width="27.401" height="36.282"/>
			</g>
			<path id="Rahmen_13_" fill="#8F6A4E" d="M15.045,443.176v58.051H-86.73v-58.051H15.045z M11.131,497.599v-36.282h-27.401v36.282
				H11.131z M11.131,457.688v-10.885h-27.401v10.885H11.131z M-20.185,497.599v-36.282H-51.5v36.282H-20.185z M-20.185,457.688
				v-10.885H-51.5v10.885H-20.185z M-55.415,497.599v-36.282h-27.401v36.282H-55.415z M-55.415,457.688v-10.885h-27.401v10.885
				H-55.415z"/>
			<path id="Rahmen_12_" fill="#FAFAFA" d="M26.788,504.855v3.628H-98.474v-3.628h3.915v-68.937H22.874v68.937H26.788z
				 M15.045,501.227v-58.051H-86.73v58.051H15.045z"/>
		</g>
		<g id="Fenster_9_">
			<g id="Glas_6_">
				<rect x="191.195" y="457.688" fill="#E4F2FB" width="39.144" height="10.885"/>
				<rect x="191.195" y="472.201" fill="#E4F2FB" width="39.144" height="36.282"/>
			</g>
			<path id="Rahmen_11_" fill="#8F6A4E" d="M234.253,454.061v58.051H187.28v-58.051H234.253z M230.339,508.483v-36.282h-39.144
				v36.282H230.339z M230.339,468.573v-10.885h-39.144v10.885H230.339z"/>
			<path id="Rahmen_10_" fill="#FAFAFA" d="M245.997,515.74v3.628h-70.46v-3.628h3.915v-68.937h62.631v68.937H245.997z
				 M234.253,512.111v-58.051H187.28v58.051H234.253z"/>
			<g id="Schatten_3_">
				<rect x="191.195" y="457.688" opacity="0.3" fill="#010202" width="39.144" height="1.814"/>
				<rect x="191.195" y="472.201" opacity="0.3" fill="#010202" width="39.144" height="1.814"/>
				<rect x="175.537" y="519.368" opacity="0.3" fill="#010202" width="70.46" height="1.814"/>
			</g>
		</g>
		<g id="Dach_3_">
			<g id="Dach_4_">
				<path fill="#672223" d="M69.87,385.104L5.087,316.188H222.51v25.397h19.572v-25.397h31.315l15.618,119.73h-19.532H50.275
					v-10.884v-3.629v-36.281h15.657h3.915L69.87,385.104z M191.195,403.266v-54.423H152.05v54.423H191.195z M132.478,403.266
					v-54.423H93.333v54.423H132.478z"/>
				<polygon fill="#4B2723" points="289.055,435.919 289.055,439.548 269.483,439.548 50.275,439.548 50.275,435.919 
					269.483,435.919 289.016,435.919 				"/>
			</g>
			<g id="Giebel_1_">
				<polygon fill="#FAFAFA" points="-35.843,276.278 65.933,385.125 50.275,385.125 50.275,377.868 -11.73,312.561 -15.175,308.932 
					-35.843,287.163 -56.512,308.932 -59.957,312.561 -121.96,377.868 -121.96,385.125 -137.618,385.125 				"/>
			</g>
			<rect id="Schatten_2_" x="50.275" y="439.548" opacity="0.3" fill="#010202" width="219.208" height="10.885"/>
		</g>
		<g id="Schornstein_1_">
			<polygon fill="#676F6B" points="245.997,296.302 245.997,299.93 242.082,299.93 222.51,299.93 218.596,299.93 218.596,296.302 
							"/>
			<polygon fill="#A09B86" points="242.082,316.188 242.082,341.586 222.51,341.586 222.51,316.188 222.51,299.93 242.082,299.93 
							"/>
			<rect x="222.51" y="299.93" opacity="0.3" fill="#010202" width="19.572" height="2.178"/>
		</g>
	</g>
</g>
</svg>
