<?xml version="1.0" encoding="utf-8"?>
<!-- Generator: Adobe Illustrator 16.0.1, SVG Export Plug-In . SVG Version: 6.00 Build 0)  -->
<!DOCTYPE svg PUBLIC "-//W3C//DTD SVG 1.1//EN" "http://www.w3.org/Graphics/SVG/1.1/DTD/svg11.dtd">
<svg version="1.1" id="content" xmlns="http://www.w3.org/2000/svg" xmlns:xlink="http://www.w3.org/1999/xlink" x="0px" y="0px"
	 width="500px" height="500px" viewBox="0 0 500 500" enable-background="new 0 0 500 500" xml:space="preserve">
<rect id="position" fill="none" width="500" height="500"/>
<g>
	<path fill="#C1272D" d="M96.807,257.062c4.377-11.178,79.477-7.04,84.209-9.021c4.733-1.986,7.91-3.697,7.91-3.697l3.917-2.751
		c0,0,68.7-40.903,72.015-40.903c3.313,0,46.466,43.883,88.879,31.983c26.021-7.305,18.927-13.386,23.188-12.897
		c4.256,0.503,8.129-9.062,13.336-5.096c5.204,3.966,7.401,71.314,7.401,71.314l-118.69,0.706l-91.805,4.46l-89.434-19.828
		c0,0-2.362-4.956,0.473-6.942C101.046,262.418,95.573,260.213,96.807,257.062z"/>
	<g>
		<path fill="#911D22" d="M391.448,218.595c-2.892,1.782-35.599,23.612-60.062,28.922c-24.47,5.309-76.128-28.674-82.645-31.46
			c-6.522-2.77-3.431-12.038-3.431-12.038s5.616-7.82,9.539-8.604c3.918-0.787,56.202,36.889,72.41,34.778
			c16.198-2.112,43.575-21.469,49.827-25.605c6.261-4.127,11.577,5.656,11.577,5.656S394.342,216.807,391.448,218.595z"/>
	</g>
	<path fill="#999999" d="M240.218,230.332c0.418-3.787-2.12-7.409-5.664-8.091c-3.548-0.683-6.761,1.841-7.175,5.63
		c-0.415,3.792,2.123,7.412,5.669,8.093C236.593,236.641,239.802,234.118,240.218,230.332z"/>
	<path fill="#911D22" d="M237.256,229.764c0.223-2.041-1.144-3.997-3.051-4.355c-1.909-0.367-3.638,0.989-3.861,3.03
		c-0.225,2.039,1.14,3.99,3.051,4.357C235.305,233.16,237.033,231.803,237.256,229.764z"/>
	<path fill="#E6E6E6" d="M236.09,218.972c-1.076-2.402-2.689-4.008-3.591-3.583l-9.126,4.278c-0.909,0.428-0.771,2.72,0.306,5.128
		l0,0c1.076,2.405,8.193,6.673,9.097,6.247l3.131-2.455C236.812,228.158,237.17,221.38,236.09,218.972L236.09,218.972z"/>
	<path fill="#999999" d="M255.238,223.699c0.414-3.79-2.125-7.413-5.665-8.092c-3.545-0.682-6.76,1.839-7.174,5.627
		c-0.415,3.789,2.123,7.412,5.67,8.092C251.613,230.007,254.822,227.487,255.238,223.699z"/>
	<path fill="#911D22" d="M252.277,223.131c0.219-2.041-1.147-3.99-3.056-4.356c-1.908-0.364-3.638,0.99-3.863,3.031
		c-0.224,2.038,1.146,3.995,3.055,4.356C250.321,226.526,252.053,225.17,252.277,223.131z"/>
	<path fill="#E6E6E6" d="M251.109,212.339c-1.075-2.405-2.688-4.003-3.59-3.583l-9.13,4.277c-0.91,0.426-0.769,2.723,0.309,5.128
		l0,0c1.078,2.402,8.194,6.673,9.099,6.245l3.127-2.456C251.832,221.525,252.186,214.742,251.109,212.339L251.109,212.339z"/>
	<path fill="#999999" d="M225.29,237.707c0.418-3.784-2.119-7.407-5.668-8.086c-3.542-0.685-6.753,1.838-7.17,5.622
		c-0.414,3.789,2.122,7.412,5.67,8.091C221.665,244.013,224.875,241.496,225.29,237.707z"/>
	<path fill="#911D22" d="M222.33,237.14c0.223-2.044-1.143-3.993-3.052-4.354c-1.91-0.37-3.642,0.989-3.864,3.027
		c-0.222,2.044,1.144,3.995,3.054,4.354C220.376,240.535,222.105,239.178,222.33,237.14z"/>
	<path fill="#E6E6E6" d="M221.163,226.345c-1.071-2.405-2.685-4.006-3.591-3.581l-9.13,4.278c-0.903,0.422-0.768,2.72,0.312,5.122
		l0,0c1.075,2.408,8.195,6.676,9.099,6.253l3.128-2.453C221.889,235.531,222.241,228.753,221.163,226.345L221.163,226.345z"/>
	<path fill="#E6E6E6" d="M96.807,257.062c-0.477,3.6-6.179,36.577,1.427,41.973c7.607,5.393,48.978,21.582,90.822,22.782
		c41.847,1.199,155.017,0,155.017,0s40.896-0.602,48.026-3.599c7.129-2.997,7.143-34.562,7.143-34.562s0.953-3.737-3.328-6.136
		c-4.278-2.404-155.024,6.522-197.346,5.918C156.244,282.845,97.282,253.469,96.807,257.062z"/>
	<path fill="#666666" d="M96.567,260.213c0,0,48.127,23.097,86.368,27.287c38.241,4.201,216.141-0.248,216.141-0.248l-0.332,5.926
		c0,0-178.868,5.115-214.811,1.302c-35.944-3.805-88.362-29.824-88.362-29.824L96.567,260.213z"/>
</g>
</svg>
