<?xml version="1.0" encoding="utf-8"?>
<!-- Generator: Adobe Illustrator 16.0.1, SVG Export Plug-In . SVG Version: 6.00 Build 0)  -->
<!DOCTYPE svg PUBLIC "-//W3C//DTD SVG 1.1//EN" "http://www.w3.org/Graphics/SVG/1.1/DTD/svg11.dtd">
<svg version="1.1" id="Layer_1" xmlns="http://www.w3.org/2000/svg" xmlns:xlink="http://www.w3.org/1999/xlink" x="0px" y="0px"
	 width="500px" height="500px" viewBox="0 0 500 500" enable-background="new 0 0 500 500" xml:space="preserve">
<g id="avatar">
	<g>
		<g display="none">
			<g display="inline">
				<path fill="#FED9AE" d="M157.406,338.494c0,11.978-9.8,21.777-21.776,21.777h-0.589c-11.979,0-21.778-9.804-21.778-21.777
					V218.491c0-11.979,9.8-21.778,21.778-21.778h0.589c11.978,0,21.776,9.8,21.776,21.778V338.494z"/>
			</g>
		</g>
		<g display="none">
			<g display="inline">
				<path fill="#FED9AE" d="M388.595,338.494c0,11.978-9.8,21.777-21.778,21.777h-0.588c-11.979,0-21.774-9.804-21.774-21.777
					V218.491c0-11.979,9.8-21.778,21.774-21.778h0.588c11.979,0,21.778,9.8,21.778,21.778V338.494L388.595,338.494z"/>
			</g>
		</g>
		<g display="none">
			<g display="inline">
				<path fill="#FED9AE" d="M186.923,472.011v-87.296c0-13.441,11-24.441,24.444-24.441h2.352c13.444,0,24.444,11,24.444,24.441
					v87.296H186.923z"/>
			</g>
			<g display="inline">
				<path fill="#FED9AE" d="M262.38,471.699v-86.674c0-13.614,11.14-24.754,24.755-24.754h3.041
					c13.615,0,24.755,11.14,24.755,24.754v86.674H262.38z"/>
			</g>
		</g>
		<g display="none">
			<circle display="inline" fill="#FED9AE" cx="250.928" cy="105.505" r="85.691"/>
		</g>
		<g display="none">
			<circle display="inline" fill="#FFFFFF" cx="218.528" cy="96.644" r="15.116"/>
			<circle display="inline" fill="#FFFFFF" cx="282.104" cy="96.644" r="15.116"/>
			<path display="inline" fill="#FFFFFF" d="M266.044,139.444c0,8.348-6.769,15.115-15.116,15.115s-15.117-6.768-15.117-15.115
				H266.044z"/>
		</g>
		<g display="none">
			<path display="inline" fill="#FED9AE" d="M323.582,375.08c-1.005,11.803-11.521,21.46-23.366,21.46h-98.88
				c-11.848,0-22.348-9.658-23.333-21.463l-13.127-156.901c-0.987-11.805,7.896-21.463,19.742-21.463h132.619
				c11.848,0,20.717,9.657,19.709,21.46L323.582,375.08z"/>
		</g>
	</g>
</g>
<g id="clothes">
</g>
<path display="none" fill="#727272" d="M121.949,477.607c0,0-2.96-0.621-2.872,5.764c0.031,2.386,6.386,9.783,26.724,12.441
	c32.447,4.241,85.668,3.686,98.252-0.211c0.639-0.195,1.594-0.616,1.594-0.616c1.306-1.419,2.09-7.536,0-12.77
	c0,0-0.521-0.887-2.699-0.619c-2.176,0.267-105.154-0.667-105.154-0.667L121.949,477.607z"/>
<path display="none" fill="#A2AEAE" d="M126.128,469.271c0,0,1.188-0.504,4.759-0.77c3.699-0.274,9.853-0.317,13.694-0.769
	c4.353-0.509,7.22-1.638,7.835-1.832c0,0-0.765,3.023,0.751,4.144c1.513,1.119,5.727,5.923,5.11,8.093c0,0-0.115,3.017-3.365,2.779
	s-6.963-4.315-8.938-4.611c-1.974-0.295-11.781-2.424-11.781-2.424l-6.673-2.009C127.522,471.874,123.982,470.159,126.128,469.271z"
	/>
<path display="none" fill="#A2AEAE" d="M187.602,444.435c-0.728,0.844-1.572,1.751-2.58,2.715c-0.293,0.276-0.6,0.557-0.92,0.844
	c-0.106,0.096-0.219,0.193-0.326,0.291c-1.305,1.139-2.676,2.178-4.186,3.178c-0.509,0.338-1.03,0.666-1.572,0.997
	c-1.264,0.77-2.638,1.532-4.151,2.319c-0.776,0.403-1.596,0.815-2.455,1.237c-0.619,0.306-1.265,0.613-1.933,0.934
	c-0.606,0.286-1.295,0.568-2.033,0.854c-0.684,0.263-1.409,0.521-2.157,0.787c-1.33,0.465-2.729,0.938-4.064,1.435
	c-0.571,0.207-1.128,0.426-1.668,0.647c-0.238,0.1-0.474,0.191-0.703,0.277c-1.581,0.604-3.029,1.018-4.412,1.651h-0.003
	c-0.655,0.293-1.296,0.643-1.933,1.084c0,0-1.979,3.398-0.311,5.602c1.666,2.202,2.312,1.583,8.579,0.341
	c6.268-1.242,13.754-3.725,13.754-3.725l28.986-8.245l2.408-4.273C199.147,452.137,192.094,449.123,187.602,444.435z"/>
<ellipse display="none" fill="#A2AEAE" cx="155.377" cy="464.965" rx="2.075" ry="2.119"/>
<ellipse display="none" fill="#A2AEAE" cx="162.016" cy="463.363" rx="2.074" ry="2.119"/>
<ellipse display="none" fill="#A2AEAE" cx="168.4" cy="460.949" rx="2.074" ry="2.119"/>
<ellipse display="none" fill="#A2AEAE" cx="174.882" cy="457.881" rx="2.075" ry="2.121"/>
<ellipse display="none" fill="#A2AEAE" cx="180.621" cy="454.578" rx="2.075" ry="2.121"/>
<path display="none" fill="#A2AEAE" d="M238.26,441.752c-5.732,4.952-12.141,9.687-19.301,11.505l8.231,10.075l17.411,2.749
	l0.9-1.784C243.062,456.602,239.212,449.683,238.26,441.752z"/>
<path display="none" fill="#727272" d="M126.128,469.271c0,0-4.526,2.659-4.179,8.336c0.187,3.061,12.357,6.862,28.028,8.512
	c13.385,1.406,30.643,0.887,30.643,0.887s-6.159-5.186-9.748-10.947c-2.745-4.403-3.24-9.428-2.787-11.043
	c0,0-3.537,4.535-15.376,4.892c0,0,7.077,6.932,4.292,9.416c-2.784,2.481-5.564-0.397-8.009-2.721c0,0-1.571-1.153-4.877-1.949
	c-3.479-0.842-8.771-1.343-11.778-2.07C126.477,471.164,126.128,469.271,126.128,469.271z"/>
<path display="none" fill="#A2AEAE" d="M207.309,453.613c-1.546-0.231-3.115-0.561-4.677-0.978
	c-0.283,1.619-1.136,3.192-3.252,3.832c-2.396,0.729-6.077-0.046-9.271,0.213c-3.598,0.292-6.621,1.596-7.399,2.129
	c-1.302,0.893-1.959,2.363-4.005,3.369c-2.211,1.088-5.679,0.831-7.746,1.597c-2.654,0.979-2.874,1.239-2.874,1.239
	s-4.7,18.089,12.535,21.99c18.89-2.129,33.167-2.395,33.167-2.395s3.741-8.688,0.782-16.669
	C212.385,462.05,211.046,458.379,207.309,453.613z"/>
<path display="none" fill="#CAD7D7" d="M245.107,463.07c-1.249-0.017-3.503-0.414-6.251-2.576
	c-3.235-2.547-7.263-6.547-11.616-10.671c-4.427,2.515-9.18,4.198-14.283,4.221c-1.755,0.008-3.615-0.132-5.515-0.409
	c0.361,0.5,0.712,1.01,1.04,1.537c5.261,8.501,7.35,20.256,5.308,29.439c0,0,28.464-0.088,31.337-2.748
	c0.47-4.783,0.779-11.698,0.933-15.698C245.766,465.119,245.451,464.087,245.107,463.07z"/>
<g display="none">
	<path display="inline" fill="#A2AEAE" d="M178.018,452.458v0.004l-1.541,5.841c-0.25,0.958-1.184,1.535-2.078,1.291
		c-0.898-0.244-1.422-1.221-1.166-2.181c0,0,0.308-1.313,0.634-2.636C175.38,453.99,176.754,453.228,178.018,452.458z"/>
</g>
<g display="none">
	<path display="inline" fill="#A2AEAE" d="M171.41,456.016l-1.296,5.256c-0.235,0.962-1.158,1.555-2.061,1.323
		c-0.902-0.23-1.438-1.195-1.202-2.161c0,0,0.286-1.309,0.593-2.631c0.738-0.285,1.427-0.567,2.033-0.854
		C170.147,456.629,170.791,456.32,171.41,456.016z"/>
</g>
<g display="none">
	<path display="inline" fill="#A2AEAE" d="M165.287,458.59l-1.65,5.121c-0.304,0.941-1.266,1.466-2.146,1.17
		c-0.886-0.293-1.354-1.297-1.049-2.24c0,0,0.378-1.309,0.779-2.616C162.56,459.526,163.957,459.055,165.287,458.59z"/>
</g>
<g display="none">
	<path display="inline" fill="#A2AEAE" d="M158.852,460.949l-1.909,4.461c-0.386,0.912-1.392,1.34-2.243,0.965
		c-0.851-0.381-1.229-1.422-0.839-2.33c0,0,0.249-0.629,0.576-1.443h0.003L158.852,460.949z"/>
</g>
<g display="none">
	<path display="inline" fill="#A2AEAE" d="M183.754,449.18l-1.577,5.828c-0.257,0.957-1.194,1.527-2.089,1.279
		c-0.896-0.25-1.415-1.229-1.152-2.188c0,0,0.315-1.315,0.654-2.639c1.51-1,2.881-2.039,4.186-3.178
		C183.84,448.566,183.838,448.876,183.754,449.18z"/>
</g>
<g id="Sniekers_2_" display="none">
	<path display="inline" fill="#727272" d="M378.99,477.607c0,0,2.959-0.621,2.872,5.764c-0.031,2.386-6.386,9.783-26.724,12.441
		c-32.447,4.241-85.668,3.686-98.252-0.211c-0.639-0.195-1.594-0.616-1.594-0.616c-1.306-1.419-2.09-7.536,0-12.77
		c0,0,0.521-0.887,2.699-0.619c2.176,0.267,105.154-0.667,105.154-0.667L378.99,477.607z"/>
	<path display="inline" fill="#A2AEAE" d="M374.811,469.271c0,0-1.188-0.504-4.759-0.77c-3.699-0.274-9.854-0.317-13.694-0.769
		c-4.353-0.509-7.22-1.638-7.835-1.832c0,0,0.765,3.023-0.751,4.144c-1.513,1.119-5.727,5.923-5.11,8.093
		c0,0,0.115,3.017,3.365,2.779s6.963-4.315,8.938-4.611c1.974-0.295,11.781-2.424,11.781-2.424l6.673-2.009
		C373.417,471.874,376.957,470.159,374.811,469.271z"/>
	<path display="inline" fill="#A2AEAE" d="M313.337,444.435c0.728,0.844,1.571,1.751,2.58,2.715c0.293,0.276,0.6,0.557,0.92,0.844
		c0.106,0.096,0.219,0.193,0.326,0.291c1.305,1.139,2.676,2.178,4.186,3.178c0.509,0.338,1.03,0.666,1.572,0.997
		c1.264,0.77,2.638,1.532,4.151,2.319c0.776,0.403,1.596,0.815,2.455,1.237c0.619,0.306,1.265,0.613,1.933,0.934
		c0.606,0.286,1.295,0.568,2.033,0.854c0.684,0.263,1.409,0.521,2.157,0.787c1.33,0.465,2.729,0.938,4.064,1.435
		c0.571,0.207,1.128,0.426,1.668,0.647c0.238,0.1,0.474,0.191,0.703,0.277c1.581,0.604,3.028,1.018,4.412,1.651h0.003
		c0.654,0.293,1.296,0.643,1.933,1.084c0,0,1.979,3.398,0.311,5.602c-1.666,2.202-2.312,1.583-8.579,0.341
		c-6.268-1.242-13.754-3.725-13.754-3.725l-28.986-8.245l-2.408-4.273C301.792,452.137,308.844,449.123,313.337,444.435z"/>
	<ellipse display="inline" fill="#A2AEAE" cx="345.562" cy="464.965" rx="2.075" ry="2.119"/>
	<ellipse display="inline" fill="#A2AEAE" cx="338.923" cy="463.363" rx="2.074" ry="2.119"/>
	<ellipse display="inline" fill="#A2AEAE" cx="332.539" cy="460.949" rx="2.073" ry="2.119"/>
	<ellipse display="inline" fill="#A2AEAE" cx="326.057" cy="457.881" rx="2.075" ry="2.121"/>
	<ellipse display="inline" fill="#A2AEAE" cx="320.318" cy="454.578" rx="2.076" ry="2.121"/>
	<ellipse display="inline" fill="#A2AEAE" cx="314.55" cy="450.113" rx="2.075" ry="2.119"/>
	<path display="inline" fill="#A2AEAE" d="M262.68,441.752c5.732,4.952,12.141,9.687,19.301,11.505l-8.231,10.075l-17.411,2.749
		l-0.9-1.784C257.877,456.602,261.727,449.683,262.68,441.752z"/>
	<path display="inline" fill="#727272" d="M374.811,469.271c0,0,4.526,2.659,4.179,8.336c-0.187,3.061-12.357,6.862-28.028,8.512
		c-13.385,1.406-30.643,0.887-30.643,0.887s6.159-5.186,9.748-10.947c2.745-4.403,3.24-9.428,2.787-11.043
		c0,0,3.537,4.535,15.376,4.892c0,0-7.077,6.932-4.292,9.416c2.784,2.481,5.564-0.397,8.009-2.721c0,0,1.571-1.153,4.876-1.949
		c3.479-0.842,8.771-1.343,11.779-2.07C374.462,471.164,374.811,469.271,374.811,469.271z"/>
	<path display="inline" fill="#A2AEAE" d="M293.629,453.613c1.547-0.231,3.115-0.561,4.678-0.978
		c0.283,1.619,1.136,3.192,3.252,3.832c2.396,0.729,6.077-0.046,9.271,0.213c3.598,0.292,6.621,1.596,7.399,2.129
		c1.302,0.893,1.959,2.363,4.005,3.369c2.211,1.088,5.679,0.831,7.746,1.597c2.654,0.979,2.874,1.239,2.874,1.239
		s4.7,18.089-12.535,21.99c-18.89-2.129-33.167-2.395-33.167-2.395s-3.741-8.688-0.782-16.669
		C288.554,462.05,289.893,458.379,293.629,453.613z"/>
	<path display="inline" fill="#CAD7D7" d="M255.832,463.07c1.249-0.017,3.503-0.414,6.251-2.576
		c3.235-2.547,7.263-6.547,11.616-10.671c4.427,2.515,9.18,4.198,14.283,4.221c1.755,0.008,3.614-0.132,5.516-0.409
		c-0.361,0.5-0.713,1.01-1.04,1.537c-5.261,8.501-7.35,20.256-5.308,29.439c0,0-28.464-0.088-31.337-2.748
		c-0.47-4.783-0.779-11.698-0.934-15.698C255.173,465.119,255.489,464.087,255.832,463.07z"/>
	<g display="inline">
		<path fill="#A2AEAE" d="M322.921,452.458v0.004l1.541,5.841c0.25,0.958,1.184,1.535,2.078,1.291
			c0.898-0.244,1.422-1.221,1.166-2.181c0,0-0.308-1.313-0.634-2.636C325.559,453.99,324.185,453.228,322.921,452.458z"/>
	</g>
	<g display="inline">
		<path fill="#A2AEAE" d="M329.529,456.016l1.296,5.256c0.235,0.962,1.158,1.555,2.061,1.323c0.902-0.23,1.438-1.195,1.202-2.161
			c0,0-0.286-1.309-0.593-2.631c-0.738-0.285-1.427-0.567-2.033-0.854C330.792,456.629,330.148,456.32,329.529,456.016z"/>
	</g>
	<g display="inline">
		<path fill="#A2AEAE" d="M335.652,458.59l1.65,5.121c0.304,0.941,1.266,1.466,2.146,1.17c0.886-0.293,1.354-1.297,1.049-2.24
			c0,0-0.378-1.309-0.779-2.616C338.379,459.526,336.982,459.055,335.652,458.59z"/>
	</g>
	<g display="inline">
		<path fill="#A2AEAE" d="M342.087,460.949l1.909,4.461c0.386,0.912,1.392,1.34,2.243,0.965c0.851-0.381,1.229-1.422,0.839-2.33
			c0,0-0.249-0.629-0.576-1.443h-0.003L342.087,460.949z"/>
	</g>
	<g display="inline">
		<path fill="#A2AEAE" d="M317.185,449.18l1.577,5.828c0.257,0.957,1.194,1.527,2.089,1.279c0.896-0.25,1.415-1.229,1.152-2.188
			c0,0-0.315-1.315-0.654-2.639c-1.51-1-2.881-2.039-4.186-3.178C317.099,448.566,317.101,448.876,317.185,449.18z"/>
	</g>
	<g display="inline">
		<path fill="#A2AEAE" d="M313.337,444.435c0.728,0.844,1.571,1.751,2.58,2.715c0.164,1.266,0.303,2.452,0.303,2.452
			c0.143,0.982-0.488,1.893-1.408,2.029c-0.913,0.138-1.774-0.547-1.916-1.528l-0.665-4.581
			C312.616,445.171,312.982,444.806,313.337,444.435z"/>
	</g>
</g>
<g>
	<path fill="#008D36" d="M238.538,474.41c0,12.205-11,22.189-24.444,22.189h-2.352c-13.444,0-24.444-9.984-24.444-22.189
		c0-12.203,11-22.189,24.444-22.189h2.352C227.539,452.221,238.538,462.207,238.538,474.41z"/>
</g>
<g>
	<path fill="#008D36" d="M314.931,474.265c0,12.204-11.14,22.189-24.755,22.189h-3.041c-13.615,0-24.755-9.985-24.755-22.189
		s11.14-22.189,24.755-22.189h3.041C303.791,452.075,314.931,462.061,314.931,474.265z"/>
</g>
<g>
	<path fill="#F3982B" d="M189.378,482.559c2.663-2.771,7.72-3.231,10.288-0.478c2.914,2.919,1.537,8.022-0.007,11.598
		c-8.662-1.044-10.215-5.879-10.537-10.872"/>
</g>
<g>
	<path fill="#F3982B" d="M225.404,493.767c-2.795-2.638-3.302-7.69-0.572-10.282c2.894-2.941,8.008-1.61,11.598-0.1
		c-0.964,8.672-5.786,10.269-10.775,10.636"/>
</g>
<g>
	<path fill="#F3982B" d="M205.144,495.194c-0.039-3.843,3.25-7.712,7.012-7.544c4.125,0.046,6.713,4.653,8.114,8.287
		c-6.917,5.318-11.411,2.953-15.136-0.387"/>
</g>
<g>
	<path fill="#F3982B" d="M265.258,482.559c2.663-2.771,7.72-3.231,10.287-0.478c2.914,2.919,1.537,8.022-0.006,11.598
		c-8.662-1.044-10.216-5.879-10.537-10.872"/>
</g>
<g>
	<path fill="#F3982B" d="M301.283,493.767c-2.795-2.638-3.301-7.69-0.572-10.282c2.895-2.941,8.009-1.61,11.598-0.1
		c-0.964,8.672-5.785,10.269-10.775,10.636"/>
</g>
<g>
	<path fill="#F3982B" d="M281.025,495.194c-0.039-3.843,3.25-7.712,7.012-7.544c4.125,0.046,6.713,4.653,8.114,8.287
		c-6.917,5.318-11.411,2.953-15.136-0.387"/>
</g>
</svg>
