<?xml version="1.0" encoding="utf-8"?>
<!-- Generator: Adobe Illustrator 16.0.1, SVG Export Plug-In . SVG Version: 6.00 Build 0)  -->
<!DOCTYPE svg PUBLIC "-//W3C//DTD SVG 1.1//EN" "http://www.w3.org/Graphics/SVG/1.1/DTD/svg11.dtd">
<svg version="1.1" id="Layer_1" xmlns="http://www.w3.org/2000/svg" xmlns:xlink="http://www.w3.org/1999/xlink" x="0px" y="0px"
	 width="500px" height="500px" viewBox="0 0 500 500" enable-background="new 0 0 500 500" xml:space="preserve">
<g id="avatar">
	<g>
		<g display="none">
			<g display="inline">
				<path fill="#FED9AE" d="M157.406,338.494c0,11.978-9.8,21.777-21.776,21.777h-0.589c-11.979,0-21.778-9.804-21.778-21.777
					V218.491c0-11.979,9.8-21.778,21.778-21.778h0.589c11.978,0,21.776,9.8,21.776,21.778V338.494z"/>
			</g>
		</g>
		<g display="none">
			<g display="inline">
				<path fill="#FED9AE" d="M388.595,338.494c0,11.978-9.8,21.777-21.778,21.777h-0.588c-11.979,0-21.774-9.804-21.774-21.777
					V218.491c0-11.979,9.8-21.778,21.774-21.778h0.588c11.979,0,21.778,9.8,21.778,21.778V338.494L388.595,338.494z"/>
			</g>
		</g>
		<g display="none">
			<g display="inline">
				<path fill="#FED9AE" d="M186.923,472.011v-87.296c0-13.441,11-24.441,24.444-24.441h2.352c13.444,0,24.444,11,24.444,24.441
					v87.296H186.923z"/>
			</g>
			<g display="inline">
				<path fill="#FED9AE" d="M262.38,471.699v-86.674c0-13.614,11.14-24.754,24.755-24.754h3.041
					c13.615,0,24.755,11.14,24.755,24.754v86.674H262.38z"/>
			</g>
		</g>
		<g display="none">
			<circle display="inline" fill="#FED9AE" cx="250.928" cy="105.505" r="85.691"/>
		</g>
		<g display="none">
			<circle display="inline" fill="#FFFFFF" cx="218.528" cy="96.644" r="15.116"/>
			<circle display="inline" fill="#FFFFFF" cx="282.104" cy="96.644" r="15.116"/>
			<path display="inline" fill="#FFFFFF" d="M266.044,139.444c0,8.348-6.769,15.115-15.116,15.115s-15.117-6.768-15.117-15.115
				H266.044z"/>
		</g>
		<g display="none">
			<path display="inline" fill="#FED9AE" d="M323.582,375.08c-1.005,11.803-11.521,21.46-23.366,21.46h-98.88
				c-11.848,0-22.348-9.658-23.333-21.463l-13.127-156.901c-0.987-11.805,7.896-21.463,19.742-21.463h132.619
				c11.848,0,20.717,9.657,19.709,21.46L323.582,375.08z"/>
		</g>
	</g>
</g>
<g id="clothes">
</g>
<path display="none" fill="#727272" d="M121.949,477.607c0,0-2.96-0.621-2.872,5.764c0.031,2.386,6.386,9.783,26.724,12.441
	c32.447,4.241,85.668,3.686,98.252-0.211c0.639-0.195,1.594-0.616,1.594-0.616c1.306-1.419,2.09-7.536,0-12.77
	c0,0-0.521-0.887-2.699-0.619c-2.176,0.267-105.154-0.667-105.154-0.667L121.949,477.607z"/>
<path display="none" fill="#A2AEAE" d="M126.128,469.271c0,0,1.188-0.504,4.759-0.77c3.699-0.274,9.853-0.317,13.694-0.769
	c4.353-0.509,7.22-1.638,7.835-1.832c0,0-0.765,3.023,0.751,4.144c1.513,1.119,5.727,5.923,5.11,8.093c0,0-0.115,3.017-3.365,2.779
	s-6.963-4.315-8.938-4.611c-1.974-0.295-11.781-2.424-11.781-2.424l-6.673-2.009C127.522,471.874,123.982,470.159,126.128,469.271z"
	/>
<path display="none" fill="#A2AEAE" d="M187.602,444.435c-0.728,0.844-1.572,1.751-2.58,2.715c-0.293,0.276-0.6,0.557-0.92,0.844
	c-0.106,0.096-0.219,0.193-0.326,0.291c-1.305,1.139-2.676,2.178-4.186,3.178c-0.509,0.338-1.03,0.666-1.572,0.997
	c-1.264,0.77-2.638,1.532-4.151,2.319c-0.776,0.403-1.596,0.815-2.455,1.237c-0.619,0.306-1.265,0.613-1.933,0.934
	c-0.606,0.286-1.295,0.568-2.033,0.854c-0.684,0.263-1.409,0.521-2.157,0.787c-1.33,0.465-2.729,0.938-4.064,1.435
	c-0.571,0.207-1.128,0.426-1.668,0.647c-0.238,0.1-0.474,0.191-0.703,0.277c-1.581,0.604-3.029,1.018-4.412,1.651h-0.003
	c-0.655,0.293-1.296,0.643-1.933,1.084c0,0-1.979,3.398-0.311,5.602c1.666,2.202,2.312,1.583,8.579,0.341
	c6.268-1.242,13.754-3.725,13.754-3.725l28.986-8.245l2.408-4.273C199.147,452.137,192.094,449.123,187.602,444.435z"/>
<ellipse display="none" fill="#A2AEAE" cx="155.377" cy="464.965" rx="2.075" ry="2.119"/>
<ellipse display="none" fill="#A2AEAE" cx="162.016" cy="463.363" rx="2.074" ry="2.119"/>
<ellipse display="none" fill="#A2AEAE" cx="168.4" cy="460.949" rx="2.074" ry="2.119"/>
<ellipse display="none" fill="#A2AEAE" cx="174.882" cy="457.881" rx="2.075" ry="2.121"/>
<ellipse display="none" fill="#A2AEAE" cx="180.621" cy="454.578" rx="2.075" ry="2.121"/>
<path display="none" fill="#A2AEAE" d="M238.26,441.752c-5.732,4.952-12.141,9.687-19.301,11.505l8.231,10.075l17.411,2.749
	l0.9-1.784C243.062,456.602,239.212,449.683,238.26,441.752z"/>
<path display="none" fill="#727272" d="M126.128,469.271c0,0-4.526,2.659-4.179,8.336c0.187,3.061,12.357,6.862,28.028,8.512
	c13.385,1.406,30.643,0.887,30.643,0.887s-6.159-5.186-9.748-10.947c-2.745-4.403-3.24-9.428-2.787-11.043
	c0,0-3.537,4.535-15.376,4.892c0,0,7.077,6.932,4.292,9.416c-2.784,2.481-5.564-0.397-8.009-2.721c0,0-1.571-1.153-4.877-1.949
	c-3.479-0.842-8.771-1.343-11.778-2.07C126.477,471.164,126.128,469.271,126.128,469.271z"/>
<path display="none" fill="#A2AEAE" d="M207.309,453.613c-1.546-0.231-3.115-0.561-4.677-0.978
	c-0.283,1.619-1.136,3.192-3.252,3.832c-2.396,0.729-6.077-0.046-9.271,0.213c-3.598,0.292-6.621,1.596-7.399,2.129
	c-1.302,0.893-1.959,2.363-4.005,3.369c-2.211,1.088-5.679,0.831-7.746,1.597c-2.654,0.979-2.874,1.239-2.874,1.239
	s-4.7,18.089,12.535,21.99c18.89-2.129,33.167-2.395,33.167-2.395s3.741-8.688,0.782-16.669
	C212.385,462.05,211.046,458.379,207.309,453.613z"/>
<path display="none" fill="#CAD7D7" d="M245.107,463.07c-1.249-0.017-3.503-0.414-6.251-2.576
	c-3.235-2.547-7.263-6.547-11.616-10.671c-4.427,2.515-9.18,4.198-14.283,4.221c-1.755,0.008-3.615-0.132-5.515-0.409
	c0.361,0.5,0.712,1.01,1.04,1.537c5.261,8.501,7.35,20.256,5.308,29.439c0,0,28.464-0.088,31.337-2.748
	c0.47-4.783,0.779-11.698,0.933-15.698C245.766,465.119,245.451,464.087,245.107,463.07z"/>
<g display="none">
	<path display="inline" fill="#A2AEAE" d="M178.018,452.458v0.004l-1.541,5.841c-0.25,0.958-1.184,1.535-2.078,1.291
		c-0.898-0.244-1.422-1.221-1.166-2.181c0,0,0.308-1.313,0.634-2.636C175.38,453.99,176.754,453.228,178.018,452.458z"/>
</g>
<g display="none">
	<path display="inline" fill="#A2AEAE" d="M171.41,456.016l-1.296,5.256c-0.235,0.962-1.158,1.555-2.061,1.323
		c-0.902-0.23-1.438-1.195-1.202-2.161c0,0,0.286-1.309,0.593-2.631c0.738-0.285,1.427-0.567,2.033-0.854
		C170.147,456.629,170.791,456.32,171.41,456.016z"/>
</g>
<g display="none">
	<path display="inline" fill="#A2AEAE" d="M165.287,458.59l-1.65,5.121c-0.304,0.941-1.266,1.466-2.146,1.17
		c-0.886-0.293-1.354-1.297-1.049-2.24c0,0,0.378-1.309,0.779-2.616C162.56,459.526,163.957,459.055,165.287,458.59z"/>
</g>
<g display="none">
	<path display="inline" fill="#A2AEAE" d="M158.852,460.949l-1.909,4.461c-0.386,0.912-1.392,1.34-2.243,0.965
		c-0.851-0.381-1.229-1.422-0.839-2.33c0,0,0.249-0.629,0.576-1.443h0.003L158.852,460.949z"/>
</g>
<g display="none">
	<path display="inline" fill="#A2AEAE" d="M183.754,449.18l-1.577,5.828c-0.257,0.957-1.194,1.527-2.089,1.279
		c-0.896-0.25-1.415-1.229-1.152-2.188c0,0,0.315-1.315,0.654-2.639c1.51-1,2.881-2.039,4.186-3.178
		C183.84,448.566,183.838,448.876,183.754,449.18z"/>
</g>
<g id="Sniekers_2_" display="none">
	<path display="inline" fill="#727272" d="M378.99,477.607c0,0,2.959-0.621,2.872,5.764c-0.031,2.386-6.386,9.783-26.724,12.441
		c-32.447,4.241-85.668,3.686-98.252-0.211c-0.639-0.195-1.594-0.616-1.594-0.616c-1.306-1.419-2.09-7.536,0-12.77
		c0,0,0.521-0.887,2.699-0.619c2.176,0.267,105.154-0.667,105.154-0.667L378.99,477.607z"/>
	<path display="inline" fill="#A2AEAE" d="M374.811,469.271c0,0-1.188-0.504-4.759-0.77c-3.699-0.274-9.854-0.317-13.694-0.769
		c-4.353-0.509-7.22-1.638-7.835-1.832c0,0,0.765,3.023-0.751,4.144c-1.513,1.119-5.727,5.923-5.11,8.093
		c0,0,0.115,3.017,3.365,2.779s6.963-4.315,8.938-4.611c1.974-0.295,11.781-2.424,11.781-2.424l6.673-2.009
		C373.417,471.874,376.957,470.159,374.811,469.271z"/>
	<path display="inline" fill="#A2AEAE" d="M313.337,444.435c0.728,0.844,1.571,1.751,2.58,2.715c0.293,0.276,0.6,0.557,0.92,0.844
		c0.106,0.096,0.219,0.193,0.326,0.291c1.305,1.139,2.676,2.178,4.186,3.178c0.509,0.338,1.03,0.666,1.572,0.997
		c1.264,0.77,2.638,1.532,4.151,2.319c0.776,0.403,1.596,0.815,2.455,1.237c0.619,0.306,1.265,0.613,1.933,0.934
		c0.606,0.286,1.295,0.568,2.033,0.854c0.684,0.263,1.409,0.521,2.157,0.787c1.33,0.465,2.729,0.938,4.064,1.435
		c0.571,0.207,1.128,0.426,1.668,0.647c0.238,0.1,0.474,0.191,0.703,0.277c1.581,0.604,3.028,1.018,4.412,1.651h0.003
		c0.654,0.293,1.296,0.643,1.933,1.084c0,0,1.979,3.398,0.311,5.602c-1.666,2.202-2.312,1.583-8.579,0.341
		c-6.268-1.242-13.754-3.725-13.754-3.725l-28.986-8.245l-2.408-4.273C301.792,452.137,308.844,449.123,313.337,444.435z"/>
	<ellipse display="inline" fill="#A2AEAE" cx="345.562" cy="464.965" rx="2.075" ry="2.119"/>
	<ellipse display="inline" fill="#A2AEAE" cx="338.923" cy="463.363" rx="2.074" ry="2.119"/>
	<ellipse display="inline" fill="#A2AEAE" cx="332.539" cy="460.949" rx="2.073" ry="2.119"/>
	<ellipse display="inline" fill="#A2AEAE" cx="326.057" cy="457.881" rx="2.075" ry="2.121"/>
	<ellipse display="inline" fill="#A2AEAE" cx="320.318" cy="454.578" rx="2.076" ry="2.121"/>
	<ellipse display="inline" fill="#A2AEAE" cx="314.55" cy="450.113" rx="2.075" ry="2.119"/>
	<path display="inline" fill="#A2AEAE" d="M262.68,441.752c5.732,4.952,12.141,9.687,19.301,11.505l-8.231,10.075l-17.411,2.749
		l-0.9-1.784C257.877,456.602,261.727,449.683,262.68,441.752z"/>
	<path display="inline" fill="#727272" d="M374.811,469.271c0,0,4.526,2.659,4.179,8.336c-0.187,3.061-12.357,6.862-28.028,8.512
		c-13.385,1.406-30.643,0.887-30.643,0.887s6.159-5.186,9.748-10.947c2.745-4.403,3.24-9.428,2.787-11.043
		c0,0,3.537,4.535,15.376,4.892c0,0-7.077,6.932-4.292,9.416c2.784,2.481,5.564-0.397,8.009-2.721c0,0,1.571-1.153,4.876-1.949
		c3.479-0.842,8.771-1.343,11.779-2.07C374.462,471.164,374.811,469.271,374.811,469.271z"/>
	<path display="inline" fill="#A2AEAE" d="M293.629,453.613c1.547-0.231,3.115-0.561,4.678-0.978
		c0.283,1.619,1.136,3.192,3.252,3.832c2.396,0.729,6.077-0.046,9.271,0.213c3.598,0.292,6.621,1.596,7.399,2.129
		c1.302,0.893,1.959,2.363,4.005,3.369c2.211,1.088,5.679,0.831,7.746,1.597c2.654,0.979,2.874,1.239,2.874,1.239
		s4.7,18.089-12.535,21.99c-18.89-2.129-33.167-2.395-33.167-2.395s-3.741-8.688-0.782-16.669
		C288.554,462.05,289.893,458.379,293.629,453.613z"/>
	<path display="inline" fill="#CAD7D7" d="M255.832,463.07c1.249-0.017,3.503-0.414,6.251-2.576
		c3.235-2.547,7.263-6.547,11.616-10.671c4.427,2.515,9.18,4.198,14.283,4.221c1.755,0.008,3.614-0.132,5.516-0.409
		c-0.361,0.5-0.713,1.01-1.04,1.537c-5.261,8.501-7.35,20.256-5.308,29.439c0,0-28.464-0.088-31.337-2.748
		c-0.47-4.783-0.779-11.698-0.934-15.698C255.173,465.119,255.489,464.087,255.832,463.07z"/>
	<g display="inline">
		<path fill="#A2AEAE" d="M322.921,452.458v0.004l1.541,5.841c0.25,0.958,1.184,1.535,2.078,1.291
			c0.898-0.244,1.422-1.221,1.166-2.181c0,0-0.308-1.313-0.634-2.636C325.559,453.99,324.185,453.228,322.921,452.458z"/>
	</g>
	<g display="inline">
		<path fill="#A2AEAE" d="M329.529,456.016l1.296,5.256c0.235,0.962,1.158,1.555,2.061,1.323c0.902-0.23,1.438-1.195,1.202-2.161
			c0,0-0.286-1.309-0.593-2.631c-0.738-0.285-1.427-0.567-2.033-0.854C330.792,456.629,330.148,456.32,329.529,456.016z"/>
	</g>
	<g display="inline">
		<path fill="#A2AEAE" d="M335.652,458.59l1.65,5.121c0.304,0.941,1.266,1.466,2.146,1.17c0.886-0.293,1.354-1.297,1.049-2.24
			c0,0-0.378-1.309-0.779-2.616C338.379,459.526,336.982,459.055,335.652,458.59z"/>
	</g>
	<g display="inline">
		<path fill="#A2AEAE" d="M342.087,460.949l1.909,4.461c0.386,0.912,1.392,1.34,2.243,0.965c0.851-0.381,1.229-1.422,0.839-2.33
			c0,0-0.249-0.629-0.576-1.443h-0.003L342.087,460.949z"/>
	</g>
	<g display="inline">
		<path fill="#A2AEAE" d="M317.185,449.18l1.577,5.828c0.257,0.957,1.194,1.527,2.089,1.279c0.896-0.25,1.415-1.229,1.152-2.188
			c0,0-0.315-1.315-0.654-2.639c-1.51-1-2.881-2.039-4.186-3.178C317.099,448.566,317.101,448.876,317.185,449.18z"/>
	</g>
	<g display="inline">
		<path fill="#A2AEAE" d="M313.337,444.435c0.728,0.844,1.571,1.751,2.58,2.715c0.164,1.266,0.303,2.452,0.303,2.452
			c0.143,0.982-0.488,1.893-1.408,2.029c-0.913,0.138-1.774-0.547-1.916-1.528l-0.665-4.581
			C312.616,445.171,312.982,444.806,313.337,444.435z"/>
	</g>
</g>
<g>
	<g>
		<path fill="#AA4A2F" d="M175.007,499.064c-16.117,0-40.292-0.512-50.032-2.279c-0.596-0.108-1.147-0.233-1.653-0.37
			c0.13,0.398,0.329,0.726,0.613,0.94c0,0,16.461,2.645,57.442,2.645s55.333-2.473,55.333-2.473c0.646-0.355,1.113-0.86,1.449-1.419
			c-0.846,0.403-2.047,0.783-3.751,1.041C224.276,498.681,193.201,499.064,175.007,499.064z"/>
		<path fill="#AA4A2F" d="M238.994,492.269c0-2.372-0.986-2.083-1.94-2.083H124.701c-0.802,0-2.067,4.116-1.379,6.229
			c0.506,0.137,1.057,0.262,1.653,0.37c9.74,1.768,33.915,2.279,50.032,2.279c18.194,0,49.269-0.384,59.401-1.915
			c1.704-0.258,2.905-0.638,3.751-1.041C239.169,494.431,238.994,492.269,238.994,492.269z"/>
	</g>
	<path fill="#AA4A2F" d="M241.236,481.457c0-0.03,0-0.062,0-0.09c-0.007-0.35-0.018-0.701-0.031-1.055
		c-0.001-0.025-0.002-0.052-0.002-0.077c-0.031-0.766-0.074-1.541-0.13-2.325c-0.002-0.006-0.002-0.011-0.002-0.018
		c-0.027-0.372-0.058-0.746-0.089-1.123c-0.005-0.044-0.009-0.089-0.013-0.133c-0.032-0.368-0.08-0.735-0.116-1.105
		c-0.001-0.01-0.016-0.021-0.016-0.031c0-0.003,0-0.006,0-0.01c0-0.672-0.134-1.345-0.217-2.018
		c-0.001-0.006,0.003-0.011,0.003-0.017c-0.085-0.68-0.173-1.357-0.271-2.033c-0.638-4.383-1.54-8.665-2.472-12.188
		c-0.578-2.182-1.166-4.073-1.708-5.515c0,0-0.008-0.003-0.021-0.01c-0.01-0.006-0.025-0.013-0.045-0.022
		c-0.006-0.002-0.009-0.003-0.013-0.006c-0.022-0.01-0.05-0.022-0.083-0.036c-0.005-0.002-0.009-0.004-0.016-0.007
		c-0.033-0.015-0.073-0.031-0.115-0.049c-0.006-0.003-0.011-0.005-0.015-0.007c-0.048-0.02-0.1-0.041-0.157-0.062
		c-0.003-0.001-0.004-0.003-0.008-0.003c-0.058-0.023-0.122-0.048-0.191-0.072c-0.001-0.001-0.002-0.002-0.003-0.002
		c-0.139-0.051-0.295-0.104-0.469-0.158c-0.004-0.001-0.006-0.002-0.009-0.003c-0.087-0.026-0.177-0.054-0.271-0.08
		c-0.002,0-0.004-0.001-0.006-0.001c-0.093-0.027-0.192-0.053-0.293-0.078c-0.001-0.001-0.004-0.001-0.005-0.002
		c-0.099-0.025-0.203-0.048-0.309-0.072c-0.003,0-0.008-0.002-0.01-0.003c-0.108-0.022-0.218-0.044-0.329-0.064
		c-0.003,0-0.007-0.001-0.01-0.002c-0.114-0.02-0.229-0.038-0.346-0.055c-0.003-0.001-0.005-0.002-0.008-0.002
		c-0.119-0.017-0.24-0.031-0.361-0.044c-0.003,0-0.005,0-0.008,0c-0.12-0.013-0.241-0.021-0.364-0.029
		c-0.005,0-0.011-0.012-0.018-0.012c-0.122-0.006-0.246-0.022-0.37-0.022c-0.008,0-0.015,0-0.021,0c-0.125,0-0.25,0-0.376,0
		c-0.008,0-0.016,0-0.023,0c-0.125,0-0.251,0.032-0.376,0.045c-0.01,0.001-0.021,0.009-0.03,0.01
		c-0.123,0.013-0.248,0.034-0.371,0.055c-0.014,0.003-0.026,0.006-0.038,0.008c-0.123,0.021-0.245,0.048-0.367,0.076
		c-0.016,0.003-0.031,0.006-0.045,0.009c-0.12,0.029-0.238,0.063-0.356,0.1c-0.019,0.006-0.038,0.012-0.057,0.017
		c-0.114,0.037-0.23,0.08-0.345,0.125c-0.021,0.008-0.043,0.015-0.063,0.023c-0.111,0.046-0.225,0.098-0.336,0.151
		c-0.022,0.011-0.045,0.02-0.068,0.032c-0.108,0.054-0.214,0.116-0.323,0.179c-0.024,0.015-0.049,0.027-0.074,0.041
		c-0.104,0.064-0.207,0.136-0.309,0.208c-0.026,0.019-0.055,0.035-0.081,0.055c-0.099,0.072-0.194,0.152-0.291,0.233
		c-0.028,0.024-0.058,0.046-0.088,0.071c-0.092,0.082-0.184,0.173-0.275,0.263c-0.029,0.03-0.061,0.057-0.09,0.087
		c-0.085,0.089-0.167,0.188-0.25,0.284c-0.033,0.039-0.068,0.074-0.101,0.114c-0.08,0.101-0.16,0.21-0.237,0.319
		c-0.032,0.044-0.065,0.084-0.097,0.129c-0.078,0.115-0.153,0.238-0.228,0.362c-0.028,0.048-0.059,0.091-0.086,0.14
		c-0.08,0.137-0.154,0.284-0.229,0.433c-0.021,0.043-0.043,0.081-0.064,0.124c-0.094,0.195-0.185,0.4-0.271,0.615
		c-2.763,6.891-8.283,7.541-13.809,6.01c-0.159-0.044-0.318-0.098-0.478-0.156c-0.049-0.02-0.101-0.041-0.152-0.061
		c-0.109-0.045-0.218-0.09-0.328-0.141c-0.058-0.025-0.114-0.055-0.171-0.082c-0.107-0.053-0.212-0.107-0.32-0.165
		c-0.054-0.03-0.108-0.059-0.162-0.09c-0.125-0.071-0.249-0.146-0.372-0.226c-0.035-0.021-0.068-0.041-0.102-0.062
		c-0.159-0.103-0.315-0.211-0.472-0.324c-0.042-0.031-0.082-0.062-0.124-0.093c-0.116-0.087-0.233-0.176-0.349-0.269
		c-0.055-0.043-0.109-0.087-0.162-0.132c-0.105-0.085-0.211-0.173-0.315-0.263c-0.054-0.048-0.109-0.095-0.164-0.144
		c-0.112-0.097-0.222-0.198-0.333-0.302c-0.044-0.04-0.086-0.08-0.131-0.12c-0.154-0.146-0.31-0.296-0.462-0.449
		c-0.012-0.011-0.023-0.024-0.036-0.036c-0.141-0.142-0.282-0.287-0.422-0.435c-0.046-0.049-0.091-0.098-0.137-0.146
		c-0.108-0.115-0.217-0.232-0.323-0.351c-0.05-0.054-0.098-0.108-0.146-0.162c-0.11-0.121-0.217-0.243-0.324-0.367
		c-0.042-0.049-0.085-0.098-0.127-0.146c-0.139-0.16-0.276-0.323-0.413-0.485c-0.009-0.011-0.019-0.022-0.026-0.033
		c-0.152-0.183-0.301-0.365-0.451-0.551c-0.026-0.032-0.053-0.065-0.078-0.099c-0.122-0.149-0.241-0.3-0.359-0.452
		c-0.039-0.048-0.075-0.095-0.112-0.142c-0.111-0.144-0.223-0.287-0.334-0.432c-0.033-0.042-0.065-0.084-0.098-0.127
		c-0.132-0.173-0.262-0.346-0.393-0.519c-0.006-0.008-0.013-0.018-0.02-0.025c-0.966-1.288-1.87-2.565-2.69-3.69
		c-0.023-0.03-0.045-0.062-0.068-0.091c-0.075-0.104-0.149-0.204-0.223-0.304c-0.042-0.057-0.083-0.112-0.124-0.168
		c-0.065-0.089-0.131-0.177-0.194-0.263c-0.051-0.065-0.099-0.13-0.148-0.194c-0.056-0.075-0.113-0.15-0.169-0.223
		c-0.003-0.003-0.003-0.006-0.005-0.008c-0.003-0.005-0.008-0.01-0.011-0.015c-0.149-0.192-0.293-0.375-0.434-0.55
		c-0.027-0.036-0.058-0.073-0.086-0.107c-0.146-0.181-0.29-0.354-0.428-0.51c-0.003-0.004-0.005-0.008-0.009-0.011
		c-0.129-0.147-0.253-0.28-0.375-0.404c-0.03-0.032-0.061-0.062-0.091-0.094c-0.123-0.122-0.245-0.237-0.358-0.331
		c-0.358-0.298-0.835-0.544-1.404-0.738l-0.173-0.247l-1.542-0.135c-0.32-0.041-0.654-0.07-1.003-0.087l-1.749-0.153
		c0,0-2.229-0.892-4.567-1.107c-1.614-0.148-3.281,0.022-4.305,1.032c-2.508,2.472-13.099,9.886-14.771,10.503
		c-1.67,0.618-6.688,4.325-6.688,4.325s0,0.316,0.042,0.813c-0.19,0.096-0.382,0.192-0.572,0.286
		c-0.026,0.015-0.055,0.028-0.082,0.042l0,0c-1.594,0.794-3.126,1.53-4.539,2.194c-0.01,0.004-0.02,0.01-0.029,0.014
		c-2.432,1.143-4.505,2.068-5.898,2.684c-0.705,0.312-1.519,0.673-2.404,1.069l0,0c-0.408,0.182-0.831,0.372-1.265,0.569
		c-1.116,0.504-2.325,1.061-3.602,1.659c-0.47,0.222-0.945,0.447-1.433,0.68c-1.147,0.55-2.335,1.131-3.543,1.737
		c-0.64,0.321-1.284,0.649-1.931,0.983c-0.009,0.005-0.016,0.008-0.023,0.012c-0.643,0.333-1.288,0.673-1.933,1.018
		c-0.063,0.034-0.126,0.069-0.189,0.104c-0.532,0.285-1.062,0.576-1.593,0.87c-0.149,0.083-0.297,0.166-0.447,0.249
		c-0.594,0.333-1.188,0.67-1.773,1.012c-1.091,0.639-2.164,1.29-3.195,1.949c-1.77,1.131-3.531,3.129-4.837,5.358
		c-1.46,2.493-2.348,5.273-2.04,7.459c0.444,0.332,1.001,0.723,1.621,1.092c1.496,0.894,3.913,1.531,6.446,1.659
		c2.532,0.127,19.8,1.021,23.945,1.021c4.144,0,29.89,0.281,29.89,0.281l2.667,0.07l2.45,0.064l5.185,0.135l0.493-0.001l4.985-0.018
		c0.003-0.002,0.004-0.004,0.007-0.007c-0.003,0.003-0.004,0.005-0.007,0.007l0,0c-0.414,0.362-0.837,0.715-1.246,1.083
		c19.78-0.098,36.664-0.819,39.732-2.839c1.042-0.685,1.836-1.8,2.425-3.23c0.001-0.001,0.002-0.001,0.002-0.003
		c0.004-0.008,0.007-0.018,0.01-0.027c0.393-0.959,0.694-2.059,0.914-3.271c0.003-0.011,0.005-0.021,0.006-0.032
		c0.166-0.916,0.285-1.894,0.363-2.921c0.001-0.007,0.001-0.015,0.002-0.021c0.025-0.332,0.045-0.67,0.063-1.014
		c0-0.015,0.001-0.028,0.002-0.044C241.245,483.675,241.257,482.581,241.236,481.457z"/>
	<path fill="#AA4A2F" d="M236.174,453.72c0,0-7.061-3.487-9.824,3.403s-8.283,7.541-13.809,6.01
		c-5.526-1.531-11.05-12.25-13.812-14.547c-1.301-1.082-4.122-1.515-7.532-1.03c3.122,5.162,5.271,11.003,8.675,16.288
		c4.146,5.614,10.592,7.655,16.578,8.677c7.827,1.531,13.813-4.593,18.879-11.739c0.472-0.784,1.424-1.299,2.552-1.547
		C237.302,457.053,236.715,455.161,236.174,453.72z"/>
	<path fill="#AA4A2F" d="M224.276,463.844c4.709-4.271,5.841-9.422,11.894-10.125c-0.068-0.034-7.07-3.453-9.82,3.404
		c-2.763,6.891-8.283,7.541-13.809,6.01c-4.506-1.249-9.011-8.606-12.019-12.525C205.344,461.743,214.599,471.646,224.276,463.844z"
		/>
	<path fill="#AA4A2F" d="M235.328,460.015c-5.066,7.146-11.052,13.271-18.879,11.74c-5.986-1.021-12.432-3.062-16.578-8.677
		c-3.248-5.044-5.357-10.593-8.255-15.576c-0.139,0.018-0.278,0.033-0.419,0.054c3.122,5.162,5.271,11.003,8.675,16.288
		c4.146,5.614,10.592,7.655,16.578,8.677c7.827,1.531,13.813-4.593,18.879-11.739c0.472-0.784,1.424-1.299,2.552-1.547
		c-0.064-0.243-0.128-0.48-0.193-0.717C236.646,458.781,235.773,459.277,235.328,460.015z"/>
	<path fill="#AA4A2F" d="M143.236,481.709c3.222-0.512,2.302-5.105,4.604-7.146c5.065-4.083,11.05-6.125,17.497-8.167
		c9.21-2.552,16.577-8.167,24.865-12.761c1.436-0.398,1.19-3.276,0.358-5.979c-3.694,0.636-7.994,2.32-11.792,5.383
		c-7.598,6.126-22.149,12.688-27.321,14.973c-4.418,1.953-12.777,5.666-20.135,9.962
		C134.288,481.423,138.549,483.095,143.236,481.709z"/>
	<path fill="#AA4A2F" d="M143.236,481.709c3.222-0.512,2.302-5.105,4.604-7.146c5.065-4.083,11.05-6.125,17.497-8.167
		c9.21-2.552,16.577-8.167,24.865-12.761c1.436-0.398,1.19-3.276,0.358-5.979c-3.694,0.636-7.994,2.32-11.792,5.383
		c-7.598,6.126-22.149,12.688-27.321,14.973c-4.418,1.953-12.777,5.666-20.135,9.962
		C134.288,481.423,138.549,483.095,143.236,481.709z"/>
	<path fill="#AA4A2F" d="M143.236,481.709c3.222-0.512,2.302-5.105,4.604-7.146c5.065-4.083,11.05-6.125,17.497-8.167
		c9.21-2.552,16.577-8.167,24.865-12.761c1.436-0.398,1.19-3.276,0.358-5.979c-3.694,0.636-7.994,2.32-11.792,5.383
		c-7.598,6.126-22.149,12.688-27.321,14.973c-4.418,1.953-12.777,5.666-20.135,9.962
		C134.288,481.423,138.549,483.095,143.236,481.709z"/>
	<path fill="#AA4A2F" d="M190.56,447.656c-0.04,0.008-0.081,0.017-0.121,0.023c0.698,2.533,0.825,5.067-0.516,5.439
		c-8.288,4.594-15.656,10.208-24.865,12.761c-6.446,2.042-12.432,4.083-17.497,8.167c-2.301,2.042-1.381,6.637-4.605,7.146
		c-4.478,1.324-8.566-0.149-11.516-3.292c-0.041,0.024-0.084,0.048-0.127,0.072c2.977,3.449,7.237,5.121,11.924,3.735
		c3.222-0.512,2.302-5.105,4.604-7.146c5.065-4.083,11.05-6.125,17.497-8.167c9.21-2.552,16.577-8.167,24.865-12.761
		C191.637,453.236,191.392,450.358,190.56,447.656z"/>
	<path fill="#AA4A2F" d="M226.579,478.646c-1.843,1.021-3.684,1.021-5.065,2.041c-8.359,5.451-16.584,10.901-23.84,17.439
		c19.78-0.098,36.664-0.819,39.732-2.839c4.458-2.933,4.43-13.667,2.948-23.865C235.551,473.498,231.181,476.46,226.579,478.646z"/>
	<path fill="#CA6B46" d="M240.86,475.5c-1.547-0.162-2.428,1.192-3.689,2.125c-3.684,1.531-5.067,7.146-8.75,8.678
		c-9.144,3.244-18.578,5.202-26.458,10.73c12.041,0.1,24.056,0.707,35.668-3.584c0.795-0.294,1.584-0.763,2.203-1.395
		C241.432,488.177,241.52,481.955,240.86,475.5z"/>
	<polygon fill="#AA4A2F" points="185.807,496.863 186.502,498.121 185.807,496.863 	"/>
	<polygon fill="#AA4A2F" points="185.807,496.863 186.502,498.121 185.807,496.863 	"/>
	<polygon fill="#AA4A2F" points="193.934,497.062 194.543,498.138 193.934,497.062 	"/>
	<polygon fill="#AA4A2F" points="193.934,497.062 194.543,498.138 193.934,497.062 	"/>
	<path fill="#CA6B46" d="M198.675,461.881c-2.748-4.741-4.739-9.795-7.479-14.325c-0.21,0.029-0.422,0.064-0.637,0.101
		c0.832,2.702,1.078,5.58-0.358,5.979c-5.373,2.978-10.359,6.379-15.709,9.103l-6.066,2.664c-1.01,0.366-2.036,0.702-3.09,0.994
		c-6.447,2.042-12.432,4.084-17.497,8.167c-2.302,2.041-1.382,6.635-4.604,7.146c-4.687,1.386-8.947-0.286-11.924-3.735
		c-1.091,0.639-2.164,1.29-3.195,1.949c-1.77,1.131-3.531,3.129-4.837,5.358c0.055,0.001,0.11,0.001,0.156,0.001
		c5.524,9.188,18.879,6.635,24.864,1.021c6.875-5.928,14.384-10.445,22.791-12.98l0.004,0.006l0.26-0.083
		c0.404-0.119,0.806-0.239,1.213-0.35l-0.018-0.03l8.499-2.7l-0.019-0.043C187.455,468.314,194.643,467.245,198.675,461.881z"/>
	<path fill="#AA4A2F" d="M199.132,450.422c-0.455,3.489-1.252,7.076-3.865,8.316c-4.605,2.553-11.05-0.51-16.115,2.553
		c-3.684,1.531-6.447,5.104-10.13,6.637c-3.731,1.182-5.149-1.399-6.394-4.573c0.301,2.42,1.506,7.04,6.309,5.421
		c6.409-2.162,8.917-6.178,13.655-7.414s9.754,0.617,13.099-0.927c3.344-1.545,4.179-8.959,4.179-8.959L199.132,450.422z"/>
	<path fill="#AA4A2F" d="M197.152,447.601l-4.295-0.375c0,0-2.229-0.892-4.567-1.107c0.108,0.687,0.234,1.358,0.071,1.901
		c1.841,0.512,3.223,1.531,3.683,3.573c0.46,2.552-1.842,4.594-3.683,4.594c-7.367,0-12.432,3.573-18.418,8.167
		c-1.717,1.587-3.967,1.79-6.31,1.23c1.1,2.003,2.596,3.228,5.39,2.344c3.683-1.532,6.446-5.105,10.13-6.637
		c5.065-3.062,11.51,0,16.115-2.553c2.612-1.24,3.41-4.827,3.865-8.316L197.152,447.601z"/>
	<path fill="#CA6B46" d="M169.942,464.354c5.986-4.594,11.051-8.167,18.418-8.167c1.841,0,4.144-2.042,3.683-4.594
		c-0.46-2.042-1.842-3.062-3.683-3.573c0.163-0.543,0.037-1.215-0.071-1.901c-1.614-0.148-3.281,0.022-4.305,1.032
		c-2.508,2.472-13.099,9.886-14.771,10.503c-1.67,0.618-6.688,4.325-6.688,4.325s0,0.564,0.103,1.376
		c0.312,0.798,0.637,1.557,1.004,2.229C165.975,466.144,168.225,465.94,169.942,464.354z"/>
	<path fill="#CA6B46" d="M240.354,471.423c-1.556,0.673-3.065,1.442-4.555,2.245c-0.897,0.444-4.068,2.007-6.469,3.127
		c-2.315,1.081-5.477,2.686-6.54,3.229c-0.455,0.172-0.885,0.375-1.276,0.664c-7.885,5.142-15.641,10.297-22.587,16.35l3.04-0.007
		c0.004-0.003,0.009-0.006,0.012-0.009c7.877-5.52,17.305-7.478,26.442-10.719c3.683-1.531,5.066-7.146,8.75-8.678
		c1.261-0.933,2.142-2.287,3.689-2.125C240.721,474.145,240.552,472.779,240.354,471.423z"/>
	<path fill="#CA6B46" d="M237.63,493.449c-11.612,4.291-23.627,3.684-35.668,3.584c-0.188,0.132-0.185,0.13,0.004-0.003l-3.04,0.007
		c-0.003,0.003-0.004,0.005-0.007,0.007l-4.985,0.018l-0.493,0.001l-5.185-0.135l-2.45-0.064l-2.667-0.07
		c0,0-25.747-0.281-29.89-0.281c-4.145,0-21.413-0.894-23.945-1.021c-2.533-0.128-4.95-0.766-6.446-1.659
		c-0.619-0.369-1.177-0.76-1.621-1.092c0.295,2.092,1.686,3.639,4.729,3.856c5.012,0.358,33.539,1.379,60.534,1.524
		c0.739,0.005,1.474,0.006,2.211,0.009c1.957,0.007,3.906,0.011,5.83,0.008c1.05-0.003,2.095-0.006,3.13-0.011
		c0.952-0.004,1.895-0.012,2.833-0.019c0.181-0.142,0.181-0.142,0,0c18.537-0.151,33.979-0.898,36.899-2.82
		c1.042-0.686,1.836-1.8,2.428-3.233C239.214,492.687,238.425,493.155,237.63,493.449z"/>
	<g>
		<path fill="#AA4A2F" d="M187.843,485.964c0.864,0.863,1.771,1.436,2.489,1.596c-0.749-0.255-1.648-0.874-2.484-1.784
			C187.848,485.839,187.845,485.9,187.843,485.964z"/>
		<path fill="#AA4A2F" d="M190.445,479.364c-0.018,0.023-0.035,0.049-0.056,0.071c0.636,0.02,1.23,0.112,1.745,0.262
			C191.646,479.526,191.07,479.409,190.445,479.364z"/>
		<path fill="#AA4A2F" d="M187.582,477.329c1.2-1.31,2.801-2.336,3.621-2.201c-0.708-0.378-1.988,0.117-3.649,1.78
			C187.554,476.981,187.584,477.277,187.582,477.329z"/>
		<path fill="#AA4A2F" d="M184.508,485.979c-0.088,0.098-0.178,0.18-0.27,0.27c0.12,1.994,0.775,3.535,1.583,3.621
			C185.101,489.473,184.557,487.898,184.508,485.979z"/>
		<path fill="#AA4A2F" d="M180.626,487.65c-0.655-0.726,0.032-2.665,1.536-4.333c0.06-0.063,0.119-0.119,0.179-0.182
			c-0.054,0.002-0.193-0.111-0.266-0.113c-0.029,0.028-0.168,0.174-0.197,0.205c-1.503,1.667-2.19,3.606-1.536,4.333
			c0.127,0.141,0.305,0.21,0.504,0.243C180.767,487.762,180.688,487.719,180.626,487.65z"/>
	</g>
	<g>
		<path fill="#AA4A2F" d="M143.345,474.747c0.055,0.71-0.669,1.177-1.43,1.226c-0.762,0.048-1.246-0.438-1.301-1.147
			c-0.053-0.712,0.414-1.352,1.175-1.399C142.552,473.378,143.292,474.036,143.345,474.747z"/>
		<path fill="#AA4A2F" d="M140.882,475.334c0.196,0.426,0.787,0.611,1.323,0.414l0.371-0.139c0.532-0.197,0.806-0.705,0.609-1.131
			l-1.452-3.152c-0.196-0.427-0.788-0.612-1.322-0.415l-0.371,0.139c-0.534,0.198-0.805,0.705-0.608,1.131L140.882,475.334z"/>
		<path fill="#AA4A2F" d="M143.184,474.479l-1.452-3.152c-0.078-0.171-0.221-0.3-0.397-0.383l1.426,3.092
			c0.195,0.427-0.077,0.934-0.609,1.131l-0.373,0.139c-0.32,0.118-0.66,0.098-0.924-0.029l0.027,0.059
			c0.196,0.426,0.787,0.611,1.323,0.414l0.371-0.139C143.108,475.412,143.381,474.904,143.184,474.479z"/>
	</g>
	<g>
		<path fill="#AA4A2F" d="M148.282,472.317c0.055,0.729-0.669,1.207-1.43,1.256c-0.761,0.05-1.246-0.448-1.301-1.176
			c-0.053-0.729,0.415-1.384,1.176-1.433C147.488,470.914,148.229,471.59,148.282,472.317z"/>
		<path fill="#AA4A2F" d="M145.819,472.918c0.196,0.438,0.788,0.628,1.322,0.425l0.371-0.142c0.532-0.202,0.806-0.721,0.609-1.158
			l-1.452-3.229c-0.196-0.438-0.787-0.628-1.322-0.426l-0.372,0.142c-0.534,0.203-0.806,0.723-0.608,1.159L145.819,472.918z"/>
		<path fill="#AA4A2F" d="M148.121,472.043l-1.452-3.229c-0.078-0.176-0.221-0.308-0.397-0.395l1.425,3.17
			c0.196,0.437-0.077,0.956-0.609,1.159l-0.372,0.142c-0.321,0.121-0.661,0.099-0.925-0.03l0.027,0.059
			c0.196,0.438,0.788,0.628,1.322,0.425l0.371-0.142C148.044,472.999,148.318,472.48,148.121,472.043z"/>
	</g>
	<g>
		<path fill="#AA4A2F" d="M152.847,469.862c0.052,0.653-0.638,1.082-1.362,1.126c-0.726,0.043-1.188-0.401-1.238-1.055
			c-0.051-0.652,0.394-1.24,1.119-1.283C152.091,468.605,152.797,469.21,152.847,469.862z"/>
		<path fill="#AA4A2F" d="M150.501,470.4c0.187,0.393,0.75,0.562,1.259,0.381l0.354-0.127c0.508-0.182,0.767-0.646,0.579-1.039
			l-1.381-2.894c-0.188-0.392-0.751-0.562-1.259-0.38l-0.354,0.126c-0.508,0.182-0.767,0.647-0.581,1.039L150.501,470.4z"/>
		<path fill="#AA4A2F" d="M152.692,469.615l-1.381-2.894c-0.075-0.157-0.211-0.275-0.379-0.353l1.357,2.841
			c0.188,0.391-0.073,0.856-0.58,1.038l-0.355,0.127c-0.305,0.108-0.628,0.09-0.88-0.027l0.027,0.053
			c0.187,0.393,0.75,0.562,1.259,0.381l0.354-0.127C152.621,470.473,152.88,470.008,152.692,469.615z"/>
	</g>
	<g>
		<path fill="#AA4A2F" d="M157.748,467.603c0.051,0.659-0.618,1.091-1.32,1.136c-0.704,0.045-1.151-0.404-1.201-1.062
			c-0.05-0.658,0.382-1.252,1.084-1.296C157.015,466.335,157.7,466.945,157.748,467.603z"/>
		<path fill="#AA4A2F" d="M155.473,468.146c0.181,0.396,0.728,0.567,1.22,0.383l0.345-0.127c0.493-0.184,0.745-0.652,0.562-1.048
			l-1.34-2.92c-0.181-0.396-0.729-0.567-1.221-0.384l-0.343,0.127c-0.494,0.184-0.745,0.654-0.563,1.049L155.473,468.146z"/>
		<path fill="#AA4A2F" d="M157.599,467.354l-1.34-2.92c-0.073-0.158-0.206-0.277-0.367-0.356l1.316,2.866
			c0.181,0.395-0.07,0.864-0.562,1.048l-0.344,0.127c-0.297,0.111-0.609,0.091-0.854-0.026l0.025,0.054
			c0.181,0.396,0.728,0.567,1.22,0.383l0.345-0.127C157.531,468.219,157.782,467.75,157.599,467.354z"/>
	</g>
	<g>
		<path fill="#AA4A2F" d="M162.382,465.914c0.051,0.682-0.625,1.13-1.335,1.176s-1.163-0.42-1.214-1.101
			c-0.05-0.682,0.387-1.296,1.096-1.343C161.641,464.602,162.332,465.232,162.382,465.914z"/>
		<path fill="#AA4A2F" d="M160.082,466.477c0.183,0.41,0.735,0.587,1.234,0.397l0.347-0.133c0.497-0.189,0.75-0.675,0.567-1.085
			l-1.355-3.022c-0.182-0.41-0.734-0.587-1.233-0.397l-0.347,0.132c-0.497,0.189-0.751,0.676-0.567,1.085L160.082,466.477z"/>
		<path fill="#AA4A2F" d="M162.23,465.656l-1.355-3.022c-0.072-0.164-0.206-0.288-0.37-0.368l1.33,2.966
			c0.184,0.41-0.072,0.896-0.568,1.085l-0.348,0.133c-0.298,0.113-0.615,0.093-0.861-0.028l0.024,0.056
			c0.183,0.41,0.735,0.587,1.234,0.397l0.347-0.133C162.16,466.552,162.413,466.066,162.23,465.656z"/>
	</g>
	<path fill="#AA4A2F" d="M133.085,476.962c0.15-0.083,0.298-0.166,0.447-0.249C133.383,476.796,133.235,476.879,133.085,476.962z"/>
	<path fill="#AA4A2F" d="M137.246,474.722c0.007-0.004,0.015-0.007,0.023-0.012C137.261,474.715,137.254,474.718,137.246,474.722z"
		/>
	<path fill="#AA4A2F" d="M135.125,475.843c0.063-0.034,0.125-0.069,0.189-0.104C135.25,475.773,135.188,475.808,135.125,475.843z"/>
	<polygon fill="#AA4A2F" points="198.927,497.037 198.92,497.044 198.92,497.044 	"/>
	<path fill="#AA4A2F" d="M135.314,475.739c0.645-0.345,1.29-0.685,1.933-1.018C136.604,475.055,135.959,475.395,135.314,475.739z"/>
	<path fill="#AA4A2F" d="M131.312,477.974c0.585-0.342,1.179-0.679,1.773-1.012C132.49,477.296,131.897,477.632,131.312,477.974z"/>
	<path fill="#AA4A2F" d="M133.532,476.713c0.53-0.294,1.061-0.585,1.593-0.87C134.593,476.129,134.062,476.419,133.532,476.713z"/>
	<path fill="#AA4A2F" d="M161.995,463.078c-0.026,0.015-0.055,0.028-0.082,0.042l0,0
		C161.94,463.106,161.969,463.093,161.995,463.078z"/>
	<path fill="#AA4A2F" d="M142.743,471.989c0.487-0.232,0.962-0.458,1.433-0.68C143.708,471.531,143.231,471.757,142.743,471.989z"/>
	<path fill="#AA4A2F" d="M157.374,465.314c-0.01,0.004-0.02,0.009-0.029,0.014l0,0C157.355,465.324,157.365,465.318,157.374,465.314
		z"/>
	<path fill="#AA4A2F" d="M137.27,474.71c0.647-0.334,1.291-0.662,1.931-0.983C138.56,474.048,137.917,474.375,137.27,474.71z"/>
	<path fill="#AA4A2F" d="M149.043,469.081c-0.408,0.182-0.828,0.371-1.265,0.569C148.213,469.453,148.635,469.263,149.043,469.081
		L149.043,469.081z"/>
</g>
<g>
	<g>
		<path fill="#AA4A2F" d="M322.419,499.064c16.117,0,40.292-0.512,50.032-2.279c0.596-0.108,1.146-0.233,1.653-0.37
			c-0.13,0.398-0.329,0.726-0.613,0.94c0,0-16.461,2.645-57.442,2.645s-55.333-2.473-55.333-2.473
			c-0.646-0.355-1.112-0.86-1.448-1.419c0.846,0.403,2.047,0.783,3.75,1.041C273.151,498.681,304.225,499.064,322.419,499.064z"/>
		<path fill="#AA4A2F" d="M258.432,492.269c0-2.372,0.986-2.083,1.939-2.083h112.354c0.803,0,2.068,4.116,1.38,6.229
			c-0.507,0.137-1.058,0.262-1.653,0.37c-9.74,1.768-33.915,2.279-50.032,2.279c-18.194,0-49.269-0.384-59.401-1.915
			c-1.703-0.258-2.904-0.638-3.75-1.041C258.257,494.431,258.432,492.269,258.432,492.269z"/>
	</g>
	<path fill="#AA4A2F" d="M256.191,481.457c0-0.03,0.001-0.062,0.001-0.09c0.007-0.35,0.018-0.701,0.03-1.055
		c0.001-0.025,0.003-0.052,0.003-0.077c0.031-0.766,0.074-1.541,0.13-2.325c0.002-0.006,0.002-0.011,0.002-0.018
		c0.027-0.372,0.058-0.746,0.089-1.123c0.005-0.044,0.01-0.089,0.013-0.133c0.032-0.368,0.079-0.735,0.116-1.105
		c0.002-0.01,0.016-0.021,0.016-0.031c0-0.003,0-0.006,0-0.01c0-0.672,0.135-1.345,0.217-2.018c0.002-0.006-0.003-0.011-0.003-0.017
		c0.085-0.68,0.173-1.357,0.271-2.033c0.639-4.383,1.541-8.665,2.473-12.188c0.578-2.182,1.166-4.073,1.707-5.515
		c0,0,0.008-0.003,0.021-0.01c0.01-0.006,0.025-0.013,0.046-0.022c0.007-0.002,0.009-0.003,0.013-0.006
		c0.023-0.01,0.051-0.022,0.083-0.036c0.005-0.002,0.009-0.004,0.016-0.007c0.033-0.015,0.073-0.031,0.115-0.049
		c0.007-0.003,0.011-0.005,0.015-0.007c0.049-0.02,0.101-0.041,0.158-0.062c0.002-0.001,0.004-0.003,0.008-0.003
		c0.058-0.023,0.122-0.048,0.191-0.072c0.001-0.001,0.002-0.002,0.002-0.002c0.141-0.051,0.297-0.104,0.47-0.158
		c0.005-0.001,0.007-0.002,0.009-0.003c0.087-0.026,0.177-0.054,0.271-0.08c0.002,0,0.004-0.001,0.007-0.001
		c0.092-0.027,0.191-0.053,0.293-0.078c0.001-0.001,0.004-0.001,0.006-0.002c0.099-0.025,0.202-0.048,0.309-0.072
		c0.004,0,0.008-0.002,0.01-0.003c0.107-0.022,0.218-0.044,0.328-0.064c0.004,0,0.008-0.001,0.01-0.002
		c0.115-0.02,0.229-0.038,0.347-0.055c0.003-0.001,0.005-0.002,0.009-0.002c0.118-0.017,0.239-0.031,0.361-0.044
		c0.003,0,0.005,0,0.008,0c0.119-0.013,0.24-0.021,0.364-0.029c0.005,0,0.011-0.012,0.018-0.012c0.122-0.006,0.245-0.022,0.37-0.022
		c0.008,0,0.015,0,0.02,0c0.125,0,0.25,0,0.377,0c0.008,0,0.016,0,0.023,0c0.125,0,0.251,0.032,0.376,0.045
		c0.01,0.001,0.021,0.009,0.03,0.01c0.123,0.013,0.248,0.034,0.371,0.055c0.014,0.003,0.025,0.006,0.037,0.008
		c0.123,0.021,0.245,0.048,0.367,0.076c0.016,0.003,0.031,0.006,0.045,0.009c0.119,0.029,0.238,0.063,0.355,0.1
		c0.02,0.006,0.038,0.012,0.058,0.017c0.114,0.037,0.23,0.08,0.345,0.125c0.021,0.008,0.043,0.015,0.063,0.023
		c0.111,0.046,0.226,0.098,0.337,0.151c0.021,0.011,0.045,0.02,0.067,0.032c0.108,0.054,0.214,0.116,0.323,0.179
		c0.023,0.015,0.049,0.027,0.074,0.041c0.104,0.064,0.207,0.136,0.309,0.208c0.025,0.019,0.055,0.035,0.08,0.055
		c0.1,0.072,0.195,0.152,0.291,0.233c0.029,0.024,0.059,0.046,0.089,0.071c0.092,0.082,0.184,0.173,0.274,0.263
		c0.029,0.03,0.061,0.057,0.09,0.087c0.086,0.089,0.168,0.188,0.25,0.284c0.033,0.039,0.068,0.074,0.102,0.114
		c0.08,0.101,0.16,0.21,0.237,0.319c0.032,0.044,0.065,0.084,0.097,0.129c0.078,0.115,0.153,0.238,0.228,0.362
		c0.028,0.048,0.059,0.091,0.087,0.14c0.079,0.137,0.154,0.284,0.229,0.433c0.021,0.043,0.044,0.081,0.064,0.124
		c0.095,0.195,0.186,0.4,0.271,0.615c2.763,6.891,8.283,7.541,13.809,6.01c0.159-0.044,0.318-0.098,0.478-0.156
		c0.05-0.02,0.101-0.041,0.151-0.061c0.109-0.045,0.219-0.09,0.328-0.141c0.059-0.025,0.114-0.055,0.172-0.082
		c0.107-0.053,0.212-0.107,0.319-0.165c0.054-0.03,0.108-0.059,0.162-0.09c0.125-0.071,0.249-0.146,0.372-0.226
		c0.034-0.021,0.067-0.041,0.102-0.062c0.158-0.103,0.314-0.211,0.471-0.324c0.043-0.031,0.082-0.062,0.125-0.093
		c0.115-0.087,0.232-0.176,0.349-0.269c0.056-0.043,0.108-0.087,0.162-0.132c0.105-0.085,0.211-0.173,0.315-0.263
		c0.055-0.048,0.109-0.095,0.164-0.144c0.111-0.097,0.222-0.198,0.333-0.302c0.044-0.04,0.087-0.08,0.132-0.12
		c0.154-0.146,0.309-0.296,0.462-0.449c0.012-0.011,0.022-0.024,0.036-0.036c0.141-0.142,0.281-0.287,0.422-0.435
		c0.047-0.049,0.091-0.098,0.137-0.146c0.108-0.115,0.217-0.232,0.324-0.351c0.049-0.054,0.098-0.108,0.145-0.162
		c0.11-0.121,0.217-0.243,0.324-0.367c0.043-0.049,0.086-0.098,0.128-0.146c0.14-0.16,0.276-0.323,0.413-0.485
		c0.01-0.011,0.02-0.022,0.026-0.033c0.152-0.183,0.302-0.365,0.451-0.551c0.026-0.032,0.053-0.065,0.078-0.099
		c0.122-0.149,0.241-0.3,0.359-0.452c0.038-0.048,0.075-0.095,0.112-0.142c0.111-0.144,0.223-0.287,0.334-0.432
		c0.032-0.042,0.064-0.084,0.098-0.127c0.132-0.173,0.262-0.346,0.393-0.519c0.006-0.008,0.013-0.018,0.02-0.025
		c0.966-1.288,1.87-2.565,2.689-3.69c0.023-0.03,0.046-0.062,0.068-0.091c0.074-0.104,0.148-0.204,0.223-0.304
		c0.042-0.057,0.084-0.112,0.125-0.168c0.064-0.089,0.131-0.177,0.193-0.263c0.052-0.065,0.1-0.13,0.148-0.194
		c0.057-0.075,0.113-0.15,0.17-0.223c0.003-0.003,0.004-0.006,0.006-0.008c0.003-0.005,0.008-0.01,0.01-0.015
		c0.149-0.192,0.293-0.375,0.435-0.55c0.027-0.036,0.058-0.073,0.087-0.107c0.146-0.181,0.289-0.354,0.428-0.51
		c0.003-0.004,0.006-0.008,0.01-0.011c0.129-0.147,0.253-0.28,0.375-0.404c0.03-0.032,0.061-0.062,0.092-0.094
		c0.123-0.122,0.244-0.237,0.357-0.331c0.357-0.298,0.836-0.544,1.404-0.738l0.173-0.247l1.542-0.135
		c0.32-0.041,0.654-0.07,1.004-0.087l1.749-0.153c0,0,2.229-0.892,4.567-1.107c1.614-0.148,3.281,0.022,4.305,1.032
		c2.508,2.472,13.1,9.886,14.771,10.503c1.67,0.618,6.688,4.325,6.688,4.325s0,0.316-0.042,0.813
		c0.19,0.096,0.382,0.192,0.572,0.286c0.026,0.015,0.056,0.028,0.082,0.042l0,0c1.595,0.794,3.126,1.53,4.539,2.194
		c0.01,0.004,0.02,0.01,0.029,0.014c2.432,1.143,4.505,2.068,5.897,2.684c0.705,0.312,1.52,0.673,2.404,1.069l0,0
		c0.408,0.182,0.83,0.372,1.266,0.569c1.115,0.504,2.324,1.061,3.602,1.659c0.471,0.222,0.945,0.447,1.433,0.68
		c1.147,0.55,2.335,1.131,3.543,1.737c0.64,0.321,1.284,0.649,1.931,0.983c0.009,0.005,0.016,0.008,0.023,0.012
		c0.643,0.333,1.288,0.673,1.933,1.018c0.063,0.034,0.126,0.069,0.188,0.104c0.533,0.285,1.062,0.576,1.594,0.87
		c0.148,0.083,0.297,0.166,0.447,0.249c0.594,0.333,1.188,0.67,1.772,1.012c1.091,0.639,2.163,1.29,3.195,1.949
		c1.77,1.131,3.53,3.129,4.837,5.358c1.461,2.493,2.348,5.273,2.041,7.459c-0.444,0.332-1.002,0.723-1.621,1.092
		c-1.496,0.894-3.913,1.531-6.445,1.659c-2.533,0.127-19.801,1.021-23.945,1.021c-4.144,0-29.891,0.281-29.891,0.281l-2.666,0.07
		l-2.45,0.064l-5.185,0.135l-0.492-0.001l-4.986-0.018c-0.002-0.002-0.004-0.004-0.007-0.007c0.003,0.003,0.005,0.005,0.007,0.007
		l0,0c0.414,0.362,0.838,0.715,1.246,1.083c-19.779-0.098-36.663-0.819-39.731-2.839c-1.042-0.685-1.836-1.8-2.425-3.23
		c-0.002-0.001-0.003-0.001-0.003-0.003c-0.004-0.008-0.007-0.018-0.01-0.027c-0.394-0.959-0.694-2.059-0.914-3.271
		c-0.003-0.011-0.005-0.021-0.007-0.032c-0.165-0.916-0.284-1.894-0.363-2.921c0-0.007,0-0.015-0.002-0.021
		c-0.024-0.332-0.045-0.67-0.062-1.014c0-0.015-0.002-0.028-0.003-0.044C256.182,483.675,256.169,482.581,256.191,481.457z"/>
	<path fill="#AA4A2F" d="M261.252,453.72c0,0,7.062-3.487,9.824,3.403s8.283,7.541,13.809,6.01s11.05-12.25,13.812-14.547
		c1.301-1.082,4.121-1.515,7.532-1.03c-3.122,5.162-5.271,11.003-8.675,16.288c-4.146,5.614-10.592,7.655-16.578,8.677
		c-7.826,1.531-13.812-4.593-18.879-11.739c-0.473-0.784-1.424-1.299-2.552-1.547C260.124,457.053,260.711,455.161,261.252,453.72z"
		/>
	<path fill="#AA4A2F" d="M273.151,463.844c-4.71-4.271-5.842-9.422-11.895-10.125c0.068-0.034,7.07-3.453,9.82,3.404
		c2.763,6.891,8.283,7.541,13.809,6.01c4.506-1.249,9.011-8.606,12.02-12.525C292.082,461.743,282.827,471.646,273.151,463.844z"/>
	<path fill="#AA4A2F" d="M262.098,460.015c5.066,7.146,11.053,13.271,18.879,11.74c5.986-1.021,12.433-3.062,16.578-8.677
		c3.248-5.044,5.357-10.593,8.256-15.576c0.139,0.018,0.277,0.033,0.419,0.054c-3.122,5.162-5.271,11.003-8.675,16.288
		c-4.146,5.614-10.592,7.655-16.578,8.677c-7.826,1.531-13.812-4.593-18.879-11.739c-0.473-0.784-1.424-1.299-2.552-1.547
		c0.063-0.243,0.128-0.48,0.193-0.717C260.781,458.781,261.654,459.277,262.098,460.015z"/>
	<path fill="#AA4A2F" d="M354.191,481.709c-3.222-0.512-2.302-5.105-4.604-7.146c-5.064-4.083-11.05-6.125-17.496-8.167
		c-9.211-2.552-16.578-8.167-24.865-12.761c-1.436-0.398-1.19-3.276-0.358-5.979c3.694,0.636,7.993,2.32,11.792,5.383
		c7.598,6.126,22.148,12.688,27.32,14.973c4.418,1.953,12.777,5.666,20.136,9.962C363.138,481.423,358.877,483.095,354.191,481.709z
		"/>
	<path fill="#AA4A2F" d="M354.191,481.709c-3.222-0.512-2.302-5.105-4.604-7.146c-5.064-4.083-11.05-6.125-17.496-8.167
		c-9.211-2.552-16.578-8.167-24.865-12.761c-1.436-0.398-1.19-3.276-0.358-5.979c3.694,0.636,7.993,2.32,11.792,5.383
		c7.598,6.126,22.148,12.688,27.32,14.973c4.418,1.953,12.777,5.666,20.136,9.962C363.138,481.423,358.877,483.095,354.191,481.709z
		"/>
	<path fill="#AA4A2F" d="M354.191,481.709c-3.222-0.512-2.302-5.105-4.604-7.146c-5.064-4.083-11.05-6.125-17.496-8.167
		c-9.211-2.552-16.578-8.167-24.865-12.761c-1.436-0.398-1.19-3.276-0.358-5.979c3.694,0.636,7.993,2.32,11.792,5.383
		c7.598,6.126,22.148,12.688,27.32,14.973c4.418,1.953,12.777,5.666,20.136,9.962C363.138,481.423,358.877,483.095,354.191,481.709z
		"/>
	<path fill="#AA4A2F" d="M306.866,447.656c0.04,0.008,0.081,0.017,0.121,0.023c-0.698,2.533-0.825,5.067,0.517,5.439
		c8.287,4.594,15.655,10.208,24.865,12.761c6.445,2.042,12.432,4.083,17.496,8.167c2.302,2.042,1.381,6.637,4.605,7.146
		c4.479,1.324,8.566-0.149,11.517-3.292c0.041,0.024,0.084,0.048,0.127,0.072c-2.977,3.449-7.237,5.121-11.924,3.735
		c-3.222-0.512-2.302-5.105-4.604-7.146c-5.064-4.083-11.05-6.125-17.496-8.167c-9.211-2.552-16.578-8.167-24.865-12.761
		C305.789,453.236,306.034,450.358,306.866,447.656z"/>
	<path fill="#CA6B46" d="M270.847,478.646c1.843,1.021,3.685,1.021,5.065,2.041c8.359,5.451,16.584,10.901,23.84,17.439
		c-19.779-0.098-36.663-0.819-39.731-2.839c-4.458-2.933-4.431-13.667-2.948-23.865C261.875,473.498,266.245,476.46,270.847,478.646
		z"/>
	<path fill="#CA6B46" d="M256.567,475.5c1.547-0.162,2.428,1.192,3.689,2.125c3.684,1.531,5.066,7.146,8.75,8.678
		c9.143,3.244,18.578,5.202,26.458,10.73c-12.041,0.1-24.056,0.707-35.668-3.584c-0.795-0.294-1.584-0.763-2.203-1.395
		C255.994,488.177,255.906,481.955,256.567,475.5z"/>
	<polygon fill="#AA4A2F" points="311.619,496.863 310.924,498.121 311.619,496.863 	"/>
	<polygon fill="#AA4A2F" points="311.619,496.863 310.924,498.121 311.619,496.863 	"/>
	<polygon fill="#AA4A2F" points="303.492,497.062 302.883,498.138 303.492,497.062 	"/>
	<polygon fill="#AA4A2F" points="303.492,497.062 302.883,498.138 303.492,497.062 	"/>
	<path fill="#CA6B46" d="M298.751,461.881c2.748-4.741,4.739-9.795,7.479-14.325c0.21,0.029,0.423,0.064,0.637,0.101
		c-0.832,2.702-1.077,5.58,0.358,5.979c5.372,2.978,10.359,6.379,15.709,9.103l6.066,2.664c1.01,0.366,2.035,0.702,3.09,0.994
		c6.446,2.042,12.432,4.084,17.496,8.167c2.303,2.041,1.383,6.635,4.604,7.146c4.687,1.386,8.947-0.286,11.924-3.735
		c1.091,0.639,2.163,1.29,3.195,1.949c1.77,1.131,3.53,3.129,4.837,5.358c-0.055,0.001-0.109,0.001-0.156,0.001
		c-5.523,9.188-18.879,6.635-24.863,1.021c-6.875-5.928-14.385-10.445-22.791-12.98l-0.004,0.006l-0.26-0.083
		c-0.404-0.119-0.807-0.239-1.214-0.35l0.019-0.03l-8.5-2.7l0.02-0.043C309.971,468.314,302.783,467.245,298.751,461.881z"/>
	<path fill="#AA4A2F" d="M298.295,450.422c0.454,3.489,1.252,7.076,3.864,8.316c4.604,2.553,11.05-0.51,16.115,2.553
		c3.685,1.531,6.446,5.104,10.13,6.637c3.731,1.182,5.148-1.399,6.395-4.573c-0.301,2.42-1.506,7.04-6.309,5.421
		c-6.41-2.162-8.918-6.178-13.655-7.414s-9.755,0.617-13.099-0.927c-3.344-1.545-4.18-8.959-4.18-8.959L298.295,450.422z"/>
	<path fill="#AA4A2F" d="M300.275,447.601l4.295-0.375c0,0,2.229-0.892,4.567-1.107c-0.107,0.687-0.234,1.358-0.071,1.901
		c-1.841,0.512-3.224,1.531-3.683,3.573c-0.461,2.552,1.842,4.594,3.683,4.594c7.367,0,12.433,3.573,18.419,8.167
		c1.717,1.587,3.967,1.79,6.31,1.23c-1.1,2.003-2.596,3.228-5.39,2.344c-3.684-1.532-6.445-5.105-10.13-6.637
		c-5.065-3.062-11.511,0-16.115-2.553c-2.612-1.24-3.41-4.827-3.864-8.316L300.275,447.601z"/>
	<path fill="#CA6B46" d="M327.485,464.354c-5.986-4.594-11.052-8.167-18.419-8.167c-1.841,0-4.144-2.042-3.683-4.594
		c0.459-2.042,1.842-3.062,3.683-3.573c-0.163-0.543-0.036-1.215,0.071-1.901c1.614-0.148,3.281,0.022,4.305,1.032
		c2.508,2.472,13.1,9.886,14.771,10.503c1.67,0.618,6.688,4.325,6.688,4.325s0,0.564-0.102,1.376
		c-0.312,0.798-0.638,1.557-1.005,2.229C331.451,466.144,329.201,465.94,327.485,464.354z"/>
	<path fill="#CA6B46" d="M257.073,471.967c1.556,0.674,3.065,1.443,4.555,2.246c0.897,0.444,4.068,2.007,6.47,3.127
		c2.315,1.08,5.477,2.686,6.54,3.229c0.454,0.172,0.885,0.376,1.275,0.664c7.885,5.142,15.641,10.297,22.587,16.35l-3.04-0.007
		c-0.004-0.003-0.008-0.006-0.012-0.009c-7.877-5.52-17.305-7.478-26.441-10.719c-3.684-1.531-5.066-7.146-8.75-8.678
		c-1.262-0.933-2.143-2.287-3.689-2.125C256.705,474.689,256.874,473.324,257.073,471.967z"/>
	<path fill="#CA6B46" d="M259.796,493.449c11.612,4.291,23.627,3.684,35.668,3.584c0.188,0.132,0.185,0.13-0.005-0.003l3.04,0.007
		c0.003,0.003,0.005,0.005,0.007,0.007l4.986,0.018l0.492,0.001l5.185-0.135l2.45-0.064l2.666-0.07c0,0,25.747-0.281,29.891-0.281
		c4.145,0,21.412-0.894,23.945-1.021c2.532-0.128,4.949-0.766,6.445-1.659c0.619-0.369,1.177-0.76,1.621-1.092
		c-0.295,2.092-1.686,3.639-4.73,3.856c-5.012,0.358-33.538,1.379-60.533,1.524c-0.738,0.005-1.474,0.006-2.211,0.009
		c-1.957,0.007-3.906,0.011-5.83,0.008c-1.05-0.003-2.095-0.006-3.131-0.011c-0.951-0.004-1.895-0.012-2.832-0.019
		c-0.182-0.142-0.182-0.142,0,0c-18.537-0.151-33.979-0.898-36.899-2.82c-1.042-0.686-1.836-1.8-2.428-3.233
		C258.212,492.687,259.001,493.155,259.796,493.449z"/>
	<g>
		<path fill="#AA4A2F" d="M309.583,485.964c-0.864,0.863-1.771,1.436-2.489,1.596c0.749-0.255,1.648-0.874,2.484-1.784
			C309.578,485.839,309.58,485.9,309.583,485.964z"/>
		<path fill="#AA4A2F" d="M306.981,479.364c0.019,0.023,0.035,0.049,0.057,0.071c-0.637,0.02-1.23,0.112-1.745,0.262
			C305.781,479.526,306.357,479.409,306.981,479.364z"/>
		<path fill="#AA4A2F" d="M309.844,477.329c-1.2-1.31-2.801-2.336-3.621-2.201c0.709-0.378,1.988,0.117,3.65,1.78
			C309.871,476.981,309.842,477.277,309.844,477.329z"/>
		<path fill="#AA4A2F" d="M312.918,485.979c0.089,0.098,0.179,0.18,0.27,0.27c-0.119,1.994-0.774,3.535-1.582,3.621
			C312.324,489.473,312.869,487.898,312.918,485.979z"/>
		<path fill="#AA4A2F" d="M316.8,487.65c0.655-0.726-0.032-2.665-1.536-4.333c-0.059-0.063-0.118-0.119-0.179-0.182
			c0.054,0.002,0.193-0.111,0.266-0.113c0.028,0.028,0.168,0.174,0.197,0.205c1.503,1.667,2.19,3.606,1.536,4.333
			c-0.127,0.141-0.306,0.21-0.505,0.243C316.658,487.762,316.739,487.719,316.8,487.65z"/>
	</g>
	<g>
		<path fill="#AA4A2F" d="M354.081,474.747c-0.055,0.71,0.669,1.177,1.43,1.226c0.762,0.048,1.245-0.438,1.301-1.147
			c0.053-0.712-0.414-1.352-1.175-1.399C354.875,473.378,354.135,474.036,354.081,474.747z"/>
		<path fill="#AA4A2F" d="M356.545,475.334c-0.197,0.426-0.787,0.611-1.323,0.414l-0.371-0.139
			c-0.532-0.197-0.806-0.705-0.608-1.131l1.451-3.152c0.197-0.427,0.788-0.612,1.322-0.415l0.371,0.139
			c0.534,0.198,0.806,0.705,0.608,1.131L356.545,475.334z"/>
		<path fill="#AA4A2F" d="M354.242,474.479l1.451-3.152c0.078-0.171,0.222-0.3,0.398-0.383l-1.426,3.092
			c-0.195,0.427,0.076,0.934,0.608,1.131l0.373,0.139c0.319,0.118,0.659,0.098,0.924-0.029l-0.026,0.059
			c-0.197,0.426-0.787,0.611-1.323,0.414l-0.371-0.139C354.319,475.412,354.045,474.904,354.242,474.479z"/>
	</g>
	<g>
		<path fill="#AA4A2F" d="M349.144,472.317c-0.055,0.729,0.669,1.207,1.431,1.256c0.761,0.05,1.246-0.448,1.301-1.176
			c0.053-0.729-0.415-1.384-1.176-1.433C349.938,470.914,349.198,471.59,349.144,472.317z"/>
		<path fill="#AA4A2F" d="M351.608,472.918c-0.195,0.438-0.787,0.628-1.322,0.425l-0.371-0.142
			c-0.532-0.202-0.807-0.721-0.609-1.158l1.452-3.229c0.196-0.438,0.787-0.628,1.321-0.426l0.372,0.142
			c0.534,0.203,0.806,0.723,0.608,1.159L351.608,472.918z"/>
		<path fill="#AA4A2F" d="M349.305,472.043l1.452-3.229c0.078-0.176,0.222-0.308,0.397-0.395l-1.426,3.17
			c-0.195,0.437,0.077,0.956,0.609,1.159l0.372,0.142c0.321,0.121,0.661,0.099,0.925-0.03l-0.027,0.059
			c-0.195,0.438-0.787,0.628-1.322,0.425l-0.371-0.142C349.382,472.999,349.108,472.48,349.305,472.043z"/>
	</g>
	<g>
		<path fill="#AA4A2F" d="M344.579,469.862c-0.052,0.653,0.638,1.082,1.362,1.126c0.727,0.043,1.188-0.401,1.238-1.055
			c0.051-0.652-0.394-1.24-1.119-1.283C345.336,468.605,344.629,469.21,344.579,469.862z"/>
		<path fill="#AA4A2F" d="M346.926,470.4c-0.188,0.393-0.75,0.562-1.26,0.381l-0.354-0.127c-0.508-0.182-0.766-0.646-0.578-1.039
			l1.381-2.894c0.188-0.392,0.751-0.562,1.259-0.38l0.354,0.126c0.509,0.182,0.767,0.647,0.581,1.039L346.926,470.4z"/>
		<path fill="#AA4A2F" d="M344.735,469.615l1.381-2.894c0.074-0.157,0.211-0.275,0.379-0.353l-1.357,2.841
			c-0.188,0.391,0.074,0.856,0.58,1.038l0.355,0.127c0.305,0.108,0.628,0.09,0.88-0.027l-0.026,0.053
			c-0.188,0.393-0.75,0.562-1.26,0.381l-0.354-0.127C344.805,470.473,344.547,470.008,344.735,469.615z"/>
	</g>
	<g>
		<path fill="#AA4A2F" d="M339.678,467.603c-0.051,0.659,0.617,1.091,1.32,1.136c0.704,0.045,1.151-0.404,1.201-1.062
			c0.049-0.658-0.383-1.252-1.084-1.296C340.41,466.335,339.727,466.945,339.678,467.603z"/>
		<path fill="#AA4A2F" d="M341.953,468.146c-0.182,0.396-0.728,0.567-1.221,0.383l-0.344-0.127
			c-0.493-0.184-0.745-0.652-0.562-1.048l1.34-2.92c0.182-0.396,0.729-0.567,1.222-0.384l0.343,0.127
			c0.494,0.184,0.744,0.654,0.563,1.049L341.953,468.146z"/>
		<path fill="#AA4A2F" d="M339.826,467.354l1.34-2.92c0.073-0.158,0.206-0.277,0.367-0.356l-1.315,2.866
			c-0.181,0.395,0.07,0.864,0.562,1.048l0.344,0.127c0.297,0.111,0.609,0.091,0.854-0.026l-0.025,0.054
			c-0.182,0.396-0.728,0.567-1.221,0.383l-0.344-0.127C339.896,468.219,339.644,467.75,339.826,467.354z"/>
	</g>
	<g>
		<path fill="#AA4A2F" d="M335.044,465.914c-0.051,0.682,0.625,1.13,1.335,1.176c0.711,0.046,1.164-0.42,1.215-1.101
			c0.05-0.682-0.388-1.296-1.097-1.343C335.785,464.602,335.094,465.232,335.044,465.914z"/>
		<path fill="#AA4A2F" d="M337.344,466.477c-0.183,0.41-0.734,0.587-1.234,0.397l-0.346-0.133c-0.498-0.189-0.751-0.675-0.568-1.085
			l1.355-3.022c0.182-0.41,0.734-0.587,1.232-0.397l0.348,0.132c0.497,0.189,0.752,0.676,0.567,1.085L337.344,466.477z"/>
		<path fill="#AA4A2F" d="M335.196,465.656l1.355-3.022c0.072-0.164,0.206-0.288,0.369-0.368l-1.329,2.966
			c-0.184,0.41,0.071,0.896,0.567,1.085l0.349,0.133c0.298,0.113,0.615,0.093,0.861-0.028l-0.024,0.056
			c-0.183,0.41-0.734,0.587-1.234,0.397l-0.346-0.133C335.266,466.552,335.013,466.066,335.196,465.656z"/>
	</g>
	<path fill="#AA4A2F" d="M364.342,476.962c-0.15-0.083-0.299-0.166-0.447-0.249C364.043,476.796,364.192,476.879,364.342,476.962z"
		/>
	<path fill="#AA4A2F" d="M360.18,474.722c-0.008-0.004-0.015-0.007-0.023-0.012C360.165,474.715,360.172,474.718,360.18,474.722z"/>
	<path fill="#AA4A2F" d="M362.301,475.843c-0.062-0.034-0.125-0.069-0.188-0.104C362.176,475.773,362.239,475.808,362.301,475.843z"
		/>
	<polygon fill="#AA4A2F" points="298.499,497.037 298.506,497.044 298.506,497.044 	"/>
	<path fill="#AA4A2F" d="M362.113,475.739c-0.645-0.345-1.29-0.685-1.933-1.018C360.823,475.055,361.467,475.395,362.113,475.739z"
		/>
	<path fill="#AA4A2F" d="M366.115,477.974c-0.585-0.342-1.179-0.679-1.772-1.012C364.936,477.296,365.53,477.632,366.115,477.974z"
		/>
	<path fill="#AA4A2F" d="M363.895,476.713c-0.531-0.294-1.061-0.585-1.594-0.87C362.834,476.129,363.364,476.419,363.895,476.713z"
		/>
	<path fill="#AA4A2F" d="M335.431,463.078c0.026,0.015,0.056,0.028,0.082,0.042l0,0
		C335.487,463.106,335.457,463.093,335.431,463.078z"/>
	<path fill="#AA4A2F" d="M354.683,471.989c-0.487-0.232-0.962-0.458-1.433-0.68C353.719,471.531,354.196,471.757,354.683,471.989z"
		/>
	<path fill="#AA4A2F" d="M340.052,465.314c0.01,0.004,0.02,0.009,0.029,0.014l0,0C340.072,465.324,340.062,465.318,340.052,465.314z
		"/>
	<path fill="#AA4A2F" d="M360.156,474.71c-0.646-0.334-1.291-0.662-1.931-0.983C358.865,474.048,359.51,474.375,360.156,474.71z"/>
	<path fill="#AA4A2F" d="M348.383,469.081c0.408,0.182,0.828,0.371,1.266,0.569C349.213,469.453,348.791,469.263,348.383,469.081
		L348.383,469.081z"/>
</g>
</svg>
