<?xml version="1.0" encoding="utf-8"?>
<!-- Generator: Adobe Illustrator 16.0.1, SVG Export Plug-In . SVG Version: 6.00 Build 0)  -->
<!DOCTYPE svg PUBLIC "-//W3C//DTD SVG 1.1//EN" "http://www.w3.org/Graphics/SVG/1.1/DTD/svg11.dtd">
<svg version="1.1" id="content" xmlns="http://www.w3.org/2000/svg" xmlns:xlink="http://www.w3.org/1999/xlink" x="0px" y="0px"
	 width="500px" height="500px" viewBox="0 0 500 500" enable-background="new 0 0 500 500" xml:space="preserve">
<rect id="position" x="0" display="none" fill="none" stroke="#000000" width="500" height="500"/>
<g id="bounds" display="none">
	<rect x="0.2" y="80.2" display="inline" fill="none" stroke="#EAEAEA" stroke-miterlimit="10" width="499.497" height="499.5"/>
</g>
<g>
	<path fill="#FEFEFE" d="M167.804,271.787c-36.261,6.535-99.354,45.238-85.516,86.834c2.223,6.686,5.991,10.729,12.479,12.951
		c11.261,3.854,57.707,4.934,69.441,6.237c29.36,3.261,58.79,3.441,88.309,2.222c25.087-1.037,45.605-10.154,61.846-29.57
		c15.438-18.457,25.582-39.592,33.729-61.926c0.594-1.627,0.34-3.898,2.809-5.055c1.095,8.114,2.247,15.85,3.156,23.612
		c1.664,14.207,3.185,28.431,4.764,42.646c-1.299,4.746,0.122,7.621,5.391,7.938c1.318,0.08,2.627,0.359,3.937,0.564
		c7.301,1.143,8.32,0.004,6.828-7.619c1.025-13.779,0.879-27.592,1.15-41.394c0.75-38.086,1.086-76.217,12.854-113.053
		c0.755-2.361,1.06-4.836,2.234-7.102c5.096-9.812,5.916-20.326,2.092-30.393c-8.891-23.41-24.879-41.816-43.369-58.219
		c-1.086-0.965-2.219-2.131-3.963-1.453c-0.881-0.59-1.154-1.969-2.759-1.621c-4.042,0.879-8.156,1.268-11.964,3.209
		c-10.216,5.207-17.887,13.053-24.363,22.353c-28.57,41.018-59.564,80.068-94.531,115.869
		C199.287,252.203,185.424,264.541,167.804,271.787z"/>
	<path fill="#E10B7E" d="M345.973,99.012c1.744-0.678,2.877,0.488,3.963,1.453c18.49,16.402,34.479,34.809,43.369,58.219
		c3.824,10.066,3.004,20.582-2.092,30.393c-1.176,2.266-1.479,4.74-2.234,7.102c-11.768,36.836-12.104,74.967-12.854,113.053
		c-0.271,13.801-0.125,27.612-1.15,41.393c-5.443,0.783-10.751-0.922-16.154-0.883c-1.58-14.217-3.1-28.439-4.764-42.646
		c-0.909-7.764-2.062-15.498-3.156-23.613c-2.469,1.156-2.215,3.429-2.809,5.056c-8.146,22.334-18.291,43.469-33.729,61.926
		c-16.239,19.416-36.759,28.533-61.846,29.57c-29.519,1.221-58.947,1.039-88.309-2.221c-11.734-1.306-58.181-2.384-69.441-6.238
		c-6.488-2.224-10.258-6.267-12.479-12.951c-13.839-41.596,49.255-80.299,85.515-86.834c12.824,2.565,25.588,5.504,38.49,7.586
		c10.245,1.651,20.683,4.404,31.047,1.381c8.434-2.461,16.572-5.932,24.861-8.901c11.096-3.978,20.239-10.578,27.385-19.98
		c3.614-4.76,7.375-9.406,11.069-14.104c6.973-8.859,14.33-17.357,18.697-28.07c6.162-15.119,11.543-30.492,15.813-46.213
		c3.118-11.484,6.815-22.803,8.136-34.822C344.387,118.785,344.229,108.811,345.973,99.012z"/>
	<path fill="#AD1161" d="M345.973,99.012c-11.029,212.212-120.342,196.744-190.223,175.82c17.621-7.246,43.537-22.629,56.604-36.012
		c34.966-35.801,65.961-74.852,94.531-115.869c6.477-9.299,14.147-17.145,24.363-22.352c3.808-1.941,7.922-2.33,11.964-3.209
		C344.819,97.043,345.092,98.422,345.973,99.012z"/>
	<path fill="#084453" d="M358.821,349.74c5.403-0.039,10.711,1.666,16.154,0.883c1.492,7.623,0.472,8.762-6.828,7.619
		c-1.31-0.205-2.617-0.484-3.937-0.564C358.943,357.361,357.522,354.486,358.821,349.74z"/>
</g>
</svg>
