<?xml version="1.0" encoding="utf-8"?>
<!-- Generator: Adobe Illustrator 16.0.1, SVG Export Plug-In . SVG Version: 6.00 Build 0)  -->
<!DOCTYPE svg PUBLIC "-//W3C//DTD SVG 1.1//EN" "http://www.w3.org/Graphics/SVG/1.1/DTD/svg11.dtd">
<svg version="1.1" xmlns="http://www.w3.org/2000/svg" xmlns:xlink="http://www.w3.org/1999/xlink" x="0px" y="0px" width="500px"
	 height="500px" viewBox="0 0 500 500" enable-background="new 0 0 500 500" xml:space="preserve">
<g id="avatar">
	<g>
		<path fill="#5A71A4" d="M175.299,496.454c0-20.113,16.308-36.419,36.421-36.419c20.114,0,36.42,16.306,36.42,36.419H175.299z"/>
	</g>
	<g>
		<path fill="#5A71A4" d="M252.234,496.454c0-20.113,16.308-36.419,36.42-36.419c20.114,0,36.423,16.306,36.423,36.419H252.234z"/>
	</g>
	<g>
		<path fill="#1C1E34" d="M247.21,485.922h-36.222c-0.289,0-0.562,0.126-0.824,0.307c-0.258-0.181-0.527-0.307-0.812-0.307h-35.743
			c-1.521,0-2.755,2.787-2.755,6.223l0,0c0,3.436,1.234,6.223,2.755,6.223h35.743c0.285,0,0.555-0.126,0.812-0.307
			c0.262,0.181,0.535,0.307,0.824,0.307h36.222c1.54,0,2.79-2.787,2.79-6.223l0,0C250,488.708,248.75,485.922,247.21,485.922z"/>
	</g>
	<g>
		<path fill="#1C1E34" d="M327,485.922h-36.222c-0.289,0-0.562,0.126-0.824,0.307c-0.258-0.181-0.527-0.307-0.812-0.307h-35.743
			c-1.521,0-2.755,2.787-2.755,6.223l0,0c0,3.436,1.234,6.223,2.755,6.223h35.743c0.285,0,0.555-0.126,0.812-0.307
			c0.262,0.181,0.535,0.307,0.824,0.307H327c1.54,0,2.79-2.787,2.79-6.223l0,0C329.79,488.708,328.54,485.922,327,485.922z"/>
	</g>
	<g>
		<ellipse fill="#7B8DB6" cx="195.067" cy="474.441" rx="6.22" ry="3.802"/>
	</g>
	<g>
		<ellipse fill="#7B8DB6" cx="273.067" cy="474.441" rx="6.22" ry="3.802"/>
	</g>
</g>
<g id="robot">
</g>
</svg>
