<?xml version="1.0" encoding="utf-8"?>
<!-- Generator: Adobe Illustrator 16.0.1, SVG Export Plug-In . SVG Version: 6.00 Build 0)  -->
<!DOCTYPE svg PUBLIC "-//W3C//DTD SVG 1.1//EN" "http://www.w3.org/Graphics/SVG/1.1/DTD/svg11.dtd">
<svg version="1.1" id="Layer_1" xmlns="http://www.w3.org/2000/svg" xmlns:xlink="http://www.w3.org/1999/xlink" x="0px" y="0px"
	 width="500px" height="500px" viewBox="0 0 500 500" enable-background="new 0 0 500 500" xml:space="preserve">
<g id="avatar">
</g>
<g>
	<path fill="#E23B13" d="M213.718,474.526h-2.347c-13.411,0-24.383-11.823-24.383-26.272v23.984
		c0,14.449,10.972,26.272,24.383,26.272h2.347c13.411,0,24.383-11.823,24.383-26.272v-23.984
		C238.101,462.703,227.128,474.526,213.718,474.526z"/>
	<g>
		<path fill="#F8B03D" d="M209.437,484.834l-0.307-3.839c-0.035-0.436,0.136-0.823,0.43-1.094c-1.89-1.479-4.631-2.448-6.068-2.448
			c-2.33,0-4.218,2.544-4.218,5.682c0,3.139,1.888,5.682,4.218,5.682c1.572,0,4.699-1.157,6.57-2.874
			C209.715,485.672,209.472,485.276,209.437,484.834z"/>
		<path fill="#F8B03D" d="M221.597,477.453c-1.438,0-4.178,0.97-6.068,2.448c0.293,0.271,0.464,0.658,0.43,1.094l-0.307,3.839
			c-0.035,0.442-0.278,0.838-0.625,1.108c1.871,1.717,4.999,2.874,6.57,2.874c2.33,0,4.219-2.543,4.219-5.682
			C225.816,479.997,223.927,477.453,221.597,477.453z"/>
		<path fill="#F8B03D" d="M214.883,480.461c-0.199-0.205-0.469-0.334-0.776-0.334h-3.125c-0.307,0-0.577,0.129-0.776,0.334
			c-0.231,0.238-0.367,0.581-0.339,0.965l0.241,3.375c0.021,0.298,0.14,0.57,0.315,0.791c0.243,0.306,0.6,0.507,0.986,0.507h2.272
			c0.387,0,0.743-0.201,0.986-0.507c0.175-0.221,0.293-0.493,0.315-0.791l0.241-3.375
			C215.25,481.042,215.114,480.699,214.883,480.461z"/>
	</g>
</g>
<g>
	<path fill="#E23B13" d="M289.895,474.526h-2.424c-13.85,0-25.182-11.823-25.182-26.272v23.984
		c0,14.449,11.332,26.272,25.182,26.272h2.424c13.85,0,25.182-11.823,25.182-26.272v-23.984
		C315.076,462.703,303.744,474.526,289.895,474.526z"/>
	<g>
		<path fill="#F8B03D" d="M285.474,484.834l-0.317-3.839c-0.036-0.436,0.141-0.823,0.443-1.094
			c-1.952-1.479-4.782-2.448-6.268-2.448c-2.406,0-4.355,2.544-4.355,5.682c0,3.139,1.949,5.682,4.355,5.682
			c1.624,0,4.854-1.157,6.786-2.874C285.761,485.672,285.51,485.276,285.474,484.834z"/>
		<path fill="#F8B03D" d="M298.032,477.453c-1.485,0-4.315,0.97-6.267,2.448c0.303,0.271,0.479,0.658,0.443,1.094l-0.316,3.839
			c-0.037,0.442-0.288,0.838-0.646,1.108c1.933,1.717,5.162,2.874,6.785,2.874c2.407,0,4.357-2.543,4.357-5.682
			C302.39,479.997,300.439,477.453,298.032,477.453z"/>
		<path fill="#F8B03D" d="M291.098,480.461c-0.205-0.205-0.484-0.334-0.801-0.334h-3.229c-0.316,0-0.596,0.129-0.801,0.334
			c-0.239,0.238-0.38,0.581-0.351,0.965l0.248,3.375c0.022,0.298,0.146,0.57,0.325,0.791c0.252,0.306,0.619,0.507,1.019,0.507h2.347
			c0.4,0,0.768-0.201,1.02-0.507c0.18-0.221,0.303-0.493,0.325-0.791l0.248-3.375C291.477,481.042,291.337,480.699,291.098,480.461z
			"/>
	</g>
</g>
</svg>
