<?xml version="1.0" encoding="utf-8"?>
<!-- Generator: Adobe Illustrator 16.0.1, SVG Export Plug-In . SVG Version: 6.00 Build 0)  -->
<!DOCTYPE svg PUBLIC "-//W3C//DTD SVG 1.1//EN" "http://www.w3.org/Graphics/SVG/1.1/DTD/svg11.dtd">
<svg version="1.1" xmlns="http://www.w3.org/2000/svg" xmlns:xlink="http://www.w3.org/1999/xlink" x="0px" y="0px" width="500px"
	 height="500px" viewBox="0 0 500 500" enable-background="new 0 0 500 500" xml:space="preserve">
<g id="avatar">
</g>
<g id="robot">
	<path fill="#F79AC0" d="M215.536,484.361c-2.082-3.871-11.507-19.135-27.33-22.561c-0.485-0.105-0.976-0.198-1.473-0.271
		c-15.967-2.371-54.168,15.794-43.712,34.03c4.798,8.367,76.18,2.256,77.548,2.256c25.195,0,17.944-11.431,16.517-12.356
		c-0.462-0.3-1.538-0.357-2.968-0.295C228.481,485.408,217.249,487.545,215.536,484.361z"/>
	<path fill="#F79AC0" d="M285.817,484.361c2.082-3.871,11.507-19.135,27.33-22.561c0.485-0.105,0.976-0.198,1.473-0.271
		c15.967-2.371,54.168,15.794,43.712,34.03c-4.798,8.367-76.18,2.256-77.548,2.256c-25.195,0-17.944-11.431-16.517-12.356
		c0.462-0.3,1.538-0.357,2.968-0.295C272.873,485.408,284.104,487.545,285.817,484.361z"/>
</g>
</svg>
