<?xml version="1.0" encoding="utf-8"?>
<!-- Generator: Adobe Illustrator 16.0.1, SVG Export Plug-In . SVG Version: 6.00 Build 0)  -->
<!DOCTYPE svg PUBLIC "-//W3C//DTD SVG 1.1//EN" "http://www.w3.org/Graphics/SVG/1.1/DTD/svg11.dtd">
<svg version="1.1" id="Layer_1" xmlns="http://www.w3.org/2000/svg" xmlns:xlink="http://www.w3.org/1999/xlink" x="0px" y="0px"
	 width="500px" height="500px" viewBox="0 0 500 500" enable-background="new 0 0 500 500" xml:space="preserve">
<g id="avatar">
</g>
<g>
	<path fill="#414855" d="M305.657,462.894h7.8c0,0,12.365,10.469,45.466,15.894l-22.566,8.616L290.068,473.9L305.657,462.894z"/>
	<path fill="#1D1D1B" d="M257.779,491.22l3.314,6.926h43.698l0.157-1.27c0,0,7.378,0.355,15.515,1.27c0,0,25.459,2.577,59.349-2.197
		v-4.729l-53.814-5.582l-53.65-3.639L257.779,491.22z"/>
	<path fill="#494948" d="M360.598,478.991L360.598,478.991c0,0-40.817-4.494-54.94-16.098h-40.596c0,0-13.017,10.856-7.282,28.326
		c0,0,0.664,1.995,22.948,1.995c0,0,9.711,0,15.888-0.998c0,0,14.202-0.943,28.544,1.053c0,0,12.394,2.767,49.801-1.053
		c0,0,3.398-0.323,4.853-0.997v-0.984C379.812,484.024,374.085,479.986,360.598,478.991z"/>
	<path fill="#414855" d="M308.259,466.23c0,0.583-0.838,1.057-1.866,1.057c-1.033,0-1.869-0.474-1.869-1.057
		c0-0.581,0.836-1.055,1.869-1.055C307.421,465.176,308.259,465.649,308.259,466.23z"/>
	<path fill="#414855" d="M313.457,469.17c0,0.584-0.836,1.057-1.869,1.057c-1.028,0-1.865-0.473-1.865-1.057
		c0-0.582,0.837-1.056,1.865-1.056C312.621,468.114,313.457,468.588,313.457,469.17z"/>
	<ellipse fill="#414855" cx="317.843" cy="471.697" rx="1.868" ry="1.055"/>
	<ellipse fill="#414855" cx="324.132" cy="473.808" rx="1.866" ry="1.057"/>
	<ellipse fill="#414855" cx="330.835" cy="475.92" rx="1.868" ry="1.056"/>
	<ellipse fill="#414855" cx="337.658" cy="477.511" rx="1.867" ry="1.055"/>
	<g>
		<g>
			<path fill="#353B45" d="M306.472,466.68c3.742,0.093,8.043-0.017,10.804-1.642c0.925-0.544-0.537-1.375-1.464-0.828
				c-2.359,1.386-6.169,1.377-9.34,1.298C305.139,465.475,305.143,466.648,306.472,466.68L306.472,466.68z"/>
		</g>
		<g>
			<path fill="#353B45" d="M312.971,469.618c3.064,0.047,5.654-0.791,7.878-1.916c0.998-0.506-0.472-1.331-1.465-0.828
				c-1.823,0.921-3.901,1.61-6.413,1.573C311.634,468.427,311.636,469.598,312.971,469.618L312.971,469.618z"/>
		</g>
		<g>
			<path fill="#353B45" d="M319.255,472.26c2.478-0.456,4.533-1.368,5.817-2.656c0.655-0.659-1.135-1.249-1.79-0.592
				c-1.019,1.023-2.604,1.756-4.577,2.12C317.442,471.365,317.982,472.497,319.255,472.26L319.255,472.26z"/>
		</g>
		<g>
			<path fill="#353B45" d="M325.188,474.314c2.113-0.688,4.329-1.277,5.403-2.599c0.557-0.681-1.229-1.274-1.787-0.591
				c-0.921,1.131-2.853,1.59-4.663,2.179C322.984,473.679,324.027,474.69,325.188,474.314L325.188,474.314z"/>
		</g>
		<g>
			<path fill="#353B45" d="M331.436,476.21c2.168-0.379,3.397-1.497,4.679-2.472c0.798-0.607-1.001-1.191-1.788-0.593
				c-0.923,0.701-1.873,1.662-3.442,1.936C329.611,475.306,330.157,476.436,331.436,476.21L331.436,476.21z"/>
		</g>
		<g>
			<path fill="#353B45" d="M338.991,477.621c1.295-0.547,2.236-1.237,2.97-2.049c0.609-0.667-1.18-1.263-1.788-0.59
				c-0.559,0.617-1.229,1.208-2.227,1.628C336.889,477.056,337.919,478.074,338.991,477.621L338.991,477.621z"/>
		</g>
	</g>
</g>
<g>
	<path fill="#414855" d="M195.185,462.894h-7.8c0,0-12.365,10.469-45.466,15.894l22.566,8.616l46.288-13.503L195.185,462.894z"/>
	<path fill="#1D1D1B" d="M243.062,491.22l-3.314,6.926H196.05l-0.157-1.27c0,0-7.378,0.355-15.515,1.27
		c0,0-25.459,2.577-59.349-2.197v-4.729l53.814-5.582l53.65-3.639L243.062,491.22z"/>
	<path fill="#494948" d="M140.244,478.991L140.244,478.991c0,0,40.817-4.494,54.94-16.098h40.596c0,0,13.017,10.856,7.282,28.326
		c0,0-0.664,1.995-22.948,1.995c0,0-9.711,0-15.888-0.998c0,0-14.202-0.943-28.544,1.053c0,0-12.394,2.767-49.801-1.053
		c0,0-3.398-0.323-4.853-0.997v-0.984C121.029,484.024,126.757,479.986,140.244,478.991z"/>
	<path fill="#414855" d="M192.583,466.23c0,0.583,0.838,1.057,1.866,1.057c1.033,0,1.869-0.474,1.869-1.057
		c0-0.581-0.836-1.055-1.869-1.055C193.421,465.176,192.583,465.649,192.583,466.23z"/>
	<path fill="#414855" d="M187.385,469.17c0,0.584,0.836,1.057,1.869,1.057c1.028,0,1.865-0.473,1.865-1.057
		c0-0.582-0.837-1.056-1.865-1.056C188.221,468.114,187.385,468.588,187.385,469.17z"/>
	<ellipse fill="#414855" cx="182.999" cy="471.697" rx="1.868" ry="1.055"/>
	<ellipse fill="#414855" cx="176.71" cy="473.808" rx="1.866" ry="1.057"/>
	<ellipse fill="#414855" cx="170.006" cy="475.92" rx="1.868" ry="1.056"/>
	<ellipse fill="#414855" cx="163.184" cy="477.511" rx="1.867" ry="1.055"/>
	<g>
		<g>
			<path fill="#353B45" d="M194.37,466.68c-3.742,0.093-8.043-0.017-10.804-1.642c-0.925-0.544,0.537-1.375,1.464-0.828
				c2.359,1.386,6.169,1.377,9.34,1.298C195.703,465.475,195.699,466.648,194.37,466.68L194.37,466.68z"/>
		</g>
		<g>
			<path fill="#353B45" d="M187.871,469.618c-3.064,0.047-5.654-0.791-7.878-1.916c-0.998-0.506,0.472-1.331,1.465-0.828
				c1.823,0.921,3.901,1.61,6.413,1.573C189.208,468.427,189.206,469.598,187.871,469.618L187.871,469.618z"/>
		</g>
		<g>
			<path fill="#353B45" d="M181.587,472.26c-2.478-0.456-4.533-1.368-5.817-2.656c-0.655-0.659,1.135-1.249,1.79-0.592
				c1.019,1.023,2.604,1.756,4.577,2.12C183.399,471.365,182.859,472.497,181.587,472.26L181.587,472.26z"/>
		</g>
		<g>
			<path fill="#353B45" d="M175.654,474.314c-2.113-0.688-4.329-1.277-5.403-2.599c-0.557-0.681,1.229-1.274,1.787-0.591
				c0.921,1.131,2.853,1.59,4.663,2.179C177.857,473.679,176.814,474.69,175.654,474.314L175.654,474.314z"/>
		</g>
		<g>
			<path fill="#353B45" d="M169.406,476.21c-2.168-0.379-3.397-1.497-4.679-2.472c-0.798-0.607,1.001-1.191,1.788-0.593
				c0.923,0.701,1.873,1.662,3.442,1.936C171.23,475.306,170.685,476.436,169.406,476.21L169.406,476.21z"/>
		</g>
		<g>
			<path fill="#353B45" d="M161.851,477.621c-1.295-0.547-2.236-1.237-2.97-2.049c-0.609-0.667,1.18-1.263,1.788-0.59
				c0.559,0.617,1.229,1.208,2.227,1.628C163.953,477.056,162.923,478.074,161.851,477.621L161.851,477.621z"/>
		</g>
	</g>
</g>
</svg>
