<?xml version="1.0" encoding="utf-8"?>
<!-- Generator: Adobe Illustrator 16.0.1, SVG Export Plug-In . SVG Version: 6.00 Build 0)  -->
<!DOCTYPE svg PUBLIC "-//W3C//DTD SVG 1.1//EN" "http://www.w3.org/Graphics/SVG/1.1/DTD/svg11.dtd">
<svg version="1.1" id="Layer_1" xmlns="http://www.w3.org/2000/svg" xmlns:xlink="http://www.w3.org/1999/xlink" x="0px" y="0px"
	 width="500px" height="500px" viewBox="0 0 500 500" enable-background="new 0 0 500 500" xml:space="preserve">
<g id="avatar">
</g>
<g>
	<path fill="#494948" d="M213.718,474.526h-2.347c-13.411,0-24.383-11.823-24.383-26.272v23.984
		c0,14.449,10.972,26.272,24.383,26.272h2.347c13.411,0,24.383-11.823,24.383-26.272v-23.984
		C238.101,462.703,227.128,474.526,213.718,474.526z"/>
</g>
<g>
	<path fill="#494948" d="M289.895,474.526h-2.424c-13.85,0-25.182-11.823-25.182-26.272v23.984
		c0,14.449,11.332,26.272,25.182,26.272h2.424c13.85,0,25.182-11.823,25.182-26.272v-23.984
		C315.076,462.703,303.744,474.526,289.895,474.526z"/>
</g>
</svg>
