<?xml version="1.0" encoding="utf-8"?>
<!-- Generator: Adobe Illustrator 16.0.1, SVG Export Plug-In . SVG Version: 6.00 Build 0)  -->
<!DOCTYPE svg PUBLIC "-//W3C//DTD SVG 1.1//EN" "http://www.w3.org/Graphics/SVG/1.1/DTD/svg11.dtd">
<svg version="1.1" id="Layer_1" xmlns="http://www.w3.org/2000/svg" xmlns:xlink="http://www.w3.org/1999/xlink" x="0px" y="0px"
	 width="500px" height="500px" viewBox="0 0 500 500" enable-background="new 0 0 500 500" xml:space="preserve">
<g id="avatar">
	<g>
		<g display="none">
			<g display="inline">
				<path fill="#FED9AE" d="M157.406,338.494c0,11.978-9.8,21.777-21.775,21.777h-0.589c-11.979,0-21.778-9.805-21.778-21.777
					V218.491c0-11.979,9.8-21.778,21.778-21.778h0.589c11.978,0,21.775,9.8,21.775,21.778V338.494z"/>
			</g>
		</g>
		<g display="none">
			<g display="inline">
				<path fill="#FED9AE" d="M388.595,338.494c0,11.978-9.8,21.777-21.778,21.777h-0.588c-11.979,0-21.773-9.805-21.773-21.777
					V218.491c0-11.979,9.8-21.778,21.773-21.778h0.588c11.979,0,21.778,9.8,21.778,21.778V338.494L388.595,338.494z"/>
			</g>
		</g>
		<g display="none">
			<g display="inline">
				<path fill="#FED9AE" d="M186.923,472.011v-87.296c0-13.44,11-24.44,24.444-24.44h2.352c13.444,0,24.444,11,24.444,24.44v87.296
					H186.923z"/>
			</g>
			<g display="inline">
				<path fill="#FED9AE" d="M262.38,471.699v-86.674c0-13.614,11.14-24.754,24.755-24.754h3.041
					c13.615,0,24.755,11.14,24.755,24.754v86.674H262.38z"/>
			</g>
		</g>
		<g display="none">
			<circle display="inline" fill="#FED9AE" cx="250.928" cy="105.505" r="85.691"/>
		</g>
		<g display="none">
			<circle display="inline" fill="#FFFFFF" cx="218.528" cy="96.644" r="15.116"/>
			<circle display="inline" fill="#FFFFFF" cx="282.104" cy="96.644" r="15.116"/>
			<path display="inline" fill="#FFFFFF" d="M266.044,139.444c0,8.348-6.77,15.115-15.116,15.115s-15.117-6.768-15.117-15.115
				H266.044z"/>
		</g>
		<g display="none">
			<path display="inline" fill="#FED9AE" d="M323.582,375.08c-1.005,11.803-11.521,21.46-23.366,21.46h-98.88
				c-11.849,0-22.349-9.658-23.333-21.463l-13.127-156.901c-0.987-11.805,7.896-21.463,19.742-21.463h132.618
				c11.849,0,20.718,9.657,19.709,21.46L323.582,375.08z"/>
		</g>
	</g>
</g>
<g id="clothes">
</g>
<path display="none" fill="#727272" d="M121.949,477.607c0,0-2.961-0.621-2.872,5.764c0.03,2.386,6.386,9.783,26.724,12.441
	c32.447,4.24,85.668,3.686,98.252-0.212c0.639-0.194,1.594-0.615,1.594-0.615c1.307-1.419,2.09-7.536,0-12.771
	c0,0-0.521-0.887-2.699-0.619c-2.176,0.268-105.153-0.667-105.153-0.667L121.949,477.607z"/>
<path display="none" fill="#A2AEAE" d="M126.128,469.271c0,0,1.188-0.505,4.759-0.771c3.699-0.274,9.853-0.317,13.694-0.769
	c4.353-0.51,7.22-1.639,7.835-1.832c0,0-0.766,3.022,0.751,4.144c1.513,1.119,5.727,5.923,5.109,8.093c0,0-0.114,3.018-3.364,2.779
	s-6.963-4.315-8.938-4.611c-1.974-0.295-11.781-2.424-11.781-2.424l-6.673-2.009C127.522,471.874,123.982,470.159,126.128,469.271z"
	/>
<path display="none" fill="#A2AEAE" d="M187.602,444.435c-0.728,0.845-1.572,1.751-2.58,2.716c-0.293,0.275-0.6,0.557-0.92,0.844
	c-0.105,0.096-0.219,0.192-0.326,0.291c-1.305,1.139-2.676,2.178-4.186,3.178c-0.509,0.338-1.03,0.666-1.572,0.997
	c-1.264,0.771-2.638,1.532-4.15,2.319c-0.776,0.402-1.597,0.814-2.455,1.236c-0.619,0.307-1.266,0.613-1.934,0.935
	c-0.605,0.286-1.295,0.567-2.033,0.854c-0.684,0.264-1.408,0.521-2.156,0.787c-1.33,0.465-2.729,0.938-4.064,1.436
	c-0.571,0.207-1.128,0.426-1.668,0.646c-0.238,0.101-0.474,0.191-0.703,0.277c-1.581,0.604-3.028,1.018-4.412,1.65h-0.003
	c-0.654,0.293-1.296,0.644-1.933,1.084c0,0-1.979,3.398-0.312,5.603c1.666,2.202,2.312,1.583,8.579,0.341
	c6.269-1.242,13.754-3.725,13.754-3.725l28.986-8.245l2.408-4.273C199.147,452.137,192.094,449.123,187.602,444.435z"/>
<ellipse display="none" fill="#A2AEAE" cx="155.377" cy="464.965" rx="2.075" ry="2.119"/>
<ellipse display="none" fill="#A2AEAE" cx="162.016" cy="463.363" rx="2.074" ry="2.119"/>
<ellipse display="none" fill="#A2AEAE" cx="168.4" cy="460.949" rx="2.074" ry="2.119"/>
<ellipse display="none" fill="#A2AEAE" cx="174.882" cy="457.881" rx="2.075" ry="2.121"/>
<ellipse display="none" fill="#A2AEAE" cx="180.621" cy="454.578" rx="2.074" ry="2.121"/>
<path display="none" fill="#A2AEAE" d="M238.26,441.752c-5.732,4.952-12.141,9.688-19.301,11.505l8.23,10.075l17.411,2.749
	l0.9-1.784C243.062,456.602,239.212,449.683,238.26,441.752z"/>
<path display="none" fill="#727272" d="M126.128,469.271c0,0-4.526,2.658-4.179,8.336c0.187,3.061,12.356,6.861,28.027,8.512
	c13.385,1.406,30.644,0.887,30.644,0.887s-6.159-5.186-9.748-10.947c-2.745-4.402-3.24-9.428-2.787-11.043
	c0,0-3.537,4.535-15.376,4.893c0,0,7.077,6.932,4.292,9.416c-2.784,2.48-5.564-0.397-8.009-2.722c0,0-1.571-1.152-4.878-1.948
	c-3.479-0.843-8.771-1.344-11.777-2.07C126.477,471.164,126.128,469.271,126.128,469.271z"/>
<path display="none" fill="#A2AEAE" d="M207.309,453.613c-1.546-0.231-3.115-0.562-4.677-0.979
	c-0.283,1.619-1.136,3.192-3.252,3.832c-2.396,0.729-6.077-0.046-9.271,0.213c-3.598,0.292-6.621,1.597-7.398,2.129
	c-1.302,0.894-1.959,2.363-4.005,3.369c-2.211,1.088-5.68,0.831-7.746,1.598c-2.654,0.979-2.874,1.238-2.874,1.238
	s-4.7,18.089,12.535,21.99c18.89-2.129,33.167-2.395,33.167-2.395s3.74-8.688,0.781-16.669
	C212.385,462.05,211.046,458.379,207.309,453.613z"/>
<path display="none" fill="#CAD7D7" d="M245.107,463.07c-1.249-0.018-3.503-0.414-6.251-2.576
	c-3.234-2.547-7.263-6.547-11.616-10.671c-4.427,2.515-9.18,4.198-14.282,4.221c-1.755,0.008-3.615-0.132-5.516-0.409
	c0.361,0.5,0.712,1.011,1.04,1.537c5.262,8.501,7.351,20.256,5.309,29.439c0,0,28.464-0.088,31.337-2.748
	c0.47-4.783,0.778-11.698,0.933-15.698C245.766,465.119,245.451,464.087,245.107,463.07z"/>
<g display="none">
	<path display="inline" fill="#A2AEAE" d="M178.018,452.458v0.004l-1.541,5.841c-0.25,0.958-1.184,1.535-2.078,1.291
		c-0.897-0.244-1.422-1.221-1.166-2.181c0,0,0.309-1.313,0.635-2.636C175.38,453.99,176.754,453.228,178.018,452.458z"/>
</g>
<g display="none">
	<path display="inline" fill="#A2AEAE" d="M171.41,456.016l-1.297,5.257c-0.234,0.962-1.157,1.555-2.061,1.322
		c-0.902-0.229-1.438-1.194-1.202-2.161c0,0,0.286-1.309,0.593-2.631c0.738-0.285,1.428-0.566,2.033-0.854
		C170.147,456.629,170.791,456.32,171.41,456.016z"/>
</g>
<g display="none">
	<path display="inline" fill="#A2AEAE" d="M165.287,458.59l-1.65,5.121c-0.304,0.941-1.266,1.466-2.146,1.17
		c-0.887-0.293-1.354-1.297-1.05-2.24c0,0,0.378-1.309,0.779-2.615C162.56,459.526,163.957,459.055,165.287,458.59z"/>
</g>
<g display="none">
	<path display="inline" fill="#A2AEAE" d="M158.852,460.949l-1.909,4.461c-0.386,0.912-1.392,1.34-2.242,0.965
		c-0.852-0.381-1.229-1.422-0.84-2.33c0,0,0.249-0.629,0.576-1.443h0.003L158.852,460.949z"/>
</g>
<g display="none">
	<path display="inline" fill="#A2AEAE" d="M183.754,449.18l-1.577,5.828c-0.257,0.957-1.194,1.527-2.089,1.279
		c-0.896-0.25-1.415-1.229-1.152-2.188c0,0,0.315-1.314,0.654-2.639c1.51-1,2.881-2.039,4.186-3.178
		C183.84,448.566,183.838,448.876,183.754,449.18z"/>
</g>
<g id="Sniekers_2_" display="none">
	<path display="inline" fill="#727272" d="M378.99,477.607c0,0,2.959-0.621,2.872,5.764c-0.03,2.386-6.386,9.783-26.724,12.441
		c-32.447,4.24-85.668,3.686-98.252-0.212c-0.639-0.194-1.594-0.615-1.594-0.615c-1.307-1.419-2.09-7.536,0-12.771
		c0,0,0.521-0.887,2.699-0.619c2.176,0.268,105.153-0.667,105.153-0.667L378.99,477.607z"/>
	<path display="inline" fill="#A2AEAE" d="M374.811,469.271c0,0-1.188-0.505-4.759-0.771c-3.699-0.274-9.854-0.317-13.694-0.769
		c-4.353-0.51-7.22-1.639-7.835-1.832c0,0,0.766,3.022-0.751,4.144c-1.513,1.119-5.727,5.923-5.109,8.093
		c0,0,0.114,3.018,3.364,2.779s6.963-4.315,8.938-4.611c1.974-0.295,11.781-2.424,11.781-2.424l6.673-2.009
		C373.417,471.874,376.957,470.159,374.811,469.271z"/>
	<path display="inline" fill="#A2AEAE" d="M313.337,444.435c0.728,0.845,1.571,1.751,2.58,2.716c0.293,0.275,0.6,0.557,0.92,0.844
		c0.105,0.096,0.219,0.192,0.326,0.291c1.305,1.139,2.676,2.178,4.186,3.178c0.509,0.338,1.03,0.666,1.572,0.997
		c1.264,0.771,2.638,1.532,4.15,2.319c0.776,0.402,1.597,0.814,2.455,1.236c0.619,0.307,1.266,0.613,1.934,0.935
		c0.605,0.286,1.295,0.567,2.033,0.854c0.684,0.264,1.408,0.521,2.156,0.787c1.33,0.465,2.729,0.938,4.064,1.436
		c0.571,0.207,1.128,0.426,1.668,0.646c0.238,0.101,0.474,0.191,0.703,0.277c1.581,0.604,3.027,1.018,4.412,1.65h0.003
		c0.653,0.293,1.296,0.644,1.933,1.084c0,0,1.979,3.398,0.312,5.603c-1.666,2.202-2.312,1.583-8.579,0.341
		c-6.269-1.242-13.754-3.725-13.754-3.725l-28.986-8.245l-2.408-4.273C301.792,452.137,308.844,449.123,313.337,444.435z"/>
	<ellipse display="inline" fill="#A2AEAE" cx="345.562" cy="464.965" rx="2.075" ry="2.119"/>
	<ellipse display="inline" fill="#A2AEAE" cx="338.923" cy="463.363" rx="2.074" ry="2.119"/>
	<ellipse display="inline" fill="#A2AEAE" cx="332.539" cy="460.949" rx="2.072" ry="2.119"/>
	<ellipse display="inline" fill="#A2AEAE" cx="326.057" cy="457.881" rx="2.075" ry="2.121"/>
	<ellipse display="inline" fill="#A2AEAE" cx="320.318" cy="454.578" rx="2.076" ry="2.121"/>
	<ellipse display="inline" fill="#A2AEAE" cx="314.55" cy="450.113" rx="2.075" ry="2.119"/>
	<path display="inline" fill="#A2AEAE" d="M262.68,441.752c5.732,4.952,12.141,9.688,19.301,11.505l-8.23,10.075l-17.411,2.749
		l-0.9-1.784C257.877,456.602,261.727,449.683,262.68,441.752z"/>
	<path display="inline" fill="#727272" d="M374.811,469.271c0,0,4.526,2.658,4.179,8.336c-0.187,3.061-12.356,6.861-28.027,8.512
		c-13.385,1.406-30.644,0.887-30.644,0.887s6.159-5.186,9.748-10.947c2.745-4.402,3.24-9.428,2.787-11.043
		c0,0,3.537,4.535,15.376,4.893c0,0-7.077,6.932-4.292,9.416c2.784,2.48,5.564-0.397,8.009-2.722c0,0,1.571-1.152,4.876-1.948
		c3.479-0.843,8.771-1.344,11.779-2.07C374.462,471.164,374.811,469.271,374.811,469.271z"/>
	<path display="inline" fill="#A2AEAE" d="M293.629,453.613c1.547-0.231,3.115-0.562,4.678-0.979
		c0.283,1.619,1.136,3.192,3.252,3.832c2.396,0.729,6.077-0.046,9.271,0.213c3.598,0.292,6.621,1.597,7.398,2.129
		c1.302,0.894,1.959,2.363,4.005,3.369c2.211,1.088,5.68,0.831,7.746,1.598c2.654,0.979,2.874,1.238,2.874,1.238
		s4.7,18.089-12.535,21.99c-18.89-2.129-33.167-2.395-33.167-2.395s-3.74-8.688-0.781-16.669
		C288.554,462.05,289.893,458.379,293.629,453.613z"/>
	<path display="inline" fill="#CAD7D7" d="M255.832,463.07c1.249-0.018,3.503-0.414,6.251-2.576
		c3.234-2.547,7.263-6.547,11.616-10.671c4.427,2.515,9.18,4.198,14.282,4.221c1.755,0.008,3.614-0.132,5.517-0.409
		c-0.361,0.5-0.713,1.011-1.04,1.537c-5.262,8.501-7.351,20.256-5.309,29.439c0,0-28.464-0.088-31.337-2.748
		c-0.47-4.783-0.779-11.698-0.934-15.698C255.173,465.119,255.489,464.087,255.832,463.07z"/>
	<g display="inline">
		<path fill="#A2AEAE" d="M322.921,452.458v0.004l1.541,5.841c0.25,0.958,1.184,1.535,2.078,1.291
			c0.897-0.244,1.422-1.221,1.166-2.181c0,0-0.309-1.313-0.635-2.636C325.559,453.99,324.185,453.228,322.921,452.458z"/>
	</g>
	<g display="inline">
		<path fill="#A2AEAE" d="M329.529,456.016l1.297,5.257c0.234,0.962,1.157,1.555,2.061,1.322c0.902-0.229,1.438-1.194,1.202-2.161
			c0,0-0.286-1.309-0.593-2.631c-0.738-0.285-1.428-0.566-2.033-0.854C330.792,456.629,330.148,456.32,329.529,456.016z"/>
	</g>
	<g display="inline">
		<path fill="#A2AEAE" d="M335.652,458.59l1.65,5.121c0.304,0.941,1.266,1.466,2.146,1.17c0.887-0.293,1.354-1.297,1.05-2.24
			c0,0-0.378-1.309-0.779-2.615C338.379,459.526,336.982,459.055,335.652,458.59z"/>
	</g>
	<g display="inline">
		<path fill="#A2AEAE" d="M342.087,460.949l1.909,4.461c0.386,0.912,1.392,1.34,2.242,0.965c0.852-0.381,1.229-1.422,0.84-2.33
			c0,0-0.249-0.629-0.576-1.443h-0.003L342.087,460.949z"/>
	</g>
	<g display="inline">
		<path fill="#A2AEAE" d="M317.185,449.18l1.577,5.828c0.257,0.957,1.194,1.527,2.089,1.279c0.896-0.25,1.415-1.229,1.152-2.188
			c0,0-0.315-1.314-0.654-2.639c-1.51-1-2.881-2.039-4.186-3.178C317.099,448.566,317.101,448.876,317.185,449.18z"/>
	</g>
	<g display="inline">
		<path fill="#A2AEAE" d="M313.337,444.435c0.728,0.845,1.571,1.751,2.58,2.716c0.164,1.266,0.303,2.451,0.303,2.451
			c0.143,0.982-0.488,1.894-1.408,2.029c-0.913,0.138-1.773-0.547-1.916-1.528l-0.665-4.581
			C312.616,445.171,312.982,444.806,313.337,444.435z"/>
	</g>
</g>
<g>
	<path fill="#EDEDED" d="M122.173,473.423c1.788-4.134,32.464-2.604,34.396-3.337c1.934-0.734,3.231-1.367,3.231-1.367l1.6-1.018
		c0,0,28.062-15.127,29.416-15.127s18.979,16.229,36.305,11.828c10.629-2.701,7.729-4.95,9.471-4.77
		c1.738,0.186,3.32-3.352,5.447-1.885c2.126,1.467,3.022,26.374,3.022,26.374l-48.48,0.262l-37.499,1.649l-36.531-7.333
		c0,0-0.965-1.833,0.193-2.567C123.904,475.403,121.669,474.588,122.173,473.423z"/>
	<g>
		<path fill="#999999" d="M242.526,459.196c-1.182,0.659-14.541,8.732-24.533,10.695c-9.995,1.964-31.096-10.604-33.758-11.634
			c-2.665-1.024-1.401-4.452-1.401-4.452s2.294-2.893,3.895-3.183c1.602-0.291,22.958,13.643,29.579,12.862
			c6.616-0.781,17.799-7.939,20.353-9.47c2.557-1.526,4.729,2.092,4.729,2.092S243.707,458.535,242.526,459.196z"/>
	</g>
	<path fill="#999999" d="M180.752,463.537c0.171-1.4-0.866-2.74-2.314-2.992c-1.449-0.252-2.761,0.681-2.93,2.082
		c-0.17,1.402,0.867,2.741,2.314,2.993C179.271,465.87,180.582,464.938,180.752,463.537z"/>
	<path fill="#666666" d="M179.542,463.327c0.092-0.755-0.467-1.479-1.246-1.611c-0.78-0.136-1.486,0.366-1.577,1.121
		c-0.092,0.754,0.465,1.477,1.246,1.611C178.745,464.583,179.451,464.081,179.542,463.327z"/>
	<path fill="#E6E6E6" d="M179.066,459.336c-0.438-0.889-1.098-1.482-1.467-1.325l-3.728,1.582c-0.371,0.158-0.315,1.006,0.125,1.896
		l0,0c0.439,0.89,3.347,2.468,3.716,2.311l1.279-0.908C179.361,462.733,179.507,460.227,179.066,459.336L179.066,459.336z"/>
	<path fill="#999999" d="M186.888,461.084c0.169-1.401-0.868-2.741-2.315-2.992c-1.447-0.252-2.761,0.681-2.93,2.081
		c-0.17,1.401,0.867,2.741,2.316,2.992C185.406,463.417,186.718,462.485,186.888,461.084z"/>
	<path fill="#666666" d="M185.678,460.874c0.09-0.755-0.469-1.476-1.248-1.611c-0.779-0.135-1.486,0.366-1.578,1.121
		c-0.091,0.754,0.468,1.478,1.248,1.611C184.879,462.13,185.586,461.628,185.678,460.874z"/>
	<path fill="#E6E6E6" d="M185.201,456.883c-0.439-0.89-1.099-1.48-1.468-1.325l-3.729,1.582c-0.371,0.157-0.314,1.007,0.126,1.896
		l0,0c0.439,0.889,3.347,2.468,3.717,2.31l1.277-0.908C185.496,460.28,185.641,457.771,185.201,456.883L185.201,456.883z"/>
	<path fill="#999999" d="M174.654,466.265c0.172-1.399-0.864-2.739-2.314-2.99c-1.447-0.252-2.759,0.68-2.929,2.079
		c-0.169,1.401,0.866,2.741,2.315,2.992C173.174,468.597,174.485,467.666,174.654,466.265z"/>
	<path fill="#666666" d="M173.445,466.055c0.092-0.756-0.467-1.477-1.247-1.61c-0.779-0.137-1.486,0.366-1.577,1.121
		c-0.092,0.755,0.467,1.477,1.247,1.609C172.647,467.311,173.354,466.809,173.445,466.055z"/>
	<path fill="#E6E6E6" d="M172.969,462.062c-0.438-0.89-1.097-1.481-1.467-1.324l-3.729,1.582c-0.369,0.155-0.313,1.006,0.127,1.895
		l0,0c0.439,0.892,3.348,2.469,3.717,2.312l1.277-0.907C173.265,465.46,173.409,462.953,172.969,462.062L172.969,462.062z"/>
	<path fill="#E6E6E6" d="M122.173,473.423c-0.195,1.331-2.524,13.527,0.583,15.522c3.106,1.994,20.006,7.981,37.098,8.426
		c17.093,0.443,63.32,0,63.32,0s16.704-0.223,19.617-1.331s2.918-12.782,2.918-12.782s0.389-1.382-1.36-2.269
		c-1.747-0.89-63.322,2.412-80.61,2.188C146.451,482.958,122.367,472.094,122.173,473.423z"/>
	<path fill="#999999" d="M122.075,474.588c0,0,19.658,8.542,35.278,10.092c15.62,1.554,88.286-0.092,88.286-0.092l-0.135,2.191
		c0,0-73.062,1.892-87.743,0.481c-14.683-1.407-36.094-11.03-36.094-11.03L122.075,474.588z"/>
</g>
<g>
	<path fill="#EDEDED" d="M378.625,473.311c-4.408-0.924-31.927-2.489-33.859-3.224c-1.933-0.733-3.229-1.367-3.229-1.367
		l-1.601-1.018c0,0-28.062-15.127-29.416-15.127c-1.354,0-18.979,16.229-36.305,11.828c-10.629-2.701-7.73-4.95-9.471-4.77
		c-1.738,0.186-3.32-3.352-5.447-1.885c-2.126,1.467-1.722,6.585-2.109,8.785c-0.387,2.2-1.492,17.274-1.492,17.274l49.062,0.574
		l37.499,1.649l36.531-7.333c0,0,0.965-1.833-0.193-2.567C377.432,475.403,379.163,473.423,378.625,473.311z"/>
	<g>
		<path fill="#999999" d="M258.811,459.196c1.183,0.659,14.541,8.732,24.533,10.695c9.995,1.964,31.096-10.604,33.757-11.634
			c2.665-1.024,1.402-4.452,1.402-4.452s-2.294-2.893-3.896-3.183c-1.602-0.291-22.958,13.643-29.579,12.862
			c-6.615-0.781-17.799-7.939-20.353-9.47c-2.557-1.526-4.729,2.092-4.729,2.092S257.629,458.535,258.811,459.196z"/>
	</g>
	<path fill="#999999" d="M320.584,463.537c-0.171-1.4,0.866-2.74,2.313-2.992c1.448-0.252,2.762,0.681,2.931,2.082
		c0.17,1.402-0.867,2.741-2.315,2.993C322.064,465.87,320.754,464.938,320.584,463.537z"/>
	<path fill="#666666" d="M321.794,463.327c-0.092-0.755,0.467-1.479,1.246-1.611c0.779-0.136,1.485,0.366,1.577,1.121
		c0.092,0.754-0.466,1.477-1.246,1.611S321.885,464.081,321.794,463.327z"/>
	<path fill="#E6E6E6" d="M322.27,459.336c0.439-0.889,1.1-1.482,1.468-1.325l3.729,1.582c0.371,0.158,0.314,1.006-0.125,1.896l0,0
		c-0.439,0.89-3.347,2.468-3.716,2.311l-1.279-0.908C321.975,462.733,321.829,460.227,322.27,459.336L322.27,459.336z"/>
	<path fill="#999999" d="M314.448,461.084c-0.169-1.401,0.868-2.741,2.315-2.992c1.448-0.252,2.762,0.681,2.931,2.081
		c0.17,1.401-0.866,2.741-2.315,2.992C315.93,463.417,314.618,462.485,314.448,461.084z"/>
	<path fill="#666666" d="M315.658,460.874c-0.091-0.755,0.469-1.476,1.247-1.611c0.778-0.135,1.485,0.366,1.578,1.121
		c0.092,0.754-0.469,1.478-1.248,1.611C316.457,462.129,315.75,461.628,315.658,460.874z"/>
	<path fill="#E6E6E6" d="M316.135,456.883c0.439-0.89,1.099-1.48,1.467-1.325l3.729,1.582c0.371,0.157,0.312,1.007-0.126,1.896l0,0
		c-0.44,0.889-3.348,2.468-3.718,2.31l-1.276-0.908C315.84,460.28,315.695,457.771,316.135,456.883L316.135,456.883z"/>
	<path fill="#999999" d="M326.682,466.265c-0.171-1.399,0.865-2.739,2.315-2.99c1.446-0.252,2.759,0.68,2.929,2.079
		c0.169,1.401-0.867,2.741-2.315,2.992C328.163,468.597,326.852,467.666,326.682,466.265z"/>
	<path fill="#666666" d="M327.891,466.055c-0.091-0.756,0.468-1.477,1.247-1.61c0.78-0.137,1.487,0.366,1.578,1.121
		s-0.467,1.477-1.247,1.609C328.688,467.311,327.982,466.809,327.891,466.055z"/>
	<path fill="#E6E6E6" d="M328.367,462.062c0.438-0.89,1.097-1.481,1.467-1.324l3.729,1.582c0.369,0.155,0.314,1.006-0.127,1.895l0,0
		c-0.438,0.892-3.347,2.469-3.716,2.312l-1.277-0.907C328.071,465.46,327.927,462.953,328.367,462.062L328.367,462.062z"/>
	<path fill="#E6E6E6" d="M379.163,473.423c0.193,1.331,2.523,13.527-0.583,15.522c-3.107,1.994-20.007,7.981-37.099,8.426
		c-17.094,0.443-63.319,0-63.319,0s-16.704-0.223-19.617-1.331s-2.918-12.782-2.918-12.782s-0.39-1.382,1.358-2.269
		c1.748-0.89,63.322,2.412,80.61,2.188C354.885,482.958,378.969,472.094,379.163,473.423z"/>
	<path fill="#999999" d="M379.261,474.588c0,0-19.659,8.542-35.278,10.092c-15.62,1.554-88.286-0.092-88.286-0.092l0.136,2.191
		c0,0,73.062,1.892,87.742,0.481c14.684-1.407,36.095-11.03,36.095-11.03L379.261,474.588z"/>
</g>
</svg>
