<?xml version="1.0" encoding="utf-8"?>
<!-- Generator: Adobe Illustrator 16.0.1, SVG Export Plug-In . SVG Version: 6.00 Build 0)  -->
<!DOCTYPE svg PUBLIC "-//W3C//DTD SVG 1.1//EN" "http://www.w3.org/Graphics/SVG/1.1/DTD/svg11.dtd">
<svg version="1.1" id="content" xmlns="http://www.w3.org/2000/svg" xmlns:xlink="http://www.w3.org/1999/xlink" x="0px" y="0px"
	 width="500px" height="500px" viewBox="0 0 500 500" enable-background="new 0 0 500 500" xml:space="preserve">
<rect id="position" x="0" display="none" fill="none" stroke="#000000" width="500" height="500"/>
<g id="bounds" display="none">
	<rect x="0.2" y="80.2" display="inline" fill="none" stroke="#EAEAEA" stroke-miterlimit="10" width="499.492" height="499.5"/>
</g>
<path display="none" fill="#1D1D1B" d="M179.2,273.768c-31.282,3.606-63.491,9.662-90.294,17.018
	c2.498,0.387,5.043,0.738,7.625,1.076c42.96-10.815,87.029-15.616,87.029-15.616S190.507,273.096,179.2,273.768z M24.073,268.497
	c0.67,0.532,1.38,1.058,2.104,1.58c74.05-10.993,138.317-9.017,138.317-9.017s11.942-2.226,2.834-3.115
	C125.687,256.977,71.38,260.768,24.073,268.497z M156.043,268.104c-34.294,1.75-72.922,6.438-107.037,13.111
	c1.583,0.557,3.215,1.094,4.893,1.624c53.683-9.628,103.082-11.836,103.082-11.836S166.73,268.186,156.043,268.104z"/>
<path display="none" fill="#1D1D1B" d="M305.082,276.244c0,0,44.069,4.801,87.027,15.617c2.581-0.34,5.127-0.69,7.624-1.077
	c-26.805-7.354-59.013-13.41-90.292-17.019C298.132,273.096,305.082,276.244,305.082,276.244z M321.313,257.945
	c-9.11,0.891,2.836,3.115,2.836,3.115s64.269-1.978,138.317,9.017c0.722-0.522,1.433-1.048,2.103-1.58
	C417.265,260.768,362.956,256.977,321.313,257.945z M331.662,271.004c0,0,49.398,2.208,103.081,11.836
	c1.677-0.529,3.312-1.068,4.892-1.624c-34.115-6.674-72.742-11.36-107.037-13.11C321.913,268.186,331.662,271.004,331.662,271.004z"
	/>
<g>
	<path fill="#1A1A1A" d="M224.863,285.059c-1.423-0.158-35.245-3.961-70.708-12.52c-50.533-12.195-77.11-27.26-81.251-46.055
		c-1.956-8.874,0.562-18.372,7.48-28.23c21.762-31.01,83.881-60.33,113.541-64.21c46.916-6.122,192.438,78.463,197.607,81.443
		l-30.48-2.647c-34.085-19.653-136.524-75.968-171.632-71.389c-26.756,3.5-85.766,40.94-108.082,64.85
		c-7.565,8.106-1.625,19.394-0.541,24.318c1.291,5.857,14.391,17.899,74.577,32.425c34.619,8.354,70.677,8.21,71.017,8.248
		L224.863,285.059z"/>
</g>
<path d="M427.739,256.019c0,44.171-41.611,111.323-104.029,110.242c-52.371-0.906-102.407-35.808-102.407-79.979
	c0-44.171,55.663-67.011,113.486-72.956c14.59-1.5,28.346-1.099,40.53-0.54C406.646,214.223,427.739,224.217,427.739,256.019z"/>
</svg>
