<?xml version="1.0" encoding="utf-8"?>
<!-- Generator: Adobe Illustrator 16.0.1, SVG Export Plug-In . SVG Version: 6.00 Build 0)  -->
<!DOCTYPE svg PUBLIC "-//W3C//DTD SVG 1.1//EN" "http://www.w3.org/Graphics/SVG/1.1/DTD/svg11.dtd">
<svg version="1.1" xmlns="http://www.w3.org/2000/svg" xmlns:xlink="http://www.w3.org/1999/xlink" x="0px" y="0px" width="500px"
	 height="500px" viewBox="0 0 500 500" enable-background="new 0 0 500 500" xml:space="preserve">
<g id="avatar">
</g>
<g id="robot">
	<g>
		<path fill="#F7F7F7" d="M164.925,72.809l-0.488,0.231v44.291l3.377-0.012l3.956,5.769h59.661c5.678,0,7.352-2.651,8.696-6.644
			c2.208-6.562,5.427-15.739,12.019-15.739c6.59,0,9.809,9.177,12.018,15.739c1.343,3.992,3.016,6.644,8.694,6.644h59.661
			l3.956-5.769l3.38,0.012L339.85,73.04l-0.698-0.332L164.925,72.809z M229.536,110.774c0,3.088-2.279,5.589-5.095,5.589h-43.089
			c-2.815,0-5.095-2.5-5.095-5.589V84.358c0-3.088,2.279-5.589,5.095-5.589h43.089c2.815,0,5.095,2.501,5.095,5.589V110.774z
			 M328.03,110.774c0,3.085-2.28,5.589-5.092,5.589h-43.092c-2.814,0-5.094-2.504-5.094-5.589V84.358
			c0-3.088,2.279-5.589,5.094-5.589h43.092c2.812,0,5.092,2.501,5.092,5.589V110.774z"/>
		<path fill="#F0F0F0" d="M164.437,73.04v44.804l3.377-0.013l3.956,5.769h59.661c5.678,0,7.352-2.651,8.696-6.643
			c2.208-6.562,5.427-15.738,12.019-15.738c6.59,0,9.809,9.176,12.018,15.738c1.343,3.992,3.016,6.643,8.694,6.643h59.661
			l3.956-5.769l3.38,0.013V73.04H164.437z M229.536,111.288c0,3.087-2.279,5.589-5.095,5.589h-43.089
			c-2.815,0-5.095-2.501-5.095-5.589V84.871c0-3.088,2.279-5.589,5.095-5.589h43.089c2.815,0,5.095,2.501,5.095,5.589V111.288z
			 M328.03,111.288c0,3.084-2.28,5.589-5.092,5.589h-43.092c-2.814,0-5.094-2.504-5.094-5.589V84.871
			c0-3.088,2.279-5.589,5.094-5.589h43.092c2.812,0,5.092,2.501,5.092,5.589V111.288z"/>
		<linearGradient id="SVGID_1_" gradientUnits="userSpaceOnUse" x1="176.2573" y1="98.0791" x2="229.5356" y2="98.0791">
			<stop  offset="0" style="stop-color:#00447F"/>
			<stop  offset="1" style="stop-color:#0090D4"/>
		</linearGradient>
		<path opacity="0.9" fill="url(#SVGID_1_)" d="M229.536,84.871v26.417c0,3.087-2.279,5.589-5.095,5.589h-43.089
			c-2.815,0-5.095-2.501-5.095-5.589V84.871c0-3.088,2.279-5.589,5.095-5.589h43.089C227.256,79.282,229.536,81.783,229.536,84.871z
			"/>
		<g opacity="0.9">
			<linearGradient id="SVGID_2_" gradientUnits="userSpaceOnUse" x1="274.7524" y1="98.0791" x2="328.0303" y2="98.0791">
				<stop  offset="0" style="stop-color:#D40006"/>
				<stop  offset="1" style="stop-color:#7F0F00"/>
			</linearGradient>
			<path fill="url(#SVGID_2_)" d="M328.03,84.871v26.417c0,3.084-2.28,5.589-5.092,5.589h-43.092c-2.814,0-5.094-2.504-5.094-5.589
				V84.871c0-3.088,2.279-5.589,5.094-5.589h43.092C325.75,79.282,328.03,81.783,328.03,84.871z"/>
		</g>
	</g>
</g>
</svg>
