<?xml version="1.0" encoding="utf-8"?>
<!-- Generator: Adobe Illustrator 16.0.1, SVG Export Plug-In . SVG Version: 6.00 Build 0)  -->
<!DOCTYPE svg PUBLIC "-//W3C//DTD SVG 1.1//EN" "http://www.w3.org/Graphics/SVG/1.1/DTD/svg11.dtd">
<svg version="1.1" xmlns="http://www.w3.org/2000/svg" xmlns:xlink="http://www.w3.org/1999/xlink" x="0px" y="0px" width="500px"
	 height="500px" viewBox="0 0 500 500" enable-background="new 0 0 500 500" xml:space="preserve">
<g id="avatar">
</g>
<g id="clothes">
	<g>
		<path fill="#C1C0BF" d="M271.534,78.139l-1.091,0.097c-13.764,1.217-23.904,1.217-37.667,0l-1.09-0.097l0.113-1.447l1.092,0.097
			c13.05,1.156,24.39,1.156,37.441,0l1.091-0.097L271.534,78.139z"/>
		<path fill="#495577" d="M202.931,78.618c-11.514,3.81-16.408,12.574-12.693,29.027c4.478,19.834,22.404,22.473,36.838,12.388
			c9.067-6.334,15.497-15.625,17.29-26.956c1.115-7.041-0.691-13.44-11.33-15.011C221.494,76.364,207.909,76.972,202.931,78.618z"/>
		
			<linearGradient id="SVGID_1_" gradientUnits="userSpaceOnUse" x1="216.5645" y1="191.895" x2="213.8497" y2="217.7236" gradientTransform="matrix(1 0 0 1 -0.1104 -95.2812)">
			<stop  offset="0" style="stop-color:#495577"/>
			<stop  offset="1" style="stop-color:#6476B3"/>
		</linearGradient>
		<path fill="url(#SVGID_1_)" d="M203.848,80.2c-10.669,3.529-15.207,11.652-11.763,26.9c4.149,18.38,20.763,20.824,34.139,11.48
			c8.402-5.87,14.361-14.482,16.023-24.981c1.03-6.526-0.642-12.455-10.5-13.911C221.049,78.109,208.46,78.673,203.848,80.2z"/>
		<path fill="#495577" d="M300.29,78.618c11.513,3.81,16.406,12.574,12.692,29.027c-4.478,19.834-22.405,22.473-36.837,12.388
			c-9.068-6.334-15.498-15.625-17.29-26.956c-1.115-7.041,0.693-13.44,11.331-15.011C281.727,76.364,295.312,76.972,300.29,78.618z"
			/>
		
			<linearGradient id="SVGID_2_" gradientUnits="userSpaceOnUse" x1="286.5361" y1="189.9414" x2="285.2313" y2="214.8365" gradientTransform="matrix(1 0 0 1 -0.1104 -95.2812)">
			<stop  offset="0" style="stop-color:#495577"/>
			<stop  offset="1" style="stop-color:#6476B3"/>
		</linearGradient>
		<path fill="url(#SVGID_2_)" d="M299.321,80.2c10.669,3.529,15.207,11.652,11.765,26.9c-4.151,18.38-20.764,20.824-34.141,11.48
			c-8.402-5.87-14.361-14.482-16.021-24.981c-1.032-6.526,0.64-12.455,10.499-13.911C282.121,78.109,294.709,78.673,299.321,80.2z"
			/>
		<g>
			<path fill="#C1C0BF" d="M203.158,79.308c-5.563,1.84-9.52,4.861-11.626,9.389c-2.13,4.579-2.407,10.729-0.588,18.791
				c0.876,3.872,2.269,7.064,4.051,9.615c2.425,3.472,5.578,5.76,9.119,6.954c3.557,1.198,7.518,1.299,11.54,0.392
				c3.706-0.837,7.464-2.53,11.009-5.006c4.556-3.183,8.435-7.125,11.375-11.708c2.806-4.376,4.754-9.333,5.614-14.769l0,0
				c0.531-3.363,0.376-6.558-1.162-9.066c-1.533-2.497-4.481-4.364-9.558-5.114c-5.443-0.802-11.335-1.089-16.548-0.994
				C210.63,77.895,205.714,78.462,203.158,79.308L203.158,79.308z M190.216,88.084c2.291-4.921,6.538-8.188,12.488-10.155
				c2.677-0.885,7.753-1.477,13.656-1.585c5.298-0.098,11.275,0.191,16.781,1.004c5.561,0.821,8.833,2.94,10.586,5.795
				c1.744,2.844,1.934,6.371,1.354,10.046v0.001c-0.892,5.641-2.914,10.786-5.824,15.324c-3.04,4.739-7.051,8.818-11.766,12.11
				c-3.702,2.588-7.633,4.355-11.519,5.232c-4.278,0.967-8.505,0.855-12.318-0.432c-3.828-1.289-7.233-3.757-9.846-7.497
				c-1.888-2.702-3.36-6.065-4.276-10.125C187.636,99.413,187.95,92.954,190.216,88.084z"/>
		</g>
		<g>
			<path fill="#C1C0BF" d="M300.062,79.308c5.562,1.84,9.519,4.861,11.626,9.389c2.131,4.579,2.408,10.729,0.585,18.791
				c-0.873,3.872-2.266,7.064-4.047,9.615c-2.426,3.472-5.578,5.76-9.12,6.954c-3.558,1.198-7.518,1.299-11.54,0.392
				c-3.707-0.837-7.465-2.53-11.009-5.006c-4.556-3.183-8.435-7.125-11.374-11.708c-2.806-4.376-4.755-9.333-5.614-14.769h-0.001
				c-0.532-3.363-0.375-6.558,1.161-9.066c1.534-2.497,4.482-4.364,9.56-5.114c5.442-0.802,11.333-1.089,16.547-0.994
				C292.59,77.895,297.506,78.462,300.062,79.308L300.062,79.308z M313.005,88.084c-2.291-4.921-6.539-8.188-12.49-10.155
				c-2.675-0.885-7.752-1.477-13.654-1.585c-5.299-0.098-11.275,0.191-16.782,1.004c-5.56,0.821-8.833,2.94-10.584,5.795
				c-1.745,2.844-1.935,6.371-1.354,10.046v0.001c0.894,5.641,2.913,10.786,5.823,15.324c3.041,4.739,7.053,8.818,11.768,12.11
				c3.701,2.588,7.633,4.355,11.519,5.232c4.277,0.967,8.504,0.855,12.317-0.432c3.83-1.289,7.234-3.757,9.846-7.497
				c1.887-2.702,3.361-6.065,4.276-10.125C315.584,99.413,315.27,92.954,313.005,88.084z"/>
		</g>
		<path fill="#C1C0BF" d="M257.27,88.214c-0.309-1.65-1.218-2.556-2.278-3.043c-1.905-0.878-5.063-0.877-6.968,0
			c-1.06,0.488-1.968,1.393-2.279,3.043l-1.109-0.334c0.42-2.226,1.613-3.432,2.999-4.071c2.155-0.992,5.594-0.992,7.748,0
			c1.386,0.638,2.578,1.845,2.998,4.071L257.27,88.214z"/>
		<path fill="#C1C0BF" d="M314.688,96.509h2.242c0.995,0,1.811,0.814,1.811,1.809v0.392c0,0.996-0.816,1.81-1.811,1.81h-2.242
			c-0.068,0-0.138-0.004-0.205-0.013V96.52C314.551,96.512,314.62,96.509,314.688,96.509z"/>
		<path fill="#949393" d="M318.698,99.094h-2.497c-0.767,0-0.767-1.16,0-1.16h2.497c0.029,0.124,0.044,0.253,0.044,0.384v0.392
			C318.74,98.84,318.727,98.97,318.698,99.094z"/>
		<path fill="#C1C0BF" d="M188.775,96.509h-2.241c-0.995,0-1.81,0.814-1.81,1.809v0.392c0,0.996,0.814,1.81,1.81,1.81h2.241
			c0.07,0,0.139-0.004,0.206-0.013V96.52C188.914,96.512,188.845,96.509,188.775,96.509z"/>
		<path fill="#949393" d="M184.766,99.094h2.5c0.766,0,0.766-1.16,0-1.16h-2.5c-0.026,0.124-0.041,0.253-0.041,0.384v0.392
			C184.724,98.84,184.74,98.97,184.766,99.094z"/>
		<path fill="#FFFFFF" d="M286.524,77.268c-5.629-0.102-11.167,0.201-16.777,0.516c2.651-0.392,5.411-0.662,8.155-0.825
			c2.957-0.179,5.894-0.23,8.649-0.18c2.954,0.053,5.703,0.229,8.044,0.5c4.84,0.562,9.446,1.983,13.315,5.088
			c2.109,1.692,3.759,3.756,4.914,6.235C306.929,78.94,297.418,77.336,286.524,77.268z"/>
		<path fill="#FFFFFF" d="M202.937,78.254c1.322-0.438,3.235-0.802,5.544-1.071c2.297-0.266,4.99-0.438,7.886-0.491
			c2.701-0.049,5.58,0.004,8.479,0.177c2.688,0.162,5.396,0.427,7.995,0.811c2.742,0.404,4.925,1.131,6.639,2.109
			c1.72,0.982,2.97,2.22,3.84,3.64c-3.003-3.125-5.648-4.266-8.659-4.896C224.195,76.348,212.611,76.946,202.937,78.254z"/>
	</g>
</g>
</svg>
