<?xml version="1.0" encoding="utf-8"?>
<!-- Generator: Adobe Illustrator 16.0.1, SVG Export Plug-In . SVG Version: 6.00 Build 0)  -->
<!DOCTYPE svg PUBLIC "-//W3C//DTD SVG 1.1//EN" "http://www.w3.org/Graphics/SVG/1.1/DTD/svg11.dtd">
<svg version="1.1" id="Layer_1" xmlns="http://www.w3.org/2000/svg" xmlns:xlink="http://www.w3.org/1999/xlink" x="0px" y="0px"
	 width="500px" height="500px" viewBox="0 0 500 500" enable-background="new 0 0 500 500" xml:space="preserve">
<g id="avatar">
</g>
<g>
	<path fill="#C1C0BF" d="M305.955,185.199l-3.038,0.271c-38.321,3.389-66.555,3.389-104.876,0l-3.036-0.271l0.314-4.027l3.041,0.268
		c36.336,3.217,67.91,3.217,104.247,0l3.038-0.268L305.955,185.199z"/>
	<path fill="#495577" d="M114.943,186.533c-32.058,10.605-45.683,35.01-35.34,80.82c12.467,55.224,62.38,62.57,102.566,34.492
		c25.245-17.637,43.149-43.506,48.139-75.053c3.103-19.605-1.925-37.421-31.545-41.796
		C166.626,180.257,128.802,181.95,114.943,186.533z"/>
	
		<linearGradient id="SVGID_1_" gradientUnits="userSpaceOnUse" x1="152.6516" y1="263.2205" x2="145.093" y2="191.3054" gradientTransform="matrix(1 0 0 -1 -0.0552 499.8589)">
		<stop  offset="0" style="stop-color:#495577"/>
		<stop  offset="1" style="stop-color:#6476B3"/>
	</linearGradient>
	<path fill="url(#SVGID_1_)" d="M117.494,190.937c-29.706,9.827-42.338,32.445-32.75,74.899
		c11.552,51.174,57.81,57.981,95.054,31.964c23.393-16.344,39.986-40.322,44.614-69.554c2.869-18.172-1.787-34.68-29.235-38.735
		C165.388,185.115,130.339,186.687,117.494,190.937z"/>
	<path fill="#495577" d="M386.019,186.533c32.055,10.605,45.68,35.01,35.337,80.82c-12.467,55.224-62.382,62.57-102.566,34.492
		c-25.247-17.637-43.148-43.506-48.138-75.053c-3.104-19.605,1.93-37.421,31.548-41.796
		C334.334,180.257,372.159,181.95,386.019,186.533z"/>
	
		<linearGradient id="SVGID_2_" gradientUnits="userSpaceOnUse" x1="347.4749" y1="268.6589" x2="343.8419" y2="199.343" gradientTransform="matrix(1 0 0 -1 -0.0552 499.8589)">
		<stop  offset="0" style="stop-color:#495577"/>
		<stop  offset="1" style="stop-color:#6476B3"/>
	</linearGradient>
	<path fill="url(#SVGID_2_)" d="M383.323,190.937c29.706,9.827,42.34,32.445,32.755,74.899
		c-11.558,51.174-57.812,57.981-95.057,31.964c-23.393-16.344-39.986-40.322-44.608-69.554c-2.874-18.172,1.782-34.68,29.232-38.735
		C335.43,185.115,370.482,186.687,383.323,190.937z"/>
	<g>
		<path fill="#C1C0BF" d="M115.574,188.455c-15.488,5.122-26.504,13.534-32.37,26.14c-5.931,12.749-6.701,29.875-1.636,52.319
			c2.438,10.779,6.316,19.668,11.279,26.77c6.753,9.668,15.529,16.036,25.391,19.36c9.903,3.337,20.93,3.618,32.13,1.09
			c10.319-2.331,20.784-7.044,30.653-13.938c12.684-8.862,23.486-19.839,31.67-32.599c7.812-12.182,13.235-25.986,15.631-41.12l0,0
			c1.48-9.365,1.048-18.258-3.236-25.243c-4.266-6.953-12.476-12.15-26.611-14.239c-15.155-2.234-31.561-3.033-46.075-2.768
			C136.379,184.52,122.692,186.099,115.574,188.455L115.574,188.455z M79.54,212.891c6.378-13.701,18.203-22.797,34.771-28.275
			c7.453-2.466,21.587-4.112,38.022-4.414c14.751-0.271,31.395,0.533,46.723,2.796c15.482,2.286,24.595,8.186,29.475,16.135
			c4.854,7.918,5.384,17.738,3.769,27.971v0.005c-2.484,15.706-8.113,30.029-16.216,42.666
			c-8.464,13.195-19.634,24.553-32.76,33.719c-10.306,7.206-21.252,12.127-32.071,14.567c-11.911,2.692-23.679,2.38-34.297-1.202
			c-10.66-3.59-20.139-10.461-27.415-20.875c-5.257-7.521-9.356-16.887-11.906-28.189C72.358,244.431,73.232,226.449,79.54,212.891z
			"/>
	</g>
	<g>
		<path fill="#C1C0BF" d="M385.386,188.455c15.488,5.122,26.502,13.534,32.37,26.14c5.934,12.749,6.703,29.875,1.631,52.319
			c-2.432,10.779-6.311,19.668-11.271,26.77c-6.752,9.668-15.529,16.036-25.391,19.36c-9.907,3.337-20.932,3.618-32.13,1.09
			c-10.321-2.331-20.784-7.044-30.653-13.938c-12.686-8.862-23.486-19.839-31.667-32.599c-7.813-12.182-13.24-25.986-15.633-41.12
			h-0.003c-1.48-9.365-1.043-18.258,3.233-25.243c4.271-6.953,12.48-12.15,26.618-14.239c15.152-2.234,31.556-3.033,46.073-2.768
			C364.582,184.52,378.267,186.099,385.386,188.455L385.386,188.455z M421.421,212.891c-6.378-13.701-18.206-22.797-34.775-28.275
			c-7.45-2.466-21.585-4.112-38.018-4.414c-14.754-0.271-31.392,0.533-46.726,2.796c-15.479,2.286-24.592,8.186-29.469,16.135
			c-4.859,7.918-5.388,17.738-3.772,27.971v0.005c2.489,15.706,8.111,30.029,16.214,42.666
			c8.467,13.195,19.639,24.553,32.765,33.719c10.304,7.206,21.252,12.127,32.07,14.567c11.909,2.692,23.68,2.38,34.295-1.202
			c10.662-3.59,20.142-10.461,27.414-20.875c5.255-7.521,9.359-16.887,11.906-28.189
			C428.603,244.431,427.729,226.449,421.421,212.891z"/>
	</g>
	<path fill="#C1C0BF" d="M266.238,213.253c-0.861-4.597-3.39-7.117-6.342-8.475c-5.304-2.445-14.099-2.442-19.403,0
		c-2.95,1.358-5.478,3.878-6.344,8.475l-3.088-0.932c1.168-6.199,4.49-9.557,8.35-11.336c5.999-2.763,15.574-2.763,21.572,0
		c3.86,1.776,7.177,5.137,8.348,11.336L266.238,213.253z"/>
	<path fill="#C1C0BF" d="M426.109,236.346h6.243c2.77,0,5.043,2.266,5.043,5.036v1.09c0,2.773-2.273,5.039-5.043,5.039h-6.243
		c-0.19,0-0.385-0.01-0.569-0.036v-11.097C425.726,236.357,425.918,236.346,426.109,236.346z"/>
	<path fill="#949393" d="M437.273,243.544h-6.953c-2.136,0-2.136-3.231,0-3.231h6.953c0.081,0.346,0.122,0.705,0.122,1.069v1.09
		C437.39,242.839,437.354,243.198,437.273,243.544z"/>
	<path fill="#C1C0BF" d="M75.529,236.346h-6.24c-2.771,0-5.039,2.266-5.039,5.036v1.09c0,2.773,2.268,5.039,5.039,5.039h6.24
		c0.195,0,0.385-0.01,0.572-0.036v-11.097C75.914,236.357,75.724,236.346,75.529,236.346z"/>
	<path fill="#949393" d="M64.367,243.544h6.958c2.133,0,2.133-3.231,0-3.231h-6.958c-0.073,0.346-0.115,0.705-0.115,1.069v1.09
		C64.25,242.839,64.294,243.198,64.367,243.544z"/>
	<path fill="#FFFFFF" d="M347.692,182.774c-15.672-0.283-31.092,0.562-46.713,1.436c7.383-1.09,15.066-1.842,22.707-2.297
		c8.232-0.497,16.408-0.643,24.082-0.502c8.225,0.148,15.878,0.637,22.398,1.394c13.478,1.566,26.301,5.522,37.075,14.164
		c5.874,4.713,10.465,10.459,13.681,17.363C404.505,187.428,378.025,182.964,347.692,182.774z"/>
	<path fill="#FFFFFF" d="M114.958,185.519c3.681-1.22,9.008-2.234,15.438-2.981c6.394-0.739,13.893-1.22,21.957-1.366
		c7.52-0.138,15.537,0.008,23.609,0.492c7.486,0.45,15.024,1.188,22.261,2.258c7.635,1.126,13.714,3.15,18.484,5.874
		c4.789,2.734,8.27,6.178,10.694,10.132c-8.363-8.701-15.727-11.877-24.111-13.63C174.149,180.212,141.894,181.877,114.958,185.519z
		"/>
</g>
<rect x="0" y="0" fill="none" width="500" height="500"/>
</svg>
