<?xml version="1.0" encoding="utf-8"?>
<!-- Generator: Adobe Illustrator 16.0.1, SVG Export Plug-In . SVG Version: 6.00 Build 0)  -->
<!DOCTYPE svg PUBLIC "-//W3C//DTD SVG 1.1//EN" "http://www.w3.org/Graphics/SVG/1.1/DTD/svg11.dtd">
<svg version="1.1" id="Layer_1" xmlns="http://www.w3.org/2000/svg" xmlns:xlink="http://www.w3.org/1999/xlink" x="0px" y="0px"
	 width="500px" height="500px" viewBox="0 0 500 500" enable-background="new 0 0 500 500" xml:space="preserve">
<g id="builder">
</g>
<g id="robot">
	<g>
		<path fill="#1D1D1B" d="M70.258,236.803c-2.549,0-4.659-2.104-4.659-4.659c0-2.552,2.11-4.657,4.659-4.657
			c2.549,0,4.662,2.104,4.662,4.657C74.92,234.698,72.898,236.803,70.258,236.803"/>
		<path fill="#1D1D1B" d="M429.913,236.803c-2.558,0-4.661-2.104-4.661-4.659c0-2.552,2.104-4.657,4.661-4.657
			c2.55,0,4.66,2.104,4.66,4.657C434.573,234.698,432.376,236.803,429.913,236.803"/>
		<path fill="#FFFFFF" d="M70.258,236.803c-2.549,0-4.659-2.104-4.659-4.659c0-2.552,2.11-4.657,4.659-4.657
			c2.549,0,4.662,2.104,4.662,4.657C74.92,234.698,72.898,236.803,70.258,236.803"/>
		<path fill="#FFFFFF" d="M429.913,236.803c-2.558,0-4.661-2.104-4.661-4.659c0-2.552,2.104-4.657,4.661-4.657
			c2.55,0,4.66,2.104,4.66,4.657C434.573,234.698,432.376,236.803,429.913,236.803"/>
	</g>
</g>
<g id="avatar">
	<circle fill="#5FA0C4" cx="249.78" cy="227.426" r="58.607"/>
	<path fill="#3F1111" d="M187.148,234.731c0,4.011-3.25,7.261-7.261,7.261h-6.307c-4.011,0-7.261-3.247-7.261-7.261v-14.61
		c0-4.008,3.25-7.261,7.261-7.261h6.307c4.011,0,7.261,3.253,7.261,7.261V234.731z"/>
	<path fill="#3F1111" d="M178.843,226.705c0,2.96-2.4,5.355-5.36,5.355h-22.204c-2.957,0-5.353-2.396-5.353-5.355l0,0
		c0-2.957,2.399-5.356,5.353-5.356h22.204C176.447,221.349,178.843,223.749,178.843,226.705L178.843,226.705z"/>
	<polygon opacity="0.25" fill="#FFFFFF" enable-background="new    " points="276.816,161.581 214.542,166.089 301.49,272.308 
		320.667,221.349 	"/>
	<path fill="#3F1111" d="M249.78,152.114c-41.592,0-75.312,33.717-75.312,75.309c0,41.592,33.717,75.313,75.312,75.313
		c41.592,0,75.313-33.721,75.313-75.313C325.093,185.83,291.372,152.114,249.78,152.114z M249.78,286.033
		c-32.365,0-58.604-26.241-58.604-58.607s26.239-58.604,58.604-58.604c32.368,0,58.607,26.238,58.607,58.604
		C308.391,259.792,282.152,286.033,249.78,286.033z"/>
	<path fill="#3F1111" d="M160.205,245.969v-14.145c0-2.429-2.196-4.402-4.898-4.402c-2.707,0-4.905,1.973-4.905,4.402v14.145
		c0,1.643,1.011,3.062,2.499,3.812c-1.488,0.757-2.499,2.168-2.499,3.815v14.145c0,1.648,1.024,3.069,2.526,3.824
		c-1.502,0.75-2.526,2.176-2.526,3.823v14.146c0,1.643,1.011,3.057,2.499,3.814c-1.488,0.753-2.499,2.169-2.499,3.811v14.145
		c0,1.499,0.837,2.817,2.108,3.611c-1.271,0.791-2.108,2.108-2.108,3.61v14.146c0,1.639,1.011,3.056,2.499,3.811
		c-1.488,0.754-2.499,2.169-2.499,3.812v14.143c0,1.652,1.024,3.074,2.526,3.829c-1.502,0.749-2.526,2.172-2.526,3.826v14.143
		c0,1.642,1.011,3.061,2.499,3.814c-1.488,0.753-2.499,2.169-2.499,3.814v14.145c0,2.43,2.195,4.402,4.905,4.402
		c2.706,0,4.898-1.973,4.898-4.402v-14.145c0-1.642-1.014-3.062-2.496-3.814c1.485-0.754,2.496-2.169,2.496-3.814v-14.143
		c0-1.651-1.024-3.073-2.526-3.826c1.502-0.755,2.526-2.177,2.526-3.829v-14.143c0-1.644-1.014-3.059-2.496-3.812
		c1.485-0.755,2.496-2.172,2.496-3.811v-14.146c0-1.498-0.837-2.815-2.112-3.61c1.275-0.794,2.112-2.112,2.112-3.611v-14.145
		c0-1.642-1.014-3.058-2.496-3.811c1.485-0.758,2.496-2.172,2.496-3.814v-14.146c0-1.647-1.024-3.073-2.526-3.823
		c1.502-0.755,2.526-2.176,2.526-3.824v-14.145c0-1.643-1.014-3.058-2.496-3.815C159.191,249.026,160.205,247.612,160.205,245.969z"
		/>
</g>
<rect x="0" y="0" fill="none" width="500" height="500"/>
</svg>
