<?xml version="1.0" encoding="utf-8"?>
<!-- Generator: Adobe Illustrator 16.0.1, SVG Export Plug-In . SVG Version: 6.00 Build 0)  -->
<!DOCTYPE svg PUBLIC "-//W3C//DTD SVG 1.1//EN" "http://www.w3.org/Graphics/SVG/1.1/DTD/svg11.dtd">
<svg version="1.1" xmlns="http://www.w3.org/2000/svg" xmlns:xlink="http://www.w3.org/1999/xlink" x="0px" y="0px" width="500px"
	 height="500px" viewBox="0 0 500 500" enable-background="new 0 0 500 500" xml:space="preserve">
<g id="avatar">
	<circle fill="#5FA0C4" cx="218.563" cy="95.2" r="17.151"/>
	<path fill="#3F1111" d="M200.234,97.338c0,1.173-0.952,2.125-2.125,2.125h-1.846c-1.174,0-2.125-0.951-2.125-2.125v-4.276
		c0-1.173,0.951-2.125,2.125-2.125h1.846c1.173,0,2.125,0.952,2.125,2.125V97.338z"/>
	<path fill="#3F1111" d="M197.803,94.989c0,0.866-0.702,1.567-1.568,1.567h-6.498c-0.866,0-1.567-0.701-1.567-1.567l0,0
		c0-0.865,0.702-1.567,1.567-1.567h6.498C197.102,93.422,197.803,94.124,197.803,94.989L197.803,94.989z"/>
	<polygon opacity="0.25" fill="#FFFFFF" points="226.475,75.93 208.25,77.25 233.696,108.335 239.308,93.422 	"/>
	<path fill="#3F1111" d="M218.563,73.16c-12.172,0-22.04,9.867-22.04,22.039c0,12.172,9.867,22.04,22.04,22.04
		c12.172,0,22.04-9.868,22.04-22.04C240.603,83.027,230.735,73.16,218.563,73.16z M218.563,112.351
		c-9.472,0-17.151-7.679-17.151-17.151c0-9.472,7.679-17.15,17.151-17.15s17.151,7.678,17.151,17.15
		C235.715,104.672,228.036,112.351,218.563,112.351z"/>
	<path fill="#3F1111" d="M192.349,100.627v-4.14c0-0.711-0.643-1.288-1.434-1.288c-0.792,0-1.435,0.577-1.435,1.288v4.14
		c0,0.48,0.296,0.895,0.731,1.115c-0.435,0.222-0.731,0.635-0.731,1.116v4.14c0,0.482,0.3,0.898,0.739,1.119
		c-0.439,0.22-0.739,0.637-0.739,1.119v4.14c0,0.48,0.296,0.894,0.731,1.116c-0.435,0.221-0.731,0.635-0.731,1.115v4.14
		c0,0.438,0.245,0.824,0.617,1.056c-0.372,0.232-0.617,0.618-0.617,1.057V126c0,0.479,0.296,0.894,0.731,1.115
		c-0.435,0.221-0.731,0.635-0.731,1.116v4.139c0,0.483,0.3,0.899,0.739,1.12c-0.439,0.22-0.739,0.636-0.739,1.12v4.139
		c0,0.48,0.296,0.895,0.731,1.116c-0.435,0.221-0.731,0.635-0.731,1.116v4.14c0,0.711,0.642,1.288,1.435,1.288
		c0.792,0,1.434-0.577,1.434-1.288v-4.14c0-0.48-0.297-0.895-0.731-1.116c0.435-0.221,0.731-0.635,0.731-1.116v-4.139
		c0-0.483-0.3-0.899-0.739-1.12c0.439-0.221,0.739-0.637,0.739-1.12v-4.139c0-0.481-0.297-0.895-0.731-1.116
		c0.435-0.221,0.731-0.636,0.731-1.115v-4.14c0-0.438-0.245-0.824-0.618-1.057c0.373-0.232,0.618-0.618,0.618-1.056v-4.14
		c0-0.48-0.297-0.894-0.731-1.115c0.435-0.222,0.731-0.636,0.731-1.116v-4.14c0-0.482-0.3-0.899-0.739-1.119
		c0.439-0.221,0.739-0.637,0.739-1.119v-4.14c0-0.48-0.297-0.894-0.731-1.116C192.052,101.521,192.349,101.107,192.349,100.627z"/>
</g>
<g id="builder">
</g>
</svg>
