<?xml version="1.0" encoding="utf-8"?>
<!-- Generator: Adobe Illustrator 16.0.1, SVG Export Plug-In . SVG Version: 6.00 Build 0)  -->
<!DOCTYPE svg PUBLIC "-//W3C//DTD SVG 1.1//EN" "http://www.w3.org/Graphics/SVG/1.1/DTD/svg11.dtd">
<svg version="1.1" id="Layer_1" xmlns="http://www.w3.org/2000/svg" xmlns:xlink="http://www.w3.org/1999/xlink" x="0px" y="0px"
	 width="500px" height="500px" viewBox="0 0 500 500" enable-background="new 0 0 500 500" xml:space="preserve">
<g id="avatar">
</g>
<g id="robot">
	<g>
		<path fill="#1D1D1B" d="M188.543,95.376c-0.885,0-1.617-0.731-1.617-1.617s0.732-1.617,1.617-1.617s1.618,0.731,1.618,1.617
			S189.459,95.376,188.543,95.376"/>
		<path fill="#1D1D1B" d="M317.097,95.01v-2.839l0,0c0,0,0.214-2.594-3.113-2.594h-5.006c0,0-2.38,0.122-2.838-1.16v0.093
			c-3.388-9.92-12.788-17.122-23.867-17.122c-10.896,0-20.174,6.928-23.684,16.603c-0.092,0.245-0.244,0.733-0.642,0.855
			c-0.396,0.122-0.945-0.185-1.189-0.306c-1.862-1.007-3.388-1.647-5.83-1.647c-2.411,0-3.938,0.58-5.829,1.647
			c-0.244,0.122-0.794,0.396-1.189,0.306c-0.397-0.093-0.55-0.58-0.642-0.855c-3.51-9.675-12.819-16.603-23.745-16.603
			c-11.079,0-20.51,7.172-23.867,17.122v-0.093c-0.458,1.282-2.838,1.16-2.838,1.16h-4.944c-3.266,0-3.113,2.594-3.113,2.594v2.839
			c0,0-0.214,2.594,3.113,2.594h1.983c0,0,3.876,0,4.976,3.938v-0.03c2.258,11.628,12.482,20.388,24.752,20.388
			c13.917,0,25.271-11.293,25.271-25.271c0-2.898,2.351-5.25,6.104-5.25c3.724,0,6.104,2.351,6.104,5.25
			c0,13.979,11.292,25.271,25.271,25.271c12.27,0,22.494-8.791,24.782-20.388v0.03c1.068-3.938,4.976-3.938,4.976-3.938h1.984
			C317.311,97.604,317.097,95.01,317.097,95.01z M219.644,115.185c-10.225,0-18.496-8.271-18.496-18.496s8.271-18.496,18.496-18.496
			s18.496,8.241,18.496,18.465S229.868,115.185,219.644,115.185z M282.304,115.185c-10.225,0-18.496-8.271-18.496-18.496
			s8.271-18.496,18.496-18.496c10.224,0,18.496,8.271,18.496,18.496C300.799,106.914,292.528,115.185,282.304,115.185z"/>
		<path fill="#1D1D1B" d="M313.374,95.376c-0.887,0-1.618-0.731-1.618-1.617s0.731-1.617,1.618-1.617
			c0.885,0,1.617,0.731,1.617,1.617S314.229,95.376,313.374,95.376"/>
		<path fill="#FFFFFF" d="M188.543,95.376c-0.885,0-1.617-0.731-1.617-1.617s0.732-1.617,1.617-1.617s1.618,0.731,1.618,1.617
			S189.459,95.376,188.543,95.376"/>
		<path fill="#FFFFFF" d="M313.374,95.376c-0.887,0-1.618-0.731-1.618-1.617s0.731-1.617,1.618-1.617
			c0.885,0,1.617,0.731,1.617,1.617S314.229,95.376,313.374,95.376"/>
	</g>
</g>
<path opacity="0.5" fill="#A8A8A7" d="M302.616,90.078c-0.416,0-0.805-0.262-0.946-0.677c-2.78-8.142-10.404-13.612-18.972-13.612
	c-0.553,0-1-0.448-1-1s0.447-1,1-1c9.423,0,17.808,6.014,20.864,14.966c0.179,0.523-0.101,1.091-0.623,1.27
	C302.832,90.061,302.724,90.078,302.616,90.078z"/>
<path opacity="0.5" fill="#A8A8A7" d="M239.469,90.078c-0.416,0-0.805-0.262-0.946-0.677c-2.78-8.142-10.404-13.612-18.972-13.612
	c-0.553,0-1-0.448-1-1s0.447-1,1-1c9.423,0,17.808,6.014,20.864,14.966c0.179,0.523-0.101,1.091-0.623,1.27
	C239.684,90.061,239.576,90.078,239.469,90.078z"/>
</svg>
