<?xml version="1.0" encoding="utf-8"?>
<!-- Generator: Adobe Illustrator 16.0.1, SVG Export Plug-In . SVG Version: 6.00 Build 0)  -->
<!DOCTYPE svg PUBLIC "-//W3C//DTD SVG 1.1//EN" "http://www.w3.org/Graphics/SVG/1.1/DTD/svg11.dtd">
<svg version="1.1" id="Layer_1" xmlns="http://www.w3.org/2000/svg" xmlns:xlink="http://www.w3.org/1999/xlink" x="0px" y="0px"
	 width="500px" height="500px" viewBox="0 0 500 500" enable-background="new 0 0 500 500" xml:space="preserve">
<g id="avatar">
</g>
<g id="robot">
	<g>
		<rect x="60.194" y="216.872" fill="#6E6E6E" width="16.097" height="31.667"/>
		<rect x="420.405" y="216.872" fill="#6E6E6E" width="16.096" height="31.667"/>
		<g>
			
				<linearGradient id="SVGID_1_" gradientUnits="userSpaceOnUse" x1="79.7961" y1="266.4412" x2="419.0061" y2="266.4412" gradientTransform="matrix(1 0 0 -1 -0.0552 499.8589)">
				<stop  offset="0" style="stop-color:#171513"/>
				<stop  offset="1" style="stop-color:#4F4E4E"/>
			</linearGradient>
			<path opacity="0.85" fill="url(#SVGID_1_)" enable-background="new    " d="M372.963,295.097
				c-38.377,15.511-59.092,18.646-79.803-8.91c-20.711-27.555-39.563-28.213-42.681-28.213c-3.114,0-24.235,0.66-44.952,28.213
				c-20.712,27.559-41.424,24.421-79.805,8.91c-38.377-15.51-45.981-39.931-45.981-71.283c0-33.331,9.5-49.669,51.115-56.601
				c47.877-8.912,119.625-7.091,119.625-7.091s69.471-1.821,117.361,7.091c41.609,6.935,51.108,23.272,51.108,56.601
				C418.944,255.165,411.346,279.588,372.963,295.097z"/>
			<path opacity="0.12" fill="#CF6600" enable-background="new    " d="M99.961,203.316c-0.037,0.083-0.047,0.127-0.047,0.127
				C99.927,203.399,99.946,203.36,99.961,203.316z"/>
			<path opacity="0.12" fill="#CF6600" enable-background="new    " d="M402.347,203.316c0.015,0.046,0.036,0.084,0.042,0.127
				C402.396,203.448,402.376,203.397,402.347,203.316z"/>
			<path opacity="0.3" fill="#495860" enable-background="new    " d="M251.301,162.465c0,0-144.457-14.425-164.332,40.854
				c0.95-2.257,17.192-34.679,164.332-31.674c147.145-3.004,163.389,29.415,164.335,31.674
				C395.762,148.037,251.301,162.465,251.301,162.465z"/>
			<path fill="#EFEFEF" d="M408.075,170.666c-20.846-11.39-62.733-22.519-159.435-22.519c-96.692,0-137.182,11.125-158.026,22.519
				c-20.85,11.404-16.499,40.788-14.323,77.874c2.179,37.089,30.101,49.612,60.917,69.682c30.82,20.076,56.197,14.13,74.69-10.918
				c18.491-25.039,38.539-23.602,38.539-23.602s17.874-1.447,36.364,23.602c18.491,25.048,43.871,30.994,74.689,10.918
				c30.818-20.07,58.739-32.593,60.914-69.682C424.573,211.45,428.918,182.069,408.075,170.666z M365.698,291.471
				c-36.123,14.601-55.618,17.547-75.114-8.38c-19.496-25.945-33.098-26.56-40.172-26.56s-22.813,0.625-42.313,26.56
				c-19.496,25.936-38.986,22.984-75.115,8.38C96.857,276.871,89.7,253.882,89.7,224.373c0-31.37,8.944-46.749,48.109-53.273
				c45.068-8.387,112.602-6.685,112.602-6.685s65.391-1.708,110.448,6.685c39.166,6.522,48.114,21.895,48.114,53.273
				C408.977,253.884,401.826,276.873,365.698,291.471z"/>
			<path opacity="0.5" fill="#E6E6E6" enable-background="new    " d="M366.01,291.471c-35.819,14.601-55.619,18.173-74.945-7.762
				c-18.596-24.945-33.267-27.095-40.626-27.178v-0.004c-0.008,0-0.013,0-0.019,0c-0.134,0-0.275,0-0.416,0
				c-0.136,0-0.288,0-0.418,0c-0.006,0-0.014,0-0.018,0v0.004c-7.431,0.079-22.705,1.601-41.462,26.554
				c-19.494,25.935-38.985,22.976-75.115,8.38c-16.744-6.769-27.258-15.338-33.723-25.526c5.921,21.346,48.606,44.945,73.488,44.945
				c26.985,0,33.617-10.985,44.332-26.154c12.73-19.902,28.647-21.521,32.481-21.615v0.01c0,0,0.158-0.014,0.437-0.014
				c0.276,0,0.434,0.014,0.434,0.014v-0.01c3.812,0.094,19.581,1.717,32.192,21.615c10.628,15.169,17.203,26.154,43.955,26.154
				c24.682,0,67.001-23.602,72.864-44.945C393.03,276.132,382.61,284.704,366.01,291.471z"/>
			<path opacity="0.7" fill="#E6E6E6" enable-background="new    " d="M408.075,170.666c-20.846-11.39-62.733-22.519-159.435-22.519
				c-96.692,0-137.182,11.125-158.026,22.519c-7.875,4.309-12.149,11.193-14.306,20.082c13.234-14.836,53.248-35.658,173.594-35.658
				c116.026,0,157.378,19.362,172.062,34.039C419.682,181.021,415.464,174.709,408.075,170.666z"/>
			<path fill="#6E6E6E" d="M249.353,274.51c-16.955,0-32.988,27.254-32.988,27.254h0.017c17.102-19.271,34.046-18.062,34.046-18.062
				s15.1-1.21,31.893,18.041C282.006,301.193,266.133,274.51,249.353,274.51z"/>
		</g>
	</g>
</g>
</svg>
