<?xml version="1.0" encoding="utf-8"?>
<!-- Generator: Adobe Illustrator 16.0.1, SVG Export Plug-In . SVG Version: 6.00 Build 0)  -->
<!DOCTYPE svg PUBLIC "-//W3C//DTD SVG 1.1//EN" "http://www.w3.org/Graphics/SVG/1.1/DTD/svg11.dtd">
<svg version="1.1" id="Layer_1" xmlns="http://www.w3.org/2000/svg" xmlns:xlink="http://www.w3.org/1999/xlink" x="0px" y="0px"
	 width="500px" height="500px" viewBox="0 0 500 500" enable-background="new 0 0 500 500" xml:space="preserve">
<g id="avatar">
</g>
<rect x="0" y="0" fill="none" width="500" height="500"/>
<g id="robot">
	<path fill="#1D1D1B" d="M431.756,188.984c-1.916-2.463-41.349-10.681-86.253-12.047c-44.907-1.371-58.877,8.76-94.742,8.76
		c-35.872,0-49.837-10.13-94.744-8.76c-44.904,1.364-84.333,9.582-86.254,12.047c-1.917,2.463-3.56,35.869-1.641,40.523
		c1.915,4.653,4.658,3.013,5.478,5.752c0.818,2.737,11.222,54.219,24.644,63.801c13.415,9.583,17.25,12.046,50.385,12.046
		c33.132,0,54.214-9.584,60.515-18.071c6.294-8.487,16.544-22.307,25.463-53.122c3.011-10.406,6.298-26.56,9.036-27.657
		c2.739-1.099,1.916-1.368,7.12-1.368c5.201,0,4.382,0.27,7.119,1.368c2.736,1.097,6.023,17.251,9.037,27.657
		c8.92,30.815,19.167,44.635,25.466,53.122c6.298,8.489,27.38,18.071,60.513,18.071c33.132,0,36.964-2.463,50.381-12.046
		c13.419-9.582,23.825-61.064,24.648-63.801c0.817-2.739,3.559-1.096,5.472-5.752C435.317,224.853,433.67,191.447,431.756,188.984z
		 M222.008,248.677c-5.202,15.607-13.691,31.489-23,40.248c-9.31,8.764-30.942,12.328-46.001,12.328
		c-15.058,0-36.416-1.371-44.354-7.672c-7.941-6.293-13.421-20.532-16.43-33.403c-3.013-12.867-3.838-29.846,0-47.099
		c3.829-17.25,44.356-21.358,66.793-21.358c47.083,0,62.993,10.408,67.101,17.798C230.225,216.912,227.21,233.066,222.008,248.677z
		 M409.305,260.177c-3.015,12.871-8.493,27.11-16.43,33.403c-7.944,6.301-29.3,7.672-44.361,7.672
		c-15.058,0-36.694-3.564-46.004-12.328c-9.31-8.759-17.794-24.643-22.996-40.248c-5.204-15.61-8.217-31.764-4.105-39.157
		c4.105-7.391,20.019-17.798,67.098-17.798c22.438,0,62.965,4.107,66.799,21.358C413.136,230.329,412.312,247.31,409.305,260.177z"
		/>
</g>
</svg>
