<?xml version="1.0" encoding="utf-8"?>
<!-- Generator: Adobe Illustrator 16.0.1, SVG Export Plug-In . SVG Version: 6.00 Build 0)  -->
<!DOCTYPE svg PUBLIC "-//W3C//DTD SVG 1.1//EN" "http://www.w3.org/Graphics/SVG/1.1/DTD/svg11.dtd">
<svg version="1.1" id="Layer_1" xmlns="http://www.w3.org/2000/svg" xmlns:xlink="http://www.w3.org/1999/xlink" x="0px" y="0px"
	 width="500px" height="500px" viewBox="0 0 500 500" enable-background="new 0 0 500 500" xml:space="preserve">
<g>
	<path fill="#93C01F" d="M238.163,472.011h-51.24v-87.294c0-13.443,11-24.442,24.444-24.442h2.352
		c13.444,0,24.444,10.999,24.444,24.442V472.011z"/>
</g>
<g>
	<path fill="#93C01F" d="M314.931,471.699H262.38v-86.671c0-13.615,11.14-24.756,24.755-24.756h3.041
		c13.615,0,24.755,11.141,24.755,24.756V471.699z"/>
</g>
<path opacity="0.47" fill="#006633" d="M197.033,429.869c-0.074,3.521,2.723,6.436,6.245,6.509c3.521,0.075,6.438-2.72,6.512-6.243
	c0.074-3.521-2.723-6.439-6.244-6.514C200.024,423.547,197.107,426.345,197.033,429.869z"/>
<circle opacity="0.47" fill="#006633" cx="277.035" cy="430.002" r="6.38"/>
<circle opacity="0.47" fill="#006633" cx="226.142" cy="410.561" r="2.864"/>
<circle opacity="0.47" fill="#006633" cx="300.644" cy="410.561" r="2.865"/>
</svg>
