<?xml version="1.0" encoding="utf-8"?>
<!-- Generator: Adobe Illustrator 16.0.1, SVG Export Plug-In . SVG Version: 6.00 Build 0)  -->
<!DOCTYPE svg PUBLIC "-//W3C//DTD SVG 1.1//EN" "http://www.w3.org/Graphics/SVG/1.1/DTD/svg11.dtd">
<svg version="1.1" id="Layer_1" xmlns="http://www.w3.org/2000/svg" xmlns:xlink="http://www.w3.org/1999/xlink" x="0px" y="0px"
	 width="500px" height="500px" viewBox="0 0 500 500" enable-background="new 0 0 500 500" xml:space="preserve">
<g>
	<path fill="#CAD7D7" d="M238.163,472.011h-51.24v-87.294c0-13.444,11-24.443,24.444-24.443h2.352
		c13.444,0,24.444,10.999,24.444,24.443V472.011z"/>
</g>
<g>
	<path fill="#CAD7D7" d="M314.931,471.699H262.38v-86.671c0-13.615,11.14-24.756,24.755-24.756h3.041
		c13.615,0,24.755,11.141,24.755,24.756V471.699z"/>
</g>
<path fill="#A2AEAE" d="M229.505,413.499c0,9.37-7.599,16.96-16.956,16.96c-9.37,0-16.967-7.59-16.967-16.96
	c0-9.361,7.598-16.959,16.967-16.959C221.906,396.54,229.505,404.138,229.505,413.499z"/>
<path fill="#A2AEAE" d="M306.086,413.499c0,9.37-7.599,16.96-16.955,16.96c-9.37,0-16.968-7.59-16.968-16.96
	c0-9.361,7.598-16.959,16.968-16.959C298.489,396.54,306.086,404.138,306.086,413.499z"/>
<rect x="186.924" y="435.271" fill="#EF6262" width="51.239" height="4.763"/>
<rect x="262.19" y="435.271" fill="#BF3E3E" width="52.741" height="4.763"/>
</svg>
