<?xml version="1.0" encoding="utf-8"?>
<!-- Generator: Adobe Illustrator 16.0.1, SVG Export Plug-In . SVG Version: 6.00 Build 0)  -->
<!DOCTYPE svg PUBLIC "-//W3C//DTD SVG 1.1//EN" "http://www.w3.org/Graphics/SVG/1.1/DTD/svg11.dtd">
<svg version="1.1" id="robot" xmlns="http://www.w3.org/2000/svg" xmlns:xlink="http://www.w3.org/1999/xlink" x="0px" y="0px"
	 width="500px" height="500px" viewBox="0 0 500 500" enable-background="new 0 0 500 500" xml:space="preserve">
<g>
	<path fill="#FF7679" d="M213.719,360.274h-2.352c-13.444,0-24.444,10.999-24.444,24.441v87.294h51.24v-31.977v-4.764v-50.555
		C238.163,371.273,227.163,360.274,213.719,360.274z"/>
	<path fill="#FF7679" d="M290.176,360.429h-3.041c-13.615,0-24.755,11.141-24.755,24.756v50.243h-0.19v4.763h0.19v31.665h52.551
		V440.19v-4.763v-50.243C314.931,371.569,303.791,360.429,290.176,360.429z"/>
</g>
<circle fill="#F3968E" cx="212.543" cy="450.034" r="9.501"/>
<circle fill="#F3968E" cx="288.561" cy="450.034" r="9.501"/>
<circle fill="#F3968E" cx="212.543" cy="396.54" r="9.501"/>
<circle fill="#F3968E" cx="288.561" cy="396.54" r="9.501"/>
</svg>
