<?xml version="1.0" encoding="utf-8"?>
<!-- Generator: Adobe Illustrator 16.0.1, SVG Export Plug-In . SVG Version: 6.00 Build 0)  -->
<!DOCTYPE svg PUBLIC "-//W3C//DTD SVG 1.1//EN" "http://www.w3.org/Graphics/SVG/1.1/DTD/svg11.dtd">
<svg version="1.1" id="content" xmlns="http://www.w3.org/2000/svg" xmlns:xlink="http://www.w3.org/1999/xlink" x="0px" y="0px"
	 width="500px" height="500px" viewBox="0 0 500 500" enable-background="new 0 0 500 500" xml:space="preserve">
<g id="bounds" display="none">
	<rect x="0.5" y="0.5" display="inline" fill="none" stroke="#2B2B2B" stroke-miterlimit="10" width="500" height="500"/>
</g>
<g>
	<g>
		<path fill="#8596A0" d="M353.8,278.5l-16-137.2H163.5l-15.1,137.2c-0.1,0.301-0.2,0.6-0.2,1c0,5.5,17.1,14,35.6,14
			s33.6-4.5,33.6-10c0,5.5,15.1,10,33.6,10c18.6,0,33.6-4.5,33.6-10c0,5.5,15.101,10,33.601,10s35.6-8.5,35.6-14
			C353.9,279.2,353.8,278.801,353.8,278.5z"/>
	</g>
	<g>
		<path fill="#7A8992" d="M210,288.6l-0.2,1.301l0,0l0,0c4.8-1.801,7.7-4,7.7-6.4V176.4L210,288.6z"/>
	</g>
	<g>
		<path fill="#7A8992" d="M292.1,288.6l0.2,1.301l0,0l0,0c-4.8-1.801-7.7-4-7.7-6.4V176.4L292.1,288.6z"/>
	</g>
</g>
<path fill="#7A8992" d="M163.5,141.3c0,8.5,39,15.3,87.2,15.3c48.1,0,87.2-6.9,87.2-15.3c0-8.5-39-15.3-87.2-15.3
	S163.5,132.8,163.5,141.3z"/>
</svg>
