<?xml version="1.0" encoding="utf-8"?>
<!-- Generator: Adobe Illustrator 16.0.1, SVG Export Plug-In . SVG Version: 6.00 Build 0)  -->
<!DOCTYPE svg PUBLIC "-//W3C//DTD SVG 1.1//EN" "http://www.w3.org/Graphics/SVG/1.1/DTD/svg11.dtd">
<svg version="1.1" id="Layer_1" xmlns="http://www.w3.org/2000/svg" xmlns:xlink="http://www.w3.org/1999/xlink" x="0px" y="0px"
	 width="500px" height="500px" viewBox="0 0 500 500" enable-background="new 0 0 500 500" xml:space="preserve">
<g>
	<path fill="#EDEDED" d="M238.163,421.836v-37.123c0-13.439-11-24.438-24.444-24.438h-2.352c-13.444,0-24.444,10.999-24.444,24.44
		v37.121H238.163z"/>
	<polygon fill="#EDEDED" points="186.923,438.232 186.923,472.009 238.163,472.009 238.163,440.032 238.163,438.232 	"/>
</g>
<g>
	<path fill="#EDEDED" d="M314.931,421.836v-36.808c0-13.615-11.14-24.756-24.755-24.756h-3.041
		c-13.615,0-24.755,11.141-24.755,24.756v36.808H314.931z"/>
	<polygon fill="#EDEDED" points="262.19,438.232 262.19,440.034 262.38,440.034 262.38,471.699 314.931,471.699 314.931,440.034 
		314.931,438.232 	"/>
</g>
</svg>
