<?xml version="1.0" encoding="utf-8"?>
<!-- Generator: Adobe Illustrator 16.0.1, SVG Export Plug-In . SVG Version: 6.00 Build 0)  -->
<!DOCTYPE svg PUBLIC "-//W3C//DTD SVG 1.1//EN" "http://www.w3.org/Graphics/SVG/1.1/DTD/svg11.dtd">
<svg version="1.1" id="Layer_1" xmlns="http://www.w3.org/2000/svg" xmlns:xlink="http://www.w3.org/1999/xlink" x="0px" y="0px"
	 width="500px" height="500px" viewBox="0 0 500 500" enable-background="new 0 0 500 500" xml:space="preserve">
<g id="avatar">
	<g>
		<g display="none">
			<g display="inline">
				<path fill="#FED9AE" d="M157.406,338.494c0,11.978-9.8,21.777-21.778,21.777h-0.589c-11.978,0-21.778-9.801-21.778-21.777
					V218.491c0-11.979,9.8-21.778,21.778-21.778h0.589c11.978,0,21.778,9.8,21.778,21.778V338.494z"/>
			</g>
		</g>
		<g display="none">
			<g display="inline">
				<path fill="#FED9AE" d="M388.595,338.494c0,11.978-9.8,21.777-21.778,21.777h-0.588c-11.979,0-21.777-9.801-21.777-21.777
					V218.491c0-11.979,9.8-21.778,21.777-21.778h0.588c11.979,0,21.778,9.8,21.778,21.778V338.494z"/>
			</g>
		</g>
		<g display="none">
			<g display="inline">
				<path fill="#FED9AE" d="M186.923,472.011v-87.296c0-13.443,11-24.443,24.444-24.443h2.352c13.444,0,24.444,11,24.444,24.443
					v87.296H186.923z"/>
			</g>
			<g display="inline">
				<path fill="#FED9AE" d="M262.38,471.699v-86.674c0-13.614,11.14-24.754,24.755-24.754h3.041
					c13.615,0,24.755,11.14,24.755,24.754v86.674H262.38z"/>
			</g>
		</g>
		<path fill="#FED9AE" d="M238.163,472.011c0,13.443-11,24.443-24.444,24.443h-2.352c-13.444,0-24.444-11-24.444-24.443H238.163z"/>
		<path fill="#FED9AE" d="M314.931,471.699c0,13.615-11.14,24.755-24.755,24.755h-3.041c-13.615,0-24.755-11.14-24.755-24.755
			H314.931z"/>
		<g display="none">
			<circle display="inline" fill="#FED9AE" cx="250.928" cy="105.505" r="85.691"/>
		</g>
		<g display="none">
			<circle display="inline" fill="#FFFFFF" cx="218.528" cy="96.644" r="15.116"/>
			<circle display="inline" fill="#FFFFFF" cx="282.104" cy="96.644" r="15.116"/>
			<path display="inline" fill="#FFFFFF" d="M266.044,139.444c0,8.348-6.767,15.115-15.116,15.115
				c-8.348,0-15.117-6.768-15.117-15.115H266.044z"/>
		</g>
		<g display="none">
			<path display="inline" fill="#FED9AE" d="M323.582,375.08c-1.005,11.803-11.52,21.46-23.366,21.46h-98.88
				c-11.846,0-22.346-9.658-23.333-21.463l-13.127-156.901c-0.987-11.805,7.896-21.463,19.742-21.463h132.621
				c11.846,0,20.715,9.657,19.709,21.46L323.582,375.08z"/>
		</g>
	</g>
</g>
<g id="clothes">
</g>
</svg>
