<?xml version="1.0" encoding="utf-8"?>
<!-- Generator: Adobe Illustrator 16.0.1, SVG Export Plug-In . SVG Version: 6.00 Build 0)  -->
<!DOCTYPE svg PUBLIC "-//W3C//DTD SVG 1.1//EN" "http://www.w3.org/Graphics/SVG/1.1/DTD/svg11.dtd">
<svg version="1.1" id="Layer_1" xmlns="http://www.w3.org/2000/svg" xmlns:xlink="http://www.w3.org/1999/xlink" x="0px" y="0px"
	 width="500px" height="500px" viewBox="0 0 500 500" enable-background="new 0 0 500 500" xml:space="preserve">
<g id="avatar">
	<g>
		<g>
			<circle fill="#FED9AE" cx="250.928" cy="105.505" r="85.691"/>
		</g>
		<g>
			<circle fill="#FFFFFF" cx="218.528" cy="96.644" r="15.116"/>
			<circle fill="#FFFFFF" cx="282.104" cy="96.644" r="15.116"/>
			<path fill="#FFFFFF" d="M266.044,139.444c0,8.348-6.767,15.115-15.116,15.115c-8.348,0-15.117-6.768-15.117-15.115H266.044z"/>
		</g>
		<g display="none">
			<path fill="#FED9AE" d="M323.582,375.08c-1.005,11.803-11.52,21.46-23.366,21.46h-98.88c-11.846,0-22.346-9.658-23.333-21.463
				l-13.127-156.901c-0.987-11.805,7.896-21.463,19.742-21.463h132.621c11.846,0,20.715,9.657,19.709,21.46L323.582,375.08z"/>
		</g>
	</g>
</g>
<g id="clothes">
</g>
</svg>
