<?xml version="1.0" encoding="utf-8"?>
<!-- Generator: Adobe Illustrator 16.0.1, SVG Export Plug-In . SVG Version: 6.00 Build 0)  -->
<!DOCTYPE svg PUBLIC "-//W3C//DTD SVG 1.1//EN" "http://www.w3.org/Graphics/SVG/1.1/DTD/svg11.dtd">
<svg version="1.1" id="content" xmlns="http://www.w3.org/2000/svg" xmlns:xlink="http://www.w3.org/1999/xlink" x="0px" y="0px"
	 width="500px" height="500px" viewBox="0 0 500 500" enable-background="new 0 0 500 500" xml:space="preserve">
<path fill="#8C8C8C" d="M88.527,133.24v234.455h322.946V133.24H88.527z M393.663,349.886H106.336V151.05h287.327V349.886z"/>
<path fill="#EBEBEB" d="M106.336,151.05v198.836h287.327V151.05H106.336z M387.727,343.948H112.273V156.986h275.454V343.948z"/>
<rect x="112.273" y="156.335" fill="#AFAFAF" width="275.454" height="186.961"/>
<path fill="#C1C1C1" d="M207.944,263.464c-17.729,5.832-71.927,31.348-95.671,42.39v38.563l275.454-0.401V215.862
	C321.531,231.444,286.859,237.498,207.944,263.464z"/>
<circle fill="#EBEBEB" cx="169.432" cy="221.467" r="40.284"/>
<path fill="#9E9E9E" d="M336.857,344.474c-59.622-70.263-168.904-103.802-224.584-114.665v114.665H336.857z"/>
</svg>
