<?xml version="1.0" encoding="utf-8"?>
<!-- Generator: Adobe Illustrator 16.0.1, SVG Export Plug-In . SVG Version: 6.00 Build 0)  -->
<!DOCTYPE svg PUBLIC "-//W3C//DTD SVG 1.1//EN" "http://www.w3.org/Graphics/SVG/1.1/DTD/svg11.dtd">
<svg version="1.1" id="content" xmlns="http://www.w3.org/2000/svg" xmlns:xlink="http://www.w3.org/1999/xlink" x="0px" y="0px"
	 width="500px" height="500px" viewBox="0 0 500 500" enable-background="new 0 0 500 500" xml:space="preserve">
<rect id="position" fill="none" width="500" height="500"/>
<g>
	<path fill="#BFBFC0" d="M410.107,238.424h-20.854c-5.404-29.943-31.639-52.735-63.114-52.735c-29.768,0-54.86,20.382-62.067,47.922
		c-5.004-2.307-10.388-3.526-15.902-3.526c-5.724,0-11.322,1.32-16.497,3.812c-6.738-28.009-31.985-48.891-62.032-48.891
		c-31.646,0-57.972,23.16-62.952,53.418H87.894c-5.731,0-10.394,4.663-10.394,10.394c0,5.73,4.662,10.394,10.394,10.394h18.796
		c4.98,30.258,31.306,53.418,62.952,53.418c33.35,0,60.79-25.723,63.563-58.367c4.233-3.817,9.405-5.915,14.763-5.915
		c5.041,0,9.951,1.817,14.132,5.167c1.91,33.671,29.898,60.479,64.04,60.479c32.191,0,58.912-23.835,63.461-54.782h20.507
		c5.73,0,10.393-4.663,10.393-10.394C420.5,243.086,415.838,238.424,410.107,238.424z M326.14,293.036
		c-23.912,0-43.366-19.454-43.366-43.365c0-23.912,19.454-43.365,43.366-43.365s43.365,19.454,43.365,43.365
		C369.505,273.582,350.052,293.036,326.14,293.036z M169.642,291.841c-23.724,0-43.024-19.3-43.024-43.023
		c0-23.723,19.3-43.024,43.024-43.024c23.723,0,43.023,19.301,43.023,43.024C212.665,272.541,193.365,291.841,169.642,291.841z"/>
	<g>
		<path fill="#8E8E8E" d="M223.059,250.354c-0.854,0-1.706-0.683-1.706-1.707c0-28.501-23.21-51.711-51.711-51.711
			c-28.501,0-51.711,23.21-51.711,51.711c0,0.854-0.683,1.707-1.706,1.707c-0.854,0-1.707-0.683-1.707-1.707
			c0-30.377,24.746-55.124,55.124-55.124c30.377,0,55.124,24.746,55.124,55.124C224.596,249.671,223.912,250.354,223.059,250.354z"
			/>
	</g>
	<g>
		<path fill="#8E8E8E" d="M379.899,251.377c-0.854,0-1.706-0.682-1.706-1.706c0-28.842-23.382-52.223-52.225-52.223
			c-28.841,0-52.222,23.381-52.222,52.223c0,0.854-0.685,1.706-1.707,1.706c-0.854,0-1.707-0.682-1.707-1.706
			c0-30.549,24.916-55.466,55.466-55.466c30.549,0,55.466,24.917,55.466,55.466C381.606,250.695,380.923,251.377,379.899,251.377z"
			/>
	</g>
</g>
</svg>
