<?xml version="1.0" encoding="utf-8"?>
<!-- Generator: Adobe Illustrator 16.0.1, SVG Export Plug-In . SVG Version: 6.00 Build 0)  -->
<!DOCTYPE svg PUBLIC "-//W3C//DTD SVG 1.1//EN" "http://www.w3.org/Graphics/SVG/1.1/DTD/svg11.dtd">
<svg version="1.1" id="content" xmlns="http://www.w3.org/2000/svg" xmlns:xlink="http://www.w3.org/1999/xlink" x="0px" y="0px"
	 width="500px" height="500px" viewBox="0 0 500 500" enable-background="new 0 0 500 500" xml:space="preserve">
<rect id="position" fill="none" width="500" height="500"/>
<g>
	<circle fill="#C1C1C1" cx="251.116" cy="275.176" r="127.02"/>
</g>
<path fill="#999999" d="M246.824,131.185c-101.783,0-178.271,89.08-121.182,166.973l0,0c0,0-2.679-80.013,50.65-115.518
	c0,0,2.675,42.646,149.17,30.188c0,0-20.431-18.535-19.358-37.104c0,0,72.122,86.929,70.271,122.434l0,0
	C427.833,222.073,368.496,131.185,246.824,131.185z"/>
<g>
	<circle fill="#FFFFFF" cx="203.089" cy="262.041" r="22.406"/>
	<circle fill="#FFFFFF" cx="297.326" cy="262.041" r="22.407"/>
	<path fill="#FFFFFF" d="M273.522,325.484c0,12.373-10.03,22.404-22.407,22.404c-12.374,0-22.407-10.031-22.407-22.404H273.522z"/>
</g>
<rect x="98.5" y="298.157" fill="#FFFFFF" width="305" height="150.053"/>
</svg>
