<?xml version="1.0" encoding="utf-8"?>
<!-- Generator: Adobe Illustrator 16.0.1, SVG Export Plug-In . SVG Version: 6.00 Build 0)  -->
<!DOCTYPE svg PUBLIC "-//W3C//DTD SVG 1.1//EN" "http://www.w3.org/Graphics/SVG/1.1/DTD/svg11.dtd">
<svg version="1.1" id="Layer_1" xmlns="http://www.w3.org/2000/svg" xmlns:xlink="http://www.w3.org/1999/xlink" x="0px" y="0px"
	 width="500px" height="500px" viewBox="0 0 500 500" enable-background="new 0 0 500 500" xml:space="preserve">
<g id="clothes">
</g>
<path display="none" fill="#CAD7D7" d="M251.227,5.982V5.971c-0.098,0-0.191,0.006-0.291,0.006c-0.098,0-0.191-0.006-0.291-0.006
	v0.012c-57.167,0.245-103.41,36.321-103.41,80.807v109.924H252.96h101.662V86.789C354.621,42.303,308.393,6.228,251.227,5.982z
	 M331.764,134.667H173.479V98.992h0.072c1.5-35.169,36.451-63.305,79.375-63.305c43.877,0,79.447,29.396,79.447,65.655
	c0,3.705-0.219,7.191-0.609,10.493V134.667z"/>
<rect x="147.235" y="180" display="none" fill="#A2AEAE" width="207.389" height="16.713"/>
<g>
	<path fill="#D74323" d="M250.212,6.809l-16.429,64.77l16.429,9.949h96.534v-9.949C346.746,35.805,303.529,6.809,250.212,6.809z"/>
	<path fill="#FF9329" d="M153.679,71.578v9.949h96.533v-9.949V6.809C196.892,6.809,153.679,35.805,153.679,71.578z"/>
	<rect x="144.344" y="71.578" fill="#F9732B" width="211.737" height="9.949"/>
	<rect x="235.811" y="3.024" fill="#F9732B" width="28.794" height="69.649"/>
	<path fill="#FFFFFF" d="M202.289,41.812c0,4.146-3.357,7.498-7.496,7.498c-4.145,0-7.504-3.351-7.504-7.498
		c0-4.15,3.359-7.502,7.504-7.502C198.932,34.31,202.289,37.662,202.289,41.812z"/>
</g>
</svg>
