<?xml version="1.0" encoding="utf-8"?>
<!-- Generator: Adobe Illustrator 16.0.1, SVG Export Plug-In . SVG Version: 6.00 Build 0)  -->
<!DOCTYPE svg PUBLIC "-//W3C//DTD SVG 1.1//EN" "http://www.w3.org/Graphics/SVG/1.1/DTD/svg11.dtd">
<svg version="1.1" id="robot" xmlns="http://www.w3.org/2000/svg" xmlns:xlink="http://www.w3.org/1999/xlink" x="0px" y="0px"
	 width="500px" height="566px" viewBox="0 0 500 566" enable-background="new 0 0 500 566" xml:space="preserve">
<g>
	<path fill-rule="evenodd" clip-rule="evenodd" fill="#F2F2F2" d="M312.114,42.802C304.25,18.104,279.257,0.054,249.64,0.054
		c-28.328,0-52.418,16.51-61.348,39.552l-0.677-0.005c-35.928,0-65.051,26.559-65.051,59.322c0,26.689,17.663,48.694,44.255,56.143
		c7.53-34.149,42.272-46.411,81.939-46.411c44.362,0,85.943,3.073,86.741,48.845c28.901-8.091,44.995-21.266,44.995-50.274
		C380.494,72.328,350.086,43.911,312.114,42.802z"/>
	<path fill-rule="evenodd" clip-rule="evenodd" fill="#E0E5FF" d="M255.204,112.189c35.476,0,65.055,10.294,79.213,26.979
		c1.088,0.159,3.191-5.125,4.288-4.952c4.124,0.648,3.501,0.301,7.687,1.034l-18.75-52.491c-3.056-0.85,0-1.657-3.058-2.422
		c-0.521-0.13-1.04-0.241-1.56-0.369c-2.535-0.62-5.07-1.229-7.605-1.788c-0.762-0.168-1.519-0.308-2.284-0.47
		c-2.29-0.488-4.582-0.975-6.873-1.41c-0.945-0.179-1.891-0.322-2.833-0.493c-2.108-0.38-4.218-0.765-6.326-1.096
		c-1.068-0.169-2.142-0.298-3.211-0.454c-1.979-0.289-3.96-0.588-5.939-0.832c-1.193-0.148-2.385-0.252-3.578-0.384
		c-1.86-0.205-3.716-0.425-5.574-0.589c-1.282-0.113-2.56-0.18-3.838-0.273c-1.769-0.13-3.541-0.278-5.309-0.369
		c-1.363-0.072-2.726-0.093-4.085-0.141c-1.687-0.059-3.374-0.139-5.062-0.162c-0.094,0-0.188-0.008-0.28-0.009v0.011
		c-24.135-0.31-48.27,3.072-72.403,11.25l-16.038,42.679c1.48-0.369,4.517,2.423,6.013,2.076
		C191.37,109.623,218.69,112.189,255.204,112.189z"/>
	<polygon fill-rule="evenodd" clip-rule="evenodd" fill="#F2F2F2" points="297.219,50.871 335.499,157.5 364.87,139.171 
		327.808,64.667 	"/>
	<g>
		<g>
			<path fill-rule="evenodd" clip-rule="evenodd" fill="#F2F2F2" d="M164.944,57.207c23.826-12.661,51.476-5.753,61.756,15.432
				c10.278,21.183-0.702,48.621-24.529,61.284c-23.83,12.66-51.479,5.752-61.755-15.431
				C130.134,97.309,141.118,69.872,164.944,57.207z"/>
		</g>
	</g>
	<path fill-rule="evenodd" clip-rule="evenodd" fill="#E0E5F5" d="M207.788,127.982c-27.25,14.483-58.119,8.131-68.945-14.18
		c-0.337-0.696-0.652-1.4-0.943-2.11c0.619,2.318,1.446,4.593,2.517,6.799c10.276,21.183,37.925,28.091,61.755,15.431
		c6.273-3.334,11.645-7.699,15.984-12.697C214.974,123.724,211.517,126.001,207.788,127.982z"/>
</g>
</svg>
