<?xml version="1.0" encoding="utf-8"?>
<!-- Generator: Adobe Illustrator 16.0.1, SVG Export Plug-In . SVG Version: 6.00 Build 0)  -->
<!DOCTYPE svg PUBLIC "-//W3C//DTD SVG 1.1//EN" "http://www.w3.org/Graphics/SVG/1.1/DTD/svg11.dtd">
<svg version="1.1" id="Layer_1" xmlns="http://www.w3.org/2000/svg" xmlns:xlink="http://www.w3.org/1999/xlink" x="0px" y="0px"
	 width="500px" height="534px" viewBox="0 0 500 534" enable-background="new 0 0 500 534" xml:space="preserve">
<g id="avatar">
</g>
<g>
	<g>
		<g>
			<g>
				<path fill="#A96A3D" d="M296.461,21.26C285.549-0.166,283.682-3.6,250.746,3.043C217.811-3.6,215.944-0.166,205.032,21.26
					c-10.957,21.515-15.978,48.094-15.978,48.094h61.295h0.795h61.295C312.44,69.354,307.418,42.776,296.461,21.26z"/>
				<path fill="#9C5D30" d="M305.102,21.26C292.127-0.166,289.908-3.6,250.746,3.043C211.586-3.6,209.365-0.166,196.391,21.26
					c-13.028,21.515-18.999,48.094-18.999,48.094h22.318c-1.523-20.463,2.839-40.402,23.961-54.767
					c20.407-11.328,46.645-4.531,61.222,9.062c11.921,14.822,17.99,29.645,22.995,45.704h16.212
					C324.101,69.354,318.13,42.776,305.102,21.26z"/>
			</g>
			<g>
				<path fill="#BD4C3D" d="M193.668,50.827c-3.123,10.646-4.614,18.527-4.614,18.527h61.295h0.795h61.295
					c0,0-0.979-5.184-3.018-12.825C272.74,41.127,231.05,35.53,193.668,50.827z"/>
				<path fill="#B03F30" d="M215.799,43.271c-11.167,1.417-22.196,3.864-32.92,7.556c-3.713,10.646-5.487,18.527-5.487,18.527
					h42.258C213.917,61.934,213.541,51.964,215.799,43.271z"/>
				<path fill="#B03F30" d="M306.748,47.264c-11.625-4.881-21.081,0.512-33.412-2.04c1.051,8.124-0.735,16.54-4.447,24.13h43.551
					C312.44,69.354,308.786,54.905,306.748,47.264z"/>
			</g>
		</g>
	</g>
	<path fill="#A96A3D" d="M349.129,37.532c-18.617-15.943-22.028-16.937-35.058-2.325c-12.783,14.334-51.233,31.217-64.402,31.852
		c-13.165-0.634-51.62-17.518-64.401-31.852c-13.028-14.612-16.44-13.618-35.054,2.325c-18.615,15.939-28.544,63.425-6.206,89.66
		c4.659,5.472,15.635,10.696,21.306,15.497c-1.219-6.449-5.04-73.335,85.729-73.335c87.198,0,86.474,64.935,85.576,70.501
		c4.396-4,14.955-8.249,18.713-12.663C377.67,100.957,367.743,53.471,349.129,37.532z"/>
</g>
</svg>
