<?xml version="1.0" encoding="utf-8"?>
<!-- Generator: Adobe Illustrator 16.0.1, SVG Export Plug-In . SVG Version: 6.00 Build 0)  -->
<!DOCTYPE svg PUBLIC "-//W3C//DTD SVG 1.1//EN" "http://www.w3.org/Graphics/SVG/1.1/DTD/svg11.dtd">
<svg version="1.1" id="Layer_1" xmlns="http://www.w3.org/2000/svg" xmlns:xlink="http://www.w3.org/1999/xlink" x="0px" y="0px"
	 width="500px" height="500px" viewBox="0 0 500 500" enable-background="new 0 0 500 500" xml:space="preserve">
<g id="avatar">
</g>
<g>
	<path fill="#F8B03D" d="M273.017,43.956c-0.505,0-0.981-0.302-1.183-0.798c-0.265-0.652,0.051-1.396,0.703-1.661
		c17.201-6.969,18.938-18.412,18.953-18.526c0.082-0.606,0.582-1.068,1.193-1.103c0.623-0.054,1.16,0.37,1.309,0.963
		c0.119,0.471,3.109,11.616,15.852,13.427c0.698,0.099,1.184,0.745,1.084,1.442s-0.744,1.186-1.441,1.083
		c-9.74-1.384-14.494-7.787-16.57-11.868c-1.867,4.386-6.775,11.824-19.421,16.947C273.338,43.925,273.176,43.956,273.017,43.956z"
		/>
	<path fill="#FBD597" d="M273.271,43.121c0.137-0.197,0.311-0.371,0.55-0.468c17.2-6.969,18.938-18.412,18.953-18.526
		c0.054-0.394,0.293-0.712,0.614-0.906c-0.061-0.198-0.097-0.33-0.107-0.373c-0.075-0.3-0.326-0.51-0.684-0.51
		c-0.003,0-0.006,0-0.009,0c-0.323,0.019-0.589,0.264-0.633,0.585c-0.017,0.118-1.819,11.91-19.321,19.001
		c-0.168,0.068-0.299,0.197-0.369,0.363s-0.072,0.35-0.004,0.518c0.104,0.257,0.35,0.423,0.627,0.423
		c0.086,0,0.171-0.018,0.253-0.05C273.187,43.159,273.227,43.139,273.271,43.121z"/>
	<path fill="#F8B03D" d="M305.943,38.846c-25.789,0-39.246-7.406-46.053-13.788c-4.215-3.952-6.458-7.954-7.639-10.868
		c-1.181,2.914-3.424,6.916-7.639,10.868c-7.129,6.684-21.557,14.492-49.809,13.737c-0.704-0.02-1.26-0.605-1.241-1.31
		c0.019-0.703,0.597-1.216,1.309-1.241c27.228,0.729,41.055-6.618,47.848-12.91c7.286-6.75,8.256-13.768,8.266-13.837
		c0.081-0.638,0.623-1.116,1.266-1.116c0.001,0,0.002,0,0.004,0c0.643,0.002,1.185,0.48,1.262,1.119
		c0.01,0.066,0.979,7.084,8.266,13.834c6.793,6.293,20.613,13.653,47.848,12.91c0.732,0.025,1.291,0.538,1.309,1.241
		c0.02,0.704-0.536,1.29-1.24,1.31C308.42,38.83,307.168,38.846,305.943,38.846z"/>
	<path fill="#F8B03D" d="M221.666,43.657c-1.392,0-2.817-0.019-4.28-0.058c-0.704-0.02-1.26-0.605-1.241-1.31
		c0.019-0.704,0.575-1.24,1.309-1.241c51.883,1.418,56.08-23.515,56.116-23.767c0.079-0.55,0.506-0.987,1.054-1.078
		c0.552-0.089,1.094,0.181,1.346,0.676c0.1,0.193,10.17,19.365,33.696,19.365c0.704,0,1.275,0.571,1.275,1.275
		s-0.571,1.275-1.275,1.275c-19.728,0-30.583-12.665-34.391-18.211C272.681,27.432,262.248,43.657,221.666,43.657z"/>
	<path fill="#F8B03D" d="M231.487,43.956c-0.159,0-0.321-0.03-0.479-0.094c-12.645-5.123-17.554-12.562-19.42-16.947
		c-2.077,4.081-6.83,10.484-16.57,11.868c-0.695,0.103-1.343-0.386-1.442-1.083s0.386-1.344,1.083-1.442
		c12.797-1.818,15.824-13.311,15.853-13.427c0.149-0.593,0.694-1.017,1.308-0.963c0.611,0.034,1.111,0.496,1.193,1.103
		c0.067,0.465,1.854,11.6,18.953,18.526c0.652,0.265,0.968,1.009,0.703,1.661C232.469,43.654,231.992,43.956,231.487,43.956z"/>
	<path fill="#FBD597" d="M195.944,37.414c12.797-1.818,15.824-13.311,15.853-13.427c0.081-0.323,0.286-0.587,0.55-0.759
		c-0.032-0.16-0.05-0.27-0.056-0.307c-0.043-0.32-0.309-0.565-0.704-0.587c-0.285,0-0.546,0.216-0.621,0.512
		c-0.03,0.119-3.122,11.996-16.351,13.876c-0.179,0.025-0.336,0.119-0.445,0.264c-0.108,0.144-0.154,0.322-0.128,0.501
		c0.047,0.331,0.332,0.581,0.663,0.581l0.1-0.008c0.085-0.012,0.163-0.031,0.247-0.045
		C195.244,37.705,195.553,37.469,195.944,37.414z"/>
	<path fill="#F8B03D" d="M282.838,43.657c-40.641,0.002-51.041-16.266-53.619-23.099c-3.846,5.523-14.826,18.237-34.38,18.237
		c-0.705,0-1.275-0.571-1.275-1.275s0.571-1.275,1.275-1.275c23.272,0,33.601-19.184,33.702-19.377
		c0.258-0.492,0.806-0.758,1.352-0.665c0.547,0.097,0.969,0.534,1.043,1.085c0.035,0.246,4.214,25.15,56.115,23.761
		c0.012,0,0.023,0,0.034,0c0.688,0,1.257,0.549,1.274,1.241c0.02,0.704-0.537,1.29-1.24,1.31
		C285.658,43.638,284.227,43.657,282.838,43.657z"/>
	<g>
		<path fill="#FBD597" d="M196.157,37.401c27.228,0.729,41.055-6.618,47.847-12.91c7.287-6.75,8.258-13.768,8.267-13.837
			c0.049-0.384,0.275-0.694,0.579-0.893c-0.037-0.192-0.055-0.309-0.056-0.317c-0.041-0.336-0.328-0.591-0.671-0.592
			c-0.339,0-0.627,0.255-0.67,0.596c-0.04,0.297-1.059,7.347-8.453,14.198c-6.462,5.985-19.437,13.12-44.553,13.12
			c-1.21,0-2.451-0.017-3.681-0.051c-0.414,0.015-0.721,0.291-0.731,0.658c-0.01,0.372,0.285,0.683,0.657,0.693
			c0.112,0.003,0.217,0.002,0.329,0.005C195.244,37.681,195.662,37.418,196.157,37.401z"/>
		<path fill="#FBD597" d="M310.205,37.414c0-0.014,0.008-0.026,0.007-0.041c-0.011-0.378-0.304-0.643-0.692-0.657
			c-1.289,0.035-2.548,0.053-3.777,0.053c-14.593,0-25.078-2.419-32.572-5.621C281.18,34.916,292.972,37.797,310.205,37.414z"/>
	</g>
	<g>
		<path fill="#FBD597" d="M310.21,37.382c-0.005-0.368-0.304-0.667-0.673-0.667c-5.89,0-10.944-1.186-15.226-2.972
			C298.686,35.822,303.967,37.274,310.21,37.382z"/>
		<path fill="#FBD597" d="M218.738,42.205c51.883,1.418,56.08-23.515,56.116-23.767c0.061-0.426,0.333-0.778,0.705-0.961
			c-0.156-0.271-0.244-0.437-0.252-0.453c-0.115-0.226-0.346-0.366-0.604-0.366c-0.037,0-0.075,0.003-0.11,0.009
			c-0.292,0.049-0.516,0.278-0.558,0.571c-0.035,0.243-4.052,24.34-52.515,24.34c-1.365,0-2.774-0.02-4.194-0.059
			c-0.408,0.001-0.7,0.271-0.71,0.658c-0.01,0.372,0.285,0.683,0.657,0.693c0.108,0.003,0.212,0.004,0.32,0.007
			C217.809,42.477,218.224,42.206,218.738,42.205z"/>
	</g>
	<g>
		<path fill="#FBD597" d="M287.624,42.218c0.001-0.015,0.008-0.027,0.007-0.042c-0.01-0.368-0.306-0.657-0.693-0.657
			c-1.414,0.038-2.791,0.057-4.137,0.057c-15.447,0-26.381-2.44-34.115-5.773C256.927,39.718,269.248,42.628,287.624,42.218z"/>
		<path fill="#FBD597" d="M196.123,37.401c23.272,0,33.601-19.184,33.702-19.377c0.105-0.201,0.268-0.354,0.45-0.47
			c-0.043-0.19-0.061-0.299-0.062-0.314c-0.04-0.293-0.262-0.523-0.55-0.574c-0.038-0.007-0.077-0.01-0.116-0.01
			c-0.255,0-0.486,0.139-0.604,0.362c-0.104,0.196-10.619,19.697-34.233,19.697c-0.373,0-0.675,0.304-0.675,0.676
			s0.303,0.676,0.675,0.676c0.107,0,0.211-0.006,0.318-0.007C195.248,37.673,195.646,37.401,196.123,37.401z"/>
	</g>
	<path fill="#F8B03D" d="M192.648,38.581c0,4.357,26.686,8.748,59.604,8.748c32.917,0,59.604-4.391,59.604-8.748v-4.733
		c0,4.356-26.687,8.748-59.604,8.748c-32.918,0-59.604-4.392-59.604-8.748V38.581z"/>
	<g>
		<circle fill="#FBD597" cx="197.825" cy="39.642" r="0.989"/>
		<circle fill="#FBD597" cx="204.079" cy="41.221" r="0.989"/>
		<circle fill="#FBD597" cx="210.435" cy="42.332" r="0.989"/>
		<circle fill="#FBD597" cx="216.831" cy="43.172" r="0.989"/>
		<circle fill="#FBD597" cx="223.251" cy="43.82" r="0.989"/>
		<circle fill="#FBD597" cx="229.686" cy="44.31" r="0.988"/>
		<circle fill="#FBD597" cx="236.127" cy="44.664" r="0.988"/>
		<circle fill="#FBD597" cx="242.575" cy="44.894" r="0.989"/>
		<circle fill="#FBD597" cx="249.027" cy="45.008" r="0.989"/>
		<circle fill="#FBD597" cx="255.478" cy="45.008" r="0.989"/>
		<circle fill="#FBD597" cx="261.929" cy="44.894" r="0.989"/>
		<circle fill="#FBD597" cx="268.378" cy="44.664" r="0.989"/>
		<circle fill="#FBD597" cx="274.821" cy="44.31" r="0.989"/>
		<circle fill="#FBD597" cx="281.254" cy="43.82" r="0.988"/>
		<circle fill="#FBD597" cx="287.673" cy="43.172" r="0.989"/>
		<circle fill="#FBD597" cx="294.07" cy="42.332" r="0.988"/>
		<circle fill="#FBD597" cx="300.427" cy="41.221" r="0.989"/>
		<circle fill="#FBD597" cx="306.678" cy="39.642" r="0.989"/>
	</g>
	<g>
		<g>
			<circle fill="#E7F0FA" cx="212.091" cy="20.073" r="2.481"/>
			<path fill="#9AB6C4" d="M213.754,21.735c-1.098,1.306-3.014,0.745-3.741-0.601c-0.407-0.961-0.259-1.926,0.413-2.725
				c1.098-1.304,3.014-0.743,3.741,0.602C214.653,19.909,214.376,20.998,213.754,21.735z M214.486,18.985
				c-0.482-1.141-1.987-1.726-3.141-1.361c-1.54,0.484-2.284,2.041-1.651,3.538C211.246,24.031,215.814,22.123,214.486,18.985z"/>
		</g>
	</g>
	<g>
		<g>
			<circle fill="#E7F0FA" cx="292.521" cy="20.073" r="2.482"/>
			<path fill="#9AB6C4" d="M294.185,21.735c-1.099,1.306-3.014,0.745-3.741-0.601c-0.407-0.961-0.26-1.926,0.413-2.725
				c1.099-1.304,3.014-0.743,3.741,0.602C295.083,19.909,294.807,20.998,294.185,21.735z M294.916,18.985
				c-0.482-1.141-1.987-1.726-3.141-1.361c-1.539,0.484-2.283,2.041-1.65,3.538C291.676,24.031,296.244,22.123,294.916,18.985z"/>
		</g>
	</g>
	<g>
		<g>
			<circle fill="#E7F0FA" cx="252.242" cy="5.545" r="3.719"/>
			<path fill="#9AB6C4" d="M254.736,8.037c-1.646,1.956-4.518,1.116-5.608-0.901c-0.61-1.439-0.389-2.886,0.619-4.083
				c1.646-1.955,4.519-1.115,5.607,0.901C256.083,5.298,255.669,6.93,254.736,8.037z M255.833,3.914
				c-0.724-1.709-2.979-2.586-4.708-2.041c-2.308,0.727-3.424,3.061-2.475,5.304C250.976,11.477,257.823,8.617,255.833,3.914z"/>
		</g>
	</g>
	<g>
		<g>
			<circle fill="#E7F0FA" cx="274.749" cy="13.846" r="3.323"/>
			<path fill="#9AB6C4" d="M276.977,16.071c-1.47,1.748-4.035,0.998-5.01-0.805c-0.545-1.285-0.347-2.578,0.554-3.647
				c1.471-1.745,4.036-0.995,5.009,0.807C278.18,13.625,277.811,15.083,276.977,16.071z M277.957,12.389
				c-0.646-1.527-2.662-2.311-4.207-1.823c-2.061,0.648-3.057,2.733-2.209,4.737C273.617,19.145,279.734,16.59,277.957,12.389z"/>
		</g>
	</g>
	<g>
		<g>
			<circle fill="#E7F0FA" cx="230.084" cy="13.846" r="3.322"/>
			<path fill="#9AB6C4" d="M232.312,16.071c-1.47,1.748-4.035,0.998-5.009-0.805c-0.545-1.285-0.348-2.578,0.553-3.647
				c1.471-1.745,4.035-0.995,5.009,0.807C233.515,13.625,233.145,15.083,232.312,16.071z M233.291,12.389
				c-0.646-1.527-2.66-2.311-4.205-1.823c-2.061,0.648-3.058,2.733-2.21,4.737C228.953,19.145,235.069,16.59,233.291,12.389z"/>
		</g>
	</g>
	<g>
		<g>
			<path fill="#E7F0FA" d="M246.853,35.986c0-2.985,3.347-12.615,5.405-12.615s5.406,9.63,5.406,12.615
				c0,2.984-2.42,5.405-5.406,5.405C249.273,41.391,246.853,38.97,246.853,35.986z"/>
			<g>
				<path fill="#9AB6C4" d="M247.235,35.976c0.08-3.055,1.361-6.243,2.601-8.992c0.516-1.145,1.129-2.437,2.103-3.269
					c0.878-0.755,2.321,2.411,2.567,2.908c1.357,2.759,2.551,6.039,2.77,9.135c0.16,2.277-1.293,4.25-3.301,5.152
					C250.482,42.483,247.387,39.166,247.235,35.976c-0.011-0.222-0.774-0.198-0.766,0.017c0.229,4.824,5.584,7.002,9.392,4.368
					c4.119-2.854,1.384-9.118-0.096-12.672c-0.707-1.698-2.532-6.113-4.875-3.757c-1.486,1.497-2.257,3.933-2.95,5.86
					c-0.703,1.96-1.415,4.104-1.471,6.2C246.465,36.206,247.229,36.203,247.235,35.976z"/>
			</g>
		</g>
	</g>
	<g>
		<circle fill="#F8B03D" cx="252.252" cy="19.91" r="3.432"/>
		<circle fill="#FBD597" cx="251.966" cy="19.624" r="2.216"/>
	</g>
	<g>
		<circle fill="#F8B03D" cx="228.822" cy="25.55" r="3.431"/>
		<circle fill="#FBD597" cx="228.536" cy="25.264" r="2.216"/>
	</g>
	<g>
		<g>
			<path fill="#E7F0FA" d="M271.982,38.025c0-2.165,2.428-9.15,3.921-9.15s3.921,6.985,3.921,9.15s-1.755,3.921-3.921,3.921
				C273.738,41.946,271.982,40.19,271.982,38.025z"/>
			<g>
				<path fill="#9AB6C4" d="M272.26,38.018c0.059-2.216,0.988-4.529,1.887-6.522c0.374-0.831,0.819-1.768,1.525-2.371
					c0.637-0.548,1.684,1.749,1.861,2.109c0.985,2.001,1.852,4.381,2.01,6.626c0.116,1.652-0.938,3.083-2.395,3.737
					C274.615,42.738,272.369,40.332,272.26,38.018c-0.008-0.161-0.562-0.144-0.555,0.012c0.167,3.499,4.05,5.079,6.812,3.169
					c2.988-2.07,1.005-6.614-0.068-9.192c-0.514-1.231-1.837-4.435-3.536-2.725c-1.078,1.086-1.638,2.853-2.141,4.251
					c-0.51,1.422-1.026,2.977-1.066,4.497C271.701,38.184,272.256,38.182,272.26,38.018z"/>
			</g>
		</g>
	</g>
	<g>
		<g>
			<path fill="#E7F0FA" d="M224.905,38.025c0-2.165,2.428-9.15,3.921-9.15s3.921,6.985,3.921,9.15s-1.755,3.921-3.921,3.921
				C226.661,41.946,224.905,40.19,224.905,38.025z"/>
			<g>
				<path fill="#9AB6C4" d="M225.183,38.018c0.059-2.216,0.988-4.529,1.887-6.522c0.374-0.831,0.819-1.768,1.525-2.371
					c0.637-0.548,1.684,1.749,1.861,2.109c0.985,2.001,1.852,4.381,2.01,6.626c0.116,1.652-0.938,3.083-2.395,3.737
					C227.538,42.738,225.292,40.332,225.183,38.018c-0.008-0.161-0.562-0.144-0.555,0.012c0.167,3.499,4.05,5.079,6.812,3.169
					c2.988-2.07,1.005-6.614-0.068-9.192c-0.514-1.231-1.837-4.435-3.536-2.725c-1.078,1.086-1.638,2.853-2.141,4.251
					c-0.51,1.422-1.026,2.977-1.066,4.497C224.624,38.184,225.179,38.182,225.183,38.018z"/>
			</g>
		</g>
	</g>
	<g>
		<circle fill="#F8B03D" cx="275.899" cy="25.55" r="3.431"/>
		<circle fill="#FBD597" cx="275.613" cy="25.264" r="2.215"/>
	</g>
</g>
</svg>
