<?xml version="1.0" encoding="utf-8"?>
<!-- Generator: Adobe Illustrator 16.0.1, SVG Export Plug-In . SVG Version: 6.00 Build 0)  -->
<!DOCTYPE svg PUBLIC "-//W3C//DTD SVG 1.1//EN" "http://www.w3.org/Graphics/SVG/1.1/DTD/svg11.dtd">
<svg version="1.1" id="robot" xmlns="http://www.w3.org/2000/svg" xmlns:xlink="http://www.w3.org/1999/xlink" x="0px" y="0px"
	 width="500px" height="500px" viewBox="0 0 500 500" enable-background="new 0 0 500 500" xml:space="preserve">
<g>
	<path fill="#FFFFFF" d="M343.593,314.413l-0.812,0.243c0,0-0.405-0.324,0-0.406c0.407-0.082,0.894-0.325,0.894-0.325
		S343.837,314.332,343.593,314.413z"/>
	<path fill="#FFFFFF" d="M340.997,314.332h0.974c0,0,0.649,0.243,0.324,0.324c-0.324,0.08-1.053,0.163-1.053,0.163
		S340.591,314.332,340.997,314.332z"/>
	<path fill="#FFFFFF" d="M339.861,314.006l-0.405-0.568c0,0,0.081-0.811,0.325-0.487c0.243,0.325,0.649,0.974,0.649,0.974
		S340.023,314.413,339.861,314.006z"/>
	<path fill="#FFFFFF" d="M338.807,312.708l-0.729-0.649c0,0,0.162-0.487,0.405-0.162c0.244,0.325,0.65,0.568,0.65,0.568
		S339.132,312.871,338.807,312.708z"/>
	<path fill="#FFFFFF" d="M337.996,310.437l0.243,0.73c0,0-0.324,0.649-0.406,0.405c-0.081-0.242-0.081-1.297-0.081-1.297
		l0.244-0.324C337.996,309.951,337.915,310.275,337.996,310.437z"/>
	<path fill="#FFFFFF" d="M337.672,309.382c0,0-0.082,0.243,0.161,0.243c0.244,0,0.406-0.324,0.406-0.324l-0.081-0.648
		C338.158,308.653,337.833,309.22,337.672,309.382z"/>
	<path fill="#FFFFFF" d="M342.457,304.677l0.486-0.649c0,0,0-0.405-0.323-0.162c-0.325,0.244-0.649,0.892-0.649,0.892
		S342.133,304.92,342.457,304.677z"/>
	<path fill="#FFFFFF" d="M343.675,302.892l0.729-0.812c0,0,0.487,0.081,0.162,0.245c-0.325,0.162-0.649,0.729-0.649,0.729
		S343.593,303.297,343.675,302.892z"/>
	<g>
		<path fill="#E7413E" d="M328.91,366.358c0,0,23.364,23.256,67.713-10.6c0,0,26.879-20.661,32.233-43.537
			c0,0,4.542-24.176-2.92-29.368c0,0-18.01-20.768-68.146,6.814c0,0-31.639,18.659-35.857,60.681
			C321.933,350.349,322.582,362.899,328.91,366.358z"/>
		<path fill="#D02D2E" d="M334.264,370.145c0,0-0.649-0.163,1.135-0.163c1.785,0,32.775-4.542,58.573-28.069
			c0,0,35.208-33.098,35.532-51.433c0,0,0.865,3.299,0.541,3.948c0,0-4.758,21.85-35.262,48.946
			C394.783,343.374,368.499,368.684,334.264,370.145z"/>
		<path fill="#D02D2E" d="M322.258,351.81c0,0,14.115-53.056,50.459-66.846c0,0,26.122-9.411,39.102-8.599
			c0,0-37.317-0.812-60.194,20.605C351.625,296.97,326.8,321.47,322.258,351.81z"/>
		<path fill="#FFFFFF" d="M344.161,301.027c0,0,1.46,1.135,1.623,2.109s2.596,3.731,3.731,2.92c0,0,0.974-0.649,0.162-1.946
			c-0.811-1.299-1.622-2.92-1.622-2.92S345.946,298.431,344.161,301.027z"/>
		<path fill="#FFFFFF" d="M348.055,297.619c0,0,0.325,0.648,1.136,1.136c0.812,0.487,2.596,2.759,2.596,2.759
			s1.785,1.623,2.596,0.648c0,0,0.65-1.946-0.162-2.596c-0.811-0.648-3.083-3.245-3.083-3.245S348.218,295.51,348.055,297.619z"/>
		<path fill="#FFFFFF" d="M354.545,291.616c0,0,0.649,1.298,1.46,1.785c0.811,0.487,1.947,2.434,1.947,2.434s1.298,1.46,2.11,0.648
			c0.811-0.811,1.621-1.459,0.648-1.946c-0.974-0.487-3.732-4.219-3.732-4.219S354.707,290.48,354.545,291.616z"/>
		<path fill="#FFFFFF" d="M358.764,288.695c0,0-0.974,0.163,0.324,0.812s2.921,2.595,2.921,2.595s2.595,2.109,3.732,0.812
			c0,0,0.648-2.11-0.326-2.596c-0.974-0.487-3.732-2.921-3.732-2.921S359.088,287.56,358.764,288.695z"/>
		
			<ellipse transform="matrix(-0.6438 0.7652 -0.7652 -0.6438 805.5621 214.2504)" fill="#BA1F10" cx="352.912" cy="294.63" rx="2.151" ry="1.662"/>
		
			<ellipse transform="matrix(-0.6437 0.7653 -0.7653 -0.6437 804.5118 213.9007)" fill="#D82116" cx="352.46" cy="294.241" rx="1.785" ry="1.379"/>
		<path fill="#FFFFFF" d="M364.767,285.613c0,0,3.245,1.135,3.407,2.109c0.162,0.973,0.811,1.623,2.109,1.298
			c0,0,1.46-2.109,0.324-3.083c-1.136-0.973-2.596-1.947-2.596-1.947S365.092,284.638,364.767,285.613z"/>
		<path fill="#FFFFFF" d="M339.781,305.894c0,0,0.324,2.434,1.297,3.083s1.784,1.298,1.784,1.298s1.948,0.811,2.272-0.163
			c0.325-0.973,0.486-1.622-0.649-2.109c-1.136-0.486-2.271-2.272-2.271-2.272S340.591,304.596,339.781,305.894z"/>
		
			<ellipse transform="matrix(-0.6439 0.7651 -0.7651 -0.6439 804.4066 213.9499)" fill="#BA1F10" cx="352.414" cy="294.173" rx="0.828" ry="0.64"/>
		<path fill="#FFFFFF" d="M347.812,311.654c0,0-0.162-0.082,0.162-0.324c0.325-0.244,0.487-0.486,0.487-0.486
			s0.812,0.162,0.487,0.324c-0.323,0.163-0.974,0.73-0.974,0.73L347.812,311.654z"/>
		<path fill="#FFFFFF" d="M349.272,310.356l1.054-0.812c0,0,0.487-0.081,0.244,0.243c-0.244,0.324-0.974,0.893-0.974,0.893
			S349.272,310.68,349.272,310.356z"/>
		<path fill="#FFFFFF" d="M351.057,309.057l1.136-0.973c0,0,0.323,0,0.081,0.324c-0.244,0.325-0.893,0.974-0.893,0.974
			S350.976,309.544,351.057,309.057z"/>
		<path fill="#FFFFFF" d="M352.761,307.517c0,0,0.81-0.812,1.053-0.488c0.244,0.325-0.486,0.65-0.486,0.65
			S352.436,308.247,352.761,307.517z"/>
		<path fill="#FFFFFF" d="M354.626,306.543l0.974-0.487l0.162-0.081c0,0,0.406,0.568-0.081,0.648
			c-0.487,0.081-0.893,0.487-0.893,0.487S354.301,306.705,354.626,306.543z"/>
		<path fill="#FFFFFF" d="M356.411,305.569l1.135-0.487c0,0,0.244,0.325-0.162,0.406c-0.406,0.081-0.974,0.568-0.974,0.568
			S356.005,305.731,356.411,305.569z"/>
		<path fill="#FFFFFF" d="M358.115,304.677l1.054-0.163c0,0,0.649,0.325,0.162,0.406c-0.486,0.082-1.216,0.324-1.216,0.324
			S357.708,304.758,358.115,304.677z"/>
		<path fill="#FFFFFF" d="M360.062,303.947l0.891-0.244c0,0,0.406,0.244,0.081,0.325c-0.323,0.082-1.054,0.568-1.054,0.568
			S359.575,304.028,360.062,303.947z"/>
		<path fill="#FFFFFF" d="M361.44,303.136l0.731-0.893c0,0,0.486-0.081,0.243,0.325c-0.243,0.406-0.812,0.973-0.812,0.973
			S361.034,303.703,361.44,303.136z"/>
		<path fill="#FFFFFF" d="M362.496,301.513l0.811-0.893c0,0,0.487-0.162,0.325,0.083c-0.163,0.243-0.649,0.891-0.649,0.891
			S362.089,302.081,362.496,301.513z"/>
		<path fill="#FFFFFF" d="M363.712,299.89l0.729-0.891c0,0,0.325,0,0.244,0.243c-0.082,0.243-0.73,1.136-0.73,1.136
			S363.306,300.541,363.712,299.89z"/>
		<path fill="#FFFFFF" d="M364.929,298.106l0.649-1.055c0,0,0.407-0.162,0.244,0.243c-0.162,0.406-0.57,1.137-0.57,1.137
			S364.686,298.592,364.929,298.106z"/>
		<path fill="#FFFFFF" d="M366.227,296.402l0.649-0.567c0,0,0.486,0.081,0.243,0.242c-0.243,0.163-0.811,0.894-0.811,0.894
			S365.822,296.727,366.227,296.402z"/>
		<path fill="#FFFFFF" d="M367.768,294.942l0.892-0.73c0,0,0.407,0.081,0,0.406c-0.405,0.324-0.811,0.73-0.811,0.73
			S367.443,295.267,367.768,294.942z"/>
		<path fill="#FFFFFF" d="M368.985,293.726l0.894-0.731c0,0,0.567,0,0.324,0.163c-0.243,0.162-0.812,0.812-0.812,0.812
			S368.58,294.211,368.985,293.726z"/>
		<path fill="#FFFFFF" d="M370.688,292.427l0.974-1.217c0,0,0.324,0.162,0,0.487c-0.325,0.324-0.567,0.811-0.567,0.811
			S370.526,292.914,370.688,292.427z"/>
		<path fill="#FFFFFF" d="M372.475,290.48l0.567-0.567c0,0,0.568,0,0.244,0.243c-0.325,0.243-0.732,0.73-0.732,0.73
			S372.069,290.886,372.475,290.48z"/>
		<path fill="#FFFFFF" d="M373.771,289.345l0.488-0.974c0,0,0.405,0.324,0.243,0.568c-0.162,0.243-0.487,0.648-0.487,0.648
			S373.528,290.075,373.771,289.345z"/>
		<path fill="#FFFFFF" d="M374.502,287.479c0,0,0.244-0.325,0.163-0.65c-0.082-0.324,0.243-0.568,0.243-0.243
			c0,0.324,0,0.893,0,0.893S374.583,287.965,374.502,287.479z"/>
		<path fill="#FFFFFF" d="M374.34,285.694l-0.325-0.244c0,0-0.405-0.568,0-0.406c0.406,0.162,0.81,0.729,0.81,0.729
			S374.583,286.343,374.34,285.694z"/>
		<path fill="#FFFFFF" d="M373.286,284.801l-0.569-0.486c0,0,0.081-0.486,0.325-0.406c0.244,0.081,0.649,0.568,0.649,0.568
			S373.61,285.044,373.286,284.801z"/>
		<path fill="#FFFFFF" d="M372.149,283.909l-0.648-0.162c0,0-0.245-0.405,0.161-0.325c0.407,0.081,0.731,0.245,0.731,0.245
			S372.394,283.829,372.149,283.909z"/>
		<path fill="#FFFFFF" d="M371.014,283.667l-0.568-0.164c0,0,0.162-0.162,0.405-0.162S371.175,283.585,371.014,283.667z"/>
		<path fill="#FFFFFF" d="M347,312.141l-1.054,0.487c0,0-0.244,0.649,0.243,0.404c0.487-0.243,0.974-0.404,0.974-0.404
			S347.406,312.059,347,312.141z"/>
		<path fill="#FFFFFF" d="M344.079,313.763l1.137-0.568c0,0,0.568,0.082,0.244,0.244c-0.325,0.162-0.893,0.568-0.893,0.568
			S343.675,314.087,344.079,313.763z"/>
		<path fill="#FFFFFF" d="M352.922,298.187c0,0,0-0.244,0.487-0.081c0.486,0.161,1.055,0,0.486,0.161
			c-0.567,0.164-0.892,0.164-0.892,0.164L352.922,298.187z"/>
		<path fill="#FFFFFF" d="M353.896,297.538c0,0,0,0,0.406-0.081c0.406-0.081,0.974-0.325,0.974-0.325s0.649,0.325,0.163,0.405
			c-0.487,0.081-1.055,0.325-1.055,0.325S353.571,297.863,353.896,297.538z"/>
		<path fill="#FFFFFF" d="M356.005,297.051l0.487-0.812c0,0-0.243-0.567-0.324-0.243c-0.081,0.324-0.487,0.812-0.487,0.812
			S355.6,297.051,356.005,297.051z"/>
		<path fill="#FFFFFF" d="M356.897,294.86l-0.162,0.488c0,0,0,0.648,0.324,0.324c0.325-0.324,0.244-0.648,0.244-0.648
			L356.897,294.86z"/>
		<path fill="#FFFFFF" d="M359.656,293.076l0.729-0.487c0,0,0.082-0.404-0.243-0.324c-0.325,0.082-0.73,0.486-0.73,0.486
			S359.25,293.158,359.656,293.076z"/>
		<path fill="#FFFFFF" d="M360.954,291.94l0.568-0.162c0,0,0.406,0.081,0.081,0.244c-0.324,0.163-0.729,0.325-0.729,0.325
			S360.468,292.102,360.954,291.94z"/>
		<path fill="#FFFFFF" d="M347,299.485l0.649-0.73c0,0,0.324,0.081,0.082,0.325c-0.244,0.243-0.406,0.729-0.406,0.729
			S346.676,299.89,347,299.485z"/>
		<path fill="#FFFFFF" d="M357.953,290.642c0,0,0.162,0.244,0.325-0.081c0.162-0.324,0.892-0.568,0.892-0.568
			s0.162-0.406-0.243-0.244c-0.406,0.163-1.136,0.488-1.136,0.488S357.385,290.723,357.953,290.642z"/>
	</g>
</g>
</svg>
