<?xml version="1.0" encoding="utf-8"?>
<!-- Generator: Adobe Illustrator 16.0.1, SVG Export Plug-In . SVG Version: 6.00 Build 0)  -->
<!DOCTYPE svg PUBLIC "-//W3C//DTD SVG 1.1//EN" "http://www.w3.org/Graphics/SVG/1.1/DTD/svg11.dtd">
<svg version="1.1" id="Layer_1" xmlns="http://www.w3.org/2000/svg" xmlns:xlink="http://www.w3.org/1999/xlink" x="0px" y="0px"
	 width="500px" height="500px" viewBox="0 0 500 500" enable-background="new 0 0 500 500" xml:space="preserve">
<g id="avatar">
</g>
<g id="robot">
	<g>
		<path fill="#69B04E" d="M93.2,328.737c-1.579-0.199-3.013,0.855-3.203,2.357l-1.483,11.781c-0.19,1.501,0.938,2.88,2.518,3.079
			c1.579,0.198,6.233-0.451,6.424-1.953l1.482-11.781C99.128,330.721,94.78,328.936,93.2,328.737z"/>
		
			<rect x="98.129" y="332.982" transform="matrix(0.9922 0.1249 -0.1249 0.9922 43.1533 -10.438)" fill="#F15723" width="13.386" height="11.917"/>
		<path fill="#67809F" d="M35.914,311.898c-5.806,2.493-9.312,8.232-10.423,17.056c-1.111,8.823,0.862,15.25,5.867,19.106
			c12.614,9.721,41.057,0.596,57.244-5.881l0.279-2.21l-0.504,0.203c-12.648,5.097-43.407,15.917-55.83,6.344
			c-4.418-3.403-6.144-9.23-5.124-17.319c1.019-8.089,4.134-13.307,9.26-15.511c14.409-6.19,41.523,11.919,52.513,19.992L89.634,334
			l0.278-2.209C75.834,321.503,50.544,305.61,35.914,311.898z"/>
		<path fill="#67809F" d="M31.336,319.926c-3.354,1.812-5.319,4.85-5.846,9.028s0.626,7.607,3.425,10.195
			c10.527,9.729,41.896,5.072,59.896,1.366l0.258-2.041l-0.327,0.068c-14.152,2.929-48.184,8.714-58.506-0.825
			c-2.343-2.165-3.263-4.951-2.813-8.521c0.45-3.569,2.033-6.042,4.84-7.559c12.367-6.683,43.899,7.362,56.882,13.71l0.299,0.146
			l0.259-2.04C73.183,325.402,43.949,313.111,31.336,319.926z"/>
		
			<rect x="25.543" y="332" transform="matrix(0.9922 0.125 -0.125 0.9922 42.073 -4.5799)" fill="#67809F" width="63.976" height="1.948"/>
		<g>
			<polygon fill="#69B04E" points="145.221,344.036 145.221,344.036 111.478,339.784 111.478,339.784 			"/>
			<path fill="#4A823E" d="M156.959,339.509l-44.737-5.636l-0.745,5.911l33.743,4.251c0.19-1.512,1.57-2.584,3.082-2.394
				l7.391,0.934c1.513,0.188,2.584,1.567,2.395,3.08l3.979,0.502l0.008-0.06C162.481,342.868,160.191,339.916,156.959,339.509z"/>
			<polygon fill="#69B04E" points="158.087,345.655 158.087,345.655 162.067,346.157 162.067,346.157 			"/>
			<path fill="#69B04E" d="M155.004,348.049l-7.392-0.932c-1.513-0.191-2.583-1.571-2.392-3.082l-33.743-4.251l-0.744,5.911
				l44.736,5.637c3.233,0.408,6.184-1.884,6.59-5.115l0.007-0.06l-3.979-0.502C157.896,347.168,156.516,348.239,155.004,348.049z"/>
		</g>
	</g>
</g>
</svg>
