<?xml version="1.0" encoding="utf-8"?>
<!-- Generator: Adobe Illustrator 16.0.1, SVG Export Plug-In . SVG Version: 6.00 Build 0)  -->
<!DOCTYPE svg PUBLIC "-//W3C//DTD SVG 1.1//EN" "http://www.w3.org/Graphics/SVG/1.1/DTD/svg11.dtd">
<svg version="1.1" xmlns="http://www.w3.org/2000/svg" xmlns:xlink="http://www.w3.org/1999/xlink" x="0px" y="0px" width="500px"
	 height="500px" viewBox="0 0 500 500" enable-background="new 0 0 500 500" xml:space="preserve">
<g id="avatar">
</g>
<g id="robot">
	<g>
		<g>
			<g>
				<path fill="#484E51" d="M124.082,346.436c3.309-1.626,7.309-0.264,8.937,3.046l26.317,53.528
					c1.627,3.309,0.263,7.31-3.046,8.936l0,0c-3.308,1.627-7.311,0.263-8.937-3.045l-26.317-53.527
					C119.41,352.063,120.774,348.062,124.082,346.436L124.082,346.436z"/>
			</g>
			<g>
				<path fill="#60686B" d="M121.037,355.373l26.317,53.527c1.336,2.719,4.277,4.12,7.119,3.633
					c2.122-1.952,2.808-5.138,1.473-7.856l-26.319-53.527c-1.335-2.72-4.277-4.12-7.119-3.633
					C120.385,349.47,119.699,352.654,121.037,355.373z"/>
			</g>
			<g>
				<polygon fill="#484E51" points="158.532,401.372 163.981,405.657 167.577,419.769 161.586,422.715 155.593,425.661 
					146.615,414.196 146.548,407.264 152.541,404.317 				"/>
			</g>
			<g>
				<polygon fill="#B7C1C5" points="155.593,425.661 161.586,422.715 167.577,419.769 163.981,405.657 146.615,414.196 				"/>
			</g>
			<g>
				<polygon fill="#DADADA" points="158.194,424.383 160.525,423.237 151.544,411.772 149.215,412.918 				"/>
			</g>
		</g>
		<g>
			<polygon fill="#EDEDED" points="47.229,178.113 25.575,150.872 33.922,184.655 114.07,354.466 123.416,349.871 132.762,345.275 
							"/>
		</g>
		<g>
			<polygon fill="#B7C1C6" points="25.575,150.872 25.626,151.087 123.373,349.892 123.416,349.871 132.762,345.275 47.229,178.113 
							"/>
		</g>
		<g>
			<path fill="#60686B" d="M143.099,333.742c2.975-1.462,6.569-0.236,8.032,2.737l0,0c1.462,2.973,0.236,6.569-2.737,8.032
				l-42.491,20.891c-2.973,1.462-6.57,0.237-8.031-2.736l0,0c-1.463-2.974-0.238-6.57,2.735-8.032L143.099,333.742z"/>
		</g>
		<g>
			<path fill="#B7C1C6" d="M117.569,340.724c4.956-2.437,10.95-0.395,13.386,4.562l1.765,3.59
				c2.437,4.956,0.394,10.949-4.561,13.386l-0.82,0.402c-4.956,2.437-10.95,0.396-13.386-4.562l-1.764-3.59
				c-2.438-4.956-0.396-10.948,4.562-13.387L117.569,340.724z"/>
		</g>
		<g>
			<path fill="#A5B2B7" d="M96.223,347.318c3.251-1.599,7.184-0.258,8.783,2.993l3.476,7.068c1.599,3.252,0.258,7.186-2.995,8.784
				l0,0c-3.251,1.599-7.184,0.259-8.783-2.992l-3.476-7.068C91.629,352.852,92.97,348.918,96.223,347.318L96.223,347.318z"/>
		</g>
		<g>
			<path fill="#B7C1C6" d="M98.663,350.019c2.479-1.218,5.475-0.196,6.693,2.28l2.648,5.386c1.217,2.479,0.198,5.474-2.28,6.691l0,0
				c-2.479,1.219-5.476,0.198-6.693-2.279l-2.648-5.387C95.164,354.233,96.185,351.237,98.663,350.019L98.663,350.019z"/>
		</g>
		<g>
			<path fill="#A5B2B7" d="M139.817,325.884c3.471-1.706,7.668-0.276,9.375,3.195l2.864,5.827c1.708,3.471,0.278,7.668-3.193,9.374
				l0,0c-3.47,1.707-7.668,0.277-9.375-3.195l-2.864-5.825C134.915,331.788,136.347,327.591,139.817,325.884L139.817,325.884z"/>
		</g>
		<g>
			<path fill="#C9D1D4" d="M126.096,363.164l-10.502-21.358c-1.206,0.808-2.188,1.844-2.919,3.024l9.244,18.799
				C123.297,363.771,124.719,363.626,126.096,363.164z"/>
		</g>
		<g>
			<path fill="#B7C1C6" d="M140.921,328.127c2.477-1.217,5.474-0.197,6.691,2.281l2.648,5.386c1.219,2.478,0.198,5.474-2.281,6.691
				l0,0c-2.478,1.22-5.474,0.198-6.692-2.279l-2.648-5.386C137.42,332.343,138.443,329.346,140.921,328.127L140.921,328.127z"/>
		</g>
	</g>
</g>
</svg>
