<?xml version="1.0" encoding="utf-8"?>
<!-- Generator: Adobe Illustrator 16.0.1, SVG Export Plug-In . SVG Version: 6.00 Build 0)  -->
<!DOCTYPE svg PUBLIC "-//W3C//DTD SVG 1.1//EN" "http://www.w3.org/Graphics/SVG/1.1/DTD/svg11.dtd">
<svg version="1.1" xmlns="http://www.w3.org/2000/svg" xmlns:xlink="http://www.w3.org/1999/xlink" x="0px" y="0px" width="500px"
	 height="500px" viewBox="0 0 500 500" enable-background="new 0 0 500 500" xml:space="preserve">
<g id="avatar">
</g>
<g id="robot">
	<g>
		<g>
			<g>
				<path fill="#BDBFCB" d="M381.049,435.45c-0.597,0-1.134-0.262-1.501-0.68c-0.376,0.423-0.936,0.674-1.539,0.676l-1.018-0.027
					c-0.611-0.018-1.151-0.308-1.505-0.752c-0.395,0.404-0.953,0.646-1.565,0.598c-0.343-0.023-0.685-0.049-1.026-0.079
					c-0.607-0.048-1.129-0.365-1.46-0.824c-0.416,0.385-0.993,0.592-1.595,0.52c-0.341-0.039-0.682-0.082-1.021-0.127
					c-0.604-0.08-1.108-0.422-1.415-0.896c-0.434,0.363-1.014,0.544-1.62,0.439c-0.337-0.057-0.673-0.116-1.009-0.176
					c-0.601-0.109-1.09-0.478-1.374-0.969c-0.45,0.344-1.045,0.494-1.641,0.359c-0.335-0.075-0.669-0.151-1.001-0.229
					c-0.594-0.14-1.062-0.531-1.32-1.033c-0.468,0.318-1.065,0.44-1.655,0.276c-0.331-0.091-0.662-0.183-0.992-0.278
					c-0.585-0.17-1.034-0.583-1.267-1.1c-0.481,0.295-1.085,0.385-1.666,0.194c-0.328-0.108-0.656-0.217-0.982-0.331
					c-0.577-0.202-1.004-0.638-1.209-1.166c-0.497,0.273-1.108,0.333-1.68,0.113c-0.322-0.124-0.645-0.25-0.965-0.379
					c-0.565-0.229-0.97-0.688-1.148-1.223c-0.512,0.244-1.124,0.275-1.683,0.027c-0.313-0.14-0.626-0.282-0.938-0.423
					c-0.556-0.256-0.938-0.736-1.091-1.283c-0.524,0.222-1.139,0.218-1.686-0.059l-0.907-0.467
					c-0.545-0.281-0.904-0.779-1.029-1.334c-0.533,0.193-1.144,0.162-1.675-0.14c-0.299-0.17-0.597-0.344-0.894-0.518
					c-0.526-0.311-0.857-0.823-0.955-1.381c-0.541,0.166-1.15,0.105-1.667-0.225c-0.287-0.184-0.573-0.37-0.858-0.557
					c-0.513-0.333-0.821-0.865-0.891-1.43c-0.546,0.141-1.153,0.047-1.65-0.306c-0.279-0.2-0.557-0.398-0.833-0.6
					c-0.494-0.359-0.775-0.904-0.817-1.47c-0.555,0.113-1.153-0.01-1.633-0.389c-0.269-0.21-0.536-0.424-0.802-0.638
					c-0.476-0.385-0.729-0.941-0.742-1.508c-0.562,0.08-1.152-0.069-1.613-0.472c-0.257-0.224-0.514-0.451-0.769-0.677
					c-0.455-0.409-0.68-0.975-0.666-1.542c-0.575,0.057-1.148-0.125-1.588-0.549c-0.246-0.238-0.49-0.476-0.733-0.717
					c-0.435-0.427-0.631-1.005-0.589-1.57c-0.581,0.035-1.138-0.182-1.556-0.625c-0.234-0.25-0.468-0.5-0.7-0.754
					c-0.411-0.449-0.579-1.035-0.511-1.595c-0.565,0-1.128-0.241-1.523-0.706c-0.221-0.259-0.44-0.52-0.657-0.781
					c-0.391-0.469-0.53-1.065-0.434-1.621c-0.564-0.028-1.113-0.295-1.485-0.778c-0.209-0.269-0.415-0.541-0.62-0.813
					c-0.366-0.489-0.476-1.088-0.352-1.641c-0.562-0.056-1.099-0.35-1.445-0.852c-0.194-0.28-0.386-0.558-0.576-0.839
					c-0.342-0.506-0.422-1.111-0.271-1.657c-0.56-0.084-1.079-0.402-1.401-0.92c-0.18-0.289-0.357-0.578-0.534-0.869
					c-0.317-0.521-0.367-1.131-0.189-1.668c-0.555-0.111-1.058-0.457-1.354-0.988c-0.165-0.299-0.329-0.597-0.491-0.897
					c-0.289-0.534-0.309-1.144-0.105-1.671c-0.547-0.139-1.032-0.51-1.301-1.055c-0.149-0.305-0.297-0.609-0.443-0.916
					c-0.264-0.549-0.253-1.158-0.024-1.675c-0.539-0.166-1.004-0.559-1.246-1.117c-0.135-0.313-0.269-0.625-0.399-0.94
					c-0.234-0.562-0.193-1.17,0.061-1.671c-0.528-0.194-0.972-0.607-1.186-1.176c-0.121-0.322-0.24-0.644-0.356-0.969
					c-0.204-0.574-0.132-1.179,0.149-1.669c-0.523-0.219-0.95-0.656-1.135-1.24c-0.103-0.325-0.203-0.648-0.303-0.975
					c-0.18-0.584-0.077-1.187,0.229-1.666c-0.511-0.244-0.914-0.703-1.069-1.292c-0.087-0.33-0.172-0.662-0.255-0.993
					c-0.149-0.593-0.017-1.19,0.312-1.65c-0.498-0.271-0.878-0.75-1.003-1.348l-0.204-0.999c-0.12-0.599,0.042-1.19,0.396-1.636
					c-0.483-0.292-0.839-0.789-0.936-1.392c-0.055-0.338-0.106-0.679-0.156-1.018c-0.087-0.604,0.104-1.182,0.477-1.608
					c-0.468-0.316-0.798-0.83-0.864-1.438c-0.037-0.339-0.072-0.682-0.104-1.023c-0.057-0.608,0.163-1.177,0.556-1.58
					c-0.451-0.342-0.756-0.872-0.791-1.481c-0.021-0.339-0.038-0.679-0.055-1.021c-0.028-0.612,0.22-1.17,0.633-1.557
					c-0.434-0.361-0.712-0.904-0.719-1.514l-0.004-1.021c0-0.613,0.274-1.16,0.708-1.527c-0.416-0.383-0.667-0.938-0.645-1.546
					c0.014-0.345,0.028-0.686,0.047-1.03c0.032-0.607,0.333-1.138,0.781-1.482c-0.396-0.401-0.62-0.97-0.566-1.578
					c0.03-0.341,0.062-0.684,0.098-1.025c0.062-0.606,0.39-1.119,0.854-1.442c-0.376-0.421-0.572-1.002-0.487-1.605
					c0.047-0.337,0.096-0.676,0.146-1.014c0.092-0.603,0.444-1.103,0.926-1.402c-0.355-0.441-0.522-1.029-0.408-1.629
					c0.064-0.337,0.13-0.672,0.198-1.007c0.122-0.599,0.498-1.078,0.993-1.352c-0.332-0.458-0.469-1.051-0.326-1.645
					c0.08-0.333,0.164-0.666,0.249-0.998c0.152-0.591,0.552-1.053,1.06-1.301c-0.31-0.474-0.416-1.076-0.242-1.662
					c0.097-0.326,0.195-0.654,0.297-0.98c0.182-0.586,0.607-1.028,1.131-1.25c-0.289-0.49-0.366-1.099-0.162-1.679l0.345-0.961
					c0.21-0.578,0.658-1,1.194-1.195c-0.264-0.504-0.311-1.117-0.078-1.686c0.13-0.316,0.262-0.631,0.394-0.945
					c0.239-0.564,0.707-0.962,1.25-1.13c-0.236-0.516-0.253-1.129,0.006-1.682c0.146-0.314,0.294-0.625,0.445-0.936
					c0.268-0.549,0.753-0.92,1.301-1.062c-0.211-0.527-0.196-1.14,0.093-1.681c0.16-0.303,0.322-0.601,0.485-0.901
					c0.294-0.536,0.798-0.886,1.354-1c-0.183-0.536-0.139-1.148,0.175-1.671c0.176-0.295,0.354-0.588,0.533-0.882
					c0.319-0.519,0.84-0.841,1.399-0.929c-0.156-0.545-0.08-1.153,0.26-1.662c0.189-0.284,0.381-0.567,0.573-0.848
					c0.346-0.505,0.881-0.802,1.445-0.86c-0.129-0.551-0.023-1.153,0.339-1.644c0.204-0.276,0.41-0.549,0.617-0.823
					c0.37-0.485,0.92-0.755,1.485-0.786c-0.102-0.558,0.034-1.155,0.423-1.627c0.217-0.264,0.436-0.526,0.655-0.788
					c0.394-0.467,0.954-0.708,1.52-0.711c-0.073-0.562,0.091-1.149,0.501-1.602c0.23-0.255,0.463-0.508,0.697-0.759
					c0.416-0.445,0.988-0.657,1.552-0.633c-0.046-0.564,0.147-1.144,0.579-1.575c0.242-0.242,0.486-0.483,0.732-0.722
					c0.438-0.424,1.014-0.608,1.58-0.557c-0.017-0.565,0.205-1.136,0.658-1.545c0.253-0.228,0.507-0.454,0.763-0.681
					c0.457-0.403,1.048-0.56,1.608-0.48c0.012-0.566,0.261-1.124,0.733-1.51c0.265-0.216,0.53-0.431,0.799-0.645
					c0.477-0.379,1.071-0.506,1.626-0.398c0.039-0.563,0.316-1.107,0.807-1.47c0.274-0.203,0.551-0.405,0.828-0.604
					c0.496-0.355,1.098-0.45,1.644-0.318c0.068-0.562,0.372-1.091,0.88-1.429c0.283-0.188,0.567-0.374,0.852-0.558
					c0.512-0.333,1.119-0.401,1.662-0.239c0.096-0.557,0.425-1.07,0.948-1.382c0.292-0.174,0.587-0.347,0.883-0.518
					c0.525-0.304,1.132-0.343,1.666-0.155c0.123-0.55,0.477-1.045,1.014-1.331c0.301-0.16,0.604-0.318,0.909-0.475
					c0.542-0.277,1.15-0.285,1.672-0.071c0.15-0.544,0.529-1.021,1.081-1.28c0.308-0.144,0.616-0.286,0.927-0.427
					c0.553-0.251,1.161-0.23,1.673,0.01c0.178-0.536,0.579-0.993,1.143-1.223c0.315-0.129,0.631-0.255,0.947-0.38
					c0.571-0.226,1.18-0.171,1.68,0.096c0.203-0.528,0.629-0.968,1.205-1.17c0.321-0.112,0.644-0.223,0.965-0.333
					c0.58-0.197,1.188-0.112,1.674,0.18c0.229-0.517,0.675-0.935,1.261-1.108c0.328-0.097,0.657-0.192,0.988-0.285
					c0.587-0.166,1.187-0.05,1.655,0.264c0.255-0.504,0.721-0.898,1.313-1.043c0.333-0.081,0.667-0.159,1.003-0.235
					c0.589-0.133,1.186,0.009,1.64,0.347c0.28-0.492,0.766-0.863,1.366-0.976c0.335-0.063,0.671-0.125,1.007-0.185
					c0.606-0.108,1.188,0.068,1.624,0.429c0.304-0.478,0.808-0.824,1.412-0.908c0.34-0.047,0.68-0.092,1.021-0.135
					c0.604-0.076,1.179,0.127,1.596,0.509c0.328-0.461,0.848-0.782,1.456-0.835c0.34-0.03,0.68-0.058,1.02-0.084
					c0.612-0.046,1.175,0.185,1.574,0.587c0.35-0.446,0.886-0.74,1.497-0.764c0.339-0.013,0.678-0.023,1.017-0.033
					c0.608-0.028,1.165,0.242,1.544,0.664c0.371-0.428,0.899-0.701,1.531-0.689c0.342,0.004,0.683,0.009,1.023,0.017
					c0.61,0.014,1.15,0.299,1.508,0.738c0.393-0.409,0.966-0.646,1.562-0.614c0.342,0.021,0.684,0.042,1.024,0.067
					c0.608,0.043,1.134,0.355,1.469,0.811c0.411-0.39,0.985-0.599,1.592-0.535c0.34,0.037,0.679,0.076,1.018,0.117
					c0.605,0.073,1.115,0.411,1.428,0.883c0.43-0.369,1.014-0.554,1.617-0.455c0.336,0.053,0.672,0.109,1.007,0.167
					c0.603,0.103,1.096,0.465,1.385,0.953c0.448-0.346,1.037-0.5,1.637-0.375c0.334,0.07,0.667,0.143,1,0.217
					c0.597,0.133,1.07,0.52,1.334,1.022c0.464-0.323,1.062-0.449,1.653-0.293c0.331,0.087,0.661,0.176,0.991,0.269
					c0.588,0.163,1.041,0.573,1.279,1.086c0.48-0.301,1.083-0.395,1.666-0.21c0.327,0.104,0.653,0.21,0.979,0.318
					c0.581,0.193,1.015,0.628,1.227,1.155c0.496-0.278,1.107-0.342,1.679-0.129c0.322,0.121,0.644,0.243,0.965,0.368
					c0.569,0.223,0.979,0.678,1.164,1.214c0.509-0.252,1.123-0.286,1.684-0.043c0.313,0.136,0.627,0.274,0.939,0.414
					c0.56,0.25,0.947,0.725,1.105,1.27c0.518-0.225,1.133-0.23,1.682,0.042c0.308,0.152,0.614,0.306,0.919,0.46
					c0.546,0.278,0.908,0.772,1.039,1.324c0.529-0.2,1.143-0.173,1.677,0.125c0.3,0.167,0.599,0.336,0.896,0.506
					c0.53,0.305,0.868,0.815,0.971,1.373c0.54-0.173,1.149-0.116,1.668,0.208c0.291,0.182,0.581,0.365,0.868,0.55
					c0.515,0.33,0.826,0.857,0.901,1.418c0.549-0.145,1.155-0.057,1.656,0.292c0.28,0.195,0.559,0.391,0.837,0.59
					c0.498,0.355,0.784,0.897,0.832,1.462c0.556-0.117,1.156,0.001,1.64,0.375c0.269,0.209,0.537,0.418,0.805,0.63
					c0.479,0.379,0.738,0.934,0.758,1.5c0.561-0.091,1.152,0.057,1.616,0.454c0.261,0.223,0.52,0.447,0.775,0.672
					c0.459,0.402,0.69,0.969,0.682,1.535c0.57-0.062,1.15,0.114,1.594,0.534c0.248,0.234,0.494,0.47,0.739,0.707
					c0.438,0.424,0.642,1,0.605,1.565c0.569-0.031,1.142,0.171,1.563,0.612c0.236,0.248,0.473,0.496,0.706,0.746
					c0.416,0.444,0.589,1.029,0.525,1.591c0.521-0.007,1.129,0.228,1.529,0.688c0.225,0.259,0.447,0.518,0.668,0.779
					c0.394,0.465,0.538,1.057,0.447,1.615c0.564,0.022,1.116,0.283,1.493,0.761c0.212,0.27,0.422,0.54,0.629,0.812
					c0.371,0.483,0.486,1.083,0.367,1.635c0.562,0.051,1.101,0.339,1.453,0.836c0.196,0.277,0.392,0.556,0.585,0.836
					c0.348,0.502,0.434,1.107,0.288,1.653c0.559,0.079,1.082,0.393,1.409,0.905c0.184,0.288,0.365,0.579,0.545,0.868
					c0.32,0.518,0.375,1.125,0.203,1.662c0.556,0.107,1.062,0.447,1.363,0.976c0.168,0.295,0.334,0.592,0.499,0.889
					c0.295,0.533,0.321,1.144,0.122,1.673c0.549,0.133,1.038,0.499,1.312,1.041c0.152,0.305,0.304,0.608,0.453,0.914
					c0.268,0.547,0.264,1.157,0.039,1.674c0.541,0.162,1.011,0.551,1.258,1.105c0.138,0.313,0.274,0.623,0.408,0.936
					c0.24,0.559,0.205,1.166-0.043,1.672c0.53,0.189,0.979,0.6,1.197,1.164c0.124,0.323,0.246,0.645,0.365,0.967
					c0.21,0.573,0.144,1.178-0.133,1.669c0.523,0.213,0.954,0.647,1.146,1.225c0.107,0.327,0.213,0.654,0.316,0.982
					c0.182,0.582,0.084,1.185-0.216,1.663c0.514,0.24,0.922,0.695,1.083,1.285l0.264,0.982c0.156,0.591,0.03,1.193-0.296,1.658
					c0.499,0.266,0.884,0.738,1.016,1.334c0.074,0.334,0.147,0.67,0.217,1.006c0.123,0.597-0.033,1.187-0.381,1.633
					c0.486,0.289,0.848,0.783,0.949,1.385c0.058,0.337,0.113,0.677,0.165,1.018c0.093,0.602-0.093,1.182-0.461,1.609
					c0.472,0.314,0.808,0.825,0.879,1.432c0.04,0.338,0.078,0.677,0.114,1.016c0.064,0.607-0.15,1.179-0.541,1.592
					c0.455,0.336,0.766,0.863,0.807,1.472l0.063,1.017c0.036,0.611-0.206,1.175-0.617,1.565c0.437,0.358,0.721,0.899,0.733,1.508
					c0.007,0.342,0.011,0.686,0.013,1.028c0.001,0.099-0.006,0.196-0.02,0.293c0.015,0.097,0.022,0.197,0.022,0.298
					c0,0.343-0.002,0.685-0.006,1.024c-0.007,0.611-0.287,1.154-0.723,1.515c0.413,0.389,0.659,0.948,0.628,1.559l-0.056,1.016
					c-0.035,0.611-0.343,1.142-0.797,1.482c0.394,0.409,0.612,0.98,0.552,1.59l-0.106,1.011c-0.066,0.608-0.398,1.122-0.868,1.44
					c0.372,0.425,0.562,1.006,0.473,1.609c-0.051,0.34-0.103,0.68-0.158,1.018c-0.098,0.602-0.455,1.098-0.938,1.389
					c0.351,0.445,0.512,1.035,0.392,1.633c-0.066,0.336-0.136,0.67-0.207,1.003c-0.127,0.599-0.509,1.077-1.008,1.344
					c0.328,0.463,0.459,1.061,0.309,1.653l-0.256,0.984c-0.156,0.591-0.562,1.052-1.074,1.296c0.305,0.479,0.405,1.082,0.226,1.666
					c-0.101,0.327-0.203,0.653-0.307,0.976c-0.187,0.586-0.618,1.026-1.145,1.243c0.283,0.492,0.354,1.104,0.146,1.679
					c-0.117,0.323-0.236,0.643-0.357,0.963c-0.216,0.575-0.667,0.99-1.202,1.18c0.258,0.508,0.299,1.119,0.062,1.683
					c-0.133,0.317-0.269,0.632-0.404,0.944c-0.244,0.562-0.716,0.955-1.261,1.119c0.231,0.518,0.241,1.131-0.023,1.682
					c-0.148,0.31-0.3,0.619-0.453,0.927c-0.272,0.545-0.762,0.912-1.312,1.049c0.206,0.531,0.185,1.144-0.109,1.684l-0.493,0.893
					c-0.299,0.534-0.807,0.878-1.365,0.988c0.178,0.537,0.127,1.149-0.19,1.67c-0.179,0.293-0.36,0.586-0.543,0.875
					c-0.325,0.518-0.849,0.834-1.409,0.914c0.15,0.546,0.069,1.152-0.274,1.658c-0.191,0.281-0.386,0.563-0.581,0.844
					c-0.351,0.502-0.89,0.792-1.454,0.845c0.123,0.555,0.012,1.157-0.357,1.643c-0.206,0.271-0.413,0.543-0.622,0.812
					c-0.374,0.482-0.928,0.748-1.494,0.773c0.095,0.556-0.046,1.152-0.438,1.619c-0.219,0.264-0.44,0.524-0.662,0.783
					c-0.396,0.461-0.956,0.697-1.52,0.697c-0.003,0-0.007,0-0.01,0c0.068,0.563-0.103,1.15-0.517,1.598
					c-0.233,0.251-0.467,0.503-0.703,0.751c-0.421,0.442-1.014,0.645-1.559,0.617c0.039,0.565-0.16,1.143-0.596,1.568
					c-0.245,0.241-0.491,0.479-0.739,0.715c-0.441,0.42-1.021,0.596-1.585,0.542c0.011,0.566-0.217,1.133-0.674,1.538
					c-0.255,0.225-0.512,0.452-0.771,0.674c-0.461,0.398-1.051,0.551-1.611,0.463c-0.017,0.566-0.272,1.121-0.749,1.504
					c-0.266,0.213-0.533,0.424-0.803,0.635c-0.479,0.374-1.077,0.494-1.63,0.383c-0.045,0.562-0.327,1.104-0.82,1.461
					c-0.277,0.201-0.557,0.4-0.837,0.598c-0.499,0.35-1.102,0.438-1.646,0.301c-0.072,0.561-0.381,1.086-0.891,1.418
					c-0.286,0.187-0.574,0.373-0.864,0.554c-0.514,0.325-1.121,0.384-1.659,0.221c-0.101,0.557-0.436,1.066-0.962,1.372
					c-0.294,0.17-0.59,0.34-0.887,0.508c-0.529,0.299-1.14,0.33-1.668,0.139c-0.129,0.551-0.488,1.042-1.03,1.324
					c-0.301,0.154-0.604,0.309-0.906,0.461c-0.546,0.275-1.154,0.275-1.676,0.056c-0.156,0.542-0.539,1.016-1.093,1.268
					c-0.311,0.142-0.622,0.281-0.936,0.42c-0.555,0.244-1.161,0.215-1.669-0.029c-0.184,0.533-0.589,0.986-1.154,1.21
					c-0.317,0.127-0.636,0.252-0.955,0.374c-0.568,0.219-1.177,0.158-1.675-0.113c-0.209,0.527-0.638,0.961-1.216,1.158
					c-0.323,0.109-0.646,0.219-0.971,0.325c-0.583,0.19-1.188,0.099-1.671-0.198c-0.234,0.513-0.684,0.926-1.27,1.094
					c-0.33,0.095-0.66,0.188-0.991,0.277c-0.59,0.157-1.188,0.038-1.653-0.281c-0.261,0.502-0.73,0.893-1.325,1.029
					c-0.333,0.079-0.666,0.152-1.001,0.226c-0.593,0.132-1.188-0.021-1.64-0.363c-0.285,0.488-0.775,0.855-1.377,0.963l-1.003,0.173
					c-0.606,0.103-1.19-0.078-1.624-0.443c-0.31,0.474-0.818,0.816-1.425,0.892l-1.01,0.124c-0.597,0.071-1.183-0.136-1.598-0.524
					c-0.332,0.459-0.854,0.774-1.463,0.823c-0.342,0.027-0.684,0.053-1.026,0.074c-0.616,0.037-1.171-0.198-1.564-0.604
					c-0.354,0.441-0.892,0.73-1.502,0.748c-0.34,0.009-0.681,0.02-1.021,0.025C381.074,435.45,381.061,435.45,381.049,435.45z
					 M377.049,431.42c0.02,0,0.04,0,0.06,0l0.982,0.025c0.583,0.012,1.104,0.273,1.461,0.678c0.358-0.405,0.879-0.664,1.463-0.674
					c0.325-0.005,0.65-0.014,0.975-0.023c0.578-0.037,1.117,0.218,1.494,0.607c0.339-0.423,0.849-0.707,1.432-0.746
					c0.323-0.02,0.646-0.042,0.968-0.07c0.586-0.039,1.126,0.164,1.521,0.531c0.316-0.438,0.809-0.746,1.387-0.814l0.975-0.119
					c0.569-0.072,1.128,0.108,1.542,0.457c0.295-0.453,0.77-0.785,1.343-0.88l0.968-0.168c0.578-0.106,1.136,0.051,1.564,0.376
					c0.271-0.467,0.731-0.823,1.302-0.947c0.317-0.07,0.635-0.141,0.95-0.215c0.571-0.132,1.139-0.005,1.583,0.299
					c0.249-0.48,0.691-0.859,1.255-1.011c0.312-0.084,0.624-0.172,0.935-0.262c0.561-0.16,1.138-0.064,1.6,0.221
					c0.224-0.492,0.645-0.892,1.198-1.072c0.309-0.102,0.618-0.205,0.926-0.311c0.554-0.186,1.131-0.121,1.604,0.139
					c0.199-0.503,0.601-0.924,1.146-1.133c0.304-0.115,0.606-0.232,0.908-0.354c0.542-0.215,1.12-0.177,1.604,0.057
					c0.176-0.512,0.556-0.95,1.089-1.184c0.296-0.131,0.59-0.262,0.883-0.396c0.527-0.243,1.108-0.234,1.606-0.023
					c0.148-0.518,0.505-0.975,1.023-1.234c0.291-0.146,0.58-0.295,0.869-0.444c0.519-0.267,1.097-0.284,1.602-0.103
					c0.123-0.526,0.457-1,0.964-1.288c0.283-0.16,0.563-0.32,0.844-0.483c0.503-0.295,1.081-0.341,1.597-0.183
					c0.096-0.531,0.406-1.022,0.899-1.334c0.272-0.172,0.545-0.347,0.815-0.523c0.488-0.318,1.065-0.395,1.59-0.262
					c0.069-0.537,0.355-1.044,0.834-1.38c0.265-0.186,0.526-0.374,0.788-0.562c0.472-0.342,1.046-0.448,1.573-0.34
					c0.043-0.54,0.304-1.06,0.764-1.418c0.256-0.201,0.51-0.402,0.764-0.605c0.454-0.363,1.019-0.498,1.554-0.416
					c0.016-0.541,0.25-1.072,0.691-1.453c0.245-0.213,0.49-0.428,0.733-0.643c0.436-0.387,0.999-0.544,1.532-0.492
					c-0.011-0.543,0.197-1.088,0.621-1.493c0.234-0.222,0.467-0.447,0.698-0.673c0.417-0.409,0.971-0.6,1.509-0.568
					c-0.038-0.542,0.144-1.094,0.546-1.518c0.223-0.234,0.444-0.471,0.664-0.709c0.395-0.426,0.931-0.642,1.47-0.642
					c0.003,0,0.006,0,0.01,0c-0.065-0.538,0.087-1.098,0.467-1.542c0.212-0.246,0.422-0.495,0.631-0.745
					c0.375-0.449,0.905-0.691,1.447-0.714c-0.091-0.534,0.033-1.102,0.391-1.562c0.199-0.258,0.398-0.518,0.595-0.778
					c0.353-0.465,0.869-0.732,1.408-0.783c-0.117-0.529-0.021-1.102,0.312-1.581c0.188-0.267,0.372-0.537,0.556-0.806
					c0.329-0.483,0.833-0.776,1.37-0.854c-0.145-0.524-0.076-1.102,0.235-1.598c0.173-0.274,0.343-0.549,0.512-0.827
					c0.305-0.5,0.794-0.818,1.327-0.921c-0.17-0.514-0.132-1.096,0.152-1.605l0.476-0.86c0.28-0.514,0.751-0.853,1.276-0.985
					c-0.196-0.505-0.188-1.089,0.074-1.615c0.146-0.291,0.287-0.582,0.428-0.875c0.254-0.528,0.709-0.895,1.229-1.049
					c-0.221-0.497-0.241-1.078-0.008-1.613c0.13-0.299,0.258-0.601,0.385-0.901c0.228-0.541,0.663-0.927,1.175-1.109
					c-0.246-0.484-0.296-1.066-0.089-1.613c0.115-0.307,0.229-0.611,0.34-0.918c0.2-0.551,0.617-0.96,1.119-1.168
					c-0.27-0.471-0.349-1.046-0.171-1.604l0.295-0.939c0.171-0.557,0.564-0.986,1.052-1.217c-0.29-0.456-0.396-1.026-0.248-1.589
					l0.246-0.948c0.144-0.566,0.515-1.014,0.99-1.27c-0.312-0.439-0.447-1.004-0.326-1.575c0.067-0.317,0.133-0.636,0.197-0.957
					c0.114-0.572,0.463-1.037,0.926-1.318c-0.336-0.426-0.499-0.984-0.404-1.562c0.052-0.318,0.102-0.639,0.148-0.959
					c0.086-0.577,0.41-1.061,0.858-1.363c-0.354-0.406-0.546-0.955-0.482-1.533l0.103-0.976c0.059-0.581,0.358-1.079,0.791-1.402
					c-0.375-0.389-0.592-0.927-0.558-1.506l0.054-0.98c0.028-0.582,0.304-1.093,0.72-1.44c-0.394-0.37-0.638-0.898-0.631-1.482
					c0.004-0.324,0.006-0.65,0.006-0.977c0-0.094,0.007-0.187,0.02-0.278c-0.015-0.094-0.021-0.192-0.022-0.29
					c-0.002-0.322-0.006-0.646-0.013-0.969c-0.012-0.586,0.229-1.117,0.621-1.491c-0.417-0.341-0.696-0.85-0.729-1.432l-0.062-0.98
					c-0.04-0.582,0.174-1.123,0.547-1.514c-0.435-0.322-0.738-0.818-0.801-1.398c-0.034-0.322-0.07-0.646-0.108-0.969
					c-0.068-0.58,0.118-1.131,0.471-1.539c-0.452-0.301-0.78-0.783-0.869-1.363c-0.05-0.319-0.102-0.638-0.155-0.956
					c-0.098-0.576,0.061-1.136,0.394-1.563c-0.466-0.278-0.818-0.74-0.937-1.315c-0.065-0.316-0.133-0.633-0.203-0.947
					c-0.127-0.57,0.004-1.139,0.314-1.583c-0.477-0.251-0.85-0.694-0.997-1.257l-0.254-0.948c-0.154-0.562-0.052-1.134,0.235-1.591
					c-0.491-0.23-0.889-0.659-1.063-1.215c-0.096-0.309-0.195-0.617-0.297-0.924c-0.183-0.555-0.109-1.133,0.155-1.606
					c-0.503-0.204-0.921-0.611-1.123-1.162c-0.111-0.302-0.226-0.603-0.342-0.904c-0.21-0.543-0.167-1.121,0.07-1.604
					c-0.507-0.18-0.94-0.563-1.17-1.099c-0.128-0.296-0.257-0.593-0.389-0.89c-0.236-0.531-0.222-1.111-0.007-1.605
					c-0.517-0.154-0.97-0.516-1.226-1.037c-0.144-0.292-0.287-0.583-0.434-0.874c-0.262-0.52-0.275-1.097-0.086-1.604
					c-0.523-0.126-0.994-0.465-1.276-0.974c-0.157-0.283-0.315-0.566-0.476-0.85c-0.288-0.506-0.331-1.084-0.166-1.598
					c-0.531-0.102-1.02-0.419-1.326-0.915c-0.17-0.273-0.342-0.549-0.516-0.82c-0.313-0.493-0.385-1.068-0.246-1.592
					c-0.534-0.074-1.036-0.363-1.367-0.841c-0.186-0.268-0.371-0.535-0.56-0.801c-0.337-0.475-0.438-1.048-0.323-1.576
					c-0.538-0.049-1.056-0.313-1.409-0.777c-0.197-0.257-0.396-0.513-0.596-0.767c-0.361-0.459-0.49-1.026-0.402-1.561
					c-0.541-0.021-1.071-0.261-1.448-0.706c-0.209-0.248-0.42-0.493-0.633-0.738c-0.384-0.44-0.539-1.001-0.479-1.539
					c-0.536-0.003-1.084-0.208-1.482-0.634c-0.222-0.237-0.444-0.473-0.669-0.706c-0.404-0.422-0.587-0.974-0.553-1.514
					c-0.541,0.032-1.091-0.154-1.511-0.559c-0.233-0.226-0.47-0.452-0.706-0.675c-0.424-0.4-0.634-0.943-0.626-1.484
					c-0.534,0.061-1.099-0.098-1.538-0.484c-0.244-0.213-0.489-0.426-0.736-0.637c-0.444-0.379-0.682-0.912-0.7-1.453
					c-0.537,0.086-1.101-0.044-1.559-0.406c-0.256-0.203-0.513-0.404-0.771-0.604c-0.461-0.356-0.724-0.876-0.769-1.415
					c-0.528,0.109-1.103,0.011-1.576-0.328c-0.267-0.19-0.533-0.378-0.8-0.564c-0.48-0.334-0.769-0.84-0.84-1.377
					c-0.524,0.138-1.104,0.065-1.595-0.251c-0.273-0.175-0.548-0.349-0.823-0.521c-0.497-0.31-0.811-0.802-0.908-1.335
					c-0.518,0.165-1.097,0.12-1.605-0.171c-0.281-0.161-0.564-0.322-0.849-0.479c-0.512-0.286-0.85-0.762-0.975-1.29
					c-0.508,0.19-1.09,0.176-1.612-0.09c-0.289-0.148-0.58-0.293-0.872-0.438c-0.525-0.258-0.886-0.717-1.037-1.238
					c-0.498,0.216-1.082,0.23-1.613-0.008c-0.299-0.134-0.597-0.266-0.896-0.395c-0.537-0.233-0.921-0.673-1.097-1.187
					c-0.486,0.241-1.067,0.284-1.616,0.071c-0.302-0.118-0.605-0.233-0.91-0.348c-0.549-0.205-0.955-0.626-1.157-1.131
					c-0.473,0.265-1.052,0.337-1.609,0.154c-0.309-0.103-0.619-0.204-0.931-0.303c-0.557-0.177-0.981-0.575-1.209-1.066
					c-0.459,0.288-1.031,0.388-1.596,0.23c-0.312-0.086-0.625-0.171-0.938-0.253c-0.564-0.149-1.009-0.525-1.261-1.004
					c-0.443,0.308-1.014,0.438-1.58,0.31c-0.317-0.07-0.635-0.14-0.953-0.206c-0.571-0.121-1.033-0.474-1.309-0.939
					c-0.428,0.33-0.987,0.488-1.561,0.389c-0.321-0.054-0.644-0.108-0.966-0.161c-0.575-0.091-1.055-0.421-1.353-0.871
					c-0.411,0.352-0.967,0.537-1.542,0.466c-0.321-0.039-0.645-0.076-0.969-0.111c-0.58-0.062-1.075-0.368-1.396-0.805
					c-0.393,0.373-0.928,0.593-1.519,0.542c-0.323-0.023-0.647-0.044-0.972-0.063c-0.583-0.035-1.093-0.315-1.435-0.735
					c-0.374,0.391-0.91,0.631-1.488,0.616c-0.325-0.007-0.65-0.012-0.977-0.016c-0.584-0.006-1.106-0.262-1.468-0.664
					c-0.354,0.408-0.872,0.672-1.455,0.688c-0.325,0.009-0.65,0.02-0.976,0.033c-0.58,0.015-1.118-0.208-1.498-0.592
					c-0.334,0.425-0.839,0.715-1.421,0.759c-0.324,0.024-0.648,0.052-0.973,0.08c-0.581,0.056-1.126-0.151-1.525-0.516
					c-0.313,0.442-0.806,0.756-1.386,0.828c-0.321,0.04-0.642,0.083-0.962,0.127c-0.579,0.081-1.134-0.095-1.551-0.44
					c-0.29,0.456-0.764,0.794-1.339,0.896c-0.32,0.057-0.641,0.115-0.96,0.176c-0.571,0.108-1.135-0.039-1.568-0.361
					c-0.268,0.47-0.725,0.831-1.295,0.961c-0.316,0.072-0.631,0.146-0.944,0.223c-0.566,0.136-1.138,0.02-1.587-0.283
					c-0.244,0.483-0.683,0.867-1.245,1.025c-0.312,0.088-0.623,0.177-0.934,0.27c-0.559,0.165-1.136,0.076-1.6-0.204
					c-0.219,0.494-0.635,0.898-1.187,1.085c-0.31,0.104-0.618,0.21-0.926,0.318c-0.549,0.192-1.128,0.131-1.605-0.124
					c-0.193,0.503-0.59,0.928-1.131,1.142c-0.303,0.12-0.606,0.242-0.908,0.365c-0.538,0.22-1.116,0.188-1.604-0.04
					c-0.169,0.512-0.543,0.954-1.073,1.193c-0.295,0.134-0.59,0.269-0.884,0.406c-0.524,0.247-1.104,0.245-1.605,0.04
					c-0.144,0.521-0.496,0.981-1.015,1.247c-0.287,0.147-0.573,0.297-0.858,0.448c-0.514,0.274-1.095,0.301-1.604,0.12
					c-0.117,0.527-0.447,1.005-0.951,1.297c-0.28,0.162-0.56,0.326-0.838,0.491c-0.5,0.298-1.08,0.353-1.597,0.198
					c-0.091,0.532-0.395,1.025-0.883,1.342l-0.816,0.536c-0.486,0.321-1.058,0.402-1.584,0.275
					c-0.063,0.537-0.345,1.046-0.818,1.387c-0.264,0.189-0.524,0.38-0.785,0.572c-0.47,0.347-1.041,0.456-1.569,0.355
					c-0.038,0.54-0.293,1.063-0.75,1.426c-0.253,0.202-0.505,0.406-0.756,0.611c-0.451,0.37-1.015,0.508-1.552,0.432
					c-0.011,0.541-0.239,1.075-0.677,1.461c-0.244,0.215-0.486,0.432-0.728,0.65c-0.433,0.391-0.986,0.556-1.527,0.507
					c0.017,0.542-0.187,1.088-0.605,1.495c-0.232,0.226-0.463,0.453-0.691,0.682c-0.414,0.414-0.962,0.609-1.504,0.584
					c0.044,0.541-0.132,1.097-0.531,1.525c-0.221,0.236-0.439,0.474-0.656,0.713c-0.392,0.433-0.931,0.655-1.473,0.658
					c0.07,0.537-0.077,1.101-0.454,1.548c-0.21,0.249-0.417,0.499-0.624,0.75c-0.371,0.451-0.897,0.698-1.438,0.727
					c0.097,0.533-0.022,1.104-0.376,1.569c-0.197,0.258-0.392,0.518-0.584,0.778c-0.349,0.471-0.863,0.745-1.403,0.8
					c0.123,0.527,0.033,1.103-0.297,1.585c-0.185,0.268-0.366,0.54-0.548,0.812c-0.324,0.484-0.824,0.783-1.36,0.865
					c0.15,0.521,0.088,1.102-0.219,1.6c-0.17,0.277-0.338,0.554-0.504,0.834c-0.3,0.502-0.786,0.826-1.317,0.934
					c0.175,0.513,0.143,1.095-0.138,1.607c-0.157,0.287-0.312,0.575-0.466,0.864c-0.274,0.515-0.743,0.861-1.268,0.996
					c0.201,0.505,0.197,1.091-0.06,1.619c-0.142,0.291-0.281,0.582-0.418,0.875c-0.248,0.531-0.7,0.902-1.219,1.062
					c0.226,0.495,0.252,1.075,0.025,1.613c-0.128,0.301-0.254,0.604-0.378,0.907c-0.223,0.543-0.655,0.934-1.165,1.122
					c0.251,0.478,0.307,1.059,0.107,1.606l-0.333,0.929c-0.194,0.553-0.606,0.965-1.106,1.175c0.275,0.469,0.36,1.047,0.187,1.605
					c-0.096,0.311-0.19,0.623-0.283,0.935c-0.165,0.56-0.554,0.992-1.039,1.228c0.296,0.456,0.407,1.026,0.263,1.592
					c-0.081,0.314-0.159,0.626-0.235,0.941c-0.137,0.568-0.504,1.022-0.978,1.283c0.317,0.437,0.458,1.002,0.342,1.575
					c-0.064,0.318-0.128,0.637-0.188,0.957c-0.109,0.572-0.453,1.043-0.913,1.327c0.34,0.421,0.508,0.978,0.421,1.554
					c-0.049,0.322-0.096,0.645-0.141,0.967c-0.08,0.578-0.4,1.062-0.845,1.371c0.36,0.404,0.557,0.953,0.496,1.535
					c-0.033,0.323-0.063,0.645-0.092,0.967c-0.051,0.582-0.347,1.082-0.776,1.412c0.38,0.387,0.603,0.924,0.571,1.508
					c-0.017,0.324-0.031,0.646-0.043,0.971c-0.022,0.584-0.293,1.1-0.707,1.449c0.396,0.365,0.646,0.89,0.646,1.472l0.004,0.977
					c0.007,0.586-0.239,1.115-0.635,1.484c0.415,0.348,0.689,0.859,0.717,1.443c0.015,0.327,0.032,0.65,0.051,0.974
					c0.035,0.583-0.184,1.124-0.561,1.51c0.433,0.328,0.731,0.828,0.786,1.41c0.03,0.322,0.063,0.645,0.099,0.965
					c0.063,0.581-0.129,1.131-0.485,1.537c0.448,0.305,0.771,0.789,0.855,1.367c0.046,0.32,0.096,0.641,0.146,0.959
					c0.093,0.578-0.072,1.136-0.409,1.56c0.461,0.281,0.808,0.746,0.922,1.316l0.196,0.963c0.12,0.57-0.017,1.135-0.33,1.574
					c0.475,0.258,0.844,0.705,0.985,1.271c0.079,0.315,0.16,0.632,0.243,0.946c0.149,0.564,0.041,1.135-0.251,1.589
					c0.486,0.234,0.878,0.663,1.048,1.219l0.291,0.936c0.177,0.557,0.098,1.133-0.172,1.602c0.501,0.208,0.915,0.619,1.112,1.172
					c0.108,0.303,0.22,0.605,0.333,0.906c0.205,0.545,0.156,1.125-0.087,1.605c0.506,0.186,0.936,0.573,1.159,1.109
					c0.125,0.3,0.251,0.597,0.38,0.893c0.23,0.534,0.211,1.114-0.008,1.606c0.514,0.16,0.963,0.523,1.214,1.049
					c0.141,0.292,0.282,0.585,0.426,0.876c0.257,0.522,0.265,1.102,0.07,1.604c0.522,0.135,0.989,0.477,1.266,0.989
					c0.154,0.287,0.311,0.57,0.468,0.854c0.283,0.51,0.32,1.087,0.15,1.599c0.528,0.107,1.012,0.425,1.314,0.922
					c0.169,0.279,0.339,0.555,0.511,0.832c0.309,0.494,0.374,1.073,0.229,1.592c0.534,0.079,1.033,0.375,1.36,0.857
					c0.183,0.27,0.366,0.537,0.551,0.804c0.332,0.479,0.426,1.054,0.308,1.579c0.537,0.055,1.051,0.325,1.401,0.789
					c0.195,0.262,0.392,0.52,0.589,0.775c0.356,0.463,0.479,1.031,0.387,1.563c0.539,0.027,1.066,0.271,1.438,0.719
					c0.209,0.252,0.419,0.5,0.63,0.749c0.378,0.444,0.527,1.004,0.462,1.54c0.541,0,1.08,0.219,1.475,0.648
					c0.219,0.241,0.438,0.477,0.661,0.711c0.4,0.425,0.579,0.98,0.539,1.521c0.559-0.027,1.091,0.164,1.506,0.574
					c0.231,0.229,0.464,0.455,0.698,0.682c0.42,0.405,0.625,0.949,0.611,1.489c0.544-0.053,1.097,0.109,1.533,0.5
					c0.243,0.217,0.486,0.432,0.731,0.644c0.44,0.385,0.672,0.918,0.685,1.461c0.541-0.078,1.102,0.054,1.556,0.422
					c0.254,0.206,0.508,0.407,0.763,0.608c0.459,0.36,0.718,0.885,0.757,1.425c0.531-0.108,1.103-0.002,1.574,0.341
					c0.263,0.194,0.526,0.383,0.792,0.573c0.478,0.338,0.762,0.848,0.828,1.387c0.522-0.135,1.1-0.055,1.588,0.264
					c0.273,0.18,0.548,0.358,0.823,0.533c0.492,0.314,0.801,0.809,0.894,1.342c0.518-0.159,1.103-0.11,1.605,0.189
					c0.279,0.164,0.56,0.327,0.841,0.486c0.509,0.29,0.843,0.77,0.962,1.299c0.507-0.186,1.091-0.166,1.607,0.103l0.876,0.45
					c0.521,0.266,0.876,0.727,1.021,1.248c0.5-0.21,1.083-0.219,1.615,0.026c0.295,0.136,0.592,0.269,0.89,0.401
					c0.535,0.239,0.915,0.682,1.086,1.196c0.49-0.237,1.072-0.276,1.62-0.053c0.299,0.122,0.6,0.239,0.902,0.354
					c0.548,0.21,0.949,0.636,1.146,1.142c0.479-0.259,1.061-0.328,1.617-0.135c0.305,0.105,0.611,0.209,0.92,0.309
					c0.555,0.184,0.977,0.584,1.199,1.078c0.463-0.281,1.037-0.375,1.599-0.212c0.311,0.09,0.622,0.175,0.934,0.261
					c0.564,0.155,1.005,0.535,1.252,1.016c0.449-0.305,1.019-0.432,1.587-0.292c0.314,0.072,0.631,0.144,0.948,0.214
					c0.57,0.127,1.028,0.485,1.3,0.954c0.43-0.327,0.988-0.477,1.566-0.374c0.318,0.06,0.639,0.114,0.96,0.168
					c0.575,0.098,1.051,0.432,1.345,0.885c0.417-0.347,0.981-0.525,1.55-0.449c0.32,0.042,0.642,0.082,0.963,0.119
					c0.58,0.068,1.073,0.378,1.39,0.818c0.396-0.367,0.94-0.581,1.524-0.528c0.322,0.028,0.645,0.051,0.968,0.075
					c0.583,0.038,1.091,0.324,1.429,0.747C375.984,431.649,376.492,431.42,377.049,431.42z"/>
			</g>
		</g>
		<g>
			<circle fill="#97918B" cx="379.659" cy="353.021" r="79.861"/>
		</g>
		<g>
			<g>
				<path fill="#BDBFCB" d="M383.72,428.644c-1.054,0-1.937-0.825-1.995-1.891c-0.061-1.102,0.784-2.046,1.887-2.108
					c0.328-0.018,0.655-0.036,0.981-0.058c1.091-0.092,2.056,0.76,2.129,1.862c0.074,1.101-0.759,2.054-1.861,2.129
					c-0.342,0.023-0.685,0.042-1.028,0.062C383.795,428.642,383.757,428.644,383.72,428.644z M374.667,428.586
					c-0.045,0-0.09,0-0.136-0.004c-0.345-0.023-0.689-0.049-1.033-0.076c-1.101-0.09-1.92-1.057-1.83-2.157
					c0.09-1.102,1.05-1.93,2.156-1.83c0.324,0.026,0.649,0.049,0.975,0.073c1.103,0.072,1.936,1.025,1.861,2.128
					C376.59,427.777,375.711,428.586,374.667,428.586z M393.705,427.417c-0.94,0-1.778-0.666-1.962-1.623
					c-0.209-1.084,0.502-2.133,1.586-2.342c0.32-0.06,0.64-0.125,0.957-0.191c1.085-0.223,2.141,0.468,2.366,1.55
					c0.226,1.083-0.469,2.141-1.55,2.366c-0.339,0.07-0.678,0.138-1.018,0.203C393.957,427.405,393.83,427.417,393.705,427.417z
					 M364.699,427.235c-0.133,0-0.268-0.014-0.403-0.042c-0.339-0.069-0.677-0.142-1.015-0.216c-1.078-0.239-1.76-1.305-1.521-2.385
					c0.237-1.078,1.3-1.762,2.385-1.522c0.316,0.071,0.635,0.139,0.954,0.206c1.082,0.221,1.779,1.277,1.558,2.359
					C366.462,426.583,365.629,427.235,364.699,427.235z M403.431,424.838c-0.832,0-1.608-0.523-1.893-1.355
					c-0.357-1.045,0.201-2.182,1.246-2.539c0.31-0.106,0.62-0.214,0.929-0.323c1.04-0.367,2.185,0.174,2.554,1.215
					c0.369,1.042-0.175,2.185-1.216,2.555c-0.324,0.115-0.648,0.226-0.974,0.337C403.864,424.803,403.645,424.838,403.431,424.838z
					 M355,424.53c-0.222,0-0.446-0.037-0.667-0.115c-0.327-0.117-0.652-0.234-0.978-0.355c-1.036-0.383-1.564-1.535-1.182-2.571
					c0.384-1.035,1.538-1.562,2.57-1.181c0.308,0.115,0.615,0.226,0.923,0.336c1.041,0.369,1.587,1.511,1.219,2.553
					C356.595,424.016,355.824,424.53,355,424.53z M412.713,420.948c-0.732,0-1.438-0.402-1.788-1.1
					c-0.497-0.988-0.1-2.189,0.887-2.686c0.291-0.146,0.581-0.295,0.871-0.445c0.978-0.511,2.187-0.129,2.696,0.852
					s0.128,2.188-0.853,2.697c-0.304,0.159-0.609,0.315-0.916,0.469C413.322,420.879,413.015,420.948,412.713,420.948z
					 M345.762,420.518c-0.311,0-0.626-0.072-0.92-0.226c-0.306-0.159-0.611-0.318-0.914-0.481c-0.974-0.521-1.341-1.732-0.82-2.707
					c0.521-0.974,1.731-1.339,2.707-0.82c0.289,0.154,0.579,0.307,0.871,0.459c0.98,0.509,1.362,1.717,0.853,2.697
					C347.183,420.126,346.485,420.518,345.762,420.518z M421.368,415.833c-0.636,0-1.261-0.303-1.648-0.865
					c-0.627-0.91-0.397-2.157,0.512-2.782c0.27-0.187,0.537-0.373,0.805-0.562c0.903-0.639,2.15-0.424,2.787,0.478
					c0.638,0.902,0.424,2.15-0.479,2.788c-0.279,0.199-0.561,0.394-0.844,0.589C422.154,415.717,421.758,415.833,421.368,415.833z
					 M337.164,415.284c-0.399,0-0.803-0.119-1.154-0.367c-0.28-0.199-0.561-0.398-0.839-0.602c-0.894-0.648-1.092-1.9-0.442-2.793
					c0.649-0.892,1.898-1.091,2.794-0.443c0.265,0.193,0.531,0.384,0.8,0.575c0.901,0.637,1.114,1.887,0.476,2.788
					C338.408,414.991,337.791,415.284,337.164,415.284z M429.25,409.586c-0.544,0-1.086-0.221-1.48-0.654
					c-0.743-0.818-0.684-2.082,0.134-2.827c0.241-0.218,0.481-0.439,0.719-0.661c0.806-0.754,2.072-0.714,2.827,0.091
					c0.755,0.807,0.713,2.073-0.093,2.829c-0.253,0.236-0.507,0.468-0.762,0.701C430.211,409.415,429.729,409.586,429.25,409.586z
					 M329.36,408.932c-0.49,0-0.981-0.178-1.367-0.539c-0.251-0.236-0.501-0.473-0.749-0.709c-0.797-0.766-0.823-2.031-0.059-2.829
					c0.765-0.796,2.031-0.824,2.828-0.058c0.236,0.227,0.475,0.451,0.714,0.676c0.806,0.754,0.848,2.02,0.093,2.826
					C330.426,408.719,329.893,408.932,329.36,408.932z M436.215,402.327c-0.454,0-0.911-0.154-1.286-0.469
					c-0.845-0.712-0.955-1.973-0.244-2.818c0.209-0.248,0.416-0.498,0.621-0.752c0.695-0.857,1.957-0.986,2.813-0.289
					c0.856,0.695,0.987,1.955,0.29,2.812c-0.219,0.271-0.439,0.538-0.662,0.803C437.352,402.084,436.786,402.327,436.215,402.327z
					 M322.489,401.584c-0.58,0-1.155-0.25-1.551-0.734c-0.217-0.268-0.432-0.535-0.646-0.804c-0.688-0.864-0.544-2.123,0.32-2.811
					c0.864-0.684,2.122-0.544,2.811,0.32c0.203,0.255,0.408,0.512,0.615,0.766c0.698,0.856,0.57,2.115-0.285,2.814
					C323.38,401.438,322.933,401.584,322.489,401.584z M442.136,394.19c-0.364,0-0.732-0.1-1.062-0.307
					c-0.936-0.588-1.217-1.824-0.629-2.757c0.174-0.278,0.346-0.555,0.516-0.834c0.573-0.944,1.803-1.245,2.748-0.668
					c0.943,0.574,1.242,1.804,0.668,2.748c-0.18,0.295-0.361,0.59-0.545,0.883C443.452,393.858,442.801,394.19,442.136,394.19z
					 M316.678,393.376c-0.674,0-1.332-0.34-1.709-0.958c-0.18-0.294-0.358-0.589-0.533-0.889c-0.562-0.952-0.245-2.176,0.707-2.738
					c0.948-0.562,2.177-0.246,2.738,0.707c0.165,0.279,0.332,0.557,0.502,0.834c0.575,0.944,0.278,2.174-0.664,2.75
					C317.393,393.282,317.034,393.376,316.678,393.376z M446.896,385.321c-0.273,0-0.551-0.057-0.816-0.176
					c-1.008-0.451-1.459-1.632-1.008-2.642l0.401-0.906c0.442-1.012,1.622-1.472,2.634-1.034c1.012,0.444,1.474,1.622,1.032,2.635
					l-0.417,0.939C448.39,384.879,447.661,385.321,446.896,385.321z M312.039,384.458c-0.771,0-1.506-0.449-1.834-1.201
					c-0.138-0.314-0.273-0.631-0.406-0.947c-0.427-1.02,0.053-2.192,1.071-2.619c1.02-0.426,2.19,0.055,2.618,1.072
					c0.125,0.298,0.253,0.598,0.383,0.895c0.441,1.013-0.021,2.191-1.033,2.633C312.577,384.403,312.305,384.458,312.039,384.458z
					 M450.4,375.879c-0.185,0-0.373-0.026-0.56-0.08c-1.061-0.308-1.67-1.418-1.361-2.479l0.271-0.951
					c0.299-1.062,1.403-1.684,2.467-1.385c1.063,0.299,1.684,1.405,1.385,2.467l-0.283,0.986
					C452.065,375.311,451.266,375.879,450.4,375.879z M308.661,374.985c-0.874,0-1.677-0.578-1.925-1.46
					c-0.093-0.332-0.185-0.666-0.273-1c-0.282-1.068,0.354-2.163,1.421-2.446c1.071-0.281,2.162,0.354,2.446,1.42
					c0.083,0.316,0.169,0.631,0.258,0.944c0.299,1.064-0.321,2.168-1.385,2.467C309.022,374.96,308.839,374.985,308.661,374.985z
					 M452.573,366.055c-0.1,0-0.199-0.006-0.3-0.021c-1.092-0.164-1.845-1.182-1.681-2.275c0.048-0.323,0.095-0.645,0.138-0.967
					c0.148-1.096,1.163-1.854,2.25-1.715c1.095,0.148,1.862,1.153,1.715,2.25c-0.047,0.341-0.096,0.684-0.147,1.025
					C454.399,365.344,453.545,366.055,452.573,366.055z M306.612,365.133c-0.982,0-1.84-0.724-1.979-1.726
					c-0.047-0.342-0.091-0.684-0.134-1.028c-0.135-1.098,0.646-2.096,1.741-2.23c1.093-0.123,2.095,0.645,2.229,1.743
					c0.039,0.324,0.081,0.646,0.126,0.969c0.151,1.093-0.613,2.103-1.708,2.255C306.795,365.127,306.704,365.133,306.612,365.133z
					 M453.384,356.028c-0.011,0-0.021,0-0.03,0c-1.104-0.016-1.986-0.925-1.971-2.03c0.005-0.324,0.007-0.65,0.007-0.977v-0.15
					c0-1.104,0.896-2,2-2s2,0.896,2,2v0.15c0,0.346-0.002,0.692-0.007,1.036C455.367,355.153,454.475,356.028,453.384,356.028z
					 M305.927,355.06c-1.104,0-2-0.858-2-1.963v-0.075c0-0.32,0.002-0.638,0.006-0.957c0.014-1.105,0.934-1.986,2.025-1.974
					c1.104,0.013,1.988,0.92,1.975,2.025c-0.004,0.301-0.006,0.604-0.006,0.906C307.927,354.126,307.032,355.06,305.927,355.06z
					 M452.82,345.834c-0.995,0-1.857-0.742-1.982-1.756c-0.039-0.322-0.082-0.646-0.127-0.968c-0.151-1.094,0.613-2.104,1.708-2.255
					c1.083-0.152,2.104,0.612,2.255,1.707c0.047,0.342,0.092,0.686,0.135,1.028c0.135,1.095-0.645,2.093-1.741,2.23
					C452.984,345.831,452.902,345.834,452.82,345.834z M306.597,345.06c-0.09,0-0.18-0.006-0.271-0.018
					c-1.095-0.148-1.862-1.157-1.715-2.25c0.047-0.344,0.095-0.687,0.146-1.028c0.164-1.091,1.191-1.85,2.274-1.68
					c1.092,0.162,1.845,1.182,1.681,2.274c-0.048,0.322-0.094,0.644-0.137,0.969C308.441,344.331,307.583,345.06,306.597,345.06z
					 M450.902,335.96c-0.883,0-1.691-0.59-1.931-1.482c-0.085-0.316-0.172-0.634-0.261-0.948c-0.299-1.064,0.321-2.168,1.385-2.467
					c1.062-0.3,2.168,0.321,2.467,1.386c0.093,0.329,0.184,0.662,0.272,0.994c0.286,1.066-0.347,2.161-1.414,2.449
					C451.248,335.938,451.073,335.96,450.902,335.96z M308.622,335.206c-0.177,0-0.357-0.026-0.536-0.075
					c-1.064-0.297-1.688-1.398-1.392-2.463c0.093-0.334,0.188-0.666,0.285-0.998c0.311-1.058,1.426-1.666,2.483-1.352
					c1.06,0.311,1.665,1.424,1.353,2.482c-0.092,0.312-0.181,0.625-0.268,0.938C310.301,334.626,309.498,335.206,308.622,335.206z
					 M447.647,326.442c-0.78,0-1.521-0.459-1.844-1.223c-0.127-0.301-0.255-0.602-0.386-0.9c-0.441-1.014,0.021-2.192,1.033-2.633
					c1.016-0.44,2.191,0.022,2.633,1.034c0.137,0.312,0.272,0.629,0.405,0.943c0.43,1.018-0.047,2.191-1.064,2.621
					C448.17,326.392,447.906,326.442,447.647,326.442z M311.98,325.717c-0.266,0-0.535-0.055-0.795-0.166
					c-1.013-0.439-1.479-1.617-1.039-2.631c0.138-0.318,0.277-0.635,0.42-0.951c0.454-1.006,1.637-1.453,2.646-1
					c1.007,0.454,1.455,1.639,1.001,2.645c-0.135,0.299-0.267,0.597-0.396,0.898C313.489,325.266,312.752,325.717,311.98,325.717z
					 M443.123,317.465c-0.683,0-1.349-0.352-1.722-0.98c-0.167-0.281-0.335-0.558-0.505-0.838c-0.576-0.94-0.28-2.171,0.662-2.75
					c0.944-0.576,2.174-0.279,2.75,0.663c0.18,0.294,0.357,0.587,0.532,0.885c0.563,0.949,0.251,2.177-0.699,2.74
					C443.821,317.374,443.469,317.465,443.123,317.465z M316.609,316.776c-0.354,0-0.712-0.094-1.037-0.292
					c-0.943-0.575-1.244-1.805-0.67-2.748c0.18-0.296,0.361-0.59,0.545-0.883c0.588-0.935,1.825-1.216,2.758-0.63
					c0.936,0.587,1.218,1.822,0.631,2.757c-0.174,0.276-0.346,0.553-0.516,0.832C317.944,316.434,317.285,316.776,316.609,316.776z
					 M437.415,309.184c-0.588,0-1.17-0.257-1.565-0.752c-0.204-0.257-0.409-0.513-0.616-0.766c-0.698-0.856-0.57-2.116,0.285-2.814
					c0.857-0.699,2.115-0.57,2.814,0.286c0.217,0.266,0.432,0.533,0.646,0.8c0.688,0.864,0.546,2.123-0.318,2.811
					C438.292,309.042,437.852,309.184,437.415,309.184z M322.412,308.551c-0.443,0-0.89-0.146-1.261-0.448
					c-0.856-0.696-0.987-1.957-0.29-2.813c0.217-0.268,0.437-0.533,0.657-0.798c0.709-0.848,1.969-0.961,2.817-0.253
					c0.848,0.708,0.961,1.969,0.253,2.816c-0.209,0.251-0.417,0.503-0.624,0.757C323.57,308.299,322.993,308.551,322.412,308.551z
					 M430.635,301.752c-0.498,0-0.996-0.185-1.384-0.556c-0.234-0.225-0.472-0.449-0.711-0.671
					c-0.809-0.752-0.854-2.018-0.102-2.827c0.753-0.81,2.021-0.854,2.826-0.102c0.253,0.236,0.504,0.473,0.753,0.711
					c0.798,0.764,0.825,2.03,0.062,2.828C431.687,301.546,431.162,301.752,430.635,301.752z M329.274,301.191
					c-0.533,0-1.066-0.213-1.46-0.633c-0.755-0.806-0.713-2.072,0.093-2.827c0.252-0.236,0.505-0.469,0.759-0.701
					c0.818-0.746,2.083-0.685,2.826,0.131c0.744,0.816,0.686,2.081-0.131,2.825c-0.242,0.22-0.481,0.441-0.72,0.665
					C330.255,301.013,329.764,301.191,329.274,301.191z M422.909,295.303c-0.406,0-0.816-0.124-1.171-0.38
					c-0.267-0.193-0.533-0.383-0.802-0.573c-0.901-0.637-1.116-1.885-0.479-2.788c0.638-0.901,1.885-1.118,2.788-0.479
					c0.28,0.198,0.561,0.397,0.839,0.6c0.895,0.647,1.095,1.898,0.447,2.792C424.139,295.016,423.529,295.303,422.909,295.303z
					 M337.068,294.83c-0.627,0-1.243-0.293-1.634-0.843c-0.639-0.901-0.426-2.149,0.476-2.789c0.281-0.199,0.563-0.396,0.848-0.593
					c0.91-0.625,2.156-0.395,2.781,0.516c0.625,0.91,0.395,2.155-0.516,2.781c-0.269,0.184-0.535,0.371-0.801,0.559
					C337.872,294.71,337.467,294.83,337.068,294.83z M414.378,289.962c-0.317,0-0.639-0.075-0.938-0.235
					c-0.29-0.154-0.581-0.308-0.873-0.459c-0.98-0.508-1.364-1.715-0.856-2.695c0.51-0.98,1.715-1.364,2.696-0.856
					c0.306,0.158,0.61,0.319,0.914,0.48c0.975,0.52,1.344,1.731,0.824,2.706C415.786,289.577,415.094,289.962,414.378,289.962z
					 M345.649,289.587c-0.723,0-1.42-0.393-1.776-1.078c-0.51-0.98-0.128-2.188,0.853-2.697c0.304-0.158,0.608-0.314,0.914-0.469
					c0.987-0.499,2.189-0.102,2.687,0.884c0.498,0.986,0.103,2.189-0.884,2.687c-0.292,0.147-0.583,0.296-0.873,0.447
					C346.275,289.515,345.959,289.587,345.649,289.587z M405.197,285.834c-0.23,0-0.464-0.04-0.692-0.124
					c-0.308-0.114-0.616-0.226-0.925-0.334c-1.041-0.369-1.587-1.512-1.219-2.553c0.37-1.042,1.514-1.585,2.553-1.219
					c0.326,0.116,0.65,0.233,0.976,0.354c1.036,0.382,1.566,1.532,1.184,2.568C406.775,285.334,406.01,285.834,405.197,285.834z
					 M354.865,285.563c-0.821,0-1.591-0.509-1.883-1.327c-0.372-1.04,0.169-2.185,1.209-2.557c0.325-0.116,0.651-0.23,0.978-0.341
					c1.045-0.36,2.182,0.202,2.539,1.246c0.357,1.045-0.201,2.182-1.246,2.54c-0.309,0.104-0.617,0.212-0.923,0.322
					C355.316,285.526,355.088,285.563,354.865,285.563z M395.535,283.004c-0.142,0-0.285-0.015-0.43-0.047
					c-0.319-0.07-0.639-0.138-0.959-0.203c-1.082-0.222-1.779-1.278-1.558-2.36c0.221-1.082,1.272-1.784,2.36-1.559
					c0.338,0.069,0.675,0.141,1.012,0.215c1.079,0.236,1.762,1.302,1.526,2.381C397.282,282.366,396.454,283.004,395.535,283.004z
					 M364.548,282.841c-0.928,0-1.76-0.649-1.956-1.593c-0.226-1.082,0.469-2.141,1.55-2.366c0.338-0.07,0.676-0.139,1.015-0.204
					c1.086-0.21,2.134,0.498,2.345,1.583c0.21,1.084-0.499,2.134-1.583,2.344c-0.321,0.062-0.642,0.127-0.96,0.193
					C364.821,282.827,364.683,282.841,364.548,282.841z M385.583,281.525c-0.053,0-0.105-0.002-0.159-0.006
					c-0.325-0.025-0.651-0.049-0.978-0.07c-1.103-0.072-1.938-1.025-1.865-2.127c0.072-1.103,1.014-1.945,2.127-1.865
					c0.344,0.022,0.688,0.047,1.03,0.075c1.102,0.087,1.924,1.05,1.837,2.151C387.493,280.73,386.617,281.525,385.583,281.525z
					 M374.514,281.467c-1.042,0-1.921-0.808-1.993-1.863c-0.076-1.102,0.756-2.057,1.858-2.132c0.343-0.024,0.687-0.045,1.031-0.064
					c1.098-0.053,2.047,0.784,2.107,1.887s-0.784,2.046-1.887,2.108c-0.327,0.018-0.653,0.038-0.979,0.06
					C374.607,281.466,374.56,281.467,374.514,281.467z"/>
			</g>
		</g>
		<g>
			<circle fill="#979AA3" cx="379.659" cy="353.021" r="68.077"/>
		</g>
		<g>
			<path fill="#ADAFBE" d="M379.659,289.944c-36.76,0-66.696,29.14-68.014,65.577c1.317,36.44,31.254,65.577,68.014,65.577
				s66.696-29.136,68.014-65.577C446.355,319.084,416.418,289.944,379.659,289.944z"/>
		</g>
		<g>
			<path fill="#BDBFCB" d="M311.645,355.521c0.431,11.905,3.932,23.022,9.712,32.605c15.666,13.234,35.899,21.229,58.017,21.229
				c22.662,0,43.358-8.38,59.178-22.203c5.433-9.359,8.705-20.131,9.121-31.631c-1.317-36.437-31.254-65.577-68.014-65.577
				S312.962,319.084,311.645,355.521z"/>
		</g>
		<g>
			<g>
				<polygon fill="#AA0E00" points="358.842,311.268 358.847,311.277 358.851,311.284 				"/>
			</g>
			<g>
				<polygon fill="#AA0E00" points="340.753,327.27 340.763,327.276 340.771,327.28 				"/>
			</g>
			<g>
				<polygon fill="#AA0E00" points="333.09,350.175 333.095,350.175 333.109,350.175 				"/>
			</g>
			<g>
				<path fill="#AA0E00" d="M337.906,373.841h0.002c0.006-0.002,0.008-0.006,0.014-0.01L337.906,373.841z"/>
			</g>
			<g>
				<polygon fill="#AA0E00" points="353.909,391.931 353.91,391.928 353.917,391.913 				"/>
			</g>
			<g>
				<path fill="#852C2E" d="M425.136,354.69c1.944-0.384,3.816-1.018,5.577-1.808c-1.888,0.43-3.796,0.677-5.69,0.673
					c-1.893,0.003-3.792-0.201-5.719-0.388l0.187,0.017c-3.916-1.05-7.73-2.517-11.952-3.519c-2.111-0.495-4.336-0.85-6.644-0.908
					c-1.148-0.026-2.309,0.017-3.473,0.138c-0.208-0.906-0.484-1.786-0.822-2.633c0.209-0.256,0.422-0.513,0.649-0.757
					c0.597-0.658,1.247-1.277,1.944-1.861c1.391-1.167,2.985-2.193,4.707-3.113c3.454-1.838,7.377-3.301,11.135-5.15l0.185-0.091
					l-0.015,0.012c1.57-1.129,3.189-2.264,4.673-3.574c1.492-1.306,2.794-2.79,3.927-4.354c-1.422,1.317-2.951,2.484-4.594,3.43
					c-1.637,0.949-3.384,1.724-5.146,2.524l0.17-0.079c-3.917,1.047-7.951,1.684-12.109,2.929c-2.076,0.626-4.18,1.432-6.208,2.537
					c-1.01,0.549-1.996,1.169-2.944,1.857c-0.627-0.673-1.302-1.3-2.024-1.868c0.055-0.328,0.11-0.661,0.185-0.986
					c0.188-0.869,0.442-1.728,0.754-2.582c0.622-1.707,1.488-3.394,2.52-5.049c2.071-3.32,4.739-6.549,7.068-10.029l0.115-0.169
					l-0.005,0.017c0.794-1.766,1.627-3.557,2.256-5.434c0.641-1.876,1.026-3.812,1.224-5.734c-0.572,1.853-1.312,3.627-2.264,5.268
					c-0.942,1.639-2.068,3.184-3.192,4.758l0.106-0.154c-2.868,2.867-6.045,5.436-9.024,8.593c-1.482,1.58-2.902,3.33-4.105,5.297
					c-0.597,0.977-1.138,2.003-1.611,3.066c-0.872-0.266-1.775-0.449-2.695-0.582c-0.118-0.312-0.236-0.632-0.338-0.953
					c-0.268-0.847-0.48-1.719-0.639-2.611c-0.314-1.792-0.406-3.681-0.337-5.634c0.131-3.909,0.823-8.039,1.106-12.219l0.013-0.195
					c-0.193-1.921-0.366-3.886-0.758-5.826c-0.386-1.944-1.016-3.813-1.807-5.578c0.431,1.89,0.675,3.798,0.674,5.693
					c0.003,1.894-0.201,3.79-0.387,5.719l0.016-0.188c-1.051,3.918-2.517,7.729-3.52,11.953c-0.495,2.111-0.85,4.334-0.907,6.643
					c-0.028,1.147,0.015,2.312,0.138,3.471c-0.907,0.212-1.787,0.484-2.637,0.825c-0.254-0.211-0.512-0.426-0.758-0.65
					c-0.654-0.599-1.274-1.246-1.858-1.942c-1.169-1.393-2.191-2.985-3.11-4.708c-1.84-3.452-3.306-7.377-5.151-11.137l-0.086-0.174
					c-1.127-1.569-2.261-3.185-3.569-4.668c-1.306-1.491-2.788-2.793-4.354-3.927c1.317,1.421,2.483,2.952,3.429,4.593
					c0.951,1.639,1.722,3.382,2.525,5.146l-0.08-0.17c1.049,3.919,1.685,7.953,2.928,12.111c0.626,2.076,1.433,4.18,2.538,6.207
					c0.549,1.009,1.169,1.996,1.858,2.942c-0.672,0.629-1.299,1.304-1.87,2.027c-0.328-0.055-0.659-0.111-0.986-0.185
					c-0.866-0.191-1.728-0.441-2.582-0.753c-1.708-0.622-3.39-1.487-5.047-2.522c-3.319-2.069-6.55-4.735-10.029-7.067l-0.162-0.11
					c-1.76-0.794-3.55-1.626-5.425-2.256c-1.875-0.64-3.81-1.027-5.733-1.224c1.852,0.571,3.626,1.314,5.268,2.264
					c1.642,0.943,3.181,2.068,4.757,3.194l-0.153-0.108c2.867,2.87,5.437,6.044,8.593,9.025c1.58,1.482,3.33,2.903,5.3,4.105
					c0.975,0.596,2.001,1.137,3.064,1.611c-0.265,0.872-0.45,1.774-0.583,2.698c-0.313,0.116-0.631,0.234-0.953,0.333
					c-0.846,0.27-1.716,0.481-2.612,0.639c-1.791,0.316-3.68,0.408-5.631,0.341c-3.911-0.133-8.041-0.826-12.219-1.105l-0.201-0.016
					c-1.92,0.193-3.884,0.366-5.821,0.758c-1.944,0.385-3.813,1.017-5.577,1.807c1.89-0.431,3.798-0.675,5.693-0.672
					c1.894-0.005,3.79,0.199,5.717,0.386l-0.187-0.015c3.918,1.051,7.729,2.515,11.953,3.518c2.111,0.496,4.336,0.85,6.644,0.907
					c1.146,0.028,2.309-0.017,3.472-0.139c0.209,0.907,0.482,1.787,0.822,2.635c-0.209,0.256-0.423,0.515-0.649,0.759
					c-0.597,0.656-1.246,1.276-1.943,1.86c-1.392,1.169-2.983,2.192-4.708,3.11c-3.452,1.84-7.377,3.306-11.135,5.152l-0.183,0.09
					c-1.565,1.126-3.179,2.257-4.66,3.564c-1.491,1.306-2.794,2.788-3.927,4.354c1.421-1.318,2.951-2.484,4.594-3.43
					c1.638-0.95,3.382-1.722,5.144-2.523l-0.168,0.08c3.917-1.048,7.953-1.687,12.11-2.932c2.076-0.625,4.18-1.431,6.207-2.535
					c1.008-0.551,1.996-1.171,2.944-1.86c0.628,0.673,1.302,1.299,2.025,1.87c-0.054,0.327-0.11,0.658-0.184,0.986
					c-0.19,0.866-0.441,1.726-0.753,2.581c-0.623,1.709-1.488,3.391-2.521,5.048c-2.071,3.32-4.737,6.549-7.067,10.029l-0.115,0.17
					c-0.792,1.759-1.623,3.544-2.252,5.416c-0.64,1.876-1.026,3.812-1.225,5.735c0.572-1.853,1.314-3.626,2.264-5.268
					c0.943-1.642,2.068-3.182,3.194-4.757l-0.106,0.152c2.868-2.866,6.044-5.435,9.023-8.592c1.485-1.579,2.904-3.329,4.107-5.297
					c0.596-0.977,1.135-2.002,1.61-3.066c0.875,0.266,1.776,0.463,2.7,0.596c0.115,0.31,0.232,0.622,0.331,0.939
					c0.269,0.847,0.481,1.717,0.638,2.613c0.316,1.79,0.408,3.68,0.342,5.633c-0.134,3.91-0.828,8.041-1.107,12.219l-0.014,0.204
					l-0.001-0.016c0.194,1.925,0.367,3.892,0.758,5.834c0.385,1.942,1.019,3.812,1.809,5.576c-0.431-1.89-0.676-3.799-0.674-5.691
					c-0.003-1.893,0.199-3.792,0.388-5.719l-0.017,0.188c1.051-3.918,2.517-7.731,3.518-11.955c0.496-2.109,0.851-4.334,0.907-6.642
					c0.028-1.15-0.015-2.316-0.138-3.483c0.903-0.213,1.788-0.474,2.635-0.812c0.256,0.208,0.514,0.423,0.759,0.649
					c0.659,0.598,1.276,1.248,1.859,1.942c1.168,1.394,2.194,2.987,3.112,4.708c1.84,3.455,3.302,7.376,5.152,11.136l0.091,0.185
					l-0.012-0.015c1.131,1.571,2.266,3.189,3.575,4.673c1.306,1.491,2.788,2.794,4.353,3.927c-1.317-1.42-2.485-2.952-3.428-4.593
					c-0.952-1.638-1.724-3.382-2.523-5.146l0.078,0.17c-1.048-3.917-1.685-7.955-2.93-12.111c-0.627-2.075-1.432-4.179-2.536-6.207
					c-0.549-1.007-1.171-1.996-1.86-2.944c0.673-0.629,1.299-1.303,1.87-2.025c0.326,0.055,0.659,0.11,0.984,0.184
					c0.87,0.191,1.73,0.442,2.582,0.754c1.71,0.622,3.395,1.487,5.052,2.521c3.32,2.072,6.547,4.736,10.027,7.068l0.173,0.114
					l-0.019-0.006c1.765,0.794,3.557,1.628,5.433,2.258c1.875,0.64,3.811,1.025,5.734,1.224c-1.852-0.57-3.626-1.312-5.267-2.264
					c-1.64-0.941-3.184-2.067-4.76-3.194l0.154,0.108c-2.866-2.87-5.434-6.044-8.591-9.024c-1.581-1.483-3.33-2.902-5.301-4.106
					c-0.973-0.597-1.998-1.138-3.062-1.613c0.265-0.872,0.447-1.774,0.581-2.693c0.314-0.118,0.632-0.236,0.952-0.336
					c0.848-0.271,1.72-0.48,2.615-0.639c1.79-0.315,3.681-0.407,5.634-0.341c3.91,0.133,8.037,0.829,12.217,1.106l0.207,0.013
					l-0.019,0.004C421.229,355.256,423.197,355.082,425.136,354.69z"/>
			</g>
		</g>
		<g>
			<circle fill="#FEE058" cx="379.66" cy="353.021" r="14.319"/>
		</g>
	</g>
</g>
</svg>
