<?xml version="1.0" encoding="utf-8"?>
<!-- Generator: Adobe Illustrator 16.0.1, SVG Export Plug-In . SVG Version: 6.00 Build 0)  -->
<!DOCTYPE svg PUBLIC "-//W3C//DTD SVG 1.1//EN" "http://www.w3.org/Graphics/SVG/1.1/DTD/svg11.dtd">
<svg version="1.1" xmlns="http://www.w3.org/2000/svg" xmlns:xlink="http://www.w3.org/1999/xlink" x="0px" y="0px" width="500px"
	 height="500px" viewBox="0 0 500 500" enable-background="new 0 0 500 500" xml:space="preserve">
<g id="avatar">
</g>
<g id="robot">
	<g>
		<path fill="#EACC75" d="M421.696,345.65c-2.94-6.5-6.561-12.06-10.24-16.105c8.245-2.114,15.697-7.333,20.447-15.197
			c1.81-2.997,3.097-6.162,3.888-9.392c4.699,0.603,9.531-1.536,12.137-5.854c3.522-5.829,1.65-13.413-4.182-16.936
			c-3.412-2.062-7.422-2.264-10.869-0.916c-2.757-5.252-6.94-9.842-12.387-13.133c-5.448-3.291-11.456-4.854-17.389-4.853
			c-0.411-3.679-2.454-7.135-5.868-9.194c-5.831-3.522-13.414-1.651-16.937,4.183c-2.606,4.314-2.253,9.585,0.468,13.463
			c-2.491,2.205-4.694,4.815-6.505,7.814c-4.346,7.197-5.674,15.371-4.363,23.058c-5.904-0.001-13.327,1.488-20.97,4.502
			c-15.712,6.191-26.381,16.451-23.834,22.913c2.26,5.733,14.161,6.549,27.786,2.34c-2.013,2.285-3.878,4.803-5.54,7.555
			c-2.734,4.525-5.013,9.044-6.636,13.471c-2.822-4.759-7.121-7.876-12.062-8.096c-9.131-0.409-16.979,9.227-17.528,21.523
			s6.406,22.595,15.537,23.005c6.068,0.27,11.568-3.898,14.737-10.332c2.379,4.026,6.105,7.729,11.492,10.982
			c1.41,0.852,2.792,1.578,4.152,2.209c-2.759,5.125-3.173,10.694-0.574,15.143c4.611,7.894,16.964,9.258,27.591,3.05
			c10.627-6.21,15.504-17.64,10.895-25.533c-0.623-1.067-1.392-2.009-2.275-2.836c2.672-3.159,5.182-6.755,7.537-10.654
			c1.342-2.221,2.486-4.492,3.451-6.782c6.462,10.085,14.2,15.901,19.182,13.646C429.168,375.829,428.656,361.036,421.696,345.65z"
			/>
		<circle fill="#FFFFFF" cx="395.351" cy="309.739" r="12.934"/>
		<g>
			<circle cx="391.362" cy="292.032" r="2.866"/>
			<circle cx="412.88" cy="305.03" r="2.866"/>
		</g>
		<path fill="#231815" d="M404.892,312.25c0.105-0.222,0.01-0.488-0.211-0.59c-0.224-0.105-0.486-0.011-0.593,0.21
			c-0.035,0.076-0.909,1.865-2.823,1.243c-3.441-1.119-3.228-5.362-2.978-7.132c1.1,0.304,2.405-0.286,2.771-0.908
			c0.425-0.716-0.172-1.854-1.332-2.539c-1.161-0.688-2.445-0.662-2.869,0.053c-0.353,0.6-0.254,1.933,0.454,2.76
			c-1.4,1.063-5.058,3.364-7.728,0.858c-1.457-1.368-0.319-3.006-0.271-3.073c0.144-0.199,0.099-0.478-0.1-0.622
			c-0.2-0.144-0.477-0.097-0.622,0.1c-0.577,0.801-1.241,2.717,0.385,4.243c0.293,0.276,0.603,0.509,0.932,0.703
			c1.503,0.89,3.344,0.9,5.386,0.019c0.798-0.346,1.501-0.771,2.044-1.146c-0.068,0.657-0.104,1.471-0.022,2.34
			c0.208,2.217,1.106,3.825,2.61,4.714c0.325,0.191,0.68,0.352,1.062,0.477C403.11,314.647,404.469,313.143,404.892,312.25z"/>
		<circle fill="#C4A457" cx="381.788" cy="332.19" r="3.598"/>
		<circle fill="#C4A457" cx="374.468" cy="344.311" r="3.598"/>
		<circle fill="#C4A457" cx="367.147" cy="356.43" r="3.597"/>
	</g>
</g>
</svg>
