<?xml version="1.0" encoding="utf-8"?>
<!-- Generator: Adobe Illustrator 16.0.1, SVG Export Plug-In . SVG Version: 6.00 Build 0)  -->
<!DOCTYPE svg PUBLIC "-//W3C//DTD SVG 1.1//EN" "http://www.w3.org/Graphics/SVG/1.1/DTD/svg11.dtd">
<svg version="1.1" id="Layer_1" xmlns="http://www.w3.org/2000/svg" xmlns:xlink="http://www.w3.org/1999/xlink" x="0px" y="0px"
	 width="500px" height="500px" viewBox="0 0 500 500" enable-background="new 0 0 500 500" xml:space="preserve">
<g id="avatar">
	<g>
		<path fill="#F0BE64" d="M189.344,165.06l0.869-73.229l-12.312,0.219l6.698,84.313c0,0,5.995-0.76,15.852-1.626
			C196.476,171.831,192.76,168.592,189.344,165.06z"/>
		<path fill="#F0BE64" d="M321.327,89.5l-9.713,0.172l0.896,75.389c-3.4,3.515-7.098,6.74-11.052,9.636
			c4.006,0.473,7.961,1.024,11.832,1.666C329.504,146.815,321.327,89.5,321.327,89.5z"/>
	</g>
	<path fill="#F0BE64" d="M344.624,105.26c-0.012-0.58-0.035-1.142-0.05-1.716c-0.025-0.937-0.047-1.88-0.082-2.8
		c-0.024-0.613-0.062-1.207-0.091-1.812c-0.042-0.861-0.077-1.73-0.128-2.577c-0.037-0.612-0.086-1.205-0.128-1.811
		c-0.057-0.816-0.107-1.643-0.173-2.444c-0.051-0.621-0.114-1.223-0.17-1.834c-0.07-0.769-0.135-1.544-0.213-2.299
		c-0.062-0.585-0.134-1.15-0.199-1.728c-0.087-0.762-0.168-1.532-0.264-2.281c-0.073-0.57-0.157-1.124-0.234-1.687
		c-0.101-0.734-0.197-1.478-0.306-2.199c-0.082-0.539-0.174-1.06-0.26-1.592c-0.118-0.728-0.23-1.461-0.356-2.175
		c-0.091-0.515-0.192-1.012-0.287-1.52c-0.133-0.711-0.261-1.429-0.402-2.126c-0.101-0.5-0.212-0.981-0.316-1.475
		c-0.146-0.688-0.289-1.381-0.443-2.056c-0.109-0.478-0.229-0.939-0.342-1.411c-0.161-0.671-0.318-1.347-0.487-2.003
		c-0.118-0.463-0.247-0.907-0.368-1.362c-0.175-0.649-0.346-1.304-0.527-1.939c-0.127-0.444-0.264-0.875-0.396-1.313
		c-0.187-0.627-0.371-1.262-0.565-1.875c-0.139-0.436-0.284-0.854-0.425-1.282c-0.198-0.602-0.395-1.209-0.6-1.799
		c-0.144-0.414-0.297-0.813-0.444-1.223c-0.213-0.587-0.422-1.179-0.642-1.753c-0.149-0.392-0.307-0.77-0.46-1.155
		c-0.227-0.573-0.451-1.151-0.684-1.712c-0.156-0.375-0.32-0.736-0.479-1.105c-0.239-0.556-0.477-1.117-0.723-1.66
		c-0.16-0.354-0.328-0.695-0.492-1.045c-0.253-0.542-0.504-1.088-0.764-1.618c-0.168-0.343-0.343-0.673-0.515-1.01
		c-0.263-0.52-0.523-1.043-0.793-1.551c-0.178-0.335-0.361-0.658-0.543-0.987c-0.271-0.495-0.539-0.994-0.815-1.478
		c-0.184-0.32-0.372-0.627-0.559-0.942c-0.281-0.478-0.562-0.96-0.85-1.427c-0.188-0.304-0.38-0.595-0.569-0.895
		c-0.294-0.463-0.585-0.93-0.885-1.381c-0.194-0.292-0.393-0.573-0.589-0.859c-0.301-0.442-0.602-0.889-0.907-1.319
		c-0.202-0.285-0.41-0.557-0.614-0.837c-0.308-0.421-0.613-0.846-0.927-1.256c-0.204-0.268-0.413-0.522-0.618-0.785
		c-0.319-0.408-0.638-0.82-0.963-1.218c-0.207-0.254-0.419-0.497-0.629-0.747c-0.328-0.393-0.655-0.787-0.989-1.168
		c-0.216-0.247-0.436-0.483-0.653-0.727c-0.333-0.371-0.663-0.744-1-1.104c-0.222-0.236-0.446-0.462-0.668-0.694
		c-0.34-0.354-0.678-0.71-1.021-1.054c-0.225-0.226-0.454-0.44-0.68-0.661c-0.347-0.337-0.691-0.678-1.041-1.006
		c-0.231-0.216-0.465-0.422-0.698-0.634c-0.35-0.319-0.698-0.643-1.052-0.952c-0.238-0.208-0.479-0.408-0.718-0.612
		c-0.354-0.301-0.704-0.604-1.06-0.897c-0.243-0.199-0.49-0.39-0.733-0.586c-0.356-0.283-0.71-0.571-1.069-0.848
		c-0.248-0.189-0.498-0.372-0.747-0.559c-0.36-0.27-0.718-0.541-1.08-0.803c-0.252-0.182-0.507-0.354-0.761-0.531
		c-0.362-0.254-0.725-0.512-1.088-0.756c-0.259-0.175-0.52-0.34-0.778-0.51c-0.362-0.236-0.724-0.478-1.088-0.708
		c-0.268-0.168-0.536-0.328-0.804-0.493c-0.36-0.221-0.72-0.443-1.08-0.656c-0.271-0.16-0.542-0.312-0.813-0.466
		c-0.363-0.208-0.725-0.42-1.089-0.62c-0.274-0.151-0.549-0.294-0.824-0.441c-0.361-0.194-0.724-0.39-1.087-0.578
		c-0.284-0.146-0.568-0.284-0.854-0.427c-0.357-0.178-0.714-0.359-1.072-0.531c-0.288-0.138-0.577-0.269-0.866-0.404
		c-0.354-0.165-0.711-0.334-1.066-0.492c-0.294-0.133-0.591-0.256-0.886-0.385c-0.352-0.151-0.703-0.308-1.055-0.453
		c-0.3-0.125-0.601-0.243-0.901-0.364c-0.348-0.141-0.695-0.283-1.044-0.418c-0.305-0.118-0.609-0.229-0.915-0.343
		c-0.344-0.13-0.688-0.261-1.032-0.385c-0.31-0.11-0.618-0.215-0.929-0.321c-0.341-0.118-0.681-0.238-1.021-0.353
		c-0.313-0.104-0.626-0.202-0.939-0.302c-0.336-0.107-0.672-0.217-1.007-0.32c-0.32-0.099-0.64-0.189-0.96-0.285
		c-0.328-0.097-0.656-0.195-0.983-0.289c-0.322-0.091-0.645-0.176-0.968-0.264c-0.324-0.088-0.648-0.179-0.973-0.263
		c-0.328-0.085-0.654-0.165-0.981-0.246c-0.314-0.078-0.632-0.159-0.946-0.234c-0.338-0.08-0.676-0.154-1.013-0.23
		c-0.303-0.068-0.605-0.141-0.908-0.205c-0.347-0.075-0.689-0.146-1.034-0.216c-0.292-0.061-0.584-0.122-0.875-0.181
		c-0.351-0.067-0.697-0.132-1.045-0.196c-0.284-0.054-0.569-0.108-0.854-0.158c-0.354-0.063-0.708-0.122-1.062-0.182
		c-0.272-0.046-0.545-0.094-0.817-0.137c-0.359-0.058-0.715-0.109-1.073-0.164c-0.264-0.039-0.528-0.081-0.792-0.118
		c-0.365-0.052-0.729-0.1-1.093-0.147c-0.249-0.033-0.498-0.067-0.745-0.1c-0.378-0.048-0.752-0.091-1.128-0.135
		c-0.229-0.025-0.461-0.055-0.689-0.08c-0.382-0.042-0.759-0.08-1.137-0.118c-0.221-0.021-0.442-0.046-0.663-0.066
		c-0.382-0.036-0.76-0.069-1.138-0.103c-0.21-0.018-0.422-0.037-0.631-0.055c-0.391-0.032-0.777-0.06-1.164-0.088
		c-0.191-0.014-0.384-0.029-0.574-0.042c-0.398-0.027-0.794-0.05-1.188-0.074c-0.174-0.01-0.351-0.021-0.523-0.031
		c-0.4-0.021-0.797-0.041-1.191-0.059c-0.162-0.007-0.326-0.016-0.487-0.023c-0.411-0.018-0.817-0.031-1.222-0.046
		c-0.14-0.005-0.28-0.011-0.418-0.015c-0.419-0.013-0.832-0.023-1.243-0.033c-0.121-0.003-0.243-0.007-0.364-0.009
		c-0.428-0.009-0.85-0.016-1.27-0.021c-0.099-0.002-0.198-0.004-0.296-0.005c-0.437-0.004-0.867-0.007-1.295-0.008
		c-0.062,0-0.125-0.001-0.187-0.001l0,0c-0.093,0-0.188-0.001-0.28-0.001c-31.471,0-93.74,8.521-93.74,109.907
		c0,11.245,0,49.849,0,62.241c0,12.392,21.169,27.729,31.732,28.75l1.493-125.753c0,0,22.483,3.322,57.339,3.322
		c5.539,0,10.862-0.077,15.914-0.208c0.032-0.001,0.063-0.001,0.096-0.002c0.855-0.021,1.699-0.047,2.539-0.071
		c0.166-0.005,0.334-0.01,0.5-0.015c0.781-0.023,1.551-0.05,2.317-0.077c0.208-0.007,0.42-0.014,0.627-0.021
		c0.716-0.025,1.421-0.053,2.124-0.08c0.257-0.01,0.517-0.019,0.771-0.029c0.657-0.025,1.304-0.054,1.947-0.081
		c0.286-0.013,0.575-0.023,0.858-0.036c0.629-0.028,1.247-0.058,1.862-0.087c0.284-0.013,0.57-0.025,0.852-0.04
		c0.602-0.028,1.193-0.06,1.783-0.09c0.285-0.015,0.572-0.028,0.855-0.044c0.57-0.029,1.129-0.061,1.688-0.091
		c0.292-0.016,0.586-0.033,0.875-0.049c0.528-0.03,1.048-0.062,1.564-0.091c0.305-0.019,0.611-0.036,0.912-0.055
		c0.502-0.03,0.995-0.062,1.485-0.092c0.294-0.019,0.588-0.037,0.878-0.056c0.477-0.031,0.944-0.062,1.408-0.093
		c0.295-0.021,0.588-0.04,0.878-0.061c0.445-0.03,0.885-0.061,1.318-0.092c0.289-0.021,0.576-0.041,0.859-0.061
		c0.423-0.031,0.839-0.062,1.25-0.092c0.275-0.021,0.549-0.041,0.82-0.062c0.398-0.03,0.79-0.061,1.178-0.09
		c0.268-0.021,0.531-0.042,0.792-0.062c0.379-0.03,0.752-0.06,1.119-0.09c0.247-0.02,0.488-0.04,0.729-0.06
		c0.354-0.029,0.703-0.059,1.043-0.087c0.246-0.021,0.485-0.041,0.726-0.062c0.321-0.027,0.639-0.055,0.947-0.082
		c0.234-0.021,0.461-0.041,0.688-0.061c0.299-0.026,0.596-0.054,0.882-0.079c0.211-0.021,0.414-0.038,0.618-0.058
		c0.278-0.025,0.554-0.051,0.819-0.075c0.2-0.02,0.39-0.037,0.583-0.057c0.25-0.022,0.498-0.047,0.735-0.069
		c0.19-0.02,0.368-0.036,0.55-0.055c0.217-0.021,0.434-0.042,0.637-0.062c0.188-0.02,0.363-0.037,0.543-0.056
		c0.171-0.018,0.347-0.034,0.508-0.052c0.17-0.018,0.325-0.034,0.482-0.05c0.164-0.017,0.329-0.034,0.479-0.05
		c0.135-0.015,0.253-0.027,0.378-0.041c0.138-0.016,0.281-0.03,0.407-0.043c0.119-0.014,0.22-0.024,0.328-0.036
		c0.117-0.013,0.239-0.026,0.344-0.038c0.092-0.01,0.164-0.02,0.245-0.027c0.092-0.01,0.189-0.021,0.268-0.029
		c0.25-0.028,0.418-0.049,0.53-0.062c0.087-0.01,0.146-0.018,0.146-0.018l1.494,125.753c10.563-1.022,31.732-16.358,31.732-28.75
		c0-12.393,0-50.996,0-62.241C344.668,108.335,344.653,106.786,344.624,105.26z"/>
</g>
<g id="robot">
</g>
</svg>
