<?xml version="1.0" encoding="utf-8"?>
<!-- Generator: Adobe Illustrator 16.0.1, SVG Export Plug-In . SVG Version: 6.00 Build 0)  -->
<!DOCTYPE svg PUBLIC "-//W3C//DTD SVG 1.1//EN" "http://www.w3.org/Graphics/SVG/1.1/DTD/svg11.dtd">
<svg version="1.1" id="content" xmlns="http://www.w3.org/2000/svg" xmlns:xlink="http://www.w3.org/1999/xlink" x="0px" y="0px"
	 width="500px" height="500px" viewBox="0 0 500 500" enable-background="new 0 0 500 500" xml:space="preserve">
<rect id="position" x="0" y="0" display="none" fill="none" stroke="#000000" width="500" height="500"/>
<g id="bounds" display="none">
	<rect x="0.2" y="80.2" display="inline" fill="none" stroke="#EAEAEA" stroke-miterlimit="10" width="499.496" height="499.5"/>
</g>
<path fill="#BFBFC0" d="M325.621,196.368c-145.534,12.382-148.195-29.989-148.195-29.989
	c-49.614,33.031-50.433,104.838-50.336,113.828C137.462,339.455,189.131,384.5,251.347,384.5
	c63.259,0,115.64-46.551,124.772-107.265c-3.03-37.329-69.73-117.731-69.73-117.731
	C305.324,177.955,325.621,196.368,325.621,196.368z M203.635,267.52c-12.299,0-22.261-9.965-22.261-22.256
	c0-12.295,9.965-22.264,22.261-22.264c12.293,0,22.256,9.97,22.256,22.264C225.893,257.555,215.929,267.52,203.635,267.52z
	 M251.347,330.552c-12.292,0-22.254-9.968-22.254-22.263h44.517C273.606,320.588,263.643,330.552,251.347,330.552z M297.256,267.52
	c-12.294,0-22.256-9.965-22.256-22.256c0-12.295,9.965-22.264,22.256-22.264c12.29,0,22.261,9.97,22.261,22.264
	C319.517,257.555,309.55,267.52,297.256,267.52z"/>
<circle fill="#FFFFFF" cx="203.635" cy="245.26" r="22.26"/>
<circle fill="#FFFFFF" cx="297.256" cy="245.26" r="22.26"/>
<path fill="#FFFFFF" d="M251.347,330.552c12.299,0,22.259-9.964,22.259-22.263h-44.517
	C229.089,320.586,239.054,330.552,251.347,330.552z"/>
<g id="avatar">
	<path fill="#382800" d="M247.795,115.364c-102.584,0-179.675,89.78-122.137,168.286l0,0c0,0-2.701-80.644,51.05-116.427
		c0,0-44.283,93.266,185.688,89.224c0,0-41.12-63.646-54.855-96.194c0,0,66.405,86.997,70.821,123.397l0,0
		C430.227,206.969,370.425,115.364,247.795,115.364z"/>
</g>
<rect id="position_1_" x="0" y="0" fill="none" width="500" height="500"/>
<g id="bounds_1_">
	<rect x="0.2" y="0" fill="none" width="499.497" height="499.5"/>
</g>
</svg>
