<?xml version="1.0" encoding="utf-8"?>
<!-- Generator: Adobe Illustrator 16.0.1, SVG Export Plug-In . SVG Version: 6.00 Build 0)  -->
<!DOCTYPE svg PUBLIC "-//W3C//DTD SVG 1.1//EN" "http://www.w3.org/Graphics/SVG/1.1/DTD/svg11.dtd">
<svg version="1.1" id="Layer_1" xmlns="http://www.w3.org/2000/svg" xmlns:xlink="http://www.w3.org/1999/xlink" x="0px" y="0px"
	 width="500px" height="500px" viewBox="0 0 500 500" enable-background="new 0 0 500 500" xml:space="preserve">
<g id="avatar">	
	<path fill="#F0BE64" d="M360.167,126.913l-33.98-67.229l-9.005-23.84c0,0-17.359-14.555-18.602-15.181
		c-1.242-0.617-16.479-5.681-16.479-5.681h-43.938l-22.938,8.899L186.923,43.66l-34.256,40.816c0,0-10.338,49.249-9.098,49.249
		c1.243,0,4.965,48.014,4.965,48.014s28.927,2.837,40.131,0c-5.125-4.093-3.464-6.7-5.333-13.074
		c18.012-18.791-8.896-56.29-8.613-63.16c2.083-50.488,32.046-56.492,40.505-56.007c7.977,0.458,10.59,28,99.05,21.5
		c27.818-2.044-21.396,79.334,14.059,79.334c10.971,0-5.924,32.462-1.667,25.666L360.167,126.913z"/>
</g>
<g id="robot">
</g>
</svg>
