<?xml version="1.0" encoding="utf-8"?>
<!-- Generator: Adobe Illustrator 16.0.1, SVG Export Plug-In . SVG Version: 6.00 Build 0)  -->
<!DOCTYPE svg PUBLIC "-//W3C//DTD SVG 1.1//EN" "http://www.w3.org/Graphics/SVG/1.1/DTD/svg11.dtd">
<svg version="1.1" id="Layer_1" xmlns="http://www.w3.org/2000/svg" xmlns:xlink="http://www.w3.org/1999/xlink" x="0px" y="0px"
	 width="500px" height="500px" viewBox="0 0 500 500" enable-background="new 0 0 500 500" xml:space="preserve">
<g id="avatar">
	<path fill="#F0BE64" d="M373.326,166.997c-1.587-15.955-13.035-24.05-18.861-27.179c6.033-2,11.792-5.064,14.309-9.858
		c5.413-21.018-9.136-29.211-17.722-32.176c4.756-3.693,11.172-11.655,8.343-22.215c-10.449-22.782-30.827-20.18-30.827-20.18
		s11.278-9.327,5.898-21.252c-8.309-21.215-26.79-18.385-26.79-18.385s1.861,3.102-4.035-6.726
		c-15.715-14.516-41.649-5.599-47.27-0.436c-5.105-2.03-11.865-3.862-19.762-3.963c-11.582-0.168-18.305,4.93-21.721,8.789
		c-3.034-0.097-18.238,0.137-31.894,12.192c-9.686,8.56-8.172,21.084-5.724,29.074c-2.962,2.167-6.792,4.431-11.135,5.863
		c-10.481,3.36-25.484,7.791-22.518,24.347c1.21,6.859,4.312,11.154,7.516,13.789c-7.859,1.863-19.201,6.758-18.511,19.35
		c0.826,14.822,9.305,19.117,13.135,20.283c-2.897,2.896-6.792,6.294-11.549,10.556c-9.896,8.792-9.382,18.123-3.209,27.446
		c4.275,6.43,10.345,9.526,13.691,10.824c-1,4.396-2.587,8.859-4.31,10.658c-3.486,3.631-8.829,14.222,1.343,25.646
		c10.206,11.387,34.308,3.863,34.308,3.863l18.632,2.438l64.667-6.416c12.172,7.398,39.761-2.296,52,4.365
		c19.035,10.357,41.888-2.985,46.717-14.108c3.273-7.494-0.069-13.39-2.586-16.388c0.413-0.366,0.827-0.766,1.24-1.233
		c4.346-4.796,4.966-10.122,4.796-13.454C367.224,179.65,371.91,174.222,373.326,166.997z M250.928,191.198
		c-47.327,0-85.692-38.366-85.692-85.693c0-47.325,38.365-85.689,85.692-85.689c47.326,0,85.691,38.365,85.691,85.689
		C336.619,152.832,298.254,191.198,250.928,191.198z"/>
	<ellipse fill="#F0BE64" cx="203" cy="222.7" rx="29" ry="13.85"/>
	<ellipse fill="#F0BE64" cx="245.654" cy="220.899" rx="29" ry="13.85"/>
	<ellipse fill="#F0BE64" cx="290.373" cy="218.299" rx="29" ry="13.85"/>
</g>
<g id="robot">
</g>
</svg>
