<?xml version="1.0" encoding="utf-8"?>
<!-- Generator: Adobe Illustrator 16.0.1, SVG Export Plug-In . SVG Version: 6.00 Build 0)  -->
<!DOCTYPE svg PUBLIC "-//W3C//DTD SVG 1.1//EN" "http://www.w3.org/Graphics/SVG/1.1/DTD/svg11.dtd">
<svg version="1.1" id="content" xmlns="http://www.w3.org/2000/svg" xmlns:xlink="http://www.w3.org/1999/xlink" x="0px" y="0px"
	 width="500px" height="500px" viewBox="0 0 500 500" enable-background="new 0 0 500 500" xml:space="preserve">
<rect id="position" x="0" y="0" fill="none" width="500" height="500"/>
<g id="bounds">
	<rect x="0.2" y="0.132" fill="none" width="499.497" height="499.501"/>
</g>
<rect id="position_1_" x="0" y="0" fill="none" width="500" height="500"/>
<g id="bounds_1_">
	<rect x="0" y="0" fill="none" width="499.498" height="499.5"/>
</g>
<g>
	<circle fill="#BFBFC0" cx="248.678" cy="264.663" r="121.472"/>
</g>
<g>
	<path fill="#FFFFFF" d="M224.176,252.101c0-11.835-9.592-21.431-21.427-21.431c-11.833,0-21.429,9.596-21.429,21.431
		c0,11.832,9.596,21.426,21.429,21.426C214.584,273.527,224.176,263.933,224.176,252.101z"/>
	<path fill="#FFFFFF" d="M314.297,252.101c0-11.835-9.593-21.431-21.425-21.431c-11.836,0-21.432,9.596-21.432,21.431
		c0,11.832,9.596,21.426,21.432,21.426C304.704,273.527,314.297,263.933,314.297,252.101z"/>
	<path fill="#FFFFFF" d="M270.106,312.772c0,11.833-9.592,21.427-21.428,21.427c-11.833,0-21.428-9.594-21.428-21.427H270.106z"/>
</g>
<g id="avatar_1_">
	<path fill="#382800" d="M331.766,166.369c-21.717-14.088-42.059-24.827-81.738-24.827c-39.681,0-60.022,10.739-81.737,24.827
		c-83.572,54.204-16.835,127.733-16.835,127.733c-3.744-89.795,11.843-100.273,26.192-106.555
		c14.202-6.209,43.05,12.644,71.928,13.038v0.016c0.151,0,0.303-0.006,0.454-0.007c0.151,0,0.305,0.007,0.456,0.007v-0.016
		c28.882-0.395,57.732-19.247,71.934-13.038c14.342,6.283,29.931,16.76,26.191,106.555
		C348.609,294.102,415.342,220.573,331.766,166.369z"/>
	<path fill="#382800" d="M148.965,179.514c-8.58-22.336-80.623-30.575-80.623,61.182c0,34.731,17.091,41.936,17.091,74.343
		c0,32.409-25.641,36.009-31.906,27.608c0,0,62.675,66.014,98.136-28.43C151.661,314.219,171.315,231.176,148.965,179.514z"/>
	<path fill="#382800" d="M350.089,179.514c8.579-22.336,80.625-30.575,80.625,61.182c0,34.731-17.092,41.936-17.092,74.343
		c0,32.409,25.64,36.009,31.904,27.608c0,0-62.674,66.014-98.137-28.43C347.391,314.219,327.74,231.176,350.089,179.514z"/>
</g>
<g id="robot_2_">
</g>
<g id="robot_1_">
</g>
<g id="robot">
</g>
</svg>
