<?xml version="1.0" encoding="utf-8"?>
<!-- Generator: Adobe Illustrator 16.0.1, SVG Export Plug-In . SVG Version: 6.00 Build 0)  -->
<!DOCTYPE svg PUBLIC "-//W3C//DTD SVG 1.1//EN" "http://www.w3.org/Graphics/SVG/1.1/DTD/svg11.dtd">
<svg version="1.1" id="content" xmlns="http://www.w3.org/2000/svg" xmlns:xlink="http://www.w3.org/1999/xlink" x="0px" y="0px"
	 width="500px" height="500px" viewBox="0 0 500 500" enable-background="new 0 0 500 500" xml:space="preserve">
<rect id="position" x="0.5" y="0.5" fill="none" stroke="#000000" width="499" height="499"/>
<rect x="116.405" y="174.13" fill="#F16663" width="265.854" height="307.25"/>
<g>
	<g>
		<polygon opacity="0.25" fill="#416E97" enable-background="new    " points="342.5,243.666 261.633,243.666 261.633,234.172 
			342.5,232.719 		"/>
		<path fill="#F48D6C" d="M261.633,234.172c0,0,44.229,7.568,80.868-1.453v73.07c0,0-10.562,10.189-40.602,10.189
			c-34.327,0-40.267-11.061-40.267-11.061V234.172z"/>
		<path fill="#F2E07C" d="M300.413,258.629c-22.593,0-38.354-3.906-38.62-3.965l-0.12-4.912c0.401,0.095,41.531,9.422,80.827-1.422
			v5.35C327.79,257.743,313.326,258.629,300.413,258.629z"/>
	</g>
</g>
</svg>
