<?xml version="1.0" encoding="utf-8"?>
<!-- Generator: Adobe Illustrator 16.0.1, SVG Export Plug-In . SVG Version: 6.00 Build 0)  -->
<!DOCTYPE svg PUBLIC "-//W3C//DTD SVG 1.1//EN" "http://www.w3.org/Graphics/SVG/1.1/DTD/svg11.dtd">
<svg version="1.1" id="content" xmlns="http://www.w3.org/2000/svg" xmlns:xlink="http://www.w3.org/1999/xlink" x="0px" y="0px"
	 width="500px" height="500px" viewBox="0 0 500 500" enable-background="new 0 0 500 500" xml:space="preserve">
<g>
	<path fill="#FF6600" d="M182.803,480.479V174.13h-15.101c-0.064,21.561,2.52,59.436-16.702,79.294v227.056H182.803z"/>
	<path fill="#FF6600" d="M382.018,480.479v-153l-0.096-61.062c-12.613,0-22.174-2.887-29.422-7.711v221.772H382.018z"/>
	<path fill="#FF6600" d="M247.913,480.479V244.742c-11.515-0.724-22.789-11.026-32.356-23.552v259.289H247.913z"/>
	<path d="M317.312,270.092c9.562,3.649,16.354,12.901,16.354,23.737c0,10.844-6.793,20.097-16.354,23.737
		c-0.459-0.175-0.905-0.374-1.351-0.574v163.487h32.756h3.783V258.707c-26.39-17.564-22.058-60.869-22.127-84.577h-14.412v96.537
		C316.406,270.467,316.853,270.266,317.312,270.092z"/>
	<path d="M250.248,480.479h31.472V222.641c-9.682,12.321-21.009,22.146-32.52,22.146c-0.429,0-0.858-0.019-1.287-0.045v235.737
		H250.248z"/>
	<path fill="#FF6600" d="M281.916,480.479h34.045V316.992c-8.835-3.97-14.998-12.84-14.998-23.163
		c0-10.315,6.163-19.185,14.998-23.162V174.13h-6.332c0,0-11.626,27.788-27.909,48.512v257.838H281.916z"/>
	<path d="M214.715,480.479h0.842V221.191c-15.692-20.545-26.786-47.061-26.786-47.061h-5.968v306.35H214.715z"/>
	<path d="M148.561,480.479H151V253.424c-7.673,7.928-18.815,12.988-34.996,12.988l0.398,214.067H148.561z"/>
	<path fill="#FFFFFF" d="M333.666,293.829c0-10.836-6.793-20.088-16.354-23.737c-0.459,0.175-0.905,0.375-1.351,0.575
		c-8.835,3.978-14.998,12.847-14.998,23.162c0,10.323,6.163,19.193,14.998,23.163c0.445,0.2,0.892,0.399,1.351,0.574
		C326.873,313.926,333.666,304.673,333.666,293.829z"/>
</g>
</svg>
