<?xml version="1.0" encoding="utf-8"?>
<!-- Generator: Adobe Illustrator 16.0.1, SVG Export Plug-In . SVG Version: 6.00 Build 0)  -->
<!DOCTYPE svg PUBLIC "-//W3C//DTD SVG 1.1//EN" "http://www.w3.org/Graphics/SVG/1.1/DTD/svg11.dtd">
<svg version="1.1" id="Layer_2" xmlns="http://www.w3.org/2000/svg" xmlns:xlink="http://www.w3.org/1999/xlink" x="0px" y="0px"
	 width="500px" height="500px" viewBox="0 0 500 500" enable-background="new 0 0 500 500" xml:space="preserve">
<g>
	<g>
		<path fill="#FED9AE" d="M157.406,338.494c0,11.979-9.8,21.778-21.778,21.778h-0.589c-11.978,0-21.778-9.8-21.778-21.778V218.491
			c0-11.978,9.8-21.778,21.778-21.778h0.589c11.978,0,21.778,9.8,21.778,21.778V338.494z"/>
	</g>
</g>
<g>
	<g>
		<path fill="#A2AEAE" d="M157.406,338.494c0,11.979-9.8,21.778-21.778,21.778h-0.589c-11.978,0-21.778-9.8-21.778-21.778V218.491
			c0-11.978,9.8-21.778,21.778-21.778h0.589c11.978,0,21.778,9.8,21.778,21.778V338.494z"/>
	</g>
</g>
<path fill="#CAD7D7" d="M160.742,323.7c0,15.043-50.814,15.043-50.814,0V220.784c0-15.043,9.824-27.351,21.832-27.351h7.149
	c12.009,0,21.833,12.308,21.833,27.351V323.7z"/>
<path fill="#BF3E3E" d="M109.928,317.65v6.051c0,15.043,50.814,15.043,50.814,0v-6.051
	C160.742,332.693,109.928,332.693,109.928,317.65z"/>
<path fill="#66A9EC" d="M110.005,232.155c14.691,0,26.591,11.909,26.591,26.599c0,14.686-11.899,26.597-26.591,26.597V232.155z"/>
</svg>
