<?xml version="1.0" encoding="utf-8"?>
<!-- Generator: Adobe Illustrator 16.0.1, SVG Export Plug-In . SVG Version: 6.00 Build 0)  -->
<!DOCTYPE svg PUBLIC "-//W3C//DTD SVG 1.1//EN" "http://www.w3.org/Graphics/SVG/1.1/DTD/svg11.dtd">
<svg version="1.1" id="content" xmlns="http://www.w3.org/2000/svg" xmlns:xlink="http://www.w3.org/1999/xlink" x="0px" y="0px"
	 width="500px" height="500px" viewBox="0 0 500 500" enable-background="new 0 0 500 500" xml:space="preserve">
<rect x="116.405" y="174.13" fill="#005088" width="265.854" height="307.25"/>
<rect x="175.061" y="174.132" fill="#FED9AE" width="158.879" height="79.064"/>
<g>
	<g>
		<polygon opacity="0.25" fill="#416E97" enable-background="new    " points="342.5,243.666 261.633,243.666 261.633,234.172 
			342.5,232.719 		"/>
		<path fill="#F48D6C" d="M261.633,234.172c0,0,44.229,7.568,80.868-1.453v73.07c0,0-10.562,10.188-40.604,10.188
			c-34.327,0-40.267-11.061-40.267-11.061L261.633,234.172L261.633,234.172z"/>
		<path fill="#F2E07C" d="M300.413,258.629c-22.595,0-38.354-3.906-38.62-3.965l-0.12-4.912c0.401,0.095,41.531,9.422,80.827-1.422
			v5.35C327.79,257.743,313.326,258.629,300.413,258.629z"/>
	</g>
</g>
<path fill="#A2AEAE" d="M334.971,229.871h-78.678h-0.327h-78.678c-7.242,0-13.104,5.867-13.104,13.105v121.775
	c0,7.23,5.862,13.102,13.104,13.102h78.678h0.327h78.678c7.224,0,13.104-5.87,13.104-13.102V242.977
	C348.075,235.738,342.195,229.871,334.971,229.871z"/>
<path fill="#CCCCCC" d="M249.837,370.527h79.005c7.224,0,13.104-5.871,13.104-13.104V235.65c0-7.239-5.88-13.106-13.104-13.106
	h-79.005V370.527z"/>
<path fill="#BF3E3E" d="M322.381,270.574c0,14.393-11.671,26.05-26.046,26.05c-14.393,0-26.062-11.657-26.062-26.05
	c0-14.379,11.67-26.05,26.062-26.05C310.71,244.524,322.381,256.195,322.381,270.574z"/>
<path fill="#902323" d="M307.136,270.574c0,5.977-4.847,10.811-10.801,10.811c-5.971,0-10.799-4.834-10.799-10.811
	c0-5.965,4.828-10.811,10.799-10.811C302.289,259.766,307.136,264.609,307.136,270.574z"/>
<path fill="#949494" d="M307.136,332.985c0,5.98-4.847,10.817-10.801,10.817c-5.971,0-10.799-4.837-10.799-10.817
	c0-5.964,4.828-10.807,10.799-10.807C302.289,322.18,307.136,327.021,307.136,332.985z"/>
<path fill="#FFFFFF" d="M249.727,222.544h-79.005c-7.242,0-13.103,5.867-13.103,13.106v121.774c0,7.231,5.86,13.104,13.103,13.104
	h79.005V222.544L249.727,222.544z"/>
<path fill="#F2A22D" d="M239.038,253.621c0,4.181-3.396,7.562-7.568,7.562h-53.759c-4.176,0-7.569-3.383-7.569-7.562v-6.567
	c0-4.173,3.394-7.564,7.569-7.564h53.759c4.173,0,7.568,3.391,7.568,7.564V253.621z"/>
<path fill="#F2A22D" d="M196.768,285.968c0,6.003-4.865,10.854-10.854,10.854c-5.989,0-10.854-4.852-10.854-10.854
	c0-5.987,4.863-10.841,10.854-10.841C191.904,275.127,196.768,279.98,196.768,285.968z"/>
<path fill="#F2A22D" d="M196.768,316.833c0,5.988-4.865,10.849-10.854,10.849c-5.989,0-10.854-4.859-10.854-10.849
	c0-5.994,4.863-10.855,10.854-10.855C191.904,305.978,196.768,310.839,196.768,316.833z"/>
<path fill="#CAD7D7" d="M342.948,174.132h-44.993c0,26.965-21.859,48.046-48.823,48.046s-48.823-21.081-48.823-48.046l-41.029,0.074
	l-17.154,135.24h218.509L342.948,174.132z"/>
<path fill="#005088" d="M351.666,174.132h-43.907c0,48.594-9.96,84.09-58.557,84.09c-48.593,0-61.162-35.496-61.162-84.09h-40.102
	c-18.197,0-31.843,15.12-30.327,33.254l20.165,241.023c1.518,18.135,17.646,32.971,35.843,32.971h151.897
	c18.197,0,34.35-14.835,35.895-32.965l20.531-241.033C383.551,188.495,369.799,174.132,351.666,174.132z"/>
<polygon fill="#014271" points="223.962,289.738 189.175,313.653 152.571,288.407 152.571,268.628 225.781,268.628 "/>
<polygon fill="#014271" points="347.436,289.738 312.649,313.653 276.045,288.407 276.045,268.628 349.254,268.628 "/>
<polygon fill="#66A9EC" points="349.254,288.928 312.652,305.222 276.044,288.928 276.044,268.628 349.254,268.628 "/>
<rect x="289.622" y="346.229" fill="#014271" width="54.836" height="74.73"/>
<polygon fill="#FFFFFF" points="225.781,288.928 189.178,305.222 152.571,288.928 152.571,268.628 225.781,268.628 "/>
<rect x="289.622" y="337.208" fill="#66A9EC" width="54.836" height="74.729"/>
</svg>
