<?xml version="1.0" encoding="utf-8"?>
<!-- Generator: Adobe Illustrator 16.0.1, SVG Export Plug-In . SVG Version: 6.00 Build 0)  -->
<!DOCTYPE svg PUBLIC "-//W3C//DTD SVG 1.1//EN" "http://www.w3.org/Graphics/SVG/1.1/DTD/svg11.dtd">
<svg version="1.1" id="content" xmlns="http://www.w3.org/2000/svg" xmlns:xlink="http://www.w3.org/1999/xlink" x="0px" y="0px"
	 width="500px" height="500px" viewBox="0 0 500 500" enable-background="new 0 0 500 500" xml:space="preserve">
<path fill="#005088" d="M301.667,174.13c-0.815,27.762-26.088,48.048-52.535,48.048s-51.816-20.287-52.632-48.048h-80.097v307.25
	h265.854V174.13H301.667z"/>
<path fill="#CAD7D7" d="M297.955,174.132c0,26.965-21.859,47.195-48.823,47.195s-48.823-20.23-48.823-47.195H188.04
	c0,48.594,12.567,84.091,61.162,84.091c48.597,0,58.557-35.497,58.557-84.091H297.955L297.955,174.132z"/>
<polygon fill="#014271" points="223.962,289.738 189.175,313.653 152.571,288.407 152.571,268.628 225.781,268.628 "/>
<polygon fill="#014271" points="347.436,289.738 312.649,313.653 276.045,288.407 276.045,268.628 349.254,268.628 "/>
<polygon fill="#66A9EC" points="349.254,288.928 312.652,305.222 276.044,288.928 276.044,268.628 349.254,268.628 "/>
<rect x="289.622" y="346.229" fill="#014271" width="54.836" height="74.73"/>
<polygon fill="#FFFFFF" points="225.781,288.928 189.178,305.222 152.571,288.928 152.571,268.628 225.781,268.628 "/>
<rect x="289.622" y="337.208" fill="#66A9EC" width="54.836" height="74.729"/>
</svg>
