<?xml version="1.0" encoding="utf-8"?>
<!-- Generator: Adobe Illustrator 16.0.1, SVG Export Plug-In . SVG Version: 6.00 Build 0)  -->
<!DOCTYPE svg PUBLIC "-//W3C//DTD SVG 1.1//EN" "http://www.w3.org/Graphics/SVG/1.1/DTD/svg11.dtd">
<svg version="1.1" id="content" xmlns="http://www.w3.org/2000/svg" xmlns:xlink="http://www.w3.org/1999/xlink" x="0px" y="0px"
	 width="500px" height="500px" viewBox="0 0 500 500" enable-background="new 0 0 500 500" xml:space="preserve">
<rect x="116.405" y="174.13" fill="#F2F2F2" width="265.854" height="307.25"/>
<path fill="#D0CECE" d="M224.805,192.647c5.445-0.371,11.097-0.274,18.233-0.215c-0.068-0.008-0.132-0.016-0.199-0.024
	c15.815-1.904,1.813-0.856-0.566-1.27c-8.573-0.739-23.287-0.173-30.447,1.294c-1.547,13.871-2.211,257.467-2.245,272.634h1.871
	c0.347-14.437,1.227-256.718,2.356-270.899C217.635,193.351,221.174,192.896,224.805,192.647z"/>
<g>
	<radialGradient id="SVGID_1_" cx="228.9241" cy="210.7715" r="6.7385" gradientUnits="userSpaceOnUse">
		<stop  offset="0" style="stop-color:#523F31"/>
		<stop  offset="0.597" style="stop-color:#4D382B"/>
		<stop  offset="1" style="stop-color:#483025"/>
	</radialGradient>
	<path fill-rule="evenodd" clip-rule="evenodd" fill="url(#SVGID_1_)" d="M228.925,204.031c3.721,0,6.737,3.017,6.737,6.744
		c0,3.716-3.016,6.736-6.737,6.736s-6.737-3.02-6.737-6.736C222.187,207.048,225.204,204.031,228.925,204.031z"/>
</g>
<g>
	<radialGradient id="SVGID_2_" cx="271.1917" cy="210.7715" r="6.7385" gradientUnits="userSpaceOnUse">
		<stop  offset="0" style="stop-color:#523F31"/>
		<stop  offset="0.597" style="stop-color:#4D382B"/>
		<stop  offset="1" style="stop-color:#483025"/>
	</radialGradient>
	<path fill-rule="evenodd" clip-rule="evenodd" fill="url(#SVGID_2_)" d="M271.193,204.031c3.719,0,6.736,3.017,6.736,6.744
		c0,3.716-3.018,6.736-6.736,6.736c-3.723,0-6.738-3.02-6.738-6.736C264.454,207.048,267.47,204.031,271.193,204.031z"/>
</g>
<g>
	<radialGradient id="SVGID_3_" cx="228.9241" cy="260.873" r="6.7388" gradientUnits="userSpaceOnUse">
		<stop  offset="0" style="stop-color:#523F31"/>
		<stop  offset="0.597" style="stop-color:#4D382B"/>
		<stop  offset="1" style="stop-color:#483025"/>
	</radialGradient>
	<path fill-rule="evenodd" clip-rule="evenodd" fill="url(#SVGID_3_)" d="M228.925,254.134c3.721,0,6.737,3.017,6.737,6.743
		c0,3.717-3.016,6.736-6.737,6.736s-6.737-3.02-6.737-6.736C222.187,257.15,225.204,254.134,228.925,254.134z"/>
</g>
<g>
	<radialGradient id="SVGID_4_" cx="271.1917" cy="260.873" r="6.7388" gradientUnits="userSpaceOnUse">
		<stop  offset="0" style="stop-color:#523F31"/>
		<stop  offset="0.597" style="stop-color:#4D382B"/>
		<stop  offset="1" style="stop-color:#483025"/>
	</radialGradient>
	<path fill-rule="evenodd" clip-rule="evenodd" fill="url(#SVGID_4_)" d="M271.193,254.134c3.719,0,6.736,3.017,6.736,6.743
		c0,3.717-3.018,6.736-6.736,6.736c-3.723,0-6.738-3.02-6.738-6.736C264.454,257.15,267.47,254.134,271.193,254.134z"/>
</g>
<g>
	<radialGradient id="SVGID_5_" cx="228.9241" cy="310.9766" r="6.7388" gradientUnits="userSpaceOnUse">
		<stop  offset="0" style="stop-color:#523F31"/>
		<stop  offset="0.597" style="stop-color:#4D382B"/>
		<stop  offset="1" style="stop-color:#483025"/>
	</radialGradient>
	<path fill-rule="evenodd" clip-rule="evenodd" fill="url(#SVGID_5_)" d="M228.925,304.236c3.721,0,6.737,3.017,6.737,6.743
		c0,3.718-3.016,6.737-6.737,6.737s-6.737-3.02-6.737-6.737C222.187,307.253,225.204,304.236,228.925,304.236z"/>
</g>
<g>
	<radialGradient id="SVGID_6_" cx="271.1917" cy="310.9766" r="6.7388" gradientUnits="userSpaceOnUse">
		<stop  offset="0" style="stop-color:#523F31"/>
		<stop  offset="0.597" style="stop-color:#4D382B"/>
		<stop  offset="1" style="stop-color:#483025"/>
	</radialGradient>
	<path fill-rule="evenodd" clip-rule="evenodd" fill="url(#SVGID_6_)" d="M271.193,304.236c3.719,0,6.736,3.017,6.736,6.743
		c0,3.718-3.018,6.737-6.736,6.737c-3.723,0-6.738-3.02-6.738-6.737C264.454,307.253,267.47,304.236,271.193,304.236z"/>
</g>
<g>
	<radialGradient id="SVGID_7_" cx="228.9241" cy="361.0801" r="6.7388" gradientUnits="userSpaceOnUse">
		<stop  offset="0" style="stop-color:#523F31"/>
		<stop  offset="0.597" style="stop-color:#4D382B"/>
		<stop  offset="1" style="stop-color:#483025"/>
	</radialGradient>
	<path fill-rule="evenodd" clip-rule="evenodd" fill="url(#SVGID_7_)" d="M228.925,354.339c3.721,0,6.737,3.018,6.737,6.742
		c0,3.72-3.016,6.739-6.737,6.739s-6.737-3.02-6.737-6.739C222.187,357.356,225.204,354.339,228.925,354.339z"/>
</g>
<g>
	<radialGradient id="SVGID_8_" cx="271.1917" cy="361.0801" r="6.7388" gradientUnits="userSpaceOnUse">
		<stop  offset="0" style="stop-color:#523F31"/>
		<stop  offset="0.597" style="stop-color:#4D382B"/>
		<stop  offset="1" style="stop-color:#483025"/>
	</radialGradient>
	<path fill-rule="evenodd" clip-rule="evenodd" fill="url(#SVGID_8_)" d="M271.193,354.339c3.719,0,6.736,3.018,6.736,6.742
		c0,3.72-3.018,6.739-6.736,6.739c-3.723,0-6.738-3.02-6.738-6.739C264.454,357.356,267.47,354.339,271.193,354.339z"/>
</g>
<g>
	<radialGradient id="SVGID_9_" cx="228.9241" cy="411.1836" r="6.7388" gradientUnits="userSpaceOnUse">
		<stop  offset="0" style="stop-color:#523F31"/>
		<stop  offset="0.597" style="stop-color:#4D382B"/>
		<stop  offset="1" style="stop-color:#483025"/>
	</radialGradient>
	<path fill-rule="evenodd" clip-rule="evenodd" fill="url(#SVGID_9_)" d="M228.925,404.442c3.721,0,6.737,3.017,6.737,6.742
		c0,3.719-3.016,6.739-6.737,6.739s-6.737-3.021-6.737-6.739C222.187,407.459,225.204,404.442,228.925,404.442z"/>
</g>
<g>
	<radialGradient id="SVGID_10_" cx="271.1917" cy="411.1836" r="6.7388" gradientUnits="userSpaceOnUse">
		<stop  offset="0" style="stop-color:#523F31"/>
		<stop  offset="0.597" style="stop-color:#4D382B"/>
		<stop  offset="1" style="stop-color:#483025"/>
	</radialGradient>
	<path fill-rule="evenodd" clip-rule="evenodd" fill="url(#SVGID_10_)" d="M271.193,404.442c3.719,0,6.736,3.017,6.736,6.742
		c0,3.719-3.018,6.739-6.736,6.739c-3.723,0-6.738-3.021-6.738-6.739C264.454,407.459,267.47,404.442,271.193,404.442z"/>
</g>
<path fill="#D04E43" d="M231.649,194.792c0,0-45.318,0.987-48.921-20.651h15.114c0,0,19.685,16.894,40.102,16.415
	C258.357,190.071,231.649,194.792,231.649,194.792z"/>
<path fill="#9C3B32" d="M261.336,194.792c0,0,45.318,0.987,48.921-20.651h-15.113c0,0-19.687,16.894-40.103,16.415
	C234.628,190.071,261.336,194.792,261.336,194.792z"/>
<path fill="#BBB9B9" d="M254.165,197.454c-1.646-0.097-3.299-0.234-4.968-0.463c-0.806-0.11-1.616-0.184-2.426-0.26
	c-3.29,0.438-6.61,0.751-9.65,0.16c-0.382-0.075-0.755-0.223-1.12-0.402c-8.076,4.627-26.959,16.157-31.293,25.142
	c-5.556,11.512-13.554,41.81-10.547,42.001c3.015,0.189,33.884-24.489,39.796-34.597c5.913-10.108,12.915-19.701,15.026-31.527
	c-0.028-0.097-0.138-0.173-0.19-0.261h0.003c1.108,0.116,2.276,0.2,3.55,0.232l-0.003,0.029h1.359l-0.003-0.029
	C253.863,197.474,254.009,197.461,254.165,197.454z"/>
<path fill="#BBB9B9" d="M290.105,221.631c-4.294-8.903-22.835-20.281-31.019-24.98c-4.418,0.651-8.802,0.996-13.243,0.922
	c2.124,11.795,9.11,21.373,15.009,31.462c5.918,10.107,36.781,34.786,39.796,34.597C303.659,263.44,295.662,233.143,290.105,221.631
	z"/>
<path fill="#D04E43" d="M255.516,197.454c-1.974-0.097-3.955-0.234-5.961-0.463c-0.967-0.11-1.939-0.184-2.911-0.26
	c-3.948,0.438-7.931,0.751-11.579,0.16c-0.459-0.075-0.907-0.223-1.345-0.402c-9.69,4.627-32.348,16.157-37.549,25.142
	c-6.667,11.512-16.264,41.81-12.657,42.001c3.618,0.189,40.659-24.489,47.753-34.597c7.094-10.108,15.496-19.701,18.029-31.527
	c-0.034-0.097-0.165-0.173-0.229-0.261h0.004c1.33,0.116,2.732,0.2,4.259,0.232l-0.003,0.029h1.632l-0.006-0.029
	C255.154,197.474,255.328,197.461,255.516,197.454z"/>
<path fill="#9C3B32" d="M298.641,221.631c-5.152-8.903-27.4-20.281-37.219-24.98c-5.301,0.651-10.564,0.996-15.891,0.922
	c2.548,11.795,10.929,21.373,18.009,31.462c7.101,10.107,44.138,34.786,47.752,34.597
	C314.907,263.44,305.311,233.143,298.641,221.631z"/>
<ellipse fill="#D04E43" cx="247.236" cy="194.94" rx="15.833" ry="12.011"/>
<ellipse fill="#DF6057" cx="247.356" cy="191.838" rx="7.855" ry="5.235"/>
</svg>
