<?xml version="1.0" encoding="utf-8"?>
<!-- Generator: Adobe Illustrator 16.0.1, SVG Export Plug-In . SVG Version: 6.00 Build 0)  -->
<!DOCTYPE svg PUBLIC "-//W3C//DTD SVG 1.1//EN" "http://www.w3.org/Graphics/SVG/1.1/DTD/svg11.dtd">
<svg version="1.1" id="content" xmlns="http://www.w3.org/2000/svg" xmlns:xlink="http://www.w3.org/1999/xlink" x="0px" y="0px"
	 width="500px" height="500px" viewBox="0 0 500 500" enable-background="new 0 0 500 500" xml:space="preserve">
<rect x="116.403" y="173.86" fill="#2E2C1B" width="265.854" height="307.25"/>
<g>
	<g>
		<polygon fill="#BD4C3D" points="262.27,361.68 233.325,361.68 161.454,174.271 340.129,174.271 		"/>
	</g>
	<polygon fill="#B03F30" points="229.781,203 197.79,236.133 188.282,174.701 198.636,175.924 	"/>
	<polygon fill="#B03F30" points="270.495,202.37 301.591,236.133 311.099,174.701 301.849,177.754 	"/>
	<path fill="#2E2C1B" d="M305.123,174.271c0.445,0.758,0.684,1.534,0.684,2.324c0,8.144-24.57,163.728-54.879,163.728
		s-54.879-155.584-54.879-163.728c0-0.791,0.238-1.566,0.685-2.324H122.67l22.832,259.196c1.467,17.149,16.751,31.183,33.965,31.183
		h143.687c17.214,0,32.466-14.036,33.896-31.188l22.138-259.19H305.123z"/>
	<g>
		<path fill="#211F0E" d="M354.561,265.99c-1.56-0.244-2.992,0.766-3.371,2.268l-9.7-3l-3.109-9.954
			c1.392-0.083,2.601-1.069,2.83-2.501c0.258-1.655-0.874-3.207-2.533-3.467c-1.651-0.263-3.204,0.875-3.464,2.527
			c-0.21,1.326,0.498,2.555,1.635,3.138l-6.054,8.579l-10.114-0.114c0-0.007,0.003-0.007,0.003-0.013
			c0.259-1.652-0.87-3.205-2.524-3.467c-1.659-0.26-3.213,0.87-3.47,2.527c-0.258,1.653,0.873,3.21,2.524,3.465
			c0.999,0.16,1.923-0.229,2.587-0.894l6.096,8.146l-3.413,10.113c-0.217-0.086-0.419-0.203-0.661-0.245
			c-1.653-0.258-3.207,0.874-3.466,2.526c-0.263,1.657,0.87,3.209,2.526,3.469c1.655,0.263,3.208-0.873,3.47-2.524
			c0.133-0.872-0.128-1.697-0.635-2.342l9.846-3.352l8.33,6.202c-0.683,0.453-1.192,1.162-1.331,2.035
			c-0.259,1.654,0.871,3.209,2.53,3.467c1.651,0.259,3.204-0.871,3.467-2.526c0.261-1.654-0.871-3.204-2.53-3.467
			c-0.231-0.038-0.456,0.014-0.679,0.03l-0.15-10.669l8.156-5.782c0.398,0.922,1.198,1.65,2.266,1.821
			c1.653,0.258,3.206-0.875,3.467-2.532C357.347,267.802,356.218,266.249,354.561,265.99z"/>
		<g>
			<polygon fill="#FEDE58" points="338.582,247.983 342.228,259.663 353.912,263.276 343.936,270.354 344.11,282.581 
				334.299,275.277 322.722,279.223 326.632,267.636 319.299,257.843 331.531,257.982 			"/>
			<g>
				<path fill="#FEDE58" d="M341.947,247.205c-0.266,1.658-1.814,2.788-3.471,2.528c-1.653-0.258-2.786-1.814-2.524-3.469
					c0.258-1.651,1.811-2.784,3.464-2.524C341.073,243.999,342.205,245.553,341.947,247.205z"/>
				<path fill="#FFFFFF" d="M341.382,246.541c-0.137,0.867-0.951,1.458-1.818,1.32c-0.866-0.133-1.46-0.946-1.322-1.818
					c0.136-0.863,0.951-1.455,1.813-1.32C340.926,244.857,341.515,245.674,341.382,246.541z"/>
			</g>
			<g>
				<path fill="#FEDE58" d="M325.088,280.967c-0.262,1.658-1.815,2.791-3.469,2.532c-1.656-0.261-2.788-1.814-2.527-3.469
					c0.259-1.656,1.812-2.788,3.467-2.526C324.215,277.763,325.348,279.315,325.088,280.967z"/>
				<path fill="#FFFFFF" d="M324.524,280.304c-0.137,0.867-0.951,1.461-1.817,1.324c-0.868-0.138-1.457-0.952-1.323-1.818
					c0.136-0.865,0.95-1.457,1.813-1.323C324.068,278.623,324.658,279.437,324.524,280.304z"/>
			</g>
			<g>
				<path fill="#FEDE58" d="M347.295,284.456c-0.261,1.659-1.814,2.787-3.467,2.526c-1.657-0.256-2.787-1.811-2.528-3.467
					c0.261-1.655,1.813-2.784,3.467-2.526C346.424,281.248,347.556,282.805,347.295,284.456z"/>
				<path fill="#FFFFFF" d="M346.735,283.789c-0.139,0.867-0.951,1.462-1.819,1.324c-0.867-0.135-1.46-0.951-1.325-1.818
					c0.139-0.863,0.952-1.457,1.816-1.32C346.278,282.109,346.868,282.927,346.735,283.789z"/>
			</g>
			<g>
				<path fill="#FEDE58" d="M357.826,263.859c-0.262,1.659-1.816,2.788-3.467,2.526c-1.656-0.259-2.791-1.811-2.529-3.466
					s1.811-2.785,3.466-2.523C356.955,260.651,358.084,262.209,357.826,263.859z"/>
				<path fill="#FFFFFF" d="M357.262,263.193c-0.136,0.871-0.947,1.46-1.815,1.323c-0.867-0.133-1.46-0.95-1.324-1.817
					c0.14-0.864,0.951-1.458,1.816-1.32C356.807,261.513,357.399,262.328,357.262,263.193z"/>
			</g>
			<g>
				<path fill="#FEDE58" d="M321.421,257.857c-0.259,1.655-1.811,2.788-3.47,2.526c-1.653-0.261-2.786-1.812-2.526-3.469
					c0.259-1.653,1.812-2.784,3.469-2.527C320.55,254.649,321.679,256.204,321.421,257.857z"/>
				<path fill="#FFFFFF" d="M320.857,257.188c-0.136,0.867-0.947,1.46-1.815,1.327c-0.867-0.138-1.46-0.951-1.324-1.818
					c0.135-0.867,0.948-1.461,1.819-1.323C320.4,255.512,320.996,256.323,320.857,257.188z"/>
			</g>
		</g>
	</g>
	<rect x="249.101" y="182.42" fill="#A33223" width="3.653" height="157.848"/>
	<polygon fill="#141201" points="231.797,346.014 235.451,340.268 235.451,481.11 231.797,481.11 231.797,415.43 	"/>
	<g>
		<g>
			<g>
				<path fill="#2E2C1B" d="M237.395,230.596c-0.42,1.059-10.33,26.339-13.127,61.989c-0.16,2.01,1.346,3.769,3.355,3.928
					c2.012,0.155,3.772-1.345,3.929-3.357c2.702-34.482,12.538-59.611,12.636-59.861c0.744-1.875-0.179-3.992-2.049-4.739
					C240.261,227.809,238.135,228.728,237.395,230.596z"/>
			</g>
			<g>
				<path fill="#2E2C1B" d="M264.188,230.596c0.42,1.059,10.331,26.339,13.127,61.989c0.156,2.01-1.346,3.769-3.357,3.928
					c-2.013,0.155-3.772-1.345-3.926-3.357c-2.705-34.482-12.536-59.611-12.636-59.861c-0.743-1.875,0.179-3.992,2.047-4.739
					C261.322,227.809,263.448,228.728,264.188,230.596z"/>
			</g>
			<g>
				<path fill="#8A8A8A" d="M227.566,208.579c0,19.416,10.627,34.632,24.188,34.632c13.566,0,24.189-15.216,24.189-34.632
					c0-19.422-10.623-34.635-24.189-34.635C238.193,173.944,227.566,189.156,227.566,208.579z"/>
				<ellipse fill="#2E2C1B" cx="251.759" cy="209.146" rx="16.882" ry="27.325"/>
				<g>
					<path fill="#40422F" d="M266.206,207.057c0,10.426-5.229,18.878-11.671,18.878c-6.437,0-11.662-8.452-11.662-18.878
						c0-10.425,5.225-18.877,11.662-18.877C260.978,188.18,266.206,196.631,266.206,207.057z"/>
				</g>
			</g>
		</g>
	</g>
	<polygon fill="#C96C5F" points="251.758,173.723 312.593,229.489 312.593,173.576 312.593,173.706 	"/>
	<polygon fill="#C96C5F" points="250.928,173.944 188.585,230.73 188.282,173.723 188.282,173.723 	"/>
	<rect x="235.451" y="340.268" fill="#141201" width="17.303" height="3.884"/>
	<circle fill="#141201" cx="249.58" cy="368.778" r="5.701"/>
	<circle fill="#141201" cx="249.58" cy="407.98" r="5.701"/>
</g>
</svg>
