<?xml version="1.0" encoding="utf-8"?>
<!-- Generator: Adobe Illustrator 16.0.1, SVG Export Plug-In . SVG Version: 6.00 Build 0)  -->
<!DOCTYPE svg PUBLIC "-//W3C//DTD SVG 1.1//EN" "http://www.w3.org/Graphics/SVG/1.1/DTD/svg11.dtd">
<svg version="1.1" id="content" xmlns="http://www.w3.org/2000/svg" xmlns:xlink="http://www.w3.org/1999/xlink" x="0px" y="0px"
	 width="500px" height="500px" viewBox="0 0 500 500" enable-background="new 0 0 500 500" xml:space="preserve">
<polygon fill="#F7F7E2" points="306.565,174.13 271.597,203.677 250.143,266.953 228.591,204.342 194.955,174.13 116.405,174.13 
	116.405,481.38 382.259,481.38 382.259,174.13 "/>
<polygon fill="#EDEDED" points="306.721,173.998 271.597,203.677 250.143,266.953 228.591,204.342 194.808,173.998 156.421,173.998 
	232.336,301.132 262.907,301.132 345.148,173.998 "/>
<polygon fill="#D2D2D2" points="228.591,204.342 194.801,239.34 184.758,174.452 195.695,175.743 "/>
<polygon fill="#D2D2D2" points="271.597,203.677 304.441,239.34 314.484,174.452 304.714,177.676 "/>
<g>
	<g>
		<g>
			<g>
				<path fill="#9EDAE8" d="M249.487,316.088c-9.512,0-22.243-5.659-63.428-73.284c-20.541-33.732-39.436-68.725-39.618-69.066
					l26.614,0.129c37.367,69.642,64.703,108.328,76.439,117.914c11.771-9.573,39.232-48.239,76.857-117.914l27.293,0.585
					c0.541-0.842-19.854,34.646-40.512,68.376C271.73,310.432,258.99,316.088,249.487,316.088z"/>
				<path fill="#0066B1" d="M249.487,307.781c-3.862,0-14.131,0-56.331-69.298c-20.425-33.541-36.554-64.145-36.733-64.485
					l7.52-0.113c3.794,6.971,14.571,27.775,34.905,61.161c38.307,62.899,48.905,66.086,50.641,66.086
					c1.738,0,12.354-3.187,50.893-66.114c20.448-33.387,35.635-60.603,35.814-60.94l7.265-0.056
					c-1.961,3.596-16.868,30.928-37.41,64.469C263.612,307.781,253.351,307.781,249.487,307.781z"/>
			</g>
		</g>
	</g>
</g>
<polygon fill="#E3E3E3" points="271.597,203.677 316.063,232.921 316.063,173.867 306.699,173.89 "/>
<polygon fill="#E3E3E3" points="228.591,204.342 185.077,234.232 184.758,174.13 195.646,174.078 "/>
</svg>
