<?xml version="1.0" encoding="utf-8"?>
<!-- Generator: Adobe Illustrator 16.0.1, SVG Export Plug-In . SVG Version: 6.00 Build 0)  -->
<!DOCTYPE svg PUBLIC "-//W3C//DTD SVG 1.1//EN" "http://www.w3.org/Graphics/SVG/1.1/DTD/svg11.dtd">
<svg version="1.1" id="content" xmlns="http://www.w3.org/2000/svg" xmlns:xlink="http://www.w3.org/1999/xlink" x="0px" y="0px"
	 width="500px" height="500px" viewBox="0 0 500 500" enable-background="new 0 0 500 500" xml:space="preserve">
<rect x="116.405" y="174.13" fill="#F7F7E2" width="265.854" height="307.25"/>
<g>
	<path fill="#F7F7E2" d="M362.445,447.773c-1.543,18.116-17.682,32.938-35.863,32.938H174.809
		c-18.182,0-34.298-14.824-35.814-32.942l-20.148-240.829c-1.516-18.119,12.12-32.943,30.302-32.943h203.559
		c18.182,0,31.795,14.822,30.252,32.938L362.445,447.773z"/>
</g>
<g>
	<polygon fill="#EDEDED" points="262.907,301.132 232.336,301.132 156.421,173.998 345.148,173.998 	"/>
</g>
<polygon fill="#FCD7AC" points="194.801,174.078 228.591,204.342 250.143,266.953 271.597,203.677 307.135,173.737 "/>
<polygon fill="#9EDAE8" points="382.259,456.646 116.091,456.646 116.405,480.143 382.259,481.141 "/>
<polygon fill="#D2D2D2" points="228.591,204.342 194.801,239.34 184.758,174.452 195.695,175.743 "/>
<polygon fill="#D2D2D2" points="271.597,203.677 304.441,239.34 314.484,174.452 304.714,177.676 "/>
<g>
	<defs>
		<rect id="SVGID_1_" x="145.82" y="173.998" width="210.343" height="167.144"/>
	</defs>
	<clipPath id="SVGID_2_">
		<use xlink:href="#SVGID_1_"  overflow="visible"/>
	</clipPath>
	<g clip-path="url(#SVGID_2_)">
		<path fill="#9EDAE8" d="M249.487,316.088c-9.512,0-22.246-5.659-63.428-73.284c-20.541-33.732-39.436-68.725-39.618-69.066
			l21.029-10.185c37.367,69.642,70.287,118.643,82.023,128.229c11.771-9.573,44.87-58.582,82.495-128.257L354,172.667
			c0.541-0.842-20.209,36.431-40.867,70.161C271.73,310.432,258.99,316.088,249.487,316.088z"/>
		<path fill="#0066B1" d="M249.487,307.781c-3.865,0-14.131,0-56.331-69.298c-20.425-33.541-38.683-67.52-38.865-67.86l5.856-3.142
			c0.182,0.339,18.365,34.179,38.699,67.565c38.307,62.899,48.905,66.086,50.641,66.086c1.738,0,12.353-3.187,50.89-66.114
			c20.448-33.387,38.74-67.207,38.921-67.544l5.85,3.158c-0.184,0.339-18.56,34.318-39.102,67.859
			C263.612,307.781,253.351,307.781,249.487,307.781z"/>
	</g>
</g>
<polygon fill="#0066B1" points="382.259,472.081 116.336,472.081 116.405,465.465 382.259,465.465 "/>
<polygon fill="#E3E3E3" points="271.597,203.677 316.063,232.921 316.063,173.867 306.699,173.89 "/>
<polygon fill="#E3E3E3" points="228.591,204.342 185.077,234.232 184.758,174.13 195.646,174.078 "/>
</svg>
