<?xml version="1.0" encoding="utf-8"?>
<!-- Generator: Adobe Illustrator 16.0.1, SVG Export Plug-In . SVG Version: 6.00 Build 0)  -->
<!DOCTYPE svg PUBLIC "-//W3C//DTD SVG 1.1//EN" "http://www.w3.org/Graphics/SVG/1.1/DTD/svg11.dtd">
<svg version="1.1" id="content" xmlns="http://www.w3.org/2000/svg" xmlns:xlink="http://www.w3.org/1999/xlink" x="0px" y="0px"
	 width="500px" height="500px" viewBox="0 0 500 500" enable-background="new 0 0 500 500" xml:space="preserve">
<path fill="#FF7679" d="M306.139,173.645c-0.389,31.432-25.968,57.625-57.479,57.625s-57.089-26.192-57.478-57.625h-74.776v306.862
	h265.854V173.645H306.139z"/>
<g>
	<circle fill="#F3968E" cx="160.488" cy="405.029" r="14.168"/>
	<circle fill="#F3968E" cx="160.488" cy="332.151" r="14.168"/>
	<circle fill="#F3968E" cx="160.488" cy="253.409" r="14.167"/>
	<path fill="#F3968E" d="M174.655,173.645c0,7.826-6.341,14.167-14.167,14.167c-7.824,0-14.168-6.341-14.168-14.167H174.655z"/>
	<path fill="#F3968E" d="M353.764,173.645c0,7.826-6.339,14.167-14.165,14.167s-14.17-6.341-14.17-14.167H353.764z"/>
	<circle fill="#F3968E" cx="219.317" cy="442.542" r="14.167"/>
	<circle fill="#F3968E" cx="219.317" cy="369.662" r="14.167"/>
	<circle fill="#F3968E" cx="219.317" cy="290.92" r="14.167"/>
	<circle fill="#F3968E" cx="280.771" cy="405.029" r="14.168"/>
	<circle fill="#F3968E" cx="280.771" cy="332.151" r="14.168"/>
	<circle fill="#F3968E" cx="280.771" cy="253.409" r="14.167"/>
	<circle fill="#F3968E" cx="339.599" cy="442.542" r="14.167"/>
	<path fill="#F3968E" d="M339.599,355.494c-7.826,0-14.17,6.344-14.17,14.169c0,7.823,6.344,14.166,14.17,14.166
		s14.165-6.343,14.165-14.166C353.764,361.838,347.425,355.494,339.599,355.494z"/>
	<path fill="#F3968E" d="M339.599,276.753c-7.826,0-14.17,6.345-14.17,14.169c0,7.825,6.344,14.166,14.17,14.166
		s14.165-6.341,14.165-14.166C353.764,283.098,347.425,276.753,339.599,276.753z"/>
	<circle fill="#FFFFFF" cx="248.659" cy="247.014" r="6.216"/>
	<circle fill="#FF7679" cx="246.242" cy="244.934" r="1.296"/>
	<circle fill="#FF7679" cx="250.857" cy="244.934" r="1.295"/>
	<circle fill="#FF7679" cx="246.242" cy="249.395" r="1.296"/>
	<circle fill="#FF7679" cx="250.857" cy="249.395" r="1.295"/>
</g>
</svg>
