<?xml version="1.0" encoding="utf-8"?>
<!-- Generator: Adobe Illustrator 16.0.1, SVG Export Plug-In . SVG Version: 6.00 Build 0)  -->
<!DOCTYPE svg PUBLIC "-//W3C//DTD SVG 1.1//EN" "http://www.w3.org/Graphics/SVG/1.1/DTD/svg11.dtd">
<svg version="1.1" id="Layer_1" xmlns="http://www.w3.org/2000/svg" xmlns:xlink="http://www.w3.org/1999/xlink" x="0px" y="0px"
	 width="500px" height="500px" viewBox="0 0 500 500" enable-background="new 0 0 500 500" xml:space="preserve">
<rect x="111.281" y="197.29" fill="#C0C5CD" width="47.526" height="145.745"/>
<rect x="130.414" y="197.29" fill="#9EABB4" width="9.26" height="145.745"/>
<polygon fill="#C0C5CD" points="102.711,388.764 122.751,388.764 122.751,368.299 147.349,368.299 147.349,388.764 167.388,388.764 
	167.388,343.035 102.711,343.035 "/>
<rect x="111.274" y="324.004" fill="#9EABB4" width="47.533" height="19.031"/>
<rect x="96.135" y="197.29" fill="#C0C5CD" width="15.43" height="92.931"/>
<ellipse fill="#93A7AA" cx="117.717" cy="207.547" rx="4.643" ry="4.525"/>
<path fill="#93A7AA" d="M122.34,231.688c-0.004,2.501-2.084,4.526-4.65,4.525c-2.562-0.003-4.64-2.032-4.639-4.533
	c0.004-2.497,2.084-4.524,4.647-4.521C120.264,227.163,122.34,229.191,122.34,231.688z"/>
<path fill="#93A7AA" d="M122.317,255.83c-0.004,2.496-2.084,4.521-4.646,4.521c-2.567-0.004-4.644-2.033-4.644-4.529
	c0.004-2.502,2.085-4.525,4.652-4.525C120.24,251.301,122.317,253.328,122.317,255.83z"/>
<path fill="#93A7AA" d="M122.293,279.967c0,2.502-2.081,4.527-4.646,4.521c-2.566-0.002-4.643-2.031-4.639-4.528
	c0-2.501,2.08-4.525,4.647-4.521C120.22,275.438,122.298,277.467,122.293,279.967z"/>
</svg>
