<?xml version="1.0" encoding="utf-8"?>
<!-- Generator: Adobe Illustrator 16.0.1, SVG Export Plug-In . SVG Version: 6.00 Build 0)  -->
<!DOCTYPE svg PUBLIC "-//W3C//DTD SVG 1.1//EN" "http://www.w3.org/Graphics/SVG/1.1/DTD/svg11.dtd">
<svg version="1.1" id="content" xmlns="http://www.w3.org/2000/svg" xmlns:xlink="http://www.w3.org/1999/xlink" x="0px" y="0px"
	 width="500px" height="500px" viewBox="0 0 500 500" enable-background="new 0 0 500 500" xml:space="preserve">
<g>
	<polygon fill="#9EABB4" points="116.405,174.518 116.405,481.38 382.259,481.38 382.259,174.518 	"/>
</g>
<g>
	<rect x="159.436" y="203.56" fill="#C0C5CD" width="71.097" height="61.042"/>
	<path fill="#89949B" d="M156.15,287.824c0,5.42,4.396,9.809,9.816,9.809c5.421,0,9.815-4.389,9.815-9.809s-4.394-9.819-9.815-9.819
		C160.546,278.005,156.15,282.404,156.15,287.824"/>
	<path fill="#FFFFFF" d="M195.286,278.005c-5.418,0-9.812,4.399-9.812,9.819s4.394,9.809,9.812,9.809
		c5.422,0,9.816-4.389,9.816-9.809S200.708,278.005,195.286,278.005z"/>
</g>
<g>
	<rect x="275.99" y="203.56" fill="#C0C5CD" width="71.097" height="61.042"/>
	<path fill="#89949B" d="M350.372,287.824c0,5.42-4.397,9.809-9.816,9.809s-9.813-4.389-9.813-9.809s4.395-9.819,9.813-9.819
		S350.372,282.404,350.372,287.824"/>
	<path fill="#FFFFFF" d="M311.236,278.005c5.419,0,9.812,4.399,9.812,9.819s-4.394,9.809-9.812,9.809
		c-5.42,0-9.815-4.389-9.815-9.809S305.816,278.005,311.236,278.005z"/>
</g>
<g>
	<path fill="#C0C5CD" d="M249.718,314.743c-36.395,0-65.999,29.604-65.999,65.999c0,36.412,29.604,66.023,65.999,66.023
		c36.396,0,66.014-29.611,66.014-66.023C315.732,344.348,286.114,314.743,249.718,314.743z"/>
	<polygon fill="#E65A5A" points="249.719,299.771 249.719,299.771 249.719,299.771 	"/>
	<path fill="#89949B" d="M249.718,325.053c-30.765,0-55.708,24.93-55.708,55.689c0,30.792,24.943,55.726,55.708,55.726
		c30.78,0,55.716-24.934,55.716-55.726C305.434,349.982,280.498,325.053,249.718,325.053z"/>
	<polygon fill="#00465A" points="249.719,308.399 249.719,308.399 249.719,308.399 	"/>
	<path fill="#FFFFFF" d="M283.094,374.921h-27.547v-29.53c0-3.217-2.615-5.828-5.829-5.828c-3.21,0-5.828,2.611-5.828,5.828v35.352
		c0,3.223,2.618,5.84,5.828,5.84h33.376c3.212,0,5.822-2.617,5.822-5.84C288.916,377.533,286.306,374.921,283.094,374.921z"/>
</g>
</svg>
