<?xml version="1.0" encoding="utf-8"?>
<!-- Generator: Adobe Illustrator 16.0.1, SVG Export Plug-In . SVG Version: 6.00 Build 0)  -->
<!DOCTYPE svg PUBLIC "-//W3C//DTD SVG 1.1//EN" "http://www.w3.org/Graphics/SVG/1.1/DTD/svg11.dtd">
<svg version="1.1" id="content" xmlns="http://www.w3.org/2000/svg" xmlns:xlink="http://www.w3.org/1999/xlink" x="0px" y="0px"
	 width="500px" height="500px" viewBox="0 0 500 500" enable-background="new 0 0 500 500" xml:space="preserve">
<polygon fill="#92B4DF" points="305.59,174.518 270.599,203.845 250.18,264.063 229.669,204.477 197.188,174.518 116.405,174.518 
	116.405,481.38 382.259,481.38 382.259,174.518 "/>
<g>
	<polygon fill="#92B4DF" points="250.142,267.551 116.405,174.518 116.405,481.38 382.259,481.38 382.259,174.518 	"/>
</g>
<polygon fill="#7791B2" points="229.669,204.477 195.047,236.096 187.954,175.599 197.511,175.184 "/>
<polygon fill="#7791B2" points="272.08,204.477 306.702,236.096 312.735,174.518 305.59,174.518 "/>
<polygon fill="#88A8CF" points="229.669,204.477 188.257,232.924 187.954,174.518 197.188,174.518 "/>
<polygon fill="#88A8CF" points="270.599,203.845 312.916,233.111 312.735,174.518 305.59,174.518 "/>
<g>
	<g>
		<path fill="#88A8CF" d="M332.029,273.853l-19.113-10.568l-19.112,10.568c0,0-0.976,21.653,13.049,32.527
			c1.768,1.613,3.778,3.116,6.063,4.445c2.289-1.329,4.3-2.834,6.069-4.448C333.004,295.502,332.029,273.853,332.029,273.853z"/>
	</g>
</g>
<g>
	<g>
		<path fill="#92B4DF" d="M312.916,307.905l-0.24-0.158c-1.469-0.96-2.862-2.04-4.145-3.209c-0.049-0.044-0.1-0.088-0.151-0.128
			c-10.759-8.343-11.969-24.165-12.084-28.817l-0.006-0.266l16.626-9.192l16.627,9.192l-0.008,0.267
			c-0.113,4.649-1.323,20.469-12.079,28.813c-0.053,0.04-0.104,0.084-0.151,0.129c-1.284,1.171-2.68,2.251-4.147,3.211
			L312.916,307.905z M297.185,275.838c0.151,4.862,1.478,19.923,11.734,27.876c0.071,0.056,0.14,0.114,0.206,0.174
			c1.178,1.073,2.45,2.07,3.791,2.963c1.342-0.895,2.616-1.892,3.795-2.966c0.065-0.061,0.136-0.118,0.205-0.174
			c10.256-7.954,11.581-23.011,11.732-27.873l-15.732-8.699L297.185,275.838z"/>
	</g>
</g>
<g>
	<g>
		<path fill="#92B4DF" d="M312.916,309.631l-0.076-0.045c-1.894-1.153-3.675-2.485-5.296-3.963c-0.02-0.019-0.041-0.037-0.062-0.053
			c-12.111-9.395-12.674-27.486-12.663-31.019l0.001-0.087l18.097-10.008l18.099,10.008v0.087c0.01,3.53-0.552,21.62-12.659,31.014
			c-0.022,0.018-0.042,0.034-0.062,0.053c-1.622,1.481-3.406,2.814-5.3,3.968L312.916,309.631z M295.112,274.637
			c-0.002,3.706,0.64,21.467,12.549,30.701c0.028,0.021,0.054,0.044,0.08,0.068c1.586,1.444,3.326,2.75,5.175,3.881
			c1.851-1.131,3.593-2.438,5.179-3.886c0.025-0.022,0.053-0.046,0.081-0.066c11.904-9.235,12.547-26.992,12.545-30.698
			l-17.805-9.843L295.112,274.637z"/>
	</g>
</g>
<g>
	<g>
		<g>
			<g>
				<g>
					<g>
						<g>
							<path fill="#88A8CF" d="M288.683,288.357c-0.043-0.619,0.118-1.056,0.288-1.517c0.194-0.526,0.394-1.071,0.308-1.982
								l0.38-0.036c0.093,0.997-0.131,1.609-0.331,2.15c-0.161,0.44-0.301,0.821-0.264,1.359L288.683,288.357z"/>
						</g>
					</g>
					<g>
						<g>
							<g>
								<path fill="#88A8CF" d="M289.353,286.592c0,0-1.737-3.55,2.448-6.085C291.801,280.507,292.785,283.487,289.353,286.592z"/>
							</g>
						</g>
					</g>
				</g>
				<g>
					<g>
						<path fill="#88A8CF" d="M289.496,285.982c0,0-0.148-0.666,0.682-2.591c0.774-1.796,1.387-2.322,1.387-2.322
							C288.968,282.862,289.226,285.045,289.496,285.982z"/>
					</g>
				</g>
			</g>
			<g>
				<g>
					<g>
						<g>
							<path fill="#88A8CF" d="M290.277,293.16c-0.111-0.608-0.003-1.061,0.114-1.539c0.133-0.545,0.27-1.108,0.083-2.004
								l0.372-0.079c0.207,0.98,0.051,1.614-0.084,2.173c-0.111,0.457-0.209,0.851-0.111,1.381L290.277,293.16z"/>
						</g>
					</g>
					<g>
						<g>
							<g>
								<path fill="#88A8CF" d="M290.744,291.33c0,0-2.127-3.329,1.746-6.32C292.49,285.01,293.804,287.858,290.744,291.33z"/>
							</g>
						</g>
					</g>
				</g>
				<g>
					<g>
						<path fill="#88A8CF" d="M290.816,290.708c0,0-0.221-0.645,0.387-2.65c0.566-1.871,1.114-2.464,1.114-2.464
							C289.94,287.67,290.442,289.81,290.816,290.708z"/>
					</g>
				</g>
			</g>
			<g>
				<g>
					<g>
						<g>
							<path fill="#88A8CF" d="M292.277,297.757c-0.177-0.595-0.115-1.056-0.052-1.544c0.073-0.556,0.148-1.131-0.134-2.001
								l0.362-0.118c0.312,0.953,0.226,1.599,0.15,2.17c-0.062,0.466-0.116,0.867,0.038,1.385L292.277,297.757z"/>
						</g>
					</g>
					<g>
						<g>
							<g>
								<path fill="#88A8CF" d="M292.546,295.885c0,0-2.474-3.081,1.056-6.472C293.602,289.413,295.213,292.104,292.546,295.885z"/>
							</g>
						</g>
					</g>
				</g>
				<g>
					<g>
						<path fill="#88A8CF" d="M292.551,295.261c0,0-0.291-0.618,0.098-2.677c0.362-1.923,0.845-2.57,0.845-2.57
							C291.353,292.333,292.082,294.406,292.551,295.261z"/>
					</g>
				</g>
			</g>
			<g>
				<g>
					<g>
						<g>
							<path fill="#88A8CF" d="M294.53,302.233c-0.213-0.582-0.182-1.046-0.148-1.536c0.038-0.56,0.078-1.139-0.26-1.99l0.354-0.14
								c0.368,0.932,0.324,1.582,0.286,2.155c-0.033,0.469-0.061,0.873,0.125,1.379L294.53,302.233z"/>
						</g>
					</g>
					<g>
						<g>
							<g>
								<path fill="#88A8CF" d="M294.68,300.349c0,0-2.662-2.92,0.647-6.524C295.327,293.824,297.104,296.409,294.68,300.349z"/>
							</g>
						</g>
					</g>
				</g>
				<g>
					<g>
						<path fill="#88A8CF" d="M294.646,299.726c0,0-0.328-0.598-0.068-2.678c0.239-1.941,0.681-2.618,0.681-2.618
							C293.268,296.88,294.126,298.902,294.646,299.726z"/>
					</g>
				</g>
			</g>
			<g>
				<g>
					<g>
						<g>
							<path fill="#88A8CF" d="M297.506,306.64c-0.278-0.555-0.3-1.019-0.321-1.511c-0.025-0.561-0.052-1.14-0.483-1.947l0.337-0.18
								c0.472,0.883,0.5,1.535,0.527,2.11c0.021,0.469,0.039,0.874,0.281,1.356L297.506,306.64z"/>
						</g>
					</g>
					<g>
						<g>
							<g>
								<path fill="#88A8CF" d="M297.441,304.751c0,0-2.976-2.602-0.096-6.557C297.346,298.194,299.404,300.562,297.441,304.751z"/>
							</g>
						</g>
					</g>
				</g>
				<g>
					<g>
						<path fill="#88A8CF" d="M297.336,304.134c0,0-0.393-0.557-0.371-2.652c0.021-1.957,0.38-2.678,0.38-2.678
							C295.644,301.462,296.726,303.374,297.336,304.134z"/>
					</g>
				</g>
			</g>
			<g>
				<g>
					<g>
						<g>
							<path fill="#88A8CF" d="M300.855,310.57c-0.324-0.529-0.384-0.99-0.447-1.477c-0.074-0.557-0.148-1.133-0.646-1.902
								l0.32-0.206c0.545,0.842,0.628,1.487,0.704,2.059c0.061,0.465,0.112,0.867,0.394,1.328L300.855,310.57z"/>
						</g>
					</g>
					<g>
						<g>
							<g>
								<path fill="#88A8CF" d="M300.631,308.692c0,0-3.183-2.339-0.646-6.524C299.985,302.168,302.237,304.354,300.631,308.692z"/>
							</g>
						</g>
					</g>
				</g>
				<g>
					<g>
						<path fill="#88A8CF" d="M300.477,308.088c0,0-0.438-0.521-0.595-2.612c-0.146-1.95,0.153-2.7,0.153-2.7
							C298.565,305.568,299.804,307.383,300.477,308.088z"/>
					</g>
				</g>
			</g>
			<g>
				<g>
					<g>
						<g>
							<path fill="#88A8CF" d="M304.68,313.819c-0.385-0.486-0.499-0.937-0.619-1.413c-0.139-0.544-0.281-1.105-0.867-1.811
								l0.294-0.244c0.641,0.771,0.802,1.402,0.942,1.962c0.116,0.453,0.216,0.847,0.55,1.271L304.68,313.819z"/>
						</g>
					</g>
					<g>
						<g>
							<g>
								<path fill="#88A8CF" d="M304.234,311.983c0,0-3.438-1.945-1.418-6.402C302.816,305.581,305.312,307.482,304.234,311.983z"/>
							</g>
						</g>
					</g>
				</g>
				<g>
					<g>
						<path fill="#88A8CF" d="M304.008,311.4c0,0-0.498-0.465-0.9-2.522c-0.376-1.92-0.168-2.7-0.168-2.7
							C301.811,309.125,303.256,310.779,304.008,311.4z"/>
					</g>
				</g>
			</g>
			<g>
				<g>
					<g>
						<g>
							<path fill="#88A8CF" d="M308.825,316.975c-0.415-0.46-0.558-0.902-0.711-1.37c-0.172-0.534-0.351-1.086-0.981-1.751
								l0.277-0.262c0.69,0.727,0.89,1.348,1.066,1.896c0.146,0.446,0.271,0.831,0.633,1.232L308.825,316.975z"/>
						</g>
					</g>
					<g>
						<g>
							<g>
								<path fill="#88A8CF" d="M308.263,315.171c0,0-3.558-1.72-1.83-6.297C306.433,308.874,309.046,310.609,308.263,315.171z"/>
							</g>
						</g>
					</g>
				</g>
				<g>
					<g>
						<path fill="#88A8CF" d="M307.998,314.604c0,0-0.526-0.434-1.062-2.46c-0.499-1.892-0.344-2.683-0.344-2.683
							C305.658,312.476,307.207,314.033,307.998,314.604z"/>
					</g>
				</g>
			</g>
			<g>
				<g>
					<g>
						<g>
							<path fill="#88A8CF" d="M288.551,287.456c-0.239-0.597-0.536-0.944-0.852-1.312c-0.372-0.437-0.797-0.931-1.165-1.9
								l0.356-0.136c0.346,0.907,0.728,1.355,1.099,1.788c0.337,0.394,0.653,0.765,0.916,1.419L288.551,287.456z"/>
						</g>
					</g>
					<g>
						<g>
							<g>
								<path fill="#88A8CF" d="M287.445,285.361c0,0-3.873-0.786-3.326-5.648C284.119,279.713,287.079,280.751,287.445,285.361z"/>
							</g>
						</g>
					</g>
				</g>
				<g>
					<g>
						<path fill="#88A8CF" d="M287.051,284.88c0,0-0.618-0.29-1.637-2.123c-0.951-1.709-0.994-2.514-0.994-2.514
							C284.258,283.395,286.144,284.521,287.051,284.88z"/>
					</g>
				</g>
			</g>
			<g>
				<g>
					<g>
						<g>
							<path fill="#88A8CF" d="M289.946,292.283c-0.298-0.57-0.628-0.888-0.976-1.223c-0.415-0.397-0.885-0.849-1.347-1.778
								l0.343-0.169c0.431,0.869,0.855,1.277,1.267,1.672c0.373,0.358,0.725,0.696,1.05,1.321L289.946,292.283z"/>
						</g>
					</g>
					<g>
						<g>
							<g>
								<path fill="#88A8CF" d="M288.64,290.308c0,0-3.93-0.405-3.863-5.298C284.776,285.01,287.826,285.753,288.64,290.308z"/>
							</g>
						</g>
					</g>
				</g>
				<g>
					<g>
						<path fill="#88A8CF" d="M288.199,289.864c0,0-0.643-0.226-1.836-1.95c-1.113-1.608-1.234-2.407-1.234-2.407
							C285.274,288.66,287.262,289.599,288.199,289.864z"/>
					</g>
				</g>
			</g>
			<g>
				<g>
					<g>
						<g>
							<path fill="#88A8CF" d="M291.924,297.212c-0.337-0.549-0.688-0.843-1.059-1.154c-0.439-0.368-0.94-0.787-1.464-1.682
								l0.33-0.192c0.489,0.837,0.942,1.217,1.379,1.582c0.396,0.331,0.771,0.645,1.139,1.246L291.924,297.212z"/>
						</g>
					</g>
					<g>
						<g>
							<g>
								<path fill="#88A8CF" d="M290.485,295.329c0,0-3.948-0.136-4.215-5.021C286.271,290.308,289.361,290.841,290.485,295.329z"/>
							</g>
						</g>
					</g>
				</g>
				<g>
					<g>
						<path fill="#88A8CF" d="M290.015,294.917c0,0-0.656-0.182-1.963-1.82c-1.221-1.528-1.397-2.315-1.397-2.315
							C287.017,293.915,289.062,294.716,290.015,294.917z"/>
					</g>
				</g>
			</g>
			<g>
				<g>
					<g>
						<g>
							<path fill="#88A8CF" d="M294.289,301.764c-0.387-0.514-0.765-0.772-1.164-1.047c-0.474-0.324-1.011-0.693-1.618-1.533
								l0.31-0.225c0.569,0.788,1.055,1.122,1.525,1.444c0.425,0.292,0.827,0.567,1.251,1.133L294.289,301.764z"/>
						</g>
					</g>
					<g>
						<g>
							<g>
								<path fill="#88A8CF" d="M292.677,300.027c0,0-3.943,0.243-4.676-4.596C288.001,295.432,291.131,295.668,292.677,300.027z"/>
							</g>
						</g>
					</g>
				</g>
				<g>
					<g>
						<path fill="#88A8CF" d="M292.169,299.663c0,0-0.671-0.119-2.128-1.625c-1.361-1.405-1.611-2.173-1.611-2.173
							C289.088,298.952,291.202,299.553,292.169,299.663z"/>
					</g>
				</g>
			</g>
			<g>
				<g>
					<g>
						<g>
							<path fill="#88A8CF" d="M297.128,306.29c-0.423-0.486-0.816-0.719-1.232-0.966c-0.495-0.292-1.056-0.622-1.721-1.419
								l0.294-0.244c0.622,0.746,1.13,1.046,1.62,1.335c0.445,0.263,0.864,0.51,1.327,1.045L297.128,306.29z"/>
						</g>
					</g>
					<g>
						<g>
							<g>
								<path fill="#88A8CF" d="M295.401,304.668c0,0-3.919,0.511-4.979-4.265C290.422,300.403,293.559,300.423,295.401,304.668z"/>
							</g>
						</g>
					</g>
				</g>
				<g>
					<g>
						<path fill="#88A8CF" d="M294.869,304.339c0,0-0.678-0.073-2.235-1.475c-1.452-1.31-1.756-2.058-1.756-2.058
							C291.747,303.841,293.896,304.295,294.869,304.339z"/>
					</g>
				</g>
			</g>
			<g>
				<g>
					<g>
						<g>
							<path fill="#88A8CF" d="M300.528,310.205c-0.479-0.43-0.9-0.609-1.345-0.799c-0.529-0.226-1.129-0.481-1.888-1.186
								l0.26-0.281c0.71,0.66,1.252,0.892,1.777,1.115c0.475,0.203,0.925,0.396,1.451,0.866L300.528,310.205z"/>
						</g>
					</g>
					<g>
						<g>
							<g>
								<path fill="#88A8CF" d="M298.608,308.818c0,0-3.82,1.013-5.488-3.588C293.12,305.23,296.234,304.847,298.608,308.818z"/>
							</g>
						</g>
					</g>
				</g>
				<g>
					<g>
						<path fill="#88A8CF" d="M298.039,308.56c0,0-0.681,0.016-2.406-1.174c-1.61-1.111-2.008-1.812-2.008-1.812
							C294.878,308.469,297.067,308.643,298.039,308.56z"/>
					</g>
				</g>
			</g>
			<g>
				<g>
					<g>
						<g>
							<path fill="#88A8CF" d="M304.454,313.671c-0.536-0.354-0.979-0.469-1.448-0.592c-0.556-0.146-1.185-0.31-2.041-0.895
								l0.214-0.315c0.802,0.548,1.372,0.698,1.923,0.842c0.5,0.13,0.974,0.254,1.563,0.643L304.454,313.671z"/>
						</g>
					</g>
					<g>
						<g>
							<g>
								<path fill="#88A8CF" d="M302.352,312.583c0,0-3.629,1.564-5.957-2.739C296.395,309.844,299.419,309.005,302.352,312.583z"/>
							</g>
						</g>
					</g>
				</g>
				<g>
					<g>
						<path fill="#88A8CF" d="M301.75,312.411c0,0-0.671,0.116-2.554-0.807c-1.756-0.86-2.253-1.497-2.253-1.497
							C298.609,312.788,300.803,312.637,301.75,312.411z"/>
					</g>
				</g>
			</g>
			<g>
				<g>
					<g>
						<g>
							<path fill="#88A8CF" d="M308.633,316.816c-0.565-0.31-1.016-0.388-1.492-0.471c-0.566-0.1-1.209-0.212-2.11-0.725l0.19-0.332
								c0.843,0.48,1.425,0.582,1.985,0.681c0.509,0.09,0.988,0.174,1.61,0.512L308.633,316.816z"/>
						</g>
					</g>
					<g>
						<g>
							<g>
								<path fill="#88A8CF" d="M306.445,315.903c0,0-3.486,1.857-6.159-2.24C300.286,313.663,303.23,312.58,306.445,315.903z"/>
							</g>
						</g>
					</g>
				</g>
				<g>
					<g>
						<path fill="#88A8CF" d="M305.832,315.782c0,0-0.659,0.17-2.61-0.595c-1.82-0.713-2.368-1.308-2.368-1.308
							C302.733,316.414,304.908,316.083,305.832,315.782z"/>
					</g>
				</g>
			</g>
			<g>
				<g>
					<path fill="#88A8CF" d="M315.964,320.146c0,0-0.197-0.031-0.56-0.111c-0.363-0.076-0.889-0.21-1.548-0.424
						c-0.164-0.053-0.338-0.11-0.521-0.17c-0.18-0.065-0.362-0.148-0.557-0.227c-0.382-0.167-0.806-0.331-1.236-0.55
						c-0.43-0.224-0.883-0.462-1.365-0.714c-0.477-0.259-0.946-0.581-1.454-0.891c-0.249-0.158-0.512-0.313-0.768-0.486
						c-0.249-0.183-0.503-0.368-0.76-0.557c-0.514-0.382-1.061-0.756-1.59-1.181c-0.521-0.436-1.056-0.882-1.603-1.338
						c-0.271-0.23-0.554-0.455-0.825-0.696c-0.265-0.248-0.533-0.498-0.805-0.751c-0.54-0.503-1.09-1.017-1.646-1.536
						c-0.141-0.134-0.277-0.25-0.423-0.4l-0.396-0.414c-0.266-0.276-0.53-0.555-0.799-0.835c-0.26-0.288-0.509-0.596-0.768-0.896
						c-0.249-0.304-0.521-0.595-0.756-0.913c-0.238-0.313-0.477-0.629-0.716-0.944l-0.357-0.474l-0.333-0.49
						c-0.445-0.655-0.902-1.303-1.302-1.981c-0.206-0.336-0.413-0.671-0.619-1.003c-0.196-0.34-0.382-0.684-0.574-1.021
						c-0.188-0.341-0.383-0.678-0.563-1.018c-0.174-0.344-0.347-0.686-0.52-1.026c-0.355-0.675-0.663-1.363-0.972-2.037
						c-0.319-0.67-0.583-1.349-0.857-2.008c-0.282-0.654-0.508-1.316-0.743-1.954c-0.241-0.635-0.428-1.27-0.623-1.879
						c-0.202-0.607-0.358-1.207-0.512-1.778c-0.076-0.287-0.153-0.566-0.226-0.842c-0.062-0.278-0.121-0.55-0.18-0.813
						c-0.113-0.529-0.238-1.028-0.307-1.508c-0.08-0.477-0.154-0.922-0.223-1.335c-0.046-0.415-0.087-0.798-0.126-1.145
						c-0.04-0.344-0.071-0.653-0.074-0.924c-0.011-0.271-0.021-0.5-0.028-0.688c-0.016-0.371-0.024-0.571-0.024-0.571l0.587-0.004
						c0,0,0.01,0.194,0.028,0.558c0.009,0.18,0.019,0.405,0.031,0.668c0.004,0.262,0.037,0.564,0.08,0.901
						c0.037,0.34,0.081,0.713,0.128,1.12c0.07,0.403,0.146,0.843,0.226,1.31c0.071,0.469,0.197,0.96,0.312,1.479
						c0.059,0.26,0.118,0.526,0.181,0.799c0.074,0.271,0.15,0.548,0.229,0.829c0.154,0.563,0.312,1.152,0.517,1.75
						c0.196,0.6,0.382,1.226,0.626,1.853c0.235,0.627,0.454,1.282,0.732,1.93c0.271,0.65,0.53,1.322,0.844,1.983
						c0.305,0.667,0.608,1.348,0.958,2.014c0.169,0.337,0.341,0.675,0.512,1.016c0.177,0.337,0.368,0.668,0.554,1.005
						c0.188,0.335,0.371,0.675,0.566,1.01c0.202,0.329,0.404,0.66,0.608,0.991c0.395,0.671,0.842,1.309,1.278,1.956l0.33,0.483
						l0.351,0.467c0.232,0.312,0.467,0.623,0.697,0.934c0.23,0.315,0.489,0.598,0.73,0.896c0.248,0.294,0.485,0.593,0.742,0.88
						c0.266,0.281,0.527,0.562,0.792,0.842l0.392,0.416c0.117,0.126,0.27,0.26,0.402,0.39c0.548,0.52,1.09,1.033,1.621,1.538
						c0.267,0.253,0.53,0.504,0.793,0.752c0.267,0.239,0.543,0.465,0.811,0.694c0.539,0.457,1.063,0.904,1.576,1.34
						c0.521,0.424,1.057,0.796,1.559,1.178c0.254,0.188,0.503,0.374,0.748,0.556c0.249,0.172,0.505,0.326,0.75,0.484
						c0.497,0.309,0.957,0.631,1.421,0.889c0.471,0.25,0.916,0.488,1.334,0.711c0.421,0.221,0.837,0.376,1.208,0.554
						c0.371,0.175,0.719,0.319,1.036,0.45c0.626,0.274,1.122,0.494,1.456,0.652C315.789,320.049,315.964,320.146,315.964,320.146z"
						/>
				</g>
			</g>
			<g>
				<g>
					<g>
						<g>
							<path fill="#88A8CF" d="M288.094,282.392c0,0-2.961-2.615-0.059-6.555C288.035,275.837,290.08,278.215,288.094,282.392z"/>
						</g>
					</g>
				</g>
				<g>
					<g>
						<path fill="#88A8CF" d="M287.992,281.775c0,0-0.39-0.558-0.356-2.653c0.031-1.957,0.395-2.676,0.395-2.676
							C286.314,279.095,287.386,281.014,287.992,281.775z"/>
					</g>
				</g>
			</g>
		</g>
	</g>
	<g>
		<g>
			<g>
				<g>
					<g>
						<g>
							<path fill="#88A8CF" d="M337.15,288.357l-0.381-0.025c0.037-0.538-0.103-0.919-0.264-1.359c-0.2-0.541-0.424-1.153-0.33-2.15
								l0.38,0.036c-0.087,0.911,0.114,1.456,0.307,1.982C337.032,287.302,337.191,287.738,337.15,288.357z"/>
						</g>
					</g>
					<g>
						<g>
							<g>
								<path fill="#88A8CF" d="M336.479,286.592c0,0,1.739-3.55-2.447-6.085C334.032,280.507,333.049,283.487,336.479,286.592z"/>
							</g>
						</g>
					</g>
				</g>
				<g>
					<g>
						<path fill="#88A8CF" d="M336.337,285.982c0,0,0.147-0.666-0.683-2.591c-0.773-1.796-1.386-2.322-1.386-2.322
							C336.865,282.862,336.606,285.045,336.337,285.982z"/>
					</g>
				</g>
			</g>
			<g>
				<g>
					<g>
						<g>
							<path fill="#88A8CF" d="M335.556,293.16l-0.375-0.068c0.097-0.53,0.001-0.924-0.11-1.381
								c-0.136-0.559-0.291-1.192-0.084-2.173l0.372,0.079c-0.187,0.896-0.05,1.459,0.083,2.004
								C335.557,292.1,335.668,292.552,335.556,293.16z"/>
						</g>
					</g>
					<g>
						<g>
							<g>
								<path fill="#88A8CF" d="M335.089,291.33c0,0,2.127-3.329-1.746-6.32C333.343,285.01,332.029,287.858,335.089,291.33z"/>
							</g>
						</g>
					</g>
				</g>
				<g>
					<g>
						<path fill="#88A8CF" d="M335.017,290.708c0,0,0.221-0.645-0.387-2.65c-0.566-1.871-1.116-2.464-1.116-2.464
							C335.893,287.67,335.39,289.81,335.017,290.708z"/>
					</g>
				</g>
			</g>
			<g>
				<g>
					<g>
						<g>
							<path fill="#88A8CF" d="M333.556,297.757l-0.365-0.108c0.152-0.518,0.1-0.919,0.038-1.385
								c-0.075-0.571-0.159-1.217,0.15-2.17l0.363,0.118c-0.285,0.87-0.208,1.445-0.136,2.001
								C333.671,296.701,333.732,297.162,333.556,297.757z"/>
						</g>
					</g>
					<g>
						<g>
							<g>
								<path fill="#88A8CF" d="M333.287,295.885c0,0,2.474-3.081-1.056-6.472C332.231,289.413,330.62,292.104,333.287,295.885z"/>
							</g>
						</g>
					</g>
				</g>
				<g>
					<g>
						<path fill="#88A8CF" d="M333.283,295.261c0,0,0.289-0.618-0.099-2.677c-0.362-1.923-0.845-2.57-0.845-2.57
							C334.479,292.333,333.751,294.406,333.283,295.261z"/>
					</g>
				</g>
			</g>
			<g>
				<g>
					<g>
						<g>
							<path fill="#88A8CF" d="M331.303,302.233l-0.357-0.132c0.186-0.506,0.158-0.91,0.125-1.379
								c-0.038-0.573-0.084-1.224,0.285-2.155l0.355,0.14c-0.338,0.852-0.298,1.431-0.26,1.99
								C331.484,301.188,331.517,301.651,331.303,302.233z"/>
						</g>
					</g>
					<g>
						<g>
							<g>
								<path fill="#88A8CF" d="M331.153,300.349c0,0,2.662-2.92-0.647-6.524C330.506,293.824,328.727,296.409,331.153,300.349z"/>
							</g>
						</g>
					</g>
				</g>
				<g>
					<g>
						<path fill="#88A8CF" d="M331.188,299.726c0,0,0.326-0.598,0.068-2.678c-0.241-1.941-0.681-2.618-0.681-2.618
							C332.565,296.88,331.708,298.902,331.188,299.726z"/>
					</g>
				</g>
			</g>
			<g>
				<g>
					<g>
						<g>
							<path fill="#88A8CF" d="M328.327,306.64l-0.341-0.171c0.242-0.482,0.261-0.888,0.281-1.356
								c0.025-0.575,0.056-1.228,0.527-2.11l0.337,0.18c-0.433,0.808-0.458,1.387-0.483,1.947
								C328.627,305.621,328.605,306.085,328.327,306.64z"/>
						</g>
					</g>
					<g>
						<g>
							<g>
								<path fill="#88A8CF" d="M328.393,304.751c0,0,2.975-2.602,0.095-6.557C328.487,298.194,326.427,300.562,328.393,304.751z"/>
							</g>
						</g>
					</g>
				</g>
				<g>
					<g>
						<path fill="#88A8CF" d="M328.497,304.134c0,0,0.393-0.557,0.371-2.652c-0.021-1.957-0.38-2.678-0.38-2.678
							C330.188,301.462,329.106,303.374,328.497,304.134z"/>
					</g>
				</g>
			</g>
			<g>
				<g>
					<g>
						<g>
							<path fill="#88A8CF" d="M324.978,310.57l-0.325-0.198c0.281-0.461,0.334-0.863,0.394-1.328
								c0.076-0.571,0.16-1.217,0.704-2.059l0.32,0.206c-0.498,0.77-0.573,1.346-0.646,1.902
								C325.361,309.58,325.302,310.041,324.978,310.57z"/>
						</g>
					</g>
					<g>
						<g>
							<g>
								<path fill="#88A8CF" d="M325.202,308.692c0,0,3.183-2.339,0.646-6.524C325.848,302.168,323.597,304.354,325.202,308.692z"/>
							</g>
						</g>
					</g>
				</g>
				<g>
					<g>
						<path fill="#88A8CF" d="M325.357,308.088c0,0,0.438-0.521,0.593-2.612c0.146-1.95-0.152-2.7-0.152-2.7
							C327.269,305.568,326.029,307.383,325.357,308.088z"/>
					</g>
				</g>
			</g>
			<g>
				<g>
					<g>
						<g>
							<path fill="#88A8CF" d="M321.153,313.819l-0.3-0.235c0.334-0.424,0.434-0.817,0.55-1.271c0.141-0.56,0.302-1.191,0.942-1.962
								l0.294,0.244c-0.586,0.705-0.729,1.267-0.867,1.811C321.652,312.883,321.537,313.333,321.153,313.819z"/>
						</g>
					</g>
					<g>
						<g>
							<g>
								<path fill="#88A8CF" d="M321.599,311.983c0,0,3.438-1.945,1.418-6.402C323.017,305.581,320.521,307.482,321.599,311.983z"/>
							</g>
						</g>
					</g>
				</g>
				<g>
					<g>
						<path fill="#88A8CF" d="M321.825,311.4c0,0,0.498-0.465,0.9-2.522c0.376-1.92,0.168-2.7,0.168-2.7
							C324.022,309.125,322.577,310.779,321.825,311.4z"/>
					</g>
				</g>
			</g>
			<g>
				<g>
					<g>
						<g>
							<path fill="#88A8CF" d="M317.008,316.975l-0.284-0.255c0.361-0.401,0.486-0.786,0.631-1.232
								c0.178-0.548,0.379-1.169,1.068-1.896l0.276,0.262c-0.63,0.665-0.809,1.217-0.981,1.751
								C317.565,316.072,317.423,316.515,317.008,316.975z"/>
						</g>
					</g>
					<g>
						<g>
							<g>
								<path fill="#88A8CF" d="M317.571,315.171c0,0,3.558-1.72,1.829-6.297C319.4,308.874,316.787,310.609,317.571,315.171z"/>
							</g>
						</g>
					</g>
				</g>
				<g>
					<g>
						<path fill="#88A8CF" d="M317.834,314.604c0,0,0.527-0.434,1.061-2.46c0.501-1.892,0.346-2.683,0.346-2.683
							C320.175,312.476,318.625,314.033,317.834,314.604z"/>
					</g>
				</g>
			</g>
			<g>
				<g>
					<g>
						<g>
							<path fill="#88A8CF" d="M337.281,287.456l-0.354-0.142c0.264-0.654,0.58-1.025,0.917-1.419
								c0.369-0.433,0.753-0.881,1.099-1.788l0.356,0.136c-0.369,0.97-0.792,1.464-1.166,1.9
								C337.818,286.512,337.521,286.859,337.281,287.456z"/>
						</g>
					</g>
					<g>
						<g>
							<g>
								<path fill="#88A8CF" d="M338.387,285.361c0,0,3.873-0.786,3.327-5.648C341.714,279.713,338.752,280.751,338.387,285.361z"/>
							</g>
						</g>
					</g>
				</g>
				<g>
					<g>
						<path fill="#88A8CF" d="M338.782,284.88c0,0,0.618-0.29,1.637-2.123c0.95-1.709,0.994-2.514,0.994-2.514
							C341.575,283.395,339.689,284.521,338.782,284.88z"/>
					</g>
				</g>
			</g>
			<g>
				<g>
					<g>
						<g>
							<path fill="#88A8CF" d="M335.887,292.283l-0.337-0.177c0.325-0.625,0.676-0.963,1.049-1.321
								c0.412-0.395,0.837-0.803,1.27-1.672l0.341,0.169c-0.462,0.93-0.932,1.381-1.346,1.778
								C336.514,291.396,336.185,291.713,335.887,292.283z"/>
						</g>
					</g>
					<g>
						<g>
							<g>
								<path fill="#88A8CF" d="M337.193,290.308c0,0,3.93-0.405,3.861-5.298C341.055,285.01,338.008,285.753,337.193,290.308z"/>
							</g>
						</g>
					</g>
				</g>
				<g>
					<g>
						<path fill="#88A8CF" d="M337.634,289.864c0,0,0.643-0.226,1.835-1.95c1.114-1.608,1.235-2.407,1.235-2.407
							C340.559,288.66,338.571,289.599,337.634,289.864z"/>
					</g>
				</g>
			</g>
			<g>
				<g>
					<g>
						<g>
							<path fill="#88A8CF" d="M333.909,297.212l-0.325-0.2c0.368-0.602,0.742-0.915,1.139-1.246
								c0.437-0.365,0.89-0.745,1.379-1.582l0.33,0.192c-0.523,0.895-1.023,1.313-1.464,1.682
								C334.597,296.369,334.246,296.663,333.909,297.212z"/>
						</g>
					</g>
					<g>
						<g>
							<g>
								<path fill="#88A8CF" d="M335.348,295.329c0,0,3.948-0.136,4.215-5.021C339.562,290.308,336.472,290.841,335.348,295.329z"/>
							</g>
						</g>
					</g>
				</g>
				<g>
					<g>
						<path fill="#88A8CF" d="M335.818,294.917c0,0,0.656-0.182,1.963-1.82c1.221-1.528,1.397-2.315,1.397-2.315
							C338.818,293.915,336.771,294.716,335.818,294.917z"/>
					</g>
				</g>
			</g>
			<g>
				<g>
					<g>
						<g>
							<path fill="#88A8CF" d="M331.544,301.764l-0.304-0.228c0.424-0.565,0.826-0.841,1.251-1.133
								c0.471-0.322,0.957-0.656,1.525-1.444l0.31,0.225c-0.606,0.84-1.145,1.209-1.619,1.533
								C332.309,300.991,331.931,301.25,331.544,301.764z"/>
						</g>
					</g>
					<g>
						<g>
							<g>
								<path fill="#88A8CF" d="M333.156,300.027c0,0,3.942,0.243,4.675-4.596C337.831,295.432,334.702,295.668,333.156,300.027z"/>
							</g>
						</g>
					</g>
				</g>
				<g>
					<g>
						<path fill="#88A8CF" d="M333.662,299.663c0,0,0.671-0.119,2.13-1.625c1.361-1.405,1.611-2.173,1.611-2.173
							C336.745,298.952,334.631,299.553,333.662,299.663z"/>
					</g>
				</g>
			</g>
			<g>
				<g>
					<g>
						<g>
							<path fill="#88A8CF" d="M328.707,306.29l-0.29-0.249c0.462-0.535,0.882-0.782,1.327-1.045
								c0.49-0.289,0.998-0.589,1.619-1.335l0.294,0.244c-0.664,0.797-1.225,1.127-1.72,1.419
								C329.521,305.571,329.126,305.804,328.707,306.29z"/>
						</g>
					</g>
					<g>
						<g>
							<g>
								<path fill="#88A8CF" d="M330.432,304.668c0,0,3.918,0.511,4.979-4.265C335.411,300.403,332.274,300.423,330.432,304.668z"/>
							</g>
						</g>
					</g>
				</g>
				<g>
					<g>
						<path fill="#88A8CF" d="M330.964,304.339c0,0,0.677-0.073,2.235-1.475c1.453-1.31,1.756-2.058,1.756-2.058
							C334.086,303.841,331.937,304.295,330.964,304.339z"/>
					</g>
				</g>
			</g>
			<g>
				<g>
					<g>
						<g>
							<path fill="#88A8CF" d="M325.305,310.205l-0.256-0.284c0.528-0.471,0.976-0.663,1.451-0.866
								c0.524-0.224,1.067-0.455,1.777-1.115l0.26,0.281c-0.761,0.704-1.358,0.96-1.888,1.186
								C326.205,309.596,325.784,309.775,325.305,310.205z"/>
						</g>
					</g>
					<g>
						<g>
							<g>
								<path fill="#88A8CF" d="M327.225,308.818c0,0,3.82,1.013,5.488-3.588C332.713,305.23,329.599,304.847,327.225,308.818z"/>
							</g>
						</g>
					</g>
				</g>
				<g>
					<g>
						<path fill="#88A8CF" d="M327.794,308.56c0,0,0.681,0.016,2.406-1.174c1.61-1.111,2.007-1.812,2.007-1.812
							C330.955,308.469,328.764,308.643,327.794,308.56z"/>
					</g>
				</g>
			</g>
			<g>
				<g>
					<g>
						<g>
							<path fill="#88A8CF" d="M321.377,313.671l-0.208-0.317c0.589-0.389,1.062-0.513,1.562-0.643
								c0.55-0.144,1.121-0.294,1.923-0.842l0.215,0.315c-0.855,0.585-1.486,0.749-2.043,0.895
								C322.357,313.202,321.915,313.317,321.377,313.671z"/>
						</g>
					</g>
					<g>
						<g>
							<g>
								<path fill="#88A8CF" d="M323.481,312.583c0,0,3.629,1.564,5.957-2.739C329.438,309.844,326.414,309.005,323.481,312.583z"/>
							</g>
						</g>
					</g>
				</g>
				<g>
					<g>
						<path fill="#88A8CF" d="M324.083,312.411c0,0,0.671,0.116,2.554-0.807c1.756-0.86,2.253-1.497,2.253-1.497
							C327.223,312.788,325.03,312.637,324.083,312.411z"/>
					</g>
				</g>
			</g>
			<g>
				<g>
					<g>
						<g>
							<path fill="#88A8CF" d="M317.2,316.816l-0.183-0.335c0.621-0.338,1.1-0.422,1.609-0.512c0.562-0.099,1.143-0.2,1.985-0.681
								l0.188,0.332c-0.9,0.513-1.542,0.625-2.108,0.725C318.216,316.429,317.766,316.507,317.2,316.816z"/>
						</g>
					</g>
					<g>
						<g>
							<g>
								<path fill="#88A8CF" d="M319.386,315.903c0,0,3.488,1.857,6.161-2.24C325.547,313.663,322.603,312.58,319.386,315.903z"/>
							</g>
						</g>
					</g>
				</g>
				<g>
					<g>
						<path fill="#88A8CF" d="M320.001,315.782c0,0,0.657,0.17,2.608-0.595c1.822-0.713,2.37-1.308,2.37-1.308
							C323.098,316.414,320.925,316.083,320.001,315.782z"/>
					</g>
				</g>
			</g>
			<g>
				<g>
					<path fill="#88A8CF" d="M309.869,320.146c0,0,0.174-0.098,0.508-0.257c0.337-0.158,0.832-0.378,1.458-0.652
						c0.316-0.131,0.666-0.275,1.037-0.45c0.369-0.178,0.786-0.333,1.207-0.554c0.418-0.223,0.863-0.461,1.332-0.711
						c0.466-0.258,0.926-0.58,1.423-0.889c0.245-0.158,0.5-0.312,0.752-0.484c0.243-0.182,0.492-0.367,0.746-0.556
						c0.502-0.382,1.038-0.754,1.559-1.178c0.513-0.436,1.039-0.883,1.576-1.34c0.267-0.229,0.544-0.455,0.811-0.694
						c0.263-0.248,0.526-0.499,0.793-0.752c0.532-0.505,1.073-1.019,1.621-1.538c0.132-0.13,0.285-0.264,0.402-0.39l0.392-0.416
						c0.263-0.279,0.526-0.561,0.792-0.842c0.255-0.287,0.492-0.586,0.742-0.88c0.24-0.299,0.5-0.581,0.729-0.896
						c0.232-0.311,0.467-0.621,0.699-0.934l0.351-0.467l0.33-0.483c0.435-0.647,0.884-1.285,1.279-1.956
						c0.202-0.331,0.405-0.662,0.607-0.991c0.194-0.335,0.378-0.675,0.565-1.01c0.187-0.337,0.378-0.668,0.555-1.005
						c0.171-0.341,0.342-0.679,0.512-1.016c0.352-0.666,0.653-1.347,0.956-2.014c0.315-0.661,0.576-1.333,0.846-1.983
						c0.278-0.647,0.497-1.303,0.732-1.93c0.243-0.627,0.429-1.253,0.627-1.853c0.204-0.598,0.36-1.187,0.516-1.75
						c0.078-0.281,0.153-0.558,0.228-0.829c0.062-0.272,0.123-0.539,0.182-0.799c0.115-0.519,0.241-1.01,0.311-1.479
						c0.082-0.467,0.157-0.906,0.228-1.31c0.047-0.407,0.09-0.78,0.13-1.12c0.041-0.337,0.074-0.64,0.079-0.901
						c0.012-0.263,0.023-0.488,0.032-0.668c0.017-0.363,0.026-0.558,0.026-0.558l0.587,0.004c0,0-0.009,0.2-0.024,0.571
						c-0.007,0.188-0.018,0.416-0.028,0.688c-0.003,0.271-0.034,0.58-0.076,0.924c-0.037,0.347-0.078,0.729-0.124,1.145
						c-0.068,0.413-0.144,0.858-0.223,1.335c-0.068,0.479-0.192,0.979-0.307,1.508c-0.059,0.264-0.118,0.535-0.18,0.813
						c-0.074,0.275-0.148,0.555-0.226,0.842c-0.153,0.571-0.31,1.171-0.512,1.778c-0.195,0.609-0.381,1.244-0.623,1.879
						c-0.235,0.638-0.461,1.3-0.744,1.954c-0.273,0.659-0.537,1.338-0.856,2.008c-0.309,0.674-0.616,1.362-0.972,2.037
						c-0.173,0.341-0.346,0.683-0.521,1.026c-0.18,0.34-0.376,0.677-0.562,1.018c-0.192,0.338-0.377,0.682-0.575,1.021
						c-0.205,0.332-0.412,0.667-0.617,1.003c-0.401,0.679-0.857,1.326-1.301,1.981l-0.336,0.49l-0.356,0.474
						c-0.239,0.315-0.478,0.631-0.716,0.944c-0.234,0.318-0.507,0.609-0.758,0.913c-0.257,0.3-0.506,0.607-0.768,0.896
						c-0.267,0.28-0.533,0.559-0.799,0.835l-0.395,0.414c-0.146,0.15-0.281,0.267-0.423,0.4c-0.556,0.52-1.105,1.033-1.646,1.536
						c-0.271,0.253-0.538,0.503-0.805,0.751c-0.271,0.241-0.553,0.466-0.825,0.696c-0.546,0.456-1.082,0.902-1.604,1.338
						c-0.529,0.425-1.076,0.799-1.589,1.181c-0.258,0.188-0.511,0.374-0.76,0.557c-0.256,0.173-0.517,0.328-0.768,0.486
						c-0.508,0.31-0.979,0.632-1.454,0.891c-0.48,0.252-0.938,0.49-1.365,0.714c-0.431,0.219-0.854,0.383-1.236,0.55
						c-0.194,0.078-0.377,0.161-0.557,0.227c-0.183,0.06-0.356,0.117-0.521,0.17c-0.661,0.214-1.185,0.348-1.548,0.424
						C310.066,320.115,309.869,320.146,309.869,320.146z"/>
				</g>
			</g>
			<g>
				<g>
					<g>
						<g>
							<path fill="#88A8CF" d="M337.739,282.392c0,0,2.962-2.615,0.059-6.555C337.798,275.837,335.752,278.215,337.739,282.392z"/>
						</g>
					</g>
				</g>
				<g>
					<g>
						<path fill="#88A8CF" d="M337.84,281.775c0,0,0.391-0.558,0.357-2.653c-0.029-1.957-0.395-2.676-0.395-2.676
							C339.519,279.095,338.447,281.014,337.84,281.775z"/>
					</g>
				</g>
			</g>
		</g>
	</g>
</g>
</svg>
