<?xml version="1.0" encoding="utf-8"?>
<!-- Generator: Adobe Illustrator 16.0.1, SVG Export Plug-In . SVG Version: 6.00 Build 0)  -->
<!DOCTYPE svg PUBLIC "-//W3C//DTD SVG 1.1//EN" "http://www.w3.org/Graphics/SVG/1.1/DTD/svg11.dtd">
<svg version="1.1" id="content" xmlns="http://www.w3.org/2000/svg" xmlns:xlink="http://www.w3.org/1999/xlink" x="0px" y="0px"
	 width="500px" height="500px" viewBox="0 0 500 500" enable-background="new 0 0 500 500" xml:space="preserve">
<rect id="position" x="0.5" y="0.5" display="none" fill="none" stroke="#000000" width="499" height="499"/>
<path fill="#F2F2F2" d="M160.742,322.48c0,15.043-50.814,15.043-50.814,0V220.784c0-15.043,9.824-27.351,21.832-27.351h7.149
	c12.009,0,21.833,12.308,21.833,27.351V322.48z"/>
<path fill="none" d="M109.928,316.574v6.051c0,15.043,50.814,15.043,50.814,0v-6.051
	C160.742,331.617,109.928,331.617,109.928,316.574z"/>
<path fill="#E0E0DE" d="M147.859,305.652c0,0,13.6-3.101,16.199,0c2.601,3.1-1.699,9.899,0,13.8c1.7,4,3.5,14-2.6,13.8
	s-46.2,3.2-51.4,2c-5.1-1.2-1.699-6.8-1.699-11.7c0-4.899-4.301-13-3.2-16.399c1.2-3.5,2.7-2.5,4.8-3s9.1,2.1,15.4,3
	C131.859,308.152,145.459,305.452,147.859,305.652z"/>
<circle fill="#F0EFED" cx="116.859" cy="315.752" r="3.3"/>
</svg>
