<?xml version="1.0" encoding="utf-8"?>
<!-- Generator: Adobe Illustrator 16.0.1, SVG Export Plug-In . SVG Version: 6.00 Build 0)  -->
<!DOCTYPE svg PUBLIC "-//W3C//DTD SVG 1.1//EN" "http://www.w3.org/Graphics/SVG/1.1/DTD/svg11.dtd">
<svg version="1.1" id="content" xmlns="http://www.w3.org/2000/svg" xmlns:xlink="http://www.w3.org/1999/xlink" x="0px" y="0px"
	 width="500px" height="500px" viewBox="0 0 500 500" enable-background="new 0 0 500 500" xml:space="preserve">
<polygon fill="#F0EFED" points="116.405,174.13 198.081,174.13 249.6,200.972 302.764,174.13 382.259,174.13 382.259,481.383 
	116.405,481.383 "/>
<rect x="245.459" y="204.332" fill-rule="evenodd" clip-rule="evenodd" fill="#BCBCBC" width="1.714" height="277.051"/>
<polyline fill-rule="evenodd" clip-rule="evenodd" fill="#B0B1AF" points="198.081,174.108 224.074,223.164 250.068,202.824 "/>
<polyline fill-rule="evenodd" clip-rule="evenodd" fill="#B0B1AF" points="250.068,202.759 276.36,223.164 302.764,174.296 "/>
<polygon fill-rule="evenodd" clip-rule="evenodd" fill="#BD2131" points="250.101,237.255 245.171,237.255 226.374,376.156 
	250.608,409 "/>
<path fill-rule="evenodd" clip-rule="evenodd" fill="#BD2131" d="M244.794,240.52h5.341l0.003-39.548
	C230.313,208.656,233.753,218.592,244.794,240.52z"/>
<polygon fill-rule="evenodd" clip-rule="evenodd" fill="#E0E0DE" points="218.186,219.664 250.068,200.776 250.068,200.524 
	198.081,174.108 "/>
<polygon fill-rule="evenodd" clip-rule="evenodd" fill="#E0E0DE" points="250.068,200.714 282.737,219.664 302.764,174.282 
	249.958,200.594 "/>
<circle fill="#BCBCBC" cx="254.608" cy="233" r="4"/>
<circle fill="#BCBCBC" cx="254.608" cy="280.438" r="4"/>
<circle fill="#BCBCBC" cx="254.608" cy="327.874" r="4"/>
<circle fill="#BCBCBC" cx="254.608" cy="375.311" r="4"/>
<circle fill="#BCBCBC" cx="254.608" cy="422.748" r="4"/>
<circle fill="#BCBCBC" cx="254.608" cy="470.185" r="4"/>
<polygon fill-rule="evenodd" clip-rule="evenodd" fill="#A71D2A" points="250.103,237.255 255.033,237.255 273.325,378.277 
	250.608,409 "/>
<path fill-rule="evenodd" clip-rule="evenodd" fill="#A71D2A" d="M255.479,240.52h-5.341v-39.548
	C269.96,208.656,266.521,218.592,255.479,240.52z"/>
</svg>
