<?xml version="1.0" encoding="utf-8"?>
<!-- Generator: Adobe Illustrator 16.0.1, SVG Export Plug-In . SVG Version: 6.00 Build 0)  -->
<!DOCTYPE svg PUBLIC "-//W3C//DTD SVG 1.1//EN" "http://www.w3.org/Graphics/SVG/1.1/DTD/svg11.dtd">
<svg version="1.1" id="content" xmlns="http://www.w3.org/2000/svg" xmlns:xlink="http://www.w3.org/1999/xlink" x="0px" y="0px"
	 width="500px" height="500px" viewBox="0 0 500 500" enable-background="new 0 0 500 500" xml:space="preserve">
<rect x="116.403" y="174.13" fill="#D7654F" width="265.854" height="307.25"/>
<g>
	<g>
		<polygon opacity="0.25" fill="#416E97" points="348.569,229.692 271.88,229.692 271.88,220.687 348.569,219.309 		"/>
		<path fill="#E39586" d="M271.88,220.687c0,0,41.944,7.176,76.688-1.378v69.294c0,0-10.016,9.663-38.503,9.663
			c-32.553,0-38.186-10.49-38.186-10.49V220.687z"/>
		<path fill="#F0BE64" d="M308.657,243.88c-21.426,0-36.373-3.702-36.625-3.761l-0.114-4.656c0.382,0.09,39.386,8.936,76.65-1.348
			v5.073C334.618,243.04,320.902,243.88,308.657,243.88z"/>
	</g>
</g>
</svg>
