<?xml version="1.0" encoding="utf-8"?>
<!-- Generator: Adobe Illustrator 16.0.1, SVG Export Plug-In . SVG Version: 6.00 Build 0)  -->
<!DOCTYPE svg PUBLIC "-//W3C//DTD SVG 1.1//EN" "http://www.w3.org/Graphics/SVG/1.1/DTD/svg11.dtd">
<svg version="1.1" id="content" xmlns="http://www.w3.org/2000/svg" xmlns:xlink="http://www.w3.org/1999/xlink" x="0px" y="0px"
	 width="500px" height="500px" viewBox="0 0 500 500" enable-background="new 0 0 500 500" xml:space="preserve">
<g id="bounds" display="none">
	<rect x="0" display="inline" fill="none" stroke="#000000" stroke-miterlimit="10" width="500" height="500"/>
</g>
<g>
	<path fill="#BFBFC0" d="M240.71,429.314h-41.616v-70.897c0-10.918,8.934-19.852,19.853-19.852h1.91
		c10.919,0,19.853,8.934,19.853,19.852V429.314z"/>
</g>
<g>
	<path fill="#BFBFC0" d="M303.059,429.062h-42.681V358.67c0-11.058,9.048-20.106,20.104-20.106h2.471
		c11.058,0,20.105,9.049,20.105,20.106V429.062z"/>
</g>
<g>
	<g>
		<path fill="#BFBFC0" d="M310.051,350.588c-0.798,9.587-9.322,17.432-18.943,17.432H210.8c-9.621,0-18.163-7.843-18.983-17.428
			l-12.761-144.866h143.368L310.051,350.588z"/>
	</g>
</g>
<g>
	<g>
		<path fill="#BFBFC0" d="M175.121,320.876c0,9.729-7.959,17.688-17.688,17.688h-0.479c-9.728,0-17.688-7.959-17.688-17.688v-97.462
			c0-9.728,7.959-17.688,17.688-17.688h0.479c9.728,0,17.688,7.959,17.688,17.688V320.876z"/>
	</g>
</g>
<g>
	<g>
		<path fill="#BFBFC0" d="M362.886,320.876c0,9.729-7.959,17.688-17.688,17.688h-0.479c-9.729,0-17.688-7.959-17.688-17.688v-97.462
			c0-9.728,7.959-17.688,17.688-17.688h0.479c9.729,0,17.688,7.959,17.688,17.688V320.876z"/>
	</g>
</g>
<path fill="#BFBFC0" d="M177.831,308.861c0,12.217-41.27,12.217-41.27,0v-83.585c0-12.218,7.979-22.213,17.731-22.213h5.807
	c9.753,0,17.732,9.996,17.732,22.213V308.861z"/>
<path fill="#BFBFC0" d="M365.136,308.861c0,12.217-41.271,12.217-41.271,0v-83.585c0-12.218,7.979-22.213,17.731-22.213h5.807
	c9.753,0,17.732,9.996,17.732,22.213V308.861z"/>
<path fill="#9C9D9D" d="M267.927,330.008c-0.18,8.51,6.579,15.555,15.091,15.73c8.513,0.184,15.559-6.574,15.739-15.085
	c0.178-8.515-6.581-15.565-15.09-15.744C275.154,314.731,268.104,321.491,267.927,330.008z"/>
<circle fill="#9C9D9D" cx="230.947" cy="340.531" r="5.182"/>
<circle fill="#9C9D9D" cx="248.039" cy="309.565" r="3.366"/>
<circle fill="#9C9D9D" cx="212.486" cy="395.196" r="5.181"/>
<circle fill="#9C9D9D" cx="272.281" cy="395.196" r="5.182"/>
<circle fill="#9C9D9D" cx="209.572" cy="307.788" r="2.326"/>
<circle fill="#9C9D9D" cx="230.947" cy="379.406" r="2.326"/>
<circle fill="#9C9D9D" cx="291.455" cy="379.406" r="2.327"/>
<path fill="#9C9D9D" d="M150.888,264.959c-0.115,5.562,4.302,10.161,9.87,10.279c5.566,0.118,10.172-4.291,10.29-9.859
	c0.118-5.572-4.301-10.174-9.868-10.291C155.614,254.969,151.006,259.383,150.888,264.959z"/>
<path fill="#9C9D9D" d="M142.518,300.948c-0.062,2.975,2.301,5.435,5.278,5.496c2.977,0.063,5.439-2.294,5.502-5.271
	c0.062-2.979-2.301-5.44-5.277-5.504C145.045,295.605,142.581,297.967,142.518,300.948z"/>
<path fill="#9C9D9D" d="M147.952,219.255c-0.04,1.866,1.443,3.409,3.311,3.449c1.867,0.04,3.413-1.439,3.452-3.308
	c0.04-1.869-1.443-3.413-3.311-3.453C149.537,215.904,147.991,217.385,147.952,219.255z"/>
<path fill="#9C9D9D" d="M339.065,264.959c-0.116,5.562,4.302,10.161,9.869,10.279c5.566,0.118,10.172-4.291,10.29-9.859
	c0.116-5.572-4.302-10.174-9.868-10.291C343.789,254.969,339.182,259.383,339.065,264.959z"/>
<path fill="#9C9D9D" d="M330.695,300.948c-0.062,2.975,2.301,5.435,5.278,5.496c2.976,0.063,5.438-2.294,5.502-5.271
	c0.062-2.979-2.301-5.44-5.277-5.504C333.222,295.605,330.757,297.967,330.695,300.948z"/>
<path fill="#9C9D9D" d="M336.128,219.255c-0.038,1.866,1.443,3.409,3.312,3.449c1.867,0.04,3.412-1.439,3.452-3.308
	c0.039-1.869-1.443-3.413-3.312-3.453C337.713,215.904,336.168,217.385,336.128,219.255z"/>
<g>
	<path fill="#BFBFC0" d="M322.088,152.83c-14.117,39.407-57.49,59.892-96.887,45.777c-39.391-14.118-59.888-57.505-45.764-96.893
		c14.114-39.387,57.485-59.884,96.884-45.757C315.708,70.064,336.204,113.442,322.088,152.83z"/>
	<path fill="#BFBFC0" d="M312.969,149.561c-12.573,35.094-51.211,53.339-86.309,40.778c-35.08-12.587-53.336-51.21-40.762-86.309
		c12.574-35.08,51.21-53.333,86.293-40.77C307.286,75.824,325.534,114.475,312.969,149.561z"/>
	<path opacity="0.33" fill="#BFBFC0" d="M315.736,114.117c-1.351,24.951-16.562,48.177-41.116,58.563
		c-34.33,14.527-73.935-1.535-88.458-35.864c-1.887-4.468-3.251-9.03-4.139-13.61c-0.529,9.927,1.126,20.112,5.251,29.878
		c14.52,34.344,54.122,50.392,88.455,35.873C305.586,176.336,321.615,144.729,315.736,114.117z"/>
	<path opacity="0.45" fill="#BFBFC0" d="M200.615,115.539c12.167-33.943,49.548-51.599,83.485-39.441
		c4.426,1.591,8.564,3.596,12.398,5.983c-6.707-6.897-15.039-12.389-24.702-15.861c-33.94-12.164-71.321,5.5-83.485,39.452
		c-10.571,29.518,1.403,61.63,27.038,77.497C198.479,165.862,191.92,139.817,200.615,115.539z"/>
	<path fill="#FFFFFF" d="M281.479,159.109c-7.845,21.898-31.961,33.292-53.868,25.441c-21.899-7.842-33.295-31.96-25.445-53.867
		c7.846-21.907,31.969-33.296,53.872-25.441C277.941,113.07,289.333,137.194,281.479,159.109z"/>
	<path fill="#9C9D9D" d="M264.409,164.564c-5.194,14.513-21.17,22.047-35.676,16.857c-14.503-5.199-22.058-21.179-16.856-35.684
		c5.198-14.507,21.173-22.047,35.676-16.849C262.071,134.085,269.608,150.06,264.409,164.564z"/>
	<path opacity="0.86" fill="none" d="M246.154,133.301c-1.75,4.875-7.112,7.399-11.981,5.653c-4.875-1.746-7.415-7.105-5.675-11.988
		c1.754-4.866,7.113-7.399,11.988-5.659C245.362,123.053,247.901,128.419,246.154,133.301z"/>
</g>
<g>
	<path fill="#9C9D9D" d="M190.321,220.67c-3.004,12.592,4.106,29.922,9.92,39.974c8.735,14.295,25.963,22.474,40.149,25.257
		c28.284,5.54,62.247-14.063,67.808-45.041c2.024-12.596,5.979-27.465-9.682-28.689c-15.166-1.215-19.24,12.6-41.171,17.102
		c-10.636,2.186-23.022,2.393-32.787-2.454c-7.322-3.76-26.805-22.37-33.742-7.192"/>
</g>
<g>
	<path fill="#9C9D9D" d="M230.458,260.86c-6.529-6.311-8.982-18.818-7.928-27.756c0.797-6.773,3.573-6.737,9.115-4.515
		c4.286,1.671,8.562,4.156,13.099,5.836c-1.276,2.425-0.786,5.149,0.213,7.326c-4.298,1.312-2.819,7.019,0.711,8.413
		c4.284,1.685,7.84-1.812,7.1-6.425c-0.242-1.095-1.505-1.105-1.754-1.657c-0.244-1.081,0.26-1.892,0.017-2.986
		c-0.742-2.991-0.739-3.525,1.289-4.864c2.535-1.597,7.33-1.546,10.373-3.139c3.033-1.329,6.074-4.014,9.35-2.071
		c2.77,1.923,3.996,7.63,4.485,10.893c0.978,5.982-0.32,12.209-3.379,17.599c-4.845,8.354-14.457,11.505-23.295,11.951
		c-2.526,0.249-5.3-0.05-8.077-0.621C236.989,267.437,234.738,263.346,230.458,260.86z"/>
</g>
<g>
	<path fill="#FFFFFF" d="M211.534,219.62c3.192,5.689,6.286,42.377,13.717,32.422c2.973-3.979,1.024-19.793,8.244-15.517
		c1.806,1.077,1.728,6.157,3.536,7.226c3.608,2.135,4.404-2.412,6.62-4.382c2.6-3.479,1.174-5.554,5.519-3.903
		c2.532,1.091,3.165,7.718,6.455,6.788c6.219-1.854,2.032-14.165,9.959-8.347c3.594,3.156,6.701,14.427,11.061,15.067
		c6.538,1.209,7.459-11.469,7.552-17.571c0.076-5.076,0.643-9.956-0.374-15.055c-5.484,1.358-11.172,7.599-17.754,9.444
		c-6.211,1.344-12.421,2.693-18.618,3.01c-11.284,0.689-25.806-5.814-35.9-10.429"/>
</g>
<g>
	<path fill="#FFFFFF" d="M217.597,276.719c2.678-8.561,9.663-12.928,15.872-14.266c5.483-1.373,11.587,4.399,16.338,3.525
		c2.554-0.442,4.814-5.455,7.74-6.379c3.293-0.921,7.281,0.207,10.906,1.329c6.166,1.703,11.839,8.006,16.473,14.744
		c-12.681,10.786-29.991,11.613-40.903,10.784C236.386,285.717,218.59,281.118,217.597,276.719"/>
</g>
<g>
	<path fill="#9C9D9D" d="M228.328,264.244c6.931-4.632,15.524,10.192,18.687,17.91c1.964-9.596,7.547-17.562,13.448-22.478
		c-5.051-3.198-8.153,4.611-12.902,5.486C243.185,265.544,235.404,258.653,228.328,264.244z"/>
</g>
<g>
	<path fill="#BFBFC0" d="M241.015,431.264c0,9.912-8.934,18.021-19.853,18.021h-1.91c-10.919,0-19.853-8.109-19.853-18.021
		s8.934-18.021,19.853-18.021h1.91C232.081,413.242,241.015,421.352,241.015,431.264z"/>
</g>
<g>
	<path fill="#BFBFC0" d="M303.059,431.145c0,9.912-9.047,18.021-20.105,18.021h-2.471c-11.058,0-20.104-8.109-20.104-18.021
		s9.047-18.021,20.104-18.021h2.471C294.012,413.123,303.059,421.232,303.059,431.145z"/>
</g>
<g>
	<path fill="#BFBFC0" d="M360.235,217.916c12.04-7.889,28.236-8.058,39.372,1.336c13.802,10.974,14.595,24.731,14.811,40.005
		c-7.929-7.801-16.202,0.676-16.913,8.804c-7.394-7.79-18.288-2.928-21.178,6.173c-3.498-13.306-17.78-27.345-33.435-27.164
		c2.899-9.609,9.747-27.277,21.15-30.601"/>
</g>
<g>
	<path fill="#9C9D9D" d="M376.108,273.457c3.484-9.816-14.681-35.955-10.916-32.99c15.787,0.735,27.567,9.033,31.524,24.015
		c7.057-10.724-13.839-32.502-25.335-33.95c18.444-4.044,35.623,11.617,40.425,27.018c0.62-9.247-11.54-40.189-48.25-40.874
		c0.659,9.275-7.286,21.591-5.336,30.49C360.595,256.073,373.338,262.933,376.108,273.457"/>
</g>
<g>
	<path fill="#BFBFC0" d="M143.212,217.916c-12.04-7.889-28.237-8.058-39.372,1.336c-13.802,10.974-14.594,24.731-14.811,40.005
		c7.929-7.801,16.202,0.676,16.914,8.804c7.393-7.79,18.289-2.928,21.178,6.173c3.498-13.306,17.778-27.345,33.434-27.164
		c-2.9-9.609-9.747-27.277-21.15-30.601"/>
</g>
<g>
	<path fill="#9C9D9D" d="M127.339,273.457c-3.485-9.816,14.681-35.955,10.915-32.99c-15.787,0.735-27.566,9.033-31.524,24.015
		c-7.056-10.724,13.839-32.502,25.335-33.95c-18.444-4.044-35.623,11.617-40.425,27.018c-0.62-9.247,11.541-40.189,48.25-40.874
		c-0.659,9.275,7.287,21.591,5.336,30.49C142.852,256.073,130.107,262.933,127.339,273.457"/>
</g>
<g>
	<path fill="#9C9D9D" d="M201.088,437.882c2.163-2.252,6.27-2.625,8.355-0.389c2.366,2.371,1.248,6.516-0.006,9.419
		c-7.035-0.848-8.296-4.774-8.558-8.829"/>
</g>
<g>
	<path fill="#9C9D9D" d="M230.347,446.984c-2.271-2.143-2.682-6.246-0.465-8.351c2.35-2.39,6.504-1.309,9.419-0.082
		c-0.783,7.044-4.699,8.34-8.751,8.638"/>
</g>
<g>
	<path fill="#9C9D9D" d="M213.893,448.144c-0.032-3.121,2.64-6.264,5.695-6.128c3.35,0.038,5.452,3.78,6.59,6.731
		c-5.618,4.319-9.268,2.398-12.292-0.314"/>
</g>
<g>
	<path fill="#9C9D9D" d="M262.716,437.882c2.162-2.252,6.269-2.625,8.354-0.389c2.367,2.371,1.249,6.516-0.005,9.419
		c-7.035-0.848-8.297-4.774-8.558-8.829"/>
</g>
<g>
	<path fill="#9C9D9D" d="M291.974,446.984c-2.27-2.143-2.681-6.246-0.464-8.351c2.35-2.39,6.504-1.309,9.419-0.082
		c-0.783,7.044-4.699,8.34-8.752,8.638"/>
</g>
<g>
	<path fill="#9C9D9D" d="M275.521,448.144c-0.031-3.121,2.64-6.264,5.695-6.128c3.35,0.038,5.452,3.78,6.589,6.731
		c-5.617,4.319-9.267,2.398-12.292-0.314"/>
</g>
<g>
	<path fill="#BFBFC0" d="M143.765,325.723c-1.192,6.489-9.672,7.895-6.136,15.54c1.342,3.197,3.424,4.649,6.758,5.247
		c2.808,0.412,5.795,0.65,5.897,4.172c4.182-6.249-6.558-6.299-8.428-9.507c-1.354-2.492-0.423-4.938,0.501-7.032
		c1.462-2.609,2.023-4.183,1.209-7.368"/>
</g>
<g>
	<path fill="#BFBFC0" d="M162.299,323.528c-1.174,10.058-8.932,12.347-5.807,24.13c1.182,4.929,3.063,7.148,6.097,8.029
		c2.558,0.598,5.28,0.929,5.326,6.378c3.899-9.727-5.9-9.66-7.564-14.601c-1.203-3.838-0.32-7.635,0.551-10.887
		c1.369-4.059,1.903-6.5,1.202-11.419"/>
</g>
<g>
	<path fill="#BFBFC0" d="M183.667,335.134c-3.918,0.21-6.665-3.483-10.491-4.017c-4.697-0.452-5.893,5.054-3.032,8.296
		c2.706,3.113,19.626,9.323,8.834,15.107c8.247-7.671-10.882-11.14-13.298-14.275c-4.304-5.012,0.694-12.452,7.748-11.63"/>
</g>
<circle fill="#9C9D9D" cx="149.933" cy="350.682" r="3.86"/>
<circle fill="#9C9D9D" cx="167.941" cy="362.762" r="3.86"/>
<circle fill="#9C9D9D" cx="178.227" cy="355.684" r="3.86"/>
<circle fill="#9C9D9D" cx="184.266" cy="336.669" r="3.86"/>
<g>
	<path fill="#BFBFC0" d="M330.46,325.723c-1.193,6.489-9.673,7.895-6.137,15.54c1.343,3.197,3.424,4.649,6.759,5.247
		c2.808,0.412,5.794,0.65,5.896,4.172c4.181-6.249-6.559-6.299-8.429-9.507c-1.354-2.492-0.423-4.938,0.502-7.032
		c1.462-2.609,2.023-4.183,1.21-7.368"/>
</g>
<g>
	<path fill="#BFBFC0" d="M348.994,323.528c-1.174,10.058-8.932,12.347-5.808,24.13c1.184,4.929,3.064,7.148,6.098,8.029
		c2.558,0.598,5.281,0.929,5.326,6.378c3.899-9.727-5.9-9.66-7.563-14.601c-1.204-3.838-0.321-7.635,0.55-10.887
		c1.369-4.059,1.903-6.5,1.202-11.419"/>
</g>
<g>
	<path fill="#BFBFC0" d="M370.362,335.134c-3.918,0.21-6.664-3.483-10.491-4.017c-4.696-0.452-5.893,5.054-3.032,8.296
		c2.706,3.113,19.628,9.323,8.835,15.107c8.246-7.671-10.883-11.14-13.298-14.275c-4.305-5.012,0.693-12.452,7.747-11.63"/>
</g>
<circle fill="#9C9D9D" cx="336.628" cy="350.682" r="3.859"/>
<circle fill="#9C9D9D" cx="354.636" cy="362.762" r="3.86"/>
<circle fill="#9C9D9D" cx="364.922" cy="355.684" r="3.859"/>
<circle fill="#9C9D9D" cx="370.961" cy="336.669" r="3.859"/>
</svg>
