<?xml version="1.0" encoding="utf-8"?>
<!-- Generator: Adobe Illustrator 16.0.1, SVG Export Plug-In . SVG Version: 6.00 Build 0)  -->
<!DOCTYPE svg PUBLIC "-//W3C//DTD SVG 1.1//EN" "http://www.w3.org/Graphics/SVG/1.1/DTD/svg11.dtd">
<svg version="1.1" id="content" xmlns="http://www.w3.org/2000/svg" xmlns:xlink="http://www.w3.org/1999/xlink" x="0px" y="0px"
	 width="500px" height="500px" viewBox="0 0 500 500" enable-background="new 0 0 500 500" xml:space="preserve">
<g id="bounds" display="none">
	<rect x="0" display="inline" fill="none" stroke="#000000" stroke-miterlimit="10" width="500" height="500"/>
</g>
<g>
	<g>
		<g>
			<path fill="#BFBFC0" d="M186.724,314.886c0,8.797-7.197,15.994-15.994,15.994h-0.433c-8.797,0-15.994-7.197-15.994-15.994v-88.13
				c0-8.797,7.197-15.994,15.994-15.994h0.433c8.797,0,15.994,7.197,15.994,15.994V314.886z"/>
		</g>
	</g>
	<g>
		<g>
			<path fill="#BFBFC0" d="M356.51,314.886c0,8.797-7.197,15.994-15.994,15.994h-0.432c-8.797,0-15.994-7.197-15.994-15.994v-88.13
				c0-8.797,7.197-15.994,15.994-15.994h0.432c8.797,0,15.994,7.197,15.994,15.994V314.886z"/>
		</g>
	</g>
	<g>
		<g>
			<path fill="#BFBFC0" d="M246.032,412.941c0,9.874-8.078,17.952-17.952,17.952h-1.728c-9.874,0-17.952-8.078-17.952-17.952
				v-94.465c0-9.874,8.078-17.952,17.952-17.952h1.728c9.874,0,17.952,8.078,17.952,17.952V412.941z"/>
		</g>
		<g>
			<path fill="#BFBFC0" d="M301.93,412.941c0,9.874-8.078,17.952-17.951,17.952h-1.729c-9.873,0-17.951-8.078-17.951-17.952v-94.465
				c0-9.874,8.078-17.952,17.951-17.952h1.729c9.873,0,17.951,8.078,17.951,17.952V412.941z"/>
		</g>
		<g>
			<path fill="#BFBFC0" d="M302.411,412.714c0,9.999-8.181,18.18-18.18,18.18h-2.235c-9.999,0-18.18-8.181-18.18-18.18v-94.01
				c0-9.999,8.181-18.18,18.18-18.18h2.235c9.999,0,18.18,8.181,18.18,18.18V412.714z"/>
		</g>
	</g>
	<g>
		<circle fill="#BFBFC0" cx="255.407" cy="143.777" r="62.932"/>
	</g>
	<path fill="#BFBFC0" d="M253.281,72.436c-50.431,0-88.326,44.135-60.04,82.728l0,0c0,0-1.329-39.643,25.094-57.234
		c0,0,1.325,21.129,73.907,14.956c0,0-10.122-9.183-9.591-18.383c0,0,35.732,43.07,34.815,60.661l0,0
		C342.962,117.467,313.564,72.436,253.281,72.436z"/>
	<g>
		<circle fill="#FFFFFF" cx="231.612" cy="137.27" r="11.101"/>
		<circle fill="#FFFFFF" cx="278.302" cy="137.27" r="11.102"/>
		<path fill="#FFFFFF" d="M266.508,168.702c0,6.131-4.969,11.101-11.102,11.101c-6.13,0-11.102-4.97-11.102-11.101H266.508z"/>
	</g>
	<g>
		<path fill="#BFBFC0" d="M308.765,341.755c-0.738,8.669-8.461,15.761-17.16,15.761h-72.619c-8.7,0-16.411-7.093-17.136-15.763
			l-9.641-115.229c-0.726-8.669,5.799-15.762,14.499-15.762h97.398c8.699,0,15.213,7.092,14.475,15.76L308.765,341.755z"/>
	</g>
</g>
<g>
	<path fill="#9C9D9D" d="M228.08,330.882h-1.727c-9.873,0-17.953,8.076-17.953,17.95v64.109h37.632v-23.483v-3.498v-37.128
		C246.032,338.958,237.954,330.882,228.08,330.882z"/>
	<path fill="#9C9D9D" d="M284.231,330.88h-2.233c-9.999,0-18.181,8.183-18.181,18.182v36.898h-0.14v3.498h0.14v23.256h38.595
		v-23.256v-3.498v-36.898C302.411,339.062,294.23,330.88,284.231,330.88z"/>
</g>
<path fill="#9C9D9D" d="M299.397,210.661h-21.511c0,12.891-10.45,23.341-23.341,23.341c-12.892,0-23.342-10.45-23.342-23.341
	h-19.615l-8.202,64.656h104.467L299.397,210.661z"/>
<path fill="#BFBFC0" d="M189.174,264.537c0,11.049-37.318,11.049-37.318,0v-36.098c0-11.047,7.215-20.086,16.034-20.086h5.249
	c8.82,0,16.035,9.039,16.035,20.086V264.537z"/>
<path fill="#BFBFC0" d="M358.545,264.075c0,11.049-37.319,11.049-37.319,0v-35.636c0-11.047,7.216-20.086,16.034-20.086h5.25
	c8.819,0,16.035,9.039,16.035,20.086V264.075z"/>
<path fill="#BFBFC0" d="M346.966,297.764c-1.489-1.967-3.829-3.264-6.491-3.264c-2.664,0-5.006,1.297-6.494,3.264h-9.543v9.82h9.543
	c1.488,1.967,3.83,3.262,6.494,3.262c2.662,0,5.002-1.295,6.491-3.262h9.544v-9.82H346.966z M340.475,306.722
	c-2.236,0-4.048-1.812-4.048-4.053c0-2.229,1.812-4.042,4.048-4.042c2.233,0,4.047,1.812,4.047,4.042
	C344.522,304.91,342.708,306.722,340.475,306.722z"/>
<g>
	<path fill="#BFBFC0" d="M254.725,42.708l-13.551,69.644l13.551,10.698h79.623v-10.698
		C334.348,73.886,298.701,42.708,254.725,42.708z"/>
	<path fill="#BFBFC0" d="M175.104,112.353v10.698h79.621v-10.698V42.708C210.745,42.708,175.104,73.886,175.104,112.353z"/>
	<rect x="175.104" y="112.353" fill="#9C9D9D" width="159.244" height="10.698"/>
	<rect x="235.543" y="38.64" fill="#9C9D9D" width="38.358" height="74.892"/>
	<path fill="#FFFFFF" d="M216.828,73.203c0,4.118-3.443,7.446-7.689,7.446c-4.25,0-7.695-3.328-7.695-7.446
		c0-4.121,3.445-7.45,7.695-7.45C213.385,65.752,216.828,69.082,216.828,73.203z"/>
</g>
<path fill="#9C9D9D" d="M304.107,210.761h-20.992c0,23.232-4.762,40.067-27.994,40.067c-23.231,0-29.241-16.835-29.241-40.067
	h-19.171c-8.699,0-15.224,7.093-14.499,15.763l9.641,115.228c0.726,8.672,8.437,15.764,17.137,15.764h72.618
	c8.699,0,16.422-7.092,17.16-15.76l9.815-115.235C319.319,217.853,312.805,210.761,304.107,210.761z"/>
<polygon fill="#BFBFC0" points="302.411,265.507 284.912,273.298 267.41,265.507 267.41,255.803 302.411,255.803 "/>
<polygon fill="#FFFFFF" points="243.381,265.507 225.881,273.298 208.381,265.507 208.381,255.803 243.381,255.803 "/>
<rect x="273.902" y="288.588" fill="#BFBFC0" width="26.217" height="35.728"/>
<g>
	<g>
		<path fill="#BFBFC0" d="M199.651,432.811c-11.838,0-29.592-0.377-36.745-1.674c-0.437-0.08-0.841-0.171-1.214-0.272
			c0.096,0.293,0.242,0.533,0.451,0.691c0,0,12.089,1.942,42.186,1.942c30.098,0,40.637-1.817,40.637-1.817
			c0.475-0.26,0.817-0.631,1.064-1.042c-0.621,0.298-1.504,0.576-2.756,0.766C235.833,432.528,213.012,432.811,199.651,432.811z"/>
		<path fill="#BFBFC0" d="M246.643,427.819c0-1.741-0.725-1.53-1.424-1.53h-82.515c-0.589,0-1.518,3.023-1.013,4.575
			c0.373,0.102,0.777,0.192,1.214,0.272c7.153,1.297,24.907,1.674,36.745,1.674c13.361,0,36.183-0.282,43.623-1.406
			c1.252-0.189,2.135-0.468,2.756-0.766C246.772,429.407,246.643,427.819,246.643,427.819z"/>
	</g>
	<path fill="#BFBFC0" d="M248.288,419.879c0-0.021-0.001-0.045-0.001-0.065c-0.004-0.257-0.012-0.515-0.021-0.774
		c0-0.019-0.002-0.039-0.002-0.057c-0.023-0.562-0.054-1.132-0.096-1.708c-0.001-0.004-0.001-0.008-0.001-0.013
		c-0.021-0.273-0.043-0.548-0.066-0.824c-0.003-0.033-0.007-0.065-0.009-0.099c-0.023-0.269-0.059-0.54-0.086-0.811
		c0-0.008-0.011-0.017-0.011-0.024c0-0.001,0-0.003,0-0.007c0-0.493-0.099-0.987-0.159-1.48c-0.001-0.006,0.003-0.01,0.003-0.013
		c-0.063-0.499-0.128-0.997-0.199-1.494c-0.47-3.219-1.132-6.362-1.815-8.951c-0.425-1.603-0.857-2.992-1.254-4.049
		c0,0-0.006-0.004-0.016-0.008c-0.008-0.005-0.02-0.009-0.035-0.018c-0.004,0-0.005,0-0.009-0.004
		c-0.017-0.007-0.037-0.017-0.062-0.025c-0.002-0.002-0.006-0.004-0.01-0.006c-0.025-0.011-0.055-0.023-0.086-0.036
		c-0.005-0.002-0.008-0.003-0.01-0.005c-0.037-0.013-0.074-0.029-0.117-0.046c0,0-0.002-0.002-0.005-0.002
		c-0.043-0.018-0.091-0.034-0.142-0.053c0-0.002-0.002-0.002-0.002-0.002c-0.102-0.036-0.217-0.076-0.344-0.116
		c-0.004,0-0.005-0.002-0.006-0.002c-0.064-0.02-0.13-0.04-0.199-0.058c-0.002,0-0.004-0.002-0.006-0.002
		c-0.066-0.021-0.14-0.038-0.214-0.057c-0.001-0.002-0.004-0.002-0.005-0.002c-0.072-0.018-0.148-0.034-0.227-0.053
		c-0.002,0-0.006-0.002-0.007-0.002c-0.079-0.016-0.16-0.032-0.241-0.047c-0.004,0-0.006-0.002-0.008-0.002
		c-0.084-0.015-0.167-0.029-0.254-0.04c-0.003-0.002-0.004-0.002-0.007-0.002c-0.087-0.013-0.175-0.023-0.266-0.032
		c-0.001,0-0.003,0-0.005,0c-0.088-0.01-0.177-0.017-0.268-0.022c-0.004,0-0.008-0.007-0.013-0.007
		c-0.091-0.006-0.181-0.019-0.272-0.019c-0.006,0-0.012,0-0.014,0c-0.092,0-0.184,0-0.277,0c-0.006,0-0.012,0-0.018,0
		c-0.092,0-0.184,0.025-0.275,0.035c-0.008,0-0.016,0.005-0.022,0.005c-0.091,0.011-0.182,0.027-0.272,0.042
		c-0.01,0.002-0.019,0.004-0.027,0.006c-0.09,0.015-0.18,0.034-0.27,0.056c-0.012,0.002-0.022,0.004-0.033,0.006
		c-0.088,0.021-0.175,0.047-0.26,0.072c-0.016,0.006-0.029,0.01-0.043,0.013c-0.084,0.027-0.17,0.059-0.254,0.094
		c-0.016,0.005-0.032,0.011-0.047,0.016c-0.082,0.035-0.166,0.073-0.247,0.111c-0.016,0.007-0.032,0.015-0.05,0.023
		c-0.078,0.04-0.156,0.086-0.236,0.131c-0.018,0.011-0.036,0.021-0.057,0.031c-0.076,0.047-0.151,0.098-0.225,0.152
		c-0.02,0.013-0.04,0.025-0.06,0.04c-0.073,0.053-0.144,0.111-0.214,0.171c-0.021,0.019-0.043,0.035-0.065,0.053
		c-0.067,0.061-0.134,0.128-0.202,0.193c-0.021,0.021-0.043,0.042-0.064,0.063c-0.063,0.065-0.123,0.139-0.184,0.209
		c-0.024,0.029-0.051,0.055-0.074,0.084c-0.059,0.074-0.118,0.152-0.175,0.234c-0.024,0.033-0.048,0.062-0.071,0.095
		c-0.057,0.086-0.113,0.175-0.167,0.266c-0.022,0.034-0.043,0.067-0.063,0.102c-0.059,0.103-0.113,0.21-0.168,0.318
		c-0.016,0.031-0.033,0.061-0.048,0.091c-0.069,0.145-0.136,0.295-0.2,0.453c-2.027,5.061-6.082,5.537-10.141,4.413
		c-0.117-0.032-0.234-0.071-0.351-0.114c-0.036-0.015-0.073-0.031-0.11-0.044c-0.08-0.034-0.161-0.067-0.242-0.104
		c-0.042-0.021-0.084-0.04-0.125-0.061c-0.08-0.04-0.157-0.08-0.234-0.121c-0.04-0.022-0.08-0.044-0.12-0.065
		c-0.092-0.053-0.182-0.107-0.272-0.166c-0.025-0.017-0.051-0.031-0.074-0.047c-0.117-0.075-0.231-0.155-0.346-0.238
		c-0.032-0.022-0.062-0.046-0.092-0.067c-0.086-0.064-0.172-0.13-0.257-0.196c-0.041-0.033-0.079-0.065-0.119-0.097
		c-0.077-0.063-0.155-0.128-0.231-0.195c-0.041-0.034-0.081-0.068-0.121-0.105c-0.082-0.068-0.162-0.146-0.244-0.222
		c-0.032-0.029-0.064-0.058-0.097-0.087c-0.114-0.107-0.227-0.217-0.34-0.329c-0.009-0.01-0.016-0.019-0.026-0.027
		c-0.104-0.104-0.207-0.211-0.31-0.318c-0.034-0.036-0.066-0.073-0.101-0.107c-0.08-0.086-0.158-0.173-0.238-0.259
		c-0.035-0.04-0.071-0.08-0.105-0.12c-0.081-0.087-0.16-0.178-0.238-0.269c-0.031-0.035-0.062-0.071-0.094-0.107
		c-0.102-0.118-0.203-0.236-0.305-0.356c-0.006-0.008-0.014-0.017-0.019-0.023c-0.112-0.135-0.222-0.27-0.332-0.406
		c-0.019-0.021-0.038-0.047-0.056-0.07c-0.091-0.111-0.178-0.223-0.266-0.333c-0.027-0.037-0.055-0.069-0.082-0.104
		c-0.081-0.106-0.163-0.212-0.245-0.318c-0.022-0.031-0.048-0.062-0.071-0.093c-0.097-0.126-0.192-0.253-0.289-0.381
		c-0.004-0.005-0.009-0.013-0.014-0.018c-0.709-0.946-1.374-1.885-1.975-2.711c-0.018-0.023-0.035-0.045-0.051-0.067
		c-0.055-0.076-0.109-0.148-0.164-0.222c-0.03-0.042-0.062-0.084-0.092-0.125c-0.047-0.064-0.096-0.13-0.142-0.193
		c-0.038-0.047-0.072-0.095-0.108-0.142c-0.041-0.055-0.083-0.111-0.125-0.164c-0.003-0.002-0.004-0.004-0.005-0.005
		c-0.001-0.004-0.005-0.008-0.007-0.012c-0.109-0.142-0.216-0.274-0.319-0.403c-0.021-0.025-0.042-0.055-0.063-0.078
		c-0.107-0.133-0.213-0.261-0.314-0.375c-0.002-0.004-0.004-0.006-0.007-0.009c-0.096-0.107-0.186-0.204-0.275-0.297
		c-0.022-0.023-0.045-0.045-0.067-0.067c-0.092-0.091-0.18-0.175-0.264-0.243c-0.262-0.219-0.613-0.4-1.031-0.542l-0.127-0.183
		l-1.131-0.098c-0.236-0.031-0.481-0.053-0.738-0.065l-1.284-0.111c0,0-1.638-0.655-3.354-0.813
		c-1.186-0.108-2.41,0.017-3.162,0.757c-1.841,1.815-9.619,7.26-10.848,7.715c-1.227,0.453-4.911,3.176-4.911,3.176
		s0,0.233,0.03,0.597c-0.14,0.071-0.279,0.142-0.42,0.211c-0.02,0.011-0.041,0.021-0.06,0.031l0,0
		c-1.171,0.582-2.297,1.124-3.333,1.611c-0.009,0.002-0.016,0.008-0.022,0.011c-1.785,0.839-3.309,1.518-4.331,1.971
		c-0.519,0.229-1.115,0.494-1.766,0.785l0,0c-0.301,0.133-0.609,0.273-0.93,0.417c-0.82,0.371-1.707,0.78-2.645,1.219
		c-0.346,0.163-0.694,0.329-1.053,0.5c-0.844,0.404-1.715,0.829-2.603,1.275c-0.47,0.236-0.942,0.477-1.418,0.722
		c-0.006,0.004-0.012,0.006-0.017,0.01c-0.472,0.243-0.946,0.494-1.419,0.747c-0.047,0.023-0.093,0.051-0.14,0.076
		c-0.391,0.21-0.779,0.422-1.17,0.639c-0.108,0.061-0.218,0.122-0.328,0.182c-0.437,0.246-0.873,0.493-1.301,0.744
		c-0.802,0.47-1.59,0.948-2.348,1.432c-1.299,0.83-2.592,2.298-3.552,3.935c-1.073,1.832-1.725,3.873-1.499,5.479
		c0.326,0.244,0.734,0.53,1.189,0.801c1.1,0.656,2.875,1.126,4.734,1.219c1.861,0.095,14.542,0.751,17.585,0.751
		c3.044,0,21.952,0.206,21.952,0.206l1.958,0.051l1.8,0.047l3.808,0.101l0.36-0.002l3.663-0.013c0.001,0,0.003-0.002,0.005-0.004
		c-0.002,0.002-0.004,0.004-0.005,0.004l0,0c-0.304,0.268-0.616,0.525-0.915,0.797c14.525-0.073,26.926-0.603,29.179-2.087
		c0.765-0.502,1.349-1.32,1.781-2.372c0.001,0,0.001,0,0.001-0.001c0.004-0.006,0.006-0.014,0.008-0.021
		c0.289-0.704,0.51-1.512,0.672-2.401c0.002-0.009,0.003-0.016,0.005-0.025c0.122-0.673,0.209-1.39,0.268-2.145
		c0-0.005,0-0.011,0-0.015c0.019-0.243,0.033-0.493,0.046-0.745c0-0.012,0.001-0.021,0.002-0.031
		C248.295,421.509,248.305,420.705,248.288,419.879z"/>
	<path fill="#BFBFC0" d="M244.573,399.51c0,0-5.187-2.562-7.217,2.499c-2.027,5.061-6.082,5.537-10.141,4.413
		c-4.058-1.124-8.115-8.997-10.145-10.683c-0.954-0.795-3.025-1.113-5.531-0.757c2.293,3.791,3.871,8.08,6.371,11.962
		c3.045,4.123,7.778,5.622,12.176,6.372c5.747,1.124,10.144-3.373,13.865-8.622c0.346-0.575,1.045-0.953,1.873-1.136
		C245.4,401.956,244.969,400.566,244.573,399.51z"/>
	<path fill="#BFBFC0" d="M235.833,406.944c3.459-3.137,4.29-6.92,8.735-7.437c-0.051-0.023-5.191-2.535-7.213,2.501
		c-2.027,5.061-6.082,5.537-10.141,4.413c-3.309-0.917-6.617-6.321-8.827-9.198C221.93,405.401,228.727,412.674,235.833,406.944z"/>
	<path fill="#BFBFC0" d="M243.951,404.132c-3.722,5.248-8.118,9.746-13.865,8.622c-4.397-0.749-9.131-2.25-12.176-6.372
		c-2.385-3.703-3.934-7.78-6.062-11.439c-0.103,0.013-0.203,0.023-0.309,0.04c2.293,3.791,3.871,8.08,6.371,11.962
		c3.045,4.123,7.778,5.622,12.176,6.372c5.747,1.124,10.144-3.373,13.865-8.622c0.346-0.575,1.045-0.953,1.873-1.136
		c-0.047-0.178-0.094-0.353-0.141-0.527C244.918,403.226,244.277,403.59,243.951,404.132z"/>
	<path fill="#BFBFC0" d="M176.317,420.064c2.366-0.376,1.69-3.751,3.381-5.248c3.721-2.999,8.115-4.498,12.851-5.999
		c6.765-1.873,12.175-5.997,18.261-9.371c1.055-0.293,0.875-2.407,0.264-4.392c-2.713,0.468-5.87,1.705-8.66,3.955
		c-5.58,4.498-16.266,9.316-20.064,10.996c-3.244,1.433-9.385,4.16-14.787,7.315C169.746,419.854,172.875,421.083,176.317,420.064z"
		/>
	<path fill="#BFBFC0" d="M176.317,420.064c2.366-0.376,1.69-3.751,3.381-5.248c3.721-2.999,8.115-4.498,12.851-5.999
		c6.765-1.873,12.175-5.997,18.261-9.371c1.055-0.293,0.875-2.407,0.264-4.392c-2.713,0.468-5.87,1.705-8.66,3.955
		c-5.58,4.498-16.266,9.316-20.064,10.996c-3.244,1.433-9.385,4.16-14.787,7.315C169.746,419.854,172.875,421.083,176.317,420.064z"
		/>
	<path fill="#BFBFC0" d="M176.317,420.064c2.366-0.376,1.69-3.751,3.381-5.248c3.721-2.999,8.115-4.498,12.851-5.999
		c6.765-1.873,12.175-5.997,18.261-9.371c1.055-0.293,0.875-2.407,0.264-4.392c-2.713,0.468-5.87,1.705-8.66,3.955
		c-5.58,4.498-16.266,9.316-20.064,10.996c-3.244,1.433-9.385,4.16-14.787,7.315C169.746,419.854,172.875,421.083,176.317,420.064z"
		/>
	<path fill="#BFBFC0" d="M211.073,395.055c-0.03,0.008-0.06,0.013-0.089,0.019c0.513,1.86,0.604,3.722-0.38,3.994
		c-6.086,3.375-11.497,7.498-18.262,9.372c-4.733,1.5-9.129,2.998-12.85,5.999c-1.689,1.499-1.014,4.873-3.381,5.248
		c-3.289,0.971-6.292-0.109-8.459-2.418c-0.029,0.017-0.062,0.035-0.092,0.053c2.186,2.532,5.314,3.762,8.756,2.743
		c2.366-0.376,1.69-3.751,3.381-5.248c3.721-2.999,8.115-4.498,12.851-5.999c6.765-1.873,12.175-5.997,18.261-9.371
		C211.864,399.153,211.684,397.039,211.073,395.055z"/>
	<path fill="#BFBFC0" d="M237.526,417.816c-1.354,0.749-2.707,0.749-3.721,1.499c-6.139,4.003-12.18,8.005-17.508,12.808
		c14.525-0.073,26.926-0.603,29.179-2.087c3.274-2.153,3.255-10.037,2.165-17.526C244.115,414.034,240.905,416.21,237.526,417.816z"
		/>
	<path fill="#BFBFC0" d="M248.012,415.504c-1.135-0.118-1.782,0.877-2.709,1.562c-2.705,1.124-3.72,5.247-6.426,6.372
		c-6.715,2.383-13.645,3.821-19.432,7.881c8.844,0.073,17.666,0.519,26.195-2.632c0.584-0.216,1.163-0.56,1.617-1.023
		C248.434,424.814,248.497,420.245,248.012,415.504z"/>
	<polygon fill="#BFBFC0" points="207.581,431.193 208.092,432.117 207.581,431.193 	"/>
	<polygon fill="#BFBFC0" points="207.581,431.193 208.092,432.117 207.581,431.193 	"/>
	<polygon fill="#BFBFC0" points="213.549,431.339 213.997,432.13 213.549,431.339 	"/>
	<polygon fill="#BFBFC0" points="213.549,431.339 213.997,432.13 213.549,431.339 	"/>
	<path fill="#BFBFC0" d="M217.031,405.502c-2.018-3.482-3.48-7.192-5.492-10.52c-0.154,0.021-0.311,0.047-0.467,0.072
		c0.611,1.984,0.791,4.099-0.264,4.392c-3.945,2.187-7.607,4.686-11.537,6.685l-4.455,1.957c-0.741,0.27-1.494,0.515-2.269,0.729
		c-4.735,1.501-9.13,3-12.851,5.999c-1.69,1.497-1.015,4.872-3.381,5.248c-3.441,1.019-6.57-0.211-8.756-2.743
		c-0.802,0.47-1.59,0.948-2.348,1.432c-1.299,0.83-2.592,2.298-3.552,3.935c0.04,0,0.08,0,0.114,0
		c4.056,6.749,13.865,4.873,18.26,0.75c5.049-4.354,10.563-7.669,16.738-9.532l0.003,0.004l0.19-0.061
		c0.297-0.087,0.593-0.176,0.891-0.256l-0.013-0.023l6.242-1.983l-0.014-0.03C208.791,410.228,214.071,409.441,217.031,405.502z"/>
	<path fill="#BFBFC0" d="M217.367,397.087c-0.334,2.562-0.92,5.197-2.838,6.108c-3.382,1.875-8.116-0.375-11.836,1.875
		c-2.705,1.124-4.734,3.747-7.439,4.873c-2.74,0.868-3.781-1.027-4.695-3.357c0.221,1.777,1.105,5.169,4.633,3.979
		c4.707-1.588,6.549-4.536,10.029-5.444c3.479-0.907,7.162,0.453,9.619-0.682c2.455-1.134,3.068-6.578,3.068-6.578L217.367,397.087z
		"/>
	<path fill="#BFBFC0" d="M215.912,395.015l-3.153-0.274c0,0-1.638-0.655-3.354-0.813c0.078,0.504,0.172,0.997,0.053,1.396
		c1.352,0.377,2.367,1.124,2.705,2.625c0.338,1.873-1.354,3.374-2.705,3.374c-5.411,0-9.131,2.623-13.527,5.997
		c-1.261,1.164-2.912,1.315-4.633,0.904c0.807,1.47,1.906,2.37,3.957,1.721c2.705-1.126,4.734-3.749,7.439-4.873
		c3.72-2.25,8.454,0,11.836-1.875c1.918-0.911,2.504-3.546,2.838-6.108L215.912,395.015z"/>
	<path fill="#BFBFC0" d="M195.93,407.318c4.396-3.374,8.116-5.997,13.527-5.997c1.352,0,3.043-1.501,2.705-3.374
		c-0.338-1.501-1.354-2.248-2.705-2.625c0.119-0.398,0.025-0.892-0.053-1.396c-1.186-0.108-2.41,0.017-3.162,0.757
		c-1.841,1.815-9.619,7.26-10.848,7.715c-1.227,0.453-4.911,3.176-4.911,3.176s0,0.415,0.075,1.012
		c0.229,0.584,0.467,1.143,0.738,1.637C193.018,408.634,194.669,408.482,195.93,407.318z"/>
	<path fill="#BFBFC0" d="M247.641,412.51c-1.143,0.495-2.25,1.06-3.345,1.648c-0.659,0.327-2.987,1.476-4.751,2.298
		c-1.701,0.793-4.023,1.972-4.803,2.37c-0.334,0.127-0.65,0.276-0.938,0.489c-5.791,3.774-11.486,7.562-16.588,12.007l2.232-0.005
		c0.003-0.002,0.006-0.006,0.008-0.008c5.785-4.053,12.709-5.491,19.42-7.872c2.706-1.125,3.721-5.248,6.426-6.372
		c0.927-0.685,1.574-1.68,2.709-1.562C247.91,414.51,247.787,413.505,247.641,412.51z"/>
	<path fill="#BFBFC0" d="M245.641,428.687c-8.529,3.15-17.352,2.705-26.195,2.632c-0.137,0.097-0.135,0.095,0.004-0.001
		l-2.232,0.005c-0.002,0.002-0.004,0.004-0.005,0.004l-3.663,0.013l-0.36,0.002l-3.808-0.101l-1.8-0.047l-1.958-0.051
		c0,0-18.908-0.206-21.952-0.206c-3.043,0-15.724-0.656-17.585-0.751c-1.859-0.093-3.635-0.562-4.734-1.219
		c-0.455-0.271-0.863-0.557-1.189-0.801c0.217,1.536,1.236,2.673,3.474,2.833c3.681,0.262,24.63,1.011,44.456,1.118
		c0.541,0.004,1.083,0.006,1.624,0.008c1.437,0.005,2.868,0.007,4.281,0.005c0.771-0.002,1.538-0.005,2.3-0.007
		c0.699-0.004,1.392-0.01,2.08-0.015c0.133-0.104,0.133-0.104,0,0c13.613-0.111,24.954-0.66,27.099-2.072
		c0.765-0.502,1.349-1.32,1.782-2.373C246.804,428.127,246.225,428.471,245.641,428.687z"/>
	<g>
		<path fill="#BFBFC0" d="M209.076,423.189c0.635,0.635,1.302,1.054,1.829,1.172c-0.551-0.188-1.212-0.643-1.825-1.31
			C209.08,423.097,209.079,423.143,209.076,423.189z"/>
		<path fill="#BFBFC0" d="M210.989,418.342c-0.014,0.019-0.025,0.036-0.042,0.053c0.468,0.015,0.903,0.084,1.282,0.193
			C211.869,418.462,211.448,418.375,210.989,418.342z"/>
		<path fill="#BFBFC0" d="M208.885,416.849c0.882-0.962,2.057-1.717,2.66-1.617c-0.521-0.278-1.461,0.086-2.682,1.308
			C208.865,416.592,208.887,416.809,208.885,416.849z"/>
		<path fill="#BFBFC0" d="M206.627,423.2c-0.064,0.071-0.131,0.132-0.198,0.197c0.089,1.466,0.569,2.597,1.163,2.661
			C207.064,425.768,206.664,424.61,206.627,423.2z"/>
		<path fill="#BFBFC0" d="M203.778,424.429c-0.482-0.533,0.023-1.958,1.127-3.184c0.044-0.046,0.086-0.087,0.132-0.133
			c-0.04,0.002-0.143-0.082-0.195-0.084c-0.021,0.022-0.124,0.128-0.145,0.151c-1.104,1.225-1.608,2.648-1.128,3.182
			c0.093,0.104,0.225,0.154,0.37,0.18C203.881,424.51,203.823,424.478,203.778,424.429z"/>
	</g>
	<g>
		<path fill="#BFBFC0" d="M176.397,414.951c0.041,0.522-0.49,0.864-1.05,0.9c-0.559,0.035-0.914-0.322-0.955-0.842
			c-0.039-0.524,0.304-0.993,0.862-1.028C175.815,413.945,176.358,414.43,176.397,414.951z"/>
		<path fill="#BFBFC0" d="M174.587,415.383c0.145,0.312,0.579,0.449,0.972,0.304l0.272-0.103c0.392-0.146,0.593-0.517,0.448-0.829
			l-1.066-2.315c-0.145-0.313-0.578-0.449-0.972-0.304l-0.272,0.1c-0.393,0.146-0.592,0.519-0.445,0.831L174.587,415.383z"/>
		<path fill="#BFBFC0" d="M176.28,414.755l-1.066-2.315c-0.058-0.126-0.163-0.221-0.293-0.282l1.047,2.272
			c0.145,0.312-0.056,0.686-0.447,0.829l-0.273,0.102c-0.233,0.088-0.483,0.073-0.678-0.02l0.019,0.042
			c0.145,0.312,0.579,0.449,0.972,0.304l0.272-0.103C176.223,415.438,176.424,415.067,176.28,414.755z"/>
	</g>
	<g>
		<path fill="#BFBFC0" d="M180.024,413.167c0.039,0.534-0.492,0.886-1.051,0.922c-0.559,0.038-0.916-0.329-0.956-0.864
			c-0.039-0.534,0.305-1.015,0.863-1.051C179.44,412.136,179.985,412.632,180.024,413.167z"/>
		<path fill="#BFBFC0" d="M178.213,413.609c0.145,0.321,0.578,0.46,0.972,0.311l0.272-0.104c0.392-0.149,0.592-0.529,0.447-0.852
			l-1.066-2.372c-0.144-0.32-0.578-0.46-0.969-0.312l-0.274,0.105c-0.394,0.149-0.591,0.531-0.446,0.852L178.213,413.609z"/>
		<path fill="#BFBFC0" d="M179.905,412.965l-1.066-2.372c-0.057-0.129-0.162-0.226-0.292-0.289l1.048,2.328
			c0.143,0.32-0.057,0.702-0.448,0.852l-0.272,0.104c-0.236,0.089-0.486,0.073-0.68-0.021l0.02,0.044
			c0.145,0.321,0.578,0.46,0.972,0.311l0.272-0.104C179.849,413.667,180.049,413.287,179.905,412.965z"/>
	</g>
	<g>
		<path fill="#BFBFC0" d="M183.375,411.364c0.038,0.48-0.468,0.795-1,0.827c-0.533,0.031-0.872-0.296-0.91-0.774
			c-0.037-0.48,0.29-0.911,0.822-0.942C182.819,410.442,183.34,410.884,183.375,411.364z"/>
		<path fill="#BFBFC0" d="M181.652,411.759c0.138,0.289,0.552,0.413,0.926,0.28l0.259-0.093c0.374-0.133,0.562-0.475,0.426-0.764
			l-1.015-2.125c-0.138-0.287-0.552-0.413-0.925-0.278l-0.26,0.091c-0.373,0.135-0.562,0.477-0.426,0.765L181.652,411.759z"/>
		<path fill="#BFBFC0" d="M183.262,411.183l-1.015-2.125c-0.054-0.116-0.155-0.202-0.277-0.258l0.995,2.084
			c0.139,0.288-0.053,0.63-0.426,0.765l-0.26,0.093c-0.225,0.079-0.462,0.065-0.647-0.021l0.02,0.038
			c0.138,0.289,0.552,0.413,0.926,0.28l0.259-0.093C183.21,411.813,183.399,411.472,183.262,411.183z"/>
	</g>
	<g>
		<path fill="#BFBFC0" d="M186.975,409.705c0.038,0.484-0.453,0.801-0.97,0.833c-0.518,0.033-0.846-0.296-0.882-0.78
			c-0.035-0.483,0.281-0.918,0.797-0.951C186.438,408.774,186.94,409.222,186.975,409.705z"/>
		<path fill="#BFBFC0" d="M185.304,410.104c0.134,0.291,0.534,0.417,0.896,0.282l0.252-0.095c0.363-0.135,0.548-0.479,0.414-0.77
			l-0.983-2.143c-0.135-0.291-0.536-0.419-0.898-0.282l-0.252,0.093c-0.363,0.135-0.547,0.48-0.413,0.77L185.304,410.104z"/>
		<path fill="#BFBFC0" d="M186.866,409.521l-0.983-2.143c-0.055-0.116-0.152-0.204-0.271-0.262l0.966,2.104
			c0.133,0.289-0.051,0.635-0.413,0.77l-0.252,0.093c-0.218,0.082-0.447,0.067-0.628-0.019l0.019,0.038
			c0.134,0.291,0.534,0.417,0.896,0.282l0.252-0.095C186.816,410.156,187,409.812,186.866,409.521z"/>
	</g>
	<g>
		<path fill="#BFBFC0" d="M190.378,408.465c0.037,0.5-0.46,0.829-0.98,0.862c-0.522,0.034-0.854-0.308-0.893-0.808
			c-0.036-0.5,0.286-0.951,0.806-0.986C189.833,407.501,190.342,407.965,190.378,408.465z"/>
		<path fill="#BFBFC0" d="M188.69,408.878c0.133,0.302,0.539,0.431,0.906,0.293l0.254-0.099c0.365-0.14,0.551-0.495,0.417-0.797
			l-0.995-2.221c-0.133-0.301-0.539-0.43-0.905-0.291l-0.255,0.097c-0.365,0.14-0.553,0.496-0.418,0.796L188.69,408.878z"/>
		<path fill="#BFBFC0" d="M190.267,408.275l-0.995-2.221c-0.053-0.12-0.151-0.211-0.271-0.27l0.976,2.178
			c0.136,0.302-0.052,0.658-0.416,0.797l-0.256,0.098c-0.22,0.084-0.452,0.069-0.633-0.02l0.019,0.04
			c0.133,0.302,0.539,0.431,0.906,0.293l0.254-0.099C190.215,408.933,190.401,408.577,190.267,408.275z"/>
	</g>
	<path fill="#BFBFC0" d="M168.862,416.577c0.11-0.06,0.22-0.121,0.328-0.182C169.081,416.456,168.972,416.518,168.862,416.577z"/>
	<path fill="#BFBFC0" d="M171.918,414.934c0.005-0.004,0.011-0.006,0.017-0.01C171.929,414.928,171.923,414.93,171.918,414.934z"/>
	<path fill="#BFBFC0" d="M170.36,415.757c0.047-0.025,0.093-0.053,0.14-0.076C170.452,415.704,170.406,415.729,170.36,415.757z"/>
	<polygon fill="#BFBFC0" points="217.217,431.322 217.212,431.326 217.212,431.326 	"/>
	<path fill="#BFBFC0" d="M170.499,415.681c0.473-0.253,0.947-0.504,1.419-0.747C171.447,415.177,170.973,415.428,170.499,415.681z"
		/>
	<path fill="#BFBFC0" d="M167.561,417.321c0.428-0.251,0.864-0.498,1.301-0.744C168.425,416.823,167.989,417.07,167.561,417.321z"/>
	<path fill="#BFBFC0" d="M169.19,416.396c0.391-0.217,0.779-0.429,1.17-0.639C169.969,415.967,169.58,416.179,169.19,416.396z"/>
	<path fill="#BFBFC0" d="M190.094,406.382c-0.02,0.011-0.041,0.021-0.06,0.031l0,0C190.053,406.402,190.074,406.393,190.094,406.382
		z"/>
	<path fill="#BFBFC0" d="M175.955,412.927c0.358-0.171,0.707-0.337,1.053-0.5C176.664,412.59,176.314,412.756,175.955,412.927z"/>
	<path fill="#BFBFC0" d="M186.701,408.024c-0.009,0.002-0.016,0.006-0.022,0.011l0,0
		C186.686,408.032,186.693,408.026,186.701,408.024z"/>
	<path fill="#BFBFC0" d="M171.935,414.924c0.476-0.245,0.948-0.485,1.418-0.722C172.883,414.438,172.41,414.679,171.935,414.924z"/>
	<path fill="#BFBFC0" d="M180.582,410.791c-0.301,0.133-0.609,0.271-0.93,0.417C179.973,411.064,180.281,410.924,180.582,410.791
		L180.582,410.791z"/>
</g>
<g>
	<g>
		<path fill="#BFBFC0" d="M307.911,432.811c11.836,0,29.591-0.377,36.743-1.674c0.438-0.08,0.843-0.171,1.215-0.272
			c-0.096,0.293-0.242,0.533-0.45,0.691c0,0-12.089,1.942-42.187,1.942s-40.637-1.817-40.637-1.817
			c-0.475-0.26-0.817-0.631-1.064-1.042c0.621,0.298,1.504,0.576,2.754,0.766C271.727,432.528,294.549,432.811,307.911,432.811z"/>
		<path fill="#BFBFC0" d="M260.917,427.819c0-1.741,0.726-1.53,1.426-1.53h82.512c0.59,0,1.521,3.023,1.015,4.575
			c-0.372,0.102-0.777,0.192-1.215,0.272c-7.152,1.297-24.907,1.674-36.743,1.674c-13.362,0-36.185-0.282-43.626-1.406
			c-1.25-0.189-2.133-0.468-2.754-0.766C260.789,429.407,260.917,427.819,260.917,427.819z"/>
	</g>
	<path fill="#BFBFC0" d="M259.273,419.879c0-0.021,0-0.045,0-0.065c0.004-0.257,0.014-0.515,0.022-0.774
		c0-0.019,0.002-0.039,0.002-0.057c0.023-0.562,0.055-1.132,0.096-1.708c0-0.004,0-0.008,0-0.013
		c0.021-0.273,0.043-0.548,0.066-0.824c0.003-0.033,0.007-0.065,0.01-0.099c0.022-0.269,0.058-0.54,0.084-0.811
		c0.002-0.008,0.012-0.017,0.012-0.024c0-0.001,0-0.003,0-0.007c0-0.493,0.1-0.987,0.16-1.48c0.001-0.006-0.002-0.01-0.002-0.013
		c0.062-0.499,0.127-0.997,0.198-1.494c0.469-3.219,1.132-6.362,1.815-8.951c0.425-1.603,0.856-2.992,1.254-4.049
		c0,0,0.006-0.004,0.017-0.008c0.007-0.005,0.018-0.009,0.032-0.018c0.006,0,0.007,0,0.01-0.004
		c0.017-0.007,0.037-0.017,0.062-0.025c0.003-0.002,0.006-0.004,0.012-0.006c0.023-0.011,0.054-0.023,0.084-0.036
		c0.005-0.002,0.008-0.003,0.012-0.005c0.035-0.013,0.072-0.029,0.115-0.046c0.002,0,0.004-0.002,0.006-0.002
		c0.042-0.018,0.09-0.034,0.141-0.053c0.001-0.002,0.002-0.002,0.002-0.002c0.103-0.036,0.217-0.076,0.345-0.116
		c0.004,0,0.005-0.002,0.007-0.002c0.063-0.02,0.13-0.04,0.197-0.058c0.002,0,0.004-0.002,0.006-0.002
		c0.067-0.021,0.14-0.038,0.216-0.057c0-0.002,0.002-0.002,0.003-0.002c0.073-0.018,0.149-0.034,0.228-0.053
		c0.002,0,0.006-0.002,0.007-0.002c0.079-0.016,0.161-0.032,0.241-0.047c0.002,0,0.005-0.002,0.007-0.002
		c0.086-0.015,0.168-0.029,0.255-0.04c0.002-0.002,0.004-0.002,0.007-0.002c0.087-0.013,0.175-0.023,0.265-0.032
		c0.002,0,0.004,0,0.007,0c0.087-0.01,0.176-0.017,0.267-0.022c0.004,0,0.008-0.007,0.014-0.007
		c0.089-0.006,0.179-0.019,0.271-0.019c0.005,0,0.01,0,0.014,0c0.092,0,0.184,0,0.277,0c0.006,0,0.012,0,0.017,0
		c0.093,0,0.185,0.025,0.276,0.035c0.007,0,0.015,0.005,0.022,0.005c0.091,0.011,0.183,0.027,0.272,0.042
		c0.01,0.002,0.019,0.004,0.028,0.006c0.089,0.015,0.179,0.034,0.269,0.056c0.012,0.002,0.023,0.004,0.033,0.006
		c0.087,0.021,0.175,0.047,0.262,0.072c0.014,0.006,0.027,0.01,0.041,0.013c0.085,0.027,0.17,0.059,0.254,0.094
		c0.017,0.005,0.031,0.011,0.046,0.016c0.082,0.035,0.166,0.073,0.248,0.111c0.015,0.007,0.033,0.015,0.05,0.023
		c0.08,0.04,0.156,0.086,0.236,0.131c0.019,0.011,0.036,0.021,0.056,0.031c0.076,0.047,0.151,0.098,0.227,0.152
		c0.018,0.013,0.04,0.025,0.058,0.04c0.074,0.053,0.145,0.111,0.214,0.171c0.022,0.019,0.044,0.035,0.066,0.053
		c0.066,0.061,0.135,0.128,0.201,0.193c0.021,0.021,0.044,0.042,0.065,0.063c0.063,0.065,0.124,0.139,0.184,0.209
		c0.024,0.029,0.05,0.055,0.076,0.084c0.058,0.074,0.116,0.152,0.173,0.234c0.024,0.033,0.049,0.062,0.07,0.095
		c0.059,0.086,0.114,0.175,0.168,0.266c0.021,0.034,0.043,0.067,0.063,0.102c0.058,0.103,0.113,0.21,0.168,0.318
		c0.017,0.031,0.032,0.061,0.047,0.091c0.069,0.145,0.137,0.295,0.2,0.453c2.028,5.061,6.083,5.537,10.141,4.413
		c0.117-0.032,0.234-0.071,0.351-0.114c0.036-0.015,0.075-0.031,0.112-0.044c0.079-0.034,0.16-0.067,0.241-0.104
		c0.041-0.021,0.082-0.04,0.126-0.061c0.078-0.04,0.154-0.08,0.233-0.121c0.04-0.022,0.08-0.044,0.118-0.065
		c0.093-0.053,0.185-0.107,0.274-0.166c0.025-0.017,0.05-0.031,0.075-0.047c0.115-0.075,0.23-0.155,0.345-0.238
		c0.032-0.022,0.061-0.046,0.093-0.067c0.085-0.064,0.17-0.13,0.256-0.196c0.041-0.033,0.079-0.065,0.119-0.097
		c0.077-0.063,0.154-0.128,0.23-0.195c0.041-0.034,0.081-0.068,0.121-0.105c0.082-0.068,0.163-0.146,0.245-0.222
		c0.031-0.029,0.063-0.058,0.097-0.087c0.113-0.107,0.226-0.217,0.34-0.329c0.008-0.01,0.017-0.019,0.026-0.027
		c0.103-0.104,0.206-0.211,0.309-0.318c0.035-0.036,0.066-0.073,0.102-0.107c0.079-0.086,0.159-0.173,0.237-0.259
		c0.036-0.04,0.071-0.08,0.106-0.12c0.081-0.087,0.159-0.178,0.238-0.269c0.031-0.035,0.062-0.071,0.094-0.107
		c0.103-0.118,0.203-0.236,0.304-0.356c0.007-0.008,0.015-0.017,0.019-0.023c0.112-0.135,0.223-0.27,0.331-0.406
		c0.021-0.021,0.039-0.047,0.059-0.07c0.089-0.111,0.177-0.223,0.264-0.333c0.027-0.037,0.055-0.069,0.082-0.104
		c0.082-0.106,0.165-0.212,0.245-0.318c0.025-0.031,0.048-0.062,0.072-0.093c0.098-0.126,0.191-0.253,0.288-0.381
		c0.005-0.005,0.009-0.013,0.014-0.018c0.71-0.946,1.374-1.885,1.976-2.711c0.019-0.023,0.034-0.045,0.05-0.067
		c0.056-0.076,0.11-0.148,0.164-0.222c0.031-0.042,0.062-0.084,0.093-0.125c0.046-0.064,0.096-0.13,0.141-0.193
		c0.038-0.047,0.074-0.095,0.109-0.142c0.042-0.055,0.084-0.111,0.125-0.164c0.002-0.002,0.003-0.004,0.004-0.005
		c0.002-0.004,0.006-0.008,0.008-0.012c0.109-0.142,0.215-0.274,0.319-0.403c0.02-0.025,0.042-0.055,0.064-0.078
		c0.107-0.133,0.212-0.261,0.312-0.375c0.003-0.004,0.005-0.006,0.008-0.009c0.095-0.107,0.186-0.204,0.275-0.297
		c0.022-0.023,0.044-0.045,0.067-0.067c0.091-0.091,0.18-0.175,0.263-0.243c0.263-0.219,0.614-0.4,1.031-0.542l0.126-0.183
		l1.133-0.098c0.235-0.031,0.481-0.053,0.738-0.065l1.283-0.111c0,0,1.639-0.655,3.354-0.813c1.187-0.108,2.41,0.017,3.162,0.757
		c1.841,1.815,9.621,7.26,10.848,7.715c1.227,0.453,4.912,3.176,4.912,3.176s0,0.233-0.031,0.597
		c0.14,0.071,0.281,0.142,0.421,0.211c0.02,0.011,0.041,0.021,0.061,0.031l0,0c1.17,0.582,2.294,1.124,3.333,1.611
		c0.007,0.002,0.015,0.008,0.021,0.011c1.786,0.839,3.309,1.518,4.332,1.971c0.518,0.229,1.116,0.494,1.766,0.785l0,0
		c0.3,0.133,0.609,0.273,0.93,0.417c0.819,0.371,1.706,0.78,2.645,1.219c0.346,0.163,0.695,0.329,1.053,0.5
		c0.843,0.404,1.714,0.829,2.602,1.275c0.471,0.236,0.943,0.477,1.418,0.722c0.007,0.004,0.012,0.006,0.017,0.01
		c0.473,0.243,0.946,0.494,1.42,0.747c0.046,0.023,0.093,0.051,0.139,0.076c0.392,0.21,0.78,0.422,1.171,0.639
		c0.108,0.061,0.217,0.122,0.328,0.182c0.436,0.246,0.872,0.493,1.302,0.744c0.8,0.47,1.588,0.948,2.347,1.432
		c1.3,0.83,2.592,2.298,3.553,3.935c1.072,1.832,1.723,3.873,1.497,5.479c-0.325,0.244-0.734,0.53-1.189,0.801
		c-1.099,0.656-2.873,1.126-4.733,1.219c-1.861,0.095-14.542,0.751-17.586,0.751c-3.043,0-21.951,0.206-21.951,0.206l-1.959,0.051
		l-1.799,0.047l-3.807,0.101l-0.362-0.002l-3.662-0.013c-0.001,0-0.003-0.002-0.005-0.004c0.002,0.002,0.004,0.004,0.005,0.004l0,0
		c0.304,0.268,0.615,0.525,0.915,0.797c-14.526-0.073-26.927-0.603-29.179-2.087c-0.766-0.502-1.35-1.32-1.781-2.372
		c-0.001,0-0.002,0-0.002-0.001c-0.004-0.006-0.005-0.014-0.008-0.021c-0.288-0.704-0.51-1.512-0.671-2.401
		c-0.002-0.009-0.004-0.016-0.006-0.025c-0.12-0.673-0.208-1.39-0.266-2.145c0-0.005,0-0.011-0.001-0.015
		c-0.019-0.243-0.034-0.493-0.047-0.745c0-0.012-0.001-0.021-0.002-0.031C259.266,421.509,259.257,420.705,259.273,419.879z"/>
	<path fill="#BFBFC0" d="M262.99,399.51c0,0,5.186-2.562,7.215,2.499c2.028,5.061,6.083,5.537,10.141,4.413
		s8.115-8.997,10.145-10.683c0.955-0.795,3.026-1.113,5.531-0.757c-2.293,3.791-3.871,8.08-6.37,11.962
		c-3.045,4.123-7.779,5.622-12.177,6.372c-5.747,1.124-10.143-3.373-13.864-8.622c-0.347-0.575-1.045-0.953-1.873-1.136
		C262.161,401.956,262.592,400.566,262.99,399.51z"/>
	<path fill="#BFBFC0" d="M271.727,406.944c-3.459-3.137-4.29-6.92-8.734-7.437c0.05-0.023,5.192-2.535,7.212,2.501
		c2.028,5.061,6.083,5.537,10.141,4.413c3.311-0.917,6.618-6.321,8.827-9.198C285.631,405.401,278.835,412.674,271.727,406.944z"/>
	<path fill="#BFBFC0" d="M263.61,404.132c3.722,5.248,8.117,9.746,13.864,8.622c4.397-0.749,9.132-2.25,12.177-6.372
		c2.385-3.703,3.935-7.78,6.062-11.439c0.103,0.013,0.204,0.023,0.308,0.04c-2.293,3.791-3.871,8.08-6.37,11.962
		c-3.045,4.123-7.779,5.622-12.177,6.372c-5.747,1.124-10.143-3.373-13.864-8.622c-0.347-0.575-1.045-0.953-1.873-1.136
		c0.047-0.178,0.094-0.353,0.143-0.527C262.643,403.226,263.284,403.59,263.61,404.132z"/>
	<path fill="#BFBFC0" d="M331.244,420.064c-2.366-0.376-1.69-3.751-3.382-5.248c-3.719-2.999-8.115-4.498-12.85-5.999
		c-6.765-1.873-12.175-5.997-18.261-9.371c-1.055-0.293-0.874-2.407-0.263-4.392c2.713,0.468,5.87,1.705,8.659,3.955
		c5.58,4.498,16.266,9.316,20.064,10.996c3.245,1.433,9.384,4.16,14.788,7.315C337.816,419.854,334.686,421.083,331.244,420.064z"/>
	<path fill="#BFBFC0" d="M331.244,420.064c-2.366-0.376-1.69-3.751-3.382-5.248c-3.719-2.999-8.115-4.498-12.85-5.999
		c-6.765-1.873-12.175-5.997-18.261-9.371c-1.055-0.293-0.874-2.407-0.263-4.392c2.713,0.468,5.87,1.705,8.659,3.955
		c5.58,4.498,16.266,9.316,20.064,10.996c3.245,1.433,9.384,4.16,14.788,7.315C337.816,419.854,334.686,421.083,331.244,420.064z"/>
	<path fill="#BFBFC0" d="M331.244,420.064c-2.366-0.376-1.69-3.751-3.382-5.248c-3.719-2.999-8.115-4.498-12.85-5.999
		c-6.765-1.873-12.175-5.997-18.261-9.371c-1.055-0.293-0.874-2.407-0.263-4.392c2.713,0.468,5.87,1.705,8.659,3.955
		c5.58,4.498,16.266,9.316,20.064,10.996c3.245,1.433,9.384,4.16,14.788,7.315C337.816,419.854,334.686,421.083,331.244,420.064z"/>
	<path fill="#BFBFC0" d="M296.49,395.055c0.029,0.008,0.059,0.013,0.088,0.019c-0.513,1.86-0.605,3.722,0.38,3.994
		c6.086,3.375,11.497,7.498,18.261,9.372c4.733,1.5,9.131,2.998,12.85,5.999c1.69,1.499,1.014,4.873,3.382,5.248
		c3.289,0.971,6.291-0.109,8.458-2.418c0.03,0.017,0.062,0.035,0.094,0.053c-2.186,2.532-5.315,3.762-8.757,2.743
		c-2.366-0.376-1.69-3.751-3.382-5.248c-3.719-2.999-8.115-4.498-12.85-5.999c-6.765-1.873-12.175-5.997-18.261-9.371
		C295.698,399.153,295.878,397.039,296.49,395.055z"/>
	<path fill="#BFBFC0" d="M270.035,417.816c1.354,0.749,2.707,0.749,3.72,1.499c6.141,4.003,12.181,8.005,17.509,12.808
		c-14.526-0.073-26.927-0.603-29.179-2.087c-3.274-2.153-3.255-10.037-2.166-17.526C263.447,414.034,266.656,416.21,270.035,417.816
		z"/>
	<path fill="#BFBFC0" d="M259.548,415.504c1.137-0.118,1.783,0.877,2.71,1.562c2.704,1.124,3.721,5.247,6.425,6.372
		c6.715,2.383,13.645,3.821,19.432,7.881c-8.842,0.073-17.666,0.519-26.194-2.632c-0.584-0.216-1.163-0.56-1.618-1.023
		C259.127,424.814,259.063,420.245,259.548,415.504z"/>
	<polygon fill="#BFBFC0" points="299.979,431.193 299.469,432.117 299.979,431.193 	"/>
	<polygon fill="#BFBFC0" points="299.979,431.193 299.469,432.117 299.979,431.193 	"/>
	<polygon fill="#BFBFC0" points="294.011,431.339 293.564,432.13 294.011,431.339 	"/>
	<polygon fill="#BFBFC0" points="294.011,431.339 293.564,432.13 294.011,431.339 	"/>
	<path fill="#BFBFC0" d="M290.529,405.502c2.019-3.482,3.48-7.192,5.492-10.52c0.155,0.021,0.312,0.047,0.469,0.072
		c-0.611,1.984-0.792,4.099,0.263,4.392c3.945,2.187,7.608,4.686,11.536,6.685l4.456,1.957c0.741,0.27,1.494,0.515,2.269,0.729
		c4.734,1.501,9.131,3,12.85,5.999c1.691,1.497,1.016,4.872,3.382,5.248c3.441,1.019,6.571-0.211,8.757-2.743
		c0.8,0.47,1.588,0.948,2.347,1.432c1.3,0.83,2.592,2.298,3.553,3.935c-0.041,0-0.08,0-0.116,0
		c-4.056,6.749-13.864,4.873-18.259,0.75c-5.05-4.354-10.564-7.669-16.739-9.532l-0.002,0.004l-0.19-0.061
		c-0.297-0.087-0.593-0.176-0.892-0.256l0.014-0.023l-6.242-1.983l0.015-0.03C298.769,410.228,293.49,409.441,290.529,405.502z"/>
	<path fill="#BFBFC0" d="M290.194,397.087c0.334,2.562,0.92,5.197,2.839,6.108c3.382,1.875,8.114-0.375,11.834,1.875
		c2.706,1.124,4.734,3.747,7.44,4.873c2.74,0.868,3.78-1.027,4.696-3.357c-0.222,1.777-1.106,5.169-4.634,3.979
		c-4.708-1.588-6.55-4.536-10.029-5.444c-3.478-0.907-7.163,0.453-9.619-0.682c-2.455-1.134-3.07-6.578-3.07-6.578L290.194,397.087z
		"/>
	<path fill="#BFBFC0" d="M291.647,395.015l3.154-0.274c0,0,1.639-0.655,3.354-0.813c-0.078,0.504-0.171,0.997-0.052,1.396
		c-1.352,0.377-2.367,1.124-2.704,2.625c-0.339,1.873,1.353,3.374,2.704,3.374c5.41,0,9.131,2.623,13.527,5.997
		c1.262,1.164,2.913,1.315,4.634,0.904c-0.808,1.47-1.906,2.37-3.958,1.721c-2.706-1.126-4.734-3.749-7.44-4.873
		c-3.72-2.25-8.452,0-11.834-1.875c-1.919-0.911-2.505-3.546-2.839-6.108L291.647,395.015z"/>
	<path fill="#BFBFC0" d="M311.631,407.318c-4.396-3.374-8.117-5.997-13.527-5.997c-1.352,0-3.043-1.501-2.704-3.374
		c0.337-1.501,1.353-2.248,2.704-2.625c-0.119-0.398-0.026-0.892,0.052-1.396c1.187-0.108,2.41,0.017,3.162,0.757
		c1.841,1.815,9.621,7.26,10.848,7.715c1.227,0.453,4.912,3.176,4.912,3.176s0,0.415-0.074,1.012
		c-0.229,0.584-0.468,1.143-0.738,1.637C314.544,408.634,312.893,408.482,311.631,407.318z"/>
	<path fill="#BFBFC0" d="M259.919,412.91c1.144,0.495,2.252,1.061,3.345,1.648c0.659,0.327,2.989,1.475,4.752,2.297
		c1.7,0.794,4.022,1.973,4.804,2.372c0.333,0.126,0.649,0.275,0.936,0.487c5.791,3.775,11.487,7.562,16.589,12.008l-2.233-0.006
		c-0.002-0.001-0.006-0.003-0.008-0.007c-5.785-4.053-12.709-5.491-19.42-7.871c-2.704-1.126-3.721-5.249-6.425-6.374
		c-0.927-0.686-1.573-1.679-2.71-1.561C259.65,414.909,259.774,413.907,259.919,412.91z"/>
	<path fill="#BFBFC0" d="M261.92,428.687c8.528,3.15,17.353,2.705,26.194,2.632c0.138,0.097,0.136,0.095-0.004-0.001l2.233,0.005
		c0.002,0.002,0.004,0.004,0.005,0.004l3.662,0.013l0.362,0.002l3.807-0.101l1.799-0.047l1.959-0.051c0,0,18.908-0.206,21.951-0.206
		c3.044,0,15.725-0.656,17.586-0.751c1.86-0.093,3.635-0.562,4.733-1.219c0.455-0.271,0.864-0.557,1.189-0.801
		c-0.215,1.536-1.236,2.673-3.473,2.833c-3.681,0.262-24.631,1.011-44.456,1.118c-0.542,0.004-1.083,0.006-1.624,0.008
		c-1.438,0.005-2.868,0.007-4.281,0.005c-0.771-0.002-1.539-0.005-2.3-0.007c-0.699-0.004-1.392-0.01-2.081-0.015
		c-0.133-0.104-0.133-0.104,0,0c-13.612-0.111-24.953-0.66-27.098-2.072c-0.766-0.502-1.35-1.32-1.783-2.373
		C260.757,428.127,261.336,428.471,261.92,428.687z"/>
	<g>
		<path fill="#BFBFC0" d="M298.484,423.189c-0.635,0.635-1.302,1.054-1.828,1.172c0.551-0.188,1.211-0.643,1.825-1.31
			C298.481,423.097,298.482,423.143,298.484,423.189z"/>
		<path fill="#BFBFC0" d="M296.573,418.342c0.014,0.019,0.027,0.036,0.041,0.053c-0.467,0.015-0.902,0.084-1.281,0.193
			C295.691,418.462,296.114,418.375,296.573,418.342z"/>
		<path fill="#BFBFC0" d="M298.676,416.849c-0.882-0.962-2.058-1.717-2.66-1.617c0.521-0.278,1.46,0.086,2.681,1.308
			C298.696,416.592,298.674,416.809,298.676,416.849z"/>
		<path fill="#BFBFC0" d="M300.933,423.2c0.065,0.071,0.131,0.132,0.198,0.197c-0.088,1.466-0.568,2.597-1.162,2.661
			C300.496,425.768,300.897,424.61,300.933,423.2z"/>
		<path fill="#BFBFC0" d="M303.784,424.429c0.48-0.533-0.023-1.958-1.129-3.184c-0.042-0.046-0.086-0.087-0.131-0.133
			c0.039,0.002,0.142-0.082,0.195-0.084c0.021,0.022,0.123,0.128,0.145,0.151c1.104,1.225,1.608,2.648,1.127,3.182
			c-0.093,0.104-0.224,0.154-0.37,0.18C303.68,424.51,303.739,424.478,303.784,424.429z"/>
	</g>
	<g>
		<path fill="#BFBFC0" d="M331.163,414.951c-0.04,0.522,0.492,0.864,1.051,0.9c0.56,0.035,0.914-0.322,0.955-0.842
			c0.039-0.524-0.304-0.993-0.862-1.028C331.746,413.945,331.202,414.43,331.163,414.951z"/>
		<path fill="#BFBFC0" d="M332.973,415.383c-0.145,0.312-0.578,0.449-0.972,0.304l-0.272-0.103
			c-0.391-0.146-0.592-0.517-0.446-0.829l1.065-2.315c0.145-0.313,0.579-0.449,0.97-0.304l0.273,0.1
			c0.393,0.146,0.592,0.519,0.447,0.831L332.973,415.383z"/>
		<path fill="#BFBFC0" d="M331.282,414.755l1.065-2.315c0.057-0.126,0.162-0.221,0.293-0.282l-1.047,2.272
			c-0.145,0.312,0.055,0.686,0.446,0.829l0.273,0.102c0.235,0.088,0.484,0.073,0.679-0.02l-0.02,0.042
			c-0.145,0.312-0.578,0.449-0.972,0.304l-0.272-0.103C331.338,415.438,331.137,415.067,331.282,414.755z"/>
	</g>
	<g>
		<path fill="#BFBFC0" d="M327.537,413.167c-0.04,0.534,0.492,0.886,1.051,0.922c0.559,0.038,0.915-0.329,0.955-0.864
			c0.039-0.534-0.306-1.015-0.863-1.051C328.12,412.136,327.576,412.632,327.537,413.167z"/>
		<path fill="#BFBFC0" d="M329.347,413.609c-0.144,0.321-0.577,0.46-0.972,0.311l-0.272-0.104c-0.39-0.149-0.592-0.529-0.447-0.852
			l1.066-2.372c0.145-0.32,0.579-0.46,0.971-0.312l0.272,0.105c0.394,0.149,0.593,0.531,0.448,0.852L329.347,413.609z"/>
		<path fill="#BFBFC0" d="M327.656,412.965l1.066-2.372c0.058-0.129,0.163-0.226,0.292-0.289l-1.047,2.328
			c-0.144,0.32,0.057,0.702,0.448,0.852l0.272,0.104c0.236,0.089,0.485,0.073,0.68-0.021l-0.021,0.044
			c-0.144,0.321-0.577,0.46-0.972,0.311l-0.272-0.104C327.713,413.667,327.511,413.287,327.656,412.965z"/>
	</g>
	<g>
		<path fill="#BFBFC0" d="M324.185,411.364c-0.037,0.48,0.47,0.795,1,0.827c0.535,0.031,0.874-0.296,0.911-0.774
			c0.037-0.48-0.289-0.911-0.823-0.942C324.741,410.442,324.222,410.884,324.185,411.364z"/>
		<path fill="#BFBFC0" d="M325.908,411.759c-0.138,0.289-0.551,0.413-0.925,0.28l-0.26-0.093c-0.373-0.133-0.562-0.475-0.424-0.764
			l1.014-2.125c0.137-0.287,0.552-0.413,0.924-0.278l0.259,0.091c0.375,0.135,0.564,0.477,0.428,0.765L325.908,411.759z"/>
		<path fill="#BFBFC0" d="M324.3,411.183l1.014-2.125c0.055-0.116,0.154-0.202,0.278-0.258l-0.997,2.084
			c-0.139,0.288,0.055,0.63,0.426,0.765l0.261,0.093c0.224,0.079,0.461,0.065,0.646-0.021l-0.02,0.038
			c-0.138,0.289-0.551,0.413-0.925,0.28l-0.26-0.093C324.351,411.813,324.162,411.472,324.3,411.183z"/>
	</g>
	<g>
		<path fill="#BFBFC0" d="M320.586,409.705c-0.038,0.484,0.452,0.801,0.969,0.833c0.518,0.033,0.847-0.296,0.883-0.78
			c0.035-0.483-0.281-0.918-0.796-0.951C321.123,408.774,320.621,409.222,320.586,409.705z"/>
		<path fill="#BFBFC0" d="M322.256,410.104c-0.133,0.291-0.533,0.417-0.896,0.282l-0.253-0.095c-0.362-0.135-0.547-0.479-0.413-0.77
			l0.983-2.143c0.135-0.291,0.536-0.419,0.897-0.282l0.252,0.093c0.363,0.135,0.547,0.48,0.415,0.77L322.256,410.104z"/>
		<path fill="#BFBFC0" d="M320.695,409.521l0.983-2.143c0.055-0.116,0.152-0.204,0.271-0.262l-0.966,2.104
			c-0.132,0.289,0.052,0.635,0.413,0.77l0.251,0.093c0.22,0.082,0.448,0.067,0.629-0.019l-0.02,0.038
			c-0.133,0.291-0.533,0.417-0.896,0.282l-0.253-0.095C320.745,410.156,320.561,409.812,320.695,409.521z"/>
	</g>
	<g>
		<path fill="#BFBFC0" d="M317.183,408.465c-0.038,0.5,0.459,0.829,0.98,0.862c0.521,0.034,0.854-0.308,0.892-0.808
			c0.036-0.5-0.283-0.951-0.806-0.986C317.727,407.501,317.219,407.965,317.183,408.465z"/>
		<path fill="#BFBFC0" d="M318.871,408.878c-0.134,0.302-0.539,0.431-0.906,0.293l-0.253-0.099c-0.367-0.14-0.553-0.495-0.418-0.797
			l0.995-2.221c0.133-0.301,0.539-0.43,0.905-0.291l0.255,0.097c0.365,0.14,0.553,0.496,0.417,0.796L318.871,408.878z"/>
		<path fill="#BFBFC0" d="M317.294,408.275l0.995-2.221c0.054-0.12,0.151-0.211,0.271-0.27l-0.977,2.178
			c-0.135,0.302,0.052,0.658,0.417,0.797l0.255,0.098c0.22,0.084,0.452,0.069,0.634-0.02l-0.019,0.04
			c-0.134,0.302-0.539,0.431-0.906,0.293l-0.253-0.099C317.345,408.933,317.159,408.577,317.294,408.275z"/>
	</g>
	<path fill="#BFBFC0" d="M338.699,416.577c-0.111-0.06-0.22-0.121-0.328-0.182C338.48,416.456,338.588,416.518,338.699,416.577z"/>
	<path fill="#BFBFC0" d="M335.642,414.934c-0.005-0.004-0.01-0.006-0.017-0.01C335.632,414.928,335.637,414.93,335.642,414.934z"/>
	<path fill="#BFBFC0" d="M337.2,415.757c-0.046-0.025-0.093-0.053-0.139-0.076C337.108,415.704,337.155,415.729,337.2,415.757z"/>
	<polygon fill="#BFBFC0" points="290.344,431.322 290.349,431.326 290.349,431.326 	"/>
	<path fill="#BFBFC0" d="M337.062,415.681c-0.474-0.253-0.947-0.504-1.42-0.747C336.115,415.177,336.588,415.428,337.062,415.681z"
		/>
	<path fill="#BFBFC0" d="M340.001,417.321c-0.43-0.251-0.866-0.498-1.302-0.744C339.135,416.823,339.572,417.07,340.001,417.321z"/>
	<path fill="#BFBFC0" d="M338.371,416.396c-0.391-0.217-0.779-0.429-1.171-0.639C337.592,415.967,337.981,416.179,338.371,416.396z"
		/>
	<path fill="#BFBFC0" d="M317.467,406.382c0.02,0.011,0.041,0.021,0.061,0.031l0,0C317.508,406.402,317.487,406.393,317.467,406.382
		z"/>
	<path fill="#BFBFC0" d="M331.606,412.927c-0.357-0.171-0.707-0.337-1.053-0.5C330.898,412.59,331.248,412.756,331.606,412.927z"/>
	<path fill="#BFBFC0" d="M320.861,408.024c0.007,0.002,0.015,0.006,0.021,0.011l0,0
		C320.875,408.032,320.867,408.026,320.861,408.024z"/>
	<path fill="#BFBFC0" d="M335.625,414.924c-0.475-0.245-0.947-0.485-1.418-0.722C334.678,414.438,335.151,414.679,335.625,414.924z"
		/>
	<path fill="#BFBFC0" d="M326.979,410.791c0.3,0.133,0.607,0.271,0.93,0.417C327.588,411.064,327.279,410.924,326.979,410.791
		L326.979,410.791z"/>
</g>
<path fill="#BFBFC0" d="M244.573,399.51l-0.004-0.002c-4.445,0.517-5.276,4.3-8.735,7.437c-7.106,5.729-13.903-1.543-17.445-9.721
	c-0.499-0.651-0.942-1.174-1.317-1.484c-0.954-0.795-3.025-1.113-5.531-0.757c2.293,3.791,3.871,8.08,6.371,11.962
	c3.045,4.123,7.778,5.622,12.176,6.372c5.747,1.124,10.144-3.373,13.865-8.622c0.346-0.575,1.045-0.953,1.873-1.136
	C245.4,401.956,244.969,400.566,244.573,399.51z"/>
<path fill="#FFFFFF" d="M321.226,259.576v4.444c0,11.047,37.318,11.047,37.318,0v-4.444
	C358.544,270.623,321.226,270.623,321.226,259.576z"/>
<path fill="#FFFFFF" d="M151.856,260.201v4.443c0,11.049,37.318,11.049,37.318,0v-4.443
	C189.174,271.249,151.856,271.249,151.856,260.201z"/>
</svg>
