<?xml version="1.0" encoding="utf-8"?>
<!-- Generator: Adobe Illustrator 16.0.1, SVG Export Plug-In . SVG Version: 6.00 Build 0)  -->
<!DOCTYPE svg PUBLIC "-//W3C//DTD SVG 1.1//EN" "http://www.w3.org/Graphics/SVG/1.1/DTD/svg11.dtd">
<svg version="1.1" id="content" xmlns="http://www.w3.org/2000/svg" xmlns:xlink="http://www.w3.org/1999/xlink" x="0px" y="0px"
	 width="500px" height="500px" viewBox="0 0 500 500" enable-background="new 0 0 500 500" xml:space="preserve">
<g id="bounds">
	<rect fill="none" width="500" height="500"/>
</g>
<g>
	<path fill="#9C9D9D" d="M217.712,447.652h-2.03c-11.597,0-21.085-10.225-21.085-22.72v20.74c0,12.495,9.488,22.721,21.085,22.721
		h2.03c11.597,0,21.085-10.226,21.085-22.721v-20.74C238.797,437.428,229.309,447.652,217.712,447.652z"/>
</g>
<g>
	<path fill="#9C9D9D" d="M283.587,447.652h-2.096c-11.978,0-21.776-10.225-21.776-22.72v20.74c0,12.495,9.799,22.721,21.776,22.721
		h2.096c11.978,0,21.776-10.226,21.776-22.721v-20.74C305.363,437.428,295.564,447.652,283.587,447.652z"/>
</g>
<g>
	<g>
		<g>
			<path fill="#BFBFC0" d="M169.015,330.015c0,10.358-8.475,18.833-18.833,18.833h-0.51c-10.358,0-18.833-8.475-18.833-18.833
				V226.239c0-10.358,8.475-18.833,18.833-18.833h0.51c10.358,0,18.833,8.475,18.833,18.833V330.015z"/>
		</g>
	</g>
	<g>
		<g>
			<path fill="#BFBFC0" d="M368.94,330.015c0,10.358-8.475,18.833-18.833,18.833h-0.51c-10.358,0-18.833-8.475-18.833-18.833
				V226.239c0-10.358,8.475-18.833,18.833-18.833h0.51c10.358,0,18.833,8.475,18.833,18.833V330.015z"/>
		</g>
	</g>
	<g>
		<circle fill="#BFBFC0" cx="249.89" cy="128.532" r="74.104"/>
	</g>
	<g>
		<circle fill="#FFFFFF" cx="221.871" cy="120.87" r="13.072"/>
		<circle fill="#FFFFFF" cx="276.849" cy="120.87" r="13.072"/>
		<path fill="#FFFFFF" d="M262.962,157.882c0,7.219-5.852,13.071-13.072,13.071c-7.219,0-13.072-5.853-13.072-13.071H262.962z"/>
	</g>
	<g>
		<path fill="#9C9D9D" d="M312.72,361.654c-0.87,10.207-9.962,18.558-20.206,18.558h-85.51c-10.244,0-19.324-8.353-20.178-18.561
			l-11.352-135.685c-0.854-10.208,6.829-18.56,17.072-18.56h114.687c10.244,0,17.914,8.351,17.044,18.558L312.72,361.654z"/>
	</g>
</g>
<g>
	<path fill="#BFBFC0" d="M191.482,205.193c-12.482,0-16.863,10.721-16.863,23.838l17.82,219.236c0,1.257,0.967,2.279,2.158,2.279
		c3.646,0,55.293,2.864,55.293,2.864s48.468-2.864,52.106-2.864c1.2,0,2.166-1.022,2.166-2.279l20.998-219.236
		c0-13.117-4.386-23.838-16.855-23.838H191.482z"/>
	<g>
		<g>
			<circle fill="#9C9D9D" cx="248.312" cy="213.766" r="0.8"/>
			<path fill="#9C9D9D" d="M252.26,213.766c0,0.439-0.362,0.798-0.801,0.798c-0.438,0-0.8-0.358-0.8-0.798c0-0.44,0.362-0.8,0.8-0.8
				C251.897,212.966,252.26,213.326,252.26,213.766z"/>
		</g>
	</g>
</g>
<path fill="#9C9D9D" d="M171.9,331.317c0,13.009-43.944,13.009-43.944,0V228.223c0-13.009,8.497-23.652,18.88-23.652h6.183
	c10.384,0,18.881,10.643,18.881,23.652V331.317z"/>
<path fill="#9C9D9D" d="M371.336,331.317c0,13.009-43.943,13.009-43.943,0V228.223c0-13.009,8.496-23.652,18.879-23.652h6.183
	c10.385,0,18.882,10.643,18.882,23.652V331.317z"/>
<rect x="187.652" y="91.474" fill-rule="evenodd" clip-rule="evenodd" fill="#9C9D9D" width="129.881" height="13.182"/>
<rect x="187.652" y="91.474" fill-rule="evenodd" clip-rule="evenodd" fill="#9C9D9D" width="129.881" height="13.182"/>
<path fill-rule="evenodd" clip-rule="evenodd" fill="#9C9D9D" d="M298.089,64.167C283.61,55.723,267.827,51.5,251.943,51.5
	c-13.449,0-26.899,3.092-39.787,9.275c-41.655,20.057-50.407,61.375-36.52,93.949c13.887,32.573,31.662,37.7,27.835,49.461
	c-3.083,9.803-11.957,11.914-9.343,24.58c3.363,16.137,30.638,23.225,57.814,22.923c28.024-0.302,55.951-8.52,57.819-22.923
	c1.683-12.742-6.164-14.777-9.343-24.58c-3.733-11.761,7.001-12.029,27.835-49.461C346.251,110.668,335.354,85.809,298.089,64.167z
	 M251.943,196.646c-25.961,0-51.833-32.573-58-97.646c-0.095-1.206,0.932-2.185,2.242-2.185h55.758h55.764
	c1.305,0,2.333,0.979,2.242,2.185C303.877,164.073,277.912,196.646,251.943,196.646z"/>
</svg>
