<?xml version="1.0" encoding="utf-8"?>
<!-- Generator: Adobe Illustrator 16.0.1, SVG Export Plug-In . SVG Version: 6.00 Build 0)  -->
<!DOCTYPE svg PUBLIC "-//W3C//DTD SVG 1.1//EN" "http://www.w3.org/Graphics/SVG/1.1/DTD/svg11.dtd">
<svg version="1.1" id="content" xmlns="http://www.w3.org/2000/svg" xmlns:xlink="http://www.w3.org/1999/xlink" x="0px" y="0px"
	 width="500px" height="500px" viewBox="0 0 500 500" enable-background="new 0 0 500 500" xml:space="preserve">
<g id="bounds">
	<rect x="0" y="0" fill="none" width="500" height="500"/>
</g>
<g>
	<g>
		<g>
			<path fill="#9C9D9D" d="M173.605,337.514c0,9.62-7.872,17.492-17.492,17.492h-0.473c-9.622,0-17.492-7.872-17.492-17.492v-96.389
				c0-9.622,7.871-17.492,17.492-17.492h0.473c9.621,0,17.492,7.871,17.492,17.492V337.514z"/>
		</g>
	</g>
	<g>
		<g>
			<path fill="#9C9D9D" d="M359.297,337.514c0,9.62-7.872,17.492-17.492,17.492h-0.474c-9.621,0-17.492-7.872-17.492-17.492v-96.389
				c0-9.622,7.871-17.492,17.492-17.492h0.474c9.62,0,17.492,7.871,17.492,17.492V337.514z"/>
		</g>
	</g>
	<g>
		<circle fill="#BFBFC0" cx="248.722" cy="150.375" r="68.828"/>
	</g>
	<g>
		<circle fill="#FFFFFF" cx="222.698" cy="143.257" r="12.142"/>
		<circle fill="#FFFFFF" cx="273.761" cy="143.257" r="12.142"/>
		<path fill="#FFFFFF" d="M260.864,177.634c0,6.705-5.435,12.142-12.142,12.142c-6.705,0-12.141-5.437-12.141-12.142H260.864z"/>
	</g>
</g>
<g>
	<path fill="#9C9D9D" d="M218.836,355.007h-1.889c-10.799,0-19.634,8.834-19.634,19.632v70.113h41.156v-25.684v-3.826v-40.604
		C238.469,363.841,229.634,355.007,218.836,355.007z"/>
	<path fill="#9C9D9D" d="M280.246,355.006h-2.443c-10.935,0-19.883,8.946-19.883,19.883v40.356h-0.154v3.824h0.154v25.434h42.209
		v-25.434v-3.824v-40.356C300.13,363.952,291.183,355.006,280.246,355.006z"/>
</g>
<g>
	<g>
		<g>
			<path fill="#BFBFC0" d="M173.831,337.514c0,9.62-7.872,17.492-17.492,17.492h-0.472c-9.622,0-17.493-7.872-17.493-17.492v-96.389
				c0-9.622,7.872-17.492,17.493-17.492h0.472c9.621,0,17.492,7.871,17.492,17.492V337.514z"/>
		</g>
	</g>
	<g>
		<g>
			<path fill="#BFBFC0" d="M359.523,337.514c0,9.62-7.872,17.492-17.492,17.492h-0.474c-9.621,0-17.493-7.872-17.493-17.492v-96.389
				c0-9.622,7.872-17.492,17.493-17.492h0.474c9.62,0,17.492,7.871,17.492,17.492V337.514z"/>
		</g>
	</g>
</g>
<path fill="#9C9D9D" d="M176.511,330.633c0,12.084-40.814,12.084-40.814,0v-87.666c0-12.082,7.891-21.969,17.535-21.969h5.743
	c9.644,0,17.536,9.887,17.536,21.969V330.633z"/>
<path fill="#9C9D9D" d="M361.748,330.633c0,12.084-40.816,12.084-40.816,0v-87.666c0-12.082,7.893-21.969,17.536-21.969h5.743
	c9.643,0,17.537,9.887,17.537,21.969V330.633L361.748,330.633z"/>
<path fill="#9C9D9D" d="M278.57,223.633c0.248,0.419,0.378,0.847,0.378,1.285c0,4.501-13.58,8.15-30.333,8.15
	c-16.753,0-30.333-3.648-30.333-8.15c0-0.437,0.131-0.866,0.378-1.285h-40.938l12.62,143.266
	c0.811,9.479,9.259,17.236,18.773,17.236h79.421c9.515,0,17.945-7.759,18.735-17.239l12.236-143.263H278.57z"/>
<path fill="#BFBFC0" d="M234.277,233.843c3.003-0.205,6.122-0.151,10.059-0.118c-0.037-0.005-0.073-0.008-0.109-0.013
	c8.723-1.051,1-0.473-0.313-0.701c-4.73-0.408-12.847-0.097-16.798,0.714c-0.853,7.652-1.219,142.044-1.237,150.41h1.033
	c0.192-7.963,0.677-141.63,1.3-149.454C230.321,234.231,232.274,233.98,234.277,233.843z"/>
<g>
	<path fill="#9C9D9D" d="M236.55,240.123c2.052,0,3.717,1.665,3.717,3.72c0,2.051-1.665,3.717-3.717,3.717
		c-2.054,0-3.716-1.667-3.716-3.717C232.833,241.788,234.497,240.123,236.55,240.123z"/>
</g>
<g>
	<path fill="#9C9D9D" d="M259.869,240.123c2.051,0,3.714,1.665,3.714,3.72c0,2.051-1.664,3.717-3.714,3.717
		c-2.055,0-3.719-1.667-3.719-3.717C256.151,241.788,257.816,240.123,259.869,240.123z"/>
</g>
<g>
	<path fill="#BFBFC0" d="M236.55,267.764c2.052,0,3.717,1.665,3.717,3.721c0,2.052-1.665,3.716-3.717,3.716
		c-2.054,0-3.716-1.665-3.716-3.716C232.833,269.428,234.497,267.764,236.55,267.764z"/>
</g>
<g>
	<path fill="#BFBFC0" d="M259.869,267.764c2.051,0,3.714,1.665,3.714,3.721c0,2.052-1.664,3.716-3.714,3.716
		c-2.055,0-3.719-1.665-3.719-3.716C256.151,269.428,257.816,267.764,259.869,267.764z"/>
</g>
<g>
	<circle fill="#BFBFC0" cx="236.55" cy="299.124" r="3.719"/>
</g>
<g>
	<circle fill="#BFBFC0" cx="259.869" cy="299.124" r="3.719"/>
</g>
<g>
	<circle fill="#BFBFC0" cx="236.55" cy="326.768" r="3.718"/>
</g>
<g>
	<circle fill="#BFBFC0" cx="259.869" cy="326.768" r="3.718"/>
</g>
<g>
	<circle fill="#BFBFC0" cx="236.55" cy="354.408" r="3.719"/>
</g>
<g>
	<circle fill="#BFBFC0" cx="259.869" cy="354.408" r="3.719"/>
</g>
<path fill="#9C9D9D" d="M280.13,176.927c-0.654-4.052-5.421-7.096-5.212-6.705c5.717,9.58-2.822,11.771-7.674,4.462
	c-9.915-14.04-15.922-7.31-18.381-7.31c-2.461,0-8.467-6.73-18.382,7.31c-4.85,7.31-13.39,5.118-7.672-4.462
	c0.206-0.392-4.56,2.653-5.213,6.705c-0.652,4.054,2.607,16.284,31.267,0.291C277.523,193.211,280.779,180.981,280.13,176.927z"/>
<path fill="#BFBFC0" d="M238.052,235.025c0,0-25.002,0.545-26.989-11.393h8.337c0,0,10.86,9.32,22.125,9.055
	C252.786,232.422,238.052,235.025,238.052,235.025z"/>
<path fill="#BFBFC0" d="M254.431,235.025c0,0,25.002,0.545,26.989-11.393h-8.337c0,0-10.861,9.32-22.125,9.055
	C239.696,232.422,254.431,235.025,254.431,235.025z"/>
<path fill="#9C9D9D" d="M250.475,236.495c-0.908-0.054-1.819-0.129-2.742-0.255c-0.444-0.062-0.891-0.102-1.337-0.145
	c-1.814,0.243-3.646,0.416-5.324,0.089c-0.21-0.042-0.417-0.123-0.618-0.222c-4.454,2.552-14.872,8.914-17.264,13.871
	c-3.065,6.351-7.479,23.066-5.818,23.173c1.663,0.104,18.693-13.513,21.956-19.088c3.261-5.576,7.124-10.868,8.289-17.394
	c-0.016-0.053-0.076-0.095-0.105-0.144h0.004c0.611,0.063,1.255,0.11,1.957,0.128l0,0.016h0.751l-0.002-0.016
	C250.308,236.505,250.388,236.499,250.475,236.495z"/>
<path fill="#9C9D9D" d="M270.301,249.833c-2.369-4.912-12.598-11.189-17.112-13.781c-2.436,0.36-4.855,0.549-7.305,0.509
	c1.172,6.507,5.025,11.791,8.28,17.357c3.265,5.575,20.292,19.192,21.955,19.088C277.78,272.899,273.368,256.183,270.301,249.833z"
	/>
<path fill="#BFBFC0" d="M251.219,236.495c-1.088-0.054-2.182-0.129-3.288-0.255c-0.533-0.062-1.069-0.102-1.606-0.145
	c-2.178,0.243-4.375,0.416-6.389,0.089c-0.252-0.042-0.5-0.123-0.742-0.222c-5.345,2.552-17.846,8.914-20.715,13.871
	c-3.679,6.351-8.974,23.066-6.983,23.173c1.997,0.104,22.432-13.513,26.345-19.088c3.915-5.576,8.549-10.868,9.947-17.394
	c-0.019-0.053-0.092-0.095-0.127-0.144h0.002c0.734,0.063,1.508,0.11,2.35,0.128l-0.001,0.016h0.901l-0.003-0.016
	C251.02,236.505,251.116,236.499,251.219,236.495z"/>
<path fill="#BFBFC0" d="M275.012,249.833c-2.843-4.912-15.117-11.189-20.533-13.781c-2.924,0.36-5.828,0.549-8.767,0.509
	c1.405,6.507,6.028,11.791,9.934,17.357c3.918,5.575,24.352,19.192,26.346,19.088C283.987,272.899,278.691,256.183,275.012,249.833z
	"/>
<ellipse fill="#BFBFC0" cx="246.652" cy="235.108" rx="8.734" ry="6.626"/>
<g>
	<circle fill="#BFBFC0" cx="386.698" cy="285.256" r="41.66"/>
	<circle fill="#BFBFC0" cx="386.698" cy="285.256" r="39.524"/>
	<circle fill="#9C9D9D" cx="386.698" cy="285.256" r="32.235"/>
	<path fill="#BFBFC0" d="M355.308,312.64l-1.431,4.408l5.178,4.465l4.042-1.931c-1.234-0.85-2.437-1.771-3.598-2.771
		C357.982,315.504,356.59,314.105,355.308,312.64z"/>
	<g>
		<path fill="#BFBFC0" d="M339.231,332.473c-11.613,13.472-20.442,21.45-20.442,21.45c-2.135,2.474-1.858,6.21,0.616,8.341
			l0.047,0.04l2.053-2.381c-1.205-1.041-0.92-3.352,0.642-5.162c1.559-1.809,3.803-2.433,5.007-1.393l29.354-34.054l-4.524-3.9
			C351.982,315.414,346.239,324.342,339.231,332.473z"/>
		<path fill="#BFBFC0" d="M327.153,353.368c1.207,1.039,0.922,3.351-0.64,5.161c-1.559,1.808-3.802,2.431-5.009,1.393l-2.053,2.382
			l0.046,0.038c2.475,2.133,6.206,1.856,8.341-0.618c0,0,9.554-12.64,18.344-22.835c8.369-9.71,14.849-15.675,14.849-15.675
			l-4.525-3.899L327.153,353.368z"/>
	</g>
</g>
<g>
	<path fill="#BFBFC0" d="M122.036,329.677c-1.27-0.16-2.42,0.686-2.574,1.894l-1.192,9.464c-0.151,1.204,0.754,2.313,2.023,2.474
		c1.269,0.157,5.007-0.361,5.159-1.568l1.191-9.466C126.797,331.268,123.304,329.836,122.036,329.677z"/>
	
		<rect x="125.99" y="333.09" transform="matrix(0.9922 0.1248 -0.1248 0.9922 43.19 -13.7521)" fill="#BFBFC0" width="10.753" height="9.57"/>
	<path fill="#BFBFC0" d="M76.022,316.151c-4.664,2.002-7.48,6.613-8.373,13.699c-0.893,7.087,0.693,12.249,4.712,15.348
		c10.133,7.807,32.978,0.478,45.979-4.725l0.224-1.775l-0.405,0.164c-10.159,4.095-34.865,12.784-44.843,5.095
		c-3.549-2.732-4.934-7.415-4.115-13.911c0.818-6.496,3.319-10.687,7.437-12.457c11.573-4.973,33.352,9.573,42.179,16.056
		l0.352,0.259l0.224-1.775C108.087,323.866,87.773,311.1,76.022,316.151z"/>
	<path fill="#BFBFC0" d="M72.345,322.597c-2.693,1.457-4.272,3.896-4.696,7.252c-0.423,3.355,0.502,6.111,2.75,8.189
		c8.457,7.814,33.652,4.073,48.109,1.096l0.208-1.639l-0.264,0.058c-11.368,2.352-38.702,6.997-46.992-0.664
		c-1.882-1.738-2.62-3.978-2.259-6.844c0.361-2.867,1.632-4.852,3.887-6.07c9.934-5.367,35.26,5.913,45.688,11.013l0.239,0.117
		l0.208-1.639C105.957,326.998,82.475,317.126,72.345,322.597z"/>
	
		<rect x="67.69" y="332.294" transform="matrix(0.9922 0.125 -0.125 0.9922 42.3639 -9.0601)" fill="#BFBFC0" width="51.386" height="1.564"/>
	<g>
		<polygon fill="#9C9D9D" points="163.818,341.962 163.818,341.962 136.716,338.548 136.716,338.548 		"/>
		<path fill="#BFBFC0" d="M173.246,338.329l-35.932-4.527l-0.598,4.747l27.102,3.414c0.152-1.214,1.262-2.075,2.476-1.921
			l5.936,0.75c1.215,0.151,2.075,1.26,1.923,2.474l3.196,0.402l0.006-0.047C177.681,341.024,175.842,338.654,173.246,338.329z"/>
		<polygon fill="#9C9D9D" points="174.153,343.264 174.153,343.264 177.349,343.667 177.349,343.667 		"/>
		<path fill="#BFBFC0" d="M171.676,345.187l-5.937-0.749c-1.215-0.153-2.075-1.262-1.921-2.477l-27.102-3.414l-0.597,4.748
			l35.931,4.527c2.598,0.327,4.968-1.514,5.293-4.109l0.006-0.048l-3.196-0.402C173.998,344.479,172.89,345.339,171.676,345.187z"/>
	</g>
</g>
<ellipse fill="#BFBFC0" cx="246.718" cy="233.397" rx="4.334" ry="2.888"/>
<path fill="#BFBFC0" d="M207.885,431.939l-37.122,35.101l-28.179-0.21c-1.155-0.011-2.078-0.925-2.095-2.061
	c-0.046-11.152-1.022-11.526,11.856-14.208c24.55-5.127,28.375-9.454,45.612-24.663c0.936-0.86,2.442-0.793,3.34,0.147
	C203.489,428.332,205.685,430.295,207.885,431.939L207.885,431.939z"/>
<path fill="#BFBFC0" d="M170.761,467.039l37.122-35.101c8.619,6.346,17.427,7.296,28.31-0.699c1.236-0.901,3.067-0.402,3.685,1.071
	c5.308,12.887,5.165,18.557,1.494,33.251c-0.182,0.735-0.839,1.235-1.615,1.236c-8.239,0.028-16.453,0.058-24.691,0.089
	c-0.879-0.004-13.264,0.398-21.425,0.355L170.761,467.039z"/>
<path fill="#BFBFC0" d="M291.391,431.939l37.123,35.101l28.178-0.21c1.154-0.011,2.079-0.925,2.096-2.061
	c0.047-11.152,1.022-11.526-11.855-14.208c-24.552-5.127-28.374-9.454-45.613-24.663c-0.936-0.86-2.441-0.793-3.339,0.147
	C295.786,428.332,293.591,430.295,291.391,431.939L291.391,431.939z"/>
<path fill="#BFBFC0" d="M328.514,467.039l-37.123-35.101c-8.618,6.346-17.428,7.296-28.31-0.699
	c-1.236-0.901-3.068-0.402-3.684,1.071c-5.31,12.887-5.167,18.557-1.495,33.251c0.183,0.735,0.837,1.235,1.615,1.236
	c8.24,0.028,16.454,0.058,24.692,0.089c0.878-0.004,13.263,0.398,21.425,0.355L328.514,467.039z"/>
<path fill-rule="evenodd" clip-rule="evenodd" fill="#9C9D9D" d="M298.379,43.847C292.083,24.003,272.071,9.5,248.35,9.5
	c-22.683,0-41.972,13.265-49.122,31.779l-0.543-0.004c-28.77,0-52.089,21.34-52.089,47.665c0,21.444,14.144,39.125,35.438,45.11
	c6.029-27.439,33.849-37.291,65.612-37.291c35.523,0,68.821,2.47,69.46,39.246c23.144-6.501,36.029-17.087,36.029-40.395
	C353.135,67.571,328.785,44.739,298.379,43.847z"/>
<path fill-rule="evenodd" clip-rule="evenodd" fill="#9C9D9D" d="M251.881,99.599c28.505,0,52.271,8.271,63.647,21.677
	c0.874,0.128,2.562-4.118,3.444-3.979c3.312,0.521,2.813,0.242,6.177,0.831l-15.066-42.176c-2.455-0.683,0-1.332-2.456-1.947
	c-0.419-0.104-0.834-0.193-1.254-0.295c-2.036-0.499-4.074-0.988-6.11-1.437c-0.613-0.135-1.221-0.247-1.836-0.377
	c-1.839-0.393-3.681-0.783-5.521-1.133c-0.76-0.144-1.52-0.259-2.276-0.396c-1.694-0.305-3.389-0.615-5.084-0.88
	c-0.857-0.136-1.72-0.24-2.58-0.365c-1.591-0.232-3.182-0.473-4.772-0.669c-0.957-0.119-1.916-0.202-2.874-0.308
	c-1.495-0.165-2.986-0.342-4.479-0.474c-1.031-0.091-2.057-0.145-3.084-0.219c-1.421-0.104-2.844-0.224-4.267-0.296
	c-1.094-0.059-2.189-0.075-3.281-0.114c-1.356-0.047-2.712-0.111-4.067-0.13c-0.074,0-0.15-0.006-0.226-0.007v0.008
	c-19.395-0.249-38.786,2.469-58.176,9.039l-12.886,34.292c1.189-0.296,3.628,1.947,4.831,1.667
	C200.589,97.537,222.54,99.599,251.881,99.599z"/>
<polygon fill-rule="evenodd" clip-rule="evenodd" fill="#9C9D9D" points="276.482,50.33 316.397,136.005 339.995,121.278 
	310.218,61.415 "/>
<g>
	<g>
		<path fill-rule="evenodd" clip-rule="evenodd" fill="#9C9D9D" d="M179.356,55.421c19.143-10.173,41.36-4.623,49.62,12.399
			c8.258,17.02-0.564,39.066-19.708,49.24c-19.147,10.172-41.363,4.622-49.62-12.398C151.386,87.642,160.213,65.597,179.356,55.421z
			"/>
	</g>
</g>
<path fill-rule="evenodd" clip-rule="evenodd" fill="#9C9D9D" d="M213.78,112.288c-21.896,11.637-46.698,6.533-55.396-11.393
	c-0.272-0.56-0.524-1.125-0.758-1.696c0.498,1.863,1.162,3.691,2.022,5.463c8.256,17.02,30.472,22.571,49.62,12.398
	c5.04-2.679,9.356-6.186,12.843-10.202C219.554,108.866,216.776,110.697,213.78,112.288z"/>
</svg>
