<?xml version="1.0" encoding="utf-8"?>
<!-- Generator: Adobe Illustrator 16.0.1, SVG Export Plug-In . SVG Version: 6.00 Build 0)  -->
<!DOCTYPE svg PUBLIC "-//W3C//DTD SVG 1.1//EN" "http://www.w3.org/Graphics/SVG/1.1/DTD/svg11.dtd">
<svg version="1.1" id="content" xmlns="http://www.w3.org/2000/svg" xmlns:xlink="http://www.w3.org/1999/xlink" x="0px" y="0px"
	 width="500px" height="500px" viewBox="0 0 500 500" enable-background="new 0 0 500 500" xml:space="preserve">
<g id="bounds" display="none">
	<rect x="0" display="inline" fill="none" stroke="#000000" stroke-miterlimit="10" width="500" height="500"/>
</g>
<g>
	<g>
		<g>
			<path fill="#BFBFC0" d="M180.194,304.592c0,9.828-8.041,17.868-17.867,17.868h-0.484c-9.827,0-17.868-8.04-17.868-17.868v-98.456
				c0-9.827,8.041-17.868,17.868-17.868h0.484c9.826,0,17.867,8.041,17.867,17.868V304.592z"/>
		</g>
	</g>
	<g>
		<g>
			<path fill="#BFBFC0" d="M369.871,304.592c0,9.828-8.041,17.868-17.868,17.868h-0.482c-9.827,0-17.868-8.04-17.868-17.868v-98.456
				c0-9.827,8.041-17.868,17.868-17.868h0.482c9.827,0,17.868,8.041,17.868,17.868V304.592z"/>
		</g>
	</g>
	<g>
		<circle fill="#BFBFC0" cx="256.923" cy="113.437" r="70.305"/>
	</g>
	<path fill="#9C9D9D" d="M254.547,33.738c-56.336,0-98.672,49.305-67.073,92.419l0,0c0,0-1.482-44.287,28.034-63.939
		c0,0,1.48,23.604,82.566,16.708c0,0-11.31-10.259-10.716-20.537c0,0,39.918,48.115,38.896,67.767l0,0
		C354.737,84.044,321.893,33.738,254.547,33.738z"/>
	<g>
		<circle fill="#FFFFFF" cx="230.341" cy="106.167" r="12.402"/>
		<circle fill="#FFFFFF" cx="282.5" cy="106.167" r="12.402"/>
		<path fill="#FFFFFF" d="M269.326,141.282c0,6.849-5.554,12.401-12.402,12.401s-12.403-5.552-12.403-12.401H269.326z"/>
	</g>
	<g>
		<path fill="#9C9D9D" d="M316.533,334.609c-0.825,9.684-9.452,17.605-19.172,17.605h-81.127c-9.719,0-18.333-7.924-19.144-17.608
			l-10.771-128.729c-0.81-9.685,6.479-17.609,16.197-17.609h108.808c9.719,0,16.995,7.923,16.171,17.607L316.533,334.609z"/>
	</g>
</g>
<g>
	<path fill="#9C9D9D" d="M226.395,322.461h-1.929c-11.03,0-20.056,9.024-20.056,20.054v71.619h42.041V387.9v-3.909v-41.479
		C246.451,331.485,237.426,322.461,226.395,322.461z"/>
	<path fill="#9C9D9D" d="M289.123,322.46h-2.494c-11.171,0-20.312,9.14-20.312,20.312v41.222h-0.155v3.908h0.155v25.979h43.115
		V387.9v-3.908V342.77C309.434,331.6,300.295,322.46,289.123,322.46z"/>
</g>
<g>
	<path fill="#9C9D9D" d="M226.395,322.461h-1.929c-11.03,0-20.056,9.024-20.056,20.054v71.619h42.041V387.9v-3.909v-41.479
		C246.451,331.485,237.426,322.461,226.395,322.461z"/>
	<path fill="#9C9D9D" d="M289.123,322.46h-2.494c-11.171,0-20.312,9.14-20.312,20.312v41.222h-0.155v3.908h0.155v25.979h43.115
		V387.9v-3.908V342.77C309.434,331.6,300.295,322.46,289.123,322.46z"/>
</g>
<g>
	<path fill="#9C9D9D" d="M316.533,334.609c-0.825,9.684-9.452,17.605-19.172,17.605h-81.127c-9.719,0-18.333-7.924-19.144-17.608
		l-10.771-128.729c-0.81-9.685,6.479-17.609,16.197-17.609h108.808c9.719,0,16.995,7.923,16.171,17.607L316.533,334.609z"/>
</g>
<g>
	<polygon fill="#9C9D9D" points="263.326,256.225 246.985,256.225 206.406,188.268 307.287,188.268 	"/>
</g>
<path fill="#9C9D9D" d="M182.93,284.496c0,12.342-41.69,12.342-41.69,0v-76.479c0-12.342,8.062-22.44,17.913-22.44h5.865
	c9.854,0,17.913,10.098,17.913,22.44L182.93,284.496L182.93,284.496z"/>
<path fill="#9C9D9D" d="M372.608,284.496c0,12.342-41.689,12.342-41.689,0v-76.479c0-12.342,8.061-22.44,17.912-22.44h5.863
	c9.854,0,17.914,10.098,17.914,22.44V284.496z"/>
<path fill="#9C9D9D" d="M32.116,511.671"/>
<g id="avatar_1_">
	<g>
		<g display="none">
			<g display="inline">
				<path fill="#9C9D9D" d="M180.193,304.592c0,9.827-8.04,17.868-17.866,17.868h-0.483c-9.828,0-17.869-8.044-17.869-17.868
					v-98.456c0-9.828,8.041-17.868,17.869-17.868h0.483c9.826,0,17.866,8.041,17.866,17.868V304.592z"/>
			</g>
		</g>
		<g display="none">
			<g display="inline">
				<path fill="#9C9D9D" d="M369.871,304.592c0,9.827-8.04,17.868-17.867,17.868h-0.482c-9.828,0-17.864-8.044-17.864-17.868
					v-98.456c0-9.828,8.038-17.868,17.864-17.868h0.482c9.828,0,17.867,8.041,17.867,17.868V304.592L369.871,304.592z"/>
			</g>
		</g>
		<g display="none">
			<g display="inline">
				<path fill="#9C9D9D" d="M204.41,414.135v-71.621c0-11.028,9.024-20.054,20.056-20.054h1.929c11.03,0,20.057,9.024,20.057,20.054
					v71.621H204.41L204.41,414.135z"/>
			</g>
			<g display="inline">
				<path fill="#9C9D9D" d="M266.319,413.88v-71.111c0-11.17,9.141-20.309,20.312-20.309h2.494c11.172,0,20.311,9.139,20.311,20.309
					v71.111H266.319z"/>
			</g>
		</g>
		<path fill="#9C9D9D" d="M246.451,414.135c0,11.03-9.025,20.057-20.057,20.057h-1.929c-11.03,0-20.056-9.025-20.056-20.057H246.451
			z"/>
		<path fill="#9C9D9D" d="M309.434,413.88c0,11.17-9.139,20.312-20.311,20.312h-2.494c-11.171,0-20.312-9.142-20.312-20.312H309.434
			z"/>
		<g display="none">
			<circle display="inline" fill="#9C9D9D" cx="256.924" cy="113.437" r="70.305"/>
		</g>
		<g display="none">
			<circle display="inline" fill="#9C9D9D" cx="230.341" cy="106.167" r="12.402"/>
			<circle display="inline" fill="#9C9D9D" cx="282.501" cy="106.167" r="12.402"/>
			<path display="inline" fill="#9C9D9D" d="M269.326,141.282c0,6.849-5.555,12.401-12.402,12.401
				c-6.851,0-12.404-5.553-12.404-12.401H269.326z"/>
		</g>
		<g display="none">
			<path display="inline" fill="#9C9D9D" d="M316.531,334.608c-0.823,9.685-9.45,17.606-19.17,17.606h-81.125
				c-9.72,0-18.334-7.924-19.144-17.608l-10.771-128.729c-0.81-9.685,6.479-17.609,16.197-17.609h108.809
				c9.72,0,16.995,7.923,16.171,17.606L316.531,334.608z"/>
		</g>
	</g>
</g>
<g>
	<path fill="#9C9D9D" d="M151.287,415.294c1.467-3.392,26.635-2.136,28.221-2.737c1.586-0.603,2.651-1.122,2.651-1.122l1.312-0.835
		c0,0,23.023-12.41,24.134-12.41s15.571,13.313,29.786,9.703c8.72-2.216,6.341-4.061,7.771-3.911c1.426,0.15,2.724-2.75,4.469-1.548
		c1.745,1.203,2.479,21.639,2.479,21.639l-39.774,0.215l-30.767,1.354l-29.972-6.016c0,0-0.792-1.504,0.159-2.105
		C152.706,416.919,150.873,416.25,151.287,415.294z"/>
	<g>
		<path fill="#BFBFC0" d="M250.03,403.622c-0.969,0.541-11.93,7.164-20.128,8.774c-8.199,1.61-25.512-8.699-27.695-9.546
			c-2.188-0.84-1.15-3.652-1.15-3.652s1.882-2.372,3.196-2.61c1.312-0.239,18.835,11.192,24.268,10.553
			c5.428-0.641,14.604-6.514,16.698-7.77c2.098-1.252,3.879,1.717,3.879,1.717S250.998,403.079,250.03,403.622z"/>
	</g>
	<path fill="#9C9D9D" d="M199.347,407.184c0.141-1.148-0.71-2.248-1.897-2.456c-1.189-0.205-2.266,0.56-2.404,1.71
		c-0.14,1.149,0.711,2.248,1.898,2.455C198.132,409.097,199.208,408.333,199.347,407.184z"/>
	<path fill="#9C9D9D" d="M198.355,407.011c0.075-0.619-0.383-1.213-1.021-1.321c-0.642-0.111-1.221,0.301-1.294,0.92
		c-0.075,0.618,0.381,1.211,1.021,1.321S198.281,407.63,198.355,407.011z"/>
	<path fill="#9C9D9D" d="M197.964,403.736c-0.36-0.729-0.9-1.217-1.203-1.087l-3.059,1.298c-0.306,0.13-0.26,0.825,0.103,1.556l0,0
		c0.36,0.729,2.746,2.025,3.049,1.896l1.049-0.745C198.206,406.523,198.326,404.468,197.964,403.736L197.964,403.736z"/>
	<path fill="#9C9D9D" d="M204.382,405.17c0.139-1.147-0.712-2.248-1.899-2.454c-1.188-0.207-2.265,0.56-2.403,1.708
		c-0.14,1.148,0.711,2.249,1.9,2.454C203.165,407.085,204.242,406.32,204.382,405.17z"/>
	<path fill="#9C9D9D" d="M203.389,404.998c0.074-0.619-0.384-1.21-1.024-1.321c-0.639-0.109-1.22,0.3-1.294,0.92
		c-0.074,0.617,0.384,1.212,1.024,1.321C202.734,406.029,203.314,405.616,203.389,404.998z"/>
	<path fill="#9C9D9D" d="M202.998,401.724c-0.361-0.729-0.901-1.215-1.205-1.087l-3.06,1.297c-0.304,0.129-0.258,0.827,0.104,1.558
		l0,0c0.359,0.729,2.746,2.023,3.05,1.895l1.047-0.745C203.24,404.512,203.359,402.452,202.998,401.724L202.998,401.724z"/>
	<path fill="#9C9D9D" d="M194.344,409.421c0.142-1.146-0.709-2.247-1.898-2.453c-1.188-0.207-2.264,0.559-2.402,1.706
		c-0.14,1.149,0.711,2.249,1.899,2.454C193.131,411.334,194.206,410.57,194.344,409.421z"/>
	<path fill="#9C9D9D" d="M193.352,409.249c0.075-0.62-0.383-1.212-1.022-1.321c-0.641-0.111-1.221,0.301-1.294,0.92
		c-0.075,0.618,0.383,1.211,1.022,1.319C192.698,410.279,193.278,409.867,193.352,409.249z"/>
	<path fill="#9C9D9D" d="M192.962,405.973c-0.36-0.729-0.9-1.215-1.204-1.086l-3.061,1.299c-0.303,0.128-0.257,0.824,0.104,1.555
		l0,0c0.36,0.73,2.747,2.024,3.049,1.896l1.048-0.744C193.204,408.761,193.323,406.704,192.962,405.973L192.962,405.973z"/>
	<path fill="#9C9D9D" d="M151.287,415.294c-0.161,1.092-2.072,11.098,0.478,12.735c2.549,1.637,16.414,6.549,30.438,6.912
		s51.95,0,51.95,0s13.705-0.183,16.096-1.092c2.39-0.909,2.394-10.486,2.394-10.486s0.319-1.135-1.115-1.861
		c-1.434-0.73-51.953,1.979-66.137,1.796C171.206,423.117,151.446,414.204,151.287,415.294z"/>
	<path fill="#9C9D9D" d="M151.206,416.25c0,0,16.129,7.008,28.943,8.279c12.815,1.273,72.435-0.075,72.435-0.075l-0.11,1.798
		c0,0-59.943,1.553-71.988,0.396c-12.047-1.155-29.612-9.051-29.612-9.051L151.206,416.25z"/>
</g>
<g>
	<path fill="#9C9D9D" d="M361.693,415.202c-3.615-0.758-26.193-2.042-27.779-2.646c-1.586-0.602-2.649-1.122-2.649-1.122
		l-1.312-0.835c0,0-23.023-12.41-24.135-12.41c-1.11,0-15.57,13.313-29.787,9.703c-8.72-2.216-6.342-4.061-7.77-3.912
		c-1.427,0.151-2.725-2.749-4.47-1.547c-1.744,1.203-1.412,5.402-1.73,7.207c-0.315,1.807-1.224,14.174-1.224,14.174l40.253,0.472
		l30.766,1.354l29.972-6.017c0,0,0.793-1.504-0.158-2.106C360.713,416.919,362.134,415.294,361.693,415.202z"/>
	<g>
		<path fill="#BFBFC0" d="M263.391,403.622c0.97,0.541,11.93,7.164,20.128,8.774c8.2,1.61,25.513-8.699,27.696-9.546
			c2.186-0.84,1.149-3.652,1.149-3.652s-1.883-2.372-3.195-2.61c-1.313-0.239-18.835,11.192-24.27,10.553
			c-5.428-0.641-14.602-6.514-16.696-7.77c-2.1-1.252-3.882,1.717-3.882,1.717S262.421,403.079,263.391,403.622z"/>
	</g>
	<path fill="#9C9D9D" d="M314.073,407.184c-0.141-1.148,0.712-2.248,1.898-2.456c1.188-0.205,2.266,0.56,2.404,1.71
		c0.138,1.149-0.711,2.248-1.9,2.455C315.285,409.097,314.211,408.333,314.073,407.184z"/>
	<path fill="#9C9D9D" d="M315.066,407.011c-0.074-0.619,0.382-1.213,1.022-1.321c0.639-0.111,1.219,0.301,1.293,0.92
		c0.076,0.618-0.382,1.211-1.021,1.321C315.719,408.041,315.14,407.63,315.066,407.011z"/>
	<path fill="#9C9D9D" d="M315.455,403.736c0.36-0.729,0.901-1.217,1.205-1.087l3.059,1.298c0.305,0.13,0.258,0.825-0.102,1.556l0,0
		c-0.361,0.729-2.747,2.025-3.051,1.896l-1.05-0.745C315.213,406.523,315.094,404.468,315.455,403.736L315.455,403.736z"/>
	<path fill="#9C9D9D" d="M309.037,405.17c-0.14-1.147,0.713-2.248,1.899-2.454c1.188-0.207,2.267,0.56,2.404,1.708
		c0.139,1.148-0.711,2.249-1.9,2.454C310.254,407.085,309.178,406.32,309.037,405.17z"/>
	<path fill="#9C9D9D" d="M310.031,404.998c-0.073-0.619,0.386-1.21,1.022-1.321c0.64-0.109,1.219,0.3,1.295,0.92
		c0.075,0.617-0.384,1.212-1.023,1.321C310.687,406.028,310.108,405.616,310.031,404.998z"/>
	<path fill="#9C9D9D" d="M310.422,401.724c0.359-0.729,0.902-1.215,1.203-1.087l3.061,1.297c0.306,0.129,0.256,0.827-0.104,1.558
		l0,0c-0.361,0.729-2.746,2.023-3.05,1.895l-1.049-0.745C310.18,404.512,310.061,402.452,310.422,401.724L310.422,401.724z"/>
	<path fill="#9C9D9D" d="M319.075,409.421c-0.142-1.146,0.71-2.247,1.898-2.453c1.188-0.207,2.264,0.559,2.402,1.706
		c0.14,1.149-0.711,2.249-1.898,2.454C320.29,411.334,319.215,410.57,319.075,409.421z"/>
	<path fill="#9C9D9D" d="M320.068,409.249c-0.074-0.62,0.385-1.212,1.022-1.321c0.641-0.111,1.221,0.301,1.295,0.92
		c0.074,0.618-0.383,1.211-1.023,1.319C320.721,410.279,320.141,409.867,320.068,409.249z"/>
	<path fill="#9C9D9D" d="M320.459,405.973c0.356-0.729,0.897-1.215,1.203-1.086l3.059,1.299c0.303,0.128,0.258,0.824-0.104,1.555
		l0,0c-0.359,0.73-2.745,2.024-3.05,1.896l-1.048-0.744C320.215,408.761,320.097,406.704,320.459,405.973L320.459,405.973z"/>
	<path fill="#9C9D9D" d="M362.134,415.294c0.158,1.092,2.069,11.098-0.479,12.735c-2.549,1.637-16.414,6.549-30.437,6.912
		c-14.024,0.363-51.95,0-51.95,0s-13.705-0.183-16.095-1.092c-2.391-0.909-2.396-10.486-2.396-10.486s-0.318-1.135,1.114-1.861
		c1.436-0.73,51.953,1.979,66.137,1.796C342.214,423.117,361.974,414.204,362.134,415.294z"/>
	<path fill="#9C9D9D" d="M362.213,416.25c0,0-16.129,7.008-28.943,8.279c-12.814,1.273-72.435-0.075-72.435-0.075l0.111,1.798
		c0,0,59.943,1.553,71.987,0.396c12.048-1.155,29.613-9.051,29.613-9.051L362.213,416.25z"/>
</g>
<polygon fill="#9C9D9D" points="244.984,204.488 226.922,223.195 221.553,188.511 227.399,189.201 "/>
<polygon fill="#9C9D9D" points="267.971,204.132 285.528,223.195 290.896,188.511 285.674,190.234 "/>
<g>
	<g>
		<g>
			<path fill="#BFBFC0" d="M306.925,187.959c-2.676,0.29-5.349,0.453-7.901,0.044c-0.549,0.001-1.098-0.018-1.647-0.059
				c-18.905,34.424-35.23,58.411-41.221,63.282c-5.922-4.837-21.939-28.46-40.521-62.412h-14.146
				c1.216,2.253,10.478,19.347,20.761,36.232c22.012,36.148,28.818,39.172,33.902,39.172c5.08,0,11.89-3.023,34.021-39.159
				c11.042-18.03,20.921-36.299,21.021-36.481l-1.525-0.823C308.755,187.858,307.84,187.924,306.925,187.959z"/>
			<path fill="#9C9D9D" d="M302.264,188.245c-3.372,6.116-10.822,19.437-18.908,32.639c-20.599,33.638-26.272,35.341-27.203,35.341
				c-0.927,0-6.592-1.703-27.067-35.326c-7.799-12.805-15.005-25.735-18.491-32.084h-4.05c2.995,5.489,10.884,19.774,19.499,33.921
				c22.557,37.042,28.045,37.042,30.109,37.042c2.065,0,7.551,0,30.234-37.036c9.133-14.914,17.459-29.979,20.061-34.732
				C305.044,188.153,303.645,188.25,302.264,188.245z"/>
		</g>
	</g>
</g>
<polygon fill="#9C9D9D" points="267.971,204.132 291.74,219.765 291.74,188.501 286.735,188.361 "/>
<polygon fill="#9C9D9D" points="244.984,204.488 221.724,220.465 221.553,188.511 227.496,188.511 "/>
<g>
	<circle fill="#9C9D9D" cx="366.299" cy="322.461" r="16.61"/>
	<circle fill="#BFBFC0" cx="361.719" cy="319.058" r="3.404"/>
	<path fill="none" stroke="#BFBFC0" stroke-miterlimit="10" stroke-dasharray="2" d="M380.317,313.554
		c-3.91,22.093-25.33,21.065-25.33,21.065"/>
	<path fill="none" stroke="#BFBFC0" stroke-miterlimit="10" stroke-dasharray="2" d="M379.187,312.425
		c-3.911,22.09-25.331,21.063-25.331,21.063"/>
</g>
<polygon fill="#BFBFC0" points="226.922,188.035 244.984,204.488 256.504,237.955 267.971,204.132 286.967,188.128 "/>
</svg>
