<?xml version="1.0" encoding="utf-8"?>
<!-- Generator: Adobe Illustrator 16.0.1, SVG Export Plug-In . SVG Version: 6.00 Build 0)  -->
<!DOCTYPE svg PUBLIC "-//W3C//DTD SVG 1.1//EN" "http://www.w3.org/Graphics/SVG/1.1/DTD/svg11.dtd">
<svg version="1.1" id="content" xmlns="http://www.w3.org/2000/svg" xmlns:xlink="http://www.w3.org/1999/xlink" x="0px" y="0px"
	 width="500px" height="500px" viewBox="0 0 500 500" enable-background="new 0 0 500 500" xml:space="preserve">
<g id="bounds">
	<rect fill="none" width="500" height="500"/>
</g>
<g>
	<g>
		<path fill="#BFBFC0" d="M166.887,325.309c0,10.757-8.801,19.558-19.558,19.558h-0.528c-10.757,0-19.558-8.801-19.558-19.558
			V217.54c0-10.757,8.801-19.558,19.558-19.558h0.528c10.757,0,19.558,8.801,19.558,19.558V325.309z"/>
	</g>
</g>
<g>
	<g>
		<path fill="#BFBFC0" d="M374.507,325.309c0,10.757-8.801,19.558-19.558,19.558h-0.53c-10.757,0-19.558-8.801-19.558-19.558V217.54
			c0-10.757,8.801-19.558,19.558-19.558h0.53c10.757,0,19.558,8.801,19.558,19.558V325.309z"/>
	</g>
</g>
<g>
	<g>
		<path fill="#BFBFC0" d="M239.412,445.212c0,12.073-9.878,21.951-21.952,21.951h-2.112c-12.073,0-21.952-9.878-21.952-21.951
			V329.696c0-12.073,9.878-21.951,21.952-21.951h2.112c12.073,0,21.952,9.878,21.952,21.951V445.212z"/>
	</g>
	<g>
		<path fill="#BFBFC0" d="M307.764,445.212c0,12.073-9.878,21.951-21.951,21.951h-2.113c-12.073,0-21.951-9.878-21.951-21.951
			V329.696c0-12.073,9.878-21.951,21.951-21.951h2.113c12.073,0,21.951,9.878,21.951,21.951V445.212z"/>
	</g>
	<g>
		<path fill="#BFBFC0" d="M308.353,444.933c0,12.227-10.004,22.23-22.23,22.23h-2.732c-12.227,0-22.23-10.004-22.23-22.23V329.976
			c0-12.227,10.004-22.23,22.23-22.23h2.732c12.227,0,22.23,10.004,22.23,22.23V444.933z"/>
	</g>
</g>
<g>
	<circle fill="#BFBFC0" cx="250.875" cy="116.073" r="76.955"/>
</g>
<g>
	<circle fill="#FFFFFF" cx="221.778" cy="108.115" r="13.575"/>
	<circle fill="#FFFFFF" cx="278.871" cy="108.115" r="13.575"/>
	<path fill="#FFFFFF" d="M264.45,146.552c0,7.497-6.077,13.575-13.576,13.575c-7.497,0-13.575-6.078-13.575-13.575H264.45z"/>
</g>
<g>
	<path fill="#BFBFC0" d="M316.122,358.164c-0.903,10.6-10.346,19.272-20.983,19.272h-88.8c-10.638,0-20.067-8.674-20.955-19.274
		l-11.788-140.906c-0.887-10.601,7.091-19.274,17.729-19.274h119.1c10.638,0,18.604,8.672,17.7,19.272L316.122,358.164z"/>
</g>
<g>
	<path fill="#9C9D9D" d="M217.458,447.472h-2.107c-12.043,0-21.897-10.618-21.897-23.595v21.54c0,12.976,9.854,23.594,21.897,23.594
		h2.107c12.043,0,21.896-10.618,21.896-23.594v-21.54C239.355,436.854,229.502,447.472,217.458,447.472z"/>
	<g>
		<path fill="#BFBFC0" d="M213.614,456.729l-0.276-3.448c-0.031-0.39,0.123-0.738,0.386-0.981c-1.697-1.328-4.159-2.198-5.45-2.198
			c-2.092,0-3.788,2.284-3.788,5.103c0,2.817,1.696,5.102,3.788,5.102c1.412,0,4.22-1.039,5.901-2.581
			C213.863,457.48,213.646,457.126,213.614,456.729z"/>
		<path fill="#BFBFC0" d="M224.535,450.101c-1.291,0-3.752,0.87-5.45,2.198c0.264,0.243,0.417,0.592,0.386,0.981l-0.276,3.448
			c-0.032,0.397-0.25,0.752-0.561,0.995c1.68,1.542,4.489,2.581,5.9,2.581c2.093,0,3.789-2.284,3.789-5.102
			C228.323,452.385,226.627,450.101,224.535,450.101z"/>
		<path fill="#BFBFC0" d="M218.505,452.802c-0.179-0.185-0.421-0.3-0.697-0.3h-2.807c-0.275,0-0.518,0.115-0.697,0.3
			c-0.208,0.214-0.33,0.521-0.305,0.866l0.216,3.03c0.019,0.268,0.126,0.513,0.283,0.711c0.218,0.274,0.538,0.455,0.885,0.455h2.041
			c0.347,0,0.667-0.181,0.886-0.455c0.157-0.198,0.264-0.443,0.283-0.711l0.216-3.03
			C218.834,453.323,218.712,453.016,218.505,452.802z"/>
	</g>
</g>
<g>
	<path fill="#9C9D9D" d="M285.869,447.472h-2.177c-12.438,0-22.614-10.618-22.614-23.595v21.54
		c0,12.976,10.177,23.594,22.614,23.594h2.177c12.438,0,22.614-10.618,22.614-23.594v-21.54
		C308.483,436.854,298.307,447.472,285.869,447.472z"/>
	<g>
		<path fill="#BFBFC0" d="M281.899,456.729l-0.285-3.448c-0.033-0.39,0.126-0.738,0.397-0.981c-1.754-1.328-4.295-2.198-5.628-2.198
			c-2.161,0-3.912,2.284-3.912,5.103c0,2.817,1.751,5.102,3.912,5.102c1.458,0,4.358-1.039,6.094-2.581
			C282.156,457.48,281.931,457.126,281.899,456.729z"/>
		<path fill="#BFBFC0" d="M293.177,450.101c-1.334,0-3.876,0.87-5.628,2.198c0.272,0.243,0.43,0.592,0.398,0.981l-0.284,3.448
			c-0.033,0.397-0.259,0.752-0.579,0.995c1.735,1.542,4.635,2.581,6.093,2.581c2.162,0,3.913-2.284,3.913-5.102
			C297.09,452.385,295.339,450.101,293.177,450.101z"/>
		<path fill="#BFBFC0" d="M286.949,452.802c-0.184-0.185-0.436-0.3-0.72-0.3h-2.899c-0.283,0-0.534,0.115-0.718,0.3
			c-0.215,0.214-0.342,0.521-0.315,0.866l0.223,3.03c0.021,0.268,0.131,0.513,0.292,0.711c0.227,0.274,0.557,0.455,0.915,0.455
			h2.107c0.359,0,0.689-0.181,0.915-0.455c0.162-0.198,0.272-0.443,0.293-0.711l0.222-3.03
			C287.289,453.323,287.164,453.016,286.949,452.802z"/>
	</g>
</g>
<path fill="#9C9D9D" d="M303.514,53.802c-13.758-8.925-26.646-15.728-51.783-15.728c-25.139,0-38.026,6.803-51.784,15.728
	c-52.944,34.339-10.666,80.921-10.666,80.921c-2.372-56.888,7.504-63.524,16.594-67.505c8.997-3.934,27.273,8.009,45.566,8.259v0.01
	c0.097,0,0.192-0.003,0.289-0.004c0.096,0,0.192,0.004,0.288,0.004v-0.01c18.297-0.25,36.574-12.193,45.57-8.259
	c9.087,3.98,18.962,10.617,16.595,67.505C314.184,134.724,356.46,88.142,303.514,53.802z"/>
<path fill="#9C9D9D" d="M187.705,62.13c-5.436-14.15-51.076-19.371-51.076,38.759c0,22.003,10.828,26.567,10.828,47.098
	s-16.245,22.812-20.213,17.49c0,0,39.706,41.821,62.171-18.01C189.414,147.468,201.864,94.859,187.705,62.13z"/>
<path fill="#9C9D9D" d="M315.121,62.13c5.437-14.15,51.075-19.371,51.075,38.759c0,22.003-10.827,26.567-10.827,47.098
	s16.244,22.812,20.213,17.49c0,0-39.705,41.821-62.17-18.01C313.412,147.468,300.962,94.859,315.121,62.13z"/>
<ellipse fill="#BFBFC0" cx="356.352" cy="231.463" rx="27.24" ry="39.283"/>
<path fill="#BFBFC0" d="M337.193,212.362c-4.277-1.389-2.011,6.256-0.804,9.51c3.155,8.514,8.72,16.668,14.301,23.823
	c0.781,0.997,1.509,0.461,1.37-0.422c0.085-0.157,0.112-0.382,0.021-0.713C349.63,235.675,347.582,215.741,337.193,212.362z"/>
<path fill="#BFBFC0" d="M361.689,240.626c0.033,0.072,0.079,0.133,0.121,0.208c0.334,0.86,1.657,1.696,2.062,0.946
	c2.601-4.775,1.081-13.375-1.479-20.727c-1.434-4.119-5.573-14.996-10.624-16.675c-3.862-1.288-2.626,5.093-2.101,8.074
	C351.3,221.671,357.618,231.239,361.689,240.626z"/>
<path fill="#BFBFC0" d="M367.98,213.481c2.387,7.492,4.022,14.738,3.99,21.396c0,0.392,0.174,0.754,0.422,1.058
	c0.125,0.841,1.387,2,2.031,1.497c3.646-2.879,3.646-9.493,3.253-15.535c-0.313-4.859-1.291-13.235-5.822-18.44
	c-3.594-4.133-7.288-4.713-6.536,0.213C365.803,206.849,366.931,210.165,367.98,213.481z"/>
<path fill="#9C9D9D" d="M315.241,197.982c-0.6,11.687-29.178,21.101-64.367,21.101c-35.189,0-63.767-9.414-64.366-21.101h-15.271
	l14.11,160.183c0.907,10.599,10.352,19.271,20.99,19.271h88.799c10.638,0,20.063-8.675,20.947-19.274l13.682-160.18H315.241z"/>
<g id="top">
	<path fill="#9C9D9D" d="M331.324,418.343c0,0-8.735,11.494-28.004,5.41c-12.674,8.294-31.438,3.426-32.577,1.776
		c-8.103,3.822-14.227,5.162-18.791,5.237c-4.563-0.075-10.688-1.415-18.79-5.237c-1.142,1.649-22.214,7.581-32.579-1.776
		c-19.268,6.084-28.002-5.41-28.002-5.41l14.083-55.461h127.405L331.324,418.343z"/>
</g>
<g id="top_1_">
	<path fill="#9C9D9D" d="M375.582,406.415c0,0-39.784,9.021-59.053,4.247c-12.674,6.509-44.646,2.688-45.786,1.394
		c-8.103,3-14.227,4.052-18.791,4.11c-4.563-0.059-10.688-1.11-18.79-4.11c-1.142,1.294-34.079,5.951-44.444-1.394
		c-19.268,4.774-50.345-4.247-50.345-4.247l48.29-43.533h127.405L375.582,406.415z"/>
</g>
<g>
	<path fill="#9C9D9D" d="M314.596,378.99c1.741,1.822,1.927,1.489,1.872-3.4c0.055,4.89,0.246,5.246,1.957,3.611
		c-1.711,1.635-1.358,1.84,3.523,2.11c-4.882-0.271-5.223-0.095-3.482,1.727c-1.74-1.821-1.926-1.488-1.873,3.403
		c-0.053-4.892-0.25-5.249-1.956-3.611c1.706-1.638,1.356-1.843-3.525-2.111C315.993,380.987,316.337,380.812,314.596,378.99z"/>
	<path fill="#BFBFC0" d="M254.649,397.293c1.741,1.821,1.926,1.492,1.873-3.4c0.053,4.893,0.248,5.246,1.955,3.613
		c-1.707,1.633-1.358,1.841,3.523,2.107c-4.882-0.267-5.223-0.096-3.481,1.729c-1.741-1.825-1.928-1.492-1.875,3.402
		c-0.053-4.895-0.248-5.253-1.954-3.613c1.706-1.64,1.356-1.842-3.521-2.11C256.047,399.29,256.391,399.114,254.649,397.293z"/>
	<path fill="#BFBFC0" d="M229.208,397.293c1.743,1.821,1.928,1.492,1.875-3.4c0.053,4.893,0.245,5.246,1.955,3.613
		c-1.71,1.633-1.358,1.841,3.522,2.107c-4.881-0.267-5.223-0.096-3.483,1.729c-1.739-1.825-1.926-1.492-1.872,3.402
		c-0.055-4.895-0.25-5.253-1.954-3.613c1.704-1.64,1.355-1.842-3.526-2.11C230.606,399.29,230.952,399.114,229.208,397.293z"/>
	<path fill="#BFBFC0" d="M251.628,376.81c0.869,0.913,0.964,0.748,0.935-1.701c0.029,2.449,0.126,2.624,0.98,1.806
		c-0.854,0.818-0.681,0.922,1.763,1.054c-2.443-0.132-2.616-0.043-1.742,0.866c-0.874-0.909-0.966-0.742-0.938,1.703
		c-0.027-2.445-0.124-2.626-0.979-1.806c0.854-0.82,0.68-0.923-1.763-1.059C252.326,377.809,252.497,377.723,251.628,376.81z"/>
	<path fill="#BFBFC0" d="M276.826,392.486c0.869,0.914,0.962,0.748,0.935-1.702c0.027,2.45,0.121,2.624,0.979,1.809
		c-0.857,0.815-0.678,0.923,1.764,1.057c-2.441-0.134-2.614-0.048-1.741,0.863c-0.873-0.911-0.966-0.743-0.938,1.703
		c-0.027-2.446-0.125-2.624-0.978-1.808c0.853-0.816,0.68-0.924-1.765-1.056C277.525,393.484,277.695,393.4,276.826,392.486z"/>
	<path fill="#BFBFC0" d="M186.294,389.23c0.872,0.908,0.965,0.743,0.938-1.704c0.028,2.447,0.123,2.626,0.977,1.81
		c-0.854,0.816-0.677,0.921,1.766,1.055c-2.443-0.134-2.616-0.046-1.743,0.867c-0.873-0.913-0.967-0.747-0.94,1.699
		c-0.027-2.446-0.125-2.625-0.978-1.807c0.853-0.818,0.679-0.922-1.763-1.057C186.994,390.229,187.166,390.139,186.294,389.23z"/>
</g>
<path fill="#BFBFC0" d="M292.313,214.293c21.014,0-109.672-0.254-84.414-0.254c25.947,0,25.819,148.843,25.819,148.843h36.052
	C269.771,362.882,273.131,214.293,292.313,214.293z"/>
<path fill="#9C9D9D" d="M255.298,262.101c1.632,0.591,3.232,1.197,4.851,1.798c9.133,3.422,18.084,6.952,27.679,9.297
	c0.229-0.718,0.764-2.331,1.284-3.929c0.529-1.636,1.038-3.25,1.177-3.874c0.008-0.008,0.005-0.025,0.016-0.034
	c-6.237-1.493-12.227-3.522-18.161-5.704c-3.991-1.469-7.956-2.986-11.94-4.483c-1.606-0.603-3.208-1.216-4.824-1.802
	c-14.742-5.318-24.417-8.543-35.124-13.971c-1.018-0.514-1.986-0.697-2.875-0.655c-0.017,0-0.037-0.008-0.055-0.007
	c1.521,3.396,2.759,6.792,3.729,10.251c0.186,0.085,0.375,0.155,0.559,0.24c8.151,3.692,16.612,6.779,25.131,9.817
	C249.588,260.061,252.451,261.071,255.298,262.101z"/>
<path fill="#9C9D9D" d="M250.527,260.795c1.631-0.723,3.232-1.402,4.85-2.102c5.015-2.15,13.655-5.104,27.68-12.947
	c0.228-0.9,0.764-2.944,1.283-4.96c0.529-2.06,1.038-4.083,1.176-4.819c0.01-0.013,0.006-0.03,0.017-0.046
	c-6.237,3.518-12.226,6.303-18.161,8.891c-3.99,1.738-7.956,3.407-11.939,5.112c-1.606,0.688-3.208,1.363-4.824,2.075
	c-11.977,5.305-23.924,10.934-35.124,14.256c-1.017,0.304-1.986,0.898-2.875,1.655c-0.017,0.014-0.037,0.022-0.055,0.037
	c1.521,2.174,2.759,4.575,3.729,7.253c0.186-0.062,0.375-0.145,0.559-0.208c8.151-2.858,16.612-6.57,25.131-10.378
	C244.817,263.343,247.681,262.052,250.527,260.795z"/>
<path fill="#9C9D9D" d="M237.577,295.004c4.364,1.438,9.053,2.924,13.692,4.376c8.752,2.717,17.329,5.261,23.171,6.885
	c-0.056-3.599,0.157-5.481,0.348-8.332c-0.002-0.028,0.042-0.025,0.047-0.049c-3.046-0.735-6.746-1.658-10.785-2.735
	c-4.291-1.145-8.984-2.472-13.82-3.977c-9.805-3.058-20.091-6.83-28.38-11.24c0.037,0.221,0.078,0.395,0.124,0.605
	c0.612,3.198,1.242,5.519,1.905,8.493c0.092,0.441,0.188,0.849,0.294,1.325C227.769,291.707,232.458,293.316,237.577,295.004z"/>
<path fill="#9C9D9D" d="M237.577,302.401c4.364-1.561,9.053-3.297,13.692-5.032c8.752-3.297,17.329-6.646,23.171-9.035
	c-0.056-3.562,0.157-5.591,0.348-8.571c-0.002-0.025,0.042-0.054,0.047-0.08c-3.046,1.356-6.746,2.974-10.785,4.674
	c-4.291,1.804-8.984,3.701-13.82,5.521c-9.805,3.678-20.091,6.973-28.38,8.259c0.037,0.195,0.078,0.341,0.124,0.52
	c0.612,2.778,1.242,4.666,1.905,7.185c0.092,0.379,0.188,0.718,0.294,1.124C227.769,305.842,232.458,304.232,237.577,302.401z"/>
<path fill="#9C9D9D" d="M252.109,328.896c7.828,3.252,15.59,6.301,21.018,7.964c0.07,0.021,0.149,0.043,0.212,0.066
	c0.036-0.701-0.563-5.848-0.744-8.608c-0.018-0.007-0.035-0.013-0.053-0.014c-2.02-0.784-4.227-1.668-6.527-2.611
	c-4.467-1.82-9.326-3.879-14.144-5.938c-9.667-4.144-19.056-8.255-24.368-10.379c-0.088-0.034-0.185-0.078-0.266-0.107
	c0.033,0.089,0.734,5.304,0.945,9.394c0.018,0.005,0.033,0.016,0.052,0.021c2.648,1.137,6.081,2.635,9.931,4.297
	C242.474,324.842,247.299,326.903,252.109,328.896z"/>
<path fill="#9C9D9D" d="M251.732,329.62c8.006-2.956,15.943-6.057,21.492-8.684c0.071-0.034,0.154-0.076,0.217-0.101
	c0.034-0.714-0.6-5.269-0.795-7.821c-0.018,0.007-0.035,0.014-0.054,0.026c-2.064,0.816-4.321,1.681-6.674,2.562
	c-4.569,1.722-9.54,3.518-14.467,5.28c-9.887,3.526-19.491,6.865-24.923,8.95c-0.09,0.036-0.189,0.069-0.272,0.103
	c0.034,0.061,0.771,4.604,1.003,8.432c0.018-0.01,0.034-0.012,0.053-0.02c2.708-0.966,6.22-2.191,10.157-3.583
	C241.877,333.207,246.813,331.441,251.732,329.62z"/>
<path fill="#BFBFC0" d="M217.607,289.697c1.706,1.783,1.888,1.458,1.834-3.332c0.053,4.79,0.24,5.137,1.915,3.537
	c-1.674,1.6-1.329,1.802,3.45,2.063c-4.779-0.262-5.116-0.093-3.408,1.694c-1.708-1.787-1.887-1.46-1.835,3.329
	c-0.052-4.789-0.246-5.138-1.914-3.533c1.667-1.604,1.328-1.807-3.451-2.067C218.978,291.649,219.313,291.48,217.607,289.697z"/>
<path fill="#BFBFC0" d="M247.1,275.031c1.294,1.355,1.433,1.107,1.394-2.528c0.04,3.636,0.182,3.901,1.449,2.688
	c-1.268,1.214-1.007,1.366,2.619,1.565c-3.625-0.199-3.879-0.068-2.585,1.285c-1.294-1.354-1.433-1.109-1.394,2.525
	c-0.04-3.635-0.184-3.899-1.45-2.682c1.266-1.218,1.006-1.37-2.62-1.568C248.138,276.515,248.394,276.387,247.1,275.031z"/>
<path fill="#BFBFC0" d="M206.81,253.047c1.708,1.781,1.886,1.457,1.835-3.333c0.051,4.79,0.24,5.138,1.912,3.54
	c-1.672,1.599-1.327,1.8,3.451,2.062c-4.778-0.263-5.113-0.092-3.411,1.691c-1.703-1.783-1.884-1.457-1.835,3.333
	c-0.049-4.79-0.242-5.14-1.91-3.537c1.667-1.603,1.327-1.806-3.451-2.064C208.18,254.998,208.518,254.828,206.81,253.047z"/>
<path fill="#BFBFC0" d="M199.098,281.28c2.43,2.542,2.689,2.079,2.616-4.745c0.073,6.824,0.343,7.319,2.727,5.041
	c-2.384,2.278-1.895,2.566,4.919,2.941c-6.814-0.375-7.292-0.131-4.861,2.413c-2.432-2.544-2.691-2.081-2.614,4.746
	c-0.077-6.827-0.349-7.322-2.728-5.038c2.379-2.284,1.895-2.573-4.918-2.942C201.051,284.065,201.528,283.822,199.098,281.28z"/>
<path fill="#BFBFC0" d="M305.062,275.495c2.436,2.543,2.692,2.076,2.615-4.75c0.077,6.826,0.346,7.323,2.73,5.042
	c-2.385,2.281-1.896,2.569,4.915,2.944c-6.811-0.375-7.29-0.133-4.858,2.411c-2.432-2.544-2.689-2.077-2.615,4.749
	c-0.074-6.826-0.348-7.324-2.727-5.039c2.379-2.285,1.892-2.573-4.918-2.946C307.015,278.279,307.498,278.038,305.062,275.495z"/>
<path fill="#BFBFC0" d="M186.02,318.387c2.43,2.54,2.69,2.078,2.614-4.749c0.076,6.827,0.343,7.322,2.729,5.045
	c-2.385,2.277-1.896,2.566,4.917,2.939c-6.812-0.373-7.29-0.13-4.859,2.412c-2.43-2.542-2.69-2.077-2.614,4.748
	c-0.076-6.825-0.348-7.324-2.727-5.041c2.379-2.283,1.891-2.57-4.921-2.942C187.97,321.171,188.45,320.927,186.02,318.387z"/>
<path fill="#BFBFC0" d="M195.33,296.106c0.855,0.892,0.946,0.729,0.919-1.668c0.027,2.396,0.12,2.57,0.958,1.771
	c-0.837,0.8-0.666,0.9,1.724,1.031c-2.39-0.131-2.556-0.045-1.703,0.848c-0.853-0.893-0.944-0.729-0.919,1.667
	c-0.025-2.396-0.122-2.572-0.957-1.769c0.834-0.804,0.664-0.903-1.726-1.034C196.015,297.083,196.186,296.998,195.33,296.106z"/>
<path fill="#BFBFC0" d="M217.351,333.315c0.853,0.893,0.944,0.729,0.918-1.666c0.026,2.395,0.121,2.567,0.956,1.768
	c-0.835,0.8-0.666,0.903,1.727,1.032c-2.392-0.129-2.559-0.044-1.707,0.85c-0.853-0.894-0.946-0.73-0.917,1.667
	c-0.029-2.397-0.122-2.57-0.958-1.771c0.835-0.799,0.664-0.903-1.725-1.032C218.035,334.291,218.204,334.208,217.351,333.315z"/>
<path fill="#BFBFC0" d="M207.757,308.106c0.853,0.892,0.944,0.729,0.917-1.666c0.026,2.395,0.12,2.571,0.959,1.769
	c-0.839,0.803-0.666,0.903,1.724,1.033c-2.39-0.13-2.557-0.046-1.704,0.847c-0.853-0.893-0.944-0.729-0.92,1.666
	c-0.023-2.395-0.121-2.57-0.955-1.768c0.834-0.803,0.664-0.903-1.727-1.035C208.443,309.084,208.61,308.998,207.757,308.106z"/>
<path fill="#BFBFC0" d="M130.653,247.736c1.703,1.785,1.886,1.457,1.833-3.331c0.053,4.788,0.241,5.137,1.915,3.54
	c-1.674,1.597-1.33,1.798,3.45,2.06c-4.779-0.261-5.115-0.091-3.41,1.693c-1.705-1.784-1.887-1.459-1.835,3.33
	c-0.052-4.789-0.245-5.137-1.912-3.533c1.667-1.604,1.327-1.807-3.45-2.066C132.02,249.688,132.355,249.521,130.653,247.736z"/>
<path fill="#BFBFC0" d="M141.783,198.185c1.704,1.785,1.886,1.457,1.834-3.331c0.052,4.788,0.241,5.137,1.915,3.54
	c-1.674,1.597-1.33,1.799,3.45,2.06c-4.779-0.261-5.115-0.091-3.411,1.693c-1.705-1.784-1.886-1.459-1.834,3.33
	c-0.052-4.79-0.246-5.137-1.912-3.534c1.667-1.603,1.327-1.807-3.45-2.066C143.151,200.136,143.486,199.97,141.783,198.185z"/>
<ellipse fill="#9C9D9D" cx="144.465" cy="231.463" rx="27.24" ry="39.283"/>
<path fill="#BFBFC0" d="M163.623,212.362c4.278-1.389,2.011,6.256,0.805,9.51c-3.155,8.514-8.72,16.668-14.301,23.823
	c-0.781,0.997-1.509,0.461-1.37-0.422c-0.085-0.157-0.112-0.382-0.022-0.713C151.187,235.675,153.234,215.741,163.623,212.362z"/>
<path fill="#BFBFC0" d="M139.127,240.626c-0.032,0.072-0.079,0.133-0.12,0.208c-0.335,0.86-1.659,1.696-2.062,0.946
	c-2.602-4.775-1.082-13.375,1.479-20.727c1.433-4.119,5.574-14.996,10.623-16.675c3.863-1.288,2.627,5.093,2.101,8.074
	C149.517,221.671,143.199,231.239,139.127,240.626z"/>
<path fill="#BFBFC0" d="M132.835,213.481c-2.386,7.492-4.021,14.738-3.989,21.396c0,0.392-0.174,0.754-0.422,1.058
	c-0.125,0.841-1.387,2-2.032,1.497c-3.646-2.879-3.646-9.493-3.253-15.535c0.314-4.859,1.292-13.235,5.821-18.44
	c3.595-4.133,7.289-4.713,6.538,0.213C135.014,206.849,133.886,210.165,132.835,213.481z"/>
<path fill="#BFBFC0" d="M130.653,247.736c1.703,1.785,1.886,1.457,1.833-3.331c0.053,4.788,0.241,5.137,1.915,3.54
	c-1.674,1.597-1.33,1.798,3.45,2.06c-4.779-0.261-5.115-0.091-3.41,1.693c-1.705-1.784-1.887-1.459-1.835,3.33
	c-0.052-4.789-0.245-5.137-1.912-3.533c1.667-1.604,1.327-1.807-3.45-2.066C132.02,249.688,132.355,249.521,130.653,247.736z"/>
<path fill="#BFBFC0" d="M141.783,198.185c1.704,1.785,1.886,1.457,1.834-3.331c0.052,4.788,0.241,5.137,1.915,3.54
	c-1.674,1.597-1.33,1.799,3.45,2.06c-4.779-0.261-5.115-0.091-3.411,1.693c-1.705-1.784-1.886-1.459-1.834,3.33
	c-0.052-4.79-0.246-5.137-1.912-3.534c1.667-1.603,1.327-1.807-3.45-2.066C143.151,200.136,143.486,199.97,141.783,198.185z"/>
<ellipse fill="#BFBFC0" cx="356.352" cy="231.463" rx="27.24" ry="39.283"/>
<path fill="#BFBFC0" d="M337.193,212.362c-4.277-1.389-2.011,6.256-0.804,9.51c3.155,8.514,8.72,16.668,14.301,23.823
	c0.781,0.997,1.509,0.461,1.37-0.422c0.085-0.157,0.112-0.382,0.021-0.713C349.63,235.675,347.582,215.741,337.193,212.362z"/>
<path fill="#BFBFC0" d="M361.689,240.626c0.033,0.072,0.079,0.133,0.121,0.208c0.334,0.86,1.657,1.696,2.062,0.946
	c2.601-4.775,1.081-13.375-1.479-20.727c-1.434-4.119-5.573-14.996-10.624-16.675c-3.862-1.288-2.626,5.093-2.101,8.074
	C351.3,221.671,357.618,231.239,361.689,240.626z"/>
<path fill="#BFBFC0" d="M367.98,213.481c2.387,7.492,4.022,14.738,3.99,21.396c0,0.392,0.174,0.754,0.422,1.058
	c0.125,0.841,1.387,2,2.031,1.497c3.646-2.879,3.646-9.493,3.253-15.535c-0.313-4.859-1.291-13.235-5.822-18.44
	c-3.594-4.133-7.288-4.713-6.536,0.213C365.803,206.849,366.931,210.165,367.98,213.481z"/>
<ellipse fill="#9C9D9D" cx="356.352" cy="231.463" rx="27.24" ry="39.283"/>
<path fill="#BFBFC0" d="M337.193,212.362c-4.277-1.389-2.011,6.256-0.804,9.51c3.155,8.514,8.72,16.668,14.301,23.823
	c0.781,0.997,1.509,0.461,1.37-0.422c0.085-0.157,0.112-0.382,0.021-0.713C349.63,235.675,347.582,215.741,337.193,212.362z"/>
<path fill="#BFBFC0" d="M361.689,240.626c0.033,0.072,0.079,0.133,0.121,0.208c0.334,0.86,1.657,1.696,2.062,0.946
	c2.601-4.775,1.081-13.375-1.479-20.727c-1.434-4.119-5.573-14.996-10.624-16.675c-3.862-1.288-2.626,5.093-2.101,8.074
	C351.3,221.671,357.618,231.239,361.689,240.626z"/>
<path fill="#BFBFC0" d="M367.98,213.481c2.387,7.492,4.022,14.738,3.99,21.396c0,0.392,0.174,0.754,0.422,1.058
	c0.125,0.841,1.387,2,2.031,1.497c3.646-2.879,3.646-9.493,3.253-15.535c-0.313-4.859-1.291-13.235-5.822-18.44
	c-3.594-4.133-7.288-4.713-6.536,0.213C365.803,206.849,366.931,210.165,367.98,213.481z"/>
<path fill="#BFBFC0" d="M370.165,247.736c-1.704,1.785-1.886,1.457-1.834-3.331c-0.052,4.788-0.241,5.137-1.915,3.54
	c1.674,1.597,1.329,1.798-3.449,2.06c4.778-0.261,5.115-0.091,3.411,1.693c1.704-1.784,1.885-1.459,1.834,3.33
	c0.051-4.789,0.245-5.137,1.912-3.533c-1.667-1.604-1.328-1.807,3.45-2.066C368.796,249.688,368.461,249.521,370.165,247.736z"/>
<path fill="#BFBFC0" d="M359.033,198.185c-1.703,1.785-1.885,1.457-1.833-3.331c-0.052,4.788-0.24,5.137-1.914,3.54
	c1.674,1.597,1.329,1.799-3.449,2.06c4.778-0.261,5.115-0.091,3.409,1.693c1.706-1.784,1.887-1.459,1.836,3.33
	c0.051-4.79,0.244-5.137,1.911-3.534c-1.667-1.603-1.326-1.807,3.45-2.066C357.667,200.136,357.33,199.97,359.033,198.185z"/>
<path fill="#BFBFC0" d="M213.752,450.521c1.703,1.785,1.886,1.457,1.833-3.33c0.053,4.787,0.241,5.137,1.915,3.539
	c-1.673,1.598-1.33,1.799,3.45,2.061c-4.779-0.262-5.115-0.092-3.41,1.692c-1.705-1.784-1.886-1.46-1.834,3.33
	c-0.052-4.79-0.245-5.137-1.913-3.534c1.667-1.603,1.328-1.806-3.45-2.065C215.12,452.473,215.456,452.306,213.752,450.521z"/>
<path fill="#BFBFC0" d="M283.178,450.762c1.703,1.784,1.885,1.457,1.833-3.331c0.052,4.788,0.241,5.136,1.915,3.539
	c-1.674,1.597-1.329,1.799,3.449,2.061c-4.778-0.262-5.116-0.092-3.411,1.692c-1.705-1.784-1.885-1.46-1.835,3.33
	c-0.05-4.79-0.243-5.137-1.911-3.534c1.668-1.603,1.327-1.806-3.45-2.065C284.545,452.713,284.881,452.546,283.178,450.762z"/>
<path fill="#BFBFC0" d="M240.991,239.22c0.852,0.892,0.943,0.73,0.914-1.665c0.029,2.396,0.122,2.567,0.959,1.769
	c-0.837,0.799-0.667,0.901,1.726,1.031c-2.393-0.13-2.559-0.043-1.706,0.848c-0.853-0.891-0.944-0.729-0.917,1.666
	c-0.027-2.396-0.122-2.571-0.957-1.77c0.834-0.802,0.665-0.902-1.726-1.033C241.676,240.198,241.843,240.112,240.991,239.22z"/>
<path fill="#9C9D9D" d="M286.36,265.259c-2.047-1.379-2.156-1.023-1.082,3.646c-1.074-4.669-1.33-4.967-2.626-3.048
	c1.296-1.919-2.768,1.64-7.492,2.404c4.725-0.765,8.7-4.685,6.651-6.064c2.049,1.38,2.155,1.021,1.084-3.645
	c1.071,4.666,1.335,4.967,2.622,3.043c-1.287,1.924-0.913,2.049,3.812,1.284C284.604,263.644,284.313,263.88,286.36,265.259z"/>
<path fill="#BFBFC0" d="M241.229,224.304c-1.553-1.049-1.638-0.776-0.822,2.767c-0.816-3.543-1.01-3.773-1.989-2.315
	c0.979-1.458,0.692-1.55-2.893-0.972c3.585-0.578,3.806-0.761,2.252-1.807c1.554,1.046,1.636,0.778,0.823-2.766
	c0.813,3.543,1.011,3.771,1.989,2.312c-0.979,1.459-0.69,1.552,2.894,0.974C239.9,223.075,239.677,223.255,241.229,224.304z"/>
<path fill="#BFBFC0" d="M287.055,347.706c-2.048-1.376-2.154-1.022-1.082,3.646c-1.072-4.669-1.33-4.969-2.622-3.049
	c1.292-1.92,0.911-2.041-3.813-1.279c4.725-0.762,5.017-1.001,2.973-2.38c2.044,1.379,2.15,1.021,1.081-3.647
	c1.069,4.669,1.335,4.97,2.621,3.048c-1.286,1.922-0.912,2.048,3.812,1.279C285.3,346.093,285.007,346.33,287.055,347.706z"/>
<path fill="#BFBFC0" d="M311.006,350.562c-2.917-1.967-3.07-1.459-1.543,5.192c-1.527-6.651-1.896-7.077-3.739-4.344
	c1.843-2.733,1.304-2.911-5.434-1.824c6.737-1.087,7.151-1.428,4.234-3.394c2.917,1.966,3.072,1.46,1.542-5.196
	c1.53,6.656,1.902,7.082,3.74,4.342c-1.838,2.74-1.304,2.918,5.432,1.825C308.503,348.257,308.089,348.596,311.006,350.562z"/>
<path fill="#BFBFC0" d="M191.959,225.323c-2.922-1.964-3.073-1.454-1.542,5.197c-1.53-6.65-1.9-7.079-3.742-4.343
	c1.842-2.736,1.304-2.915-5.431-1.828c6.735-1.087,7.151-1.426,4.233-3.391c2.918,1.965,3.071,1.456,1.542-5.198
	c1.53,6.653,1.902,7.082,3.739,4.342c-1.837,2.74-1.299,2.917,5.434,1.829C189.458,223.019,189.038,223.359,191.959,225.323z"/>
<path fill="#BFBFC0" d="M314.351,225.322c-2.917-1.962-3.071-1.455-1.542,5.199c-1.529-6.653-1.896-7.081-3.741-4.348
	c1.845-2.733,1.305-2.91-5.431-1.823c6.735-1.087,7.148-1.428,4.233-3.393c2.915,1.965,3.071,1.456,1.539-5.196
	c1.532,6.651,1.903,7.082,3.74,4.343c-1.837,2.739-1.299,2.914,5.436,1.825C311.851,223.018,311.434,223.359,314.351,225.322z"/>
<path fill="#BFBFC0" d="M306.756,254.245c-1.025-0.688-1.079-0.509-0.541,1.826c-0.538-2.335-0.665-2.486-1.312-1.525
	c0.646-0.961,0.457-1.021-1.905-0.642c2.362-0.38,2.507-0.5,1.484-1.19c1.022,0.69,1.076,0.511,0.542-1.824
	c0.534,2.335,0.666,2.487,1.312,1.524c-0.646,0.963-0.455,1.023,1.905,0.642C305.881,253.438,305.73,253.557,306.756,254.245z"/>
<path fill="#BFBFC0" d="M265.929,227.77c-1.023-0.689-1.079-0.509-0.541,1.824c-0.538-2.333-0.666-2.482-1.312-1.522
	c0.646-0.96,0.459-1.025-1.906-0.64c2.365-0.385,2.509-0.503,1.486-1.194c1.022,0.691,1.079,0.512,0.539-1.825
	c0.54,2.336,0.669,2.485,1.314,1.527c-0.646,0.958-0.456,1.023,1.905,0.639C265.053,226.963,264.905,227.081,265.929,227.77z"/>
<path fill="#BFBFC0" d="M292.056,245.171c-1.022-0.689-1.077-0.51-0.54,1.824c-0.537-2.334-0.665-2.487-1.314-1.523
	c0.649-0.963,0.457-1.025-1.905-0.643c2.362-0.383,2.509-0.5,1.484-1.189c1.024,0.689,1.077,0.511,0.545-1.826
	c0.532,2.336,0.666,2.486,1.309,1.524c-0.643,0.962-0.456,1.024,1.908,0.643C291.178,244.363,291.033,244.482,292.056,245.171z"/>
<path fill="#BFBFC0" d="M291.603,308.821c-2.046-1.38-2.154-1.02-1.081,3.646c-1.073-4.666-1.331-4.968-2.625-3.051
	c1.294-1.917,0.916-2.04-3.811-1.276c4.727-0.764,5.017-1.002,2.971-2.381c2.046,1.379,2.155,1.023,1.082-3.644
	c1.073,4.667,1.336,4.966,2.623,3.044c-1.287,1.922-0.911,2.047,3.811,1.281C289.851,307.207,289.557,307.441,291.603,308.821z"/>
<path fill="#BFBFC0" d="M276.744,310.648c-1.022-0.691-1.076-0.513-0.538,1.822c-0.538-2.335-0.664-2.483-1.313-1.524
	c0.649-0.959,0.46-1.022-1.906-0.64c2.366-0.383,2.51-0.504,1.485-1.192c1.024,0.688,1.077,0.512,0.542-1.823
	c0.535,2.335,0.666,2.486,1.312,1.524c-0.646,0.962-0.457,1.022,1.906,0.642C275.868,309.838,275.722,309.957,276.744,310.648z"/>
<g>
	<path fill="#BFBFC0" d="M270.712,60.799c-0.454,0-0.882-0.271-1.062-0.717c-0.237-0.586,0.046-1.254,0.632-1.492
		c15.447-6.258,17.006-16.535,17.021-16.638c0.073-0.544,0.523-0.959,1.071-0.99c0.56-0.048,1.042,0.332,1.176,0.865
		c0.107,0.422,2.793,10.432,14.235,12.058c0.627,0.088,1.062,0.669,0.973,1.295c-0.088,0.626-0.668,1.064-1.294,0.973
		c-8.747-1.243-13.017-6.993-14.88-10.658c-1.678,3.938-6.085,10.619-17.441,15.219C271,60.771,270.854,60.799,270.712,60.799z"/>
	<path fill="#BFBFC0" d="M270.94,60.049c0.123-0.177,0.279-0.333,0.494-0.42c15.446-6.258,17.007-16.535,17.021-16.637
		c0.048-0.354,0.263-0.64,0.552-0.814c-0.055-0.178-0.087-0.296-0.097-0.335c-0.068-0.27-0.293-0.458-0.613-0.458
		c-0.003,0-0.006,0-0.009,0c-0.289,0.016-0.528,0.236-0.568,0.525c-0.015,0.106-1.634,10.696-17.351,17.064
		c-0.151,0.061-0.269,0.177-0.332,0.326c-0.063,0.149-0.065,0.314-0.004,0.465c0.094,0.23,0.314,0.38,0.563,0.38
		c0.077,0,0.153-0.016,0.228-0.045C270.864,60.083,270.9,60.065,270.94,60.049z"/>
	<path fill="#BFBFC0" d="M300.281,56.21c-23.159,0-35.244-6.651-41.357-12.382c-3.785-3.55-5.8-7.144-6.86-9.761
		c-1.061,2.617-3.074,6.211-6.859,9.761c-6.402,6.002-19.359,13.014-44.73,12.336c-0.632-0.018-1.131-0.544-1.114-1.176
		c0.017-0.631,0.536-1.092,1.176-1.114c24.451,0.655,36.869-5.944,42.97-11.594c6.542-6.062,7.413-12.364,7.423-12.426
		c0.073-0.573,0.559-1.002,1.136-1.002c0.001,0,0.002,0,0.004,0c0.577,0.002,1.063,0.432,1.134,1.005
		c0.008,0.06,0.879,6.362,7.423,12.423c6.1,5.651,18.511,12.262,42.969,11.594c0.658,0.022,1.16,0.483,1.176,1.114
		c0.017,0.632-0.482,1.159-1.114,1.176C302.506,56.195,301.382,56.21,300.281,56.21z"/>
	<path fill="#BFBFC0" d="M224.596,60.53c-1.25,0-2.53-0.017-3.844-0.052c-0.632-0.018-1.131-0.544-1.114-1.176
		c0.017-0.632,0.516-1.114,1.175-1.115c46.594,1.274,50.363-21.117,50.395-21.343c0.071-0.494,0.454-0.887,0.946-0.968
		c0.495-0.08,0.982,0.162,1.208,0.607c0.09,0.174,9.134,17.391,30.262,17.391c0.632,0,1.146,0.513,1.146,1.146
		c0,0.632-0.514,1.145-1.146,1.145c-17.717,0-27.466-11.374-30.885-16.354C270.41,45.96,261.041,60.53,224.596,60.53z"/>
	<path fill="#BFBFC0" d="M233.417,60.799c-0.143,0-0.289-0.027-0.43-0.084c-11.355-4.601-15.764-11.281-17.44-15.219
		c-1.866,3.665-6.134,9.416-14.881,10.658c-0.624,0.092-1.206-0.347-1.294-0.973c-0.089-0.626,0.346-1.207,0.973-1.295
		c11.492-1.633,14.21-11.954,14.236-12.058c0.134-0.533,0.623-0.913,1.175-0.865c0.549,0.03,0.998,0.445,1.072,0.99
		c0.06,0.417,1.666,10.417,17.021,16.638c0.586,0.237,0.869,0.906,0.631,1.492C234.298,60.528,233.87,60.799,233.417,60.799z"/>
	<path fill="#BFBFC0" d="M201.497,54.923c11.492-1.633,14.21-11.953,14.236-12.058c0.073-0.291,0.257-0.527,0.494-0.681
		c-0.029-0.144-0.045-0.242-0.05-0.276c-0.039-0.288-0.277-0.508-0.632-0.527c-0.256,0-0.491,0.194-0.558,0.459
		c-0.026,0.107-2.803,10.773-14.684,12.461c-0.161,0.023-0.303,0.107-0.4,0.237c-0.097,0.129-0.138,0.289-0.115,0.45
		c0.042,0.297,0.298,0.522,0.596,0.522l0.09-0.007c0.076-0.011,0.146-0.028,0.222-0.041
		C200.868,55.185,201.146,54.974,201.497,54.923z"/>
	<path fill="#BFBFC0" d="M279.531,60.53c-36.497,0.002-45.837-14.607-48.152-20.744c-3.454,4.961-13.314,16.378-30.875,16.378
		c-0.633,0-1.146-0.513-1.146-1.145c0-0.633,0.512-1.146,1.146-1.146c20.9,0,30.175-17.228,30.266-17.402
		c0.232-0.442,0.724-0.68,1.214-0.597c0.491,0.087,0.87,0.48,0.937,0.975c0.032,0.221,3.784,22.586,50.394,21.338
		c0.012,0,0.021,0,0.031,0c0.618,0,1.129,0.493,1.145,1.115c0.018,0.632-0.482,1.159-1.114,1.176
		C282.064,60.513,280.778,60.53,279.531,60.53z"/>
	<g>
		<path fill="#BFBFC0" d="M201.688,54.912c24.452,0.655,36.869-5.943,42.969-11.594c6.543-6.062,7.416-12.364,7.424-12.426
			c0.044-0.345,0.247-0.624,0.521-0.802c-0.034-0.173-0.05-0.277-0.051-0.285c-0.036-0.302-0.294-0.531-0.603-0.532
			c-0.305,0-0.562,0.229-0.602,0.535c-0.036,0.267-0.951,6.598-7.592,12.751c-5.803,5.375-17.455,11.783-40.011,11.783
			c-1.086,0-2.201-0.015-3.305-0.046c-0.372,0.013-0.647,0.261-0.656,0.591c-0.009,0.334,0.256,0.613,0.59,0.623
			c0.101,0.003,0.195,0.002,0.296,0.004C200.868,55.164,201.243,54.928,201.688,54.912z"/>
		<path fill="#BFBFC0" d="M304.108,54.923c0-0.012,0.007-0.023,0.006-0.037c-0.009-0.339-0.272-0.577-0.621-0.59
			c-1.157,0.031-2.288,0.047-3.393,0.047c-13.104,0-22.521-2.172-29.251-5.048C278.043,52.68,288.632,55.269,304.108,54.923z"/>
	</g>
	<g>
		<path fill="#BFBFC0" d="M304.112,54.896c-0.004-0.331-0.271-0.599-0.604-0.599c-5.289,0-9.828-1.064-13.673-2.668
			C293.764,53.494,298.507,54.798,304.112,54.896z"/>
		<path fill="#BFBFC0" d="M221.967,59.226c46.594,1.273,50.361-21.117,50.395-21.343c0.054-0.382,0.299-0.699,0.633-0.863
			c-0.14-0.244-0.219-0.392-0.226-0.407c-0.104-0.203-0.312-0.329-0.542-0.329c-0.033,0-0.068,0.002-0.099,0.008
			c-0.263,0.044-0.464,0.25-0.501,0.513c-0.032,0.218-3.64,21.858-47.162,21.858c-1.226,0-2.492-0.018-3.766-0.053
			c-0.367,0.001-0.629,0.244-0.638,0.591c-0.009,0.334,0.256,0.613,0.59,0.623c0.097,0.003,0.191,0.004,0.288,0.006
			C221.132,59.471,221.505,59.227,221.967,59.226z"/>
	</g>
	<g>
		<path fill="#BFBFC0" d="M283.829,59.238c0.001-0.013,0.008-0.024,0.007-0.038c-0.009-0.331-0.274-0.59-0.622-0.59
			c-1.271,0.034-2.507,0.051-3.715,0.051c-13.873,0-23.692-2.192-30.638-5.185C256.262,56.993,267.328,59.606,283.829,59.238z"/>
		<path fill="#BFBFC0" d="M201.657,54.912c20.9,0,30.175-17.228,30.267-17.401c0.095-0.181,0.24-0.318,0.404-0.422
			c-0.038-0.171-0.054-0.268-0.056-0.282c-0.036-0.264-0.235-0.47-0.494-0.516c-0.034-0.006-0.069-0.009-0.104-0.009
			c-0.229,0-0.437,0.125-0.542,0.325c-0.093,0.176-9.537,17.689-30.743,17.689c-0.334,0-0.606,0.273-0.606,0.607
			s0.272,0.607,0.606,0.607c0.097,0,0.189-0.005,0.285-0.006C200.871,55.157,201.229,54.912,201.657,54.912z"/>
	</g>
	<path fill="#BFBFC0" d="M198.537,55.971c0,3.914,23.965,7.856,53.526,7.856s53.527-3.943,53.527-7.856v-4.25
		c0,3.913-23.966,7.856-53.527,7.856s-53.526-3.944-53.526-7.856V55.971z"/>
	<g>
		<circle fill="#BFBFC0" cx="203.186" cy="56.925" r="0.888"/>
		<circle fill="#BFBFC0" cx="208.802" cy="58.343" r="0.888"/>
		<circle fill="#BFBFC0" cx="214.51" cy="59.34" r="0.888"/>
		<circle fill="#9C9D9D" cx="220.254" cy="60.095" r="0.888"/>
		<circle fill="#BFBFC0" cx="226.02" cy="60.677" r="0.888"/>
		<circle fill="#BFBFC0" cx="231.798" cy="61.117" r="0.887"/>
		<circle fill="#BFBFC0" cx="237.583" cy="61.435" r="0.887"/>
		<circle fill="#BFBFC0" cx="243.374" cy="61.642" r="0.888"/>
		<circle fill="#BFBFC0" cx="249.168" cy="61.744" r="0.888"/>
		<circle fill="#BFBFC0" cx="254.961" cy="61.744" r="0.888"/>
		<circle fill="#BFBFC0" cx="260.754" cy="61.642" r="0.888"/>
		<circle fill="#BFBFC0" cx="266.546" cy="61.435" r="0.889"/>
		<circle fill="#BFBFC0" cx="272.332" cy="61.117" r="0.888"/>
		<circle fill="#BFBFC0" cx="278.109" cy="60.677" r="0.888"/>
		<circle fill="#BFBFC0" cx="283.874" cy="60.095" r="0.888"/>
		<circle fill="#BFBFC0" cx="289.619" cy="59.34" r="0.888"/>
		<circle fill="#BFBFC0" cx="295.328" cy="58.343" r="0.888"/>
		<circle fill="#BFBFC0" cx="300.941" cy="56.925" r="0.888"/>
	</g>
	<g>
		<g>
			<circle fill="#BFBFC0" cx="215.997" cy="39.351" r="2.228"/>
			<path fill="#BFBFC0" d="M217.492,40.843c-0.986,1.172-2.707,0.669-3.36-0.539c-0.366-0.863-0.232-1.729,0.371-2.447
				c0.986-1.171,2.707-0.667,3.359,0.54C218.298,39.203,218.05,40.181,217.492,40.843z M218.148,38.374
				c-0.434-1.024-1.785-1.549-2.821-1.223c-1.382,0.435-2.05,1.833-1.482,3.178C215.238,42.905,219.341,41.191,218.148,38.374z"/>
		</g>
	</g>
	<g>
		<g>
			<circle fill="#BFBFC0" cx="288.228" cy="39.351" r="2.229"/>
			<path fill="#BFBFC0" d="M289.722,40.843c-0.987,1.172-2.707,0.669-3.36-0.539c-0.365-0.863-0.233-1.729,0.371-2.447
				c0.986-1.171,2.707-0.667,3.36,0.54C290.528,39.203,290.28,40.181,289.722,40.843z M290.378,38.374
				c-0.433-1.024-1.784-1.549-2.82-1.223c-1.382,0.435-2.05,1.833-1.482,3.178C287.469,42.905,291.57,41.191,290.378,38.374z"/>
		</g>
	</g>
	<g>
		<g>
			<circle fill="#BFBFC0" cx="252.055" cy="26.304" r="3.34"/>
			<path fill="#BFBFC0" d="M254.295,28.542c-1.479,1.756-4.057,1.002-5.037-0.81c-0.548-1.292-0.349-2.591,0.556-3.667
				c1.479-1.756,4.059-1.001,5.036,0.81C255.504,26.083,255.133,27.548,254.295,28.542z M255.28,24.839
				c-0.65-1.535-2.677-2.322-4.229-1.833c-2.072,0.652-3.075,2.748-2.222,4.763C250.917,31.631,257.067,29.062,255.28,24.839z"/>
		</g>
	</g>
	<g>
		<g>
			<circle fill="#BFBFC0" cx="272.268" cy="33.759" r="2.985"/>
			<path fill="#BFBFC0" d="M274.269,35.757c-1.32,1.57-3.625,0.896-4.499-0.723c-0.49-1.154-0.312-2.315,0.497-3.276
				c1.32-1.567,3.624-0.894,4.498,0.725C275.349,33.561,275.017,34.87,274.269,35.757z M275.148,32.45
				c-0.58-1.372-2.392-2.075-3.777-1.637c-1.852,0.582-2.746,2.454-1.985,4.254C271.251,38.518,276.744,36.223,275.148,32.45z"/>
		</g>
	</g>
	<g>
		<g>
			<circle fill="#BFBFC0" cx="232.156" cy="33.759" r="2.984"/>
			<path fill="#BFBFC0" d="M234.156,35.757c-1.32,1.57-3.624,0.896-4.498-0.723c-0.489-1.154-0.312-2.315,0.497-3.276
				c1.321-1.567,3.624-0.894,4.498,0.725C235.237,33.561,234.905,34.87,234.156,35.757z M235.036,32.45
				c-0.581-1.372-2.389-2.075-3.776-1.637c-1.851,0.582-2.747,2.454-1.985,4.254C231.141,38.518,236.633,36.223,235.036,32.45z"/>
		</g>
	</g>
	<g>
		<g>
			<path fill="#BFBFC0" d="M247.215,53.642c0-2.681,3.005-11.329,4.854-11.329c1.849,0,4.855,8.648,4.855,11.329
				c0,2.68-2.174,4.854-4.855,4.854C249.389,58.496,247.215,56.321,247.215,53.642z"/>
			<g>
				<path fill="#BFBFC0" d="M247.559,53.633c0.072-2.743,1.222-5.607,2.335-8.076c0.463-1.028,1.014-2.188,1.888-2.936
					c0.789-0.678,2.085,2.166,2.306,2.612c1.219,2.477,2.291,5.423,2.487,8.203c0.144,2.045-1.161,3.817-2.964,4.627
					C250.475,59.476,247.695,56.497,247.559,53.633c-0.01-0.199-0.696-0.178-0.688,0.015c0.206,4.333,5.016,6.288,8.435,3.923
					c3.698-2.562,1.242-8.188-0.086-11.38c-0.635-1.525-2.274-5.49-4.378-3.374c-1.335,1.345-2.027,3.532-2.65,5.263
					c-0.631,1.761-1.271,3.686-1.321,5.568C246.867,53.839,247.553,53.836,247.559,53.633z"/>
			</g>
		</g>
	</g>
	<g>
		<circle fill="#BFBFC0" cx="252.064" cy="39.204" r="3.082"/>
		<circle fill="#BFBFC0" cx="251.807" cy="38.947" r="1.99"/>
	</g>
	<g>
		<circle fill="#BFBFC0" cx="231.023" cy="44.27" r="3.081"/>
		<circle fill="#BFBFC0" cx="230.766" cy="44.013" r="1.99"/>
	</g>
	<g>
		<g>
			<path fill="#BFBFC0" d="M269.783,55.473c0-1.945,2.18-8.217,3.521-8.217s3.521,6.272,3.521,8.217
				c0,1.944-1.576,3.521-3.521,3.521C271.359,58.994,269.783,57.417,269.783,55.473z"/>
			<g>
				<path fill="#BFBFC0" d="M270.031,55.466c0.054-1.99,0.888-4.067,1.695-5.857c0.336-0.746,0.735-1.587,1.37-2.129
					c0.571-0.492,1.512,1.571,1.671,1.895c0.885,1.797,1.663,3.934,1.805,5.95c0.104,1.484-0.842,2.769-2.15,3.356
					C272.147,59.705,270.13,57.544,270.031,55.466c-0.006-0.145-0.503-0.129-0.498,0.011c0.151,3.142,3.638,4.561,6.118,2.846
					c2.683-1.859,0.902-5.94-0.062-8.255c-0.46-1.105-1.648-3.982-3.175-2.446c-0.969,0.975-1.472,2.562-1.923,3.817
					c-0.458,1.277-0.921,2.673-0.958,4.039C269.53,55.615,270.028,55.614,270.031,55.466z"/>
			</g>
		</g>
	</g>
	<g>
		<g>
			<path fill="#BFBFC0" d="M227.505,55.473c0-1.945,2.18-8.217,3.521-8.217c1.341,0,3.521,6.272,3.521,8.217
				c0,1.944-1.576,3.521-3.521,3.521C229.083,58.994,227.505,57.417,227.505,55.473z"/>
			<g>
				<path fill="#BFBFC0" d="M227.754,55.466c0.053-1.99,0.887-4.067,1.694-5.857c0.336-0.746,0.736-1.587,1.37-2.129
					c0.572-0.492,1.512,1.571,1.671,1.895c0.885,1.797,1.663,3.934,1.805,5.95c0.104,1.484-0.842,2.769-2.15,3.356
					C229.87,59.705,227.853,57.544,227.754,55.466c-0.007-0.145-0.504-0.129-0.499,0.011c0.15,3.142,3.637,4.561,6.118,2.846
					c2.683-1.859,0.902-5.94-0.062-8.255c-0.461-1.105-1.649-3.982-3.176-2.446c-0.968,0.975-1.471,2.562-1.922,3.817
					c-0.458,1.277-0.922,2.673-0.958,4.039C227.253,55.615,227.751,55.614,227.754,55.466z"/>
			</g>
		</g>
	</g>
	<g>
		<circle fill="#BFBFC0" cx="273.3" cy="44.27" r="3.082"/>
		<circle fill="#BFBFC0" cx="273.043" cy="44.013" r="1.989"/>
	</g>
</g>
</svg>
