<?xml version="1.0" encoding="utf-8"?>
<!-- Generator: Adobe Illustrator 16.0.1, SVG Export Plug-In . SVG Version: 6.00 Build 0)  -->
<!DOCTYPE svg PUBLIC "-//W3C//DTD SVG 1.1//EN" "http://www.w3.org/Graphics/SVG/1.1/DTD/svg11.dtd">
<svg version="1.1" id="content" xmlns="http://www.w3.org/2000/svg" xmlns:xlink="http://www.w3.org/1999/xlink" x="0px" y="0px"
	 width="500px" height="500px" viewBox="0 0 500 500" enable-background="new 0 0 500 500" xml:space="preserve">
<g id="bounds">
	<rect fill="none" width="500" height="500"/>
</g>
<g>
	<g>
		<g>
			<path fill="#BFBFC0" d="M176.882,326.103c0,10.018-8.196,18.214-18.213,18.214h-0.493c-10.017,0-18.213-8.196-18.213-18.214
				V225.741c0-10.017,8.196-18.213,18.213-18.213h0.493c10.017,0,18.213,8.196,18.213,18.213V326.103z"/>
		</g>
	</g>
	<g>
		<g>
			<path fill="#9C9D9D" d="M370.23,326.103c0,10.018-8.196,18.214-18.214,18.214h-0.492c-10.018,0-18.214-8.196-18.214-18.214
				V225.741c0-10.017,8.196-18.213,18.214-18.213h0.492c10.018,0,18.214,8.196,18.214,18.213V326.103z"/>
		</g>
	</g>
	<g>
		<g>
			<path fill="#BFBFC0" d="M244.421,437.764c0,11.243-9.199,20.442-20.443,20.442h-1.966c-11.244,0-20.443-9.199-20.443-20.442
				V330.188c0-11.243,9.199-20.442,20.443-20.442h1.966c11.244,0,20.443,9.199,20.443,20.442V437.764z"/>
		</g>
		<g>
			<path fill="#9C9D9D" d="M308.076,437.764c0,11.243-9.199,20.442-20.442,20.442h-1.97c-11.243,0-20.442-9.199-20.442-20.442
				V330.188c0-11.243,9.199-20.442,20.442-20.442h1.97c11.243,0,20.442,9.199,20.442,20.442V437.764z"/>
		</g>
		<g>
			<path fill="#BFBFC0" d="M308.625,437.503c0,11.387-9.316,20.703-20.703,20.703h-2.545c-11.387,0-20.703-9.316-20.703-20.703
				V330.449c0-11.387,9.316-20.703,20.703-20.703h2.545c11.387,0,20.703,9.316,20.703,20.703V437.503z"/>
		</g>
	</g>
	<g>
		<circle fill="#BFBFC0" cx="255.097" cy="131.25" r="71.665"/>
	</g>
	<g>
		<circle fill="#FFFFFF" cx="228" cy="123.838" r="12.642"/>
		<circle fill="#FFFFFF" cx="281.168" cy="123.838" r="12.642"/>
		<path fill="#FFFFFF" d="M267.738,159.633c0,6.982-5.658,12.642-12.643,12.642c-6.981,0-12.641-5.66-12.641-12.642H267.738z"/>
	</g>
	<g>
		<path fill="#BFBFC0" d="M315.858,356.7c-0.841,9.871-9.634,17.947-19.541,17.947h-82.696c-9.907,0-18.688-8.077-19.514-17.949
			l-10.979-131.221c-0.826-9.873,6.604-17.95,16.511-17.95h110.912c9.907,0,17.325,8.076,16.484,17.947L315.858,356.7z"/>
	</g>
</g>
<path fill="#9C9D9D" d="M304.116,73.26c-12.812-8.313-24.813-14.647-48.223-14.647c-23.412,0-35.413,6.334-48.225,14.647
	c-49.305,31.978-9.932,75.358-9.932,75.358c-2.209-52.978,6.988-59.157,15.453-62.865c8.378-3.664,25.397,7.459,42.434,7.691v0.009
	c0.09,0,0.18-0.004,0.27-0.004c0.089,0,0.179,0.004,0.268,0.004v-0.009c17.04-0.232,34.06-11.355,42.438-7.691
	c8.462,3.708,17.658,9.887,15.453,62.865C314.053,148.618,353.425,105.238,304.116,73.26z"/>
<path fill="#9C9D9D" d="M196.268,81.015c-5.062-13.177-47.564-18.039-47.564,36.095c0,20.492,10.083,24.741,10.083,43.861
	s-15.128,21.244-18.824,16.288c0,0,36.977,38.947,57.897-16.771C197.86,160.487,209.455,111.494,196.268,81.015z"/>
<path fill="#9C9D9D" d="M314.927,81.015c5.063-13.177,47.564-18.039,47.564,36.095c0,20.492-10.083,24.741-10.083,43.861
	s15.127,21.244,18.823,16.288c0,0-36.975,38.947-57.896-16.771C313.335,160.487,301.741,111.494,314.927,81.015z"/>
<g>
	<path fill="#9C9D9D" d="M223.978,344.317h-1.967c-11.244,0-20.443,9.198-20.443,20.44v73.006h42.853v-26.743v-3.983v-42.28
		C244.421,353.516,235.222,344.317,223.978,344.317z"/>
	<path fill="#9C9D9D" d="M287.92,344.316h-2.543c-11.386,0-20.703,9.316-20.703,20.704v42.019h-0.158v3.982h0.158v26.482h43.951
		v-26.482v-3.982v-42.019C308.625,353.633,299.308,344.316,287.92,344.316z"/>
</g>
<g>
	<path fill="#9C9D9D" d="M288.173,247.534c-12.289,0-20.862-2.124-21.008-2.157l-0.064-2.67"/>
	<line fill="#9C9D9D" x1="311.064" y1="241.933" x2="311.064" y2="244.844"/>
</g>
<path fill="#9C9D9D" d="M179.908,316.272c0,12.581-42.498,12.581-42.498,0V227.66c0-12.581,8.217-22.874,18.259-22.874h5.979
	c10.043,0,18.26,10.293,18.26,22.874V316.272z"/>
<path fill="#9C9D9D" d="M372.782,316.272c0,12.581-42.499,12.581-42.499,0V227.66c0-12.581,8.218-22.874,18.259-22.874h5.979
	c10.042,0,18.261,10.293,18.261,22.874V316.272z"/>
<path fill="#9C9D9D" d="M286.569,207.528c0,17.811-14.438,32.249-32.249,32.249c-17.81,0-32.249-14.438-32.249-32.249h-40.903
	l13.14,149.173c0.845,9.87,9.641,17.946,19.548,17.946h82.695c9.907,0,18.685-8.08,19.508-17.949l12.74-149.17H286.569z"/>
<path fill="#9C9D9D" d="M225.498,448.094c-1.741-3.236-9.624-16.003-22.857-18.868c-0.405-0.088-0.816-0.167-1.232-0.229
	c-13.354-1.981-45.302,13.209-36.557,28.461c4.012,6.998,63.709,1.886,64.854,1.886c21.071,0,15.007-9.559,13.814-10.334
	c-0.387-0.25-1.286-0.298-2.482-0.246C236.324,448.969,226.93,450.756,225.498,448.094z"/>
<path fill="#9C9D9D" d="M284.275,448.094c1.74-3.236,9.624-16.003,22.855-18.868c0.407-0.088,0.817-0.167,1.233-0.229
	c13.354-1.981,45.302,13.209,36.558,28.461c-4.014,6.998-63.711,1.886-64.855,1.886c-21.071,0-15.006-9.559-13.813-10.334
	c0.386-0.25,1.287-0.298,2.481-0.246C273.45,448.969,282.844,450.756,284.275,448.094z"/>
<path fill="#BFBFC0" d="M137.429,253.405c4.354,0,7.882-3.527,7.882-7.883c0-4.354-3.528-7.883-7.882-7.883V253.405z"/>
<path fill="#BFBFC0" d="M137.429,295.128c4.354,0,7.882-3.529,7.882-7.882c0-4.355-3.528-7.885-7.882-7.885V295.128z"/>
<circle fill="#BFBFC0" cx="163.333" cy="308.458" r="7.946"/>
<circle fill="#BFBFC0" cx="163.333" cy="267.581" r="7.946"/>
<circle fill="#BFBFC0" cx="163.333" cy="223.418" r="7.946"/>
<path fill="#9C9D9D" d="M372.675,253.405c-4.354,0-7.882-3.527-7.882-7.883c0-4.354,3.528-7.883,7.882-7.883V253.405z"/>
<path fill="#9C9D9D" d="M372.675,295.128c-4.354,0-7.882-3.529-7.882-7.882c0-4.355,3.528-7.885,7.882-7.885V295.128z"/>
<circle fill="#BFBFC0" cx="346.771" cy="308.458" r="7.946"/>
<circle fill="#BFBFC0" cx="346.771" cy="267.581" r="7.946"/>
<circle fill="#BFBFC0" cx="346.771" cy="223.418" r="7.946"/>
<circle fill="#BFBFC0" cx="204.867" cy="337.235" r="7.946"/>
<circle fill="#BFBFC0" cx="204.867" cy="296.358" r="7.946"/>
<circle fill="#BFBFC0" cx="204.867" cy="252.195" r="7.946"/>
<path fill="#BFBFC0" d="M212.813,207.457c0,4.389-3.557,7.946-7.946,7.946c-4.388,0-7.946-3.557-7.946-7.946H212.813z"/>
<circle fill="#BFBFC0" cx="222.995" cy="419.385" r="7.946"/>
<path fill="#BFBFC0" d="M230.941,374.647c0,4.389-3.557,7.945-7.946,7.945c-4.388,0-7.946-3.557-7.946-7.945H230.941z"/>
<circle fill="#BFBFC0" cx="286.569" cy="419.385" r="7.946"/>
<path fill="#BFBFC0" d="M294.515,374.647c0,4.389-3.556,7.945-7.945,7.945c-4.389,0-7.946-3.557-7.946-7.945H294.515z"/>
<path fill="#BFBFC0" d="M313.271,207.457c0,4.389-3.556,7.946-7.945,7.946c-4.389,0-7.946-3.557-7.946-7.946H313.271z"/>
<circle fill="#BFBFC0" cx="237.863" cy="358.274" r="7.946"/>
<circle fill="#BFBFC0" cx="237.863" cy="317.398" r="7.946"/>
<circle fill="#BFBFC0" cx="237.863" cy="273.234" r="7.946"/>
<circle fill="#BFBFC0" cx="272.33" cy="337.235" r="7.946"/>
<circle fill="#BFBFC0" cx="272.33" cy="296.358" r="7.946"/>
<circle fill="#BFBFC0" cx="272.33" cy="252.195" r="7.946"/>
<circle fill="#9C9D9D" cx="305.325" cy="358.274" r="7.946"/>
<circle fill="#9C9D9D" cx="305.325" cy="317.398" r="7.946"/>
<circle fill="#BFBFC0" cx="305.325" cy="273.234" r="7.946"/>
<g>
	<path fill="#BFBFC0" d="M397.913,332.087c-2.46-5.435-5.486-10.085-8.563-13.469c6.896-1.769,13.128-6.133,17.1-12.71
		c1.514-2.506,2.589-5.152,3.252-7.854c3.93,0.505,7.971-1.285,10.149-4.896c2.946-4.875,1.381-11.217-3.497-14.164
		c-2.853-1.725-6.208-1.894-9.09-0.765c-2.306-4.393-5.805-8.23-10.358-10.983c-4.558-2.753-9.582-4.061-14.544-4.06
		c-0.344-3.075-2.052-5.966-4.907-7.688c-4.876-2.946-11.218-1.381-14.164,3.498c-2.18,3.607-1.884,8.017,0.393,11.259
		c-2.085,1.844-3.928,4.027-5.44,6.536c-3.636,6.019-4.745,12.854-3.649,19.282c-4.938-0.001-11.146,1.245-17.538,3.766
		c-13.14,5.179-22.063,13.76-19.933,19.163c1.891,4.795,11.844,5.477,23.237,1.956c-1.684,1.912-3.243,4.018-4.634,6.319
		c-2.285,3.784-4.191,7.562-5.548,11.265c-2.361-3.979-5.956-6.587-10.088-6.77c-7.637-0.343-14.199,7.716-14.659,17.999
		c-0.461,10.283,5.358,18.896,12.995,19.24c5.073,0.225,9.675-3.261,12.323-8.643c1.991,3.368,5.108,6.465,9.611,9.187
		c1.181,0.712,2.336,1.318,3.474,1.847c-2.309,4.286-2.654,8.944-0.48,12.664c3.856,6.603,14.187,7.742,23.074,2.55
		s12.967-14.751,9.111-21.354c-0.521-0.892-1.163-1.68-1.903-2.371c2.236-2.643,4.334-5.649,6.304-8.911
		c1.123-1.856,2.079-3.757,2.887-5.672c5.403,8.435,11.875,13.3,16.041,11.412C404.161,357.327,403.733,344.955,397.913,332.087z"/>
	<path fill="#9C9D9D" d="M385.139,307.646c-3.091,5.112-9.739,6.754-14.852,3.666c-5.112-3.089-6.754-9.738-3.667-14.852
		c3.091-5.111,9.738-6.753,14.854-3.665C386.584,295.882,388.226,302.532,385.139,307.646z"/>
	<g>
		<path fill="#9C9D9D" d="M374.595,288.485c-0.683,1.131-2.16,1.496-3.289,0.812c-1.135-0.685-1.497-2.158-0.813-3.292
			c0.687-1.133,2.159-1.496,3.29-0.812C374.916,285.878,375.278,287.353,374.595,288.485z"/>
		<circle fill="#9C9D9D" cx="390.541" cy="298.116" r="2.396"/>
	</g>
	<path fill="#9C9D9D" d="M383.859,304.155c0.088-0.187,0.008-0.409-0.177-0.495c-0.188-0.088-0.406-0.008-0.497,0.176
		c-0.027,0.063-0.76,1.56-2.36,1.039c-2.877-0.936-2.699-4.483-2.489-5.964c0.919,0.253,2.011-0.24,2.317-0.76
		c0.355-0.6-0.144-1.551-1.115-2.124c-0.97-0.574-2.044-0.553-2.398,0.045c-0.294,0.501-0.212,1.617,0.381,2.308
		c-1.171,0.889-4.23,2.813-6.464,0.719c-1.219-1.146-0.268-2.515-0.226-2.571c0.119-0.166,0.082-0.399-0.084-0.521
		c-0.167-0.119-0.397-0.079-0.52,0.084c-0.483,0.67-1.039,2.272,0.321,3.549c0.245,0.23,0.504,0.424,0.779,0.587
		c1.258,0.744,2.796,0.753,4.505,0.017c0.667-0.29,1.255-0.646,1.709-0.958c-0.058,0.549-0.088,1.229-0.02,1.957
		c0.174,1.854,0.925,3.198,2.185,3.943c0.272,0.159,0.567,0.293,0.888,0.397C382.37,306.159,383.506,304.9,383.859,304.155z"/>
	<path fill="#9C9D9D" d="M367.112,322.387c-0.858,1.423-2.708,1.881-4.131,1.021c-1.424-0.859-1.879-2.709-1.02-4.134
		c0.86-1.42,2.708-1.877,4.133-1.019C367.515,319.115,367.973,320.964,367.112,322.387z"/>
	<path fill="#9C9D9D" d="M360.99,332.523c-0.857,1.422-2.706,1.879-4.13,1.02c-1.424-0.86-1.879-2.711-1.021-4.132
		c0.861-1.422,2.711-1.88,4.134-1.021C361.394,329.251,361.852,331.1,360.99,332.523z"/>
	<circle fill="#9C9D9D" cx="352.293" cy="341.103" r="3.008"/>
</g>
<circle fill="#9C9D9D" cx="254.321" cy="248.607" r="3.486"/>
<circle fill="#9C9D9D" cx="252.965" cy="247.441" r="0.728"/>
<circle fill="#9C9D9D" cx="255.554" cy="247.441" r="0.728"/>
<circle fill="#9C9D9D" cx="252.965" cy="249.943" r="0.728"/>
<circle fill="#9C9D9D" cx="255.554" cy="249.943" r="0.728"/>
</svg>
