<?xml version="1.0" encoding="utf-8"?>
<!-- Generator: Adobe Illustrator 16.0.1, SVG Export Plug-In . SVG Version: 6.00 Build 0)  -->
<!DOCTYPE svg PUBLIC "-//W3C//DTD SVG 1.1//EN" "http://www.w3.org/Graphics/SVG/1.1/DTD/svg11.dtd">
<svg version="1.1" id="content" xmlns="http://www.w3.org/2000/svg" xmlns:xlink="http://www.w3.org/1999/xlink" x="0px" y="0px"
	 width="500px" height="500px" viewBox="0 0 500 500" enable-background="new 0 0 500 500" xml:space="preserve">
<g id="bounds">
	<rect fill="none" width="500" height="500"/>
</g>
<g>
	<path fill="#BFBFC0" d="M222.61,344.633h-1.966c-11.247,0-20.448,9.571-20.448,21.266v75.964h42.862v-27.824v-4.146V365.9
		C243.058,354.204,233.856,344.633,222.61,344.633z"/>
	<path fill="#BFBFC0" d="M286.564,344.631h-2.543c-11.389,0-20.707,9.693-20.707,21.54v43.722h-0.16v4.146h0.16v27.555h43.959
		v-27.555v-4.146v-43.722C307.273,354.324,297.955,344.631,286.564,344.631z"/>
</g>
<g>
	<path fill="#9C9D9D" d="M314.511,357.018c-0.841,9.873-9.637,17.95-19.545,17.95h-82.714c-9.909,0-18.692-8.079-19.518-17.952
		l-10.98-131.25c-0.826-9.874,6.605-17.953,16.514-17.953h110.936c9.908,0,17.327,8.078,16.486,17.951L314.511,357.018z"/>
</g>
<g>
	<path fill="#9C9D9D" d="M314.511,357.018c-0.841,9.873-9.637,17.95-19.545,17.95h-82.714c-9.909,0-18.692-8.079-19.518-17.952
		l-10.98-131.25c-0.826-9.874,6.605-17.953,16.514-17.953h110.936c9.908,0,17.327,8.078,16.486,17.951L314.511,357.018z"/>
</g>
<g>
	<g>
		<path fill="#BFBFC0" d="M175.505,326.413c0,10.021-8.198,18.218-18.217,18.218h-0.493c-10.02,0-18.217-8.197-18.217-18.218V226.03
			c0-10.02,8.198-18.217,18.217-18.217h0.493c10.02,0,18.217,8.198,18.217,18.217V326.413z"/>
	</g>
</g>
<g>
	<g>
		<path fill="#BFBFC0" d="M368.894,326.413c0,10.021-8.197,18.218-18.218,18.218h-0.493c-10.02,0-18.218-8.197-18.218-18.218V226.03
			c0-10.02,8.198-18.217,18.218-18.217h0.493c10.021,0,18.218,8.198,18.218,18.217V326.413z"/>
	</g>
</g>
<g>
	<circle fill="#BFBFC0" cx="253.734" cy="131.519" r="71.68"/>
</g>
<g>
	<circle fill="#FFFFFF" cx="226.633" cy="124.106" r="12.645"/>
	<circle fill="#FFFFFF" cx="279.812" cy="124.106" r="12.645"/>
	<path fill="#FFFFFF" d="M266.38,159.908c0,6.983-5.659,12.644-12.646,12.644c-6.982,0-12.645-5.661-12.645-12.644H266.38z"/>
</g>
<g>
	<path fill="#9C9D9D" d="M222.609,440.202h-1.963c-11.217,0-20.396-9.892-20.396-21.978v20.062c0,12.088,9.179,21.978,20.396,21.978
		h1.963c11.219,0,20.397-9.89,20.397-21.978v-20.062C243.006,430.312,233.828,440.202,222.609,440.202z"/>
</g>
<g>
	<path fill="#9C9D9D" d="M286.33,440.202h-2.027c-11.584,0-21.064-9.892-21.064-21.978v20.062c0,12.088,9.48,21.978,21.064,21.978
		h2.027c11.585,0,21.063-9.89,21.063-21.978v-20.062C307.395,430.312,297.915,440.202,286.33,440.202z"/>
</g>
<path fill="#9C9D9D" d="M302.766,73.516c-12.814-8.314-24.817-14.65-48.231-14.65c-23.416,0-35.421,6.336-48.235,14.65
	c-49.315,31.985-9.935,75.375-9.935,75.375c-2.209-52.988,6.989-59.17,15.457-62.878c8.38-3.664,25.403,7.461,42.443,7.693v0.01
	c0.09,0,0.18-0.004,0.271-0.004c0.088,0,0.178,0.004,0.267,0.004v-0.01c17.046-0.232,34.068-11.357,42.447-7.693
	c8.464,3.708,17.662,9.89,15.456,62.878C312.703,148.891,352.084,105.501,302.766,73.516z"/>
<path fill="#9C9D9D" d="M194.895,81.273c-5.063-13.181-47.575-18.043-47.575,36.103c0,20.495,10.085,24.747,10.085,43.87
	c0,19.124-15.13,21.249-18.828,16.292c0,0,36.984,38.955,57.91-16.775C196.487,160.762,208.083,111.759,194.895,81.273z"/>
<path fill="#9C9D9D" d="M313.578,81.273c5.062-13.181,47.575-18.043,47.575,36.103c0,20.495-10.086,24.747-10.086,43.87
	c0,19.124,15.132,21.249,18.826,16.292c0,0-36.982,38.955-57.907-16.775C311.986,160.762,300.39,111.759,313.578,81.273z"/>
<g>
	<polygon fill="#9C9D9D" points="260.264,277.1 243.603,277.1 202.23,207.813 305.083,207.813 	"/>
</g>
<polygon fill="#BFBFC0" points="223.147,207.576 241.562,224.351 253.309,258.473 264.999,223.988 284.367,207.671 "/>
<polygon fill="#9C9D9D" points="241.562,224.351 221.736,242.456 217.674,207.813 223.147,207.576 "/>
<polygon fill="#9C9D9D" points="265.85,224.351 285.675,242.456 289.736,207.813 284.264,207.576 "/>
<polygon fill="#BFBFC0" points="241.562,224.351 217.848,240.64 217.674,207.813 223.147,207.576 "/>
<polygon fill="#BFBFC0" points="264.999,223.988 289.232,240.747 289.232,207.671 284.367,207.671 "/>
<path fill="#9C9D9D" d="M178.296,264.869c0,12.583-42.506,12.583-42.506,0v-36.92c0-12.583,8.218-22.879,18.262-22.879h5.98
	c10.044,0,18.263,10.296,18.263,22.879L178.296,264.869L178.296,264.869z"/>
<path fill="#9C9D9D" d="M135.885,260.891v5.062c0,12.582,42.505,12.582,42.505,0v-5.062
	C178.391,273.473,135.885,273.473,135.885,260.891z"/>
<path fill="#9C9D9D" d="M371.635,264.869c0,12.583-42.505,12.583-42.505,0v-36.92c0-12.583,8.218-22.879,18.262-22.879h5.979
	c10.046,0,18.265,10.296,18.265,22.879L371.635,264.869L371.635,264.869z"/>
<path fill="#9C9D9D" d="M329.224,260.891v5.062c0,12.582,42.505,12.582,42.505,0v-5.062
	C371.729,273.473,329.224,273.473,329.224,260.891z"/>
<g>
	<path id="SVGID_2_" fill="#9C9D9D" d="M329.553,414.627c0,0-8.333,10.966-26.717,5.161c-12.091,7.912-29.993,3.268-31.081,1.694
		c-7.729,3.647-13.572,4.926-17.928,4.997c-4.353-0.071-10.196-1.35-17.926-4.997c-1.089,1.574-21.194,7.233-31.083-1.694
		c-18.383,5.804-26.715-5.161-26.715-5.161l13.436-52.913H313.09L329.553,414.627z"/>
</g>
<g>
	<path fill="#BFBFC0" d="M200.072,420.969c0.56-0.102,1.132-0.221,1.714-0.355v-1.645h-1.714V420.969z"/>
	<rect x="200.072" y="361.714" fill="#BFBFC0" width="1.714" height="6.58"/>
	<rect x="200.072" y="399.675" fill="#BFBFC0" width="1.714" height="7.692"/>
	<rect x="200.072" y="409.081" fill="#BFBFC0" width="1.714" height="8.174"/>
	<rect x="200.072" y="389.302" fill="#BFBFC0" width="1.714" height="8.659"/>
	<rect x="200.072" y="380.38" fill="#BFBFC0" width="1.714" height="7.208"/>
	<rect x="200.072" y="370.008" fill="#BFBFC0" width="1.714" height="8.658"/>
	<polygon fill="#BFBFC0" points="192.081,361.714 191.539,361.714 190.368,366.325 190.368,368.294 192.081,368.294 	"/>
	<rect x="190.368" y="380.38" fill="#BFBFC0" width="1.713" height="7.208"/>
	<path fill="#BFBFC0" d="M190.368,421.143c0.55,0.091,1.124,0.162,1.713,0.217v-2.391h-1.713V421.143z"/>
	<rect x="190.368" y="399.675" fill="#BFBFC0" width="1.713" height="7.692"/>
	<rect x="190.368" y="389.302" fill="#BFBFC0" width="1.713" height="8.659"/>
	<rect x="190.368" y="370.008" fill="#BFBFC0" width="1.713" height="8.658"/>
	<rect x="190.368" y="409.081" fill="#BFBFC0" width="1.713" height="8.174"/>
	<rect x="210.458" y="399.675" fill="#BFBFC0" width="1.713" height="7.692"/>
	<rect x="210.458" y="361.714" fill="#BFBFC0" width="1.713" height="6.58"/>
	<rect x="210.458" y="380.38" fill="#BFBFC0" width="1.713" height="7.208"/>
	<rect x="210.458" y="409.081" fill="#BFBFC0" width="1.713" height="8.174"/>
	<rect x="210.458" y="389.302" fill="#BFBFC0" width="1.713" height="8.659"/>
	<path fill="#BFBFC0" d="M210.458,423.106c0.561,0.208,1.133,0.393,1.713,0.555v-4.692h-1.713V423.106z"/>
	<rect x="210.458" y="370.008" fill="#BFBFC0" width="1.713" height="8.658"/>
	<rect x="220.852" y="361.714" fill="#BFBFC0" width="1.713" height="6.58"/>
	<rect x="220.852" y="409.081" fill="#BFBFC0" width="1.713" height="8.174"/>
	<rect x="220.852" y="370.008" fill="#BFBFC0" width="1.713" height="8.658"/>
	<path fill="#BFBFC0" d="M220.852,424.694c0.576-0.006,1.148-0.021,1.713-0.052v-5.674h-1.713V424.694z"/>
	<rect x="220.852" y="399.675" fill="#BFBFC0" width="1.713" height="7.692"/>
	<rect x="220.852" y="380.38" fill="#BFBFC0" width="1.713" height="7.208"/>
	<rect x="220.852" y="389.302" fill="#BFBFC0" width="1.713" height="8.659"/>
	<rect x="230.969" y="370.008" fill="#BFBFC0" width="1.714" height="8.658"/>
	<rect x="230.969" y="409.081" fill="#BFBFC0" width="1.714" height="8.174"/>
	<rect x="230.969" y="380.38" fill="#BFBFC0" width="1.714" height="7.208"/>
	<path fill="#BFBFC0" d="M230.969,423.401c0.618-0.154,1.192-0.312,1.714-0.472v-3.961h-1.714V423.401z"/>
	<rect x="230.969" y="361.714" fill="#BFBFC0" width="1.714" height="6.58"/>
	<rect x="230.969" y="399.675" fill="#BFBFC0" width="1.714" height="7.692"/>
	<rect x="230.969" y="389.302" fill="#BFBFC0" width="1.714" height="8.659"/>
	<path fill="#BFBFC0" d="M241.63,423.893c0.584,0.214,1.155,0.411,1.713,0.596v-5.52h-1.713V423.893z"/>
	<rect x="241.63" y="409.081" fill="#BFBFC0" width="1.713" height="8.174"/>
	<rect x="241.63" y="380.38" fill="#BFBFC0" width="1.713" height="7.208"/>
	<rect x="241.63" y="399.675" fill="#BFBFC0" width="1.713" height="7.692"/>
	<rect x="241.63" y="370.008" fill="#BFBFC0" width="1.713" height="8.658"/>
	<rect x="241.63" y="389.302" fill="#BFBFC0" width="1.713" height="8.659"/>
	<rect x="241.63" y="361.714" fill="#BFBFC0" width="1.713" height="6.58"/>
	<rect x="251.747" y="409.081" fill="#BFBFC0" width="1.714" height="8.174"/>
	<rect x="251.747" y="399.675" fill="#BFBFC0" width="1.714" height="7.692"/>
	<rect x="251.747" y="370.008" fill="#BFBFC0" width="1.714" height="8.658"/>
	<rect x="251.747" y="380.38" fill="#BFBFC0" width="1.714" height="7.208"/>
	<rect x="251.747" y="361.714" fill="#BFBFC0" width="1.714" height="6.58"/>
	<path fill="#BFBFC0" d="M251.747,426.356c0.595,0.057,1.166,0.094,1.714,0.11v-7.498h-1.714V426.356z"/>
	<rect x="251.747" y="389.302" fill="#BFBFC0" width="1.714" height="8.659"/>
	<path fill="#BFBFC0" d="M262.409,425.076c0.556-0.159,1.128-0.334,1.713-0.524v-5.583h-1.713V425.076z"/>
	<rect x="262.409" y="399.675" fill="#BFBFC0" width="1.713" height="7.692"/>
	<rect x="262.409" y="370.008" fill="#BFBFC0" width="1.713" height="8.658"/>
	<rect x="262.409" y="380.38" fill="#BFBFC0" width="1.713" height="7.208"/>
	<rect x="262.409" y="361.714" fill="#BFBFC0" width="1.713" height="6.58"/>
	<rect x="262.409" y="389.302" fill="#BFBFC0" width="1.713" height="8.659"/>
	<rect x="262.409" y="409.081" fill="#BFBFC0" width="1.713" height="8.174"/>
	<rect x="272.526" y="361.714" fill="#BFBFC0" width="1.714" height="6.58"/>
	<rect x="272.526" y="380.38" fill="#BFBFC0" width="1.714" height="7.208"/>
	<rect x="272.526" y="399.675" fill="#BFBFC0" width="1.714" height="7.692"/>
	<rect x="272.526" y="370.008" fill="#BFBFC0" width="1.714" height="8.658"/>
	<path fill="#BFBFC0" d="M272.526,422.012c0.423,0.207,1.007,0.431,1.714,0.654v-3.697h-1.714V422.012z"/>
	<rect x="272.526" y="389.302" fill="#BFBFC0" width="1.714" height="8.659"/>
	<rect x="272.526" y="409.081" fill="#BFBFC0" width="1.714" height="8.174"/>
	<rect x="283.186" y="389.302" fill="#BFBFC0" width="1.714" height="8.659"/>
	<rect x="283.186" y="399.675" fill="#BFBFC0" width="1.714" height="7.692"/>
	<rect x="283.186" y="409.081" fill="#BFBFC0" width="1.714" height="8.174"/>
	<path fill="#BFBFC0" d="M283.186,424.192c0.561,0.034,1.134,0.054,1.714,0.066v-5.29h-1.714V424.192z"/>
	<rect x="283.186" y="370.008" fill="#BFBFC0" width="1.714" height="8.658"/>
	<rect x="283.186" y="361.714" fill="#BFBFC0" width="1.714" height="6.58"/>
	<rect x="283.186" y="380.38" fill="#BFBFC0" width="1.714" height="7.208"/>
	<rect x="293.305" y="370.008" fill="#BFBFC0" width="1.713" height="8.658"/>
	<rect x="293.305" y="389.302" fill="#BFBFC0" width="1.713" height="8.659"/>
	<rect x="293.305" y="399.675" fill="#BFBFC0" width="1.713" height="7.692"/>
	<rect x="293.305" y="361.714" fill="#BFBFC0" width="1.713" height="6.58"/>
	<rect x="293.305" y="380.38" fill="#BFBFC0" width="1.713" height="7.208"/>
	<path fill="#BFBFC0" d="M293.305,423.555c0.572-0.116,1.144-0.249,1.713-0.396v-4.189h-1.713V423.555z"/>
	<rect x="293.305" y="409.081" fill="#BFBFC0" width="1.713" height="8.174"/>
	<rect x="303.965" y="370.008" fill="#BFBFC0" width="1.714" height="8.658"/>
	<rect x="303.965" y="399.675" fill="#BFBFC0" width="1.714" height="7.692"/>
	<path fill="#BFBFC0" d="M303.965,420.119c0.581,0.165,1.153,0.315,1.714,0.447v-1.598h-1.714V420.119z"/>
	<rect x="303.965" y="380.38" fill="#BFBFC0" width="1.714" height="7.208"/>
	<rect x="303.965" y="361.714" fill="#BFBFC0" width="1.714" height="6.58"/>
	<rect x="303.965" y="409.081" fill="#BFBFC0" width="1.714" height="8.174"/>
	<rect x="303.965" y="389.302" fill="#BFBFC0" width="1.714" height="8.659"/>
	<rect x="314.083" y="399.675" fill="#BFBFC0" width="1.714" height="7.692"/>
	<rect x="314.083" y="380.38" fill="#BFBFC0" width="1.714" height="7.208"/>
	<polygon fill="#BFBFC0" points="314.083,378.666 315.797,378.666 315.797,370.413 315.67,370.008 314.083,370.008 	"/>
	<rect x="314.083" y="409.081" fill="#BFBFC0" width="1.714" height="8.174"/>
	<path fill="#BFBFC0" d="M314.083,421.457c0.588-0.022,1.161-0.059,1.714-0.116v-2.372h-1.714V421.457z"/>
	<rect x="314.083" y="389.302" fill="#BFBFC0" width="1.714" height="8.659"/>
	<polygon fill="#BFBFC0" points="314.083,364.906 314.083,368.294 315.138,368.294 	"/>
	<polygon fill="#BFBFC0" points="200.072,380.38 201.786,380.38 210.458,380.38 212.171,380.38 220.852,380.38 222.565,380.38 
		230.969,380.38 232.683,380.38 241.63,380.38 243.343,380.38 251.747,380.38 253.461,380.38 262.409,380.38 264.122,380.38 
		272.526,380.38 274.24,380.38 283.186,380.38 284.899,380.38 293.305,380.38 295.018,380.38 303.965,380.38 305.679,380.38 
		314.083,380.38 315.797,380.38 318.897,380.38 318.364,378.666 315.797,378.666 314.083,378.666 305.679,378.666 303.965,378.666 
		295.018,378.666 293.305,378.666 284.899,378.666 283.186,378.666 274.24,378.666 272.526,378.666 264.122,378.666 
		262.409,378.666 253.461,378.666 251.747,378.666 243.343,378.666 241.63,378.666 232.683,378.666 230.969,378.666 
		222.565,378.666 220.852,378.666 212.171,378.666 210.458,378.666 201.786,378.666 200.072,378.666 192.081,378.666 
		190.368,378.666 187.233,378.666 186.798,380.38 190.368,380.38 192.081,380.38 	"/>
	<polygon fill="#BFBFC0" points="200.072,370.008 201.786,370.008 210.458,370.008 212.171,370.008 220.852,370.008 
		222.565,370.008 230.969,370.008 232.683,370.008 241.63,370.008 243.343,370.008 251.747,370.008 253.461,370.008 
		262.409,370.008 264.122,370.008 272.526,370.008 274.24,370.008 283.186,370.008 284.899,370.008 293.305,370.008 
		295.018,370.008 303.965,370.008 305.679,370.008 314.083,370.008 315.67,370.008 315.138,368.294 314.083,368.294 
		305.679,368.294 303.965,368.294 295.018,368.294 293.305,368.294 284.899,368.294 283.186,368.294 274.24,368.294 
		272.526,368.294 264.122,368.294 262.409,368.294 253.461,368.294 251.747,368.294 243.343,368.294 241.63,368.294 
		232.683,368.294 230.969,368.294 222.565,368.294 220.852,368.294 212.171,368.294 210.458,368.294 201.786,368.294 
		200.072,368.294 192.081,368.294 190.368,368.294 189.868,368.294 189.433,370.008 190.368,370.008 192.081,370.008 	"/>
	<polygon fill="#BFBFC0" points="200.072,399.675 201.786,399.675 210.458,399.675 212.171,399.675 220.852,399.675 
		222.565,399.675 230.969,399.675 232.683,399.675 241.63,399.675 243.343,399.675 251.747,399.675 253.461,399.675 
		262.409,399.675 264.122,399.675 272.526,399.675 274.24,399.675 283.186,399.675 284.899,399.675 293.305,399.675 
		295.018,399.675 303.965,399.675 305.679,399.675 314.083,399.675 315.797,399.675 324.901,399.675 324.368,397.961 
		315.797,397.961 314.083,397.961 305.679,397.961 303.965,397.961 295.018,397.961 293.305,397.961 284.899,397.961 
		283.186,397.961 274.24,397.961 272.526,397.961 264.122,397.961 262.409,397.961 253.461,397.961 251.747,397.961 
		243.343,397.961 241.63,397.961 232.683,397.961 230.969,397.961 222.565,397.961 220.852,397.961 212.171,397.961 
		210.458,397.961 201.786,397.961 200.072,397.961 192.081,397.961 190.368,397.961 182.334,397.961 181.899,399.675 
		190.368,399.675 192.081,399.675 	"/>
	<polygon fill="#BFBFC0" points="200.072,389.302 201.786,389.302 210.458,389.302 212.171,389.302 220.852,389.302 
		222.565,389.302 230.969,389.302 232.683,389.302 241.63,389.302 243.343,389.302 251.747,389.302 253.461,389.302 
		262.409,389.302 264.122,389.302 272.526,389.302 274.24,389.302 283.186,389.302 284.899,389.302 293.305,389.302 
		295.018,389.302 303.965,389.302 305.679,389.302 314.083,389.302 315.797,389.302 321.674,389.302 321.141,387.588 
		315.797,387.588 314.083,387.588 305.679,387.588 303.965,387.588 295.018,387.588 293.305,387.588 284.899,387.588 
		283.186,387.588 274.24,387.588 272.526,387.588 264.122,387.588 262.409,387.588 253.461,387.588 251.747,387.588 
		243.343,387.588 241.63,387.588 232.683,387.588 230.969,387.588 222.565,387.588 220.852,387.588 212.171,387.588 
		210.458,387.588 201.786,387.588 200.072,387.588 192.081,387.588 190.368,387.588 184.968,387.588 184.533,389.302 
		190.368,389.302 192.081,389.302 	"/>
	<path fill="#BFBFC0" d="M305.679,417.255h-1.714h-8.947h-1.713h-8.405h-1.714h-8.945h-1.714h-8.404h-1.713h-8.948h-1.714h-8.404
		h-1.713h-8.947h-1.714h-8.404h-1.713h-8.681h-1.713h-8.671h-1.714h-7.991h-1.713h-9.227v0.143c0.725,0.52,1.583,1.06,2.576,1.571
		h6.651h1.713h7.991h1.714h8.671h1.713h8.681h1.713h8.404h1.714h8.947h1.713h8.404h1.714h8.948h1.713h8.404h1.714h8.945h1.714h8.405
		h1.713h8.947h1.714h8.404h1.714h8.142c0.811-0.417,1.525-0.853,2.156-1.28v-0.434h-10.298h-1.714H305.679z"/>
	<polygon fill="#BFBFC0" points="305.679,407.367 303.965,407.367 295.018,407.367 293.305,407.367 284.899,407.367 
		283.186,407.367 274.24,407.367 272.526,407.367 264.122,407.367 262.409,407.367 253.461,407.367 251.747,407.367 
		243.343,407.367 241.63,407.367 232.683,407.367 230.969,407.367 222.565,407.367 220.852,407.367 212.171,407.367 
		210.458,407.367 201.786,407.367 200.072,407.367 192.081,407.367 190.368,407.367 181.141,407.367 181.141,409.081 
		190.368,409.081 192.081,409.081 200.072,409.081 201.786,409.081 210.458,409.081 212.171,409.081 220.852,409.081 
		222.565,409.081 230.969,409.081 232.683,409.081 241.63,409.081 243.343,409.081 251.747,409.081 253.461,409.081 
		262.409,409.081 264.122,409.081 272.526,409.081 274.24,409.081 283.186,409.081 284.899,409.081 293.305,409.081 
		295.018,409.081 303.965,409.081 305.679,409.081 314.083,409.081 315.797,409.081 326.095,409.081 326.095,407.367 
		315.797,407.367 314.083,407.367 	"/>
</g>
<g>
	<g>
		<path fill="#BFBFC0" d="M300.177,264.076l-10.944-6.051l-10.944,6.051c0,0-0.56,12.4,7.474,18.628
			c1.012,0.923,2.163,1.784,3.473,2.545c1.311-0.761,2.461-1.624,3.476-2.547C300.734,276.475,300.177,264.076,300.177,264.076z"/>
	</g>
</g>
<g>
	<g>
		<path fill="#BFBFC0" d="M289.232,283.576l-0.14-0.09c-0.84-0.551-1.638-1.168-2.372-1.838c-0.027-0.024-0.057-0.049-0.087-0.073
			c-6.161-4.776-6.854-13.839-6.92-16.502l-0.004-0.151l9.521-5.265l9.521,5.265l-0.004,0.153
			c-0.065,2.661-0.758,11.72-6.917,16.498c-0.03,0.024-0.06,0.049-0.087,0.073c-0.735,0.672-1.534,1.289-2.375,1.84L289.232,283.576
			z M280.225,265.215c0.086,2.783,0.846,11.408,6.719,15.962c0.041,0.032,0.08,0.066,0.117,0.101
			c0.676,0.613,1.403,1.186,2.172,1.697c0.769-0.513,1.5-1.084,2.174-1.699c0.037-0.033,0.078-0.067,0.117-0.099
			c5.873-4.558,6.632-13.179,6.719-15.962l-9.01-4.98L280.225,265.215z"/>
	</g>
</g>
<g>
	<g>
		<path fill="#BFBFC0" d="M289.232,284.564l-0.045-0.025c-1.084-0.659-2.104-1.424-3.031-2.27c-0.012-0.012-0.023-0.021-0.037-0.03
			c-6.936-5.378-7.258-15.738-7.25-17.763l0.001-0.05l10.362-5.731l10.363,5.731v0.05c0.005,2.023-0.316,12.381-7.25,17.76
			c-0.013,0.011-0.023,0.021-0.035,0.031c-0.929,0.848-1.951,1.611-3.035,2.271L289.232,284.564z M279.037,264.525
			c-0.001,2.123,0.365,12.293,7.186,17.582c0.018,0.012,0.031,0.023,0.047,0.037c0.908,0.828,1.903,1.576,2.963,2.225
			c1.06-0.646,2.058-1.396,2.967-2.227c0.014-0.014,0.029-0.025,0.046-0.037c6.816-5.289,7.186-15.457,7.185-17.58l-10.195-5.635
			L279.037,264.525z"/>
	</g>
</g>
<g>
	<g>
		<g>
			<g>
				<g>
					<g>
						<g>
							<path fill="#9C9D9D" d="M275.354,272.383c-0.022-0.354,0.068-0.604,0.166-0.867c0.11-0.301,0.226-0.613,0.176-1.138
								l0.219-0.019c0.053,0.57-0.075,0.92-0.189,1.229c-0.093,0.253-0.173,0.472-0.15,0.778L275.354,272.383z"/>
						</g>
					</g>
					<g>
						<g>
							<g>
								<path fill="#9C9D9D" d="M275.739,271.371c0,0-0.995-2.031,1.401-3.482C277.141,267.889,277.704,269.596,275.739,271.371z"/>
							</g>
						</g>
					</g>
				</g>
				<g>
					<g>
						<path fill="#9C9D9D" d="M275.82,271.023c0,0-0.084-0.381,0.391-1.483c0.443-1.028,0.795-1.331,0.795-1.331
							C275.52,269.236,275.666,270.484,275.82,271.023z"/>
					</g>
				</g>
			</g>
			<g>
				<g>
					<g>
						<g>
							<path fill="#9C9D9D" d="M276.27,275.134c-0.063-0.35-0.002-0.608,0.064-0.882c0.076-0.312,0.154-0.634,0.047-1.146
								l0.213-0.045c0.119,0.562,0.029,0.924-0.048,1.242c-0.063,0.264-0.118,0.487-0.063,0.791L276.27,275.134z"/>
						</g>
					</g>
					<g>
						<g>
							<g>
								<path fill="#9C9D9D" d="M276.535,274.086c0,0-1.217-1.906,1-3.621C277.535,270.465,278.287,272.098,276.535,274.086z"/>
							</g>
						</g>
					</g>
				</g>
				<g>
					<g>
						<path fill="#9C9D9D" d="M276.577,273.729c0,0-0.127-0.367,0.222-1.519c0.324-1.069,0.639-1.41,0.639-1.41
							C276.075,271.988,276.363,273.216,276.577,273.729z"/>
					</g>
				</g>
			</g>
			<g>
				<g>
					<g>
						<g>
							<path fill="#9C9D9D" d="M277.413,277.766c-0.101-0.34-0.065-0.604-0.029-0.884c0.042-0.319,0.085-0.647-0.075-1.146
								l0.207-0.068c0.178,0.546,0.129,0.916,0.086,1.242c-0.035,0.268-0.066,0.496,0.021,0.793L277.413,277.766z"/>
						</g>
					</g>
					<g>
						<g>
							<g>
								<path fill="#9C9D9D" d="M277.566,276.695c0,0-1.416-1.766,0.604-3.709C278.172,272.986,279.096,274.529,277.566,276.695z"/>
							</g>
						</g>
					</g>
				</g>
				<g>
					<g>
						<path fill="#9C9D9D" d="M277.57,276.336c0,0-0.168-0.354,0.056-1.531c0.207-1.102,0.483-1.472,0.483-1.472
							C276.885,274.66,277.301,275.848,277.57,276.336z"/>
					</g>
				</g>
			</g>
			<g>
				<g>
					<g>
						<g>
							<path fill="#BFBFC0" d="M278.703,280.329c-0.121-0.332-0.104-0.599-0.085-0.88c0.022-0.321,0.045-0.651-0.147-1.141
								l0.202-0.08c0.211,0.535,0.187,0.906,0.164,1.235c-0.019,0.269-0.034,0.5,0.07,0.789L278.703,280.329z"/>
						</g>
					</g>
					<g>
						<g>
							<g>
								<path fill="#BFBFC0" d="M278.789,279.249c0,0-1.523-1.671,0.371-3.735C279.16,275.514,280.178,276.993,278.789,279.249z"/>
							</g>
						</g>
					</g>
				</g>
				<g>
					<g>
						<path fill="#BFBFC0" d="M278.77,278.893c0,0-0.188-0.342-0.039-1.533c0.139-1.111,0.391-1.498,0.391-1.498
							C277.98,277.264,278.473,278.422,278.77,278.893z"/>
					</g>
				</g>
			</g>
			<g>
				<g>
					<g>
						<g>
							<path fill="#BFBFC0" d="M280.407,282.854c-0.159-0.318-0.173-0.584-0.185-0.867c-0.016-0.319-0.029-0.65-0.275-1.112
								l0.191-0.103c0.271,0.504,0.287,0.877,0.303,1.207c0.013,0.27,0.021,0.502,0.16,0.776L280.407,282.854z"/>
						</g>
					</g>
					<g>
						<g>
							<g>
								<path fill="#BFBFC0" d="M280.371,281.771c0,0-1.704-1.489-0.055-3.756C280.316,278.018,281.495,279.372,280.371,281.771z"/>
							</g>
						</g>
					</g>
				</g>
				<g>
					<g>
						<path fill="#BFBFC0" d="M280.311,281.418c0,0-0.225-0.318-0.213-1.52c0.012-1.121,0.219-1.533,0.219-1.533
							C279.341,279.889,279.961,280.982,280.311,281.418z"/>
					</g>
				</g>
			</g>
			<g>
				<g>
					<g>
						<g>
							<path fill="#BFBFC0" d="M282.324,285.104c-0.186-0.304-0.219-0.567-0.256-0.846c-0.041-0.318-0.084-0.648-0.369-1.09
								l0.184-0.118c0.312,0.482,0.359,0.853,0.404,1.181c0.033,0.266,0.062,0.496,0.227,0.761L282.324,285.104z"/>
						</g>
					</g>
					<g>
						<g>
							<g>
								<path fill="#BFBFC0" d="M282.197,284.027c0,0-1.822-1.34-0.37-3.736C281.827,280.291,283.116,281.543,282.197,284.027z"/>
							</g>
						</g>
					</g>
				</g>
				<g>
					<g>
						<path fill="#BFBFC0" d="M282.107,283.682c0,0-0.25-0.298-0.34-1.494c-0.084-1.117,0.088-1.549,0.088-1.549
							C281.016,282.239,281.725,283.277,282.107,283.682z"/>
					</g>
				</g>
			</g>
			<g>
				<g>
					<g>
						<g>
							<path fill="#BFBFC0" d="M284.516,286.965c-0.221-0.279-0.285-0.538-0.354-0.811c-0.078-0.312-0.159-0.635-0.496-1.036
								l0.168-0.14c0.367,0.439,0.46,0.803,0.541,1.123c0.065,0.258,0.122,0.484,0.313,0.728L284.516,286.965z"/>
						</g>
					</g>
					<g>
						<g>
							<g>
								<path fill="#BFBFC0" d="M284.261,285.913c0,0-1.969-1.113-0.812-3.666C283.449,282.247,284.877,283.334,284.261,285.913z"/>
							</g>
						</g>
					</g>
				</g>
				<g>
					<g>
						<path fill="#BFBFC0" d="M284.131,285.579c0,0-0.285-0.267-0.516-1.444c-0.217-1.101-0.096-1.548-0.096-1.548
							C282.872,284.273,283.7,285.225,284.131,285.579z"/>
					</g>
				</g>
			</g>
			<g>
				<g>
					<g>
						<g>
							<path fill="#BFBFC0" d="M286.891,288.771c-0.238-0.266-0.32-0.519-0.408-0.785c-0.099-0.307-0.2-0.621-0.562-1.004
								l0.158-0.149c0.396,0.417,0.51,0.771,0.61,1.085c0.084,0.257,0.154,0.479,0.361,0.706L286.891,288.771z"/>
						</g>
					</g>
					<g>
						<g>
							<g>
								<path fill="#BFBFC0" d="M286.566,287.736c0,0-2.037-0.983-1.047-3.605C285.52,284.131,287.016,285.126,286.566,287.736z"/>
							</g>
						</g>
					</g>
				</g>
				<g>
					<g>
						<path fill="#BFBFC0" d="M286.416,287.414c0,0-0.303-0.249-0.607-1.41c-0.287-1.082-0.197-1.535-0.197-1.535
							C285.076,286.193,285.963,287.088,286.416,287.414z"/>
					</g>
				</g>
			</g>
			<g>
				<g>
					<g>
						<g>
							<path fill="#9C9D9D" d="M275.279,271.866c-0.137-0.341-0.307-0.54-0.487-0.753c-0.213-0.248-0.457-0.529-0.667-1.086
								l0.204-0.078c0.198,0.52,0.417,0.775,0.629,1.023c0.192,0.227,0.374,0.438,0.524,0.812L275.279,271.866z"/>
						</g>
					</g>
					<g>
						<g>
							<g>
								<path fill="#9C9D9D" d="M274.646,270.669c0,0-2.217-0.451-1.904-3.235C272.742,267.434,274.438,268.027,274.646,270.669z"/>
							</g>
						</g>
					</g>
				</g>
				<g>
					<g>
						<path fill="#9C9D9D" d="M274.42,270.393c0,0-0.354-0.166-0.938-1.217c-0.543-0.979-0.568-1.438-0.568-1.438
							C272.82,269.542,273.9,270.188,274.42,270.393z"/>
					</g>
				</g>
			</g>
			<g>
				<g>
					<g>
						<g>
							<path fill="#9C9D9D" d="M276.079,274.632c-0.171-0.327-0.36-0.508-0.56-0.7c-0.236-0.229-0.508-0.484-0.771-1.02l0.195-0.098
								c0.246,0.498,0.49,0.732,0.726,0.959c0.214,0.205,0.415,0.398,0.603,0.756L276.079,274.632z"/>
						</g>
					</g>
					<g>
						<g>
							<g>
								<path fill="#9C9D9D" d="M275.331,273.501c0,0-2.251-0.231-2.213-3.036C273.118,270.465,274.865,270.893,275.331,273.501z"/>
							</g>
						</g>
					</g>
				</g>
				<g>
					<g>
						<path fill="#9C9D9D" d="M275.078,273.246c0,0-0.368-0.129-1.053-1.118c-0.637-0.919-0.707-1.376-0.707-1.376
							C273.402,272.557,274.541,273.096,275.078,273.246z"/>
					</g>
				</g>
			</g>
			<g>
				<g>
					<g>
						<g>
							<path fill="#9C9D9D" d="M277.211,277.454c-0.193-0.315-0.395-0.483-0.605-0.661c-0.252-0.211-0.539-0.451-0.838-0.963
								l0.188-0.111c0.279,0.479,0.541,0.696,0.79,0.906c0.228,0.189,0.44,0.37,0.651,0.714L277.211,277.454z"/>
						</g>
					</g>
					<g>
						<g>
							<g>
								<path fill="#9C9D9D" d="M276.389,276.376c0,0-2.263-0.077-2.414-2.875C273.975,273.501,275.744,273.805,276.389,276.376z"/>
							</g>
						</g>
					</g>
				</g>
				<g>
					<g>
						<path fill="#9C9D9D" d="M276.118,276.139c0,0-0.376-0.103-1.124-1.043c-0.699-0.873-0.803-1.324-0.803-1.324
							C274.4,275.566,275.572,276.023,276.118,276.139z"/>
					</g>
				</g>
			</g>
			<g>
				<g>
					<g>
						<g>
							<path fill="#BFBFC0" d="M278.564,280.061c-0.223-0.293-0.438-0.442-0.666-0.6c-0.271-0.186-0.578-0.396-0.926-0.878
								l0.176-0.129c0.326,0.45,0.604,0.644,0.875,0.827c0.242,0.168,0.474,0.324,0.715,0.648L278.564,280.061z"/>
						</g>
					</g>
					<g>
						<g>
							<g>
								<path fill="#9C9D9D" d="M277.643,279.066c0,0-2.258,0.14-2.679-2.633C274.964,276.436,276.757,276.57,277.643,279.066z"/>
							</g>
						</g>
					</g>
				</g>
				<g>
					<g>
						<path fill="#9C9D9D" d="M277.352,278.855c0,0-0.384-0.067-1.219-0.929c-0.779-0.807-0.923-1.243-0.923-1.243
							C275.587,278.45,276.798,278.794,277.352,278.855z"/>
					</g>
				</g>
			</g>
			<g>
				<g>
					<g>
						<g>
							<path fill="#BFBFC0" d="M280.189,282.652c-0.24-0.279-0.467-0.413-0.705-0.553c-0.283-0.168-0.604-0.356-0.984-0.813
								l0.168-0.14c0.355,0.427,0.646,0.599,0.928,0.765c0.256,0.151,0.495,0.292,0.762,0.599L280.189,282.652z"/>
						</g>
					</g>
					<g>
						<g>
							<g>
								<path fill="#BFBFC0" d="M279.202,281.725c0,0-2.243,0.293-2.853-2.442C276.352,279.281,278.146,279.293,279.202,281.725z"/>
							</g>
						</g>
					</g>
				</g>
				<g>
					<g>
						<path fill="#BFBFC0" d="M278.898,281.535c0,0-0.39-0.041-1.28-0.846c-0.831-0.75-1.007-1.179-1.007-1.179
							C277.109,281.25,278.341,281.509,278.898,281.535z"/>
					</g>
				</g>
			</g>
			<g>
				<g>
					<g>
						<g>
							<path fill="#BFBFC0" d="M282.139,284.895c-0.273-0.246-0.516-0.348-0.771-0.457c-0.303-0.131-0.646-0.275-1.08-0.681
								l0.148-0.159c0.406,0.377,0.717,0.51,1.019,0.639c0.272,0.115,0.528,0.227,0.831,0.496L282.139,284.895z"/>
						</g>
					</g>
					<g>
						<g>
							<g>
								<path fill="#BFBFC0" d="M281.039,284.102c0,0-2.188,0.58-3.143-2.057C277.896,282.045,279.68,281.826,281.039,284.102z"/>
							</g>
						</g>
					</g>
				</g>
				<g>
					<g>
						<path fill="#BFBFC0" d="M280.713,283.952c0,0-0.39,0.009-1.379-0.673c-0.922-0.637-1.148-1.038-1.148-1.038
							C278.902,283.898,280.156,283.999,280.713,283.952z"/>
					</g>
				</g>
			</g>
			<g>
				<g>
					<g>
						<g>
							<path fill="#BFBFC0" d="M284.387,286.88c-0.308-0.204-0.561-0.271-0.828-0.34c-0.32-0.083-0.68-0.179-1.17-0.513l0.123-0.182
								c0.459,0.313,0.785,0.4,1.102,0.481c0.285,0.075,0.558,0.147,0.896,0.368L284.387,286.88z"/>
						</g>
					</g>
					<g>
						<g>
							<g>
								<path fill="#BFBFC0" d="M283.182,286.255c0,0-2.076,0.896-3.41-1.567C279.771,284.688,281.503,284.207,283.182,286.255z"/>
							</g>
						</g>
					</g>
				</g>
				<g>
					<g>
						<path fill="#BFBFC0" d="M282.838,286.156c0,0-0.384,0.066-1.463-0.463c-1.005-0.49-1.289-0.856-1.289-0.856
							C281.04,286.374,282.295,286.287,282.838,286.156z"/>
					</g>
				</g>
			</g>
			<g>
				<g>
					<g>
						<g>
							<path fill="#BFBFC0" d="M286.779,288.682c-0.323-0.179-0.582-0.224-0.854-0.271c-0.323-0.058-0.692-0.121-1.208-0.416
								l0.108-0.19c0.483,0.275,0.815,0.334,1.138,0.391c0.291,0.052,0.564,0.1,0.922,0.294L286.779,288.682z"/>
						</g>
					</g>
					<g>
						<g>
							<g>
								<path fill="#BFBFC0" d="M285.525,288.158c0,0-1.996,1.062-3.525-1.284C282,286.874,283.686,286.255,285.525,288.158z"/>
							</g>
						</g>
					</g>
				</g>
				<g>
					<g>
						<path fill="#BFBFC0" d="M285.176,288.088c0,0-0.377,0.1-1.494-0.342c-1.043-0.407-1.356-0.747-1.356-0.747
							C283.4,288.45,284.646,288.26,285.176,288.088z"/>
					</g>
				</g>
			</g>
			<g>
				<g>
					<path fill="#BFBFC0" d="M290.977,290.588c0,0-0.111-0.02-0.319-0.064c-0.207-0.043-0.509-0.121-0.886-0.243
						c-0.095-0.029-0.193-0.062-0.299-0.097c-0.104-0.037-0.207-0.084-0.318-0.131c-0.219-0.094-0.461-0.188-0.709-0.312
						c-0.245-0.132-0.506-0.267-0.781-0.41c-0.271-0.149-0.541-0.332-0.831-0.513c-0.144-0.088-0.294-0.178-0.44-0.276
						c-0.143-0.104-0.287-0.211-0.435-0.319c-0.295-0.219-0.606-0.432-0.911-0.676c-0.298-0.249-0.604-0.504-0.918-0.768
						c-0.154-0.129-0.314-0.26-0.472-0.396c-0.151-0.142-0.306-0.285-0.462-0.431c-0.31-0.287-0.623-0.582-0.941-0.878
						c-0.08-0.077-0.158-0.145-0.242-0.23l-0.227-0.238c-0.152-0.157-0.305-0.315-0.457-0.478c-0.148-0.164-0.292-0.342-0.439-0.513
						c-0.145-0.174-0.3-0.34-0.434-0.521c-0.137-0.182-0.273-0.359-0.41-0.542l-0.204-0.271L279.648,282
						c-0.256-0.376-0.518-0.748-0.744-1.135c-0.118-0.192-0.237-0.385-0.355-0.574c-0.111-0.196-0.219-0.393-0.328-0.585
						c-0.106-0.196-0.22-0.39-0.322-0.583c-0.102-0.198-0.199-0.393-0.297-0.59c-0.205-0.385-0.381-0.779-0.558-1.164
						c-0.185-0.385-0.335-0.771-0.491-1.15c-0.162-0.375-0.291-0.755-0.426-1.119c-0.138-0.361-0.245-0.727-0.357-1.076
						c-0.114-0.348-0.203-0.689-0.293-1.02c-0.043-0.164-0.088-0.322-0.129-0.48c-0.035-0.158-0.068-0.315-0.103-0.467
						c-0.065-0.302-0.138-0.586-0.177-0.863c-0.045-0.271-0.088-0.525-0.127-0.764c-0.025-0.238-0.049-0.457-0.071-0.654
						c-0.022-0.196-0.041-0.375-0.043-0.529c-0.007-0.156-0.013-0.286-0.017-0.395c-0.008-0.213-0.015-0.326-0.015-0.326
						l0.336-0.002c0,0,0.007,0.11,0.017,0.318c0.004,0.102,0.012,0.231,0.019,0.381c0.003,0.151,0.021,0.325,0.046,0.519
						c0.021,0.194,0.047,0.407,0.073,0.64c0.04,0.232,0.084,0.483,0.13,0.752c0.04,0.268,0.111,0.549,0.18,0.848
						c0.032,0.146,0.065,0.301,0.104,0.457c0.043,0.154,0.085,0.312,0.131,0.475c0.088,0.322,0.178,0.66,0.295,1.002
						c0.113,0.344,0.221,0.702,0.357,1.062c0.136,0.357,0.262,0.733,0.42,1.104c0.156,0.372,0.305,0.76,0.484,1.137
						c0.174,0.383,0.348,0.771,0.547,1.153c0.099,0.192,0.195,0.386,0.293,0.582c0.103,0.192,0.211,0.381,0.317,0.573
						c0.106,0.193,0.213,0.388,0.325,0.58c0.115,0.188,0.23,0.377,0.348,0.565c0.227,0.386,0.481,0.751,0.732,1.121l0.189,0.277
						l0.2,0.267c0.132,0.18,0.267,0.355,0.397,0.536c0.133,0.181,0.281,0.343,0.42,0.513c0.143,0.168,0.277,0.34,0.425,0.504
						c0.149,0.16,0.301,0.32,0.452,0.48l0.225,0.238c0.066,0.072,0.154,0.147,0.231,0.224c0.312,0.299,0.622,0.593,0.928,0.88
						c0.151,0.146,0.304,0.289,0.454,0.432c0.152,0.138,0.312,0.269,0.464,0.397c0.31,0.263,0.608,0.521,0.901,0.767
						c0.3,0.244,0.606,0.457,0.895,0.676c0.145,0.107,0.287,0.214,0.428,0.318c0.144,0.098,0.289,0.187,0.431,0.276
						c0.284,0.178,0.548,0.362,0.813,0.51c0.27,0.144,0.523,0.279,0.764,0.405c0.24,0.129,0.479,0.218,0.691,0.316
						c0.211,0.104,0.411,0.185,0.594,0.26c0.357,0.156,0.644,0.283,0.832,0.373C290.877,290.531,290.977,290.588,290.977,290.588z"
						/>
				</g>
			</g>
			<g>
				<g>
					<g>
						<g>
							<path fill="#9C9D9D" d="M275.018,268.966c0,0-1.694-1.497-0.033-3.753C274.982,265.213,276.154,266.574,275.018,268.966z"/>
						</g>
					</g>
				</g>
				<g>
					<g>
						<path fill="#9C9D9D" d="M274.96,268.615c0,0-0.224-0.321-0.205-1.52c0.019-1.123,0.228-1.533,0.228-1.533
							C273.999,267.08,274.611,268.177,274.96,268.615z"/>
					</g>
				</g>
			</g>
		</g>
	</g>
	<g>
		<g>
			<g>
				<g>
					<g>
						<g>
							<path fill="#9C9D9D" d="M303.109,272.383l-0.219-0.015c0.021-0.308-0.059-0.525-0.15-0.778
								c-0.114-0.311-0.242-0.66-0.188-1.23l0.218,0.02c-0.051,0.523,0.064,0.837,0.176,1.137
								C303.042,271.779,303.133,272.027,303.109,272.383z"/>
						</g>
					</g>
					<g>
						<g>
							<g>
								<path fill="#9C9D9D" d="M302.726,271.371c0,0,0.996-2.031-1.4-3.482C301.324,267.889,300.761,269.596,302.726,271.371z"/>
							</g>
						</g>
					</g>
				</g>
				<g>
					<g>
						<path fill="#9C9D9D" d="M302.645,271.023c0,0,0.084-0.381-0.392-1.483c-0.443-1.028-0.793-1.331-0.793-1.331
							C302.946,269.236,302.798,270.484,302.645,271.023z"/>
					</g>
				</g>
			</g>
			<g>
				<g>
					<g>
						<g>
							<path fill="#9C9D9D" d="M302.197,275.134l-0.217-0.04c0.057-0.304,0.001-0.527-0.062-0.791
								c-0.077-0.318-0.166-0.682-0.048-1.242l0.214,0.045c-0.107,0.514-0.028,0.836,0.048,1.146
								C302.198,274.525,302.261,274.784,302.197,275.134z"/>
						</g>
					</g>
					<g>
						<g>
							<g>
								<path fill="#9C9D9D" d="M301.929,274.086c0,0,1.22-1.906-0.999-3.621C300.93,270.465,300.177,272.098,301.929,274.086z"/>
							</g>
						</g>
					</g>
				</g>
				<g>
					<g>
						<path fill="#9C9D9D" d="M301.888,273.729c0,0,0.126-0.367-0.222-1.519c-0.324-1.069-0.639-1.41-0.639-1.41
							C302.389,271.988,302.102,273.216,301.888,273.729z"/>
					</g>
				</g>
			</g>
			<g>
				<g>
					<g>
						<g>
							<path fill="#9C9D9D" d="M301.051,277.766l-0.209-0.062c0.088-0.297,0.059-0.524,0.022-0.793
								c-0.044-0.326-0.093-0.696,0.086-1.242l0.207,0.067c-0.163,0.498-0.118,0.826-0.077,1.146
								C301.117,277.161,301.153,277.426,301.051,277.766z"/>
						</g>
					</g>
					<g>
						<g>
							<g>
								<path fill="#9C9D9D" d="M300.898,276.695c0,0,1.415-1.766-0.605-3.709C300.293,272.986,299.37,274.529,300.898,276.695z"/>
							</g>
						</g>
					</g>
				</g>
				<g>
					<g>
						<path fill="#9C9D9D" d="M300.896,276.336c0,0,0.164-0.354-0.058-1.531c-0.208-1.102-0.482-1.472-0.482-1.472
							C301.58,274.66,301.162,275.848,300.896,276.336z"/>
					</g>
				</g>
			</g>
			<g>
				<g>
					<g>
						<g>
							<path fill="#9C9D9D" d="M299.761,280.329l-0.205-0.075c0.106-0.289,0.092-0.521,0.072-0.789
								c-0.021-0.329-0.048-0.701,0.163-1.234l0.205,0.078c-0.195,0.489-0.171,0.819-0.15,1.142
								C299.864,279.73,299.884,279.997,299.761,280.329z"/>
						</g>
					</g>
					<g>
						<g>
							<g>
								<path fill="#BFBFC0" d="M299.675,279.249c0,0,1.524-1.671-0.37-3.735C299.305,275.514,298.286,276.993,299.675,279.249z"/>
							</g>
						</g>
					</g>
				</g>
				<g>
					<g>
						<path fill="#BFBFC0" d="M299.694,278.893c0,0,0.188-0.342,0.04-1.533c-0.139-1.111-0.39-1.498-0.39-1.498
							C300.483,277.264,299.994,278.422,299.694,278.893z"/>
					</g>
				</g>
			</g>
			<g>
				<g>
					<g>
						<g>
							<path fill="#BFBFC0" d="M298.057,282.854l-0.194-0.099c0.139-0.274,0.149-0.508,0.161-0.776
								c0.015-0.33,0.031-0.703,0.303-1.207l0.191,0.103c-0.245,0.462-0.263,0.793-0.275,1.112
								C298.229,282.27,298.217,282.534,298.057,282.854z"/>
						</g>
					</g>
					<g>
						<g>
							<g>
								<path fill="#BFBFC0" d="M298.095,281.771c0,0,1.703-1.489,0.056-3.756C298.149,278.018,296.971,279.372,298.095,281.771z"/>
							</g>
						</g>
					</g>
				</g>
				<g>
					<g>
						<path fill="#BFBFC0" d="M298.154,281.418c0,0,0.225-0.318,0.212-1.52c-0.01-1.121-0.217-1.533-0.217-1.533
							C299.123,279.889,298.503,280.982,298.154,281.418z"/>
					</g>
				</g>
			</g>
			<g>
				<g>
					<g>
						<g>
							<path fill="#BFBFC0" d="M296.139,285.104l-0.186-0.112c0.161-0.265,0.191-0.495,0.227-0.761
								c0.041-0.328,0.09-0.697,0.4-1.181l0.186,0.118c-0.285,0.439-0.328,0.771-0.371,1.09
								C296.357,284.535,296.324,284.8,296.139,285.104z"/>
						</g>
					</g>
					<g>
						<g>
							<g>
								<path fill="#BFBFC0" d="M296.268,284.027c0,0,1.822-1.34,0.369-3.736C296.637,280.291,295.35,281.543,296.268,284.027z"/>
							</g>
						</g>
					</g>
				</g>
				<g>
					<g>
						<path fill="#BFBFC0" d="M296.355,283.682c0,0,0.252-0.298,0.34-1.494c0.084-1.117-0.086-1.549-0.086-1.549
							C297.451,282.239,296.741,283.277,296.355,283.682z"/>
					</g>
				</g>
			</g>
			<g>
				<g>
					<g>
						<g>
							<path fill="#BFBFC0" d="M293.949,286.965l-0.172-0.136c0.19-0.242,0.248-0.47,0.314-0.728c0.08-0.32,0.174-0.684,0.539-1.123
								l0.169,0.14c-0.337,0.401-0.418,0.726-0.497,1.037C294.234,286.427,294.169,286.686,293.949,286.965z"/>
						</g>
					</g>
					<g>
						<g>
							<g>
								<path fill="#BFBFC0" d="M294.204,285.913c0,0,1.968-1.113,0.812-3.666C295.016,282.247,293.588,283.334,294.204,285.913z"/>
							</g>
						</g>
					</g>
				</g>
				<g>
					<g>
						<path fill="#BFBFC0" d="M294.334,285.579c0,0,0.285-0.267,0.516-1.444c0.215-1.101,0.096-1.548,0.096-1.548
							C295.592,284.273,294.766,285.225,294.334,285.579z"/>
					</g>
				</g>
			</g>
			<g>
				<g>
					<g>
						<g>
							<path fill="#BFBFC0" d="M291.575,288.771l-0.163-0.147c0.207-0.229,0.279-0.449,0.361-0.706
								c0.103-0.312,0.218-0.668,0.611-1.085l0.158,0.149c-0.361,0.383-0.463,0.697-0.562,1.004
								C291.895,288.254,291.812,288.507,291.575,288.771z"/>
						</g>
					</g>
					<g>
						<g>
							<g>
								<path fill="#BFBFC0" d="M291.896,287.736c0,0,2.037-0.983,1.047-3.605C292.943,284.131,291.448,285.126,291.896,287.736z"/>
							</g>
						</g>
					</g>
				</g>
				<g>
					<g>
						<path fill="#BFBFC0" d="M292.049,287.414c0,0,0.303-0.249,0.607-1.41c0.285-1.082,0.197-1.535,0.197-1.535
							C293.389,286.193,292.501,287.088,292.049,287.414z"/>
					</g>
				</g>
			</g>
			<g>
				<g>
					<g>
						<g>
							<path fill="#9C9D9D" d="M303.186,271.866l-0.203-0.08c0.149-0.375,0.332-0.587,0.523-0.813
								c0.213-0.246,0.434-0.504,0.63-1.022l0.204,0.077c-0.212,0.558-0.453,0.839-0.668,1.088
								C303.492,271.326,303.322,271.525,303.186,271.866z"/>
						</g>
					</g>
					<g>
						<g>
							<g>
								<path fill="#9C9D9D" d="M303.817,270.669c0,0,2.219-0.451,1.904-3.235C305.723,267.434,304.027,268.027,303.817,270.669z"/>
							</g>
						</g>
					</g>
				</g>
				<g>
					<g>
						<path fill="#9C9D9D" d="M304.044,270.393c0,0,0.354-0.166,0.938-1.217c0.544-0.979,0.568-1.438,0.568-1.438
							C305.644,269.542,304.562,270.188,304.044,270.393z"/>
					</g>
				</g>
			</g>
			<g>
				<g>
					<g>
						<g>
							<path fill="#9C9D9D" d="M302.386,274.632l-0.191-0.103c0.186-0.356,0.387-0.551,0.6-0.756
								c0.236-0.227,0.479-0.461,0.729-0.959l0.194,0.098c-0.266,0.533-0.533,0.791-0.771,1.02
								C302.745,274.124,302.557,274.305,302.386,274.632z"/>
						</g>
					</g>
					<g>
						<g>
							<g>
								<path fill="#9C9D9D" d="M303.134,273.501c0,0,2.251-0.231,2.211-3.036C305.345,270.465,303.601,270.893,303.134,273.501z"/>
							</g>
						</g>
					</g>
				</g>
				<g>
					<g>
						<path fill="#9C9D9D" d="M303.386,273.246c0,0,0.368-0.129,1.052-1.118c0.639-0.919,0.706-1.376,0.706-1.376
							C305.061,272.557,303.923,273.096,303.386,273.246z"/>
					</g>
				</g>
			</g>
			<g>
				<g>
					<g>
						<g>
							<path fill="#9C9D9D" d="M301.254,277.454l-0.186-0.115c0.21-0.344,0.424-0.522,0.649-0.714
								c0.251-0.21,0.51-0.427,0.791-0.906l0.188,0.111c-0.301,0.512-0.584,0.752-0.837,0.963
								C301.647,276.971,301.446,277.139,301.254,277.454z"/>
						</g>
					</g>
					<g>
						<g>
							<g>
								<path fill="#9C9D9D" d="M302.077,276.376c0,0,2.261-0.077,2.414-2.875C304.491,273.501,302.721,273.805,302.077,276.376z"/>
							</g>
						</g>
					</g>
				</g>
				<g>
					<g>
						<path fill="#9C9D9D" d="M302.347,276.139c0,0,0.376-0.103,1.124-1.043c0.699-0.873,0.8-1.324,0.8-1.324
							C304.062,275.566,302.893,276.023,302.347,276.139z"/>
					</g>
				</g>
			</g>
			<g>
				<g>
					<g>
						<g>
							<path fill="#9C9D9D" d="M299.899,280.061l-0.176-0.129c0.243-0.326,0.475-0.481,0.718-0.649
								c0.27-0.185,0.548-0.376,0.873-0.827l0.178,0.129c-0.349,0.48-0.655,0.691-0.928,0.878
								C300.337,279.617,300.12,279.768,299.899,280.061z"/>
						</g>
					</g>
					<g>
						<g>
							<g>
								<path fill="#9C9D9D" d="M300.822,279.066c0,0,2.258,0.14,2.677-2.633C303.499,276.436,301.707,276.57,300.822,279.066z"/>
							</g>
						</g>
					</g>
				</g>
				<g>
					<g>
						<path fill="#9C9D9D" d="M301.112,278.855c0,0,0.384-0.067,1.22-0.929c0.778-0.807,0.922-1.243,0.922-1.243
							C302.877,278.45,301.667,278.794,301.112,278.855z"/>
					</g>
				</g>
			</g>
			<g>
				<g>
					<g>
						<g>
							<path fill="#BFBFC0" d="M298.274,282.652l-0.166-0.144c0.265-0.307,0.505-0.446,0.759-0.599
								c0.282-0.166,0.572-0.338,0.929-0.766l0.168,0.141c-0.38,0.457-0.701,0.646-0.983,0.812
								C298.741,282.239,298.515,282.373,298.274,282.652z"/>
						</g>
					</g>
					<g>
						<g>
							<g>
								<path fill="#BFBFC0" d="M299.263,281.725c0,0,2.243,0.293,2.853-2.442C302.114,279.281,300.317,279.293,299.263,281.725z"/>
							</g>
						</g>
					</g>
				</g>
				<g>
					<g>
						<path fill="#9C9D9D" d="M299.567,281.535c0,0,0.388-0.041,1.278-0.846c0.833-0.75,1.006-1.179,1.006-1.179
							C301.354,281.25,300.124,281.509,299.567,281.535z"/>
					</g>
				</g>
			</g>
			<g>
				<g>
					<g>
						<g>
							<path fill="#BFBFC0" d="M296.326,284.895l-0.146-0.162c0.303-0.271,0.559-0.381,0.829-0.496
								c0.304-0.129,0.612-0.262,1.02-0.639l0.148,0.159c-0.437,0.404-0.778,0.55-1.081,0.681
								C296.841,284.547,296.602,284.648,296.326,284.895z"/>
						</g>
					</g>
					<g>
						<g>
							<g>
								<path fill="#BFBFC0" d="M297.426,284.102c0,0,2.188,0.58,3.144-2.057C300.568,282.045,298.784,281.826,297.426,284.102z"/>
							</g>
						</g>
					</g>
				</g>
				<g>
					<g>
						<path fill="#BFBFC0" d="M297.752,283.952c0,0,0.389,0.009,1.377-0.673c0.923-0.637,1.15-1.038,1.15-1.038
							C299.562,283.898,298.307,283.999,297.752,283.952z"/>
					</g>
				</g>
			</g>
			<g>
				<g>
					<g>
						<g>
							<path fill="#BFBFC0" d="M294.077,286.88l-0.119-0.185c0.337-0.221,0.606-0.291,0.896-0.367
								c0.314-0.081,0.643-0.168,1.102-0.48l0.123,0.182c-0.49,0.334-0.852,0.429-1.17,0.512
								C294.639,286.609,294.385,286.676,294.077,286.88z"/>
						</g>
					</g>
					<g>
						<g>
							<g>
								<path fill="#BFBFC0" d="M295.281,286.255c0,0,2.078,0.896,3.413-1.567C298.694,284.688,296.962,284.207,295.281,286.255z"/>
							</g>
						</g>
					</g>
				</g>
				<g>
					<g>
						<path fill="#BFBFC0" d="M295.626,286.156c0,0,0.386,0.066,1.463-0.463c1.006-0.49,1.29-0.856,1.29-0.856
							C297.425,286.374,296.169,286.287,295.626,286.156z"/>
					</g>
				</g>
			</g>
			<g>
				<g>
					<g>
						<g>
							<path fill="#BFBFC0" d="M291.686,288.682l-0.104-0.192c0.355-0.194,0.629-0.242,0.921-0.294
								c0.322-0.057,0.655-0.114,1.138-0.391l0.107,0.19c-0.516,0.295-0.883,0.358-1.207,0.416
								C292.268,288.458,292.009,288.503,291.686,288.682z"/>
						</g>
					</g>
					<g>
						<g>
							<g>
								<path fill="#BFBFC0" d="M292.938,288.158c0,0,1.998,1.062,3.527-1.284C296.465,286.874,294.779,286.255,292.938,288.158z"/>
							</g>
						</g>
					</g>
				</g>
				<g>
					<g>
						<path fill="#BFBFC0" d="M293.289,288.088c0,0,0.377,0.1,1.494-0.342c1.043-0.407,1.355-0.747,1.355-0.747
							C295.062,288.45,293.818,288.26,293.289,288.088z"/>
					</g>
				</g>
			</g>
			<g>
				<g>
					<path fill="#BFBFC0" d="M287.486,290.588c0,0,0.102-0.057,0.291-0.146c0.193-0.092,0.478-0.219,0.837-0.375
						c0.18-0.074,0.38-0.155,0.593-0.258c0.211-0.101,0.45-0.188,0.689-0.317c0.24-0.126,0.496-0.263,0.765-0.405
						c0.267-0.146,0.53-0.332,0.813-0.51c0.142-0.092,0.286-0.18,0.432-0.277c0.14-0.104,0.281-0.21,0.427-0.316
						c0.288-0.219,0.595-0.434,0.894-0.676c0.293-0.248,0.594-0.504,0.902-0.768c0.152-0.13,0.312-0.262,0.464-0.398
						c0.15-0.142,0.302-0.285,0.454-0.431c0.305-0.288,0.614-0.581,0.93-0.88c0.073-0.075,0.162-0.15,0.229-0.223l0.225-0.239
						c0.15-0.16,0.303-0.321,0.454-0.481c0.146-0.164,0.281-0.336,0.425-0.504c0.139-0.17,0.286-0.332,0.417-0.512
						c0.134-0.18,0.268-0.355,0.4-0.536l0.201-0.267l0.188-0.277c0.249-0.37,0.507-0.736,0.732-1.121
						c0.116-0.188,0.231-0.378,0.349-0.566c0.11-0.191,0.216-0.387,0.322-0.58c0.107-0.191,0.217-0.381,0.318-0.572
						c0.099-0.196,0.195-0.389,0.294-0.582c0.198-0.383,0.373-0.771,0.546-1.153c0.182-0.377,0.331-0.765,0.484-1.137
						c0.159-0.369,0.284-0.745,0.418-1.104c0.142-0.358,0.247-0.718,0.359-1.062c0.117-0.343,0.206-0.681,0.296-1.002
						c0.044-0.161,0.089-0.319,0.13-0.476c0.035-0.156,0.071-0.31,0.104-0.455c0.064-0.299,0.138-0.58,0.178-0.849
						c0.047-0.269,0.091-0.521,0.13-0.752c0.027-0.231,0.052-0.444,0.074-0.64c0.024-0.192,0.043-0.366,0.047-0.518
						c0.006-0.15,0.013-0.279,0.019-0.382c0.011-0.208,0.015-0.319,0.015-0.319l0.337,0.002c0,0-0.005,0.113-0.015,0.326
						c-0.004,0.108-0.011,0.238-0.017,0.396c-0.001,0.155-0.02,0.333-0.044,0.528c-0.021,0.198-0.044,0.418-0.07,0.654
						c-0.039,0.238-0.082,0.493-0.128,0.766c-0.038,0.275-0.109,0.562-0.176,0.863c-0.033,0.149-0.066,0.307-0.103,0.465
						c-0.043,0.16-0.085,0.317-0.129,0.481c-0.088,0.329-0.179,0.672-0.293,1.021c-0.112,0.35-0.22,0.713-0.357,1.076
						c-0.136,0.363-0.264,0.743-0.426,1.118c-0.157,0.378-0.309,0.767-0.491,1.149c-0.177,0.386-0.353,0.779-0.556,1.164
						c-0.101,0.197-0.198,0.393-0.299,0.591c-0.104,0.194-0.215,0.387-0.321,0.583c-0.11,0.191-0.216,0.389-0.33,0.585
						c-0.117,0.188-0.235,0.382-0.354,0.573c-0.229,0.388-0.489,0.76-0.744,1.136l-0.191,0.278l-0.204,0.271
						c-0.138,0.182-0.273,0.359-0.41,0.542c-0.134,0.183-0.29,0.349-0.435,0.521c-0.146,0.172-0.289,0.35-0.438,0.514
						c-0.153,0.161-0.305,0.318-0.456,0.479l-0.228,0.237c-0.083,0.087-0.161,0.153-0.242,0.229
						c-0.317,0.297-0.633,0.592-0.942,0.879c-0.156,0.146-0.309,0.289-0.461,0.431c-0.154,0.138-0.315,0.269-0.472,0.397
						c-0.313,0.263-0.621,0.518-0.919,0.767c-0.305,0.244-0.616,0.457-0.909,0.676c-0.149,0.108-0.293,0.216-0.437,0.319
						c-0.146,0.1-0.295,0.188-0.438,0.277c-0.291,0.18-0.562,0.361-0.833,0.512c-0.275,0.144-0.537,0.279-0.781,0.41
						c-0.246,0.123-0.49,0.219-0.709,0.312c-0.111,0.046-0.216,0.093-0.318,0.131c-0.104,0.034-0.204,0.066-0.297,0.097
						c-0.379,0.123-0.678,0.199-0.887,0.244C287.602,290.568,287.486,290.588,287.486,290.588z"/>
				</g>
			</g>
			<g>
				<g>
					<g>
						<g>
							<path fill="#9C9D9D" d="M303.447,268.966c0,0,1.694-1.497,0.033-3.753C303.48,265.213,302.31,266.574,303.447,268.966z"/>
						</g>
					</g>
				</g>
				<g>
					<g>
						<path fill="#9C9D9D" d="M303.504,268.615c0,0,0.224-0.321,0.205-1.52c-0.017-1.123-0.226-1.533-0.226-1.533
							C304.466,267.08,303.853,268.177,303.504,268.615z"/>
					</g>
				</g>
			</g>
		</g>
	</g>
</g>
</svg>
