<?xml version="1.0" encoding="utf-8"?>
<!-- Generator: Adobe Illustrator 16.0.1, SVG Export Plug-In . SVG Version: 6.00 Build 0)  -->
<!DOCTYPE svg PUBLIC "-//W3C//DTD SVG 1.1//EN" "http://www.w3.org/Graphics/SVG/1.1/DTD/svg11.dtd">
<svg version="1.1" id="content" xmlns="http://www.w3.org/2000/svg" xmlns:xlink="http://www.w3.org/1999/xlink" x="0px" y="0px"
	 width="500px" height="500px" viewBox="0 0 500 500" enable-background="new 0 0 500 500" xml:space="preserve">
<g id="bounds" display="none">
	<rect x="0" display="inline" fill="none" stroke="#000000" stroke-miterlimit="10" width="500" height="500"/>
</g>
<g>
	<g>
		<g>
			<path fill="#BFBFC0" d="M171.642,304.614c0,9.623-7.874,17.497-17.497,17.497h-0.473c-9.623,0-17.497-7.874-17.497-17.497
				v-96.415c0-9.624,7.874-17.497,17.497-17.497h0.473c9.623,0,17.497,7.874,17.497,17.497V304.614z"/>
		</g>
	</g>
	<g>
		<g>
			<path fill="#BFBFC0" d="M357.386,304.614c0,9.623-7.874,17.497-17.497,17.497h-0.474c-9.623,0-17.497-7.874-17.497-17.497
				v-96.415c0-9.624,7.874-17.497,17.497-17.497h0.474c9.623,0,17.497,7.874,17.497,17.497V304.614z"/>
		</g>
	</g>
	<g>
		<circle fill="#BFBFC0" cx="246.781" cy="117.423" r="68.847"/>
	</g>
	<path fill="#9C9D9D" d="M244.454,39.378c-55.169,0-96.625,48.282-65.683,90.501l0,0c0,0-1.452-43.369,27.453-62.612
		c0,0,1.45,23.115,80.853,16.362c0,0-11.073-10.046-10.492-20.11c0,0,39.091,47.117,38.087,66.361l0,0
		C342.564,88.641,310.403,39.378,244.454,39.378z"/>
	<g>
		<circle fill="#FFFFFF" cx="220.749" cy="110.304" r="12.145"/>
		<circle fill="#FFFFFF" cx="271.828" cy="110.304" r="12.145"/>
		<path fill="#FFFFFF" d="M258.925,144.691c0,6.707-5.437,12.144-12.144,12.144c-6.709,0-12.146-5.437-12.146-12.144H258.925z"/>
	</g>
	<g>
		<path fill="#BFBFC0" d="M305.153,334.007c-0.808,9.482-9.256,17.241-18.772,17.241h-79.443c-9.517,0-17.953-7.76-18.746-17.243
			l-10.547-126.059c-0.793-9.484,6.345-17.244,15.861-17.244h106.551c9.517,0,16.643,7.759,15.835,17.241L305.153,334.007z"/>
	</g>
</g>
<g>
	<path fill="#BFBFC0" d="M216.886,322.111h-1.889c-10.802,0-19.64,8.836-19.64,19.637v70.135h41.167v-25.691v-3.827v-40.616
		C236.525,330.947,227.688,322.111,216.886,322.111z"/>
	<path fill="#BFBFC0" d="M278.313,322.111h-2.442c-10.939,0-19.89,8.95-19.89,19.889v40.366h-0.152v3.827h0.152v25.439h42.221
		v-25.439v-3.827V342C298.201,331.062,289.252,322.111,278.313,322.111z"/>
</g>
<g>
	<path fill="#9C9D9D" d="M216.886,322.111h-1.889c-10.802,0-19.64,8.836-19.64,19.637v70.135h41.167v-25.691v-3.827v-40.616
		C236.525,330.947,227.688,322.111,216.886,322.111z"/>
	<path fill="#9C9D9D" d="M278.313,322.111h-2.442c-10.939,0-19.89,8.95-19.89,19.889v40.366h-0.152v3.827h0.152v25.439h42.221
		v-25.439v-3.827V342C298.201,331.062,289.252,322.111,278.313,322.111z"/>
</g>
<g>
	<path fill="#9C9D9D" d="M305.153,334.007c-0.808,9.482-9.256,17.241-18.772,17.241h-79.443c-9.517,0-17.953-7.76-18.746-17.243
		l-10.547-126.059c-0.793-9.484,6.344-17.244,15.861-17.244h106.551c9.517,0,16.643,7.759,15.835,17.241L305.153,334.007z"/>
</g>
<path fill="#9C9D9D" d="M174.323,249.531c0,12.087-40.826,12.087-40.826,0v-39.49c0-12.086,7.895-21.974,17.541-21.974h5.745
	c9.647,0,17.54,9.888,17.54,21.974V249.531z"/>
<path fill="#9C9D9D" d="M360.066,249.531c0,12.087-40.826,12.087-40.826,0v-39.49c0-12.086,7.894-21.974,17.54-21.974h5.744
	c9.648,0,17.542,9.888,17.542,21.974V249.531z"/>
<polygon fill="#BFBFC0" points="217.401,190.474 235.088,206.585 246.369,239.357 257.6,206.237 276.201,190.565 "/>
<polygon fill="#9C9D9D" points="257.6,206.237 280.874,221.545 280.874,190.93 275.974,190.793 "/>
<polygon fill="#9C9D9D" points="235.088,206.585 212.312,222.231 212.145,190.939 217.964,190.939 "/>
<path fill="#BFBFC0" d="M327.887,81.262c0,4.438-3.059,8.038-6.832,8.038H173.821c-3.772,0-6.832-3.599-6.832-8.038V71.225
	c0-4.439,3.06-8.038,6.832-8.038h147.234c3.773,0,6.832,3.598,6.832,8.038V81.262z"/>
<rect x="195.413" y="371.571" fill="#BFBFC0" width="41.107" height="13.174"/>
<rect x="256.068" y="371.571" fill="#BFBFC0" width="41.906" height="13.174"/>
<path fill="#BFBFC0" d="M236.525,411.883c0,10.801-8.837,19.639-19.639,19.639h-1.889c-10.802,0-19.64-8.838-19.64-19.639H236.525z"
	/>
<path fill="#BFBFC0" d="M298.201,411.633c0,10.938-8.949,19.889-19.889,19.889h-2.442c-10.939,0-19.89-8.95-19.89-19.889H298.201z"
	/>
<g>
	<path fill="#BFBFC0" d="M143.335,413.018c1.437-3.321,26.083-2.091,27.636-2.682c1.553-0.59,2.596-1.099,2.596-1.099l1.285-0.815
		c0,0,22.547-12.154,23.634-12.154c1.088,0,15.249,13.038,29.168,9.503c8.54-2.171,6.21-3.976,7.609-3.832
		c1.396,0.148,2.667-2.693,4.376-1.515c1.708,1.179,2.428,21.191,2.428,21.191l-38.949,0.21l-30.128,1.324l-29.351-5.893
		c0,0-0.775-1.473,0.156-2.062C144.726,414.61,142.932,413.954,143.335,413.018z"/>
	<g>
		<path fill="#BFBFC0" d="M240.03,401.588c-0.949,0.528-11.683,7.016-19.71,8.592c-8.03,1.579-24.983-8.518-27.122-9.346
			c-2.141-0.822-1.125-3.577-1.125-3.577s1.842-2.323,3.128-2.558s18.444,10.961,23.765,10.335c5.316-0.629,14.3-6.379,16.352-7.609
			c2.055-1.225,3.799,1.681,3.799,1.681S240.98,401.057,240.03,401.588z"/>
	</g>
	<path fill="#BFBFC0" d="M190.399,405.076c0.139-1.127-0.695-2.203-1.858-2.405c-1.165-0.202-2.218,0.548-2.354,1.673
		c-0.137,1.126,0.697,2.203,1.86,2.405S190.263,406.2,190.399,405.076z"/>
	<path fill="#BFBFC0" d="M189.428,404.908c0.072-0.608-0.375-1.188-1.002-1.295c-0.627-0.11-1.194,0.292-1.268,0.9
		c-0.072,0.606,0.375,1.187,1.002,1.295C188.787,405.916,189.355,405.512,189.428,404.908z"/>
	<path fill="#BFBFC0" d="M189.045,401.7c-0.353-0.714-0.883-1.192-1.18-1.064l-2.994,1.271c-0.298,0.128-0.254,0.809,0.101,1.525
		l0,0c0.353,0.712,2.688,1.98,2.985,1.854l1.027-0.729C189.281,404.43,189.399,402.415,189.045,401.7L189.045,401.7z"/>
	<path fill="#BFBFC0" d="M195.329,403.105c0.136-1.127-0.697-2.203-1.86-2.405s-2.219,0.548-2.354,1.673
		c-0.137,1.124,0.696,2.2,1.861,2.404C194.138,404.979,195.192,404.231,195.329,403.105z"/>
	<path fill="#BFBFC0" d="M194.357,402.937c0.072-0.607-0.376-1.187-1.002-1.294c-0.626-0.11-1.194,0.292-1.269,0.9
		c-0.072,0.604,0.376,1.187,1.003,1.294C193.715,403.945,194.283,403.541,194.357,402.937z"/>
	<path fill="#BFBFC0" d="M193.974,399.729c-0.354-0.714-0.882-1.19-1.179-1.064l-2.996,1.271c-0.299,0.126-0.252,0.809,0.102,1.524
		l0,0c0.353,0.713,2.688,1.981,2.986,1.855l1.025-0.73C194.211,402.459,194.326,400.441,193.974,399.729L193.974,399.729z"/>
	<path fill="#BFBFC0" d="M185.5,407.267c0.138-1.124-0.694-2.2-1.859-2.402c-1.163-0.202-2.217,0.546-2.354,1.67
		c-0.137,1.127,0.696,2.203,1.859,2.403C184.312,409.142,185.364,408.392,185.5,407.267z"/>
	<path fill="#BFBFC0" d="M184.529,407.097c0.073-0.606-0.375-1.185-1.003-1.292c-0.625-0.11-1.193,0.294-1.266,0.9
		c-0.074,0.605,0.375,1.187,1.001,1.294C183.887,408.107,184.455,407.703,184.529,407.097z"/>
	<path fill="#BFBFC0" d="M184.147,403.89c-0.353-0.713-0.882-1.188-1.179-1.062l-2.997,1.271c-0.297,0.126-0.252,0.809,0.103,1.522
		l0,0c0.354,0.717,2.689,1.983,2.986,1.856l1.025-0.728C184.383,406.621,184.5,404.605,184.147,403.89L184.147,403.89z"/>
	<path fill="#BFBFC0" d="M143.335,413.018c-0.157,1.068-2.028,10.868,0.468,12.472c2.496,1.603,16.074,6.412,29.806,6.769
		c13.733,0.356,50.874,0,50.874,0s13.42-0.178,15.761-1.068c2.34-0.891,2.344-10.271,2.344-10.271s0.312-1.108-1.093-1.821
		c-1.403-0.716-50.874,1.938-64.764,1.757C162.841,420.679,143.491,411.949,143.335,413.018z"/>
	<path fill="#BFBFC0" d="M143.257,413.954c0,0,15.794,6.862,28.344,8.107c12.55,1.248,70.932-0.074,70.932-0.074l-0.109,1.761
		c0,0-58.7,1.521-70.494,0.389c-11.798-1.133-28.999-8.864-28.999-8.864L143.257,413.954z"/>
</g>
<g>
	<path fill="#BFBFC0" d="M349.375,412.928c-3.541-0.742-25.65-1.999-27.203-2.59c-1.553-0.59-2.595-1.098-2.595-1.098l-1.286-0.818
		c0,0-22.545-12.154-23.633-12.154s-15.248,13.04-29.168,9.505c-8.54-2.171-6.212-3.978-7.609-3.832
		c-1.396,0.148-2.668-2.693-4.377-1.515c-1.708,1.179-1.383,5.29-1.695,7.058c-0.31,1.767-1.198,13.878-1.198,13.878l39.418,0.462
		l30.127,1.326l29.351-5.893c0,0,0.774-1.473-0.155-2.062C348.417,414.61,349.809,413.018,349.375,412.928z"/>
	<g>
		<path fill="#BFBFC0" d="M253.114,401.588c0.951,0.528,11.683,7.016,19.711,8.592c8.029,1.579,24.983-8.518,27.121-9.346
			c2.141-0.822,1.127-3.577,1.127-3.577s-1.843-2.323-3.13-2.558s-18.445,10.961-23.765,10.335
			c-5.315-0.629-14.3-6.379-16.352-7.609c-2.055-1.225-3.8,1.681-3.8,1.681S252.164,401.057,253.114,401.588z"/>
	</g>
	<path fill="#BFBFC0" d="M302.744,405.076c-0.138-1.127,0.695-2.203,1.858-2.405s2.219,0.548,2.354,1.673
		c0.137,1.126-0.697,2.203-1.86,2.405C303.932,406.951,302.881,406.2,302.744,405.076z"/>
	<path fill="#BFBFC0" d="M303.716,404.908c-0.074-0.608,0.375-1.188,1.002-1.295c0.625-0.11,1.193,0.292,1.267,0.9
		c0.074,0.606-0.375,1.187-1.002,1.295C304.357,405.916,303.789,405.512,303.716,404.908z"/>
	<path fill="#BFBFC0" d="M304.099,401.7c0.353-0.714,0.883-1.192,1.179-1.064l2.996,1.271c0.298,0.128,0.253,0.809-0.102,1.525l0,0
		c-0.352,0.712-2.688,1.98-2.985,1.854l-1.027-0.729C303.862,404.43,303.744,402.415,304.099,401.7L304.099,401.7z"/>
	<path fill="#BFBFC0" d="M297.814,403.105c-0.136-1.127,0.697-2.203,1.86-2.405c1.164-0.202,2.22,0.548,2.354,1.673
		c0.137,1.124-0.695,2.2-1.86,2.404C299.005,404.979,297.95,404.231,297.814,403.105z"/>
	<path fill="#BFBFC0" d="M298.786,402.937c-0.072-0.607,0.377-1.187,1.002-1.294c0.626-0.11,1.193,0.292,1.269,0.9
		c0.073,0.604-0.377,1.187-1.003,1.294C299.428,403.943,298.861,403.541,298.786,402.937z"/>
	<path fill="#BFBFC0" d="M299.169,399.729c0.354-0.714,0.884-1.19,1.179-1.064l2.996,1.271c0.298,0.126,0.251,0.809-0.101,1.524l0,0
		c-0.354,0.713-2.689,1.981-2.986,1.855l-1.026-0.73C298.932,402.459,298.816,400.441,299.169,399.729L299.169,399.729z"/>
	<path fill="#BFBFC0" d="M307.643,407.267c-0.137-1.124,0.695-2.2,1.861-2.402c1.161-0.202,2.216,0.546,2.352,1.67
		c0.137,1.127-0.696,2.203-1.859,2.403C308.833,409.142,307.781,408.392,307.643,407.267z"/>
	<path fill="#BFBFC0" d="M308.615,407.097c-0.073-0.606,0.376-1.185,1.002-1.292c0.627-0.11,1.195,0.294,1.268,0.9
		c0.073,0.605-0.375,1.187-1.001,1.294C309.255,408.107,308.688,407.703,308.615,407.097z"/>
	<path fill="#BFBFC0" d="M308.997,403.89c0.352-0.713,0.882-1.188,1.179-1.062l2.995,1.271c0.298,0.126,0.254,0.809-0.102,1.522l0,0
		c-0.352,0.717-2.688,1.983-2.985,1.856l-1.026-0.728C308.758,406.621,308.644,404.605,308.997,403.89L308.997,403.89z"/>
	<path fill="#BFBFC0" d="M349.809,413.018c0.155,1.068,2.026,10.868-0.47,12.472c-2.496,1.603-16.073,6.412-29.806,6.769
		c-13.733,0.356-50.873,0-50.873,0s-13.42-0.178-15.761-1.068c-2.34-0.891-2.344-10.271-2.344-10.271s-0.313-1.108,1.092-1.821
		c1.404-0.716,50.874,1.938,64.765,1.757C330.302,420.679,349.653,411.949,349.809,413.018z"/>
	<path fill="#BFBFC0" d="M349.887,413.954c0,0-15.795,6.862-28.344,8.107c-12.55,1.248-70.932-0.074-70.932-0.074l0.109,1.761
		c0,0,58.7,1.521,70.494,0.389c11.797-1.133,29-8.864,29-8.864L349.887,413.954z"/>
</g>
<g>
	<g>
		<polygon fill="#9C9D9D" points="420.781,196.242 393.75,180.989 393.927,180.674 420.809,195.843 425.469,194.009 
			390.538,173.775 389.165,166.038 431.972,192.351 437.395,189.225 389.463,160.997 389.785,153.736 390.044,153.891 
			443.758,185.794 448.221,181.114 391.156,150.419 393.108,143.916 393.305,144.026 451.88,177.102 454.814,171.512 
			395.556,138.282 399.442,132.586 399.586,132.668 458.457,166.108 460.281,160.15 404.668,127.98 408.603,122.841 
			408.741,122.923 461.828,154.489 462.21,149.054 413.128,120.844 418.217,116.741 418.324,116.803 463.498,142.833 
			462.676,137.298 426.035,115.178 432.244,113.17 432.313,113.208 459.277,127.999 459.104,128.315 432.208,113.562 
			426.901,115.278 463.008,137.076 463.965,143.519 418.251,117.178 413.766,120.794 462.586,148.854 462.149,155.099 
			408.695,123.316 405.204,127.874 460.711,159.981 458.671,166.645 399.553,133.064 396.077,138.16 455.297,171.369 452.027,177.6 
			393.324,144.452 391.586,150.241 448.81,181.02 443.822,186.252 443.698,186.178 390.118,154.355 389.833,160.796 
			438.112,189.228 431.965,192.771 431.874,192.715 389.66,166.767 390.864,173.547 426.296,194.072 		"/>
	</g>
	<g>
		<polygon fill="#9C9D9D" points="412.192,196.449 454.014,121.906 451.2,119.136 408.58,194.401 404.377,192.196 404.464,192.035 
			445.793,116.259 440.54,114.299 400.588,188.592 396.003,183.597 396.067,183.483 435.222,113.724 429.423,114.236 
			393.925,179.227 390.337,172.943 390.39,172.854 423.357,115.473 417.852,117.06 389.293,167.987 389.369,160.433 
			406.827,126.161 407.15,126.325 389.71,160.558 389.666,166.585 417.61,116.754 417.681,116.733 424.115,114.878 390.754,172.944 
			393.917,178.486 429.198,113.893 435.872,113.304 396.447,183.545 400.51,187.974 440.37,113.85 446.31,116.066 446.21,116.249 
			404.869,192.047 408.438,193.919 451.118,118.548 454.464,121.842 454.397,121.962 412.818,196.069 417.001,195.947 
			457.766,125.318 460.492,130.863 460.444,130.946 423.379,194.582 428.383,193.553 462.198,135.438 463.549,142.909 
			463.515,142.967 435.286,190.745 440.634,188.013 461.3,154.101 461.608,154.289 440.89,188.288 440.844,188.312 434.342,191.632 
			463.17,142.842 462.018,136.467 428.613,193.874 422.661,195.099 422.864,194.749 460.082,130.848 457.74,126.086 
			417.213,196.303 		"/>
	</g>
	<g>
		<path fill="#9C9D9D" d="M391.824,188.447c-2.103-5.381-6.351-15.499-6.149-22.273c0.38-12.899,5.517-24.969,12.2-34.167
			c4.906-6.752,13.357-15.166,23.974-18.427c6.803-2.087,17.642-3.127,25.414,0.952c9.879,5.187,13.557,11.026,16.186,18.124
			c3.788,10.233,2.802,20.393-1.62,32.354c-3.365,9.115-9.936,20.753-21.113,28.355c-9.087,6.182-17.247,6.432-23.048,8.435
			c-3.585,1.239-12.255,2.913-17.985,13.427c-0.963,1.764-47.866,95.675-48.695,97.421c-0.248,0.523-0.394,1.691-0.605,2.229
			c-0.228,0.584-0.609,1.929-1.165,2.222c-1.528,0.812-4.303,0.709-6.881-0.781c-3.314-1.915-4.685-3.653-4.911-5.481
			c-0.062-0.481,0.615-1.326,0.903-1.719c0.384-0.53,1.453-1.337,1.83-1.871c1.86-2.638,51.607-96.414,51.607-96.414
			s7.22-12.128,12.854-14.253c12.008-4.531,21.338-1.904,32.441-8.39c13.042-7.617,18.142-18.852,20.519-25.196
			c4.321-11.541,4.476-21.006,1.659-28.653c-2.037-5.531-6.362-12.261-13.868-16.202c-7.607-3.993-17.026-2.148-22.966-0.089
			c-10.213,3.542-16.312,10.881-20.225,16.005c-8.284,10.856-10.114,18.391-10.307,32.045c-0.106,7.542,3.364,14.297,7.148,18.619
			c4.709,5.382,15.478,10.167,19.974,8.784c0.798-0.245-0.837,1.627-1.017,2.442c-1.15,5.205-14.365,7.344-18.329,10.911
			c-1.769,1.593-1.973,5.662-4.354,5.697c-0.918,0.013-3.671-0.968-3.421-1.914C392.272,209.161,397.484,202.923,391.824,188.447z"
			/>
	</g>
	<g>
		<path fill="#9C9D9D" d="M375.312,264.282c0.057,0.388-23.463,46.701-24.303,48.475c-0.252,0.53-0.399,1.719-0.615,2.266
			c-0.23,0.594-0.621,1.956-1.182,2.255c-1.556,0.823-4.375,0.72-6.991-0.795c-3.365-1.943-4.758-3.711-4.988-5.563
			c-0.062-0.489,0.628-1.351,0.917-1.75c0.391-0.535,1.477-1.355,1.859-1.896c1.89-2.682,25.237-47.798,25.691-48.046
			C366.382,258.854,375.245,263.821,375.312,264.282z"/>
	</g>
</g>
</svg>
