<?xml version="1.0" encoding="utf-8"?>
<!-- Generator: Adobe Illustrator 16.0.1, SVG Export Plug-In . SVG Version: 6.00 Build 0)  -->
<!DOCTYPE svg PUBLIC "-//W3C//DTD SVG 1.1//EN" "http://www.w3.org/Graphics/SVG/1.1/DTD/svg11.dtd">
<svg version="1.1" id="Layer_1" xmlns="http://www.w3.org/2000/svg" xmlns:xlink="http://www.w3.org/1999/xlink" x="0px" y="0px"
	 width="500px" height="500px" viewBox="0 0 500 500" enable-background="new 0 0 500 500" xml:space="preserve">
<g id="avatar">
</g>
<g>
	<circle fill="#595959" cx="422.709" cy="273.435" r="51.866"/>
	<circle fill="#595959" cx="422.709" cy="273.435" r="49.207"/>
	<circle fill="#333333" cx="422.707" cy="273.436" r="40.132"/>
	<path fill="#F15723" d="M383.628,307.528l-1.783,5.487l6.448,5.559l5.03-2.402c-1.534-1.059-3.032-2.205-4.479-3.45
		C386.957,311.093,385.224,309.353,383.628,307.528z"/>
	<g>
		<path fill="#69B04E" d="M363.61,332.22c-14.457,16.774-25.45,26.707-25.45,26.707c-2.656,3.08-2.312,7.731,0.77,10.384
			l0.057,0.051l2.557-2.967c-1.501-1.295-1.146-4.172,0.797-6.425c1.941-2.252,4.733-3.028,6.235-1.733l36.545-42.396l-5.635-4.855
			C379.486,310.982,372.337,322.097,363.61,332.22z"/>
		<path fill="#4A823E" d="M348.576,358.235c1.502,1.294,1.145,4.171-0.798,6.424c-1.941,2.252-4.733,3.028-6.236,1.734l-2.557,2.967
			l0.057,0.048c3.08,2.653,7.729,2.31,10.384-0.771c0,0,11.896-15.736,22.838-28.432c10.419-12.089,18.488-19.515,18.488-19.515
			l-5.634-4.855L348.576,358.235z"/>
	</g>
</g>
</svg>
