<?xml version="1.0" encoding="utf-8"?>
<!-- Generator: Adobe Illustrator 16.0.1, SVG Export Plug-In . SVG Version: 6.00 Build 0)  -->
<!DOCTYPE svg PUBLIC "-//W3C//DTD SVG 1.1//EN" "http://www.w3.org/Graphics/SVG/1.1/DTD/svg11.dtd">
<svg version="1.1" id="Layer_1" xmlns="http://www.w3.org/2000/svg" xmlns:xlink="http://www.w3.org/1999/xlink" x="0px" y="0px"
	 width="500px" height="500px" viewBox="0 0 500 500" enable-background="new 0 0 500 500" xml:space="preserve">
<g>
	<path fill="#4F4F4F" d="M223.264,261.561c-11.774,3.025-24.706,16.999-33.896,25.91c-8.919,6.15-16.867,8.536-31.275,9.233
		c-11.127,0.147-19.891,1.401-26.269,2.774c-2.476,0.254-5.037,0.861-7.668,1.902c-0.359,0.143-0.718,0.298-1.077,0.453
		c-2.604,0.867-3.797,1.583-3.599,1.73c-13.665,7.379-25.595,22.697-17.375,42.698c6.923,17.659,14.292,32.495,24.372,46.404
		c11.982,16.544,35.049,19.632,50.04,9.84c20.573-14.118,26.239-36.786,45.315-38.08c6.933-1.365,23.574-2.813,34.388-13.636
		c3.996-3.963,1.565-10.108-5.469-6.896c-7.036,3.211-24.993-0.728-23.85-19.603c0.095-1.577-1.184-1.122-3.284,0.591
		c-1.335-3.606-3.194-8.061-5.651-12.516c5.375-2.577,12.571-6.484,17.24-10.567c-18.917-15.099-4.726-26.569,2.04-31.64
		C244.007,265.088,239.469,257.395,223.264,261.561z"/>
	<path fill="#EDD5C5" d="M152.296,320.695c4.617-3.535,5.539-5.014,29.256-8.047c15.807-2.021,18.624-6.336,24.185-10.064
		c5.556-3.727,13.534-8.118,15.056,3.51c1.516,11.625-0.593,26.287,5.121,33.943c5.091,5.797,8.071,7.954,16.606,9.178
		c6.22-0.626,9.103,2.391,3.578,5.047c-7.025,3.377-17.887,4.907-27.658,5.799c-9.776,0.893-15.958,4.609-21.383,12.298
		c-5.42,7.688-16.963,21.655-25.124,23.905c-8.161,2.247-9.01-7.061-5.625-14.558c2.592-5.753,1.601-11.035-0.941-17.536
		C161.623,354.605,140.695,329.578,152.296,320.695z"/>
	<path fill="#AD9382" d="M139.396,336.321l15.364,29.894l13.879-8.73l-14.025-28.479C154.614,329.006,140.03,336.35,139.396,336.321
		z"/>
	<path fill="#FFC349" d="M379.047,235.61c-10.783,1.326-49.721,10.783-49.721,10.783l-5.334,9.731l-115.08,50.965l12.506,24.154
		l111.363-58.271c0.006,0.008,0.01,0.016,0.014,0.023c12.271-3.385,25.316-0.57,25.316-0.57s8.328-8.559,16.592-14.453
		c13.896,9.955,23.729-2.449,22.328-9.089C396.227,239.136,385.227,234.848,379.047,235.61z"/>
	<polygon fill="#AD9382" points="337.01,238.555 337.483,242.746 343.039,241.094 342.309,236.707 	"/>
	<polygon fill="#AD9382" points="348.331,235.315 348.803,239.833 355.871,238.894 353.696,233.923 	"/>
	<polygon fill="#AD9382" points="359.787,233.316 360.063,237.77 365.69,236.245 364.17,231.927 	"/>
	<polygon fill="#AD9382" points="369.537,230.865 370.139,235.316 376.096,234.121 374.838,229.345 	"/>
	<polygon fill="#AD9382" points="198.611,311.335 211.525,333.66 214.689,330.814 203.109,308.65 	"/>
	<polygon fill="#AD9382" points="178.83,321.001 191.41,344.33 196.908,341.142 184.497,318.986 	"/>
	<g>
		<polygon fill="#7D7D7D" points="341.16,250.26 154.042,337.506 154.598,338.688 342.349,250.538 		"/>
		<polygon fill="#7D7D7D" points="350.557,250.064 156.671,342.729 157.231,343.906 351.651,250.508 		"/>
		<polygon fill="#7D7D7D" points="360.223,250.398 159.563,348.486 160.137,349.656 362.004,250.764 		"/>
		<polygon fill="#7D7D7D" points="369.887,250.734 162.462,354.244 163.043,355.409 371.454,251.477 		"/>
	</g>
</g>
</svg>
