<?xml version="1.0" encoding="utf-8"?>
<!-- Generator: Adobe Illustrator 16.0.1, SVG Export Plug-In . SVG Version: 6.00 Build 0)  -->
<!DOCTYPE svg PUBLIC "-//W3C//DTD SVG 1.1//EN" "http://www.w3.org/Graphics/SVG/1.1/DTD/svg11.dtd">
<svg version="1.1" id="Layer_1" xmlns="http://www.w3.org/2000/svg" xmlns:xlink="http://www.w3.org/1999/xlink" x="0px" y="0px"
	 width="500px" height="500px" viewBox="0 0 500 500" enable-background="new 0 0 500 500" xml:space="preserve">
<g id="clothes">
</g>
<path display="none" fill="#CAD7D7" d="M251.227,5.982V5.971c-0.098,0-0.19,0.006-0.291,0.006c-0.098,0-0.19-0.006-0.291-0.006
	v0.012c-57.167,0.245-103.41,36.321-103.41,80.807v109.924H252.96h101.662V86.789C354.621,42.303,308.393,6.228,251.227,5.982z
	 M331.764,134.667H173.479V98.992h0.072c1.5-35.169,36.451-63.305,79.375-63.305c43.877,0,79.447,29.396,79.447,65.655
	c0,3.705-0.22,7.191-0.609,10.493V134.667z"/>
<rect x="147.235" y="180" display="none" fill="#A2AEAE" width="207.39" height="16.713"/>
<path fill="#333333" d="M306.094,443.878L306.094,443.878c-15.602-12.146-18.405-34.641-6.259-50.243l94.604-121.532
	c12.146-15.603,34.641-18.405,50.242-6.26h0.001c15.603,12.146,18.405,34.641,6.259,50.243l-94.604,121.532
	C344.192,453.221,321.698,456.022,306.094,443.878z"/>
<path fill="#333333" d="M295.916,399.901c-7.303,14.902-3.436,33.378,10.178,43.976v0.001c13.614,10.597,32.475,9.813,45.13-0.924
	L295.916,399.901z"/>
<path fill="#333333" d="M454.862,309.819c7.302-14.902,3.435-33.379-10.179-43.977h-0.001c-13.613-10.598-32.474-9.813-45.128,0.923
	L454.862,309.819z"/>
<g>
	<path fill="#FFFFFF" d="M398.087,288.5l-6.257-4.87c-1.094-0.852-1.291-2.43-0.439-3.523l7.087-9.104
		c0.853-1.094,2.43-1.291,3.524-0.438l6.256,4.87c1.095,0.853,1.291,2.43,0.439,3.523l-7.087,9.104
		C400.758,289.155,399.182,289.353,398.087,288.5z"/>
	<path fill="#FFFFFF" d="M440.406,321.444l-6.256-4.87c-1.094-0.853-1.29-2.43-0.438-3.523l7.087-9.104
		c0.852-1.095,2.428-1.291,3.523-0.438l6.256,4.87c1.094,0.851,1.291,2.429,0.439,3.523l-7.087,9.104
		C443.078,322.1,441.502,322.296,440.406,321.444z"/>
	<path fill="#8596A0" d="M417.971,309.533l-8.936-6.956c-0.573-0.445-0.676-1.272-0.229-1.846l10.259-13.179
		c0.446-0.573,1.272-0.676,1.846-0.23l8.936,6.956c0.573,0.446,0.678,1.272,0.23,1.847l-10.26,13.179
		C419.371,309.877,418.544,309.98,417.971,309.533z"/>
	
		<rect x="438.4" y="304.197" transform="matrix(-0.7891 -0.6143 0.6143 -0.7891 599.4746 830.7849)" fill="#EFEFEF" width="7.928" height="16.559"/>
	
		<rect x="396.081" y="271.253" transform="matrix(-0.7891 -0.6143 0.6143 -0.7891 543.9984 745.8482)" fill="#EFEFEF" width="7.928" height="16.558"/>
	<polygon fill="#EFEFEF" points="419.35,289.691 419.505,288.571 420.553,288.146 421.444,288.84 421.288,289.959 420.24,290.385 	
		"/>
	<polygon fill="#EFEFEF" points="409.821,301.932 409.976,300.812 411.024,300.388 411.914,301.081 411.76,302.2 410.712,302.626 	
		"/>
	<polygon fill="#EFEFEF" points="417.465,307.883 417.62,306.764 418.668,306.338 419.559,307.032 419.405,308.151 418.357,308.577 
			"/>
	<polygon fill="#EFEFEF" points="426.994,295.642 427.15,294.521 428.198,294.097 429.088,294.791 428.934,295.91 427.885,296.336 	
		"/>
	<path fill="#365766" d="M438.233,307.326l-32.143-25.021l-1.957,2.514c3.742,6.681,6.188,11.045,8.674,14.137
		c-0.685,2.011-0.071,4.317,1.698,5.695c1.771,1.378,4.158,1.406,5.938,0.249c3.606,1.651,8.438,2.951,15.832,4.94L438.233,307.326z
		"/>
	<polygon fill="#EFEFEF" points="415.612,301.557 415.891,299.542 417.776,298.776 419.38,300.025 419.102,302.041 417.216,302.806 
			"/>
</g>
<g>
	<path fill="#FFFFFF" d="M352.706,421.199l6.256,4.871c1.095,0.852,1.291,2.429,0.439,3.523l-7.087,9.104
		c-0.852,1.094-2.429,1.291-3.523,0.439l-6.257-4.871c-1.094-0.852-1.29-2.43-0.438-3.523l7.088-9.104
		C350.034,420.545,351.612,420.348,352.706,421.199z"/>
	<path fill="#FFFFFF" d="M310.386,388.256l6.257,4.871c1.094,0.852,1.29,2.428,0.438,3.522l-7.087,9.104
		c-0.852,1.094-2.43,1.291-3.523,0.439l-6.257-4.871c-1.094-0.852-1.29-2.43-0.439-3.523l7.087-9.104
		C307.713,387.601,309.291,387.404,310.386,388.256z"/>
	<path fill="#8596A0" d="M332.822,400.166l8.936,6.956c0.573,0.447,0.676,1.273,0.229,1.847l-10.258,13.18
		c-0.447,0.572-1.273,0.676-1.847,0.229l-8.936-6.955c-0.573-0.446-0.677-1.273-0.23-1.847l10.259-13.179
		C331.422,399.823,332.248,399.722,332.822,400.166z"/>
	
		<rect x="304.464" y="388.945" transform="matrix(0.7891 0.6143 -0.6143 0.7891 309.0757 -105.6821)" fill="#EFEFEF" width="7.929" height="16.559"/>
	
		<rect x="346.784" y="421.889" transform="matrix(0.7891 0.6143 -0.6143 0.7891 338.2398 -124.7309)" fill="#EFEFEF" width="7.929" height="16.559"/>
	<polygon fill="#EFEFEF" points="331.444,420.01 331.288,421.129 330.241,421.554 329.349,420.859 329.504,419.74 330.552,419.314 	
		"/>
	<polygon fill="#EFEFEF" points="340.972,407.77 340.817,408.888 339.77,409.312 338.877,408.619 339.033,407.499 340.08,407.074 	
		"/>
	<polygon fill="#EFEFEF" points="333.327,401.817 333.172,402.937 332.125,403.361 331.234,402.668 331.389,401.548 
		332.436,401.123 	"/>
	<polygon fill="#EFEFEF" points="323.799,414.058 323.643,415.178 322.596,415.603 321.705,414.909 321.86,413.789 322.907,413.364 
			"/>
	<path fill="#365766" d="M312.559,402.374l32.144,25.021l1.957-2.515c-3.742-6.68-6.188-11.044-8.674-14.136
		c0.685-2.01,0.072-4.318-1.698-5.695c-1.77-1.378-4.157-1.407-5.938-0.249c-3.607-1.652-8.438-2.952-15.832-4.94L312.559,402.374z"
		/>
	<polygon fill="#EFEFEF" points="335.181,408.145 334.902,410.158 333.018,410.924 331.412,409.675 331.692,407.66 333.576,406.895 
			"/>
</g>
</svg>
