<?xml version="1.0" encoding="utf-8"?>
<!-- Generator: Adobe Illustrator 16.0.1, SVG Export Plug-In . SVG Version: 6.00 Build 0)  -->
<!DOCTYPE svg PUBLIC "-//W3C//DTD SVG 1.1//EN" "http://www.w3.org/Graphics/SVG/1.1/DTD/svg11.dtd">
<svg version="1.1" xmlns="http://www.w3.org/2000/svg" xmlns:xlink="http://www.w3.org/1999/xlink" x="0px" y="0px" width="500px"
	 height="500px" viewBox="0 0 500 500" enable-background="new 0 0 500 500" xml:space="preserve">
<g id="avatar">
</g>
<g id="tennis">
	<g>
		<polyline fill="none" stroke="#3C3A31" stroke-width="0.3899" stroke-miterlimit="10" points="418.694,217.691 447.791,234.11 
			453.282,231.949 415.307,209.951 413.916,202.116 459.851,230.353 466.095,226.753 414.17,196.173 414.498,188.779 
			472.611,223.295 477.712,217.946 416.03,184.768 418.021,178.133 481.423,213.934 484.771,207.555 420.828,171.697 
			424.801,165.873 488.559,202.088 490.644,195.276 430.672,160.586 434.679,155.352 492.255,189.586 492.697,183.282 
			439.859,152.913 445.026,148.747 494.136,177.046 493.176,170.581 453.915,146.878 460.129,144.868 489.235,160.834 		"/>
		<polyline fill="none" stroke="#3C3A31" stroke-width="0.3899" stroke-miterlimit="10" points="491.678,188.939 469.343,225.591 
			462.923,228.871 493.735,176.721 492.384,169.249 456.104,231.596 450.192,232.812 490.419,163.747 487.683,158.184 
			443.809,234.199 438.842,234.344 483.89,154.052 480.566,150.779 434.528,232.079 430.334,229.878 475.052,147.887 
			469.012,145.633 425.937,225.734 421.269,220.648 463.714,145.028 456.983,145.622 418.782,215.56 415.139,209.177 
			450.965,146.821 444.483,148.69 413.988,203.07 414.042,195.761 432.888,158.768 		"/>
		<path fill="#D36E13" d="M416.52,225.912c-2.27-5.809-6.855-16.73-6.638-24.042c0.41-13.923,5.954-26.952,13.168-36.88
			c5.296-7.289,14.418-16.371,25.877-19.89c7.343-2.253,19.043-3.376,27.433,1.027c10.664,5.599,14.633,11.902,17.471,19.563
			c4.089,11.046,3.024,22.012-1.749,34.923c-3.634,9.838-10.725,22.401-22.791,30.606c-9.809,6.673-18.617,6.943-24.878,9.105
			c-3.869,1.338-13.228,3.144-19.413,14.493c-1.04,1.904-51.668,103.272-52.562,105.157c-0.268,0.565-0.424,1.828-0.653,2.408
			c-0.247,0.63-0.659,2.082-1.258,2.398c-1.651,0.875-4.646,0.766-7.429-0.845c-3.577-2.066-5.056-3.943-5.3-5.915
			c-0.066-0.52,0.665-1.432,0.975-1.855c0.415-0.573,1.569-1.443,1.976-2.021c2.008-2.848,55.706-104.07,55.706-104.07
			s7.792-13.091,13.875-15.385c12.96-4.891,23.032-2.056,35.017-9.056c14.078-8.222,19.583-20.349,22.148-27.197
			c4.664-12.458,4.83-22.674,1.79-30.929c-2.198-5.971-6.867-13.234-14.969-17.488c-8.212-4.31-18.379-2.318-24.79-0.096
			c-11.024,3.823-17.608,11.745-21.83,17.276c-8.943,11.718-10.918,19.851-11.126,34.589c-0.114,8.141,3.631,15.432,7.716,20.098
			c5.083,5.81,16.706,10.975,21.56,9.482c0.861-0.265-0.903,1.757-1.097,2.636c-1.242,5.619-15.506,7.928-19.785,11.777
			c-1.91,1.719-2.129,6.111-4.699,6.149c-0.991,0.014-3.963-1.045-3.692-2.065C417.001,248.27,422.628,241.537,416.52,225.912z"/>
		<path fill="#3C3A31" d="M398.695,307.769c0.061,0.419-25.326,50.411-26.232,52.325c-0.272,0.573-0.432,1.855-0.664,2.445
			c-0.25,0.641-0.671,2.112-1.277,2.434c-1.678,0.889-4.722,0.778-7.546-0.856c-3.632-2.098-5.135-4.007-5.385-6.007
			c-0.067-0.527,0.678-1.456,0.991-1.887c0.421-0.58,1.594-1.464,2.007-2.048c2.04-2.894,27.242-51.593,27.732-51.861
			C389.057,301.91,398.623,307.271,398.695,307.769z"/>
	</g>
</g>
</svg>
