<?xml version="1.0" encoding="utf-8"?>
<!-- Generator: Adobe Illustrator 16.0.1, SVG Export Plug-In . SVG Version: 6.00 Build 0)  -->
<!DOCTYPE svg PUBLIC "-//W3C//DTD SVG 1.1//EN" "http://www.w3.org/Graphics/SVG/1.1/DTD/svg11.dtd">
<svg version="1.1" id="Layer_1" xmlns="http://www.w3.org/2000/svg" xmlns:xlink="http://www.w3.org/1999/xlink" x="0px" y="0px"
	 width="500px" height="500px" viewBox="0 0 500 500" enable-background="new 0 0 500 500" xml:space="preserve">
<path fill="#3E6769" d="M160.671,314.398c0,0,7.014-14.339,7.05-13.908s1.018,13.257,1.018,13.257L160.671,314.398z"/>
<path fill="#4B7F81" d="M178.036,181.999c2.135,4.897,1.454,3.227,2.135,4.897c9.521,23.309,10.883,46.668,9.154,69.536
	c-2.005,26.415-13.332,48.629-23,54.515c-0.754,0.458-4.923,3.198-5.653,3.452l8.45,32.371c1.061-1.042,11.965-11.894,13.077-13.126
	c18.084-19.968,43.588-56.793,7.156-151.924C188.909,180.556,182.667,173.333,178.036,181.999z"/>
<path fill="#3E6769" d="M341.165,314.398c0,0-7.014-14.339-7.05-13.908s-1.018,13.257-1.018,13.257L341.165,314.398z"/>
<path fill="#4B7F81" d="M323.8,181.999c-2.135,4.897-1.453,3.227-2.135,4.897c-9.52,23.309-10.883,46.668-9.153,69.536
	c2.005,26.415,13.332,48.629,23,54.515c0.754,0.458,4.923,3.198,5.653,3.452l-8.45,32.371c-1.061-1.042-11.965-11.894-13.077-13.126
	c-18.084-19.968-43.588-56.793-7.156-151.924C312.928,180.556,319.169,173.333,323.8,181.999z"/>
</svg>
