<?xml version="1.0" encoding="utf-8"?>
<!-- Generator: Adobe Illustrator 16.0.1, SVG Export Plug-In . SVG Version: 6.00 Build 0)  -->
<!DOCTYPE svg PUBLIC "-//W3C//DTD SVG 1.1//EN" "http://www.w3.org/Graphics/SVG/1.1/DTD/svg11.dtd">
<svg version="1.1" id="Layer_1" xmlns="http://www.w3.org/2000/svg" xmlns:xlink="http://www.w3.org/1999/xlink" x="0px" y="0px"
	 width="925px" height="809px" viewBox="0 0 925 809" enable-background="new 0 0 925 809" xml:space="preserve">
<linearGradient id="SVGID_1_" gradientUnits="userSpaceOnUse" x1="379.4995" y1="-226.415" x2="379.4995" y2="435.8237" gradientTransform="matrix(1 0 0 1 83 214)">
	<stop  offset="0" style="stop-color:#FDD622"/>
	<stop  offset="0.5056" style="stop-color:#E30613"/>
	<stop  offset="1" style="stop-color:#EF7D00"/>
</linearGradient>
<rect fill="url(#SVGID_1_)" width="925" height="649.82"/>
<g>
	<linearGradient id="SVGID_2_" gradientUnits="userSpaceOnUse" x1="51.5" y1="365.4673" x2="867.4795" y2="365.4673">
		<stop  offset="0" style="stop-color:#947E51"/>
		<stop  offset="0.5" style="stop-color:#5C460E"/>
		<stop  offset="1" style="stop-color:#3C2C00"/>
	</linearGradient>
	<path fill="url(#SVGID_2_)" d="M866.781,424.438c-4.554-2.974-31.108-2.974-36.04-2.974c-4.936,0-39.847-1.315-48.949,0
		c-5.187,0.742-15.536,1.21-23.491,1.462c-21.273-46.768-55.566-77.554-81.613-90.594c-26.178-13.107-120.278-34.077-204.505-40.19
		c-185.916-3.497-275.083,57.234-286.465,65.971c-9.88,7.583-34.323,57.599-40.611,70.684c-6.355-0.102-17.306-0.209-23.509,0.09
		c-9.104,0.438-25.04-0.873-34.525-3.059c-9.486-2.184-12.142,0.432-16.695,0c-4.554-0.432-21.247-0.704-18.592,3.142
		c2.656,3.849,5.311,1.229,22.386,2.101c17.075,0.875,30.356,1.31,48.187,2.622c17.832,1.313,39.079,3.062,61.464,0
		c22.388-3.059,31.876-11.375,84.234-8.743c52.363,2.626,89.922,9.715,116.479,11.413c26.563,1.702,93.342,2.575,114.21,2.575
		c20.869,0,53.498-1.219,75.884-2.575c22.384-1.356,101.685-7.476,123.312-7.476c21.625,0,47.805-0.873,64.119-0.873
		s58.051-1.745,74.365-0.436C852.741,428.887,871.336,427.418,866.781,424.438z"/>
	<g opacity="0.2">
		<path fill="#1D1D1B" d="M172.019,434.857c3.896-0.271,7.824-0.62,11.803-1.165c0.888-0.119,1.75-0.254,2.598-0.389
			c0.593-23.435,9.533-43.138,17.79-62.832C181.633,385.272,174.256,419.419,172.019,434.857z"/>
		<path fill="#1D1D1B" d="M210.054,428.102c5.89-1.246,12.615-2.359,21.279-3.022c0.587-22.423,6.076-44.92,22.405-84.49
			C222.766,368.152,212.925,410.409,210.054,428.102z"/>
		<path fill="#1D1D1B" d="M264.654,424.801c1.12,0.045,2.238,0.09,3.401,0.148c3.354,0.166,6.643,0.354,9.879,0.558
			c0.391-15.847,4.298-33.392,9.758-64.991C275.067,374.085,267.42,409.685,264.654,424.801z"/>
		<path fill="#1D1D1B" d="M306.411,427.775c8.616,0.83,16.719,1.717,24.343,2.613c0.32-23.274,3.913-57.309,19.01-103.744
			C318.288,353.731,309.026,405.169,306.411,427.775z"/>
		<path fill="#1D1D1B" d="M345.134,432.123c6.565,0.81,12.728,1.569,18.492,2.24c0.441-29.172,4.132-53.479,9.71-86.054
			C353.872,368.734,347.287,410.653,345.134,432.123z"/>
		<path fill="#1D1D1B" d="M457.252,334.115c-21.368,29.441-26.389,86.748-27.435,103.878c4.458,0.104,8.969,0.197,13.458,0.283
			C442.465,397.165,448.563,374.615,457.252,334.115z"/>
		<path fill="#1D1D1B" d="M482.556,319.673c-31.192,46.366-32.174,101.988-31.677,118.743c7.601,0.133,14.983,0.238,21.736,0.316
			C468.866,383.176,476.384,355.672,482.556,319.673z"/>
		<path fill="#1D1D1B" d="M610.54,433.904c5.429-0.376,11.101-0.77,16.876-1.167c-0.606-44.014-9.958-57.479-25.254-83.188
			C613.205,369.425,612.056,411.718,610.54,433.904z"/>
		<path fill="#1D1D1B" d="M621.412,340.831c21.415,24.678,20.888,71.487,19.605,90.988c5.952-0.394,11.844-0.773,17.51-1.12
			C651.396,373.918,636.621,350.319,621.412,340.831z"/>
		<path fill="#1D1D1B" d="M663.371,369.971c8.085,18.812,6.477,47.548,5.258,60.124c5.145-0.295,9.929-0.547,14.233-0.747
			C677.538,392.077,670.657,377.644,663.371,369.971z"/>
	</g>
</g>
<g>
</g>
<linearGradient id="SVGID_3_" gradientUnits="userSpaceOnUse" x1="462.5005" y1="744" x2="462.5005" y2="439.8356">
	<stop  offset="0" style="stop-color:#947E51"/>
	<stop  offset="0.5" style="stop-color:#5C460E"/>
	<stop  offset="1" style="stop-color:#3C2C00"/>
</linearGradient>
<polygon fill="url(#SVGID_3_)" points="925,809 0,809 0.099,420.59 925,420.59 "/>
<linearGradient id="SVGID_4_" gradientUnits="userSpaceOnUse" x1="0" y1="641.4287" x2="925" y2="641.4287">
	<stop  offset="0" style="stop-color:#947E51"/>
	<stop  offset="0.5" style="stop-color:#5C460E"/>
	<stop  offset="1" style="stop-color:#3C2C00"/>
</linearGradient>
<path fill="url(#SVGID_4_)" d="M0,725c8.898-2.305,39.679,2.225,48.606,3.139c10.482,1.072,22.149,0.177,32.754,0.188
	c24.529,0.032,48.506-4.126,69.937-12.293c18.99-7.238,38.145-16.599,53.549-26.822c22.917-15.209,47.535-12.154,78.801-12.158
	c26.382-0.002,47.106-2.135,70.298-10.394c22.271-7.937,43.449-4.799,68.292-4.799c23.979,0,55.125,2.397,76.724-6.411
	c11.558-4.712,16.016-12.773,23.153-20.18c24.011-24.918,64.24-36.408,101.317-50.37c16.659-6.271,35.026-14.822,51.755-19.679
	c17.532-5.09,37.142-3.173,54.884-8.711c29.792-9.302,61.67-18.597,88.685-31.407c16.695-7.915,24.396-17.022,36.492-27.509
	c8.517-7.377,22.605-12.192,35.284-15.19c9.272-2.194,30.289-1.561,33.741-8.547L925,809H0"/>
<linearGradient id="SVGID_5_" gradientUnits="userSpaceOnUse" x1="721.0039" y1="690.3359" x2="721.0039" y2="866.0065" gradientTransform="matrix(1 0 0 -1 41.5 913)">
	<stop  offset="0" style="stop-color:#D51317"/>
	<stop  offset="0.5225" style="stop-color:#E96323"/>
	<stop  offset="1" style="stop-color:#E74310"/>
</linearGradient>
<circle fill="url(#SVGID_5_)" cx="762.503" cy="132.498" r="86.849"/>
<linearGradient id="SVGID_6_" gradientUnits="userSpaceOnUse" x1="259.6997" y1="872.8691" x2="410.6997" y2="694.8691">
	<stop  offset="0" style="stop-color:#947E51"/>
	<stop  offset="0.5" style="stop-color:#5C460E"/>
	<stop  offset="1" style="stop-color:#3C2C00"/>
</linearGradient>
<path fill="url(#SVGID_6_)" d="M924.877,752.301c-5.011,3.897-17.215-0.878-23.604-1.055c-6.773-0.188-12.223,5.301-19.755,5.977
	c-8.564,0.77-15.462,1.667-22.194-0.022c-8.851-2.222-11.767-5.758-18.806-10.028c-12.895-7.824-35.06-1.171-50-1.171
	c-24.853,0-48.191-5.551-73-8.048c-17.327-1.745-35.312,0.683-52.744,0.048c-13.708-0.499-15.142-9.524-26.203-13.774
	c-6.323-2.429-9.462,0.613-15.807,1.575c-7.447,1.129-15.738,0.186-23.273,0.199c-17.431,0.034-34.469-4.347-49.697-12.948
	c-13.494-7.622-27.104-17.479-38.052-28.247c-16.284-16.018-33.778-12.801-55.997-12.805c-18.746-0.003-33.472-2.247-49.952-10.948
	c-15.827-8.355-30.875-5.052-48.528-5.052c-17.041,0-39.171,2.526-54.52-6.751c-8.212-4.964-11.381-13.453-16.452-21.253
	c-17.063-26.243-45.65-38.345-71.997-53.048c-11.839-6.606-24.891-15.612-36.777-20.727c-12.459-5.359-26.393-3.341-39-9.175
	c-21.17-9.795-43.822-19.584-63.02-33.076C63.636,503.634,58.165,494.043,49.567,483c-6.05-7.77-16.063-12.842-25.071-16
	c-6.59-2.311-21.524-1.644-23.977-9L0,809h925L924.877,752.301z"/>
</svg>
