<?xml version="1.0" encoding="utf-8"?>
<!-- Generator: Adobe Illustrator 16.0.1, SVG Export Plug-In . SVG Version: 6.00 Build 0)  -->
<!DOCTYPE svg PUBLIC "-//W3C//DTD SVG 1.1//EN" "http://www.w3.org/Graphics/SVG/1.1/DTD/svg11.dtd">
<svg version="1.1" id="content" xmlns="http://www.w3.org/2000/svg" xmlns:xlink="http://www.w3.org/1999/xlink" x="0px" y="0px"
	 width="500px" height="500px" viewBox="0 0 500 500" enable-background="new 0 0 500 500" xml:space="preserve">
<g id="bounds">
	<rect x="0" y="0" fill="none" width="500" height="500"/>
</g>
<g>
	<g>
		<g>
			<path fill="#BFBFC0" d="M175.567,325.683c0,9.825-8.039,17.863-17.863,17.863h-0.483c-9.825,0-17.863-8.038-17.863-17.863
				v-98.431c0-9.825,8.039-17.863,17.863-17.863h0.483c9.825,0,17.863,8.039,17.863,17.863V325.683z"/>
		</g>
	</g>
	<g>
		<g>
			<path fill="#BFBFC0" d="M365.198,325.683c0,9.825-8.038,17.863-17.863,17.863h-0.483c-9.825,0-17.863-8.038-17.863-17.863
				v-98.431c0-9.825,8.038-17.863,17.863-17.863h0.483c9.825,0,17.863,8.039,17.863,17.863V325.683z"/>
		</g>
	</g>
	<g>
		<g>
			<path fill="#BFBFC0" d="M241.807,435.199c0,11.027-9.022,20.05-20.05,20.05h-1.928c-11.027,0-20.05-9.022-20.05-20.05V329.692
				c0-11.027,9.022-20.05,20.05-20.05h1.928c11.027,0,20.05,9.022,20.05,20.05V435.199z"/>
		</g>
		<g>
			<path fill="#335DA8" d="M304.238,435.199c0,11.027-9.022,20.05-20.05,20.05h-1.93c-11.027,0-20.05-9.022-20.05-20.05V329.692
				c0-11.027,9.022-20.05,20.05-20.05h1.93c11.027,0,20.05,9.022,20.05,20.05V435.199z"/>
		</g>
		<g>
			<path fill="#BFBFC0" d="M304.775,434.944c0,11.168-9.137,20.305-20.305,20.305h-2.495c-11.168,0-20.305-9.137-20.305-20.305
				V329.947c0-11.168,9.137-20.305,20.305-20.305h2.495c11.168,0,20.305,9.137,20.305,20.305V434.944z"/>
		</g>
	</g>
	<g>
		<circle fill="#BFBFC0" cx="252.277" cy="134.576" r="70.287"/>
	</g>
	<g>
		<circle fill="#FFFFFF" cx="225.701" cy="127.307" r="12.399"/>
		<circle fill="#FFFFFF" cx="277.848" cy="127.307" r="12.399"/>
		<path fill="#FFFFFF" d="M264.675,162.414c0,6.848-5.55,12.398-12.398,12.398c-6.847,0-12.398-5.551-12.398-12.398H264.675z"/>
	</g>
	<g>
		<path fill="#BFBFC0" d="M311.87,355.693c-0.824,9.682-9.448,17.603-19.165,17.603h-81.106c-9.716,0-18.329-7.922-19.139-17.604
			l-10.767-128.698c-0.81-9.683,6.477-17.604,16.193-17.604h108.781c9.716,0,16.991,7.921,16.167,17.602L311.87,355.693z"/>
	</g>
</g>
<rect x="199.779" y="365.959" fill-rule="evenodd" clip-rule="evenodd" fill="#9C9D9D" width="42.028" height="23.752"/>
<rect x="262.178" y="365.959" fill-rule="evenodd" clip-rule="evenodd" fill="#9C9D9D" width="42.029" height="23.752"/>
<rect x="199.779" y="409.618" fill-rule="evenodd" clip-rule="evenodd" fill="#9C9D9D" width="42.028" height="4.911"/>
<rect x="262.178" y="409.618" fill-rule="evenodd" clip-rule="evenodd" fill="#9C9D9D" width="42.029" height="4.911"/>
<rect x="199.779" y="414.081" fill-rule="evenodd" clip-rule="evenodd" fill="#9C9D9D" width="42.028" height="22.406"/>
<rect x="262.178" y="414.081" fill-rule="evenodd" clip-rule="evenodd" fill="#9C9D9D" width="42.029" height="22.406"/>
<g>
	<defs>
		<path id="SVGID_1_" d="M293.814,209.389H283.22c0,0-15.093,37.693-30.859,37.693s-30.86-37.693-30.86-37.693h-10.76
			c-0.046,16.093,2.562,49.228-26.401,49.228l8.429,97.077c0.828,9.68,9.455,17.602,19.171,17.602h81.106
			c9.717,0,18.325-7.924,19.132-17.605l7.963-97.069C290.247,258.621,293.861,225.51,293.814,209.389z"/>
	</defs>
	<clipPath id="SVGID_2_">
		<use xlink:href="#SVGID_1_"  overflow="visible"/>
	</clipPath>
	<g clip-path="url(#SVGID_2_)">
		<rect x="288.719" y="209.299" fill="#9C9D9D" width="17.829" height="163.516"/>
		<rect x="306.548" y="209.299" fill="#FFFFFF" width="18.125" height="163.516"/>
		<rect x="252.948" y="209.299" fill="#9C9D9D" width="17.133" height="163.516"/>
		<polygon fill="#FFFFFF" points="270.189,209.299 270.081,209.299 270.081,372.815 270.189,372.815 288.719,372.815 
			288.719,209.299 		"/>
		<rect x="216.24" y="209.299" fill="#9C9D9D" width="17.371" height="163.516"/>
		<polygon fill="#FFFFFF" points="252.361,209.299 234.068,209.299 233.611,209.299 233.611,372.815 234.068,372.815 
			252.361,372.815 252.948,372.815 252.948,209.299 		"/>
		<rect x="179.881" y="209.299" fill="#9C9D9D" width="17.721" height="163.516"/>
		<polygon fill="#FFFFFF" points="197.708,209.299 197.601,209.299 197.601,372.815 197.708,372.815 216.24,372.815 216.24,209.299 
					"/>
	</g>
</g>
<path fill="#9C9D9D" d="M250.132,54.897c-56.322,0-98.647,49.293-67.057,92.396l0,0c0,0-1.483-44.276,28.028-63.923
	c0,0,1.48,23.599,82.545,16.704c0,0-11.306-10.256-10.713-20.532c0,0,39.909,48.104,38.885,67.75l0,0
	C350.296,105.191,317.461,54.897,250.132,54.897z"/>
<path fill="#9C9D9D" d="M316.241,348.539c0,0,19.165,19.075,55.54-8.693c0,0,22.048-16.948,26.439-35.711
	c0,0,3.727-19.83-2.395-24.09c0,0-14.773-17.035-55.896,5.589c0,0-25.951,15.307-29.411,49.774
	C310.519,335.408,311.052,345.701,316.241,348.539z"/>
<path fill="#BFBFC0" d="M320.633,351.644c0,0-0.534-0.133,0.931-0.133c1.463,0,26.884-3.727,48.044-23.023
	c0,0,28.88-27.149,29.146-42.187c0,0,0.711,2.705,0.443,3.237c0,0-3.904,17.921-28.923,40.147
	C370.274,329.686,348.713,350.446,320.633,351.644z"/>
<path fill="#BFBFC0" d="M310.785,336.606c0,0,11.577-43.52,41.39-54.831c0,0,21.424-7.72,32.072-7.053
	c0,0-30.609-0.667-49.374,16.901C334.873,291.624,314.51,311.719,310.785,336.606z"/>
<path fill="#BFBFC0" d="M328.751,294.952c0,0,1.197,0.931,1.33,1.729c0.135,0.8,2.129,3.061,3.061,2.396c0,0,0.8-0.533,0.134-1.597
	c-0.666-1.066-1.33-2.396-1.33-2.396S330.216,292.822,328.751,294.952z"/>
<path fill="#BFBFC0" d="M331.946,292.156c0,0,0.265,0.531,0.931,0.931c0.667,0.4,2.129,2.264,2.129,2.264s1.465,1.33,2.129,0.532
	c0,0,0.533-1.598-0.133-2.13c-0.665-0.531-2.528-2.662-2.528-2.662S332.078,290.427,331.946,292.156z"/>
<path fill="#BFBFC0" d="M337.269,287.231c0,0,0.533,1.065,1.196,1.464c0.666,0.4,1.598,1.996,1.598,1.996s1.065,1.199,1.73,0.532
	c0.666-0.664,1.33-1.195,0.532-1.596s-3.062-3.461-3.062-3.461S337.401,286.302,337.269,287.231z"/>
<path fill="#BFBFC0" d="M340.728,284.837c0,0-0.798,0.133,0.267,0.666c1.064,0.532,2.396,2.127,2.396,2.127s2.128,1.73,3.062,0.667
	c0,0,0.532-1.729-0.269-2.13c-0.797-0.398-3.061-2.396-3.061-2.396S340.994,283.905,340.728,284.837z"/>
<ellipse transform="matrix(-0.6437 0.7652 -0.7652 -0.6437 773.8732 219.1337)" fill="#BFBFC0" cx="335.928" cy="289.704" rx="1.764" ry="1.363"/>
<ellipse transform="matrix(-0.6438 0.7652 -0.7652 -0.6438 773.0248 218.9173)" fill="#BFBFC0" cx="335.558" cy="289.385" rx="1.464" ry="1.131"/>
<path fill="#BFBFC0" d="M345.653,282.308c0,0,2.661,0.931,2.795,1.73c0.133,0.798,0.665,1.331,1.729,1.063
	c0,0,1.197-1.729,0.267-2.529c-0.932-0.798-2.13-1.597-2.13-1.597S345.92,281.509,345.653,282.308z"/>
<path fill="#BFBFC0" d="M325.157,298.943c0,0,0.267,1.997,1.065,2.529c0.798,0.532,1.463,1.065,1.463,1.065s1.598,0.664,1.863-0.134
	c0.268-0.799,0.399-1.331-0.532-1.73c-0.933-0.398-1.863-1.865-1.863-1.865S325.823,297.879,325.157,298.943z"/>
<ellipse transform="matrix(-0.6429 0.7659 -0.7659 -0.6429 772.8409 218.3701)" fill="#BFBFC0" cx="335.52" cy="289.329" rx="0.679" ry="0.526"/>
<path fill="#BFBFC0" d="M331.745,303.669c0,0-0.134-0.067,0.133-0.267c0.267-0.2,0.399-0.398,0.399-0.398s0.666,0.133,0.398,0.265
	c-0.265,0.134-0.798,0.599-0.798,0.599L331.745,303.669z"/>
<path fill="#BFBFC0" d="M332.944,302.603l0.865-0.665c0,0,0.398-0.067,0.199,0.198c-0.199,0.268-0.799,0.731-0.799,0.731
	S332.944,302.868,332.944,302.603z"/>
<path fill="#BFBFC0" d="M334.408,301.539l0.931-0.799c0,0,0.266,0,0.067,0.267c-0.201,0.266-0.733,0.799-0.733,0.799
	S334.341,301.938,334.408,301.539z"/>
<path fill="#BFBFC0" d="M335.805,300.275c0,0,0.665-0.667,0.864-0.4c0.2,0.266-0.398,0.533-0.398,0.533
	S335.537,300.873,335.805,300.275z"/>
<path fill="#BFBFC0" d="M337.335,299.476l0.799-0.399l0.133-0.066c0,0,0.333,0.466-0.067,0.531c-0.397,0.066-0.731,0.4-0.731,0.4
	S337.069,299.608,337.335,299.476z"/>
<path fill="#BFBFC0" d="M338.8,298.677l0.929-0.4c0,0,0.201,0.268-0.131,0.335c-0.334,0.065-0.798,0.466-0.798,0.466
	S338.465,298.808,338.8,298.677z"/>
<path fill="#BFBFC0" d="M340.196,297.946l0.865-0.134c0,0,0.531,0.267,0.133,0.332c-0.399,0.067-0.998,0.268-0.998,0.268
	S339.864,298.012,340.196,297.946z"/>
<path fill="#BFBFC0" d="M341.793,297.346l0.732-0.201c0,0,0.333,0.201,0.065,0.269c-0.266,0.066-0.865,0.465-0.865,0.465
	S341.395,297.414,341.793,297.346z"/>
<path fill="#BFBFC0" d="M342.924,296.68l0.6-0.731c0,0,0.398-0.066,0.199,0.266c-0.199,0.335-0.666,0.799-0.666,0.799
	S342.591,297.145,342.924,296.68z"/>
<path fill="#BFBFC0" d="M343.789,295.35l0.665-0.733c0,0,0.4-0.131,0.267,0.068c-0.133,0.199-0.532,0.731-0.532,0.731
	S343.456,295.815,343.789,295.35z"/>
<path fill="#BFBFC0" d="M344.786,294.019l0.601-0.732c0,0,0.266,0,0.199,0.2c-0.067,0.198-0.6,0.933-0.6,0.933
	S344.454,294.552,344.786,294.019z"/>
<path fill="#BFBFC0" d="M345.784,292.555l0.533-0.866c0,0,0.334-0.131,0.2,0.201c-0.132,0.332-0.468,0.932-0.468,0.932
	S345.586,292.955,345.784,292.555z"/>
<path fill="#BFBFC0" d="M346.851,291.158l0.532-0.467c0,0,0.398,0.067,0.199,0.2c-0.199,0.134-0.664,0.732-0.664,0.732
	S346.518,291.424,346.851,291.158z"/>
<path fill="#BFBFC0" d="M348.115,289.961l0.731-0.601c0,0,0.334,0.068,0,0.334c-0.332,0.267-0.665,0.599-0.665,0.599
	S347.847,290.226,348.115,289.961z"/>
<path fill="#BFBFC0" d="M349.113,288.963l0.732-0.6c0,0,0.466,0,0.266,0.134c-0.199,0.133-0.665,0.665-0.665,0.665
	S348.781,289.36,349.113,288.963z"/>
<path fill="#BFBFC0" d="M350.51,287.898l0.798-0.998c0,0,0.266,0.132,0,0.398c-0.267,0.266-0.465,0.666-0.465,0.666
	S350.376,288.297,350.51,287.898z"/>
<path fill="#BFBFC0" d="M351.975,286.302l0.466-0.466c0,0,0.465,0,0.199,0.199c-0.267,0.198-0.601,0.599-0.601,0.599
	S351.643,286.634,351.975,286.302z"/>
<path fill="#BFBFC0" d="M353.039,285.37l0.399-0.8c0,0,0.333,0.267,0.199,0.466c-0.133,0.2-0.399,0.532-0.399,0.532
	S352.839,285.968,353.039,285.37z"/>
<path fill="#BFBFC0" d="M353.638,283.839c0,0,0.199-0.267,0.134-0.533c-0.067-0.267,0.199-0.466,0.199-0.199s0,0.732,0,0.732
	S353.704,284.238,353.638,283.839z"/>
<path fill="#BFBFC0" d="M353.505,282.376l-0.267-0.2c0,0-0.333-0.467,0-0.333c0.333,0.132,0.663,0.598,0.663,0.598
	S353.704,282.908,353.505,282.376z"/>
<path fill="#BFBFC0" d="M352.64,281.641l-0.465-0.398c0,0,0.064-0.397,0.266-0.332c0.199,0.065,0.533,0.466,0.533,0.466
	S352.906,281.843,352.64,281.641z"/>
<path fill="#BFBFC0" d="M351.708,280.911l-0.532-0.134c0,0-0.2-0.332,0.132-0.266c0.335,0.065,0.601,0.2,0.601,0.2
	S351.908,280.845,351.708,280.911z"/>
<path fill="#BFBFC0" d="M350.776,280.712l-0.465-0.135c0,0,0.133-0.132,0.332-0.132
	C350.843,280.445,350.909,280.645,350.776,280.712z"/>
<path fill="#BFBFC0" d="M331.08,304.068l-0.864,0.399c0,0-0.201,0.532,0.198,0.33c0.4-0.198,0.8-0.33,0.8-0.33
	S331.412,304.001,331.08,304.068z"/>
<path fill="#BFBFC0" d="M328.683,305.397l0.934-0.464c0,0,0.465,0.066,0.2,0.198c-0.268,0.132-0.733,0.466-0.733,0.466
	S328.353,305.665,328.683,305.397z"/>
<path fill="#BFBFC0" d="M328.284,305.93l-0.666,0.2c0,0-0.331-0.267,0-0.334c0.335-0.066,0.734-0.265,0.734-0.265
	S328.485,305.864,328.284,305.93z"/>
<path fill="#BFBFC0" d="M326.156,305.864h0.799c0,0,0.532,0.199,0.266,0.267c-0.266,0.066-0.864,0.133-0.864,0.133
	S325.823,305.864,326.156,305.864z"/>
<path fill="#BFBFC0" d="M325.225,305.597l-0.333-0.466c0,0,0.066-0.664,0.266-0.399c0.199,0.268,0.533,0.8,0.533,0.8
	S325.357,305.93,325.225,305.597z"/>
<path fill="#BFBFC0" d="M324.36,304.532l-0.599-0.531c0,0,0.133-0.399,0.331-0.134c0.2,0.268,0.533,0.466,0.533,0.466
	S324.625,304.667,324.36,304.532z"/>
<path fill="#BFBFC0" d="M323.695,302.669l0.199,0.6c0,0-0.266,0.532-0.333,0.333c-0.066-0.199-0.066-1.063-0.066-1.063l0.2-0.267
	C323.695,302.271,323.628,302.538,323.695,302.669z"/>
<path fill="#BFBFC0" d="M323.428,301.805c0,0-0.066,0.199,0.133,0.199c0.2,0,0.333-0.267,0.333-0.267l-0.067-0.532
	C323.826,301.206,323.561,301.672,323.428,301.805z"/>
<path fill="#BFBFC0" d="M335.938,292.622c0,0,0-0.2,0.398-0.066c0.399,0.132,0.865,0,0.399,0.132
	c-0.465,0.135-0.732,0.135-0.732,0.135L335.938,292.622z"/>
<path fill="#BFBFC0" d="M336.736,292.089c0,0,0,0,0.333-0.066c0.332-0.065,0.798-0.266,0.798-0.266s0.533,0.266,0.134,0.332
	c-0.4,0.067-0.866,0.269-0.866,0.269S336.47,292.357,336.736,292.089z"/>
<path fill="#BFBFC0" d="M338.465,291.689l0.4-0.664c0,0-0.2-0.466-0.266-0.199c-0.066,0.265-0.4,0.665-0.4,0.665
	S338.134,291.689,338.465,291.689z"/>
<path fill="#BFBFC0" d="M339.198,289.893l-0.133,0.399c0,0,0,0.533,0.267,0.267s0.199-0.531,0.199-0.531L339.198,289.893z"/>
<path fill="#BFBFC0" d="M341.461,288.43l0.598-0.401c0,0,0.067-0.332-0.198-0.265c-0.269,0.066-0.6,0.397-0.6,0.397
	S341.128,288.497,341.461,288.43z"/>
<path fill="#BFBFC0" d="M342.526,287.498l0.466-0.133c0,0,0.332,0.066,0.065,0.199c-0.266,0.133-0.598,0.267-0.598,0.267
	S342.126,287.63,342.526,287.498z"/>
<path fill="#BFBFC0" d="M327.353,297.946l0.399-0.532c0,0,0-0.333-0.266-0.135c-0.267,0.201-0.532,0.733-0.532,0.733
	S327.087,298.144,327.353,297.946z"/>
<path fill="#BFBFC0" d="M328.353,296.481l0.598-0.666c0,0,0.4,0.067,0.133,0.201c-0.267,0.132-0.532,0.598-0.532,0.598
	S328.284,296.813,328.353,296.481z"/>
<path fill="#BFBFC0" d="M331.08,293.685l0.531-0.599c0,0,0.267,0.066,0.067,0.269c-0.199,0.198-0.333,0.598-0.333,0.598
	S330.815,294.019,331.08,293.685z"/>
<path fill="#BFBFC0" d="M340.063,286.433c0,0,0.133,0.2,0.267-0.066c0.134-0.266,0.731-0.465,0.731-0.465s0.133-0.334-0.198-0.201
	c-0.334,0.135-0.933,0.4-0.933,0.4S339.598,286.5,340.063,286.433z"/>
<g>
	<path fill="#BFBFC0" d="M246.446,445.138c0.005-0.34,0.004-0.687-0.005-1.037c0-0.012,0-0.022-0.001-0.034c0-0.002,0-0.003,0-0.004
		c-0.006-0.212-0.014-0.424-0.023-0.638c-0.001-0.002-0.001-0.003-0.001-0.005c0-0.014-0.001-0.03-0.002-0.047
		c0-0.001,0-0.001,0-0.003c-0.047-0.932-0.14-1.892-0.268-2.858c-0.001-0.007-0.002-0.015-0.002-0.021
		c-0.002-0.008-0.002-0.014-0.003-0.02c-0.001-0.002-0.001-0.005-0.001-0.006c-0.001-0.004-0.001-0.009-0.001-0.013
		c-0.056-0.406-0.114-0.812-0.181-1.221c0-0.002,0-0.004-0.001-0.004c-0.002-0.004-0.002-0.008-0.002-0.011
		s-0.001-0.004-0.001-0.006c-0.067-0.415-0.139-0.828-0.216-1.24c-0.508-2.687-1.228-5.312-1.971-7.473
		c-0.46-1.337-0.927-2.497-1.36-3.38c0,0-0.006-0.002-0.019-0.008c-0.005-0.001-0.012-0.004-0.021-0.007
		c-0.004-0.002-0.008-0.002-0.014-0.005c-0.004-0.001-0.007-0.001-0.012-0.004c0,0-0.003-0.001-0.004-0.002
		c-0.016-0.006-0.034-0.013-0.057-0.02c-0.006-0.001-0.011-0.002-0.017-0.005c-0.019-0.007-0.04-0.014-0.063-0.021
		c-0.01-0.004-0.018-0.007-0.029-0.011c-0.002,0-0.006-0.001-0.008-0.002c-0.001,0-0.001-0.001-0.004-0.001
		c-0.034-0.011-0.072-0.022-0.111-0.035c-0.009-0.002-0.015-0.005-0.021-0.005c-0.043-0.014-0.089-0.026-0.135-0.041
		c-0.008-0.002-0.014-0.003-0.022-0.006c-0.046-0.013-0.095-0.026-0.145-0.038c-0.013-0.004-0.022-0.008-0.033-0.009
		c-0.043-0.012-0.09-0.024-0.137-0.034c-0.019-0.006-0.036-0.01-0.057-0.015c-0.001-0.001-0.004-0.002-0.007-0.002
		c-0.001-0.001-0.002-0.001-0.006-0.002c-0.048-0.011-0.097-0.023-0.148-0.033c-0.021-0.005-0.04-0.009-0.061-0.013
		c0,0-0.003-0.002-0.004-0.002c-0.002,0-0.004-0.001-0.006-0.002c-0.053-0.011-0.107-0.021-0.163-0.033
		c-0.022-0.004-0.044-0.009-0.065-0.012l-0.002-0.001c-0.004,0-0.004-0.001-0.004-0.001c-0.073-0.015-0.148-0.027-0.226-0.041
		c-0.006-0.001-0.014-0.001-0.021-0.003c-0.002-0.001-0.006-0.001-0.007-0.002c-0.001,0-0.003-0.001-0.005-0.001
		c-0.074-0.012-0.153-0.023-0.231-0.035c-0.012-0.001-0.022-0.003-0.036-0.005c-0.072-0.009-0.146-0.02-0.221-0.026
		c-0.019-0.003-0.034-0.005-0.051-0.008c-0.002,0-0.004,0-0.004,0c-0.002,0-0.003,0-0.008-0.001
		c-0.077-0.008-0.158-0.015-0.238-0.021c-0.016-0.002-0.03-0.004-0.046-0.006c0,0-0.003,0-0.005,0
		c-0.004-0.001-0.008-0.001-0.009-0.002c-0.07-0.005-0.141-0.008-0.211-0.01c-0.025-0.002-0.048-0.005-0.071-0.006
		c-0.002,0-0.005,0-0.006,0c-0.004,0-0.008,0-0.012,0c-0.084-0.005-0.17-0.006-0.256-0.008c-0.015,0-0.029,0-0.043,0
		c-0.003,0-0.007,0-0.009,0c-0.003,0-0.006,0-0.007,0c-0.086,0-0.172,0.001-0.257,0.005c-0.02,0-0.039,0-0.058,0
		c-0.086,0.004-0.169,0.01-0.254,0.016c-0.016,0.002-0.029,0.002-0.043,0.003H238.7c-0.009,0-0.017,0-0.024,0.002
		c-0.084,0.006-0.17,0.016-0.254,0.026c-0.024,0.004-0.049,0.005-0.073,0.009c-0.081,0.01-0.164,0.024-0.246,0.038
		c-0.025,0.005-0.052,0.009-0.076,0.011c0,0-0.001,0.001-0.002,0.001c-0.002,0-0.004,0-0.006,0.001
		c-0.079,0.016-0.158,0.034-0.237,0.053c-0.029,0.006-0.058,0.012-0.087,0.019c-0.079,0.019-0.157,0.042-0.235,0.064
		c-0.029,0.009-0.06,0.017-0.09,0.025c-0.071,0.023-0.143,0.05-0.214,0.075c-0.018,0.007-0.034,0.012-0.052,0.018
		c-0.004,0.001-0.007,0.003-0.012,0.005c-0.014,0.005-0.028,0.01-0.045,0.016c-0.072,0.028-0.146,0.062-0.217,0.093
		c-0.034,0.016-0.067,0.027-0.099,0.043c-0.059,0.027-0.116,0.059-0.175,0.09c-0.023,0.012-0.046,0.023-0.069,0.036
		c-0.016,0.008-0.03,0.016-0.046,0.023c-0.006,0.004-0.011,0.006-0.018,0.009c0,0.001-0.002,0.001-0.002,0.001
		c-0.002,0-0.002,0.002-0.002,0.002c-0.061,0.035-0.12,0.073-0.18,0.111c-0.017,0.011-0.032,0.02-0.049,0.03
		c-0.005,0.003-0.008,0.005-0.014,0.008c-0.018,0.013-0.038,0.023-0.056,0.035c-0.001,0-0.001,0-0.001,0
		c-0.001,0.001-0.002,0.001-0.002,0.002c-0.065,0.043-0.127,0.092-0.189,0.141c-0.034,0.024-0.067,0.046-0.099,0.071l-0.001,0.002
		h-0.002c-0.046,0.039-0.091,0.081-0.138,0.12c-0.019,0.019-0.04,0.035-0.061,0.054c-0.001,0.003-0.007,0.007-0.012,0.011
		c-0.022,0.021-0.047,0.039-0.068,0.06c-0.056,0.053-0.107,0.11-0.162,0.168c-0.034,0.034-0.068,0.067-0.103,0.105
		c-0.001,0.001-0.001,0.001-0.001,0.001c-0.001,0.001-0.001,0.001-0.001,0.001c-0.039,0.044-0.075,0.094-0.116,0.141
		c-0.02,0.027-0.043,0.054-0.062,0.081c-0.004,0.003-0.009,0.009-0.011,0.012c-0.021,0.025-0.041,0.048-0.06,0.074
		c-0.055,0.073-0.108,0.153-0.159,0.232c-0.018,0.025-0.035,0.047-0.052,0.073c-0.008,0.011-0.016,0.021-0.024,0.034
		c-0.075,0.121-0.146,0.246-0.215,0.377c-2.2,4.225-6.597,4.624-10.998,3.685c-0.126-0.027-0.253-0.06-0.379-0.096
		c-0.015-0.005-0.029-0.008-0.044-0.014c-0.025-0.008-0.051-0.016-0.077-0.023c-0.088-0.027-0.175-0.057-0.263-0.087
		c-0.045-0.016-0.09-0.033-0.136-0.05c-0.085-0.032-0.169-0.065-0.252-0.101c-0.044-0.019-0.087-0.036-0.131-0.056
		c-0.099-0.044-0.197-0.091-0.296-0.139c-0.027-0.013-0.054-0.024-0.081-0.038c-0.095-0.048-0.189-0.1-0.284-0.149
		c-0.031-0.017-0.06-0.032-0.091-0.048c-0.024-0.015-0.048-0.029-0.072-0.043c-0.009-0.004-0.018-0.01-0.027-0.016
		c-0.092-0.054-0.186-0.106-0.277-0.164c-0.037-0.021-0.072-0.045-0.107-0.066c-0.009-0.005-0.018-0.011-0.025-0.016
		c-0.083-0.052-0.165-0.106-0.248-0.159c-0.043-0.029-0.087-0.06-0.131-0.088c-0.051-0.036-0.103-0.072-0.155-0.107
		c-0.035-0.026-0.071-0.05-0.107-0.075c-0.018-0.013-0.034-0.025-0.051-0.036c-0.019-0.014-0.037-0.027-0.056-0.041
		c-0.124-0.091-0.246-0.181-0.369-0.275c-0.01-0.006-0.02-0.015-0.029-0.021c-0.112-0.088-0.225-0.176-0.335-0.266
		c-0.029-0.025-0.059-0.05-0.087-0.072c-0.009-0.008-0.018-0.014-0.025-0.021c-0.05-0.04-0.1-0.083-0.148-0.123
		c-0.036-0.03-0.071-0.059-0.106-0.089c0-0.001,0-0.001,0-0.001c-0.04-0.033-0.078-0.065-0.116-0.099
		c-0.086-0.074-0.172-0.148-0.259-0.225c-0.03-0.027-0.061-0.056-0.092-0.082c-0.004-0.002-0.006-0.006-0.01-0.009
		c-0.109-0.098-0.219-0.198-0.328-0.298c-0.003-0.004-0.008-0.006-0.012-0.012c-0.003-0.003-0.007-0.006-0.01-0.01
		c-0.121-0.11-0.24-0.223-0.358-0.336c-0.021-0.02-0.041-0.04-0.063-0.06c-0.095-0.093-0.191-0.185-0.286-0.277
		c-0.03-0.03-0.061-0.059-0.089-0.088c-0.055-0.055-0.109-0.107-0.164-0.163c-0.031-0.031-0.065-0.064-0.1-0.098
		c-0.009-0.011-0.019-0.02-0.029-0.03c-0.018-0.018-0.034-0.035-0.052-0.052c-0.104-0.105-0.208-0.211-0.312-0.316
		c-0.003-0.004-0.007-0.007-0.009-0.011c-0.003-0.003-0.006-0.005-0.009-0.008c-0.01-0.01-0.019-0.021-0.03-0.03
		c-0.161-0.166-0.318-0.331-0.475-0.495c-0.041-0.041-0.082-0.084-0.121-0.127c-0.147-0.153-0.291-0.307-0.433-0.457
		c-0.365-0.388-0.713-0.762-1.048-1.114c-0.025-0.026-0.051-0.054-0.077-0.083c-0.004-0.002-0.007-0.007-0.011-0.01
		c-0.011-0.011-0.021-0.023-0.033-0.034c-0.043-0.047-0.086-0.091-0.128-0.137c-0.033-0.034-0.065-0.066-0.098-0.1
		c-0.005-0.007-0.011-0.012-0.017-0.018c-0.011-0.012-0.022-0.023-0.033-0.035c-0.038-0.038-0.076-0.077-0.113-0.116
		c-0.054-0.057-0.108-0.11-0.163-0.165c-0.031-0.031-0.062-0.063-0.092-0.093c-0.003-0.005-0.008-0.009-0.012-0.014
		c-0.008-0.008-0.016-0.015-0.024-0.022c-0.11-0.11-0.217-0.215-0.322-0.315c-0.003-0.002-0.006-0.005-0.007-0.007
		c0-0.001-0.001-0.001-0.001-0.001c-0.025-0.024-0.049-0.046-0.074-0.068c-0.115-0.11-0.227-0.214-0.335-0.309
		c-0.004-0.004-0.008-0.006-0.013-0.011c-0.101-0.088-0.199-0.169-0.294-0.244c-0.025-0.021-0.05-0.039-0.074-0.057
		c-0.042-0.032-0.083-0.063-0.124-0.093c-0.055-0.041-0.109-0.077-0.161-0.111c-0.069-0.045-0.146-0.087-0.225-0.128
		c-0.013-0.007-0.028-0.011-0.04-0.018c-0.071-0.036-0.146-0.069-0.225-0.103c-0.008-0.002-0.018-0.007-0.025-0.009
		c-0.087-0.035-0.18-0.068-0.277-0.1c-0.001-0.001-0.003-0.001-0.003-0.002c-0.103-0.034-0.211-0.064-0.324-0.095l-0.138-0.149
		l-1.229-0.085c-0.001,0-0.003,0-0.005,0c-0.252-0.025-0.517-0.043-0.792-0.053c-0.001,0-0.001,0-0.001,0l-1.393-0.094
		c0,0-1.775-0.547-3.638-0.679c-1.286-0.091-2.613,0.014-3.429,0.633c-1.997,1.515-10.432,6.06-11.764,6.438
		c-1.332,0.379-5.328,2.652-5.328,2.652s0,0.004,0,0.011c0,0.003,0,0.006,0,0.012c0,0.006,0,0.015,0,0.027
		c0.001,0.005,0.001,0.011,0.001,0.018c0.001,0.037,0.004,0.09,0.008,0.156c0,0.011,0.001,0.019,0.002,0.027
		c0.002,0.027,0.005,0.055,0.007,0.085c0.001,0.011,0.001,0.021,0.002,0.033c0.004,0.04,0.008,0.083,0.014,0.13
		c-0.157,0.06-0.312,0.121-0.467,0.18c-0.018,0.006-0.036,0.015-0.055,0.02c-0.083-0.187-0.115-0.296-0.176-0.388
		c-0.007-0.009-0.013-0.017-0.02-0.025c-0.012-0.016-0.024-0.029-0.038-0.045c-0.01-0.009-0.021-0.02-0.032-0.029
		c-0.017-0.014-0.036-0.028-0.057-0.045c-0.011-0.008-0.022-0.017-0.035-0.025c-0.037-0.025-0.078-0.051-0.127-0.079
		c-0.298-0.169-1.575,0.19-2.17,0.698c-0.034,0.031-0.065,0.063-0.09,0.099c-0.009,0.011-0.016,0.025-0.024,0.039
		c-0.014,0.022-0.028,0.044-0.038,0.067c-0.008,0.018-0.013,0.037-0.018,0.058c-0.006,0.019-0.014,0.038-0.018,0.06
		c-0.004,0.021-0.006,0.045-0.008,0.067c-0.002,0.02-0.004,0.037-0.004,0.055c0,0.027,0.002,0.054,0.004,0.082
		c0,0.015,0.002,0.03,0.005,0.046c0.004,0.032,0.01,0.062,0.018,0.096c0.003,0.012,0.006,0.023,0.008,0.036
		c0.01,0.035,0.021,0.072,0.034,0.11c0.002,0.007,0.004,0.014,0.007,0.021c0.015,0.043,0.031,0.085,0.05,0.127
		c-0.006,0.003-0.011,0.005-0.017,0.007c-0.287,0.105-0.566,0.206-0.842,0.307c-0.016,0.006-0.032,0.011-0.048,0.019
		c0-0.001-0.003-0.007-0.003-0.007c-0.348-0.646-0.191-0.689-0.635-0.942c-0.298-0.169-1.573,0.192-2.168,0.699
		c-0.041,0.033-0.072,0.071-0.1,0.109c-0.009,0.013-0.014,0.027-0.022,0.04c-0.015,0.026-0.031,0.055-0.042,0.083
		c-0.006,0.018-0.01,0.034-0.015,0.053c-0.006,0.025-0.014,0.054-0.018,0.083c-0.001,0.018-0.003,0.037-0.003,0.058
		c0,0.027,0,0.058,0.001,0.088c0.001,0.02,0.004,0.04,0.007,0.06c0.004,0.031,0.01,0.063,0.017,0.096
		c0.005,0.02,0.008,0.039,0.015,0.06c0.01,0.035,0.022,0.07,0.034,0.106c0.007,0.018,0.013,0.036,0.02,0.055
		c0.017,0.042,0.035,0.085,0.055,0.129c0.005,0.012,0.01,0.023,0.016,0.034c0.027,0.058,0.056,0.113,0.087,0.17
		c0,0,0,0.001,0.002,0.003c-0.001,0-0.002,0.001-0.003,0.001c-0.388,0.135-0.754,0.262-1.089,0.377
		c-0.159-0.315-0.191-0.467-0.27-0.585c-0.005-0.009-0.008-0.015-0.013-0.021c-0.011-0.016-0.026-0.032-0.041-0.048
		c-0.009-0.009-0.016-0.02-0.028-0.028c-0.016-0.016-0.038-0.031-0.059-0.049c-0.012-0.007-0.022-0.018-0.036-0.027
		c-0.039-0.024-0.083-0.052-0.137-0.084c-0.297-0.169-1.573,0.192-2.168,0.699c-0.038,0.033-0.069,0.066-0.096,0.103
		c-0.007,0.012-0.013,0.024-0.02,0.037c-0.016,0.025-0.033,0.052-0.044,0.078c-0.005,0.013-0.006,0.025-0.01,0.038
		c-0.01,0.029-0.02,0.058-0.024,0.089c-0.002,0.012-0.002,0.023-0.002,0.036c-0.003,0.032-0.007,0.064-0.005,0.099
		c0,0.011,0.003,0.02,0.003,0.029c0.002,0.037,0.007,0.077,0.014,0.115c0.001,0.007,0.003,0.014,0.005,0.021
		c0.008,0.042,0.019,0.086,0.034,0.131c0,0.003,0.003,0.008,0.003,0.012c0.016,0.048,0.034,0.097,0.053,0.145
		c0.001,0.001,0.002,0.003,0.003,0.005c0.021,0.051,0.043,0.103,0.07,0.152c0,0.001,0,0.001,0,0.001
		c-0.35,0.12-0.71,0.244-1.088,0.379c0-0.002,0-0.003-0.001-0.005c-0.077-0.167-0.115-0.277-0.155-0.363
		c-0.004-0.012-0.011-0.021-0.015-0.03c-0.01-0.017-0.02-0.035-0.03-0.052c-0.006-0.011-0.015-0.021-0.023-0.032
		c-0.01-0.014-0.023-0.027-0.037-0.04c-0.01-0.011-0.019-0.021-0.032-0.031c-0.015-0.016-0.035-0.029-0.055-0.046
		c-0.013-0.008-0.024-0.017-0.038-0.027c-0.036-0.024-0.079-0.05-0.13-0.08c-0.297-0.169-1.574,0.191-2.169,0.698
		c-0.036,0.03-0.066,0.063-0.092,0.098c-0.01,0.015-0.017,0.03-0.025,0.044c-0.013,0.023-0.027,0.042-0.036,0.065
		c-0.009,0.019-0.014,0.04-0.021,0.062c-0.004,0.019-0.012,0.036-0.015,0.056c-0.005,0.024-0.007,0.049-0.009,0.074
		c0,0.017-0.003,0.032-0.003,0.051c0,0.028,0.002,0.059,0.005,0.089c0.002,0.014,0.002,0.027,0.005,0.04
		c0.003,0.035,0.012,0.069,0.02,0.105c0.003,0.009,0.005,0.02,0.007,0.027c0.011,0.04,0.022,0.081,0.038,0.122
		c0.001,0.005,0.004,0.01,0.004,0.014c0.017,0.046,0.036,0.091,0.056,0.137c-0.018,0.006-0.035,0.014-0.052,0.019
		c-0.389,0.142-0.783,0.285-1.185,0.434c-0.004,0.001-0.006,0.002-0.01,0.003c-0.105-0.216-0.148-0.348-0.196-0.449
		c-0.001-0.004-0.003-0.007-0.005-0.012c-0.01-0.021-0.023-0.041-0.035-0.061c-0.006-0.01-0.013-0.02-0.019-0.027
		c-0.011-0.016-0.025-0.031-0.039-0.045c-0.01-0.01-0.019-0.021-0.03-0.031c-0.017-0.014-0.038-0.031-0.06-0.046
		c-0.012-0.01-0.022-0.018-0.035-0.027c-0.038-0.025-0.082-0.052-0.134-0.082c-0.298-0.169-1.574,0.19-2.169,0.698
		c-0.038,0.032-0.07,0.067-0.097,0.104c-0.008,0.013-0.013,0.026-0.02,0.038c-0.017,0.024-0.033,0.052-0.043,0.078
		c-0.006,0.015-0.008,0.029-0.013,0.043c-0.007,0.027-0.017,0.056-0.021,0.086c-0.002,0.013-0.001,0.026-0.002,0.041
		c-0.004,0.031-0.005,0.063-0.004,0.097c0,0.012,0.002,0.024,0.004,0.035c0.003,0.037,0.006,0.075,0.015,0.111
		c0.002,0.01,0.005,0.019,0.007,0.027c0.009,0.042,0.02,0.084,0.033,0.127c0.002,0.007,0.006,0.013,0.008,0.02
		c0.015,0.047,0.033,0.093,0.052,0.142c0.002,0.003,0.003,0.005,0.004,0.009c0.023,0.051,0.045,0.102,0.071,0.153v0.001
		c-0.013,0.005-0.027,0.01-0.042,0.017c-0.5,0.192-1.003,0.391-1.51,0.593c-0.012,0.003-0.023,0.009-0.034,0.014
		c-0.512,0.202-1.023,0.41-1.536,0.622c-0.048,0.02-0.097,0.041-0.147,0.061c-0.424,0.177-0.849,0.354-1.272,0.536
		c-0.118,0.05-0.236,0.101-0.354,0.151c-0.475,0.205-0.946,0.411-1.413,0.62c-0.87,0.392-1.723,0.79-2.545,1.195
		c-1.408,0.693-2.812,1.919-3.853,3.286c-0.088,0.116-0.174,0.235-0.258,0.355c-0.023,0.032-0.046,0.066-0.069,0.1
		c-0.065,0.094-0.127,0.188-0.188,0.283c-0.018,0.029-0.038,0.058-0.057,0.088c-0.076,0.121-0.15,0.243-0.219,0.365
		c-0.008,0.018-0.018,0.033-0.027,0.05c-0.06,0.107-0.117,0.214-0.17,0.32c-0.017,0.032-0.033,0.065-0.049,0.098
		c-0.052,0.105-0.101,0.21-0.147,0.316c-0.008,0.018-0.016,0.036-0.025,0.054c-0.053,0.126-0.102,0.249-0.146,0.371
		c-0.009,0.022-0.016,0.046-0.024,0.067c-0.036,0.104-0.068,0.205-0.098,0.306c-0.008,0.028-0.017,0.056-0.025,0.083
		c-0.064,0.236-0.112,0.467-0.14,0.692c-0.002,0.024-0.004,0.048-0.007,0.072c-0.008,0.082-0.015,0.165-0.018,0.246
		c-0.002,0.032-0.003,0.063-0.003,0.096c-0.001,0.076,0,0.15,0.004,0.224c0.001,0.031,0.002,0.06,0.004,0.089
		c0.008,0.101,0.02,0.2,0.038,0.297c0.145,0.796,0.628,1.463,1.554,1.886c0.026,0.13,0.057,0.254,0.105,0.367
		c0.104,0.243,0.262,0.443,0.488,0.577c0,0,0.008,0.001,0.022,0.003c0.066,0.007,0.318,0.036,0.767,0.083l-0.03,0.327l-0.038,0.414
		c-0.095,1.046,0.47,1.935,1.265,1.987l6.996,0.465c0.152,0.011,0.301-0.011,0.444-0.06c0.603-0.204,1.09-0.892,1.167-1.736
		l0.061-0.672c0.372,0.019,0.757,0.04,1.15,0.061c0.012,0,0.021,0.001,0.034,0.001c0.397,0.021,0.804,0.042,1.221,0.062
		l-0.018,0.559v0.01c-0.04,1.1,0.549,2.006,1.314,2.026l6.739,0.169c0.097,0.003,0.193-0.009,0.285-0.034
		c0.635-0.173,1.135-0.962,1.169-1.92l0.016-0.44c0.91,0.025,1.853,0.052,2.825,0.077c0.002,0,0.004,0,0.007,0v0.376v0.178
		c0,1.102,0.646,1.992,1.441,1.992h7.018c0.088,0,0.172-0.012,0.254-0.031c0.675-0.168,1.189-0.98,1.189-1.961v-0.374
		c0.034,0,0.069,0.001,0.103,0.002c0.766,0.009,1.547,0.017,2.341,0.021v0.157v0.376c0,1.197,0.646,2.169,1.442,2.169h6.957h0.062
		c0.796,0,1.442-0.972,1.442-2.169v-0.499c4.176-0.008,7.99-0.041,11.462-0.093c0.002,0,0.005,0,0.006,0
		c0.316-0.004,0.63-0.009,0.94-0.014c0.064,0,0.127-0.002,0.191-0.004c0.278-0.003,0.555-0.009,0.83-0.014
		c0.096-0.002,0.192-0.004,0.289-0.004c0.252-0.004,0.502-0.009,0.75-0.015c0.129-0.002,0.256-0.004,0.384-0.007
		c0.284-0.005,0.565-0.011,0.844-0.017c0.276-0.006,0.549-0.011,0.82-0.017c0.089-0.002,0.175-0.005,0.263-0.006
		c0.194-0.005,0.388-0.009,0.578-0.013l0.026,0.375l0.028,0.425c0.078,1.14,0.812,2.031,1.64,1.988l7.196-0.356l0.104-0.005
		c0.827-0.042,1.437-0.998,1.356-2.139l-0.041-0.616c0.595-0.026,1.168-0.051,1.723-0.077c0.002,0,0.007,0,0.009,0
		c0.222-0.011,0.44-0.021,0.654-0.031c0.069-0.002,0.141-0.006,0.21-0.01c0.204-0.01,0.406-0.021,0.604-0.03
		c0.045-0.002,0.091-0.005,0.134-0.007l0.029,0.444l0.002,0.025c0.067,1.098,0.767,1.96,1.563,1.923l6.58-0.298l0.429-0.019
		c0.792-0.036,1.383-0.956,1.315-2.054l-0.046-0.71c0.321-0.031,0.579-0.059,0.779-0.081c0.019-0.001,0.035-0.004,0.053-0.006
		c0.047-0.006,0.09-0.01,0.13-0.015c0.009-0.001,0.021-0.002,0.028-0.003c0.043-0.005,0.08-0.01,0.113-0.015
		c0.017-0.002,0.026-0.002,0.04-0.005c0.026-0.002,0.051-0.005,0.071-0.007c0.003-0.001,0.008-0.002,0.011-0.002
		c0.023-0.003,0.041-0.005,0.053-0.007c0.003,0,0.005,0,0.006-0.001c0.009-0.002,0.017-0.003,0.017-0.003
		c0.515-0.216,0.887-0.524,1.153-0.868c0.369-0.472,0.539-1.005,0.615-1.445c0.024-0.027,0.049-0.057,0.071-0.085
		c0.023-0.025,0.045-0.051,0.067-0.077c0.056-0.069,0.111-0.143,0.166-0.217c0.015-0.021,0.031-0.043,0.047-0.065
		c0.057-0.079,0.111-0.161,0.164-0.245c0.011-0.018,0.021-0.037,0.033-0.055c0.054-0.089,0.106-0.18,0.157-0.274
		c0.005-0.007,0.009-0.014,0.013-0.021c0.002-0.005,0.004-0.01,0.008-0.015c0.314-0.592,0.554-1.271,0.73-2.019
		c0.002-0.003,0.002-0.005,0.004-0.008c0-0.001,0-0.003,0-0.004c0.065-0.279,0.12-0.567,0.167-0.864c0-0.002,0-0.004,0.002-0.005
		c0.048-0.3,0.089-0.608,0.12-0.926c0-0.002,0-0.002,0.001-0.005c0-0.002,0-0.005,0-0.008c0.051-0.521,0.08-1.063,0.09-1.622
		C246.446,445.142,246.446,445.14,246.446,445.138z"/>
	<path fill="#9C9D9D" d="M245.178,450.752c0-1.454-1.309-1.277-2.066-1.277l-91.064,0.401c-0.639,0-1.792,1.603-1.243,2.899
		c0.104,0.243,1.053,0.979,2.213,1.096c0,0,0.258,0.03,0.789,0.086l-0.03,0.327l-0.038,0.414c-0.095,1.046,0.47,1.935,1.265,1.987
		l6.996,0.465c0.152,0.011,0.301-0.011,0.444-0.06c0.603-0.204,1.09-0.892,1.167-1.736l0.061-0.672
		c0.757,0.041,1.562,0.083,2.405,0.123l-0.018,0.559v0.01c-0.04,1.1,0.549,2.006,1.314,2.026l6.739,0.169
		c0.097,0.003,0.193-0.009,0.285-0.034c0.635-0.173,1.135-0.962,1.169-1.92l0.016-0.44c0.912,0.025,1.857,0.052,2.832,0.077v0.376
		v0.178c0,1.102,0.646,1.992,1.441,1.992h7.018c0.088,0,0.172-0.012,0.254-0.031c0.675-0.168,1.189-0.98,1.189-1.961v-0.374
		c0.799,0.009,1.614,0.019,2.444,0.023v0.157v0.376c0,1.197,0.646,2.169,1.442,2.169h6.957h0.062c0.796,0,1.442-0.972,1.442-2.169
		v-0.499c6.683-0.012,12.439-0.089,17.358-0.201l0.026,0.375l0.028,0.425c0.078,1.14,0.812,2.031,1.64,1.988l7.196-0.356
		l0.104-0.005c0.827-0.042,1.437-0.998,1.356-2.139l-0.041-0.617c1.192-0.05,2.304-0.102,3.334-0.154l0.029,0.444l0.002,0.025
		c0.067,1.098,0.767,1.96,1.563,1.923l6.58-0.298l0.429-0.019c0.792-0.036,1.383-0.956,1.315-2.054l-0.046-0.71
		c0.889-0.088,1.301-0.144,1.301-0.144c0.515-0.216,1.409-0.524,1.677-0.867C245.318,452.077,245.178,450.752,245.178,450.752z"/>
	<path fill="#9C9D9D" d="M227.066,455.856c-2.435-1.483-5.858,0.407-9.02-0.193l0.028,0.425c0.078,1.14,0.812,2.031,1.64,1.988
		l7.196-0.356C227.393,456.958,227.552,456.063,227.066,455.856z"/>
	<path fill="#9C9D9D" d="M228.369,455.576l-0.087-1.286c-0.077-1.14-0.812-2.03-1.64-1.989l-7.298,0.363
		c-0.829,0.041-1.436,0.998-1.358,2.139l0.059,0.86c3.162,0.601,6.585-1.29,9.02,0.193c0.486,0.207,0.327,1.102-0.156,1.863
		l0.104-0.005C227.84,457.673,228.449,456.717,228.369,455.576z"/>
	<path fill="#9C9D9D" d="M240.635,455.544c-2.859-0.611-6.066-0.034-8.943-0.295l0.002,0.025c0.067,1.098,0.767,1.96,1.563,1.923
		l6.58-0.298C240.562,456.286,241.087,455.736,240.635,455.544z"/>
	<path fill="#9C9D9D" d="M241.581,454.827l-0.078-1.241c-0.067-1.098-0.769-1.96-1.562-1.923l-7.009,0.316
		c-0.796,0.037-1.385,0.957-1.316,2.057l0.076,1.213c2.877,0.261,6.084-0.316,8.943,0.295c0.452,0.192-0.073,0.742-0.798,1.355
		l0.429-0.019C241.058,456.844,241.649,455.925,241.581,454.827z"/>
	<path fill="#9C9D9D" d="M153.776,454.284l-0.038,0.414c-0.095,1.046,0.47,1.935,1.265,1.987l6.996,0.465
		c0.152,0.011,0.301-0.011,0.444-0.06C161.073,454.594,156.916,454.927,153.776,454.284z"/>
	<path fill="#9C9D9D" d="M162.451,452.189l-6.996-0.465c-0.794-0.053-1.516,0.751-1.611,1.796l-0.069,0.764
		c3.141,0.644,7.297,0.31,8.667,2.807c0.603-0.204,1.09-0.892,1.167-1.736l0.107-1.179
		C163.812,453.131,163.248,452.242,162.451,452.189z"/>
	<path fill="#9C9D9D" d="M174.292,452.345l-6.738-0.169c-0.765-0.02-1.415,0.856-1.455,1.955l-0.042,1.232
		c2.938,0.518,7.768-0.401,8.338,2.171c0.635-0.173,1.135-0.962,1.169-1.92l0.043-1.242
		C175.646,453.273,175.058,452.367,174.292,452.345z"/>
	<path fill="#9C9D9D" d="M166.057,455.364v0.01c-0.04,1.1,0.549,2.006,1.314,2.026l6.739,0.169c0.097,0.003,0.193-0.009,0.285-0.034
		C173.825,454.963,168.995,455.882,166.057,455.364z"/>
	<path fill="#9C9D9D" d="M186.724,456.482c-2.081-1.479-5.47-0.444-8.312-0.854v0.178c0,1.102,0.646,1.992,1.441,1.992h7.018
		c0.088,0,0.172-0.012,0.254-0.031C187.28,457.208,187.098,456.64,186.724,456.482z"/>
	<path fill="#9C9D9D" d="M186.871,452.57h-7.018c-0.796,0-1.441,0.892-1.441,1.992v1.065c2.843,0.41,6.232-0.625,8.312,0.854
		c0.374,0.158,0.555,0.726,0.401,1.284c0.675-0.168,1.189-0.98,1.189-1.961v-1.243C188.315,453.462,187.668,452.57,186.871,452.57z"
		/>
	<path fill="#9C9D9D" d="M198.827,456.482c-2.459-0.9-5.256-0.366-8.068-0.87v0.376c0,1.197,0.646,2.169,1.442,2.169h6.957
		C199.642,457.477,199.571,456.693,198.827,456.482z"/>
	<path fill="#9C9D9D" d="M199.219,452.466H192.2c-0.796,0-1.442,0.971-1.442,2.169v0.978c2.812,0.504,5.609-0.03,8.068,0.87
		c0.744,0.211,0.815,0.995,0.331,1.675h0.062c0.796,0,1.442-0.972,1.442-2.169v-1.354
		C200.661,453.436,200.015,452.466,199.219,452.466z"/>
	<path fill="#BFBFC0" d="M242.407,427.119c0,0-5.622-2.138-7.823,2.086c-2.2,4.225-6.597,4.624-10.998,3.685
		c-4.4-0.938-8.8-7.51-11.001-8.918c-1.037-0.662-3.281-0.928-5.999-0.631c2.486,3.163,4.197,6.745,6.91,9.984
		c3.3,3.442,8.435,4.694,13.201,5.319c6.236,0.938,11.003-2.816,15.037-7.197c0.376-0.479,1.136-0.795,2.033-0.948
		C243.308,429.162,242.841,428.002,242.407,427.119z"/>
	<path fill="#BFBFC0" d="M242.407,427.119l-0.002-0.002c-4.821,0.433-5.722,3.59-9.472,6.208
		c-7.708,4.783-15.079-1.287-18.919-8.115c-0.542-0.542-1.023-0.979-1.429-1.238c-1.037-0.662-3.281-0.928-5.999-0.631
		c2.486,3.163,4.197,6.745,6.91,9.984c3.3,3.442,8.435,4.694,13.201,5.319c6.236,0.938,11.003-2.816,15.037-7.197
		c0.376-0.479,1.136-0.795,2.033-0.948C243.308,429.162,242.841,428.002,242.407,427.119z"/>
	<path fill="#BFBFC0" d="M232.934,433.325c3.75-2.618,4.65-5.775,9.472-6.208c-0.054-0.019-5.631-2.115-7.821,2.088
		c-2.2,4.225-6.597,4.624-10.998,3.685c-3.588-0.766-7.177-5.276-9.572-7.68C217.855,432.038,225.226,438.108,232.934,433.325z"/>
	<path fill="#BFBFC0" d="M241.735,430.978c-4.034,4.382-8.801,8.137-15.037,7.197c-4.766-0.627-9.901-1.877-13.201-5.319
		c-2.588-3.092-4.268-6.495-6.575-9.548c-0.111,0.01-0.222,0.019-0.335,0.032c2.486,3.163,4.197,6.745,6.91,9.984
		c3.3,3.442,8.435,4.694,13.201,5.319c6.236,0.938,11.003-2.816,15.037-7.197c0.376-0.479,1.136-0.795,2.033-0.948
		c-0.051-0.147-0.103-0.294-0.155-0.438C242.784,430.222,242.088,430.526,241.735,430.978z"/>
	<path fill="#BFBFC0" d="M168.387,444.278c2.568-0.313,1.834-3.13,3.668-4.381c4.035-2.504,8.803-3.756,13.935-5.007
		c7.335-1.565,13.204-5.008,19.804-7.824c1.144-0.242,0.948-2.008,0.285-3.663c-2.942,0.388-6.366,1.42-9.392,3.299
		c-6.051,3.755-17.64,7.777-21.76,9.179c-3.518,1.197-10.177,3.473-16.036,6.106C161.262,444.102,164.656,445.127,168.387,444.278z"
		/>
	<path fill="#BFBFC0" d="M168.387,444.278c2.568-0.313,1.834-3.13,3.668-4.381c4.035-2.504,8.803-3.756,13.935-5.007
		c7.335-1.565,13.204-5.008,19.804-7.824c1.144-0.242,0.948-2.008,0.285-3.663c-2.942,0.388-6.366,1.42-9.392,3.299
		c-6.051,3.755-17.64,7.777-21.76,9.179c-3.518,1.197-10.177,3.473-16.036,6.106C161.262,444.102,164.656,445.127,168.387,444.278z"
		/>
	<path fill="#BFBFC0" d="M168.387,444.278c2.568-0.313,1.834-3.13,3.668-4.381c4.035-2.504,8.803-3.756,13.935-5.007
		c7.335-1.565,13.204-5.008,19.804-7.824c1.144-0.242,0.948-2.008,0.285-3.663c-2.942,0.388-6.366,1.42-9.392,3.299
		c-6.051,3.755-17.64,7.777-21.76,9.179c-3.518,1.197-10.177,3.473-16.036,6.106C161.262,444.102,164.656,445.127,168.387,444.278z"
		/>
	<path fill="#BFBFC0" d="M206.08,423.403c-0.032,0.003-0.065,0.009-0.096,0.012c0.556,1.554,0.656,3.108-0.411,3.336
		c-6.602,2.816-12.47,6.258-19.805,7.823c-5.133,1.252-9.901,2.503-13.936,5.007c-1.833,1.252-1.1,4.066-3.667,4.381
		c-3.568,0.812-6.822-0.092-9.172-2.019c-0.034,0.015-0.068,0.029-0.101,0.044c2.37,2.115,5.763,3.14,9.495,2.291
		c2.568-0.313,1.834-3.13,3.668-4.381c4.035-2.504,8.803-3.756,13.935-5.007c7.335-1.565,13.204-5.008,19.804-7.824
		C206.939,426.824,206.742,425.058,206.08,423.403z"/>
	<path fill="#BFBFC0" d="M234.768,442.401c-1.467,0.625-2.936,0.625-4.035,1.251c-6.656,3.342-13.208,6.683-18.987,10.69
		c15.753-0.06,29.201-0.502,31.645-1.74c3.55-1.798,3.527-8.378,2.349-14.631C241.913,439.244,238.432,441.06,234.768,442.401z"/>
	<path fill="#BFBFC0" d="M212.543,432.123c-2.188-2.908-3.773-6.006-5.956-8.782c-0.167,0.018-0.335,0.039-0.507,0.062
		c0.663,1.655,0.859,3.421-0.285,3.663c-4.278,1.825-8.25,3.912-12.512,5.582l3.603,4.896
		C202.365,436.174,208.991,435.758,212.543,432.123z"/>
	<path fill="#BFBFC0" d="M172.422,447.094c5.794-3.846,12.155-6.726,19.328-8.22l-3.297-4.595c-0.805,0.225-1.623,0.432-2.462,0.61
		c-5.132,1.251-9.9,2.503-13.935,5.007c-1.834,1.251-1.101,4.067-3.668,4.381c-3.731,0.849-7.125-0.176-9.495-2.291
		c-0.87,0.392-1.723,0.79-2.545,1.195c-1.408,0.693-2.812,1.919-3.853,3.286c0.045,0,0.087,0,0.124,0
		C157.019,452.101,167.655,450.536,172.422,447.094z"/>
	<path fill="#9C9D9D" d="M183.412,433.188c0,0,0.437,0.674,0.552,1.396c0.09,0.562-2.103,1.287-2.599,0.611
		c-0.496-0.677-1.353-1.744-0.758-2.253c0.595-0.508,1.872-0.867,2.17-0.698C183.22,432.496,183.064,432.541,183.412,433.188z"/>
	<path fill="#9C9D9D" d="M179.622,434.229c0,0,0.438,0.676,0.553,1.397c0.091,0.563-2.103,1.288-2.599,0.612
		c-0.496-0.678-1.352-1.745-0.757-2.253c0.595-0.507,1.871-0.868,2.168-0.699C179.431,433.54,179.275,433.584,179.622,434.229z"/>
	<path fill="#9C9D9D" d="M175.833,435.69c0,0,0.437,0.676,0.552,1.396c0.09,0.563-2.103,1.289-2.599,0.612
		c-0.496-0.678-1.353-1.745-0.757-2.253c0.595-0.507,1.872-0.868,2.168-0.699C175.642,435.001,175.484,435.045,175.833,435.69z"/>
	<path fill="#9C9D9D" d="M172.044,437.149c0,0,0.436,0.677,0.552,1.398c0.089,0.562-2.103,1.288-2.599,0.612
		c-0.496-0.678-1.351-1.746-0.757-2.254c0.595-0.507,1.872-0.867,2.169-0.698C171.852,436.461,171.696,436.505,172.044,437.149z"/>
	<path fill="#9C9D9D" d="M168.009,438.507c0,0,0.438,0.676,0.552,1.398c0.09,0.562-2.102,1.286-2.599,0.609
		c-0.496-0.676-1.352-1.744-0.757-2.252s1.871-0.867,2.169-0.698C167.819,437.817,167.661,437.861,168.009,438.507z"/>
	<path fill="#9C9D9D" d="M234.768,442.401c3.664-1.341,7.146-3.157,10.971-4.43c-0.508-2.687-1.228-5.312-1.971-7.473
		c-0.897,0.153-1.657,0.469-2.033,0.948c-4.034,4.381-8.801,8.136-15.037,7.197c-4.766-0.625-9.901-1.877-13.201-5.319
		c-0.332-0.396-0.649-0.797-0.954-1.202c-3.551,3.635-10.178,4.051-15.657,5.421l8.036,10.921
		c5.345-0.305,10.712-0.376,16.125,0.008c0.106,0.012,0.216,0.021,0.323,0.029c3.047-1.664,6.193-3.258,9.363-4.85
		C231.832,443.026,233.301,443.026,234.768,442.401z"/>
	<path fill="#BFBFC0" d="M204.922,448.465l3.846,5.226l3.97-0.012c2.741-1.839,5.641-3.541,8.632-5.177
		c-0.107-0.009-0.217-0.018-0.323-0.029C215.635,448.089,210.267,448.16,204.922,448.465z"/>
	<path fill="#BFBFC0" d="M208.768,453.69l0.485,0.658c0.836-0.001,1.668-0.004,2.493-0.006c0.326-0.226,0.662-0.442,0.992-0.664
		L208.768,453.69z"/>
	<path fill="#BFBFC0" d="M172.422,447.094c-4.768,3.441-15.403,5.007-19.804-0.626c-0.037,0-0.079,0-0.124,0
		c-0.796,1.047-1.38,2.176-1.588,3.215c1.237,1.074,3.048,1.765,4.861,1.92c14.571,0.828,28.82-1.497,43.173-2.71l-7.19-10.019
		C184.577,440.369,178.216,443.249,172.422,447.094z"/>
	<path fill="#BFBFC0" d="M202.295,453.567l-3.355-4.674c-14.353,1.213-28.602,3.538-43.173,2.71
		c-1.812-0.155-3.624-0.846-4.861-1.92c-0.096,0.479-0.114,0.936-0.037,1.357c0.235,1.283,1.341,2.231,3.767,2.363
		c3.992,0.221,26.71,0.846,48.211,0.936L202.295,453.567z"/>
	
		<rect x="187.98" y="446.221" transform="matrix(0.5831 0.8124 -0.8124 0.5831 444.6495 25.9688)" fill="#BFBFC0" width="18.085" height="0"/>
	
		<rect x="187.98" y="446.221" transform="matrix(0.5831 0.8124 -0.8124 0.5831 444.6495 25.9688)" fill="#BFBFC0" width="18.085" height="0"/>
	<polygon fill="#BFBFC0" points="202.295,453.567 202.848,454.34 202.295,453.567 	"/>
	<polygon fill="#BFBFC0" points="202.295,453.567 202.848,454.34 202.295,453.567 	"/>
	<path fill="#BFBFC0" d="M208.768,453.69l-3.846-5.226c-1.132,0.065-2.264,0.142-3.395,0.224c-0.864,0.064-1.725,0.132-2.587,0.205
		l3.355,4.674l0.553,0.772c0.589,0.002,1.174,0.003,1.761,0.004c1.558,0.005,3.111,0.007,4.644,0.005L208.768,453.69z"/>
	<polygon fill="#BFBFC0" points="208.768,453.69 209.253,454.348 208.768,453.69 	"/>
	<g>
		<path fill="#BFBFC0" d="M196.889,437.549c-0.499,0.119-1.271,0.306-2.198,0.537c-1.09,0.27-2.274,0.592-2.95,0.778l0.009,0.011
			l7.19,10.019c0.863-0.073,1.724-0.141,2.587-0.205c1.131-0.082,2.263-0.158,3.395-0.224L196.889,437.549z"/>
		<path fill="#BFBFC0" d="M196.889,437.549l-0.003-0.005l-0.32-0.436l-3.283-4.46c-1.562,0.609-3.163,1.167-4.831,1.632l3.289,4.584
			c0.676-0.187,1.86-0.509,2.95-0.778C195.618,437.854,196.39,437.668,196.889,437.549z"/>
	</g>
	<polygon fill="#BFBFC0" points="208.768,453.69 209.253,454.348 208.768,453.69 	"/>
	<rect x="202.827" y="435.593" fill="#BFBFC0" width="0" height="20.047"/>
	<path fill="#BFBFC0" d="M212.906,425.096c-0.362,2.14-0.997,4.339-3.077,5.1c-3.667,1.565-8.801-0.313-12.835,1.565
		c-2.934,0.938-5.135,3.129-8.068,4.066c-2.971,0.725-4.1-0.857-5.093-2.803c0.241,1.484,1.2,4.315,5.024,3.323
		c5.106-1.326,7.104-3.787,10.877-4.545c3.772-0.757,7.768,0.379,10.431-0.569c2.664-0.946,3.33-5.491,3.33-5.491L212.906,425.096z"
		/>
	<path fill="#BFBFC0" d="M211.33,423.369l-3.42-0.231c0,0-1.775-0.547-3.638-0.679c0.086,0.422,0.187,0.834,0.056,1.166
		c1.467,0.312,2.568,0.938,2.933,2.189c0.368,1.565-1.466,2.817-2.933,2.817c-5.868,0-9.902,2.189-14.67,5.006
		c-1.366,0.973-3.16,1.099-5.024,0.754c0.875,1.229,2.066,1.979,4.292,1.437c2.933-0.938,5.134-3.129,8.068-4.066
		c4.035-1.879,9.168,0,12.835-1.565c2.08-0.761,2.715-2.96,3.077-5.1L211.33,423.369z"/>
	<path fill="#9C9D9D" d="M189.658,433.637c4.768-2.816,8.802-5.006,14.67-5.006c1.467,0,3.301-1.252,2.933-2.817
		c-0.365-1.251-1.466-1.877-2.933-2.189c0.13-0.332,0.03-0.744-0.056-1.166c-1.286-0.091-2.613,0.014-3.429,0.633
		c-1.997,1.515-10.432,6.06-11.764,6.438c-1.332,0.379-5.328,2.652-5.328,2.652s0,0.346,0.081,0.843
		c0.25,0.489,0.508,0.954,0.801,1.366C186.498,434.736,188.292,434.61,189.658,433.637z"/>
	<path fill="#BFBFC0" d="M246.437,444.014c-0.032-1.144-0.136-2.337-0.296-3.543c-0.11-0.831-0.246-1.669-0.402-2.5
		c-1.24,0.412-2.443,0.885-3.629,1.377c-0.715,0.271-3.239,1.229-5.152,1.916c-1.844,0.663-4.361,1.646-5.208,1.981
		c-0.362,0.104-0.705,0.229-1.017,0.406c-3.153,1.583-6.281,3.168-9.312,4.822c2.875,0.21,5.702,0.37,8.617,0.184
		c0.479-0.117,0.959-0.233,1.439-0.35c-0.564,0.137-1.126,0.274-1.688,0.412C235.879,448.452,242.027,447.167,246.437,444.014z"/>
	<path fill="#BFBFC0" d="M246.437,444.014c-4.41,3.152-10.558,4.438-16.647,4.706c-0.298,0.071-0.595,0.145-0.892,0.218
		c0.38-0.095,0.759-0.188,1.14-0.28c-2.915,0.187-5.741,0.026-8.617-0.184c-3.008,1.643-5.923,3.353-8.676,5.201
		c-0.003,0.001-0.005,0.002-0.007,0.003c-0.33,0.222-0.666,0.438-0.992,0.664c0.759-0.003,1.509-0.006,2.256-0.013
		c14.765-0.092,27.062-0.549,29.389-1.728c0.831-0.42,1.463-1.104,1.934-1.982C246.208,448.968,246.511,446.62,246.437,444.014z"/>
	<path fill="#9C9D9D" d="M167.375,437.564c-0.023-0.015-0.063-0.02-0.098-0.025c0.057,0.121,0.107,0.291,0.273,0.599
		c0,0,0.436,0.675,0.552,1.397c0.077,0.474-1.466,1.06-2.251,0.828c0.039,0.052,0.077,0.104,0.112,0.151
		c0.497,0.677,2.689-0.048,2.599-0.609c-0.114-0.723-0.552-1.398-0.552-1.398C167.661,437.861,167.819,437.817,167.375,437.564z"/>
	<path fill="#9C9D9D" d="M171.408,436.208c-0.023-0.013-0.062-0.018-0.098-0.024c0.056,0.122,0.107,0.292,0.273,0.597
		c0,0,0.437,0.676,0.553,1.398c0.075,0.474-1.467,1.06-2.252,0.828c0.039,0.052,0.077,0.104,0.112,0.153
		c0.496,0.676,2.688-0.05,2.599-0.612c-0.116-0.722-0.552-1.398-0.552-1.398C171.696,436.505,171.852,436.461,171.408,436.208z"/>
	<path fill="#9C9D9D" d="M178.988,433.287c-0.023-0.012-0.062-0.018-0.097-0.024c0.056,0.123,0.107,0.291,0.271,0.598
		c0,0,0.438,0.676,0.553,1.397c0.076,0.474-1.466,1.059-2.251,0.827c0.04,0.054,0.077,0.104,0.112,0.154
		c0.496,0.676,2.69-0.049,2.599-0.612c-0.115-0.722-0.553-1.397-0.553-1.397C179.275,433.584,179.431,433.54,178.988,433.287z"/>
	<path fill="#9C9D9D" d="M175.198,434.747c-0.023-0.013-0.062-0.018-0.098-0.024c0.056,0.122,0.108,0.292,0.273,0.598
		c0,0,0.438,0.676,0.553,1.397c0.075,0.475-1.467,1.06-2.252,0.829c0.039,0.052,0.076,0.104,0.112,0.152
		c0.496,0.677,2.689-0.049,2.599-0.612c-0.115-0.721-0.552-1.396-0.552-1.396C175.484,435.045,175.642,435.001,175.198,434.747z"/>
	<path fill="#9C9D9D" d="M183.412,433.188c-0.348-0.647-0.191-0.692-0.634-0.944c-0.024-0.013-0.062-0.018-0.098-0.025
		c0.056,0.123,0.107,0.291,0.272,0.6c0,0,0.437,0.675,0.553,1.396c0.076,0.474-1.466,1.06-2.251,0.828
		c0.039,0.054,0.077,0.104,0.112,0.152c0.496,0.676,2.689-0.049,2.599-0.611C183.849,433.862,183.412,433.188,183.412,433.188z"/>
</g>
<g>
	<path fill="#BFBFC0" d="M257.528,445.138c-0.004-0.34-0.002-0.687,0.006-1.037c0-0.012,0-0.022,0-0.034c0-0.002,0-0.003,0-0.004
		c0.007-0.212,0.016-0.424,0.024-0.638c0.002-0.002,0.002-0.003,0.002-0.005c0-0.014,0-0.03,0.001-0.047c0-0.001,0-0.001,0-0.003
		c0.047-0.932,0.14-1.892,0.267-2.858c0.002-0.007,0.003-0.015,0.004-0.021c0-0.008,0.001-0.014,0.001-0.02
		c0.001-0.002,0.001-0.005,0.001-0.006c0.001-0.004,0.002-0.009,0.002-0.013c0.055-0.406,0.113-0.812,0.181-1.221
		c0-0.002,0-0.004,0.001-0.004c0-0.004,0-0.008,0.001-0.011c0-0.003,0-0.004,0-0.006c0.068-0.415,0.139-0.828,0.218-1.24
		c0.507-2.687,1.228-5.312,1.971-7.473c0.46-1.337,0.928-2.497,1.359-3.38c0,0,0.007-0.002,0.021-0.008
		c0.004-0.001,0.011-0.004,0.021-0.007c0.004-0.002,0.007-0.002,0.015-0.005c0.002-0.001,0.006-0.001,0.011-0.004
		c0,0,0.002-0.001,0.004-0.002c0.016-0.006,0.034-0.013,0.057-0.02c0.006-0.001,0.01-0.002,0.017-0.005
		c0.018-0.007,0.04-0.014,0.062-0.021c0.011-0.004,0.019-0.007,0.029-0.011c0.002,0,0.006-0.001,0.009-0.002
		c0.002,0,0.002-0.001,0.003-0.001c0.033-0.011,0.072-0.022,0.112-0.035c0.008-0.002,0.015-0.005,0.021-0.005
		c0.041-0.014,0.087-0.026,0.134-0.041c0.007-0.002,0.014-0.003,0.021-0.006c0.047-0.013,0.096-0.026,0.146-0.038
		c0.012-0.004,0.021-0.008,0.034-0.009c0.043-0.012,0.09-0.024,0.136-0.034c0.02-0.006,0.037-0.01,0.056-0.015
		c0.001-0.001,0.005-0.002,0.008-0.002c0.001-0.001,0.002-0.001,0.006-0.002c0.048-0.011,0.098-0.023,0.147-0.033
		c0.021-0.005,0.041-0.009,0.062-0.013c0,0,0.001-0.002,0.003-0.002s0.003-0.001,0.006-0.002c0.053-0.011,0.107-0.021,0.162-0.033
		c0.022-0.004,0.045-0.009,0.065-0.012l0.003-0.001c0.002,0,0.002-0.001,0.003-0.001c0.073-0.015,0.148-0.027,0.226-0.041
		c0.006-0.001,0.014-0.001,0.022-0.003c0.001-0.001,0.004-0.001,0.006-0.002c0.002,0,0.003-0.001,0.004-0.001
		c0.075-0.012,0.153-0.023,0.232-0.035c0.013-0.001,0.023-0.003,0.036-0.005c0.072-0.009,0.146-0.02,0.221-0.026
		c0.017-0.003,0.034-0.005,0.051-0.008c0.002,0,0.004,0,0.004,0c0.002,0,0.004,0,0.007-0.001c0.077-0.008,0.158-0.015,0.239-0.021
		c0.016-0.002,0.03-0.004,0.045-0.006c0,0,0.004,0,0.006,0c0.004-0.001,0.008-0.001,0.009-0.002c0.069-0.005,0.14-0.008,0.211-0.01
		c0.023-0.002,0.047-0.005,0.071-0.006c0.001,0,0.004,0,0.007,0s0.006,0,0.011,0c0.083-0.005,0.17-0.006,0.257-0.008
		c0.014,0,0.027,0,0.041,0c0.004,0,0.007,0,0.01,0s0.005,0,0.007,0c0.085,0,0.172,0.001,0.256,0.005c0.02,0,0.039,0,0.058,0
		c0.086,0.004,0.17,0.01,0.256,0.016c0.014,0.002,0.027,0.002,0.043,0.003h0.002c0.007,0,0.016,0,0.023,0.002
		c0.085,0.006,0.168,0.016,0.253,0.026c0.025,0.004,0.049,0.005,0.074,0.009c0.081,0.01,0.164,0.024,0.245,0.038
		c0.026,0.005,0.052,0.009,0.076,0.011c0,0,0.002,0.001,0.004,0.001s0.002,0,0.002,0.001c0.081,0.016,0.161,0.034,0.241,0.053
		c0.028,0.006,0.058,0.012,0.084,0.019c0.08,0.019,0.159,0.042,0.236,0.064c0.03,0.009,0.061,0.017,0.091,0.025
		c0.07,0.023,0.143,0.05,0.213,0.075c0.018,0.007,0.036,0.012,0.054,0.018c0.003,0.001,0.006,0.003,0.009,0.005
		c0.016,0.005,0.03,0.01,0.045,0.016c0.074,0.028,0.147,0.062,0.22,0.093c0.034,0.016,0.065,0.027,0.098,0.043
		c0.06,0.027,0.117,0.059,0.174,0.09c0.023,0.012,0.047,0.023,0.069,0.036c0.016,0.008,0.03,0.016,0.047,0.023
		c0.006,0.004,0.011,0.006,0.018,0.009c0.001,0.001,0.001,0.001,0.001,0.001c0.001,0,0.002,0.002,0.002,0.002
		c0.062,0.035,0.12,0.073,0.18,0.111c0.017,0.011,0.033,0.02,0.051,0.03c0.003,0.003,0.007,0.005,0.014,0.008
		c0.018,0.013,0.036,0.023,0.055,0.035c0.001,0,0.001,0,0.001,0c0,0.001,0.001,0.001,0.001,0.002
		c0.066,0.043,0.127,0.092,0.191,0.141c0.032,0.024,0.064,0.046,0.098,0.071v0.001c0.001,0.001,0.002,0.001,0.003,0.002
		c0.047,0.038,0.092,0.08,0.138,0.119c0.019,0.019,0.04,0.035,0.06,0.054c0.003,0.003,0.008,0.007,0.014,0.011
		c0.021,0.021,0.045,0.039,0.067,0.06c0.056,0.053,0.107,0.11,0.162,0.168c0.033,0.034,0.068,0.067,0.102,0.105
		c0.001,0.001,0.001,0.001,0.001,0.001c0.001,0.001,0.001,0.001,0.001,0.001c0.039,0.044,0.076,0.094,0.116,0.141
		c0.021,0.027,0.044,0.054,0.064,0.081c0.004,0.003,0.007,0.009,0.01,0.012c0.019,0.025,0.041,0.048,0.06,0.074
		c0.055,0.073,0.107,0.153,0.159,0.232c0.018,0.025,0.035,0.047,0.052,0.073c0.007,0.011,0.016,0.021,0.024,0.034
		c0.075,0.121,0.146,0.246,0.214,0.377c2.2,4.225,6.598,4.624,10.999,3.685c0.126-0.027,0.252-0.06,0.379-0.096
		c0.014-0.005,0.029-0.008,0.043-0.014c0.026-0.008,0.052-0.016,0.077-0.023c0.089-0.027,0.177-0.057,0.262-0.087
		c0.046-0.016,0.092-0.033,0.138-0.05c0.086-0.032,0.169-0.065,0.253-0.101c0.045-0.019,0.086-0.036,0.131-0.056
		c0.099-0.044,0.196-0.091,0.295-0.139c0.027-0.013,0.055-0.024,0.082-0.038c0.095-0.048,0.189-0.1,0.284-0.149
		c0.029-0.017,0.06-0.032,0.091-0.048c0.024-0.015,0.048-0.029,0.071-0.043c0.01-0.004,0.019-0.01,0.027-0.016
		c0.092-0.054,0.186-0.106,0.277-0.164c0.037-0.021,0.072-0.045,0.107-0.066c0.01-0.005,0.018-0.011,0.026-0.016
		c0.082-0.052,0.165-0.106,0.247-0.159c0.044-0.029,0.087-0.06,0.131-0.088c0.051-0.036,0.104-0.072,0.155-0.107
		c0.035-0.026,0.071-0.05,0.107-0.075c0.017-0.013,0.034-0.025,0.051-0.036c0.019-0.014,0.036-0.027,0.056-0.041
		c0.124-0.091,0.245-0.181,0.369-0.275c0.01-0.006,0.02-0.015,0.028-0.021c0.112-0.088,0.226-0.176,0.336-0.266
		c0.03-0.025,0.059-0.05,0.088-0.072c0.009-0.008,0.017-0.014,0.025-0.021c0.05-0.04,0.1-0.083,0.148-0.123
		c0.035-0.03,0.07-0.059,0.106-0.089c0.001-0.001,0.001-0.001,0.001-0.001c0.038-0.033,0.078-0.065,0.114-0.099
		c0.086-0.074,0.172-0.148,0.259-0.225c0.03-0.027,0.061-0.056,0.092-0.082c0.004-0.002,0.008-0.006,0.01-0.009
		c0.111-0.098,0.219-0.198,0.327-0.298c0.004-0.004,0.009-0.006,0.015-0.012c0.002-0.003,0.005-0.006,0.009-0.01
		c0.12-0.11,0.24-0.223,0.358-0.336c0.021-0.02,0.041-0.04,0.063-0.06c0.094-0.093,0.189-0.185,0.284-0.277
		c0.031-0.03,0.061-0.059,0.09-0.088c0.056-0.055,0.108-0.107,0.164-0.163c0.032-0.031,0.064-0.064,0.099-0.098
		c0.01-0.011,0.02-0.02,0.028-0.03c0.02-0.018,0.035-0.035,0.053-0.052c0.104-0.105,0.209-0.211,0.312-0.316
		c0.003-0.004,0.007-0.007,0.009-0.011c0.003-0.003,0.007-0.005,0.01-0.008c0.01-0.01,0.019-0.021,0.029-0.03
		c0.161-0.166,0.318-0.331,0.475-0.495c0.04-0.041,0.081-0.084,0.121-0.127c0.147-0.153,0.291-0.307,0.432-0.457
		c0.366-0.388,0.715-0.762,1.048-1.114c0.025-0.026,0.053-0.054,0.078-0.083c0.005-0.002,0.007-0.007,0.01-0.01
		c0.012-0.011,0.022-0.023,0.034-0.034c0.043-0.047,0.086-0.091,0.129-0.137c0.032-0.034,0.065-0.066,0.097-0.1
		c0.006-0.007,0.013-0.012,0.018-0.018c0.012-0.012,0.022-0.023,0.033-0.035c0.038-0.038,0.076-0.077,0.113-0.116
		c0.055-0.057,0.107-0.11,0.161-0.165c0.032-0.031,0.062-0.063,0.093-0.093c0.004-0.005,0.009-0.009,0.012-0.014
		c0.008-0.008,0.016-0.015,0.024-0.022c0.11-0.11,0.217-0.215,0.322-0.315c0.003-0.002,0.006-0.005,0.007-0.007
		c0-0.001,0-0.001,0-0.001c0.026-0.024,0.05-0.046,0.074-0.068c0.115-0.11,0.228-0.214,0.335-0.309
		c0.006-0.004,0.008-0.006,0.013-0.011c0.102-0.088,0.199-0.169,0.295-0.244c0.024-0.021,0.05-0.039,0.073-0.057
		c0.043-0.032,0.084-0.063,0.124-0.093c0.057-0.041,0.11-0.077,0.162-0.111c0.068-0.045,0.146-0.087,0.225-0.128
		c0.014-0.007,0.027-0.011,0.041-0.018c0.07-0.036,0.144-0.069,0.225-0.103c0.008-0.002,0.017-0.007,0.023-0.009
		c0.087-0.035,0.18-0.068,0.276-0.1c0.001-0.001,0.004-0.001,0.004-0.002c0.102-0.034,0.211-0.064,0.323-0.095l0.138-0.149
		l1.229-0.085c0.001,0,0.003,0,0.005,0c0.253-0.025,0.518-0.043,0.793-0.053c0.001,0,0.001,0,0.001,0l1.393-0.094
		c0,0,1.776-0.547,3.639-0.679c1.285-0.091,2.613,0.014,3.43,0.633c1.996,1.515,10.431,6.06,11.763,6.438
		c1.331,0.379,5.326,2.652,5.326,2.652s0,0.004,0,0.011c0,0.003,0,0.006,0,0.012s0,0.015,0,0.027
		c-0.002,0.005-0.002,0.011-0.002,0.018c0,0.037-0.001,0.09-0.007,0.156c0,0.011-0.001,0.019-0.002,0.027
		c-0.002,0.027-0.005,0.055-0.006,0.085c-0.002,0.011-0.003,0.021-0.004,0.033c-0.003,0.04-0.008,0.083-0.012,0.13
		c0.156,0.06,0.31,0.121,0.468,0.18c0.018,0.006,0.035,0.015,0.054,0.02c0.083-0.187,0.114-0.296,0.177-0.388
		c0.006-0.009,0.012-0.017,0.02-0.025c0.012-0.016,0.025-0.029,0.038-0.045c0.01-0.009,0.021-0.02,0.031-0.029
		c0.017-0.014,0.036-0.028,0.059-0.045c0.01-0.008,0.021-0.017,0.034-0.025c0.036-0.025,0.077-0.051,0.127-0.079
		c0.299-0.169,1.574,0.19,2.171,0.698c0.033,0.031,0.065,0.063,0.09,0.099c0.009,0.011,0.016,0.025,0.024,0.039
		c0.014,0.022,0.028,0.044,0.037,0.067c0.009,0.018,0.015,0.037,0.018,0.058c0.007,0.019,0.016,0.038,0.019,0.06
		c0.005,0.021,0.007,0.045,0.008,0.067c0.002,0.02,0.004,0.037,0.004,0.055c0.001,0.027-0.002,0.054-0.004,0.082
		c-0.001,0.015-0.002,0.03-0.004,0.046c-0.006,0.032-0.011,0.062-0.019,0.096c-0.004,0.012-0.005,0.023-0.007,0.036
		c-0.011,0.035-0.021,0.072-0.034,0.11c-0.002,0.007-0.006,0.014-0.008,0.021c-0.016,0.043-0.031,0.085-0.05,0.127
		c0.006,0.003,0.011,0.005,0.018,0.007c0.286,0.105,0.565,0.206,0.842,0.307c0.017,0.006,0.033,0.011,0.048,0.019
		c0-0.001,0.003-0.007,0.003-0.007c0.349-0.646,0.191-0.689,0.635-0.942c0.299-0.169,1.573,0.192,2.169,0.699
		c0.041,0.033,0.073,0.071,0.1,0.109c0.01,0.013,0.015,0.027,0.022,0.04c0.016,0.026,0.031,0.055,0.042,0.083
		c0.006,0.018,0.011,0.034,0.015,0.053c0.006,0.025,0.015,0.054,0.018,0.083c0.002,0.018,0.004,0.037,0.004,0.058
		c0.001,0.027,0.001,0.058,0,0.088c-0.002,0.02-0.006,0.04-0.009,0.06c-0.004,0.031-0.009,0.063-0.017,0.096
		c-0.005,0.02-0.009,0.039-0.014,0.06c-0.011,0.035-0.023,0.07-0.036,0.106c-0.007,0.018-0.012,0.036-0.018,0.055
		c-0.017,0.042-0.036,0.085-0.058,0.129c-0.004,0.012-0.009,0.023-0.016,0.034c-0.027,0.058-0.056,0.113-0.086,0.17
		c-0.002,0-0.002,0.001-0.003,0.003c0.001,0,0.003,0.001,0.004,0.001c0.388,0.135,0.754,0.262,1.088,0.377
		c0.161-0.315,0.192-0.467,0.27-0.585c0.005-0.009,0.01-0.015,0.015-0.021c0.011-0.016,0.025-0.032,0.04-0.048
		c0.01-0.009,0.016-0.02,0.028-0.028c0.016-0.016,0.038-0.031,0.059-0.049c0.012-0.007,0.022-0.018,0.035-0.027
		c0.04-0.024,0.085-0.052,0.138-0.084c0.298-0.169,1.574,0.192,2.168,0.699c0.039,0.033,0.07,0.066,0.097,0.103
		c0.009,0.012,0.012,0.024,0.021,0.037c0.016,0.025,0.033,0.052,0.043,0.078c0.007,0.013,0.007,0.025,0.011,0.038
		c0.009,0.029,0.02,0.058,0.023,0.089c0.002,0.012,0.002,0.023,0.004,0.036c0.003,0.032,0.005,0.064,0.004,0.099
		c0,0.011-0.002,0.02-0.002,0.029c-0.002,0.037-0.007,0.077-0.016,0.115c0,0.007-0.002,0.014-0.005,0.021
		c-0.008,0.042-0.02,0.086-0.033,0.131c0,0.003-0.004,0.008-0.004,0.012c-0.015,0.048-0.034,0.097-0.053,0.145
		c-0.001,0.001-0.001,0.003-0.003,0.005c-0.021,0.051-0.043,0.103-0.07,0.152c0,0.001,0,0.001,0,0.001
		c0.35,0.12,0.711,0.244,1.089,0.379c0-0.002,0-0.003,0.002-0.005c0.077-0.167,0.114-0.277,0.155-0.363
		c0.004-0.012,0.01-0.021,0.014-0.03c0.01-0.017,0.02-0.035,0.03-0.052c0.007-0.011,0.016-0.021,0.023-0.032
		c0.01-0.014,0.023-0.027,0.036-0.04c0.01-0.011,0.02-0.021,0.032-0.031c0.015-0.016,0.034-0.029,0.056-0.046
		c0.012-0.008,0.023-0.017,0.037-0.027c0.035-0.024,0.079-0.05,0.13-0.08c0.298-0.169,1.575,0.191,2.17,0.698
		c0.035,0.03,0.065,0.063,0.091,0.098c0.011,0.015,0.018,0.03,0.026,0.044c0.013,0.023,0.026,0.042,0.036,0.065
		c0.009,0.019,0.014,0.04,0.02,0.062c0.005,0.019,0.013,0.036,0.017,0.056c0.004,0.024,0.006,0.049,0.008,0.074
		c0.001,0.017,0.003,0.032,0.003,0.051c0,0.028-0.002,0.059-0.005,0.089c-0.002,0.014-0.004,0.027-0.005,0.04
		c-0.004,0.035-0.013,0.069-0.021,0.105c-0.002,0.009-0.004,0.02-0.006,0.027c-0.012,0.04-0.023,0.081-0.04,0.122
		c-0.002,0.005-0.002,0.01-0.002,0.014c-0.018,0.046-0.037,0.091-0.057,0.137c0.017,0.006,0.034,0.014,0.052,0.019
		c0.389,0.142,0.783,0.285,1.186,0.434c0.003,0.001,0.005,0.002,0.009,0.003c0.106-0.216,0.148-0.348,0.196-0.449
		c0.001-0.004,0.005-0.007,0.005-0.012c0.011-0.021,0.024-0.041,0.036-0.061c0.006-0.01,0.013-0.02,0.019-0.027
		c0.011-0.016,0.024-0.031,0.039-0.045c0.01-0.01,0.02-0.021,0.028-0.031c0.017-0.014,0.04-0.031,0.061-0.046
		c0.013-0.01,0.022-0.018,0.034-0.027c0.039-0.025,0.083-0.052,0.136-0.082c0.298-0.169,1.573,0.19,2.169,0.698
		c0.036,0.032,0.068,0.067,0.096,0.104c0.008,0.013,0.013,0.026,0.021,0.038c0.017,0.024,0.032,0.052,0.043,0.078
		c0.006,0.015,0.008,0.029,0.013,0.043c0.008,0.027,0.017,0.056,0.021,0.086c0.001,0.013,0.001,0.026,0.003,0.041
		c0.004,0.031,0.006,0.063,0.004,0.097c0,0.012-0.002,0.024-0.004,0.035c-0.003,0.037-0.006,0.075-0.014,0.111
		c-0.003,0.01-0.006,0.019-0.008,0.027c-0.009,0.042-0.02,0.084-0.032,0.127c-0.003,0.007-0.007,0.013-0.008,0.02
		c-0.017,0.047-0.035,0.093-0.054,0.142c-0.001,0.003-0.003,0.005-0.005,0.009c-0.021,0.051-0.045,0.102-0.07,0.153v0.001
		c0.013,0.005,0.026,0.01,0.043,0.017c0.498,0.192,1.002,0.391,1.509,0.593c0.011,0.003,0.021,0.009,0.032,0.014
		c0.512,0.202,1.024,0.41,1.537,0.622c0.049,0.02,0.097,0.041,0.147,0.061c0.425,0.177,0.849,0.354,1.272,0.536
		c0.117,0.05,0.234,0.101,0.354,0.151c0.474,0.205,0.945,0.411,1.413,0.62c0.869,0.392,1.723,0.79,2.545,1.195
		c1.407,0.693,2.812,1.919,3.853,3.286c0.089,0.116,0.174,0.235,0.259,0.355c0.022,0.032,0.047,0.066,0.068,0.1
		c0.065,0.094,0.127,0.188,0.188,0.283c0.019,0.029,0.038,0.058,0.057,0.088c0.076,0.121,0.149,0.243,0.219,0.365
		c0.009,0.018,0.019,0.033,0.028,0.05c0.06,0.107,0.116,0.214,0.17,0.32c0.016,0.032,0.032,0.065,0.048,0.098
		c0.054,0.105,0.102,0.21,0.147,0.316c0.009,0.018,0.017,0.036,0.025,0.054c0.054,0.126,0.102,0.249,0.146,0.371
		c0.008,0.022,0.016,0.046,0.022,0.067c0.037,0.104,0.069,0.205,0.098,0.306c0.01,0.028,0.018,0.056,0.025,0.083
		c0.064,0.236,0.111,0.467,0.141,0.692c0.002,0.024,0.005,0.048,0.007,0.072c0.009,0.082,0.016,0.165,0.018,0.246
		c0.003,0.032,0.003,0.063,0.004,0.096c0.001,0.076-0.001,0.15-0.004,0.224c-0.001,0.031-0.002,0.06-0.005,0.089
		c-0.008,0.101-0.02,0.2-0.037,0.297c-0.146,0.796-0.629,1.463-1.554,1.886c-0.026,0.13-0.058,0.254-0.106,0.367
		c-0.104,0.243-0.262,0.443-0.488,0.577c0,0-0.008,0.001-0.021,0.003c-0.066,0.007-0.317,0.036-0.767,0.083l0.03,0.327l0.037,0.414
		c0.095,1.046-0.47,1.935-1.265,1.987l-6.996,0.465c-0.151,0.011-0.3-0.011-0.443-0.06c-0.604-0.204-1.091-0.892-1.168-1.736
		l-0.06-0.672c-0.372,0.019-0.758,0.04-1.151,0.061c-0.011,0-0.021,0.001-0.033,0.001c-0.397,0.021-0.805,0.042-1.222,0.062
		l0.02,0.559v0.01c0.039,1.1-0.551,2.006-1.315,2.026l-6.738,0.169c-0.097,0.003-0.193-0.009-0.286-0.034
		c-0.635-0.173-1.134-0.962-1.168-1.92l-0.016-0.44c-0.91,0.025-1.854,0.052-2.824,0.077c-0.003,0-0.005,0-0.007,0v0.376v0.178
		c0,1.102-0.646,1.992-1.443,1.992h-7.017c-0.088,0-0.172-0.012-0.255-0.031c-0.675-0.168-1.189-0.98-1.189-1.961v-0.374
		c-0.033,0-0.068,0.001-0.104,0.002c-0.766,0.009-1.546,0.017-2.339,0.021v0.157v0.376c0,1.197-0.647,2.169-1.442,2.169h-6.958
		h-0.061c-0.798,0-1.442-0.972-1.442-2.169v-0.499c-4.175-0.008-7.989-0.041-11.463-0.093c-0.002,0-0.005,0-0.006,0
		c-0.316-0.004-0.63-0.009-0.94-0.014c-0.064,0-0.128-0.002-0.191-0.004c-0.278-0.003-0.555-0.009-0.83-0.014
		c-0.096-0.002-0.192-0.004-0.288-0.004c-0.252-0.004-0.502-0.009-0.75-0.015c-0.13-0.002-0.256-0.004-0.384-0.007
		c-0.283-0.005-0.565-0.011-0.844-0.017c-0.276-0.006-0.551-0.011-0.821-0.017c-0.088-0.002-0.174-0.005-0.263-0.006
		c-0.194-0.005-0.388-0.009-0.579-0.013l-0.025,0.375l-0.027,0.425c-0.078,1.14-0.812,2.031-1.642,1.988l-7.195-0.356l-0.102-0.005
		c-0.828-0.042-1.438-0.998-1.359-2.139l0.042-0.616c-0.595-0.026-1.168-0.051-1.722-0.077c-0.002,0-0.007,0-0.008,0
		c-0.223-0.011-0.441-0.021-0.656-0.031c-0.068-0.002-0.141-0.006-0.209-0.01c-0.206-0.01-0.405-0.021-0.604-0.03
		c-0.045-0.002-0.092-0.005-0.137-0.007l-0.026,0.444l-0.002,0.025c-0.068,1.098-0.768,1.96-1.564,1.923l-6.579-0.298l-0.43-0.019
		c-0.794-0.036-1.382-0.956-1.314-2.054l0.045-0.71c-0.321-0.031-0.58-0.059-0.779-0.081c-0.019-0.001-0.036-0.004-0.053-0.006
		c-0.047-0.006-0.091-0.01-0.13-0.015c-0.009-0.001-0.02-0.002-0.028-0.003c-0.044-0.005-0.081-0.01-0.114-0.015
		c-0.015-0.002-0.025-0.002-0.038-0.005c-0.027-0.002-0.052-0.005-0.073-0.007c-0.004-0.001-0.007-0.002-0.011-0.002
		c-0.021-0.003-0.039-0.005-0.053-0.007c-0.001,0-0.003,0-0.005-0.001c-0.01-0.002-0.017-0.003-0.017-0.003
		c-0.516-0.216-0.887-0.524-1.154-0.868c-0.368-0.472-0.538-1.005-0.613-1.445c-0.026-0.027-0.05-0.057-0.074-0.085
		c-0.021-0.025-0.044-0.051-0.065-0.077c-0.056-0.069-0.112-0.143-0.167-0.217c-0.014-0.021-0.029-0.043-0.047-0.065
		c-0.056-0.079-0.109-0.161-0.163-0.245c-0.011-0.018-0.022-0.037-0.033-0.055c-0.055-0.089-0.107-0.18-0.158-0.274
		c-0.003-0.007-0.009-0.014-0.012-0.021c-0.002-0.005-0.005-0.01-0.008-0.015c-0.314-0.592-0.555-1.271-0.73-2.019
		c-0.002-0.003-0.002-0.005-0.003-0.008c0-0.001,0-0.003-0.001-0.004c-0.065-0.279-0.122-0.567-0.169-0.864c0-0.002,0-0.004,0-0.005
		c-0.049-0.3-0.089-0.608-0.12-0.926c0-0.002,0-0.002-0.001-0.005c0-0.002,0-0.005,0-0.008c-0.051-0.521-0.081-1.063-0.091-1.622
		C257.528,445.142,257.528,445.14,257.528,445.138z"/>
	<path fill="#9C9D9D" d="M258.797,450.752c0-1.454,1.307-1.277,2.066-1.277l91.062,0.401c0.639,0,1.792,1.603,1.245,2.899
		c-0.104,0.243-1.055,0.979-2.215,1.096c0,0-0.258,0.03-0.788,0.086l0.03,0.327l0.037,0.414c0.095,1.046-0.47,1.935-1.265,1.987
		l-6.996,0.465c-0.151,0.011-0.3-0.011-0.443-0.06c-0.604-0.204-1.091-0.892-1.168-1.736l-0.06-0.672
		c-0.759,0.041-1.562,0.083-2.406,0.123l0.02,0.559v0.01c0.039,1.1-0.551,2.006-1.315,2.026l-6.738,0.169
		c-0.097,0.003-0.193-0.009-0.286-0.034c-0.635-0.173-1.134-0.962-1.168-1.92l-0.016-0.44c-0.913,0.025-1.858,0.052-2.831,0.077
		v0.376v0.178c0,1.102-0.646,1.992-1.443,1.992h-7.017c-0.088,0-0.172-0.012-0.255-0.031c-0.675-0.168-1.189-0.98-1.189-1.961
		v-0.374c-0.8,0.009-1.612,0.019-2.442,0.023v0.157v0.376c0,1.197-0.647,2.169-1.442,2.169h-6.958h-0.061
		c-0.798,0-1.442-0.972-1.442-2.169v-0.499c-6.684-0.012-12.439-0.089-17.359-0.201l-0.025,0.375l-0.027,0.425
		c-0.078,1.14-0.812,2.031-1.642,1.988l-7.195-0.356l-0.102-0.005c-0.828-0.042-1.438-0.998-1.359-2.139l0.042-0.617
		c-1.19-0.05-2.304-0.102-3.335-0.154l-0.026,0.444l-0.002,0.025c-0.068,1.098-0.768,1.96-1.564,1.923l-6.579-0.298l-0.43-0.019
		c-0.794-0.036-1.382-0.956-1.314-2.054l0.045-0.71c-0.889-0.088-1.301-0.144-1.301-0.144c-0.516-0.216-1.409-0.524-1.677-0.867
		C258.657,452.077,258.797,450.752,258.797,450.752z"/>
	<path fill="#9C9D9D" d="M276.907,455.856c2.436-1.483,5.858,0.407,9.021-0.193l-0.027,0.425c-0.078,1.14-0.812,2.031-1.642,1.988
		l-7.195-0.356C276.581,456.958,276.422,456.063,276.907,455.856z"/>
	<path fill="#9C9D9D" d="M275.603,455.576l0.089-1.286c0.077-1.14,0.812-2.03,1.641-1.989l7.296,0.363
		c0.83,0.041,1.437,0.998,1.359,2.139l-0.06,0.86c-3.162,0.601-6.585-1.29-9.021,0.193c-0.485,0.207-0.326,1.102,0.156,1.863
		l-0.102-0.005C276.134,457.673,275.525,456.717,275.603,455.576z"/>
	<path fill="#9C9D9D" d="M263.34,455.544c2.858-0.611,6.065-0.034,8.943-0.295l-0.002,0.025c-0.068,1.098-0.768,1.96-1.564,1.923
		l-6.579-0.298C263.41,456.286,262.887,455.736,263.34,455.544z"/>
	<path fill="#9C9D9D" d="M262.394,454.827l0.077-1.241c0.068-1.098,0.768-1.96,1.562-1.923l7.009,0.316
		c0.796,0.037,1.384,0.957,1.317,2.057l-0.076,1.213c-2.878,0.261-6.085-0.316-8.943,0.295c-0.453,0.192,0.07,0.742,0.798,1.355
		l-0.43-0.019C262.914,456.844,262.326,455.925,262.394,454.827z"/>
	<path fill="#9C9D9D" d="M350.198,454.284l0.037,0.414c0.095,1.046-0.47,1.935-1.265,1.987l-6.996,0.465
		c-0.151,0.011-0.3-0.011-0.443-0.06C342.902,454.594,347.058,454.927,350.198,454.284z"/>
	<path fill="#9C9D9D" d="M341.523,452.189l6.996-0.465c0.793-0.053,1.516,0.751,1.609,1.796l0.07,0.764
		c-3.141,0.644-7.297,0.31-8.667,2.807c-0.604-0.204-1.091-0.892-1.168-1.736l-0.106-1.179
		C340.162,453.131,340.726,452.242,341.523,452.189z"/>
	<path fill="#9C9D9D" d="M329.681,452.345l6.739-0.169c0.765-0.02,1.415,0.856,1.454,1.955l0.043,1.232
		c-2.939,0.518-7.769-0.401-8.34,2.171c-0.635-0.173-1.134-0.962-1.168-1.92l-0.043-1.242
		C328.327,453.273,328.915,452.367,329.681,452.345z"/>
	<path fill="#9C9D9D" d="M337.917,455.364v0.01c0.039,1.1-0.551,2.006-1.315,2.026l-6.738,0.169
		c-0.097,0.003-0.193-0.009-0.286-0.034C330.149,454.963,334.978,455.882,337.917,455.364z"/>
	<path fill="#9C9D9D" d="M317.249,456.482c2.08-1.479,5.47-0.444,8.313-0.854v0.178c0,1.102-0.646,1.992-1.443,1.992h-7.017
		c-0.088,0-0.172-0.012-0.255-0.031C316.694,457.208,316.876,456.64,317.249,456.482z"/>
	<path fill="#9C9D9D" d="M317.103,452.57h7.017c0.798,0,1.443,0.892,1.443,1.992v1.065c-2.844,0.41-6.233-0.625-8.313,0.854
		c-0.373,0.158-0.556,0.726-0.401,1.284c-0.675-0.168-1.189-0.98-1.189-1.961v-1.243C315.658,453.462,316.306,452.57,317.103,452.57
		z"/>
	<path fill="#9C9D9D" d="M305.147,456.482c2.461-0.9,5.257-0.366,8.069-0.87v0.376c0,1.197-0.647,2.169-1.442,2.169h-6.958
		C304.331,457.477,304.404,456.693,305.147,456.482z"/>
	<path fill="#9C9D9D" d="M304.755,452.466h7.019c0.795,0,1.442,0.971,1.442,2.169v0.978c-2.812,0.504-5.608-0.03-8.069,0.87
		c-0.743,0.211-0.815,0.995-0.331,1.675h-0.061c-0.798,0-1.442-0.972-1.442-2.169v-1.354
		C303.313,453.436,303.957,452.466,304.755,452.466z"/>
	<path fill="#BFBFC0" d="M261.566,427.119c0,0,5.623-2.138,7.823,2.086c2.2,4.225,6.598,4.624,10.999,3.685
		c4.4-0.938,8.801-7.51,11.001-8.918c1.035-0.662,3.281-0.928,5.998-0.631c-2.484,3.163-4.197,6.745-6.91,9.984
		c-3.299,3.442-8.435,4.694-13.201,5.319c-6.235,0.938-11.003-2.816-15.036-7.197c-0.376-0.479-1.137-0.795-2.033-0.948
		C260.666,429.162,261.134,428.002,261.566,427.119z"/>
	<path fill="#BFBFC0" d="M261.566,427.119l0.002-0.002c4.823,0.433,5.723,3.59,9.473,6.208c7.708,4.783,15.078-1.287,18.919-8.115
		c0.543-0.542,1.024-0.979,1.43-1.238c1.035-0.662,3.281-0.928,5.998-0.631c-2.484,3.163-4.197,6.745-6.91,9.984
		c-3.299,3.442-8.435,4.694-13.201,5.319c-6.235,0.938-11.003-2.816-15.036-7.197c-0.376-0.479-1.137-0.795-2.033-0.948
		C260.666,429.162,261.134,428.002,261.566,427.119z"/>
	<path fill="#BFBFC0" d="M271.04,433.325c-3.75-2.618-4.649-5.775-9.473-6.208c0.056-0.019,5.632-2.115,7.821,2.088
		c2.2,4.225,6.598,4.624,10.999,3.685c3.588-0.766,7.178-5.276,9.571-7.68C286.118,432.038,278.748,438.108,271.04,433.325z"/>
	<path fill="#BFBFC0" d="M262.24,430.978c4.033,4.382,8.801,8.137,15.036,7.197c4.767-0.627,9.902-1.877,13.201-5.319
		c2.589-3.092,4.268-6.495,6.576-9.548c0.11,0.01,0.221,0.019,0.334,0.032c-2.484,3.163-4.197,6.745-6.91,9.984
		c-3.299,3.442-8.435,4.694-13.201,5.319c-6.235,0.938-11.003-2.816-15.036-7.197c-0.376-0.479-1.137-0.795-2.033-0.948
		c0.051-0.147,0.104-0.294,0.154-0.438C261.191,430.222,261.885,430.526,262.24,430.978z"/>
	<path fill="#BFBFC0" d="M335.586,444.278c-2.567-0.313-1.834-3.13-3.668-4.381c-4.034-2.504-8.802-3.756-13.934-5.007
		c-7.336-1.565-13.204-5.008-19.806-7.824c-1.144-0.242-0.948-2.008-0.285-3.663c2.943,0.388,6.365,1.42,9.392,3.299
		c6.051,3.755,17.64,7.777,21.761,9.179c3.517,1.197,10.175,3.473,16.036,6.106C342.712,444.102,339.318,445.127,335.586,444.278z"
		/>
	<path fill="#BFBFC0" d="M335.586,444.278c-2.567-0.313-1.834-3.13-3.668-4.381c-4.034-2.504-8.802-3.756-13.934-5.007
		c-7.336-1.565-13.204-5.008-19.806-7.824c-1.144-0.242-0.948-2.008-0.285-3.663c2.943,0.388,6.365,1.42,9.392,3.299
		c6.051,3.755,17.64,7.777,21.761,9.179c3.517,1.197,10.175,3.473,16.036,6.106C342.712,444.102,339.318,445.127,335.586,444.278z"
		/>
	<path fill="#BFBFC0" d="M335.586,444.278c-2.567-0.313-1.834-3.13-3.668-4.381c-4.034-2.504-8.802-3.756-13.934-5.007
		c-7.336-1.565-13.204-5.008-19.806-7.824c-1.144-0.242-0.948-2.008-0.285-3.663c2.943,0.388,6.365,1.42,9.392,3.299
		c6.051,3.755,17.64,7.777,21.761,9.179c3.517,1.197,10.175,3.473,16.036,6.106C342.712,444.102,339.318,445.127,335.586,444.278z"
		/>
	<path fill="#BFBFC0" d="M297.894,423.403c0.032,0.003,0.065,0.009,0.097,0.012c-0.556,1.554-0.656,3.108,0.41,3.336
		c6.602,2.816,12.47,6.258,19.804,7.823c5.135,1.252,9.902,2.503,13.938,5.007c1.833,1.252,1.1,4.066,3.666,4.381
		c3.568,0.812,6.823-0.092,9.174-2.019c0.033,0.015,0.066,0.029,0.101,0.044c-2.37,2.115-5.765,3.14-9.496,2.291
		c-2.567-0.313-1.834-3.13-3.668-4.381c-4.034-2.504-8.802-3.756-13.934-5.007c-7.336-1.565-13.204-5.008-19.806-7.824
		C297.035,426.824,297.231,425.058,297.894,423.403z"/>
	<path fill="#BFBFC0" d="M269.206,442.401c1.468,0.625,2.936,0.625,4.034,1.251c6.656,3.342,13.209,6.683,18.987,10.69
		c-15.751-0.06-29.2-0.502-31.644-1.74c-3.551-1.798-3.528-8.378-2.349-14.631C262.061,439.244,265.541,441.06,269.206,442.401z"/>
	<path fill="#BFBFC0" d="M291.432,432.123c2.188-2.908,3.772-6.006,5.955-8.782c0.167,0.018,0.336,0.039,0.507,0.062
		c-0.663,1.655-0.858,3.421,0.285,3.663c4.278,1.825,8.252,3.912,12.513,5.582l-3.604,4.896
		C301.61,436.174,294.982,435.758,291.432,432.123z"/>
	<path fill="#BFBFC0" d="M331.552,447.094c-5.794-3.846-12.155-6.726-19.328-8.22l3.297-4.595c0.805,0.225,1.623,0.432,2.464,0.61
		c5.132,1.251,9.899,2.503,13.934,5.007c1.834,1.251,1.101,4.067,3.668,4.381c3.731,0.849,7.126-0.176,9.496-2.291
		c0.869,0.392,1.723,0.79,2.545,1.195c1.407,0.693,2.812,1.919,3.853,3.286c-0.044,0-0.087,0-0.124,0
		C346.954,452.101,336.32,450.536,331.552,447.094z"/>
	<path fill="#9C9D9D" d="M320.563,433.188c0,0-0.438,0.674-0.554,1.396c-0.091,0.562,2.104,1.287,2.599,0.611
		c0.497-0.677,1.354-1.744,0.759-2.253c-0.597-0.508-1.872-0.867-2.171-0.698C320.753,432.496,320.911,432.541,320.563,433.188z"/>
	<path fill="#9C9D9D" d="M324.351,434.229c0,0-0.437,0.676-0.552,1.397c-0.091,0.563,2.103,1.288,2.599,0.612
		c0.496-0.678,1.353-1.745,0.757-2.253c-0.596-0.507-1.87-0.868-2.169-0.699C324.542,433.54,324.699,433.584,324.351,434.229z"/>
	<path fill="#9C9D9D" d="M328.14,435.69c0,0-0.437,0.676-0.552,1.396c-0.09,0.563,2.104,1.289,2.601,0.612
		c0.493-0.678,1.352-1.745,0.755-2.253c-0.594-0.507-1.87-0.868-2.168-0.699C328.332,435.001,328.49,435.045,328.14,435.69z"/>
	<path fill="#9C9D9D" d="M331.931,437.149c0,0-0.438,0.677-0.554,1.398c-0.089,0.562,2.104,1.288,2.6,0.612
		c0.496-0.678,1.352-1.746,0.758-2.254c-0.595-0.507-1.872-0.867-2.17-0.698C332.121,436.461,332.28,436.505,331.931,437.149z"/>
	<path fill="#9C9D9D" d="M335.965,438.507c0,0-0.438,0.676-0.554,1.398c-0.09,0.562,2.103,1.286,2.6,0.609
		c0.497-0.676,1.352-1.744,0.758-2.252c-0.596-0.508-1.871-0.867-2.169-0.698C336.156,437.817,336.313,437.861,335.965,438.507z"/>
	<path fill="#9C9D9D" d="M269.206,442.401c-3.665-1.341-7.146-3.157-10.971-4.43c0.507-2.687,1.228-5.312,1.971-7.473
		c0.896,0.153,1.657,0.469,2.033,0.948c4.033,4.381,8.801,8.136,15.036,7.197c4.767-0.625,9.902-1.877,13.201-5.319
		c0.331-0.396,0.648-0.797,0.955-1.202c3.55,3.635,10.178,4.051,15.656,5.421l-8.036,10.921c-5.346-0.305-10.713-0.376-16.124,0.008
		c-0.107,0.012-0.216,0.021-0.323,0.029c-3.048-1.664-6.193-3.258-9.364-4.85C272.142,443.026,270.674,443.026,269.206,442.401z"/>
	<path fill="#BFBFC0" d="M299.052,448.465l-3.846,5.226l-3.97-0.012c-2.742-1.839-5.641-3.541-8.632-5.177
		c0.107-0.009,0.216-0.018,0.323-0.029C288.339,448.089,293.706,448.16,299.052,448.465z"/>
	<path fill="#BFBFC0" d="M295.206,453.69l-0.485,0.658c-0.836-0.001-1.668-0.004-2.493-0.006c-0.325-0.226-0.662-0.442-0.991-0.664
		L295.206,453.69z"/>
	<path fill="#BFBFC0" d="M331.552,447.094c4.768,3.441,15.402,5.007,19.804-0.626c0.037,0,0.08,0,0.124,0
		c0.798,1.047,1.38,2.176,1.589,3.215c-1.236,1.074-3.049,1.765-4.862,1.92c-14.57,0.828-28.82-1.497-43.172-2.71l7.189-10.019
		C319.397,440.369,325.758,443.249,331.552,447.094z"/>
	<path fill="#BFBFC0" d="M301.679,453.567l3.355-4.674c14.352,1.213,28.602,3.538,43.172,2.71c1.813-0.155,3.626-0.846,4.862-1.92
		c0.095,0.479,0.113,0.936,0.036,1.357c-0.234,1.283-1.342,2.231-3.768,2.363c-3.992,0.221-26.709,0.846-48.212,0.936
		L301.679,453.567z"/>
	
		<rect x="297.909" y="446.221" transform="matrix(-0.5831 0.8124 -0.8124 -0.5831 848.4451 457.0321)" fill="#BFBFC0" width="18.085" height="0"/>
	
		<rect x="297.909" y="446.221" transform="matrix(-0.5831 0.8124 -0.8124 -0.5831 848.4451 457.0321)" fill="#BFBFC0" width="18.085" height="0"/>
	<polygon fill="#BFBFC0" points="301.679,453.567 301.125,454.34 301.679,453.567 	"/>
	<polygon fill="#BFBFC0" points="301.679,453.567 301.125,454.34 301.679,453.567 	"/>
	<path fill="#BFBFC0" d="M295.206,453.69l3.846-5.226c1.133,0.065,2.264,0.142,3.395,0.224c0.864,0.064,1.726,0.132,2.588,0.205
		l-3.355,4.674l-0.554,0.772c-0.587,0.002-1.172,0.003-1.761,0.004c-1.558,0.005-3.11,0.007-4.644,0.005L295.206,453.69z"/>
	<polygon fill="#BFBFC0" points="295.206,453.69 294.721,454.348 295.206,453.69 	"/>
	<g>
		<path fill="#BFBFC0" d="M307.085,437.549c0.498,0.119,1.271,0.306,2.198,0.537c1.09,0.27,2.273,0.592,2.949,0.778l-0.009,0.011
			l-7.189,10.019c-0.862-0.073-1.724-0.141-2.588-0.205c-1.131-0.082-2.262-0.158-3.395-0.224L307.085,437.549z"/>
		<path fill="#BFBFC0" d="M307.085,437.549l0.003-0.005l0.321-0.436l3.282-4.46c1.562,0.609,3.162,1.167,4.829,1.632l-3.288,4.584
			c-0.676-0.187-1.859-0.509-2.949-0.778C308.356,437.854,307.583,437.668,307.085,437.549z"/>
	</g>
	<polygon fill="#BFBFC0" points="295.206,453.69 294.721,454.348 295.206,453.69 	"/>
	<rect x="301.147" y="435.593" fill="#BFBFC0" width="0" height="20.047"/>
	<path fill="#BFBFC0" d="M291.068,425.096c0.362,2.14,0.997,4.339,3.078,5.1c3.667,1.565,8.801-0.313,12.835,1.565
		c2.934,0.938,5.135,3.129,8.067,4.066c2.971,0.725,4.1-0.857,5.094-2.803c-0.241,1.484-1.201,4.315-5.024,3.323
		c-5.105-1.326-7.104-3.787-10.877-4.545c-3.771-0.757-7.767,0.379-10.431-0.569c-2.664-0.946-3.331-5.491-3.331-5.491
		L291.068,425.096z"/>
	<path fill="#BFBFC0" d="M292.644,423.369l3.42-0.231c0,0,1.776-0.547,3.639-0.679c-0.086,0.422-0.187,0.834-0.058,1.166
		c-1.466,0.312-2.567,0.938-2.933,2.189c-0.367,1.565,1.467,2.817,2.933,2.817c5.869,0,9.902,2.189,14.672,5.006
		c1.366,0.973,3.159,1.099,5.024,0.754c-0.875,1.229-2.067,1.979-4.293,1.437c-2.933-0.938-5.134-3.129-8.067-4.066
		c-4.034-1.879-9.168,0-12.835-1.565c-2.081-0.761-2.716-2.96-3.078-5.1L292.644,423.369z"/>
	<path fill="#9C9D9D" d="M314.317,433.637c-4.77-2.816-8.803-5.006-14.672-5.006c-1.466,0-3.3-1.252-2.933-2.817
		c0.365-1.251,1.467-1.877,2.933-2.189c-0.129-0.332-0.028-0.744,0.058-1.166c1.285-0.091,2.613,0.014,3.43,0.633
		c1.996,1.515,10.431,6.06,11.763,6.438c1.331,0.379,5.326,2.652,5.326,2.652s0,0.346-0.079,0.843
		c-0.25,0.489-0.508,0.954-0.801,1.366C317.476,434.736,315.683,434.61,314.317,433.637z"/>
	<path fill="#BFBFC0" d="M257.537,444.014c0.032-1.144,0.135-2.337,0.295-3.543c0.11-0.831,0.247-1.669,0.403-2.5
		c1.24,0.412,2.443,0.885,3.629,1.377c0.714,0.271,3.239,1.229,5.152,1.916c1.843,0.663,4.36,1.646,5.207,1.981
		c0.363,0.104,0.706,0.229,1.017,0.406c3.153,1.583,6.282,3.168,9.312,4.822c-2.875,0.21-5.701,0.37-8.617,0.184
		c-0.479-0.117-0.957-0.233-1.438-0.35c0.563,0.137,1.127,0.274,1.687,0.412C268.095,448.452,261.948,447.167,257.537,444.014z"/>
	<path fill="#BFBFC0" d="M257.537,444.014c4.41,3.152,10.558,4.438,16.646,4.706c0.299,0.071,0.597,0.145,0.893,0.218
		c-0.379-0.095-0.759-0.188-1.141-0.28c2.916,0.187,5.742,0.026,8.617-0.184c3.009,1.643,5.924,3.353,8.677,5.201
		c0.003,0.001,0.005,0.002,0.007,0.003c0.329,0.222,0.666,0.438,0.991,0.664c-0.758-0.003-1.509-0.006-2.256-0.013
		c-14.764-0.092-27.061-0.549-29.388-1.728c-0.831-0.42-1.463-1.104-1.934-1.982C257.765,448.968,257.463,446.62,257.537,444.014z"
		/>
	<path fill="#9C9D9D" d="M336.6,437.564c0.022-0.015,0.062-0.02,0.097-0.025c-0.055,0.121-0.106,0.291-0.272,0.599
		c0,0-0.437,0.675-0.552,1.397c-0.076,0.474,1.467,1.06,2.25,0.828c-0.038,0.052-0.076,0.104-0.111,0.151
		c-0.497,0.677-2.689-0.048-2.6-0.609c0.116-0.723,0.554-1.398,0.554-1.398C336.313,437.861,336.156,437.817,336.6,437.564z"/>
	<path fill="#9C9D9D" d="M332.565,436.208c0.024-0.013,0.063-0.018,0.099-0.024c-0.057,0.122-0.107,0.292-0.272,0.597
		c0,0-0.437,0.676-0.553,1.398c-0.075,0.474,1.465,1.06,2.251,0.828c-0.039,0.052-0.077,0.104-0.112,0.153
		c-0.495,0.676-2.688-0.05-2.6-0.612c0.116-0.722,0.554-1.398,0.554-1.398C332.28,436.505,332.121,436.461,332.565,436.208z"/>
	<path fill="#9C9D9D" d="M324.986,433.287c0.025-0.012,0.062-0.018,0.099-0.024c-0.057,0.123-0.107,0.291-0.273,0.598
		c0,0-0.437,0.676-0.553,1.397c-0.075,0.474,1.467,1.059,2.251,0.827c-0.037,0.054-0.076,0.104-0.111,0.154
		c-0.496,0.676-2.689-0.049-2.599-0.612c0.115-0.722,0.552-1.397,0.552-1.397C324.699,433.584,324.542,433.54,324.986,433.287z"/>
	<path fill="#9C9D9D" d="M328.776,434.747c0.024-0.013,0.062-0.018,0.099-0.024c-0.056,0.122-0.108,0.292-0.273,0.598
		c0,0-0.438,0.676-0.554,1.397c-0.075,0.475,1.467,1.06,2.253,0.829c-0.039,0.052-0.077,0.104-0.111,0.152
		c-0.497,0.677-2.69-0.049-2.601-0.612c0.115-0.721,0.552-1.396,0.552-1.396C328.49,435.045,328.332,435.001,328.776,434.747z"/>
	<path fill="#9C9D9D" d="M320.563,433.188c0.349-0.647,0.19-0.692,0.633-0.944c0.024-0.013,0.063-0.018,0.099-0.025
		c-0.057,0.123-0.106,0.291-0.272,0.6c0,0-0.436,0.675-0.553,1.396c-0.076,0.474,1.467,1.06,2.252,0.828
		c-0.039,0.054-0.077,0.104-0.113,0.152c-0.495,0.676-2.689-0.049-2.599-0.611C320.124,433.862,320.563,433.188,320.563,433.188z"/>
</g>
</svg>
