<?xml version="1.0" encoding="utf-8"?>
<!-- Generator: Adobe Illustrator 16.0.1, SVG Export Plug-In . SVG Version: 6.00 Build 0)  -->
<!DOCTYPE svg PUBLIC "-//W3C//DTD SVG 1.1//EN" "http://www.w3.org/Graphics/SVG/1.1/DTD/svg11.dtd">
<svg version="1.1" id="content" xmlns="http://www.w3.org/2000/svg" xmlns:xlink="http://www.w3.org/1999/xlink" x="0px" y="0px"
	 width="500px" height="500px" viewBox="0 0 500 500" enable-background="new 0 0 500 500" xml:space="preserve">
<g id="bounds" display="none">
	<rect x="0" display="inline" fill="none" stroke="#000000" stroke-miterlimit="10" width="500" height="500"/>
</g>
<g>
	<g>
		<g>
			<path fill="#BFBFC0" d="M181.872,315.939c0,8.842-7.234,16.075-16.075,16.075h-0.435c-8.841,0-16.075-7.233-16.075-16.075
				v-88.577c0-8.841,7.234-16.075,16.075-16.075h0.435c8.841,0,16.075,7.234,16.075,16.075V315.939z"/>
		</g>
	</g>
	<g>
		<g>
			<path fill="#BFBFC0" d="M352.518,315.939c0,8.842-7.233,16.075-16.075,16.075h-0.435c-8.842,0-16.075-7.233-16.075-16.075
				v-88.577c0-8.841,7.233-16.075,16.075-16.075h0.435c8.842,0,16.075,7.234,16.075,16.075V315.939z"/>
		</g>
	</g>
	<g>
		<g>
			<path fill="#BFBFC0" d="M241.481,414.491c0,9.923-8.119,18.042-18.042,18.042h-1.736c-9.923,0-18.042-8.119-18.042-18.042
				v-94.945c0-9.923,8.119-18.042,18.042-18.042h1.736c9.923,0,18.042,8.119,18.042,18.042V414.491z"/>
		</g>
		<g>
			<path fill="#BFBFC0" d="M297.661,414.491c0,9.923-8.119,18.042-18.042,18.042h-1.737c-9.923,0-18.042-8.119-18.042-18.042
				v-94.945c0-9.923,8.119-18.042,18.042-18.042h1.737c9.923,0,18.042,8.119,18.042,18.042V414.491z"/>
		</g>
		<g>
			<path fill="#BFBFC0" d="M298.145,414.262c0,10.049-8.223,18.271-18.271,18.271h-2.246c-10.049,0-18.271-8.223-18.271-18.271
				v-94.486c0-10.049,8.223-18.271,18.271-18.271h2.246c10.049,0,18.271,8.223,18.271,18.271V414.262z"/>
		</g>
	</g>
	<g>
		<circle fill="#FFFFFF" cx="250.903" cy="143.966" r="63.25"/>
	</g>
	<path fill="#BFBFC0" d="M248.766,72.264c-50.684,0-88.771,44.358-60.344,83.145l0,0c0,0-1.334-39.843,25.222-57.522
		c0,0,1.332,21.236,74.28,15.032c0,0-10.174-9.229-9.64-18.476c0,0,35.914,43.288,34.991,60.967l0,0
		C338.901,117.522,309.354,72.264,248.766,72.264z"/>
	<g>
		<circle fill="#BFBFC0" cx="226.988" cy="137.425" r="11.157"/>
		<circle fill="#BFBFC0" cx="273.914" cy="137.425" r="11.158"/>
		<path fill="#BFBFC0" d="M262.061,169.017c0,6.162-4.995,11.157-11.158,11.157c-6.162,0-11.158-4.995-11.158-11.157H262.061z"/>
	</g>
	<g>
		<path fill="#BFBFC0" d="M304.531,342.944c-0.742,8.712-8.503,15.84-17.247,15.84h-72.985c-8.744,0-16.494-7.129-17.223-15.842
			l-9.689-115.812c-0.729-8.713,5.829-15.842,14.572-15.842h97.89c8.744,0,15.29,7.128,14.548,15.84L304.531,342.944z"/>
	</g>
</g>
<g>
	<path fill="#BFBFC0" d="M241.481,414.491c0,9.923-8.119,18.042-18.042,18.042h-1.736c-9.923,0-18.042-8.119-18.042-18.042v-94.945
		c0-9.923,8.119-18.042,18.042-18.042h1.736c9.923,0,18.042,8.119,18.042,18.042V414.491z"/>
</g>
<g>
	<path fill="#BFBFC0" d="M298.145,414.262c0,10.049-8.223,18.271-18.271,18.271h-2.246c-10.049,0-18.271-8.223-18.271-18.271
		v-94.486c0-10.049,8.223-18.271,18.271-18.271h2.246c10.049,0,18.271,8.223,18.271,18.271V414.262z"/>
</g>
<g>
	<g>
		<path fill="#BFBFC0" d="M304.5,342.942c-0.726,8.712-8.474,15.842-17.217,15.842h-72.985c-8.744,0-16.507-7.128-17.252-15.839
			l-11.597-131.657h130.297L304.5,342.942z"/>
	</g>
</g>
<path fill="#BFBFC0" d="M291.427,237.927H253.62h-0.157h-37.807c-3.48,0-6.296,2.819-6.296,6.298v58.517
	c0,3.475,2.816,6.296,6.296,6.296h37.807h0.157h37.807c3.472,0,6.298-2.821,6.298-6.296v-58.517
	C297.725,240.746,294.899,237.927,291.427,237.927z"/>
<path fill="#FFFFFF" d="M250.518,305.517h37.965c3.471,0,6.297-2.821,6.297-6.297v-58.516c0-3.479-2.826-6.298-6.297-6.298h-37.965
	V305.517z"/>
<path fill="#BFBFC0" d="M285.377,257.486c0,6.916-5.607,12.519-12.516,12.519c-6.915,0-12.523-5.603-12.523-12.519
	c0-6.91,5.608-12.518,12.523-12.518C279.77,244.968,285.377,250.576,285.377,257.486z"/>
<path fill="#FFFFFF" d="M235.09,371.302c0,6.917-5.608,12.519-12.515,12.519c-6.916,0-12.524-5.602-12.524-12.519
	c0-6.909,5.608-12.518,12.524-12.518C229.482,358.784,235.09,364.393,235.09,371.302z"/>
<path fill="#FFFFFF" d="M290.571,371.302c0,6.917-5.607,12.519-12.515,12.519c-6.916,0-12.524-5.602-12.524-12.519
	c0-6.909,5.608-12.518,12.524-12.518C284.963,358.784,290.571,364.393,290.571,371.302z"/>
<path fill="#BFBFC0" d="M278.052,257.486c0,2.871-2.329,5.194-5.19,5.194c-2.868,0-5.188-2.323-5.188-5.194
	c0-2.866,2.32-5.194,5.188-5.194C275.723,252.292,278.052,254.62,278.052,257.486z"/>
<path fill="#BFBFC0" d="M278.052,287.477c0,2.874-2.329,5.198-5.19,5.198c-2.868,0-5.188-2.324-5.188-5.198
	c0-2.866,2.32-5.193,5.188-5.193C275.723,282.283,278.052,284.61,278.052,287.477z"/>
<path fill="#FFFFFF" d="M250.466,234.406h-37.964c-3.48,0-6.296,2.819-6.296,6.298v58.516c0,3.476,2.816,6.297,6.296,6.297h37.964
	V234.406z"/>
<path fill="#BFBFC0" d="M245.329,249.339c0,2.009-1.631,3.634-3.637,3.634h-25.833c-2.006,0-3.637-1.625-3.637-3.634v-3.155
	c0-2.005,1.631-3.635,3.637-3.635h25.833c2.006,0,3.637,1.629,3.637,3.635V249.339z"/>
<path fill="#BFBFC0" d="M225.017,264.883c0,2.885-2.338,5.216-5.216,5.216c-2.878,0-5.215-2.331-5.215-5.216
	c0-2.877,2.337-5.209,5.215-5.209C222.679,259.674,225.017,262.006,225.017,264.883z"/>
<circle fill="#BFBFC0" cx="219.801" cy="279.715" r="5.216"/>
<path fill="#BFBFC0" d="M251.123,70.506v-0.009c-0.072,0-0.143,0.004-0.215,0.004s-0.143-0.004-0.215-0.004v0.009
	c-42.196,0.181-76.329,26.809-76.329,59.645v81.137h78.038h75.038v-81.137C327.441,97.315,293.319,70.687,251.123,70.506z
	 M310.57,165.491H193.736v-26.333h0.053c1.107-25.959,26.905-46.727,58.588-46.727c32.387,0,58.643,21.697,58.643,48.461
	c0,2.734-0.16,5.309-0.45,7.745V165.491z"/>
<rect x="174.365" y="198.952" fill="#BFBFC0" width="153.076" height="12.336"/>
<rect x="203.66" y="387.372" fill="#FFFFFF" width="37.821" height="3.516"/>
<rect x="259.215" y="387.372" fill="#FFFFFF" width="38.93" height="3.516"/>
<g id="Sniekers_3_">
	<path fill="#BFBFC0" d="M155.701,418.622c0,0-2.184-0.459-2.12,4.254c0.024,1.761,4.714,7.221,19.726,9.184
		c23.95,3.131,63.233,2.72,72.521-0.155c0.472-0.145,1.176-0.456,1.176-0.456c0.963-1.047,1.542-5.562,0-9.425
		c0,0-0.385-0.654-1.992-0.457c-1.606,0.196-77.617-0.492-77.617-0.492L155.701,418.622z"/>
	<path fill="#BFBFC0" d="M158.786,412.469c0,0,0.877-0.371,3.513-0.567c2.73-0.202,7.272-0.234,10.108-0.567
		c3.213-0.375,5.329-1.208,5.783-1.353c0,0-0.564,2.232,0.554,3.059c1.117,0.826,4.227,4.372,3.773,5.974
		c0,0-0.086,2.226-2.485,2.052c-2.399-0.175-5.14-3.186-6.596-3.404c-1.457-0.218-8.696-1.789-8.696-1.789l-4.926-1.482
		C159.814,414.39,157.201,413.124,158.786,412.469z"/>
	<path fill="#BFBFC0" d="M204.16,394.136c-0.537,0.622-1.16,1.293-1.904,2.004c-0.216,0.204-0.442,0.41-0.679,0.622
		c-0.08,0.071-0.162,0.144-0.241,0.215c-0.963,0.841-1.975,1.607-3.089,2.346c-0.376,0.25-0.761,0.492-1.161,0.736
		c-0.933,0.567-1.947,1.131-3.065,1.712c-0.573,0.298-1.177,0.603-1.812,0.914c-0.457,0.225-0.933,0.452-1.426,0.688
		c-0.448,0.211-0.956,0.42-1.5,0.631c-0.504,0.192-1.041,0.385-1.593,0.58c-0.981,0.344-2.013,0.691-3,1.059
		c-0.421,0.152-0.833,0.314-1.231,0.479c-0.176,0.073-0.35,0.142-0.519,0.205c-1.167,0.446-2.236,0.751-3.257,1.22h-0.002
		c-0.483,0.216-0.957,0.474-1.427,0.8c0,0-1.46,2.509-0.229,4.134c1.23,1.626,1.707,1.169,6.333,0.252
		c4.626-0.917,10.152-2.75,10.152-2.75l21.395-6.085l1.778-3.154C212.682,399.821,207.477,397.597,204.16,394.136z"/>
	<ellipse fill="#BFBFC0" cx="180.375" cy="409.29" rx="1.531" ry="1.564"/>
	<ellipse fill="#BFBFC0" cx="185.275" cy="408.107" rx="1.531" ry="1.564"/>
	<ellipse fill="#BFBFC0" cx="189.987" cy="406.326" rx="1.531" ry="1.563"/>
	<ellipse fill="#BFBFC0" cx="194.772" cy="404.062" rx="1.531" ry="1.565"/>
	<ellipse fill="#BFBFC0" cx="199.008" cy="401.623" rx="1.532" ry="1.565"/>
	<ellipse fill="#BFBFC0" cx="203.266" cy="398.328" rx="1.531" ry="1.563"/>
	<path fill="#BFBFC0" d="M241.552,392.156c-4.231,3.655-8.961,7.148-14.247,8.492l6.077,7.437l12.852,2.029l0.665-1.317
		C245.097,403.117,242.255,398.01,241.552,392.156z"/>
	<path fill="#BFBFC0" d="M158.786,412.469c0,0-3.341,1.964-3.084,6.153c0.138,2.259,9.122,5.065,20.689,6.282
		c9.879,1.038,22.617,0.654,22.617,0.654s-4.546-3.827-7.195-8.08c-2.026-3.251-2.392-6.959-2.057-8.151c0,0-2.611,3.348-11.35,3.61
		c0,0,5.224,5.116,3.168,6.95c-2.055,1.832-4.107-0.294-5.912-2.008c0,0-1.16-0.852-3.599-1.439
		c-2.567-0.621-6.474-0.99-8.694-1.528C159.043,413.865,158.786,412.469,158.786,412.469z"/>
	<path fill="#BFBFC0" d="M218.707,400.911c-1.141-0.171-2.3-0.413-3.453-0.721c-0.209,1.195-0.838,2.356-2.4,2.828
		c-1.768,0.537-4.486-0.033-6.842,0.157c-2.656,0.216-4.887,1.178-5.462,1.571c-0.961,0.658-1.446,1.745-2.956,2.487
		c-1.632,0.803-4.191,0.613-5.718,1.178c-1.959,0.724-2.121,0.915-2.121,0.915s-3.469,13.352,9.252,16.231
		c13.943-1.571,24.481-1.768,24.481-1.768s2.762-6.413,0.578-12.304C222.453,407.139,221.465,404.429,218.707,400.911z"/>
	<path fill="#BFBFC0" d="M246.606,407.892c-0.922-0.012-2.585-0.306-4.614-1.901c-2.389-1.88-5.361-4.833-8.574-7.877
		c-3.268,1.856-6.776,3.1-10.543,3.115c-1.295,0.006-2.668-0.097-4.07-0.302c0.266,0.369,0.526,0.745,0.767,1.135
		c3.883,6.274,5.424,14.951,3.917,21.729c0,0,21.01-0.064,23.131-2.028c0.347-3.53,0.576-8.635,0.688-11.587
		C247.093,409.404,246.86,408.642,246.606,407.892z"/>
	<g>
		<path fill="#BFBFC0" d="M197.087,400.059v0.003l-1.138,4.311c-0.185,0.708-0.874,1.134-1.534,0.953
			c-0.664-0.18-1.05-0.9-0.861-1.609c0,0,0.227-0.97,0.467-1.945C195.14,401.189,196.154,400.626,197.087,400.059z"/>
	</g>
	<g>
		<path fill="#BFBFC0" d="M192.209,402.685l-0.956,3.879c-0.174,0.71-0.855,1.147-1.521,0.977c-0.665-0.17-1.062-0.883-0.887-1.595
			c0,0,0.211-0.966,0.438-1.941c0.545-0.211,1.052-0.42,1.5-0.631C191.277,403.137,191.752,402.909,192.209,402.685z"/>
	</g>
	<g>
		<path fill="#BFBFC0" d="M187.69,404.584l-1.218,3.78c-0.225,0.695-0.935,1.082-1.584,0.863c-0.653-0.216-1-0.957-0.773-1.653
			c0,0,0.279-0.966,0.575-1.932C185.677,405.275,186.708,404.928,187.69,404.584z"/>
	</g>
	<g>
		<path fill="#BFBFC0" d="M182.94,406.326l-1.409,3.292c-0.285,0.674-1.027,0.989-1.656,0.713c-0.627-0.281-0.906-1.05-0.619-1.72
			c0,0,0.184-0.465,0.425-1.065h0.002L182.94,406.326z"/>
	</g>
	<g>
		<path fill="#BFBFC0" d="M201.321,397.639l-1.164,4.302c-0.189,0.706-0.881,1.127-1.542,0.944c-0.66-0.185-1.044-0.907-0.851-1.614
			c0,0,0.233-0.972,0.483-1.948c1.114-0.738,2.126-1.505,3.089-2.346C201.384,397.186,201.383,397.414,201.321,397.639z"/>
	</g>
	<g>
		<path fill="#BFBFC0" d="M204.16,394.136c-0.537,0.622-1.16,1.293-1.904,2.004c-0.121,0.934-0.223,1.811-0.223,1.811
			c-0.105,0.725,0.36,1.396,1.04,1.498c0.674,0.102,1.31-0.404,1.414-1.129l0.491-3.381
			C204.693,394.68,204.423,394.41,204.16,394.136z"/>
	</g>
</g>
<g id="Sniekers_2_">
	<path fill="#BFBFC0" d="M345.428,418.622c0,0,2.184-0.459,2.119,4.254c-0.023,1.761-4.713,7.221-19.725,9.184
		c-23.95,3.131-63.233,2.72-72.521-0.155c-0.472-0.145-1.177-0.456-1.177-0.456c-0.963-1.047-1.543-5.562,0-9.425
		c0,0,0.386-0.654,1.992-0.457c1.606,0.196,77.617-0.492,77.617-0.492L345.428,418.622z"/>
	<path fill="#BFBFC0" d="M342.343,412.469c0,0-0.877-0.371-3.513-0.567c-2.73-0.202-7.272-0.234-10.107-0.567
		c-3.213-0.375-5.329-1.208-5.783-1.353c0,0,0.563,2.232-0.555,3.059c-1.116,0.826-4.227,4.372-3.772,5.974
		c0,0,0.086,2.226,2.484,2.052c2.399-0.175,5.14-3.186,6.597-3.404c1.456-0.218,8.695-1.789,8.695-1.789l4.926-1.482
		C341.315,414.39,343.928,413.124,342.343,412.469z"/>
	<path fill="#BFBFC0" d="M296.968,394.136c0.537,0.622,1.16,1.293,1.904,2.004c0.217,0.204,0.443,0.41,0.68,0.622
		c0.079,0.071,0.161,0.144,0.24,0.215c0.963,0.841,1.976,1.607,3.09,2.346c0.375,0.25,0.761,0.492,1.16,0.736
		c0.933,0.567,1.947,1.131,3.065,1.712c0.572,0.298,1.177,0.603,1.812,0.914c0.457,0.225,0.933,0.452,1.426,0.688
		c0.448,0.211,0.956,0.42,1.501,0.631c0.505,0.192,1.041,0.385,1.593,0.58c0.982,0.344,2.014,0.691,3,1.059
		c0.422,0.152,0.833,0.314,1.231,0.479c0.176,0.073,0.35,0.142,0.52,0.205c1.167,0.446,2.235,0.751,3.256,1.22h0.003
		c0.483,0.216,0.956,0.474,1.426,0.8c0,0,1.461,2.509,0.229,4.134c-1.229,1.626-1.706,1.169-6.332,0.252s-10.152-2.75-10.152-2.75
		l-21.396-6.085l-1.777-3.154C288.447,399.821,293.652,397.597,296.968,394.136z"/>
	<ellipse fill="#BFBFC0" cx="320.754" cy="409.29" rx="1.531" ry="1.564"/>
	<ellipse fill="#BFBFC0" cx="315.854" cy="408.107" rx="1.531" ry="1.564"/>
	<ellipse fill="#BFBFC0" cx="311.142" cy="406.326" rx="1.531" ry="1.563"/>
	<ellipse fill="#BFBFC0" cx="306.358" cy="404.062" rx="1.531" ry="1.565"/>
	<ellipse fill="#BFBFC0" cx="302.121" cy="401.623" rx="1.532" ry="1.565"/>
	<ellipse fill="#BFBFC0" cx="297.864" cy="398.328" rx="1.531" ry="1.563"/>
	<path fill="#BFBFC0" d="M259.577,392.156c4.231,3.655,8.961,7.148,14.246,8.492l-6.076,7.437l-12.852,2.029l-0.665-1.317
		C256.032,403.117,258.873,398.01,259.577,392.156z"/>
	<path fill="#BFBFC0" d="M342.343,412.469c0,0,3.341,1.964,3.085,6.153c-0.138,2.259-9.122,5.065-20.689,6.282
		c-9.88,1.038-22.617,0.654-22.617,0.654s4.547-3.827,7.195-8.08c2.026-3.251,2.392-6.959,2.058-8.151c0,0,2.61,3.348,11.349,3.61
		c0,0-5.224,5.116-3.168,6.95c2.056,1.832,4.107-0.294,5.912-2.008c0,0,1.159-0.852,3.599-1.439c2.567-0.621,6.475-0.99,8.694-1.528
		C342.086,413.865,342.343,412.469,342.343,412.469z"/>
	<path fill="#BFBFC0" d="M282.421,400.911c1.142-0.171,2.3-0.413,3.453-0.721c0.209,1.195,0.838,2.356,2.4,2.828
		c1.768,0.537,4.485-0.033,6.842,0.157c2.655,0.216,4.888,1.178,5.463,1.571c0.96,0.658,1.445,1.745,2.956,2.487
		c1.632,0.803,4.19,0.613,5.717,1.178c1.96,0.724,2.122,0.915,2.122,0.915s3.469,13.352-9.253,16.231
		c-13.942-1.571-24.481-1.768-24.481-1.768s-2.762-6.413-0.578-12.304C278.675,407.139,279.663,404.429,282.421,400.911z"/>
	<path fill="#BFBFC0" d="M254.523,407.892c0.922-0.012,2.586-0.306,4.614-1.901c2.389-1.88,5.36-4.833,8.574-7.877
		c3.268,1.856,6.775,3.1,10.543,3.115c1.296,0.006,2.668-0.097,4.07-0.302c-0.267,0.369-0.525,0.745-0.768,1.135
		c-3.882,6.274-5.424,14.951-3.917,21.729c0,0-21.01-0.064-23.13-2.028c-0.347-3.53-0.576-8.635-0.689-11.587
		C254.036,409.404,254.269,408.642,254.523,407.892z"/>
	<g>
		<path fill="#BFBFC0" d="M304.042,400.059v0.003l1.138,4.311c0.185,0.708,0.874,1.134,1.534,0.953c0.663-0.18,1.049-0.9,0.86-1.609
			c0,0-0.227-0.97-0.467-1.945C305.99,401.189,304.975,400.626,304.042,400.059z"/>
	</g>
	<g>
		<path fill="#BFBFC0" d="M308.919,402.685l0.956,3.879c0.175,0.71,0.855,1.147,1.521,0.977c0.665-0.17,1.062-0.883,0.887-1.595
			c0,0-0.211-0.966-0.438-1.941c-0.545-0.211-1.053-0.42-1.501-0.631C309.852,403.137,309.376,402.909,308.919,402.685z"/>
	</g>
	<g>
		<path fill="#BFBFC0" d="M313.439,404.584l1.219,3.78c0.224,0.695,0.934,1.082,1.583,0.863c0.653-0.216,1-0.957,0.773-1.653
			c0,0-0.278-0.966-0.575-1.932C315.452,405.275,314.421,404.928,313.439,404.584z"/>
	</g>
	<g>
		<path fill="#BFBFC0" d="M318.19,406.326l1.409,3.292c0.284,0.674,1.026,0.989,1.656,0.713c0.627-0.281,0.906-1.05,0.618-1.72
			c0,0-0.184-0.465-0.425-1.065h-0.003L318.19,406.326z"/>
	</g>
	<g>
		<path fill="#BFBFC0" d="M299.809,397.639l1.164,4.302c0.189,0.706,0.881,1.127,1.541,0.944c0.66-0.185,1.045-0.907,0.851-1.614
			c0,0-0.232-0.972-0.482-1.948c-1.114-0.738-2.127-1.505-3.09-2.346C299.745,397.186,299.746,397.414,299.809,397.639z"/>
	</g>
	<g>
		<path fill="#BFBFC0" d="M296.968,394.136c0.537,0.622,1.16,1.293,1.904,2.004c0.121,0.934,0.224,1.811,0.224,1.811
			c0.105,0.725-0.36,1.396-1.039,1.498c-0.674,0.102-1.311-0.404-1.414-1.129l-0.491-3.381
			C296.437,394.68,296.706,394.41,296.968,394.136z"/>
	</g>
</g>
<g>
	<g>
		<path fill="#BFBFC0" d="M181.872,315.939c0,8.842-7.234,16.075-16.075,16.075h-0.435c-8.841,0-16.075-7.233-16.075-16.075v-88.577
			c0-8.841,7.234-16.075,16.075-16.075h0.435c8.841,0,16.075,7.234,16.075,16.075V315.939z"/>
	</g>
</g>
<g>
	<g>
		<path fill="#BFBFC0" d="M352.518,315.939c0,8.842-7.233,16.075-16.075,16.075h-0.435c-8.842,0-16.075-7.233-16.075-16.075v-88.577
			c0-8.841,7.233-16.075,16.075-16.075h0.435c8.842,0,16.075,7.234,16.075,16.075V315.939z"/>
	</g>
</g>
<path fill="#BFBFC0" d="M184.335,305.02c0,11.104-37.507,11.104-37.507,0v-75.964c0-11.104,7.251-20.188,16.114-20.188h5.277
	c8.864,0,16.115,9.084,16.115,20.188V305.02z"/>
<path fill="#BFBFC0" d="M354.563,305.02c0,11.104-37.508,11.104-37.508,0v-75.964c0-11.104,7.252-20.188,16.114-20.188h5.277
	c8.863,0,16.116,9.084,16.116,20.188V305.02z"/>
<path fill="#FFFFFF" d="M146.828,300.555v4.466c0,11.104,37.507,11.104,37.507,0v-4.466
	C184.335,311.658,146.828,311.658,146.828,300.555z"/>
<path fill="#FFFFFF" d="M317.055,300.555v4.466c0,11.104,37.507,11.104,37.507,0v-4.466
	C354.562,311.658,317.055,311.658,317.055,300.555z"/>
<g>
	<path fill="#BFBFC0" d="M146.885,237.448c10.844,0,19.627,8.79,19.627,19.634c0,10.839-8.783,19.631-19.627,19.631V237.448z"/>
	<path fill="#BFBFC0" d="M354.836,279.306c-10.835,0-19.626-8.792-19.626-19.631c0-10.844,8.791-19.633,19.626-19.633V279.306z"/>
</g>
</svg>
