<?xml version="1.0" encoding="utf-8"?>
<!-- Generator: Adobe Illustrator 16.0.1, SVG Export Plug-In . SVG Version: 6.00 Build 0)  -->
<!DOCTYPE svg PUBLIC "-//W3C//DTD SVG 1.1//EN" "http://www.w3.org/Graphics/SVG/1.1/DTD/svg11.dtd">
<svg version="1.1" id="content" xmlns="http://www.w3.org/2000/svg" xmlns:xlink="http://www.w3.org/1999/xlink" x="0px" y="0px"
	 width="500px" height="500px" viewBox="0 0 500 500" enable-background="new 0 0 500 500" xml:space="preserve">
<g id="bounds" display="none">
	<rect x="0" display="inline" fill="none" stroke="#000000" stroke-miterlimit="10" width="500" height="500"/>
</g>
<g>
	<g>
		<g>
			<path fill="#BFBFC0" d="M180.194,304.592c0,9.828-8.041,17.868-17.868,17.868h-0.484c-9.827,0-17.868-8.04-17.868-17.868v-98.456
				c0-9.827,8.041-17.868,17.868-17.868h0.484c9.827,0,17.868,8.041,17.868,17.868V304.592z"/>
		</g>
	</g>
	<g>
		<g>
			<path fill="#BFBFC0" d="M369.871,304.592c0,9.828-8.041,17.868-17.868,17.868h-0.482c-9.827,0-17.868-8.04-17.868-17.868v-98.456
				c0-9.827,8.041-17.868,17.868-17.868h0.482c9.827,0,17.868,8.041,17.868,17.868V304.592z"/>
		</g>
	</g>
	<g>
		<circle fill="#BFBFC0" cx="256.923" cy="113.437" r="70.305"/>
	</g>
	<path fill="#9C9D9D" d="M254.547,33.738c-56.336,0-98.672,49.305-67.073,92.419l0,0c0,0-1.483-44.287,28.034-63.939
		c0,0,1.481,23.604,82.566,16.708c0,0-11.309-10.259-10.715-20.537c0,0,39.918,48.115,38.895,67.767l0,0
		C354.737,84.044,321.893,33.738,254.547,33.738z"/>
	<g>
		<circle fill="#FFFFFF" cx="230.341" cy="106.167" r="12.402"/>
		<circle fill="#FFFFFF" cx="282.5" cy="106.167" r="12.402"/>
		<path fill="#FFFFFF" d="M269.326,141.282c0,6.849-5.553,12.401-12.402,12.401s-12.403-5.552-12.403-12.401H269.326z"/>
	</g>
	<g>
		<path fill="#9C9D9D" d="M316.533,334.609c-0.825,9.684-9.452,17.606-19.171,17.606h-81.127c-9.719,0-18.333-7.924-19.144-17.609
			l-10.77-128.729c-0.81-9.685,6.479-17.609,16.197-17.609h108.807c9.719,0,16.996,7.923,16.171,17.607L316.533,334.609z"/>
	</g>
</g>
<g>
	<path fill="#9C9D9D" d="M226.395,322.461h-1.929c-11.03,0-20.056,9.024-20.056,20.054v71.619h42.041V387.9v-3.909v-41.478
		C246.451,331.485,237.426,322.461,226.395,322.461z"/>
	<path fill="#9C9D9D" d="M289.123,322.46h-2.494c-11.171,0-20.311,9.14-20.311,20.311v41.222h-0.156v3.908h0.156v25.979h43.115
		V387.9v-3.908v-41.222C309.434,331.6,300.295,322.46,289.123,322.46z"/>
</g>
<g>
	<path fill="#9C9D9D" d="M226.395,322.461h-1.929c-11.03,0-20.056,9.024-20.056,20.054v71.619h42.041V387.9v-3.909v-41.478
		C246.451,331.485,237.426,322.461,226.395,322.461z"/>
	<path fill="#9C9D9D" d="M289.123,322.46h-2.494c-11.171,0-20.311,9.14-20.311,20.311v41.222h-0.156v3.908h0.156v25.979h43.115
		V387.9v-3.908v-41.222C309.434,331.6,300.295,322.46,289.123,322.46z"/>
</g>
<g>
	<path fill="#9C9D9D" d="M316.533,334.609c-0.825,9.684-9.452,17.606-19.171,17.606h-81.127c-9.719,0-18.333-7.924-19.144-17.609
		l-10.77-128.729c-0.81-9.685,6.479-17.609,16.197-17.609h108.807c9.719,0,16.996,7.923,16.171,17.607L316.533,334.609z"/>
</g>
<g>
	<polygon fill="#9C9D9D" points="263.326,256.225 246.985,256.225 206.406,188.268 307.287,188.268 	"/>
</g>
<path fill="#9C9D9D" d="M182.93,284.496c0,12.342-41.69,12.342-41.69,0v-76.479c0-12.342,8.061-22.44,17.913-22.44h5.865
	c9.853,0,17.913,10.098,17.913,22.44V284.496z"/>
<path fill="#9C9D9D" d="M372.608,284.496c0,12.342-41.69,12.342-41.69,0v-76.479c0-12.342,8.061-22.44,17.912-22.44h5.864
	c9.854,0,17.914,10.098,17.914,22.44V284.496z"/>
<path fill="#9C9D9D" d="M32.116,511.671"/>
<g id="avatar_1_">
	<g>
		<g display="none">
			<g display="inline">
				<path fill="#9C9D9D" d="M180.193,304.592c0,9.827-8.04,17.868-17.867,17.868h-0.483c-9.828,0-17.869-8.044-17.869-17.868
					v-98.456c0-9.828,8.041-17.868,17.869-17.868h0.483c9.827,0,17.867,8.041,17.867,17.868V304.592z"/>
			</g>
		</g>
		<g display="none">
			<g display="inline">
				<path fill="#9C9D9D" d="M369.871,304.592c0,9.827-8.04,17.868-17.867,17.868h-0.482c-9.828,0-17.865-8.044-17.865-17.868
					v-98.456c0-9.828,8.039-17.868,17.865-17.868h0.482c9.828,0,17.867,8.041,17.867,17.868V304.592L369.871,304.592z"/>
			</g>
		</g>
		<g display="none">
			<g display="inline">
				<path fill="#9C9D9D" d="M204.41,414.135v-71.621c0-11.029,9.025-20.054,20.056-20.054h1.929c11.03,0,20.056,9.024,20.056,20.054
					v71.621H204.41z"/>
			</g>
			<g display="inline">
				<path fill="#9C9D9D" d="M266.319,413.88v-71.111c0-11.17,9.14-20.309,20.311-20.309h2.494c11.172,0,20.311,9.139,20.311,20.309
					v71.111H266.319z"/>
			</g>
		</g>
		<path fill="#9C9D9D" d="M246.451,414.135c0,11.03-9.025,20.056-20.056,20.056h-1.929c-11.03,0-20.056-9.025-20.056-20.056H246.451
			z"/>
		<path fill="#9C9D9D" d="M309.434,413.88c0,11.17-9.139,20.311-20.311,20.311h-2.494c-11.171,0-20.311-9.141-20.311-20.311H309.434
			z"/>
		<g display="none">
			<circle display="inline" fill="#9C9D9D" cx="256.924" cy="113.437" r="70.305"/>
		</g>
		<g display="none">
			<circle display="inline" fill="#9C9D9D" cx="230.341" cy="106.167" r="12.402"/>
			<circle display="inline" fill="#9C9D9D" cx="282.501" cy="106.167" r="12.402"/>
			<path display="inline" fill="#9C9D9D" d="M269.326,141.282c0,6.849-5.554,12.401-12.402,12.401
				c-6.85,0-12.404-5.553-12.404-12.401H269.326z"/>
		</g>
		<g display="none">
			<path display="inline" fill="#9C9D9D" d="M316.531,334.608c-0.824,9.685-9.451,17.607-19.17,17.607h-81.125
				c-9.72,0-18.334-7.924-19.144-17.609l-10.77-128.729c-0.81-9.685,6.478-17.609,16.197-17.609h108.808
				c9.72,0,16.996,7.923,16.171,17.606L316.531,334.608z"/>
		</g>
	</g>
</g>
<g>
	<path fill="#9C9D9D" d="M151.287,415.294c1.467-3.392,26.635-2.136,28.221-2.737c1.586-0.603,2.651-1.122,2.651-1.122l1.312-0.835
		c0,0,23.023-12.411,24.134-12.411c1.11,0,15.571,13.314,29.786,9.704c8.72-2.216,6.341-4.061,7.77-3.912
		c1.426,0.151,2.724-2.75,4.469-1.547c1.745,1.203,2.479,21.638,2.479,21.638l-39.775,0.215l-30.766,1.354l-29.972-6.016
		c0,0-0.792-1.504,0.159-2.106C152.706,416.919,150.873,416.25,151.287,415.294z"/>
	<g>
		<path fill="#BFBFC0" d="M250.03,403.622c-0.969,0.541-11.93,7.164-20.128,8.774c-8.2,1.611-25.512-8.699-27.696-9.545
			c-2.187-0.84-1.15-3.653-1.15-3.653s1.882-2.372,3.196-2.61c1.313-0.239,18.835,11.192,24.268,10.553
			c5.428-0.641,14.604-6.514,16.698-7.77c2.098-1.252,3.879,1.717,3.879,1.717S250.998,403.079,250.03,403.622z"/>
	</g>
	<path fill="#9C9D9D" d="M199.347,407.184c0.141-1.149-0.71-2.248-1.898-2.456c-1.189-0.206-2.265,0.559-2.404,1.709
		c-0.139,1.15,0.711,2.249,1.899,2.456C198.132,409.097,199.208,408.333,199.347,407.184z"/>
	<path fill="#9C9D9D" d="M198.355,407.011c0.075-0.619-0.383-1.213-1.022-1.322c-0.641-0.111-1.22,0.301-1.294,0.92
		c-0.075,0.619,0.381,1.211,1.022,1.322C197.701,408.041,198.281,407.63,198.355,407.011z"/>
	<path fill="#9C9D9D" d="M197.964,403.736c-0.36-0.729-0.9-1.216-1.203-1.087l-3.059,1.298c-0.305,0.13-0.259,0.825,0.103,1.556l0,0
		c0.36,0.729,2.746,2.025,3.049,1.896l1.049-0.745C198.206,406.523,198.326,404.468,197.964,403.736L197.964,403.736z"/>
	<path fill="#9C9D9D" d="M204.382,405.17c0.139-1.148-0.712-2.248-1.899-2.454c-1.188-0.207-2.265,0.559-2.404,1.708
		c-0.139,1.148,0.711,2.249,1.901,2.454C203.165,407.085,204.242,406.32,204.382,405.17z"/>
	<path fill="#9C9D9D" d="M203.389,404.998c0.074-0.619-0.384-1.21-1.024-1.321c-0.639-0.11-1.22,0.3-1.294,0.92
		c-0.075,0.617,0.383,1.212,1.024,1.321C202.734,406.029,203.314,405.616,203.389,404.998z"/>
	<path fill="#9C9D9D" d="M202.998,401.724c-0.361-0.729-0.901-1.215-1.205-1.087l-3.059,1.297c-0.304,0.129-0.258,0.827,0.104,1.557
		l0,0c0.36,0.729,2.746,2.024,3.05,1.895l1.047-0.745C203.24,404.512,203.359,402.452,202.998,401.724L202.998,401.724z"/>
	<path fill="#9C9D9D" d="M194.344,409.421c0.142-1.147-0.709-2.247-1.898-2.453c-1.188-0.207-2.264,0.558-2.403,1.706
		c-0.139,1.149,0.711,2.249,1.9,2.454C193.131,411.334,194.206,410.57,194.344,409.421z"/>
	<path fill="#9C9D9D" d="M193.352,409.249c0.075-0.62-0.383-1.212-1.023-1.321c-0.64-0.112-1.22,0.301-1.294,0.92
		c-0.075,0.618,0.383,1.211,1.023,1.319C192.698,410.279,193.278,409.867,193.352,409.249z"/>
	<path fill="#9C9D9D" d="M192.962,405.973c-0.36-0.729-0.9-1.215-1.204-1.086l-3.06,1.299c-0.303,0.127-0.257,0.824,0.104,1.554l0,0
		c0.36,0.731,2.747,2.025,3.049,1.897l1.048-0.744C193.204,408.761,193.323,406.704,192.962,405.973L192.962,405.973z"/>
	<path fill="#9C9D9D" d="M151.287,415.294c-0.161,1.092-2.072,11.098,0.478,12.735c2.549,1.637,16.414,6.549,30.437,6.912
		c14.024,0.364,51.951,0,51.951,0s13.705-0.182,16.095-1.091c2.39-0.91,2.394-10.487,2.394-10.487s0.319-1.134-1.115-1.861
		c-1.434-0.73-51.953,1.979-66.137,1.796C171.206,423.117,151.446,414.204,151.287,415.294z"/>
	<path fill="#9C9D9D" d="M151.206,416.25c0,0,16.129,7.008,28.944,8.279c12.815,1.274,72.434-0.075,72.434-0.075l-0.11,1.798
		c0,0-59.943,1.553-71.988,0.396c-12.047-1.155-29.613-9.05-29.613-9.05L151.206,416.25z"/>
</g>
<g>
	<path fill="#9C9D9D" d="M361.693,415.202c-3.616-0.758-26.194-2.042-27.78-2.645c-1.586-0.602-2.649-1.122-2.649-1.122
		l-1.313-0.835c0,0-23.023-12.411-24.134-12.411s-15.571,13.314-29.787,9.704c-8.72-2.216-6.342-4.061-7.77-3.913
		c-1.427,0.152-2.725-2.749-4.47-1.546c-1.744,1.203-1.412,5.402-1.73,7.207c-0.316,1.806-1.224,14.173-1.224,14.173l40.253,0.472
		l30.766,1.354l29.971-6.017c0,0,0.793-1.504-0.158-2.106C360.713,416.919,362.134,415.294,361.693,415.202z"/>
	<g>
		<path fill="#BFBFC0" d="M263.391,403.622c0.97,0.541,11.93,7.164,20.128,8.774c8.2,1.611,25.513-8.699,27.696-9.545
			c2.186-0.84,1.15-3.653,1.15-3.653s-1.883-2.372-3.196-2.61c-1.313-0.239-18.835,11.192-24.269,10.553
			c-5.428-0.641-14.602-6.514-16.697-7.77c-2.099-1.252-3.881,1.717-3.881,1.717S262.421,403.079,263.391,403.622z"/>
	</g>
	<path fill="#9C9D9D" d="M314.073,407.184c-0.141-1.149,0.711-2.248,1.898-2.456c1.188-0.206,2.266,0.559,2.404,1.709
		s-0.711,2.249-1.9,2.456C315.285,409.097,314.211,408.333,314.073,407.184z"/>
	<path fill="#9C9D9D" d="M315.066,407.011c-0.075-0.619,0.382-1.213,1.022-1.322c0.639-0.111,1.219,0.301,1.293,0.92
		c0.076,0.619-0.382,1.211-1.021,1.322C315.719,408.041,315.14,407.63,315.066,407.011z"/>
	<path fill="#9C9D9D" d="M315.455,403.736c0.361-0.729,0.902-1.216,1.205-1.087l3.059,1.298c0.305,0.13,0.258,0.825-0.102,1.556l0,0
		c-0.361,0.729-2.747,2.025-3.05,1.896l-1.05-0.745C315.213,406.523,315.094,404.468,315.455,403.736L315.455,403.736z"/>
	<path fill="#9C9D9D" d="M309.037,405.17c-0.139-1.148,0.713-2.248,1.9-2.454c1.188-0.207,2.266,0.559,2.404,1.708
		c0.139,1.148-0.711,2.249-1.9,2.454C310.254,407.085,309.178,406.32,309.037,405.17z"/>
	<path fill="#9C9D9D" d="M310.031,404.998c-0.074-0.619,0.385-1.21,1.022-1.321c0.64-0.11,1.219,0.3,1.295,0.92
		c0.075,0.617-0.384,1.212-1.024,1.321C310.687,406.028,310.108,405.616,310.031,404.998z"/>
	<path fill="#9C9D9D" d="M310.422,401.724c0.36-0.729,0.902-1.215,1.203-1.087l3.061,1.297c0.305,0.129,0.256,0.827-0.104,1.557l0,0
		c-0.361,0.729-2.746,2.024-3.05,1.895l-1.048-0.745C310.18,404.512,310.061,402.452,310.422,401.724L310.422,401.724z"/>
	<path fill="#9C9D9D" d="M319.075,409.421c-0.141-1.147,0.71-2.247,1.899-2.453c1.188-0.207,2.264,0.558,2.402,1.706
		c0.14,1.149-0.711,2.249-1.898,2.454C320.29,411.334,319.215,410.57,319.075,409.421z"/>
	<path fill="#9C9D9D" d="M320.068,409.249c-0.075-0.62,0.384-1.212,1.022-1.321c0.641-0.112,1.221,0.301,1.295,0.92
		c0.074,0.618-0.383,1.211-1.023,1.319C320.721,410.279,320.141,409.867,320.068,409.249z"/>
	<path fill="#9C9D9D" d="M320.459,405.973c0.357-0.729,0.898-1.215,1.203-1.086l3.059,1.299c0.303,0.127,0.258,0.824-0.104,1.554
		l0,0c-0.359,0.731-2.745,2.025-3.049,1.897l-1.048-0.744C320.215,408.761,320.097,406.704,320.459,405.973L320.459,405.973z"/>
	<path fill="#9C9D9D" d="M362.134,415.294c0.158,1.092,2.069,11.098-0.479,12.735c-2.549,1.637-16.414,6.549-30.437,6.912
		c-14.024,0.364-51.95,0-51.95,0s-13.705-0.182-16.095-1.091c-2.39-0.91-2.395-10.487-2.395-10.487s-0.319-1.134,1.114-1.861
		c1.435-0.73,51.953,1.979,66.137,1.796C342.214,423.117,361.974,414.204,362.134,415.294z"/>
	<path fill="#9C9D9D" d="M362.213,416.25c0,0-16.129,7.008-28.943,8.279c-12.815,1.274-72.435-0.075-72.435-0.075l0.112,1.798
		c0,0,59.943,1.553,71.987,0.396c12.048-1.155,29.613-9.05,29.613-9.05L362.213,416.25z"/>
</g>
<polygon fill="#BFBFC0" points="316.224,339.352 197.197,339.352 198.533,351.91 315.156,352.444 "/>
<polygon fill="#9C9D9D" points="244.984,204.488 226.922,223.195 221.553,188.511 227.399,189.201 "/>
<polygon fill="#9C9D9D" points="267.971,204.132 285.528,223.195 290.896,188.511 285.674,190.234 "/>
<g>
	<defs>
		<rect id="SVGID_1_" x="201.354" y="188.563" width="108.08" height="89.048"/>
	</defs>
	<use xlink:href="#SVGID_1_"  overflow="visible" fill="#9C9D9D"/>
	<clipPath id="SVGID_2_">
		<use xlink:href="#SVGID_1_"  overflow="visible"/>
	</clipPath>
	<g clip-path="url(#SVGID_2_)">
		<path fill="#BFBFC0" d="M256.153,264.219c-5.084,0-11.891-3.024-33.903-39.172c-10.98-18.031-20.797-36.3-20.896-36.483
			l10.958-5.879c19.974,37.226,37.571,63.418,43.844,68.542c6.292-5.117,23.984-31.313,44.096-68.557l10.943,5.909
			c-0.1,0.182-9.979,18.451-21.021,36.481C268.042,261.195,261.233,264.219,256.153,264.219z"/>
		<path fill="#9C9D9D" d="M256.153,259.778c-2.065,0-7.553,0-30.11-37.042c-10.918-17.928-20.677-36.091-20.774-36.273l3.13-1.68
			c0.098,0.181,9.817,18.27,20.686,36.116c20.476,33.622,26.141,35.325,27.068,35.325c0.93,0,6.604-1.703,27.203-35.34
			c10.93-17.846,20.707-35.924,20.805-36.104l3.127,1.688c-0.099,0.181-9.922,18.344-20.901,36.273
			C263.703,259.778,258.218,259.778,256.153,259.778z"/>
	</g>
</g>
<polygon fill="#9C9D9D" points="315.604,347.602 198.188,347.602 197.722,344.065 315.837,344.065 "/>
<polygon fill="#9C9D9D" points="267.971,204.132 291.74,219.765 291.74,188.501 286.735,188.361 "/>
<polygon fill="#9C9D9D" points="244.984,204.488 221.724,220.465 221.553,188.511 227.496,188.511 "/>
<g>
	<circle fill="#9C9D9D" cx="366.299" cy="322.461" r="16.61"/>
	<circle fill="#BFBFC0" cx="361.719" cy="319.058" r="3.404"/>
	<path fill="none" stroke="#BFBFC0" stroke-miterlimit="10" stroke-dasharray="2" d="M380.317,313.554
		c-3.91,22.092-25.33,21.065-25.33,21.065"/>
	<path fill="none" stroke="#BFBFC0" stroke-miterlimit="10" stroke-dasharray="2" d="M379.187,312.425
		c-3.911,22.09-25.331,21.063-25.331,21.063"/>
</g>
<polygon fill="#BFBFC0" points="226.922,188.035 244.984,204.488 256.504,237.955 267.971,204.132 286.967,188.128 "/>
</svg>
