<?xml version="1.0" encoding="utf-8"?>
<!-- Generator: Adobe Illustrator 16.0.1, SVG Export Plug-In . SVG Version: 6.00 Build 0)  -->
<!DOCTYPE svg PUBLIC "-//W3C//DTD SVG 1.1//EN" "http://www.w3.org/Graphics/SVG/1.1/DTD/svg11.dtd">
<svg version="1.1" id="content" xmlns="http://www.w3.org/2000/svg" xmlns:xlink="http://www.w3.org/1999/xlink" x="0px" y="0px"
	 width="500px" height="500px" viewBox="0 0 500 500" enable-background="new 0 0 500 500" xml:space="preserve">
<g id="bounds">
	<rect x="0" y="0" fill="none" width="500" height="500"/>
</g>
<g>
	<path fill="#9C9D9D" d="M226.052,340.04h-1.931c-11.036,0-20.065,9.029-20.065,20.063v71.655h42.061V405.51v-3.91v-41.498
		C246.117,349.069,237.088,340.04,226.052,340.04z"/>
	<path fill="#9C9D9D" d="M288.812,340.038h-2.496c-11.176,0-20.319,9.146-20.319,20.322v71.144h43.137V360.36
		C309.133,349.183,299.989,340.038,288.812,340.038z"/>
</g>
<g>
	<path fill="#BFBFC0" d="M226.052,340.04h-1.931c-11.036,0-20.065,9.029-20.065,20.063v16.191h42.061v-16.192
		C246.117,349.069,237.088,340.04,226.052,340.04z"/>
	<path fill="#BFBFC0" d="M288.812,340.038h-2.496c-11.176,0-20.319,9.146-20.319,20.322v15.68h43.137v-15.68
		C309.133,349.183,299.989,340.038,288.812,340.038z"/>
</g>
<path fill="#BFBFC0" d="M183.974,205.78l12.897,146.414c0.829,9.688,9.462,17.614,19.186,17.614h81.167
	c9.725,0,18.34-7.929,19.146-17.617l12.506-146.411H183.974z"/>
<path fill="#9C9D9D" d="M328.875,205.78H183.326l4.626,42.875c0,0,11.541-32.122,35.042-32.122s36.601,0.056,63.867,0.056
	s38.094,33.926,38.094,33.926"/>
<rect x="138.495" y="274.022" fill="#BFBFC0" width="47.822" height="10.042"/>
<path fill="#BFBFC0" d="M183.326,302.382c0,12.348-41.711,12.348-41.711,0v-76.843c0-12.348,8.064-22.451,17.921-22.451h5.869
	c9.857,0,17.922,10.103,17.922,22.451V302.382z"/>
<path fill="#BFBFC0" d="M186.318,273.547c0,12.348-47.848,12.348-47.848,0v39.898c0,12.349,47.848,12.349,47.848,0V273.547z"/>
<g>
	<g>
		<path fill="#9C9D9D" d="M107.33,68.363c-2.217,1.625-1.76,7.6,0.792,16.216l11.03,12.606l-5.824,1.791
			c3.51,8.47,8.137,18.053,13.607,27.921c15.87,28.632,32.822,48.844,37.863,45.149c5.041-3.697-3.737-29.903-19.606-58.536
			C129.323,84.88,112.371,64.665,107.33,68.363z"/>
	</g>
	<g>
		<path fill="#9C9D9D" d="M145.192,113.511c-15.87-28.632-32.821-48.846-37.862-45.148l57.468,103.684
			C169.839,168.35,161.062,142.144,145.192,113.511z"/>
	</g>
	<g>
		<path fill="#BFBFC0" d="M361.666,175.014c3.043,7.073-2.928,15.023-13.491,17.197c-58.46,12.062-119.937,12.064-178.398,0
			c-10.567-2.174-16.541-10.124-13.492-17.197l0,0c3.047-7.089,12.982-10.878,22.32-8.963c52.676,10.869,108.064,10.869,160.741,0
			C348.682,164.136,358.614,167.925,361.666,175.014L361.666,175.014z"/>
	</g>
	<g>
		<path fill="#9C9D9D" d="M360.752,169.085c3.045,7.074-2.927,15.023-13.491,17.196c-58.46,12.063-119.935,12.064-178.396,0
			c-10.568-2.173-16.542-10.122-13.493-17.196l0,0c3.048-7.089,12.982-10.878,22.319-8.963c52.675,10.869,108.063,10.869,160.743,0
			C347.768,158.207,357.699,161.996,360.752,169.085L360.752,169.085z"/>
	</g>
	<g>
		<path fill="#BFBFC0" d="M338.435,160.122c-52.68,10.869-108.068,10.869-160.743,0c-9.337-1.916-19.271,1.874-22.319,8.963
			c-0.173,0.398-0.307,0.801-0.423,1.206c1.361,4.916,6.499,9.288,13.916,10.814c58.461,12.064,119.936,12.063,178.396,0
			c7.417-1.526,12.552-5.899,13.912-10.816c-0.116-0.403-0.249-0.806-0.421-1.204C357.699,161.996,347.768,158.207,338.435,160.122z
			"/>
	</g>
	<g>
		<ellipse fill="#BFBFC0" cx="257.783" cy="19.601" rx="62.503" ry="4.822"/>
	</g>
	<g>
		<path fill="#BFBFC0" d="M320.004,19.602H195.561l-13.454,127.991c0,4.84,33.881,8.765,75.676,8.765
			c41.794,0,75.675-3.924,75.675-8.765L320.004,19.602z"/>
	</g>
	<g>
		<path fill="#BFBFC0" d="M258.063,19.602v136.754c41.666-0.016,75.396-3.934,75.396-8.763L320.004,19.602H258.063z"/>
	</g>
	<g>
		<path fill="#BFBFC0" d="M327.294,44.147c0,1.939-2.005,3.509-4.482,3.509h-131.73c-2.477,0-4.485-1.57-4.485-3.509l0,0
			c0-1.936,2.008-3.505,4.485-3.505h131.73C325.289,40.641,327.294,42.211,327.294,44.147L327.294,44.147z"/>
	</g>
	<g>
		<path fill="#9C9D9D" d="M322.457,44.147H190.726c-1.527,0-2.812,0.636-3.621,1.548c0.737,1.151,2.22,1.96,3.976,1.96h131.73
			c1.529,0,2.814-0.636,3.622-1.548C325.695,44.957,324.215,44.147,322.457,44.147z"/>
	</g>
	<g>
		<path fill="#9C9D9D" d="M343.04,155.019c1.499,3.54-1.537,7.512-6.833,8.7c-51.064,11.445-105.221,11.445-156.286,0
			c-5.301-1.187-8.338-5.16-6.833-8.7c1.433-3.45,2.866-6.899,4.301-10.351c1.504-3.543,6.468-5.447,11.129-4.404
			c45.447,10.185,93.645,10.185,139.091-0.001c4.661-1.041,9.624,0.863,11.126,4.406C340.17,148.12,341.604,151.569,343.04,155.019z
			"/>
	</g>
	<g>
		<path fill="#BFBFC0" d="M328.377,143.748c-45.445,10.186-93.644,10.186-139.09,0.003c-4.66-1.043-9.625,0.86-11.129,4.402
			c-1.434,3.453-2.867,6.903-4.3,10.352c-0.157,0.367-0.234,0.74-0.295,1.111c1.14,1.867,3.369,3.433,6.359,4.103
			c51.064,11.445,105.221,11.445,156.286,0c4.108-0.921,6.83-3.52,7.151-6.293c-1.284-3.088-2.569-6.18-3.854-9.272
			C338.002,144.611,333.038,142.708,328.377,143.748z"/>
	</g>
	<g>
		<path fill="#BFBFC0" d="M338.435,160.122c-52.68,10.869-108.068,10.869-160.743,0c-3.722-0.764-7.519-0.589-10.954,0.308
			c-0.247,0.545-0.492,1.088-0.738,1.63c-0.172,0.367-0.255,0.74-0.323,1.111c1.246,1.866,3.675,3.433,6.937,4.101
			c55.684,11.445,114.742,11.445,170.428,0c4.479-0.919,7.446-3.519,7.797-6.292c-0.017-0.039-0.037-0.079-0.054-0.116
			C347,159.608,342.67,159.253,338.435,160.122z"/>
	</g>
	<g>
		<path fill="#9C9D9D" d="M343.04,155.019c-0.33-0.793-0.662-1.586-0.99-2.379c-0.731,2.437-3.277,4.612-6.959,5.438
			c-51.062,11.443-105.222,11.443-156.286,0c-2.47-0.553-4.418-1.723-5.673-3.16c-0.015,0.035-0.028,0.066-0.043,0.101
			c-1.505,3.54,1.532,7.513,6.833,8.7c51.064,11.445,105.221,11.445,156.286,0C341.503,162.531,344.539,158.559,343.04,155.019z"/>
	</g>
	<g>
		<path fill="#9C9D9D" d="M258.976,169.679c0,0.633-0.533,1.145-1.192,1.145l0,0c-0.659,0-1.191-0.512-1.191-1.145v-15.775
			c0-0.632,0.532-1.145,1.191-1.145l0,0c0.659,0,1.192,0.512,1.192,1.145V169.679z"/>
	</g>
	<g>
		<ellipse fill="#BFBFC0" cx="256.591" cy="54.715" rx="5.323" ry="5.176"/>
	</g>
	<g>
		<ellipse fill="#BFBFC0" cx="256.591" cy="34.014" rx="5.323" ry="5.174"/>
	</g>
	<g>
		<ellipse fill="#BFBFC0" cx="256.591" cy="76.238" rx="5.323" ry="5.175"/>
	</g>
	<g>
		<ellipse fill="#BFBFC0" cx="256.591" cy="97.486" rx="5.323" ry="5.175"/>
	</g>
	<g>
		<ellipse fill="#BFBFC0" cx="256.591" cy="118.734" rx="5.323" ry="5.174"/>
	</g>
	<g>
		<path fill="#BFBFC0" d="M251.268,139.981c0-2.858,2.384-5.176,5.324-5.176c2.939,0,5.322,2.318,5.322,5.176"/>
	</g>
	<g>
		<path fill="#9C9D9D" d="M262.27,52.944c0,2.859-2.384,5.176-5.324,5.176c-2.939,0-5.324-2.317-5.324-5.176
			c0-2.855,2.385-5.175,5.324-5.175C259.886,47.768,262.27,50.089,262.27,52.944z"/>
	</g>
	<g>
		<ellipse fill="#9C9D9D" cx="256.946" cy="32.243" rx="5.324" ry="5.174"/>
	</g>
	<g>
		<path fill="#9C9D9D" d="M262.27,74.466c0,2.858-2.384,5.177-5.324,5.177c-2.939,0-5.324-2.318-5.324-5.177
			c0-2.856,2.385-5.173,5.324-5.173C259.886,69.293,262.27,71.61,262.27,74.466z"/>
	</g>
	<g>
		<ellipse fill="#9C9D9D" cx="256.946" cy="95.717" rx="5.324" ry="5.173"/>
	</g>
	<g>
		<ellipse fill="#BFBFC0" cx="256.946" cy="116.963" rx="5.324" ry="5.176"/>
	</g>
	<g>
		<path fill="#9C9D9D" d="M277.403,168.503c0.08,0.629-0.378,1.183-1.03,1.239l0,0c-0.652,0.053-1.255-0.414-1.34-1.041
			l-2.139-15.688c-0.079-0.627,0.376-1.181,1.029-1.235l0,0c0.656-0.057,1.255,0.411,1.341,1.037L277.403,168.503z"/>
	</g>
	<g>
		<path fill="#9C9D9D" d="M295.32,166.977c0.146,0.62-0.258,1.202-0.9,1.297l0,0c-0.645,0.092-1.29-0.335-1.44-0.956l-3.695-15.512
			c-0.145-0.616,0.256-1.198,0.904-1.294l0,0c0.646-0.095,1.292,0.334,1.437,0.955L295.32,166.977z"/>
	</g>
	<g>
		<path fill="#9C9D9D" d="M312.668,164.184c0.201,0.61-0.146,1.214-0.774,1.346l0,0c-0.636,0.133-1.322-0.256-1.529-0.867
			l-5.191-15.245c-0.205-0.609,0.139-1.213,0.774-1.346l0,0c0.636-0.133,1.32,0.257,1.525,0.867L312.668,164.184z"/>
	</g>
	<g>
		<path fill="#9C9D9D" d="M327.189,161.233c0.235,0.603-0.083,1.219-0.705,1.372l0,0c-0.626,0.152-1.331-0.214-1.573-0.817
			l-5.993-15.065c-0.237-0.601,0.077-1.215,0.703-1.368l0,0c0.63-0.153,1.333,0.213,1.572,0.815L327.189,161.233z"/>
	</g>
	<g>
		<path fill="#9C9D9D" d="M238.164,168.503c-0.083,0.629,0.377,1.183,1.028,1.239l0,0c0.653,0.053,1.254-0.414,1.339-1.041
			l2.139-15.688c0.082-0.627-0.375-1.181-1.028-1.235l0,0c-0.657-0.057-1.253,0.411-1.34,1.037L238.164,168.503z"/>
	</g>
	<g>
		<path fill="#9C9D9D" d="M220.244,166.977c-0.145,0.62,0.259,1.202,0.902,1.297l0,0c0.644,0.092,1.292-0.335,1.439-0.956
			l3.695-15.512c0.144-0.616-0.256-1.198-0.904-1.294l0,0c-0.646-0.095-1.29,0.334-1.438,0.955L220.244,166.977z"/>
	</g>
	<g>
		<path fill="#9C9D9D" d="M202.899,164.184c-0.204,0.61,0.144,1.214,0.774,1.346l0,0c0.635,0.133,1.321-0.256,1.528-0.867
			l5.192-15.245c0.204-0.609-0.141-1.213-0.775-1.346l0,0c-0.637-0.133-1.32,0.257-1.527,0.867L202.899,164.184z"/>
	</g>
	<g>
		<path fill="#9C9D9D" d="M188.378,161.233c-0.237,0.603,0.083,1.219,0.702,1.372l0,0c0.628,0.152,1.334-0.214,1.575-0.817
			l5.993-15.065c0.237-0.601-0.078-1.215-0.703-1.368l0,0c-0.63-0.153-1.333,0.213-1.573,0.815L188.378,161.233z"/>
	</g>
	<g>
		<ellipse fill="#BFBFC0" cx="256.948" cy="115.739" rx="2.242" ry="2.181"/>
	</g>
</g>
<g>
	<path fill="#BFBFC0" d="M194.577,451.824c0-16.511,13.386-29.895,29.896-29.895c16.511,0,29.896,13.384,29.896,29.895H194.577z"/>
</g>
<g>
	<path fill="#BFBFC0" d="M257.73,451.824c0-16.511,13.386-29.895,29.896-29.895c16.511,0,29.897,13.384,29.897,29.895H257.73z"/>
</g>
<g>
	<path fill="#9C9D9D" d="M253.606,443.178h-29.732c-0.237,0-0.462,0.104-0.677,0.252c-0.211-0.148-0.433-0.252-0.667-0.252H193.19
		c-1.249,0-2.262,2.288-2.262,5.108l0,0c0,2.819,1.013,5.107,2.262,5.107h29.339c0.234,0,0.456-0.104,0.667-0.251
		c0.215,0.147,0.439,0.251,0.677,0.251h29.732c1.265,0,2.29-2.288,2.29-5.107l0,0C255.896,445.467,254.87,443.178,253.606,443.178z"
		/>
</g>
<g>
	<path fill="#9C9D9D" d="M319.102,443.178h-29.732c-0.237,0-0.461,0.104-0.677,0.252c-0.211-0.148-0.433-0.252-0.667-0.252h-29.34
		c-1.248,0-2.261,2.288-2.261,5.108l0,0c0,2.819,1.013,5.107,2.261,5.107h29.34c0.234,0,0.456-0.104,0.667-0.251
		c0.216,0.147,0.439,0.251,0.677,0.251h29.732c1.265,0,2.291-2.288,2.291-5.107l0,0
		C321.393,445.467,320.366,443.178,319.102,443.178z"/>
</g>
<g>
	<ellipse fill="#BFBFC0" cx="210.804" cy="433.755" rx="5.106" ry="3.12"/>
</g>
<g>
	<ellipse fill="#BFBFC0" cx="274.831" cy="433.755" rx="5.106" ry="3.12"/>
</g>
<g>
	<path fill="#9C9D9D" d="M206.652,400.021h36.661c0.192,0,0.375-0.032,0.551-0.081v-8.229c-0.176-0.048-0.359-0.081-0.551-0.081
		h-36.661V400.021z"/>
</g>
<g>
	<path fill="#BFBFC0" d="M246.117,395.348c0,1.113-0.929,2.015-2.075,2.015h-37.895c-1.146,0-2.075-0.901-2.075-2.015v-4.362
		c0-1.113,0.929-2.014,2.075-2.014h37.895c1.146,0,2.075,0.9,2.075,2.014V395.348z"/>
</g>
<g>
	<path fill="#9C9D9D" d="M269.117,400.021h36.662c0.192,0,0.375-0.032,0.551-0.081v-8.229c-0.176-0.048-0.358-0.081-0.551-0.081
		h-36.662V400.021z"/>
</g>
<g>
	<path fill="#BFBFC0" d="M308.584,395.348c0,1.113-0.929,2.015-2.076,2.015h-37.895c-1.146,0-2.075-0.901-2.075-2.015v-4.362
		c0-1.113,0.93-2.014,2.075-2.014h37.895c1.147,0,2.076,0.9,2.076,2.014V395.348z"/>
</g>
<rect x="161.295" y="282.779" fill="#BFBFC0" width="2.792" height="39.928"/>
<g>
	<g>
		<polygon fill="#BFBFC0" points="241.778,238.844 241.781,238.85 241.784,238.854 		"/>
	</g>
	<g>
		<polygon fill="#BFBFC0" points="228.585,250.515 228.592,250.519 228.597,250.521 		"/>
	</g>
	<g>
		<polygon fill="#BFBFC0" points="222.995,267.219 222.999,267.219 223.01,267.219 		"/>
	</g>
	<g>
		<polygon fill="#BFBFC0" points="226.508,284.48 226.51,284.48 226.519,284.473 		"/>
	</g>
	<g>
		<path fill="#BFBFC0" d="M238.179,297.675l0.001-0.002c0.001-0.006,0.004-0.009,0.005-0.013L238.179,297.675z"/>
	</g>
	<g>
		<path fill="#9C9D9D" d="M295.905,270.725c1.666-0.329,3.268-0.872,4.776-1.549c-1.616,0.369-3.25,0.58-4.873,0.577
			c-1.62,0.003-3.247-0.171-4.897-0.331l0.16,0.014c-3.354-0.899-6.62-2.155-10.234-3.014c-1.809-0.424-3.714-0.728-5.69-0.777
			c-0.982-0.022-1.977,0.015-2.974,0.118c-0.178-0.776-0.415-1.53-0.704-2.254c0.18-0.221,0.362-0.441,0.556-0.65
			c0.512-0.562,1.069-1.093,1.665-1.592c1.19-1.001,2.557-1.88,4.032-2.668c2.956-1.574,6.316-2.826,9.534-4.41l0.159-0.078
			l-0.013,0.011c1.345-0.968,2.73-1.939,4.001-3.062c1.277-1.118,2.394-2.388,3.363-3.728c-1.218,1.128-2.528,2.127-3.935,2.936
			c-1.402,0.814-2.897,1.478-4.406,2.163l0.146-0.068c-3.354,0.897-6.809,1.442-10.37,2.509c-1.777,0.535-3.579,1.227-5.316,2.173
			c-0.865,0.469-1.71,1.001-2.521,1.59c-0.538-0.576-1.117-1.112-1.733-1.599c0.046-0.281,0.093-0.565,0.156-0.846
			c0.162-0.743,0.379-1.479,0.646-2.211c0.532-1.461,1.274-2.905,2.158-4.324c1.772-2.843,4.058-5.608,6.052-8.588l0.099-0.145
			l-0.004,0.014c0.68-1.511,1.394-3.045,1.932-4.652c0.549-1.607,0.879-3.266,1.048-4.91c-0.489,1.586-1.123,3.106-1.939,4.511
			c-0.805,1.404-1.77,2.727-2.732,4.074l0.091-0.132c-2.456,2.455-5.177,4.655-7.728,7.359c-1.27,1.353-2.486,2.852-3.516,4.536
			c-0.512,0.837-0.975,1.716-1.381,2.626c-0.746-0.229-1.52-0.385-2.307-0.498c-0.102-0.269-0.203-0.542-0.29-0.816
			c-0.229-0.726-0.411-1.472-0.547-2.237c-0.27-1.533-0.347-3.151-0.289-4.823c0.112-3.348,0.705-6.886,0.948-10.465l0.012-0.167
			c-0.166-1.645-0.315-3.329-0.651-4.99c-0.33-1.664-0.869-3.264-1.546-4.776c0.369,1.619,0.577,3.253,0.576,4.876
			c0.002,1.623-0.172,3.246-0.331,4.897l0.014-0.161c-0.9,3.355-2.155,6.621-3.015,10.238c-0.424,1.806-0.729,3.711-0.776,5.688
			c-0.024,0.981,0.014,1.979,0.118,2.972c-0.776,0.181-1.529,0.414-2.258,0.706c-0.218-0.181-0.438-0.364-0.649-0.556
			c-0.559-0.514-1.091-1.067-1.591-1.665c-1.001-1.191-1.877-2.555-2.664-4.031c-1.577-2.957-2.831-6.318-4.412-9.536l-0.074-0.151
			c-0.965-1.342-1.936-2.726-3.057-3.997c-1.118-1.276-2.387-2.392-3.728-3.363c1.128,1.217,2.126,2.528,2.936,3.934
			c0.815,1.403,1.475,2.896,2.162,4.406l-0.069-0.145c0.899,3.356,1.443,6.811,2.508,10.371c0.537,1.778,1.227,3.581,2.173,5.315
			c0.47,0.865,1.001,1.71,1.591,2.521c-0.576,0.538-1.112,1.116-1.602,1.736c-0.28-0.048-0.564-0.096-0.844-0.158
			c-0.742-0.164-1.48-0.378-2.211-0.646c-1.463-0.532-2.903-1.273-4.323-2.16c-2.842-1.771-5.609-4.055-8.588-6.052l-0.139-0.094
			c-1.508-0.68-3.04-1.393-4.646-1.932c-1.606-0.547-3.263-0.879-4.91-1.049c1.586,0.49,3.106,1.125,4.511,1.939
			c1.406,0.808,2.725,1.771,4.074,2.735l-0.131-0.093c2.456,2.458,4.656,5.177,7.358,7.729c1.354,1.27,2.852,2.485,4.539,3.516
			c0.834,0.51,1.713,0.973,2.624,1.379c-0.227,0.746-0.385,1.52-0.499,2.311c-0.268,0.1-0.541,0.2-0.816,0.286
			c-0.725,0.231-1.47,0.411-2.237,0.547c-1.534,0.271-3.151,0.35-4.823,0.292c-3.349-0.114-6.886-0.708-10.464-0.947l-0.172-0.014
			c-1.644,0.166-3.325,0.314-4.984,0.65c-1.666,0.33-3.266,0.87-4.777,1.547c1.619-0.369,3.253-0.578,4.876-0.575
			c1.621-0.004,3.246,0.171,4.896,0.33l-0.16-0.013c3.355,0.9,6.62,2.153,10.236,3.014c1.808,0.424,3.713,0.728,5.689,0.775
			c0.981,0.024,1.978-0.015,2.973-0.118c0.18,0.776,0.413,1.529,0.704,2.257c-0.179,0.219-0.362,0.439-0.556,0.649
			c-0.512,0.562-1.067,1.092-1.665,1.592c-1.192,1.002-2.555,1.878-4.031,2.665c-2.957,1.575-6.317,2.83-9.536,4.411l-0.156,0.077
			c-1.34,0.965-2.722,1.933-3.991,3.052c-1.278,1.119-2.393,2.389-3.363,3.73c1.217-1.128,2.527-2.127,3.934-2.938
			c1.402-0.814,2.896-1.475,4.405-2.161l-0.144,0.068c3.354-0.897,6.81-1.445,10.371-2.509c1.778-0.537,3.58-1.227,5.315-2.173
			c0.863-0.471,1.708-1.002,2.52-1.592c0.539,0.576,1.116,1.112,1.734,1.602c-0.046,0.28-0.094,0.563-0.157,0.845
			c-0.163,0.742-0.378,1.478-0.645,2.211c-0.533,1.462-1.274,2.902-2.159,4.322c-1.773,2.844-4.057,5.609-6.053,8.588l-0.097,0.146
			c-0.678,1.505-1.391,3.035-1.93,4.638c-0.547,1.606-0.878,3.266-1.048,4.912c0.49-1.588,1.125-3.105,1.939-4.512
			c0.807-1.406,1.77-2.726,2.735-4.074l-0.092,0.131c2.457-2.455,5.176-4.655,7.728-7.359c1.271-1.352,2.487-2.85,3.517-4.536
			c0.51-0.837,0.972-1.713,1.379-2.625c0.75,0.228,1.521,0.396,2.312,0.51c0.099,0.265,0.199,0.532,0.284,0.805
			c0.229,0.725,0.412,1.471,0.546,2.237c0.271,1.533,0.349,3.151,0.292,4.823c-0.113,3.35-0.709,6.886-0.947,10.465l-0.012,0.175
			l-0.001-0.014c0.165,1.648,0.314,3.333,0.648,4.996c0.33,1.663,0.872,3.264,1.549,4.776c-0.368-1.618-0.578-3.254-0.576-4.876
			c-0.004-1.621,0.171-3.245,0.331-4.896l-0.014,0.161c0.9-3.354,2.155-6.622,3.013-10.237c0.425-1.807,0.729-3.713,0.776-5.688
			c0.024-0.984-0.013-1.984-0.118-2.982c0.773-0.183,1.531-0.407,2.256-0.696c0.22,0.178,0.441,0.362,0.65,0.557
			c0.563,0.512,1.093,1.067,1.592,1.663c1.001,1.193,1.88,2.557,2.666,4.031c1.575,2.959,2.827,6.317,4.411,9.537l0.079,0.158
			l-0.011-0.013c0.969,1.345,1.941,2.729,3.061,4.001c1.119,1.276,2.389,2.394,3.729,3.364c-1.128-1.218-2.128-2.529-2.936-3.937
			c-0.814-1.4-1.476-2.895-2.161-4.404l0.066,0.146c-0.896-3.355-1.442-6.812-2.508-10.372c-0.538-1.776-1.228-3.579-2.173-5.314
			c-0.47-0.863-1.002-1.71-1.592-2.522c0.577-0.538,1.112-1.115,1.601-1.733c0.28,0.046,0.564,0.094,0.844,0.156
			c0.744,0.165,1.481,0.379,2.21,0.646c1.465,0.533,2.908,1.273,4.326,2.16c2.844,1.775,5.607,4.055,8.587,6.053l0.149,0.099
			l-0.017-0.006c1.511,0.679,3.046,1.395,4.652,1.933c1.605,0.549,3.264,0.879,4.91,1.049c-1.586-0.489-3.105-1.124-4.51-1.939
			c-1.404-0.805-2.727-1.771-4.077-2.734l0.133,0.093c-2.454-2.457-4.654-5.178-7.356-7.729c-1.354-1.27-2.853-2.485-4.541-3.517
			c-0.834-0.511-1.71-0.973-2.622-1.381c0.227-0.746,0.382-1.519,0.496-2.307c0.27-0.101,0.542-0.201,0.815-0.287
			c0.728-0.231,1.473-0.411,2.239-0.547c1.532-0.269,3.152-0.35,4.825-0.293c3.349,0.115,6.883,0.711,10.463,0.948l0.176,0.011
			l-0.016,0.003C292.559,271.209,294.243,271.06,295.905,270.725z"/>
	</g>
</g>
<g>
	<circle fill="#BFBFC0" cx="256.961" cy="269.297" r="12.262"/>
</g>
<g>
	<g>
		<g>
			<path fill="#9C9D9D" d="M152.536,328.68c2.716-1.335,6-0.216,7.336,2.501l21.603,43.938c1.335,2.716,0.216,6-2.5,7.335l0,0
				c-2.715,1.336-6.001,0.217-7.335-2.5l-21.603-43.938C148.7,333.301,149.82,330.015,152.536,328.68L152.536,328.68z"/>
		</g>
		<g>
			<path fill="#9C9D9D" d="M150.036,336.016l21.603,43.938c1.096,2.232,3.511,3.383,5.843,2.982
				c1.742-1.603,2.305-4.218,1.209-6.449l-21.605-43.938c-1.096-2.232-3.51-3.382-5.843-2.981
				C149.501,331.172,148.938,333.785,150.036,336.016z"/>
		</g>
		<g>
			<polygon fill="#9C9D9D" points="180.814,373.775 185.287,377.293 188.239,388.877 183.321,391.295 178.402,393.713 
				171.032,384.302 170.977,378.611 175.896,376.193 			"/>
		</g>
		<g>
			<polygon fill="#9C9D9D" points="178.402,393.713 183.321,391.295 188.239,388.877 185.287,377.293 171.032,384.302 			"/>
		</g>
		<g>
			<polygon fill="#9C9D9D" points="180.536,392.664 182.45,391.722 175.078,382.313 173.166,383.253 			"/>
		</g>
	</g>
	<g>
		<polygon fill="#9C9D9D" points="89.451,190.512 71.676,168.151 78.528,195.883 144.317,335.272 151.989,331.501 159.661,327.728 
					"/>
	</g>
	<g>
		<polygon fill="#9C9D9D" points="71.676,168.151 71.718,168.328 151.954,331.517 151.989,331.501 159.661,327.728 89.451,190.512 
					"/>
	</g>
	<g>
		<path fill="#9C9D9D" d="M168.146,318.261c2.442-1.2,5.393-0.194,6.593,2.246l0,0c1.2,2.44,0.194,5.393-2.246,6.594l-34.879,17.148
			c-2.441,1.2-5.393,0.194-6.592-2.246l0,0c-1.201-2.441-0.195-5.394,2.245-6.594L168.146,318.261z"/>
	</g>
	<g>
		<path fill="#9C9D9D" d="M147.189,323.991c4.068-2,8.989-0.323,10.988,3.745l1.449,2.946c2,4.069,0.323,8.988-3.744,10.988
			l-0.673,0.33c-4.068,2-8.988,0.324-10.988-3.744l-1.448-2.947c-2.001-4.067-0.326-8.986,3.745-10.988L147.189,323.991z"/>
	</g>
	<g>
		<path fill="#9C9D9D" d="M129.668,329.405c2.668-1.312,5.896-0.212,7.209,2.457l2.854,5.803c1.312,2.669,0.212,5.897-2.458,7.21
			l0,0c-2.668,1.312-5.896,0.212-7.209-2.456l-2.853-5.802C125.897,333.947,126.997,330.719,129.668,329.405L129.668,329.405z"/>
	</g>
	<g>
		<path fill="#9C9D9D" d="M131.67,331.622c2.035-1,4.494-0.162,5.495,1.871l2.174,4.421c0.999,2.035,0.163,4.493-1.872,5.493l0,0
			c-2.035,1-4.495,0.162-5.495-1.871l-2.173-4.422C128.798,335.082,129.636,332.622,131.67,331.622L131.67,331.622z"/>
	</g>
	<g>
		<path fill="#9C9D9D" d="M165.452,311.81c2.849-1.4,6.294-0.227,7.695,2.623l2.351,4.783c1.402,2.849,0.229,6.294-2.621,7.695l0,0
			c-2.849,1.4-6.295,0.228-7.696-2.623l-2.351-4.781C161.428,316.657,162.604,313.212,165.452,311.81L165.452,311.81z"/>
	</g>
	<g>
		<path fill="#9C9D9D" d="M154.188,342.412l-8.62-17.532c-0.99,0.663-1.796,1.514-2.396,2.483l7.588,15.431
			C151.891,342.91,153.059,342.792,154.188,342.412z"/>
	</g>
	<g>
		<path fill="#9C9D9D" d="M166.358,313.651c2.033-0.998,4.493-0.161,5.493,1.873l2.174,4.421c1,2.034,0.163,4.493-1.873,5.492l0,0
			c-2.033,1.002-4.493,0.164-5.493-1.87l-2.174-4.421C163.485,317.112,164.324,314.652,166.358,313.651L166.358,313.651z"/>
	</g>
</g>
<g>
	<path fill="#9C9D9D" d="M171.933,239.304c-6.198,10.197-15.96,9.978-21.692-0.487l-12.291-22.434
		c-5.732-10.467-0.662-18.811,11.268-18.543l25.574,0.575c11.93,0.269,16.621,8.832,10.423,19.03L171.933,239.304z"/>
</g>
<g>
	<path fill="#9C9D9D" d="M171.042,241.806c-5.655,9.303-14.561,9.103-19.79-0.444l-11.214-20.467
		c-5.229-9.55-0.604-17.162,10.281-16.918l23.332,0.524c10.884,0.245,15.165,8.058,9.509,17.361L171.042,241.806z"/>
</g>
<rect x="328.267" y="274.022" fill="#BFBFC0" width="47.823" height="10.042"/>
<path fill="#BFBFC0" d="M373.099,302.382c0,12.348-41.712,12.348-41.712,0v-76.843c0-12.348,8.064-22.451,17.922-22.451h5.868
	c9.857,0,17.922,10.103,17.922,22.451V302.382z"/>
<path fill="#BFBFC0" d="M376.09,273.547c0,12.348-47.848,12.348-47.848,0v39.898c0,12.349,47.848,12.349,47.848,0V273.547z"/>
<rect x="351.067" y="282.779" fill="#BFBFC0" width="2.793" height="39.928"/>
<g>
	<path fill="#9C9D9D" d="M361.706,239.304c-6.198,10.197-15.96,9.978-21.692-0.487l-12.291-22.434
		c-5.732-10.467-0.662-18.811,11.269-18.543l25.573,0.575c11.93,0.269,16.622,8.832,10.424,19.03L361.706,239.304z"/>
</g>
<g>
	<path fill="#9C9D9D" d="M360.815,241.806c-5.654,9.303-14.561,9.103-19.79-0.444l-11.214-20.467
		c-5.229-9.55-0.604-17.162,10.28-16.918l23.333,0.524c10.884,0.245,15.164,8.058,9.51,17.361L360.815,241.806z"/>
</g>
<g>
	<g>
		<polygon fill="#9C9D9D" points="316.368,351.342 199.687,324.763 198.191,331.659 314.306,360.277 		"/>
	</g>
	<g>
		<circle fill="#BFBFC0" cx="252.92" cy="340.908" r="1.957"/>
	</g>
	<g>
		<circle fill="#BFBFC0" cx="261.289" cy="342.846" r="1.957"/>
	</g>
	<g>
		<circle fill="#BFBFC0" cx="244.338" cy="338.871" r="1.957"/>
	</g>
	<g>
		<circle fill="#BFBFC0" cx="236.85" cy="337.093" r="1.957"/>
	</g>
	<g>
		<circle fill="#BFBFC0" cx="229.363" cy="335.316" r="1.957"/>
	</g>
	<g>
		<circle fill="#BFBFC0" cx="221.875" cy="333.538" r="1.957"/>
	</g>
	<g>
		<circle fill="#BFBFC0" cx="214.388" cy="331.76" r="1.957"/>
	</g>
	<g>
		<g>
			<path fill="#BFBFC0" d="M278.5,340.8l-7.291-1.729c-2.941-0.698-5.885,1.041-6.73,3.905c-0.533,2.939,1.314,5.816,4.257,6.515
				l7.292,1.729c2.941,0.699,5.885-1.039,6.73-3.905C283.291,344.376,281.443,341.498,278.5,340.8z M280.559,347.032
				c-0.387,1.624-2.427,2.532-4.558,2.026l-6.274-1.49c-2.132-0.505-3.546-2.232-3.161-3.857c0.018-0.073,0.055-0.138,0.079-0.205
				c0.009-0.073,0.005-0.147,0.021-0.221c0.387-1.623,2.427-2.531,4.558-2.025l6.274,1.489c2.132,0.506,3.547,2.233,3.161,3.858
				c-0.018,0.073-0.055,0.137-0.079,0.206C280.572,346.885,280.576,346.959,280.559,347.032z"/>
		</g>
		<g>
			<g>
				<path fill="#BFBFC0" d="M268.046,343.666c-0.117,0.497-0.617,0.806-1.115,0.688l-4.928-1.171
					c-0.499-0.118-0.807-0.618-0.688-1.114l0,0c0.117-0.501,0.617-0.809,1.116-0.689l4.928,1.17
					C267.858,342.666,268.165,343.166,268.046,343.666L268.046,343.666z"/>
			</g>
			<g>
				<path fill="#BFBFC0" d="M267.359,342.549l-4.928-1.17c-0.33-0.079-0.651,0.043-0.87,0.269c0.094,0.304,0.326,0.556,0.656,0.635
					l4.928,1.17c0.33,0.078,0.651-0.043,0.871-0.271C267.922,342.879,267.689,342.627,267.359,342.549z"/>
			</g>
		</g>
	</g>
</g>
<g>
	<g>
		<polygon fill="#9C9D9D" points="318.52,324.074 194.615,324.074 194.773,332.219 318.676,332.219 		"/>
	</g>
	<g>
		<circle fill="#BFBFC0" cx="250.159" cy="328.577" r="1.957"/>
	</g>
	<g>
		<circle fill="#BFBFC0" cx="241.338" cy="328.577" r="1.957"/>
	</g>
	<g>
		<circle fill="#BFBFC0" cx="233.642" cy="328.577" r="1.957"/>
	</g>
	<g>
		<circle fill="#BFBFC0" cx="225.947" cy="328.577" r="1.957"/>
	</g>
	<g>
		<circle fill="#BFBFC0" cx="218.251" cy="328.577" r="1.957"/>
	</g>
	<g>
		<circle fill="#BFBFC0" cx="210.556" cy="328.577" r="1.957"/>
	</g>
	<g>
		<path fill="#BFBFC0" d="M259.778,323.374h-7.493c-3.024,0-5.486,2.372-5.646,5.355c0.161,2.984,2.623,5.354,5.646,5.354h7.493
			c3.023,0,5.486-2.37,5.648-5.354C265.264,325.746,262.801,323.374,259.778,323.374z M263.22,328.962
			c0,1.67-1.776,3.023-3.967,3.023h-6.449c-2.189,0-3.965-1.354-3.965-3.023c0-0.075,0.021-0.146,0.029-0.218
			c-0.008-0.073-0.029-0.144-0.029-0.219c0-1.67,1.776-3.024,3.965-3.024h6.449c2.19,0,3.967,1.354,3.967,3.024
			c0,0.075-0.022,0.146-0.029,0.219C263.198,328.816,263.22,328.886,263.22,328.962z"/>
	</g>
	<g>
		<path fill="#BFBFC0" d="M250.269,328.577c0,0.511-0.415,0.925-0.928,0.925h-5.065c-0.512,0-0.927-0.414-0.927-0.925l0,0
			c0-0.514,0.415-0.929,0.927-0.929h5.065C249.854,327.648,250.269,328.063,250.269,328.577L250.269,328.577z"/>
	</g>
	<g>
		<path fill="#BFBFC0" d="M249.342,327.648h-5.065c-0.339,0-0.624,0.191-0.785,0.463c0.162,0.272,0.446,0.466,0.785,0.466h5.065
			c0.34,0,0.624-0.193,0.786-0.466C249.966,327.84,249.681,327.648,249.342,327.648z"/>
	</g>
</g>
<g>
	<g>
		<g>
			<path fill="#9C9D9D" d="M363.468,401.748c-0.489,0-0.93-0.215-1.231-0.558c-0.309,0.348-0.768,0.554-1.264,0.555l-0.835-0.022
				c-0.501-0.015-0.945-0.253-1.236-0.617c-0.323,0.332-0.781,0.53-1.284,0.49c-0.282-0.019-0.562-0.04-0.843-0.064
				c-0.499-0.04-0.927-0.299-1.198-0.677c-0.341,0.316-0.815,0.486-1.31,0.427c-0.279-0.031-0.559-0.067-0.838-0.104
				c-0.496-0.065-0.909-0.347-1.161-0.735c-0.355,0.298-0.832,0.446-1.33,0.36c-0.275-0.046-0.553-0.095-0.828-0.145
				c-0.494-0.091-0.894-0.393-1.129-0.796c-0.368,0.283-0.857,0.405-1.346,0.295c-0.274-0.061-0.549-0.123-0.821-0.187
				c-0.487-0.115-0.872-0.437-1.084-0.849c-0.385,0.262-0.875,0.361-1.359,0.227c-0.271-0.075-0.543-0.149-0.814-0.229
				c-0.479-0.14-0.848-0.479-1.038-0.902c-0.396,0.243-0.893,0.316-1.368,0.159c-0.27-0.089-0.539-0.178-0.807-0.271
				c-0.474-0.165-0.823-0.523-0.992-0.956c-0.409,0.224-0.91,0.273-1.379,0.092c-0.265-0.102-0.529-0.205-0.792-0.31
				c-0.465-0.189-0.797-0.564-0.942-1.004c-0.42,0.199-0.924,0.226-1.383,0.021c-0.256-0.114-0.513-0.23-0.77-0.348
				c-0.456-0.209-0.771-0.604-0.896-1.053c-0.43,0.182-0.935,0.179-1.384-0.049l-0.744-0.384c-0.446-0.23-0.742-0.639-0.845-1.095
				c-0.438,0.158-0.939,0.134-1.375-0.114c-0.246-0.14-0.489-0.283-0.733-0.426c-0.433-0.255-0.703-0.676-0.784-1.133
				c-0.443,0.136-0.944,0.086-1.368-0.186c-0.236-0.15-0.47-0.303-0.705-0.457c-0.421-0.273-0.675-0.71-0.73-1.173
				c-0.449,0.116-0.947,0.038-1.354-0.251c-0.229-0.165-0.457-0.327-0.686-0.493c-0.405-0.295-0.636-0.741-0.669-1.206
				c-0.456,0.092-0.948-0.009-1.341-0.32c-0.221-0.172-0.441-0.348-0.658-0.523c-0.39-0.315-0.599-0.772-0.61-1.237
				c-0.461,0.064-0.945-0.058-1.324-0.387c-0.209-0.185-0.422-0.371-0.63-0.556c-0.373-0.337-0.558-0.801-0.546-1.267
				c-0.474,0.047-0.943-0.102-1.304-0.45c-0.202-0.195-0.402-0.391-0.603-0.589c-0.356-0.35-0.519-0.824-0.482-1.289
				c-0.479,0.029-0.936-0.148-1.278-0.512c-0.192-0.205-0.383-0.41-0.574-0.62c-0.338-0.368-0.476-0.85-0.42-1.309
				c-0.464,0-0.926-0.198-1.251-0.58c-0.181-0.212-0.36-0.426-0.538-0.641c-0.32-0.386-0.437-0.874-0.356-1.33
				c-0.463-0.023-0.914-0.243-1.22-0.639c-0.171-0.222-0.34-0.444-0.508-0.668c-0.302-0.401-0.392-0.894-0.289-1.348
				c-0.462-0.045-0.902-0.287-1.187-0.699c-0.16-0.229-0.317-0.457-0.473-0.688c-0.28-0.417-0.347-0.913-0.223-1.361
				c-0.459-0.068-0.885-0.33-1.15-0.755c-0.146-0.236-0.293-0.475-0.438-0.714c-0.261-0.427-0.302-0.928-0.156-1.368
				c-0.454-0.092-0.866-0.376-1.11-0.811c-0.135-0.245-0.27-0.49-0.402-0.736c-0.237-0.439-0.253-0.94-0.087-1.373
				c-0.449-0.114-0.848-0.419-1.068-0.865c-0.123-0.251-0.243-0.5-0.363-0.753c-0.216-0.45-0.208-0.949-0.021-1.374
				c-0.442-0.137-0.824-0.46-1.022-0.918c-0.111-0.257-0.221-0.514-0.328-0.771c-0.192-0.46-0.158-0.961,0.051-1.372
				c-0.436-0.159-0.8-0.498-0.975-0.966c-0.099-0.265-0.196-0.527-0.293-0.795c-0.167-0.471-0.107-0.968,0.124-1.37
				c-0.43-0.18-0.781-0.538-0.932-1.018c-0.085-0.267-0.167-0.532-0.249-0.801c-0.147-0.479-0.063-0.974,0.188-1.368
				c-0.419-0.199-0.751-0.577-0.878-1.061c-0.072-0.271-0.141-0.543-0.209-0.814c-0.122-0.487-0.014-0.977,0.257-1.355
				c-0.409-0.222-0.721-0.615-0.823-1.105l-0.169-0.819c-0.097-0.492,0.036-0.978,0.326-1.344c-0.398-0.24-0.689-0.646-0.769-1.143
				c-0.044-0.278-0.088-0.558-0.128-0.836c-0.072-0.495,0.086-0.969,0.392-1.319c-0.386-0.26-0.655-0.682-0.711-1.18
				c-0.03-0.278-0.059-0.56-0.085-0.84c-0.046-0.499,0.133-0.966,0.456-1.297c-0.371-0.281-0.621-0.716-0.649-1.216
				c-0.016-0.279-0.031-0.559-0.045-0.838c-0.022-0.502,0.181-0.961,0.52-1.278c-0.355-0.296-0.584-0.742-0.591-1.243l-0.002-0.838
				c0-0.504,0.226-0.952,0.581-1.254c-0.342-0.314-0.548-0.77-0.528-1.269c0.011-0.283,0.021-0.563,0.038-0.847
				c0.025-0.498,0.272-0.934,0.641-1.216c-0.325-0.33-0.51-0.796-0.464-1.296c0.023-0.279,0.051-0.561,0.08-0.841
				c0.051-0.498,0.319-0.918,0.7-1.184c-0.31-0.346-0.47-0.822-0.4-1.318c0.038-0.276,0.078-0.555,0.12-0.832
				c0.075-0.495,0.365-0.905,0.76-1.151c-0.292-0.361-0.428-0.845-0.336-1.337c0.054-0.276,0.108-0.552,0.164-0.826
				c0.1-0.492,0.409-0.885,0.814-1.11c-0.272-0.375-0.384-0.862-0.268-1.35c0.065-0.273,0.135-0.547,0.205-0.819
				c0.125-0.485,0.452-0.864,0.869-1.068c-0.254-0.389-0.342-0.883-0.199-1.364c0.08-0.267,0.16-0.537,0.244-0.805
				c0.149-0.481,0.499-0.843,0.929-1.026c-0.237-0.401-0.3-0.901-0.133-1.377l0.283-0.79c0.171-0.475,0.54-0.821,0.979-0.981
				c-0.216-0.413-0.256-0.917-0.064-1.384c0.107-0.259,0.215-0.518,0.324-0.775c0.195-0.463,0.58-0.79,1.025-0.928
				c-0.193-0.423-0.208-0.927,0.006-1.38c0.12-0.259,0.239-0.515,0.365-0.769c0.22-0.45,0.617-0.756,1.067-0.871
				c-0.173-0.433-0.161-0.936,0.076-1.381c0.131-0.249,0.264-0.493,0.398-0.739c0.24-0.439,0.654-0.727,1.11-0.82
				c-0.148-0.44-0.113-0.943,0.145-1.372c0.145-0.241,0.291-0.483,0.438-0.724c0.261-0.426,0.689-0.69,1.147-0.763
				c-0.128-0.448-0.065-0.946,0.213-1.363c0.156-0.233,0.313-0.467,0.472-0.696c0.283-0.414,0.724-0.658,1.187-0.707
				c-0.105-0.451-0.02-0.945,0.277-1.35c0.168-0.226,0.337-0.45,0.507-0.675c0.304-0.397,0.755-0.619,1.22-0.644
				c-0.083-0.46,0.027-0.95,0.346-1.337c0.179-0.218,0.358-0.433,0.54-0.646c0.321-0.384,0.782-0.581,1.246-0.584
				c-0.061-0.461,0.074-0.943,0.411-1.314c0.189-0.21,0.38-0.417,0.572-0.623c0.342-0.366,0.811-0.54,1.274-0.52
				c-0.038-0.464,0.12-0.938,0.475-1.293c0.199-0.197,0.399-0.396,0.601-0.593c0.359-0.349,0.833-0.499,1.298-0.456
				c-0.013-0.465,0.169-0.933,0.54-1.269c0.209-0.188,0.417-0.372,0.627-0.559c0.376-0.331,0.859-0.46,1.32-0.395
				c0.009-0.465,0.215-0.922,0.603-1.239c0.216-0.179,0.434-0.354,0.655-0.528c0.392-0.312,0.878-0.416,1.334-0.328
				c0.032-0.463,0.26-0.909,0.662-1.206c0.226-0.167,0.452-0.333,0.68-0.497c0.407-0.291,0.9-0.369,1.35-0.261
				c0.057-0.46,0.305-0.896,0.722-1.172c0.232-0.155,0.467-0.308,0.699-0.458c0.42-0.274,0.919-0.33,1.364-0.196
				c0.078-0.458,0.35-0.878,0.779-1.135c0.239-0.144,0.48-0.285,0.725-0.425c0.431-0.251,0.928-0.283,1.367-0.128
				c0.101-0.451,0.392-0.857,0.832-1.092c0.247-0.132,0.496-0.262,0.745-0.39c0.446-0.229,0.944-0.234,1.373-0.059
				c0.124-0.447,0.435-0.839,0.889-1.051c0.251-0.119,0.505-0.234,0.76-0.35c0.454-0.207,0.954-0.189,1.374,0.008
				c0.146-0.439,0.475-0.815,0.938-1.004c0.258-0.106,0.518-0.21,0.777-0.312c0.468-0.185,0.968-0.141,1.379,0.079
				c0.167-0.435,0.517-0.795,0.989-0.961c0.263-0.093,0.528-0.183,0.792-0.272c0.476-0.162,0.975-0.092,1.374,0.147
				c0.188-0.425,0.553-0.768,1.034-0.91c0.27-0.079,0.54-0.157,0.812-0.234c0.482-0.136,0.975-0.04,1.358,0.217
				c0.209-0.415,0.593-0.737,1.078-0.855c0.274-0.067,0.548-0.131,0.824-0.193c0.482-0.109,0.973,0.007,1.345,0.285
				c0.231-0.404,0.629-0.709,1.123-0.802c0.273-0.052,0.55-0.103,0.825-0.151c0.498-0.089,0.977,0.056,1.334,0.352
				c0.248-0.392,0.662-0.676,1.159-0.745c0.279-0.038,0.558-0.075,0.837-0.11c0.497-0.062,0.968,0.104,1.31,0.418
				c0.27-0.379,0.695-0.643,1.195-0.686c0.279-0.025,0.559-0.049,0.838-0.069c0.502-0.038,0.964,0.152,1.292,0.482
				c0.287-0.366,0.727-0.607,1.228-0.627c0.279-0.011,0.557-0.021,0.836-0.027c0.498-0.023,0.956,0.198,1.267,0.545
				c0.305-0.352,0.738-0.575,1.257-0.566c0.28,0.003,0.561,0.008,0.84,0.014c0.502,0.011,0.944,0.245,1.237,0.606
				c0.323-0.336,0.794-0.531,1.283-0.505c0.28,0.017,0.561,0.035,0.84,0.056c0.5,0.035,0.932,0.292,1.206,0.665
				c0.338-0.319,0.81-0.491,1.306-0.438c0.279,0.03,0.559,0.062,0.836,0.096c0.497,0.06,0.916,0.336,1.172,0.725
				c0.353-0.303,0.833-0.455,1.327-0.374c0.276,0.044,0.552,0.09,0.828,0.137c0.493,0.085,0.899,0.382,1.137,0.782
				c0.366-0.283,0.851-0.41,1.343-0.307c0.274,0.058,0.548,0.116,0.821,0.179c0.488,0.108,0.878,0.426,1.095,0.838
				c0.38-0.265,0.87-0.368,1.356-0.24c0.272,0.071,0.544,0.145,0.814,0.221c0.483,0.134,0.854,0.47,1.05,0.892
				c0.395-0.247,0.889-0.324,1.368-0.173c0.268,0.086,0.535,0.173,0.804,0.262c0.477,0.158,0.833,0.516,1.006,0.949
				c0.407-0.229,0.909-0.281,1.379-0.107c0.265,0.1,0.528,0.2,0.792,0.303c0.466,0.183,0.804,0.557,0.956,0.996
				c0.416-0.207,0.922-0.234,1.382-0.036c0.256,0.112,0.515,0.226,0.771,0.34c0.458,0.205,0.777,0.596,0.906,1.044
				c0.426-0.185,0.931-0.189,1.381,0.033c0.252,0.125,0.504,0.251,0.753,0.378c0.45,0.229,0.746,0.635,0.854,1.087
				c0.435-0.164,0.938-0.142,1.377,0.103c0.245,0.137,0.49,0.275,0.734,0.416c0.437,0.25,0.714,0.669,0.797,1.127
				c0.444-0.143,0.944-0.096,1.369,0.171c0.239,0.148,0.479,0.299,0.714,0.451c0.422,0.271,0.678,0.704,0.739,1.164
				c0.45-0.118,0.948-0.046,1.359,0.24c0.23,0.159,0.459,0.321,0.688,0.483c0.408,0.292,0.643,0.737,0.684,1.2
				c0.454-0.096,0.948,0.001,1.344,0.309c0.222,0.172,0.441,0.343,0.661,0.517c0.395,0.312,0.606,0.766,0.622,1.232
				c0.461-0.076,0.945,0.046,1.327,0.372c0.214,0.183,0.427,0.367,0.637,0.551c0.377,0.331,0.566,0.795,0.56,1.261
				c0.469-0.051,0.944,0.094,1.309,0.438c0.203,0.192,0.405,0.387,0.605,0.581c0.361,0.348,0.527,0.822,0.497,1.285
				c0.469-0.025,0.938,0.142,1.284,0.502c0.194,0.203,0.389,0.407,0.579,0.612c0.342,0.364,0.484,0.845,0.432,1.306
				c0.428-0.006,0.927,0.187,1.255,0.564c0.185,0.213,0.367,0.426,0.549,0.64c0.323,0.382,0.442,0.867,0.366,1.325
				c0.464,0.018,0.918,0.232,1.228,0.625c0.173,0.222,0.346,0.443,0.516,0.666c0.305,0.397,0.398,0.89,0.302,1.343
				c0.462,0.042,0.902,0.277,1.192,0.687c0.16,0.228,0.32,0.456,0.479,0.687c0.285,0.411,0.355,0.908,0.237,1.356
				c0.458,0.065,0.888,0.322,1.155,0.743c0.151,0.236,0.301,0.476,0.448,0.712c0.263,0.426,0.308,0.924,0.166,1.365
				c0.457,0.088,0.872,0.366,1.119,0.801c0.139,0.243,0.274,0.486,0.41,0.73c0.243,0.438,0.264,0.938,0.101,1.373
				c0.45,0.109,0.852,0.409,1.077,0.854c0.124,0.251,0.25,0.499,0.371,0.75c0.22,0.449,0.217,0.95,0.032,1.375
				c0.444,0.132,0.831,0.452,1.033,0.907c0.113,0.256,0.226,0.511,0.335,0.768c0.197,0.459,0.168,0.957-0.036,1.372
				c0.437,0.156,0.804,0.492,0.983,0.956c0.103,0.265,0.202,0.528,0.3,0.793c0.173,0.471,0.119,0.967-0.109,1.371
				c0.43,0.175,0.784,0.53,0.941,1.005c0.089,0.27,0.175,0.537,0.26,0.807c0.148,0.479,0.068,0.972-0.178,1.365
				c0.421,0.196,0.756,0.57,0.89,1.055l0.216,0.807c0.129,0.484,0.024,0.979-0.243,1.36c0.41,0.218,0.726,0.605,0.834,1.095
				c0.061,0.274,0.121,0.551,0.178,0.827c0.102,0.489-0.027,0.974-0.312,1.34c0.398,0.236,0.695,0.643,0.779,1.137
				c0.047,0.276,0.093,0.556,0.136,0.835c0.075,0.494-0.077,0.97-0.378,1.32c0.386,0.258,0.662,0.678,0.721,1.176
				c0.032,0.277,0.064,0.556,0.093,0.833c0.054,0.499-0.123,0.969-0.443,1.308c0.373,0.275,0.628,0.708,0.662,1.208l0.053,0.835
				c0.029,0.502-0.17,0.964-0.507,1.285c0.357,0.293,0.593,0.738,0.602,1.237c0.007,0.281,0.01,0.562,0.012,0.845
				c0,0.08-0.005,0.16-0.017,0.239c0.012,0.08,0.018,0.162,0.018,0.244c0,0.282-0.001,0.563-0.005,0.842
				c-0.005,0.502-0.235,0.946-0.593,1.243c0.34,0.319,0.542,0.778,0.516,1.28l-0.046,0.833c-0.028,0.501-0.281,0.938-0.654,1.217
				c0.323,0.336,0.504,0.805,0.453,1.306l-0.088,0.83c-0.055,0.499-0.327,0.921-0.712,1.182c0.306,0.349,0.461,0.826,0.389,1.321
				c-0.042,0.279-0.085,0.558-0.131,0.835c-0.079,0.493-0.372,0.9-0.771,1.141c0.288,0.364,0.42,0.85,0.322,1.34
				c-0.055,0.275-0.112,0.551-0.17,0.823c-0.104,0.491-0.419,0.884-0.827,1.104c0.27,0.38,0.376,0.87,0.253,1.356l-0.21,0.809
				c-0.128,0.484-0.462,0.863-0.882,1.063c0.251,0.394,0.332,0.888,0.185,1.368c-0.082,0.268-0.167,0.535-0.251,0.801
				c-0.153,0.481-0.507,0.843-0.94,1.021c0.232,0.404,0.292,0.906,0.12,1.379c-0.096,0.265-0.194,0.526-0.293,0.79
				c-0.179,0.473-0.549,0.812-0.988,0.968c0.213,0.418,0.246,0.919,0.052,1.382c-0.108,0.26-0.221,0.52-0.331,0.775
				c-0.201,0.461-0.589,0.784-1.036,0.919c0.19,0.425,0.198,0.929-0.02,1.381c-0.122,0.254-0.245,0.508-0.371,0.761
				c-0.224,0.447-0.626,0.748-1.077,0.86c0.169,0.436,0.151,0.939-0.09,1.382l-0.404,0.734c-0.245,0.438-0.663,0.72-1.121,0.811
				c0.146,0.44,0.104,0.943-0.156,1.37c-0.146,0.241-0.296,0.48-0.444,0.719c-0.269,0.425-0.698,0.685-1.159,0.751
				c0.124,0.447,0.059,0.945-0.224,1.359c-0.157,0.231-0.317,0.463-0.478,0.694c-0.287,0.411-0.729,0.649-1.193,0.693
				c0.101,0.456,0.01,0.949-0.293,1.349c-0.17,0.223-0.34,0.445-0.511,0.667c-0.308,0.396-0.762,0.614-1.228,0.635
				c0.079,0.456-0.036,0.944-0.359,1.328c-0.179,0.217-0.36,0.431-0.543,0.643c-0.323,0.38-0.783,0.573-1.247,0.573
				c-0.002,0-0.005,0-0.009,0c0.057,0.463-0.082,0.944-0.423,1.312c-0.192,0.206-0.383,0.412-0.577,0.616
				c-0.346,0.362-0.832,0.529-1.279,0.506c0.032,0.465-0.131,0.939-0.489,1.288c-0.202,0.197-0.403,0.393-0.606,0.587
				c-0.363,0.345-0.84,0.489-1.302,0.444c0.009,0.465-0.177,0.931-0.553,1.263c-0.209,0.185-0.42,0.37-0.633,0.553
				c-0.379,0.327-0.862,0.452-1.322,0.38c-0.014,0.466-0.223,0.921-0.614,1.235c-0.219,0.175-0.438,0.349-0.659,0.521
				c-0.395,0.307-0.886,0.406-1.339,0.314c-0.037,0.461-0.268,0.906-0.674,1.199c-0.228,0.165-0.456,0.328-0.686,0.491
				c-0.41,0.286-0.904,0.358-1.352,0.246c-0.059,0.461-0.312,0.892-0.731,1.165c-0.235,0.152-0.471,0.305-0.71,0.454
				c-0.422,0.268-0.92,0.316-1.361,0.183c-0.083,0.457-0.357,0.875-0.79,1.126c-0.241,0.14-0.484,0.278-0.728,0.417
				c-0.436,0.245-0.936,0.271-1.37,0.114c-0.105,0.452-0.4,0.855-0.844,1.087c-0.247,0.126-0.496,0.254-0.745,0.379
				c-0.448,0.226-0.946,0.226-1.375,0.045c-0.128,0.446-0.443,0.834-0.897,1.041c-0.255,0.116-0.51,0.23-0.768,0.345
				c-0.456,0.2-0.952,0.176-1.37-0.023c-0.15,0.438-0.484,0.81-0.947,0.993c-0.262,0.104-0.523,0.207-0.784,0.308
				c-0.467,0.179-0.967,0.129-1.375-0.093c-0.172,0.433-0.523,0.788-0.998,0.949c-0.266,0.09-0.53,0.181-0.796,0.267
				c-0.479,0.156-0.976,0.081-1.372-0.162c-0.193,0.422-0.562,0.761-1.043,0.897c-0.271,0.079-0.542,0.154-0.813,0.228
				c-0.483,0.13-0.976,0.031-1.357-0.23c-0.213,0.413-0.6,0.732-1.087,0.845c-0.274,0.064-0.547,0.125-0.822,0.186
				c-0.486,0.108-0.975-0.017-1.346-0.298c-0.233,0.4-0.636,0.702-1.13,0.791l-0.823,0.142c-0.498,0.085-0.977-0.062-1.333-0.362
				c-0.255,0.389-0.672,0.67-1.17,0.731l-0.83,0.103c-0.488,0.058-0.969-0.112-1.311-0.431c-0.272,0.377-0.701,0.636-1.201,0.676
				c-0.28,0.021-0.561,0.043-0.842,0.061c-0.506,0.029-0.962-0.162-1.284-0.495c-0.291,0.361-0.732,0.6-1.232,0.613
				c-0.278,0.007-0.56,0.017-0.839,0.021C363.489,401.748,363.478,401.748,363.468,401.748z M360.185,398.44c0.017,0,0.033,0,0.05,0
				l0.807,0.021c0.478,0.011,0.906,0.225,1.199,0.557c0.293-0.332,0.722-0.546,1.2-0.555c0.267-0.003,0.534-0.011,0.8-0.018
				c0.476-0.03,0.918,0.179,1.227,0.498c0.277-0.348,0.696-0.58,1.176-0.613c0.264-0.016,0.528-0.033,0.793-0.058
				c0.481-0.031,0.925,0.136,1.249,0.437c0.26-0.359,0.664-0.612,1.139-0.668l0.8-0.099c0.468-0.059,0.927,0.089,1.267,0.375
				c0.242-0.371,0.632-0.645,1.102-0.722l0.796-0.139c0.474-0.087,0.931,0.042,1.283,0.309c0.224-0.382,0.6-0.675,1.067-0.777
				c0.262-0.057,0.521-0.115,0.781-0.176c0.468-0.109,0.935-0.005,1.299,0.245c0.205-0.394,0.567-0.705,1.03-0.83
				c0.255-0.068,0.512-0.142,0.767-0.216c0.46-0.131,0.935-0.053,1.312,0.183c0.185-0.404,0.53-0.732,0.985-0.881
				c0.253-0.083,0.507-0.167,0.76-0.255c0.453-0.152,0.929-0.1,1.316,0.114c0.163-0.413,0.494-0.759,0.94-0.93
				c0.249-0.095,0.497-0.191,0.746-0.291c0.443-0.177,0.918-0.146,1.315,0.047c0.145-0.421,0.456-0.78,0.894-0.972
				c0.244-0.106,0.484-0.215,0.726-0.325c0.432-0.199,0.91-0.191,1.318-0.019c0.122-0.426,0.414-0.801,0.84-1.014
				c0.239-0.12,0.477-0.242,0.715-0.365c0.424-0.219,0.898-0.232,1.314-0.084c0.101-0.433,0.375-0.821,0.789-1.058
				c0.233-0.13,0.464-0.263,0.693-0.396c0.414-0.242,0.888-0.28,1.312-0.149c0.078-0.437,0.334-0.84,0.737-1.097
				c0.224-0.141,0.447-0.284,0.67-0.43c0.401-0.26,0.874-0.323,1.306-0.215c0.056-0.44,0.291-0.856,0.685-1.132
				c0.216-0.153,0.431-0.308,0.646-0.462c0.388-0.281,0.859-0.368,1.292-0.279c0.036-0.443,0.249-0.87,0.627-1.165
				c0.21-0.165,0.419-0.33,0.627-0.496c0.373-0.299,0.835-0.409,1.275-0.342c0.012-0.443,0.205-0.879,0.566-1.192
				c0.203-0.175,0.403-0.352,0.604-0.527c0.357-0.317,0.819-0.447,1.257-0.404c-0.008-0.446,0.162-0.894,0.51-1.226
				c0.192-0.182,0.383-0.367,0.573-0.553c0.342-0.335,0.798-0.492,1.238-0.466c-0.03-0.445,0.119-0.899,0.449-1.246
				c0.183-0.192,0.363-0.387,0.545-0.582c0.323-0.35,0.763-0.527,1.205-0.527c0.004,0,0.006,0,0.009,0
				c-0.053-0.441,0.071-0.9,0.383-1.266c0.175-0.202,0.346-0.405,0.519-0.611c0.308-0.368,0.743-0.566,1.188-0.586
				c-0.074-0.438,0.027-0.904,0.321-1.282c0.163-0.212,0.326-0.425,0.488-0.639c0.289-0.382,0.713-0.602,1.155-0.644
				c-0.095-0.434-0.017-0.903,0.256-1.296c0.153-0.22,0.307-0.441,0.457-0.662c0.27-0.396,0.683-0.638,1.123-0.7
				c-0.118-0.431-0.062-0.904,0.194-1.312c0.142-0.226,0.28-0.451,0.421-0.679c0.249-0.41,0.65-0.672,1.088-0.756
				c-0.14-0.423-0.107-0.9,0.125-1.317l0.391-0.707c0.23-0.421,0.616-0.699,1.048-0.809c-0.16-0.413-0.154-0.894,0.061-1.325
				c0.12-0.238,0.235-0.478,0.352-0.718c0.208-0.434,0.581-0.735,1.009-0.861c-0.181-0.407-0.198-0.884-0.006-1.324
				c0.106-0.246,0.212-0.492,0.315-0.739c0.187-0.444,0.544-0.762,0.964-0.911c-0.202-0.397-0.241-0.875-0.072-1.323
				c0.095-0.252,0.188-0.502,0.279-0.754c0.163-0.452,0.507-0.788,0.919-0.959c-0.222-0.387-0.287-0.858-0.142-1.315l0.242-0.771
				c0.142-0.459,0.464-0.81,0.865-0.999c-0.239-0.374-0.326-0.843-0.205-1.305l0.203-0.778c0.116-0.465,0.422-0.832,0.812-1.043
				c-0.257-0.36-0.367-0.824-0.268-1.292c0.054-0.261,0.108-0.521,0.162-0.786c0.093-0.47,0.38-0.852,0.76-1.081
				c-0.275-0.35-0.41-0.809-0.332-1.282c0.041-0.262,0.083-0.525,0.121-0.788c0.07-0.473,0.337-0.871,0.705-1.119
				c-0.291-0.333-0.448-0.783-0.396-1.259l0.085-0.801c0.048-0.477,0.293-0.886,0.649-1.15c-0.308-0.32-0.486-0.761-0.459-1.237
				l0.045-0.805c0.022-0.479,0.249-0.897,0.59-1.182c-0.322-0.305-0.522-0.737-0.518-1.218c0.004-0.265,0.004-0.533,0.004-0.802
				c0-0.076,0.008-0.153,0.017-0.228c-0.011-0.078-0.017-0.158-0.017-0.238c-0.002-0.264-0.006-0.529-0.012-0.796
				c-0.01-0.48,0.187-0.916,0.51-1.222c-0.342-0.281-0.57-0.698-0.599-1.176l-0.051-0.805c-0.032-0.479,0.143-0.922,0.448-1.242
				c-0.355-0.265-0.605-0.673-0.656-1.148c-0.028-0.265-0.059-0.53-0.089-0.796c-0.056-0.476,0.097-0.928,0.387-1.263
				c-0.372-0.247-0.642-0.643-0.714-1.119c-0.041-0.261-0.083-0.523-0.128-0.784c-0.081-0.473,0.05-0.932,0.324-1.283
				c-0.384-0.229-0.673-0.607-0.77-1.08c-0.054-0.26-0.109-0.519-0.167-0.777c-0.104-0.467,0.003-0.935,0.258-1.298
				c-0.392-0.207-0.697-0.57-0.817-1.032l-0.209-0.778c-0.126-0.462-0.043-0.932,0.192-1.307c-0.401-0.188-0.729-0.54-0.872-0.997
				c-0.078-0.254-0.16-0.506-0.243-0.759c-0.15-0.455-0.09-0.93,0.127-1.317c-0.412-0.168-0.756-0.502-0.922-0.954
				c-0.092-0.248-0.185-0.495-0.281-0.742c-0.171-0.445-0.137-0.92,0.058-1.315c-0.415-0.147-0.771-0.462-0.96-0.902
				c-0.104-0.243-0.211-0.487-0.319-0.73c-0.193-0.436-0.181-0.912-0.005-1.318c-0.425-0.126-0.797-0.424-1.006-0.851
				c-0.118-0.24-0.236-0.478-0.357-0.717c-0.214-0.427-0.226-0.9-0.07-1.317c-0.429-0.103-0.815-0.381-1.047-0.799
				c-0.129-0.231-0.259-0.465-0.391-0.697c-0.236-0.415-0.271-0.89-0.136-1.312c-0.437-0.083-0.838-0.344-1.089-0.751
				c-0.14-0.224-0.281-0.45-0.424-0.672c-0.256-0.405-0.315-0.878-0.201-1.309c-0.438-0.061-0.85-0.297-1.123-0.689
				c-0.152-0.22-0.304-0.439-0.458-0.657c-0.277-0.391-0.359-0.86-0.267-1.294c-0.44-0.04-0.865-0.257-1.156-0.637
				c-0.162-0.213-0.325-0.422-0.488-0.631c-0.297-0.377-0.403-0.843-0.331-1.281c-0.443-0.017-0.88-0.214-1.189-0.579
				c-0.171-0.203-0.344-0.405-0.519-0.605c-0.314-0.362-0.443-0.822-0.394-1.264c-0.438-0.003-0.89-0.172-1.216-0.521
				c-0.182-0.195-0.365-0.389-0.549-0.579c-0.332-0.347-0.483-0.8-0.453-1.243c-0.444,0.027-0.896-0.126-1.242-0.459
				c-0.19-0.186-0.384-0.37-0.578-0.554c-0.348-0.329-0.521-0.775-0.515-1.219c-0.438,0.05-0.901-0.081-1.262-0.397
				c-0.2-0.176-0.402-0.35-0.604-0.523c-0.365-0.31-0.56-0.747-0.575-1.191c-0.441,0.07-0.903-0.037-1.279-0.334
				c-0.211-0.167-0.42-0.332-0.634-0.496c-0.379-0.292-0.594-0.719-0.63-1.161c-0.435,0.09-0.906,0.009-1.294-0.27
				c-0.22-0.155-0.438-0.311-0.657-0.463c-0.394-0.274-0.63-0.689-0.689-1.131c-0.43,0.113-0.905,0.054-1.308-0.207
				c-0.225-0.144-0.451-0.286-0.677-0.427c-0.408-0.254-0.665-0.658-0.746-1.096c-0.425,0.136-0.899,0.099-1.317-0.141
				c-0.231-0.133-0.464-0.264-0.696-0.394c-0.42-0.233-0.697-0.625-0.8-1.059c-0.417,0.156-0.895,0.145-1.324-0.075
				c-0.237-0.121-0.477-0.239-0.716-0.359c-0.431-0.211-0.728-0.587-0.851-1.016c-0.409,0.177-0.889,0.189-1.324-0.007
				c-0.246-0.109-0.491-0.218-0.736-0.323c-0.44-0.192-0.757-0.553-0.9-0.974c-0.399,0.197-0.876,0.233-1.326,0.059
				c-0.248-0.098-0.497-0.192-0.747-0.286c-0.45-0.168-0.784-0.515-0.95-0.929c-0.388,0.218-0.863,0.277-1.321,0.127
				c-0.254-0.085-0.509-0.167-0.764-0.248c-0.456-0.146-0.806-0.473-0.992-0.876c-0.377,0.235-0.847,0.318-1.311,0.189
				c-0.256-0.07-0.513-0.14-0.771-0.208c-0.463-0.122-0.827-0.431-1.034-0.824c-0.363,0.253-0.832,0.36-1.297,0.255
				c-0.262-0.058-0.521-0.114-0.782-0.169c-0.47-0.1-0.848-0.389-1.074-0.771c-0.352,0.271-0.812,0.4-1.28,0.319
				c-0.266-0.044-0.53-0.089-0.794-0.132c-0.472-0.075-0.866-0.345-1.11-0.715c-0.338,0.29-0.794,0.441-1.267,0.382
				c-0.263-0.031-0.528-0.062-0.795-0.092c-0.477-0.051-0.882-0.301-1.145-0.659c-0.322,0.305-0.762,0.485-1.247,0.444
				c-0.265-0.019-0.531-0.036-0.797-0.053c-0.479-0.027-0.898-0.257-1.179-0.603c-0.306,0.321-0.746,0.519-1.222,0.506
				c-0.266-0.005-0.533-0.009-0.802-0.013c-0.479-0.004-0.907-0.215-1.204-0.545c-0.291,0.335-0.717,0.552-1.193,0.565
				c-0.269,0.007-0.534,0.017-0.802,0.026c-0.477,0.012-0.918-0.171-1.229-0.486c-0.274,0.35-0.688,0.587-1.167,0.623
				c-0.266,0.02-0.531,0.043-0.798,0.066c-0.478,0.045-0.925-0.125-1.252-0.424c-0.259,0.362-0.662,0.621-1.139,0.679
				c-0.263,0.033-0.526,0.068-0.788,0.105c-0.477,0.065-0.932-0.079-1.273-0.361c-0.238,0.374-0.627,0.651-1.1,0.734
				c-0.263,0.047-0.525,0.095-0.787,0.145c-0.47,0.09-0.932-0.032-1.287-0.297c-0.22,0.387-0.595,0.683-1.063,0.789
				c-0.259,0.06-0.518,0.121-0.775,0.183c-0.466,0.112-0.934,0.017-1.302-0.232c-0.201,0.396-0.562,0.712-1.023,0.842
				c-0.255,0.072-0.512,0.146-0.767,0.222c-0.458,0.135-0.931,0.062-1.312-0.167c-0.18,0.404-0.521,0.736-0.974,0.891
				c-0.254,0.086-0.508,0.172-0.76,0.262c-0.45,0.157-0.927,0.107-1.318-0.103c-0.158,0.414-0.483,0.762-0.928,0.938
				c-0.249,0.098-0.498,0.199-0.745,0.3c-0.442,0.18-0.917,0.154-1.316-0.034c-0.14,0.42-0.446,0.784-0.882,0.98
				c-0.242,0.11-0.484,0.221-0.725,0.333c-0.431,0.202-0.907,0.2-1.318,0.033c-0.118,0.427-0.406,0.805-0.834,1.023
				c-0.235,0.12-0.469,0.243-0.703,0.367c-0.422,0.226-0.899,0.247-1.316,0.1c-0.096,0.432-0.367,0.824-0.781,1.064
				c-0.23,0.133-0.46,0.268-0.688,0.403c-0.41,0.244-0.886,0.288-1.312,0.162c-0.073,0.436-0.323,0.841-0.724,1.102l-0.671,0.439
				c-0.399,0.265-0.867,0.331-1.3,0.227c-0.052,0.44-0.283,0.859-0.673,1.138c-0.216,0.156-0.429,0.312-0.644,0.471
				c-0.385,0.284-0.855,0.374-1.287,0.29c-0.032,0.444-0.241,0.873-0.615,1.172c-0.209,0.166-0.416,0.333-0.621,0.501
				c-0.371,0.304-0.834,0.418-1.275,0.354c-0.008,0.443-0.195,0.884-0.555,1.2c-0.2,0.177-0.399,0.354-0.597,0.534
				c-0.355,0.32-0.81,0.455-1.254,0.415c0.015,0.445-0.152,0.894-0.498,1.228c-0.19,0.186-0.38,0.371-0.566,0.56
				c-0.341,0.34-0.789,0.499-1.235,0.479c0.037,0.443-0.107,0.9-0.436,1.251c-0.182,0.193-0.36,0.39-0.539,0.586
				c-0.321,0.355-0.764,0.538-1.209,0.541c0.058,0.44-0.062,0.902-0.372,1.271c-0.173,0.203-0.343,0.408-0.513,0.615
				c-0.305,0.371-0.735,0.573-1.18,0.597c0.078,0.438-0.02,0.905-0.31,1.288c-0.162,0.212-0.32,0.425-0.479,0.639
				c-0.285,0.387-0.709,0.61-1.151,0.657c0.101,0.433,0.028,0.904-0.243,1.301c-0.152,0.219-0.302,0.442-0.451,0.666
				c-0.266,0.397-0.676,0.643-1.115,0.71c0.124,0.427,0.072,0.904-0.18,1.313c-0.14,0.227-0.277,0.454-0.414,0.685
				c-0.246,0.412-0.646,0.677-1.082,0.766c0.145,0.421,0.117,0.899-0.112,1.319c-0.129,0.235-0.256,0.472-0.383,0.709
				c-0.225,0.422-0.609,0.707-1.04,0.817c0.165,0.415,0.161,0.896-0.049,1.329c-0.116,0.238-0.23,0.479-0.343,0.718
				c-0.203,0.437-0.575,0.74-1.001,0.872c0.185,0.406,0.207,0.882,0.021,1.324c-0.104,0.247-0.207,0.495-0.31,0.744
				c-0.184,0.446-0.538,0.767-0.956,0.921c0.205,0.393,0.251,0.869,0.088,1.318l-0.274,0.763c-0.159,0.454-0.497,0.792-0.907,0.964
				c0.226,0.386,0.296,0.86,0.152,1.318c-0.079,0.255-0.155,0.512-0.232,0.768c-0.135,0.459-0.454,0.813-0.854,1.008
				c0.245,0.373,0.336,0.842,0.217,1.307c-0.066,0.258-0.131,0.514-0.193,0.772c-0.112,0.467-0.414,0.839-0.802,1.053
				c0.26,0.359,0.375,0.822,0.28,1.293c-0.053,0.262-0.105,0.522-0.155,0.785c-0.09,0.47-0.372,0.856-0.749,1.09
				c0.279,0.345,0.417,0.802,0.345,1.274c-0.04,0.266-0.078,0.53-0.115,0.795c-0.065,0.475-0.328,0.872-0.692,1.124
				c0.294,0.332,0.457,0.783,0.407,1.261c-0.027,0.266-0.053,0.529-0.075,0.793c-0.042,0.479-0.285,0.889-0.639,1.159
				c0.313,0.317,0.496,0.759,0.47,1.238c-0.014,0.267-0.025,0.531-0.035,0.798c-0.019,0.479-0.24,0.902-0.58,1.189
				c0.325,0.3,0.529,0.73,0.529,1.208l0.002,0.803c0.008,0.48-0.195,0.915-0.521,1.218c0.342,0.285,0.566,0.704,0.589,1.185
				c0.013,0.268,0.026,0.534,0.042,0.8c0.028,0.479-0.151,0.922-0.46,1.239c0.355,0.27,0.601,0.68,0.646,1.157
				c0.023,0.265,0.052,0.529,0.08,0.792c0.053,0.477-0.106,0.929-0.397,1.262c0.367,0.25,0.633,0.648,0.702,1.122
				c0.037,0.264,0.078,0.527,0.12,0.789c0.075,0.473-0.06,0.932-0.337,1.279c0.378,0.23,0.664,0.612,0.757,1.081l0.162,0.79
				c0.098,0.469-0.015,0.932-0.271,1.293c0.39,0.211,0.693,0.578,0.809,1.043c0.065,0.26,0.131,0.519,0.2,0.776
				c0.122,0.463,0.034,0.932-0.207,1.305c0.399,0.192,0.722,0.544,0.861,1l0.239,0.769c0.145,0.458,0.08,0.93-0.142,1.314
				c0.41,0.172,0.75,0.509,0.913,0.963c0.089,0.248,0.181,0.497,0.273,0.744c0.168,0.447,0.128,0.922-0.072,1.317
				c0.415,0.151,0.768,0.47,0.952,0.91c0.103,0.246,0.205,0.489,0.312,0.732c0.188,0.438,0.173,0.913-0.007,1.318
				c0.422,0.131,0.79,0.429,0.997,0.861c0.116,0.24,0.231,0.479,0.35,0.719c0.211,0.429,0.217,0.904,0.058,1.316
				c0.429,0.111,0.812,0.392,1.039,0.812c0.127,0.235,0.255,0.468,0.384,0.7c0.231,0.418,0.263,0.892,0.123,1.312
				c0.434,0.089,0.83,0.35,1.079,0.758c0.14,0.229,0.278,0.456,0.42,0.683c0.253,0.405,0.307,0.881,0.188,1.308
				c0.439,0.064,0.849,0.308,1.117,0.703c0.149,0.221,0.3,0.44,0.452,0.661c0.272,0.392,0.35,0.864,0.252,1.294
				c0.441,0.046,0.862,0.268,1.151,0.648c0.16,0.215,0.32,0.428,0.482,0.636c0.293,0.381,0.393,0.848,0.317,1.284
				c0.442,0.021,0.875,0.223,1.182,0.59c0.172,0.206,0.343,0.411,0.516,0.615c0.312,0.363,0.434,0.823,0.38,1.263
				c0.444,0,0.888,0.18,1.211,0.533c0.18,0.197,0.359,0.391,0.542,0.584c0.328,0.349,0.477,0.805,0.442,1.248
				c0.459-0.022,0.896,0.135,1.236,0.471c0.19,0.188,0.382,0.374,0.574,0.561c0.344,0.332,0.513,0.779,0.502,1.222
				c0.444-0.043,0.898,0.09,1.258,0.41c0.199,0.179,0.399,0.354,0.6,0.529c0.362,0.315,0.552,0.753,0.563,1.198
				c0.444-0.063,0.904,0.046,1.275,0.347c0.208,0.169,0.417,0.335,0.627,0.5c0.377,0.296,0.589,0.726,0.621,1.169
				c0.436-0.088,0.905-0.001,1.292,0.28c0.216,0.159,0.433,0.315,0.651,0.47c0.39,0.277,0.625,0.696,0.679,1.139
				c0.429-0.111,0.902-0.045,1.304,0.216c0.225,0.148,0.449,0.295,0.675,0.438c0.404,0.258,0.657,0.664,0.734,1.102
				c0.425-0.13,0.904-0.09,1.317,0.155c0.229,0.135,0.459,0.269,0.689,0.398c0.419,0.238,0.693,0.633,0.791,1.066
				c0.415-0.152,0.895-0.136,1.319,0.085l0.719,0.369c0.428,0.218,0.719,0.598,0.838,1.024c0.411-0.172,0.888-0.18,1.326,0.021
				c0.242,0.111,0.485,0.221,0.729,0.33c0.439,0.195,0.752,0.559,0.892,0.981c0.401-0.195,0.88-0.228,1.33-0.044
				c0.245,0.101,0.492,0.196,0.741,0.291c0.448,0.172,0.779,0.521,0.94,0.938c0.394-0.213,0.871-0.27,1.328-0.11
				c0.25,0.086,0.502,0.172,0.755,0.254c0.455,0.15,0.802,0.479,0.984,0.884c0.38-0.231,0.852-0.307,1.312-0.174
				c0.255,0.073,0.511,0.144,0.767,0.214c0.463,0.127,0.825,0.439,1.027,0.834c0.368-0.25,0.837-0.354,1.303-0.24
				c0.259,0.059,0.519,0.117,0.777,0.176c0.469,0.104,0.846,0.398,1.068,0.783c0.353-0.269,0.812-0.392,1.286-0.308
				c0.261,0.05,0.524,0.093,0.787,0.139c0.473,0.08,0.862,0.354,1.104,0.726c0.342-0.284,0.805-0.431,1.271-0.367
				c0.263,0.034,0.527,0.066,0.791,0.098c0.476,0.056,0.882,0.31,1.141,0.672c0.324-0.302,0.771-0.478,1.25-0.435
				c0.266,0.023,0.53,0.042,0.796,0.062c0.478,0.031,0.895,0.265,1.172,0.612C359.311,398.628,359.728,398.44,360.185,398.44z"/>
		</g>
	</g>
	<g>
		<circle fill="#9C9D9D" cx="362.326" cy="334.086" r="65.555"/>
	</g>
	<g>
		<g>
			<path fill="#BFBFC0" d="M365.662,396.162c-0.867,0-1.592-0.678-1.64-1.554c-0.05-0.904,0.645-1.679,1.549-1.729
				c0.27-0.015,0.539-0.029,0.807-0.049c0.894-0.074,1.687,0.626,1.747,1.529s-0.623,1.686-1.527,1.748
				c-0.28,0.018-0.563,0.034-0.845,0.051C365.723,396.16,365.692,396.162,365.662,396.162z M358.231,396.114
				c-0.037,0-0.074,0-0.112-0.003c-0.282-0.019-0.566-0.04-0.849-0.062c-0.902-0.075-1.576-0.869-1.502-1.771
				c0.074-0.904,0.862-1.584,1.77-1.502c0.267,0.021,0.534,0.04,0.8,0.061c0.906,0.059,1.589,0.841,1.528,1.747
				C359.808,395.45,359.086,396.114,358.231,396.114z M373.858,395.154c-0.773,0-1.461-0.547-1.611-1.332
				c-0.173-0.89,0.412-1.751,1.302-1.923c0.263-0.049,0.526-0.102,0.785-0.157c0.891-0.183,1.757,0.385,1.943,1.272
				c0.185,0.89-0.386,1.758-1.273,1.942c-0.277,0.058-0.557,0.113-0.835,0.166C374.064,395.144,373.96,395.154,373.858,395.154z
				 M350.047,395.005c-0.108,0-0.219-0.011-0.331-0.033c-0.277-0.058-0.555-0.118-0.832-0.178c-0.886-0.196-1.444-1.071-1.249-1.957
				c0.193-0.886,1.066-1.447,1.957-1.25c0.26,0.059,0.521,0.114,0.783,0.169c0.888,0.182,1.46,1.048,1.278,1.936
				C351.494,394.469,350.811,395.005,350.047,395.005z M381.841,393.037c-0.683,0-1.321-0.43-1.554-1.112
				c-0.294-0.857,0.166-1.791,1.023-2.083c0.253-0.088,0.509-0.176,0.762-0.266c0.854-0.302,1.794,0.143,2.096,0.997
				c0.304,0.855-0.143,1.795-0.998,2.098c-0.266,0.096-0.532,0.186-0.798,0.277C382.196,393.009,382.016,393.037,381.841,393.037z
				 M342.086,392.784c-0.182,0-0.366-0.029-0.547-0.095c-0.27-0.096-0.536-0.192-0.804-0.29c-0.85-0.315-1.284-1.261-0.97-2.111
				c0.316-0.85,1.264-1.282,2.11-0.969c0.253,0.095,0.505,0.186,0.758,0.275c0.854,0.302,1.302,1.24,1.001,2.096
				C343.396,392.362,342.763,392.784,342.086,392.784z M389.46,389.844c-0.603,0-1.181-0.33-1.467-0.903
				c-0.409-0.811-0.082-1.796,0.728-2.205c0.238-0.12,0.476-0.241,0.715-0.365c0.802-0.419,1.794-0.105,2.212,0.699
				c0.419,0.805,0.106,1.797-0.698,2.214c-0.25,0.131-0.501,0.26-0.752,0.386C389.96,389.788,389.708,389.844,389.46,389.844z
				 M334.503,389.491c-0.255,0-0.514-0.059-0.756-0.186c-0.25-0.13-0.502-0.261-0.751-0.395c-0.798-0.428-1.099-1.423-0.673-2.223
				c0.428-0.799,1.422-1.1,2.222-0.673c0.237,0.126,0.477,0.252,0.716,0.378c0.805,0.417,1.119,1.409,0.7,2.214
				C335.67,389.17,335.096,389.491,334.503,389.491z M396.564,385.645c-0.521,0-1.034-0.249-1.354-0.711
				c-0.515-0.746-0.325-1.77,0.42-2.282c0.222-0.154,0.441-0.307,0.661-0.461c0.742-0.525,1.766-0.349,2.288,0.392
				c0.524,0.74,0.348,1.765-0.394,2.288c-0.229,0.163-0.46,0.324-0.692,0.483C397.209,385.551,396.884,385.645,396.564,385.645z
				 M327.446,385.195c-0.329,0-0.659-0.098-0.948-0.302c-0.23-0.164-0.46-0.327-0.689-0.494c-0.731-0.532-0.896-1.561-0.362-2.292
				c0.533-0.732,1.559-0.896,2.293-0.365c0.218,0.159,0.437,0.315,0.657,0.472c0.739,0.523,0.914,1.55,0.39,2.289
				C328.466,384.955,327.959,385.195,327.446,385.195z M403.034,380.518c-0.447,0-0.892-0.182-1.216-0.538
				c-0.61-0.672-0.561-1.708,0.109-2.319c0.199-0.18,0.396-0.361,0.59-0.543c0.662-0.619,1.701-0.586,2.322,0.075
				c0.618,0.662,0.585,1.701-0.078,2.321c-0.206,0.194-0.414,0.385-0.625,0.575C403.823,380.377,403.427,380.518,403.034,380.518z
				 M321.038,379.98c-0.402,0-0.804-0.146-1.122-0.441c-0.205-0.193-0.41-0.389-0.614-0.582c-0.654-0.629-0.677-1.668-0.048-2.322
				c0.627-0.653,1.668-0.677,2.321-0.047c0.194,0.187,0.39,0.37,0.586,0.555c0.661,0.618,0.695,1.657,0.076,2.319
				C321.914,379.806,321.476,379.98,321.038,379.98z M408.751,374.559c-0.371,0-0.747-0.126-1.055-0.385
				c-0.694-0.584-0.783-1.62-0.2-2.313c0.171-0.204,0.341-0.409,0.51-0.618c0.57-0.703,1.605-0.809,2.309-0.237
				c0.703,0.57,0.812,1.604,0.239,2.309c-0.181,0.223-0.361,0.441-0.544,0.659C409.684,374.36,409.22,374.559,408.751,374.559z
				 M315.399,373.949c-0.477,0-0.948-0.205-1.273-0.603c-0.178-0.22-0.354-0.439-0.53-0.659c-0.564-0.71-0.446-1.743,0.263-2.309
				c0.711-0.561,1.742-0.446,2.307,0.263c0.167,0.211,0.336,0.42,0.506,0.629c0.573,0.703,0.468,1.736-0.234,2.311
				C316.131,373.83,315.764,373.949,315.399,373.949z M413.613,367.88c-0.3,0-0.602-0.081-0.872-0.252
				c-0.769-0.482-0.999-1.496-0.517-2.263c0.143-0.229,0.284-0.456,0.424-0.686c0.47-0.774,1.479-1.021,2.256-0.547
				c0.773,0.47,1.019,1.479,0.548,2.254c-0.147,0.242-0.297,0.485-0.447,0.725C414.691,367.608,414.157,367.88,413.613,367.88z
				 M310.629,367.212c-0.553,0-1.094-0.279-1.402-0.786c-0.148-0.241-0.294-0.484-0.438-0.73c-0.46-0.78-0.2-1.785,0.581-2.246
				c0.778-0.461,1.786-0.202,2.247,0.58c0.136,0.229,0.272,0.456,0.412,0.684c0.473,0.776,0.229,1.785-0.546,2.258
				C311.216,367.134,310.92,367.212,310.629,367.212z M417.52,360.599c-0.225,0-0.452-0.046-0.67-0.145
				c-0.827-0.37-1.198-1.34-0.827-2.169l0.328-0.744c0.363-0.83,1.332-1.208,2.163-0.848c0.83,0.364,1.209,1.33,0.846,2.162
				l-0.341,0.771C418.745,360.236,418.147,360.599,417.52,360.599z M306.822,359.891c-0.634,0-1.237-0.369-1.506-0.986
				c-0.113-0.258-0.224-0.518-0.334-0.777c-0.351-0.836,0.044-1.8,0.88-2.149c0.836-0.351,1.798,0.044,2.149,0.88
				c0.103,0.244,0.207,0.49,0.313,0.734c0.362,0.831-0.018,1.798-0.848,2.161C307.262,359.846,307.039,359.891,306.822,359.891z
				 M420.396,352.849c-0.152,0-0.307-0.021-0.46-0.065c-0.871-0.253-1.371-1.165-1.118-2.035l0.223-0.781
				c0.245-0.871,1.153-1.382,2.025-1.137c0.874,0.246,1.382,1.154,1.137,2.025l-0.232,0.81
				C421.761,352.383,421.106,352.849,420.396,352.849z M304.047,352.115c-0.717,0-1.376-0.475-1.579-1.198
				c-0.076-0.272-0.152-0.547-0.225-0.821c-0.231-0.877,0.291-1.775,1.166-2.008c0.881-0.23,1.774,0.29,2.009,1.165
				c0.067,0.261,0.138,0.52,0.212,0.776c0.245,0.873-0.265,1.778-1.137,2.024C304.344,352.094,304.196,352.115,304.047,352.115z
				 M422.178,344.785c-0.082,0-0.163-0.005-0.245-0.018c-0.896-0.135-1.515-0.97-1.38-1.867c0.04-0.266,0.078-0.529,0.113-0.793
				c0.122-0.9,0.954-1.522,1.848-1.408c0.897,0.122,1.527,0.947,1.407,1.847c-0.039,0.28-0.079,0.562-0.122,0.842
				C423.677,344.202,422.977,344.785,422.178,344.785z M302.365,344.028c-0.806,0-1.511-0.594-1.623-1.417
				c-0.039-0.28-0.074-0.561-0.11-0.843c-0.11-0.901,0.53-1.722,1.429-1.832c0.897-0.1,1.721,0.53,1.831,1.432
				c0.032,0.266,0.065,0.529,0.103,0.795c0.125,0.897-0.503,1.726-1.401,1.852C302.517,344.023,302.442,344.028,302.365,344.028z
				 M422.846,336.554c-0.01,0-0.019,0-0.026,0c-0.906-0.014-1.63-0.759-1.617-1.667c0.004-0.265,0.006-0.533,0.006-0.802v-0.123
				c0-0.905,0.735-1.641,1.642-1.641s1.642,0.735,1.642,1.641v0.123c0,0.285-0.001,0.569-0.006,0.852
				C424.473,335.836,423.74,336.554,422.846,336.554z M301.805,335.76c-0.908,0-1.642-0.705-1.642-1.611v-0.062
				c0-0.262,0.001-0.523,0.004-0.785c0.012-0.906,0.767-1.63,1.663-1.619c0.905,0.01,1.632,0.754,1.62,1.661
				c-0.002,0.247-0.004,0.496-0.004,0.743C303.447,334.993,302.711,335.76,301.805,335.76z M422.382,328.187
				c-0.818,0-1.525-0.609-1.628-1.442c-0.032-0.263-0.066-0.53-0.104-0.794c-0.125-0.898,0.503-1.727,1.401-1.851
				c0.89-0.125,1.727,0.502,1.852,1.4c0.039,0.281,0.075,0.562,0.111,0.845c0.11,0.898-0.53,1.718-1.431,1.83
				C422.517,328.183,422.449,328.187,422.382,328.187z M302.354,327.552c-0.073,0-0.146-0.006-0.222-0.015
				c-0.897-0.122-1.528-0.95-1.408-1.848c0.038-0.282,0.079-0.563,0.12-0.844c0.135-0.896,0.979-1.519,1.867-1.378
				c0.896,0.133,1.515,0.969,1.38,1.866c-0.038,0.264-0.077,0.528-0.112,0.795C303.868,326.952,303.163,327.552,302.354,327.552z
				 M420.808,320.082c-0.725,0-1.389-0.485-1.586-1.218c-0.069-0.259-0.142-0.52-0.214-0.777c-0.245-0.874,0.264-1.779,1.138-2.025
				c0.872-0.246,1.779,0.264,2.024,1.138c0.076,0.27,0.151,0.544,0.224,0.816c0.235,0.875-0.284,1.773-1.161,2.01
				C421.092,320.062,420.948,320.082,420.808,320.082z M304.015,319.463c-0.144,0-0.293-0.021-0.438-0.062
				c-0.874-0.243-1.386-1.147-1.143-2.021c0.076-0.274,0.153-0.547,0.233-0.819c0.255-0.869,1.171-1.368,2.039-1.109
				c0.869,0.255,1.366,1.169,1.109,2.037c-0.075,0.257-0.147,0.514-0.22,0.771C305.394,318.986,304.735,319.463,304.015,319.463z
				 M418.135,312.269c-0.64,0-1.249-0.378-1.514-1.005c-0.104-0.247-0.208-0.494-0.315-0.739c-0.362-0.832,0.016-1.799,0.848-2.16
				c0.834-0.362,1.799,0.018,2.162,0.848c0.112,0.256,0.223,0.517,0.331,0.774c0.353,0.835-0.038,1.798-0.874,2.151
				C418.565,312.227,418.349,312.269,418.135,312.269z M306.774,311.674c-0.219,0-0.44-0.045-0.653-0.137
				c-0.832-0.359-1.214-1.327-0.854-2.159c0.112-0.262,0.229-0.521,0.346-0.781c0.372-0.825,1.344-1.192,2.17-0.82
				c0.828,0.373,1.195,1.346,0.823,2.171c-0.11,0.246-0.221,0.49-0.325,0.737C308.011,311.302,307.406,311.674,306.774,311.674z
				 M414.422,304.899c-0.562,0-1.107-0.287-1.414-0.804c-0.136-0.231-0.274-0.458-0.413-0.688c-0.474-0.772-0.231-1.781,0.543-2.257
				c0.774-0.474,1.784-0.23,2.258,0.544c0.146,0.241,0.293,0.481,0.436,0.727c0.463,0.778,0.207,1.786-0.574,2.248
				C414.994,304.826,414.706,304.899,414.422,304.899z M310.573,304.335c-0.289,0-0.585-0.078-0.852-0.239
				c-0.773-0.472-1.021-1.482-0.549-2.256c0.146-0.244,0.296-0.484,0.446-0.726c0.482-0.768,1.497-0.998,2.265-0.517
				s0.998,1.496,0.518,2.263c-0.143,0.227-0.284,0.454-0.424,0.684C311.668,304.053,311.127,304.335,310.573,304.335z
				 M409.736,298.102c-0.482,0-0.96-0.211-1.284-0.618c-0.168-0.21-0.337-0.421-0.506-0.628c-0.572-0.703-0.469-1.737,0.233-2.31
				c0.704-0.574,1.736-0.469,2.311,0.233c0.178,0.219,0.354,0.438,0.53,0.657c0.564,0.71,0.448,1.743-0.261,2.308
				C410.455,297.985,410.095,298.102,409.736,298.102z M315.336,297.583c-0.364,0-0.731-0.121-1.036-0.368
				c-0.702-0.571-0.81-1.605-0.237-2.309c0.179-0.22,0.357-0.438,0.539-0.655c0.582-0.695,1.616-0.789,2.313-0.207
				c0.695,0.581,0.788,1.615,0.207,2.312c-0.172,0.206-0.342,0.413-0.512,0.622C316.286,297.376,315.813,297.583,315.336,297.583z
				 M404.171,292.002c-0.408,0-0.817-0.152-1.136-0.456c-0.192-0.186-0.388-0.369-0.583-0.551c-0.664-0.618-0.702-1.657-0.084-2.32
				c0.617-0.665,1.658-0.701,2.32-0.085c0.207,0.194,0.414,0.388,0.617,0.585c0.655,0.627,0.679,1.667,0.052,2.32
				C405.035,291.833,404.604,292.002,404.171,292.002z M320.968,291.542c-0.438,0-0.876-0.175-1.197-0.52
				c-0.621-0.662-0.585-1.701,0.074-2.321c0.207-0.192,0.416-0.384,0.625-0.575c0.671-0.612,1.709-0.562,2.319,0.107
				c0.611,0.671,0.563,1.708-0.107,2.319c-0.199,0.181-0.396,0.362-0.591,0.546C321.774,291.395,321.37,291.542,320.968,291.542z
				 M397.828,286.708c-0.333,0-0.67-0.101-0.96-0.311c-0.22-0.159-0.438-0.315-0.659-0.472c-0.739-0.522-0.915-1.547-0.393-2.288
				c0.522-0.74,1.547-0.917,2.287-0.393c0.231,0.161,0.461,0.326,0.69,0.492c0.733,0.531,0.897,1.558,0.366,2.293
				C398.839,286.472,398.338,286.708,397.828,286.708z M327.366,286.32c-0.515,0-1.021-0.24-1.342-0.692
				c-0.524-0.739-0.35-1.764,0.392-2.289c0.23-0.163,0.461-0.325,0.695-0.486c0.747-0.513,1.771-0.324,2.283,0.423
				c0.514,0.747,0.323,1.771-0.423,2.283c-0.223,0.151-0.439,0.305-0.658,0.459C328.026,286.222,327.694,286.32,327.366,286.32z
				 M390.826,282.324c-0.261,0-0.523-0.062-0.77-0.193c-0.237-0.127-0.477-0.253-0.717-0.376c-0.806-0.418-1.119-1.408-0.703-2.214
				c0.419-0.804,1.408-1.12,2.213-0.702c0.252,0.13,0.501,0.262,0.75,0.394c0.8,0.428,1.104,1.422,0.677,2.222
				C391.982,282.009,391.413,282.324,390.826,282.324z M334.409,282.016c-0.593,0-1.166-0.322-1.457-0.885
				c-0.418-0.805-0.106-1.796,0.699-2.214c0.249-0.13,0.5-0.258,0.75-0.385c0.812-0.409,1.797-0.083,2.206,0.726
				c0.409,0.81,0.083,1.798-0.727,2.205c-0.238,0.121-0.478,0.244-0.717,0.367C334.924,281.957,334.664,282.016,334.409,282.016z
				 M383.29,278.935c-0.188,0-0.382-0.032-0.568-0.101c-0.252-0.095-0.506-0.187-0.759-0.275c-0.854-0.303-1.303-1.24-1.001-2.096
				c0.304-0.854,1.243-1.301,2.096-1c0.269,0.095,0.534,0.191,0.801,0.29c0.851,0.313,1.285,1.258,0.971,2.108
				C384.586,278.524,383.957,278.935,383.29,278.935z M341.975,278.714c-0.675,0-1.306-0.418-1.545-1.09
				c-0.307-0.854,0.138-1.793,0.992-2.099c0.266-0.096,0.533-0.189,0.802-0.28c0.857-0.295,1.79,0.166,2.084,1.022
				c0.293,0.859-0.165,1.792-1.022,2.085c-0.254,0.086-0.507,0.174-0.758,0.265C342.345,278.683,342.158,278.714,341.975,278.714z
				 M375.359,276.613c-0.116,0-0.233-0.013-0.352-0.039c-0.264-0.058-0.524-0.113-0.788-0.167c-0.888-0.183-1.46-1.049-1.279-1.938
				c0.182-0.889,1.046-1.465,1.938-1.279c0.277,0.058,0.553,0.116,0.83,0.176c0.886,0.193,1.446,1.069,1.253,1.955
				C376.793,276.089,376.113,276.613,375.359,276.613z M349.924,276.478c-0.762,0-1.445-0.532-1.606-1.308
				c-0.185-0.888,0.385-1.757,1.272-1.941c0.278-0.059,0.556-0.114,0.833-0.168c0.891-0.173,1.752,0.408,1.925,1.299
				c0.172,0.891-0.41,1.752-1.3,1.925c-0.263,0.051-0.526,0.104-0.787,0.158C350.147,276.468,350.034,276.478,349.924,276.478z
				 M367.191,275.398c-0.043,0-0.086-0.001-0.132-0.005c-0.266-0.021-0.533-0.041-0.802-0.059c-0.905-0.059-1.59-0.841-1.53-1.746
				c0.06-0.904,0.832-1.595,1.746-1.529c0.282,0.018,0.563,0.038,0.845,0.062c0.904,0.071,1.579,0.861,1.509,1.765
				C368.757,274.747,368.039,275.398,367.191,275.398z M358.104,275.35c-0.855,0-1.576-0.662-1.635-1.528
				c-0.062-0.905,0.62-1.688,1.524-1.75c0.282-0.021,0.564-0.038,0.847-0.053c0.901-0.044,1.68,0.643,1.729,1.549
				c0.05,0.904-0.644,1.679-1.549,1.729c-0.268,0.015-0.535,0.031-0.804,0.05C358.181,275.35,358.142,275.35,358.104,275.35z"/>
		</g>
	</g>
	<g>
		<circle fill="#9C9D9D" cx="362.327" cy="334.086" r="55.882"/>
	</g>
	<g>
		<path fill="#9C9D9D" d="M362.326,282.309c-30.174,0-54.747,23.92-55.829,53.829c1.082,29.913,25.655,53.829,55.829,53.829
			c30.175,0,54.749-23.916,55.83-53.829C417.075,306.229,392.501,282.309,362.326,282.309z"/>
	</g>
	<g>
		<path fill="#9C9D9D" d="M306.497,336.138c0.354,9.772,3.228,18.898,7.973,26.765c12.859,10.864,29.468,17.426,47.622,17.426
			c18.603,0,35.592-6.879,48.576-18.226c4.461-7.683,7.146-16.525,7.488-25.965c-1.081-29.909-25.655-53.829-55.83-53.829
			C332.153,282.309,307.579,306.229,306.497,336.138z"/>
	</g>
	<g>
		<g>
			<polygon fill="#9C9D9D" points="345.24,299.812 345.244,299.821 345.247,299.825 			"/>
		</g>
		<g>
			<polygon fill="#9C9D9D" points="330.392,312.948 330.401,312.953 330.406,312.957 			"/>
		</g>
		<g>
			<polygon fill="#9C9D9D" points="324.101,331.75 324.106,331.75 324.116,331.75 			"/>
		</g>
		<g>
			<path fill="#9C9D9D" d="M328.054,351.177h0.002c0.005-0.003,0.006-0.006,0.012-0.009L328.054,351.177z"/>
		</g>
		<g>
			<polygon fill="#9C9D9D" points="341.19,366.025 341.192,366.023 341.198,366.011 			"/>
		</g>
		<g>
			<path fill="#BFBFC0" d="M399.658,335.457c1.595-0.315,3.131-0.836,4.577-1.483c-1.55,0.352-3.116,0.555-4.671,0.553
				c-1.554,0.002-3.113-0.165-4.694-0.319l0.153,0.014c-3.215-0.862-6.346-2.065-9.811-2.889c-1.733-0.405-3.56-0.697-5.454-0.744
				c-0.941-0.021-1.896,0.014-2.852,0.113c-0.169-0.744-0.397-1.467-0.674-2.162c0.173-0.209,0.348-0.421,0.533-0.621
				c0.488-0.541,1.022-1.049,1.595-1.528c1.142-0.958,2.452-1.801,3.864-2.556c2.835-1.509,6.057-2.709,9.141-4.228l0.151-0.075
				l-0.013,0.01c1.29-0.926,2.618-1.859,3.837-2.934c1.224-1.071,2.293-2.29,3.223-3.574c-1.167,1.081-2.422,2.039-3.771,2.815
				c-1.344,0.778-2.777,1.415-4.224,2.071l0.14-0.063c-3.217,0.858-6.526,1.381-9.939,2.403c-1.705,0.514-3.433,1.177-5.097,2.082
				c-0.83,0.451-1.64,0.96-2.417,1.525c-0.515-0.553-1.069-1.066-1.662-1.534c0.046-0.269,0.09-0.541,0.152-0.81
				c0.153-0.712,0.362-1.418,0.619-2.119c0.509-1.4,1.222-2.785,2.067-4.144c1.7-2.727,3.89-5.376,5.803-8.233l0.094-0.139
				l-0.004,0.014c0.651-1.449,1.335-2.919,1.852-4.46c0.525-1.54,0.842-3.13,1.005-4.707c-0.47,1.521-1.077,2.979-1.858,4.323
				c-0.774,1.346-1.697,2.615-2.621,3.907l0.089-0.127c-2.355,2.354-4.963,4.462-7.409,7.053c-1.216,1.298-2.382,2.734-3.37,4.349
				c-0.488,0.802-0.933,1.645-1.322,2.517c-0.715-0.218-1.457-0.368-2.212-0.478c-0.097-0.256-0.193-0.52-0.277-0.782
				c-0.22-0.695-0.395-1.41-0.524-2.144c-0.258-1.471-0.333-3.021-0.276-4.625c0.107-3.208,0.675-6.599,0.907-10.03l0.011-0.159
				c-0.158-1.577-0.3-3.189-0.622-4.783c-0.316-1.596-0.835-3.13-1.482-4.578c0.353,1.551,0.554,3.117,0.553,4.673
				c0.002,1.555-0.164,3.111-0.317,4.694l0.013-0.154c-0.864,3.218-2.065,6.346-2.889,9.812c-0.406,1.732-0.698,3.558-0.745,5.453
				c-0.022,0.941,0.013,1.897,0.113,2.849c-0.743,0.174-1.467,0.397-2.164,0.678c-0.208-0.174-0.42-0.35-0.622-0.534
				c-0.537-0.492-1.047-1.022-1.525-1.595c-0.96-1.144-1.8-2.451-2.553-3.864c-1.512-2.833-2.715-6.056-4.229-9.142l-0.07-0.144
				c-0.925-1.287-1.855-2.613-2.93-3.832c-1.072-1.223-2.289-2.292-3.573-3.223c1.08,1.166,2.038,2.423,2.813,3.77
				c0.78,1.347,1.414,2.777,2.073,4.225l-0.065-0.139c0.861,3.216,1.383,6.527,2.403,9.941c0.514,1.703,1.177,3.431,2.083,5.094
				c0.451,0.829,0.96,1.64,1.525,2.416c-0.552,0.517-1.066,1.07-1.534,1.664c-0.27-0.045-0.541-0.091-0.81-0.151
				c-0.713-0.157-1.42-0.361-2.119-0.618c-1.404-0.511-2.784-1.221-4.144-2.07c-2.726-1.699-5.377-3.888-8.232-5.802l-0.133-0.09
				c-1.444-0.653-2.915-1.335-4.454-1.852c-1.539-0.525-3.128-0.844-4.705-1.006c1.52,0.47,2.977,1.079,4.323,1.858
				c1.347,0.775,2.61,1.698,3.904,2.623l-0.125-0.09c2.354,2.356,4.462,4.963,7.053,7.408c1.297,1.217,2.733,2.384,4.351,3.371
				c0.8,0.488,1.642,0.933,2.515,1.321c-0.218,0.716-0.369,1.457-0.478,2.215c-0.257,0.095-0.519,0.192-0.783,0.274
				c-0.693,0.222-1.408,0.395-2.144,0.524c-1.471,0.26-3.021,0.334-4.622,0.279c-3.211-0.11-6.602-0.678-10.031-0.907l-0.165-0.014
				c-1.576,0.159-3.188,0.301-4.778,0.623c-1.595,0.316-3.131,0.834-4.578,1.483c1.552-0.354,3.118-0.555,4.673-0.552
				c1.556-0.005,3.111,0.163,4.693,0.316l-0.153-0.012c3.217,0.862,6.345,2.064,9.812,2.888c1.732,0.407,3.56,0.697,5.453,0.743
				c0.94,0.023,1.896-0.013,2.851-0.113c0.171,0.745,0.396,1.467,0.675,2.163c-0.172,0.211-0.348,0.423-0.534,0.624
				c-0.489,0.537-1.022,1.047-1.595,1.525c-1.142,0.96-2.449,1.801-3.864,2.554c-2.833,1.51-6.056,2.714-9.14,4.229l-0.149,0.074
				c-1.286,0.925-2.61,1.853-3.826,2.926c-1.224,1.072-2.294,2.288-3.223,3.574c1.167-1.081,2.422-2.039,3.77-2.814
				c1.346-0.78,2.777-1.415,4.224-2.072l-0.138,0.066c3.216-0.861,6.528-1.385,9.939-2.406c1.704-0.513,3.432-1.175,5.095-2.082
				c0.828-0.451,1.64-0.961,2.417-1.525c0.517,0.552,1.069,1.065,1.662,1.535c-0.045,0.268-0.089,0.54-0.151,0.81
				c-0.156,0.711-0.361,1.417-0.618,2.118c-0.51,1.402-1.222,2.783-2.068,4.145c-1.7,2.726-3.889,5.376-5.802,8.232l-0.095,0.139
				c-0.649,1.443-1.332,2.91-1.849,4.446c-0.523,1.54-0.842,3.129-1.005,4.708c0.47-1.521,1.079-2.978,1.858-4.324
				c0.774-1.349,1.697-2.612,2.623-3.905l-0.089,0.125c2.355-2.354,4.962-4.462,7.407-7.053c1.218-1.297,2.384-2.732,3.371-4.349
				c0.489-0.803,0.932-1.644,1.321-2.517c0.719,0.218,1.46,0.38,2.218,0.488c0.094,0.254,0.19,0.511,0.271,0.771
				c0.222,0.694,0.396,1.408,0.524,2.146c0.26,1.468,0.335,3.02,0.28,4.623c-0.11,3.21-0.68,6.6-0.909,10.03l-0.012,0.167v-0.013
				c0.159,1.58,0.301,3.195,0.623,4.788c0.315,1.595,0.835,3.13,1.484,4.577c-0.354-1.551-0.555-3.118-0.553-4.671
				c-0.004-1.554,0.163-3.112,0.317-4.694l-0.014,0.153c0.863-3.215,2.065-6.346,2.888-9.812c0.407-1.731,0.697-3.558,0.744-5.452
				c0.023-0.943-0.013-1.901-0.113-2.859c0.742-0.175,1.468-0.39,2.162-0.666c0.211,0.171,0.422,0.347,0.624,0.533
				c0.54,0.49,1.047,1.023,1.526,1.594c0.959,1.145,1.801,2.452,2.554,3.864c1.51,2.836,2.711,6.055,4.229,9.141l0.075,0.152
				l-0.009-0.013c0.928,1.29,1.858,2.618,2.934,3.836c1.072,1.224,2.288,2.293,3.573,3.223c-1.082-1.165-2.04-2.423-2.813-3.77
				c-0.781-1.344-1.416-2.776-2.072-4.225l0.064,0.141c-0.861-3.217-1.384-6.53-2.404-9.941c-0.515-1.703-1.176-3.431-2.082-5.096
				c-0.451-0.826-0.962-1.639-1.527-2.416c0.553-0.517,1.065-1.069,1.534-1.662c0.269,0.045,0.541,0.09,0.809,0.15
				c0.715,0.157,1.421,0.363,2.119,0.619c1.405,0.509,2.787,1.22,4.147,2.069c2.726,1.701,5.374,3.888,8.23,5.803l0.142,0.093
				l-0.015-0.005c1.447,0.651,2.92,1.337,4.459,1.853c1.539,0.526,3.128,0.842,4.707,1.005c-1.521-0.469-2.978-1.076-4.323-1.857
				c-1.346-0.773-2.613-1.698-3.908-2.623l0.127,0.091c-2.353-2.356-4.46-4.963-7.052-7.409c-1.298-1.217-2.733-2.383-4.352-3.37
				c-0.799-0.489-1.641-0.934-2.514-1.324c0.217-0.715,0.367-1.456,0.477-2.21c0.258-0.098,0.519-0.193,0.781-0.275
				c0.696-0.223,1.411-0.395,2.146-0.525c1.469-0.258,3.021-0.334,4.624-0.279c3.21,0.109,6.598,0.681,10.028,0.907l0.17,0.011
				l-0.015,0.004C396.449,335.921,398.066,335.778,399.658,335.457z"/>
		</g>
	</g>
	<g>
		<circle fill="#9C9D9D" cx="362.328" cy="334.086" r="11.753"/>
	</g>
</g>
<g>
	<path fill="#BFBFC0" d="M334.298,133.482c0,6.539-4.517,11.838-10.093,11.838H191.36c-5.57,0-10.089-5.299-10.089-11.838v-15.783
		c0-6.538,4.519-11.839,10.089-11.839h132.846c5.576,0,10.093,5.301,10.093,11.839V133.482z"/>
</g>
<g>
	<path fill="#9C9D9D" d="M323.053,129.461c0,2.293-3.012,4.151-6.727,4.151H197.427c-3.716,0-6.728-1.858-6.728-4.151v-8.133
		c0-2.293,3.011-4.152,6.728-4.152h118.899c3.715,0,6.727,1.859,6.727,4.152V129.461z"/>
</g>
</svg>
