<?xml version="1.0" encoding="utf-8"?>
<!-- Generator: Adobe Illustrator 16.0.1, SVG Export Plug-In . SVG Version: 6.00 Build 0)  -->
<!DOCTYPE svg PUBLIC "-//W3C//DTD SVG 1.1//EN" "http://www.w3.org/Graphics/SVG/1.1/DTD/svg11.dtd">
<svg version="1.1" id="content" xmlns="http://www.w3.org/2000/svg" xmlns:xlink="http://www.w3.org/1999/xlink" x="0px" y="0px"
	 width="500px" height="500px" viewBox="0 0 500 500" enable-background="new 0 0 500 500" xml:space="preserve">
<g id="bounds">
	<rect x="0" fill="none" width="500" height="500"/>
</g>
<g>
	<g>
		<g>
			<path fill="#BFBFC0" d="M180.888,327.206c0,9.898-8.098,17.996-17.996,17.996h-0.487c-9.897,0-17.996-8.098-17.996-17.996
				v-99.163c0-9.897,8.098-17.996,17.996-17.996h0.487c9.897,0,17.996,8.098,17.996,17.996V327.206z"/>
		</g>
	</g>
	<g>
		<g>
			<path fill="#BFBFC0" d="M371.925,327.206c0,9.898-8.099,17.996-17.996,17.996h-0.486c-9.897,0-17.996-8.098-17.996-17.996
				v-99.163c0-9.897,8.099-17.996,17.996-17.996h0.486c9.897,0,17.996,8.098,17.996,17.996V327.206z"/>
		</g>
	</g>
	<g>
		<g>
			<path fill="#BFBFC0" d="M247.62,437.533c0,11.109-9.089,20.198-20.198,20.198h-1.944c-11.109,0-20.198-9.089-20.198-20.198
				v-106.29c0-11.109,9.089-20.198,20.198-20.198h1.944c11.109,0,20.198,9.089,20.198,20.198V437.533z"/>
		</g>
		<g>
			<path fill="#335DA8" d="M310.513,437.533c0,11.109-9.089,20.198-20.198,20.198h-1.944c-11.109,0-20.198-9.089-20.198-20.198
				v-106.29c0-11.109,9.089-20.198,20.198-20.198h1.944c11.109,0,20.198,9.089,20.198,20.198V437.533z"/>
		</g>
		<g>
			<path fill="#BFBFC0" d="M311.054,437.276c0,11.25-9.205,20.455-20.455,20.455h-2.514c-11.25,0-20.455-9.205-20.455-20.455V331.5
				c0-11.25,9.205-20.455,20.455-20.455h2.514c11.25,0,20.455,9.205,20.455,20.455V437.276z"/>
		</g>
	</g>
	<g>
		<circle fill="#BFBFC0" cx="258.168" cy="134.681" r="70.809"/>
	</g>
	<g>
		<circle fill="#FFFFFF" cx="231.394" cy="127.359" r="12.491"/>
		<circle fill="#FFFFFF" cx="283.928" cy="127.359" r="12.491"/>
		<path fill="#FFFFFF" d="M270.658,162.727c0,6.897-5.592,12.489-12.491,12.489c-6.897,0-12.491-5.592-12.491-12.489H270.658z"/>
	</g>
	<g>
		<path fill="#FED9AE" d="M318.203,357.438c-0.831,9.753-9.52,17.732-19.308,17.732h-81.708c-9.788,0-18.464-7.98-19.281-17.735
			l-10.846-129.652c-0.816-9.754,6.525-17.735,16.313-17.735H312.96c9.788,0,17.117,7.979,16.286,17.733L318.203,357.438z"/>
	</g>
</g>
<g>
	<path fill="#9C9D9D" d="M227.421,345.203h-1.943c-11.109,0-20.199,9.089-20.199,20.197v72.133h42.341v-26.424v-3.937v-41.773
		C247.62,354.292,238.53,345.203,227.421,345.203z"/>
	<path fill="#9C9D9D" d="M290.599,345.202h-2.512c-11.251,0-20.457,9.204-20.457,20.455v41.517h-0.156v3.937h0.156v26.165h43.424
		V411.11v-3.937v-41.517C311.054,354.406,301.85,345.202,290.599,345.202z"/>
</g>
<g>
	<path fill="#9C9D9D" d="M345.865,133.337c0,49.348-39.262,72.154-87.697,72.154c-48.435,0-87.696-22.806-87.696-72.154
		c0-17.788,5.1-33.902,13.892-47.241c14.647-22.229,39.555-36.75,68.198-38.424c1.851-0.121,3.72-0.172,5.606-0.172
		c1.886,0,3.758,0.051,5.607,0.172c28.643,1.675,53.55,16.195,68.199,38.424C340.764,99.435,345.865,115.549,345.865,133.337z
		 M312.656,112.417c-0.853-1.655-1.774-3.271-2.764-4.835c-10.871-17.239-29.82-28.679-51.395-28.798h-0.661
		c-20.25,0.112-38.183,10.202-49.296,25.69c-1.801,2.512-3.427,5.168-4.857,7.943c-4.447,8.667-6.964,18.518-6.964,28.973
		c0,34.576,27.511,62.606,61.447,62.606c33.936,0,61.446-28.03,61.446-62.606C319.614,130.935,317.098,121.077,312.656,112.417z"/>
	<path fill="#9C9D9D" d="M210.452,53.921c6.277,7.59,4.018,20.053-5.049,27.835c-9.064,7.784-21.503,7.94-27.781,0.35
		c-6.276-7.589-4.017-20.053,5.049-27.835C191.737,46.486,204.175,46.33,210.452,53.921z"/>
	<path fill="#BFBFC0" d="M206.176,59.623c3.723,4.502,1.748,12.44-4.414,17.73c-6.161,5.29-14.175,5.928-17.898,1.425
		c-3.724-4.502-1.747-12.441,4.414-17.73C194.438,55.758,202.452,55.12,206.176,59.623z"/>
	<path fill="#9C9D9D" d="M305.883,53.921c-6.278,7.59-4.018,20.053,5.049,27.835c9.064,7.784,21.502,7.94,27.781,0.35
		c6.276-7.589,4.017-20.053-5.05-27.835C324.598,46.486,312.16,46.33,305.883,53.921z"/>
	<path fill="#BFBFC0" d="M310.159,59.623c-3.723,4.502-1.749,12.44,4.413,17.73c6.161,5.29,14.175,5.928,17.898,1.425
		c3.724-4.502,1.748-12.441-4.413-17.73C321.896,55.758,313.885,55.12,310.159,59.623z"/>
</g>
<path fill="#9C9D9D" d="M184.89,210.048l12.984,147.39c0.834,9.753,9.525,17.732,19.313,17.732h81.708
	c9.788,0,18.461-7.98,19.274-17.735l12.587-147.387H184.89z"/>
<path fill="#9C9D9D" d="M183.645,323.435c0,12.431-41.989,12.431-41.989,0v-93.495c0-12.431,8.118-22.601,18.04-22.601h5.908
	c9.924,0,18.042,10.17,18.042,22.601V323.435z"/>
<path fill="#9C9D9D" d="M374.681,323.435c0,12.431-41.99,12.431-41.99,0v-93.495c0-12.431,8.119-22.601,18.041-22.601h5.907
	c9.924,0,18.042,10.17,18.042,22.601V323.435z"/>
<ellipse fill="#BFBFC0" cx="258.104" cy="288.62" rx="50.174" ry="60.747"/>
<g>
	<circle fill="#BFBFC0" cx="263.342" cy="220.372" r="4.132"/>
	<circle fill="#9C9D9D" cx="263.342" cy="220.372" r="2.066"/>
</g>
<g>
	<circle fill="#BFBFC0" cx="263.342" cy="249.948" r="4.132"/>
	<circle fill="#9C9D9D" cx="263.342" cy="249.948" r="2.066"/>
</g>
<g>
	<circle fill="#BFBFC0" cx="263.342" cy="279.526" r="4.132"/>
	<circle fill="#9C9D9D" cx="263.342" cy="279.526" r="2.066"/>
</g>
<g>
	<circle fill="#BFBFC0" cx="263.342" cy="309.103" r="4.132"/>
	<circle fill="#9C9D9D" cx="263.342" cy="309.103" r="2.066"/>
</g>
<g>
	<circle fill="#BFBFC0" cx="263.342" cy="338.681" r="4.132"/>
	<circle fill="#9C9D9D" cx="263.342" cy="338.681" r="2.066"/>
</g>
<g>
	<circle fill="#BFBFC0" cx="263.342" cy="368.257" r="4.132"/>
	<circle fill="#9C9D9D" cx="263.342" cy="368.257" r="2.066"/>
</g>
<rect x="254.385" y="210.048" fill="#9C9D9D" width="1.375" height="165.122"/>
</svg>
