<?xml version="1.0" encoding="utf-8"?>
<!-- Generator: Adobe Illustrator 16.0.1, SVG Export Plug-In . SVG Version: 6.00 Build 0)  -->
<!DOCTYPE svg PUBLIC "-//W3C//DTD SVG 1.1//EN" "http://www.w3.org/Graphics/SVG/1.1/DTD/svg11.dtd">
<svg version="1.1" id="content" xmlns="http://www.w3.org/2000/svg" xmlns:xlink="http://www.w3.org/1999/xlink" x="0px" y="0px"
	 width="500px" height="500px" viewBox="0 0 500 500" enable-background="new 0 0 500 500" xml:space="preserve">
<g id="bounds">
	<rect x="0" fill="none" width="500" height="500"/>
</g>
<path fill="#9C9D9D" d="M32.116,511.671"/>
<path fill="#9C9D9D" d="M359.215,95.888l-14.679-0.01c8.547,16.353,14.309,33.319,18.086,47.546
	c10.671-1.781,18.869-11.602,18.881-23.561C381.515,106.632,371.535,95.902,359.215,95.888z"/>
<g>
	<path fill="#BFBFC0" d="M305.101,415.309h-44.538v-73.454c0-11.54,9.441-20.981,20.981-20.981h2.576
		c11.54,0,20.98,9.441,20.98,20.981V415.309z"/>
</g>
<g>
	<path fill="#BFBFC0" d="M240.039,415.572h-43.427V341.59c0-11.392,9.323-20.714,20.717-20.714h1.993
		c11.395,0,20.717,9.322,20.717,20.714V415.572z"/>
</g>
<rect x="214.851" y="326.905" fill="#9C9D9D" width="7.848" height="82.989"/>
<rect x="279.762" y="326.905" fill="#9C9D9D" width="7.848" height="82.989"/>
<rect x="175.06" y="409.207" fill="#9C9D9D" width="70.864" height="30.199"/>
<rect x="255.823" y="409.207" fill="#9C9D9D" width="70.865" height="30.199"/>
<rect x="175.06" y="429.548" fill="#9C9D9D" width="70.864" height="9.858"/>
<rect x="255.823" y="429.548" fill="#9C9D9D" width="70.865" height="9.858"/>
<path fill="#9C9D9D" d="M175.702,182.254l13.316,151.168c0.856,10.002,9.771,18.188,19.81,18.188h83.802
	c10.039,0,18.935-8.186,19.768-18.189l12.912-151.167H175.702z"/>
<g>
	<rect x="200.24" y="198.283" fill="#BFBFC0" width="39.238" height="33.688"/>
	<path fill="#FFFFFF" d="M198.427,244.789c0,2.989,2.426,5.412,5.418,5.412s5.417-2.423,5.417-5.412
		c0-2.992-2.425-5.419-5.417-5.419S198.427,241.797,198.427,244.789"/>
	<path fill="#FFFFFF" d="M220.027,239.37c-2.99,0-5.416,2.427-5.416,5.419c0,2.989,2.425,5.412,5.416,5.412
		c2.992,0,5.417-2.423,5.417-5.412C225.444,241.797,223.019,239.37,220.027,239.37z"/>
</g>
<g>
	<rect x="264.567" y="198.283" fill="#BFBFC0" width="39.237" height="33.688"/>
	<path fill="#FFFFFF" d="M305.618,244.789c0,2.989-2.428,5.412-5.418,5.412c-2.991,0-5.416-2.423-5.416-5.412
		c0-2.992,2.425-5.419,5.416-5.419C303.191,239.37,305.618,241.797,305.618,244.789"/>
	<path fill="#FFFFFF" d="M284.019,239.37c2.99,0,5.415,2.427,5.415,5.419c0,2.989-2.425,5.412-5.415,5.412
		c-2.991,0-5.417-2.423-5.417-5.412C278.602,241.797,281.028,239.37,284.019,239.37z"/>
</g>
<rect x="132.505" y="182.744" fill="#BFBFC0" width="40.28" height="123.521"/>
<rect x="148.721" y="182.744" fill="#9C9D9D" width="7.848" height="123.521"/>
<polygon fill="#BFBFC0" points="125.242,345.02 142.227,345.02 142.227,327.676 163.073,327.676 163.073,345.02 180.057,345.02 
	180.057,306.265 125.242,306.265 "/>
<rect x="132.5" y="290.136" fill="#9C9D9D" width="40.285" height="16.129"/>
<rect x="328.681" y="182.744" fill="#BFBFC0" width="40.278" height="123.521"/>
<polygon fill="#BFBFC0" points="320.049,345.02 337.881,345.02 337.881,327.676 359.769,327.676 359.769,345.02 377.601,345.02 
	377.601,306.265 320.049,306.265 "/>
<g>
	<path fill="#BFBFC0" d="M250.068,259.645c-20.086,0-36.425,16.339-36.425,36.425c0,20.095,16.339,36.438,36.425,36.438
		s36.433-16.343,36.433-36.438C286.5,275.983,270.154,259.645,250.068,259.645z"/>
	<polygon fill="#E65A5A" points="250.068,251.382 250.068,251.382 250.068,251.382 	"/>
	<path fill="#9C9D9D" d="M250.068,265.334c-16.979,0-30.746,13.759-30.746,30.735c0,16.992,13.767,30.754,30.746,30.754
		c16.987,0,30.748-13.762,30.748-30.754C280.816,279.093,267.055,265.334,250.068,265.334z"/>
	<polygon fill="#00465A" points="250.068,256.144 250.068,256.144 250.068,256.144 	"/>
	<path fill="#FFFFFF" d="M268.488,292.856h-15.203v-16.298c0-1.775-1.443-3.216-3.217-3.216c-1.772,0-3.217,1.44-3.217,3.216v19.511
		c0,1.778,1.444,3.223,3.217,3.223h18.42c1.772,0,3.213-1.444,3.213-3.223C271.7,294.297,270.26,292.856,268.488,292.856z"/>
</g>
<rect x="344.902" y="182.744" fill="#9C9D9D" width="7.848" height="123.521"/>
<rect x="328.674" y="290.136" fill="#9C9D9D" width="40.285" height="16.129"/>
<path fill="#9C9D9D" d="M131.463,177.581c0,0,0-145.074,118.014-145.074c0.171,0,0.337-0.012,0.508-0.012c0.004,0,0.007,0,0.011,0
	c0.003,0,0.007,0,0.007,0c0.17,0,0.34,0.007,0.507,0.012c0.066,0,0.129,0.003,0.191,0.003l-0.133,145.063L131.463,177.581z"/>
<path fill="#BFBFC0" d="M369.347,177.566c0,0,5.139-145.06-117.75-145.06c-0.17,0-0.337-0.008-0.508-0.011c-0.004,0-0.007,0-0.007,0
	c-0.007,0-0.01,0-0.01,0c-0.171,0-0.341,0.007-0.509,0.012c-0.065,0-0.127,0.003-0.189,0.003l-0.134,145.063L369.347,177.566z"/>
<path fill="#FFFFFF" d="M242.973,113.149c-0.016,17.086-14.467,30.921-32.278,30.903l0,0c-17.817-0.017-32.245-13.884-32.228-30.967
	l0,0c0.015-17.083,14.466-30.918,32.277-30.901l0,0C228.558,82.203,242.987,96.067,242.973,113.149L242.973,113.149z"/>
<path fill="#FFFFFF" d="M323.884,113.565c-0.008,11.936-10.104,21.599-22.549,21.588l0,0c-12.445-0.013-22.524-9.7-22.516-21.636
	l0,0c0.01-11.936,10.108-21.6,22.553-21.586l0,0C313.817,91.942,323.896,101.627,323.884,113.565L323.884,113.565z"/>
<g>
	<path fill="#9C9D9D" d="M141.758,95.688l14.679,0.015c-8.578,16.337-14.368,33.296-18.17,47.512
		c-10.669-1.798-18.848-11.634-18.837-23.596C119.44,106.393,129.438,95.678,141.758,95.688z"/>
</g>
<path fill="#9C9D9D" d="M263.475,44.674c0,2.119-1.763,3.834-3.938,3.831c-2.174,0-3.936-1.719-3.931-3.838
	c-0.001-2.12,1.766-3.835,3.938-3.833C261.719,40.834,263.48,42.553,263.475,44.674z"/>
<path fill="#9C9D9D" d="M263.458,65.13c-0.002,2.12-1.766,3.836-3.94,3.835c-2.171-0.002-3.932-1.722-3.932-3.842
	c0.004-2.116,1.767-3.834,3.938-3.831C261.7,61.295,263.458,63.014,263.458,65.13z"/>
<path fill="#9C9D9D" d="M263.439,85.59c-0.003,2.117-1.766,3.833-3.937,3.833c-2.176-0.003-3.936-1.722-3.936-3.838
	c0.003-2.12,1.766-3.835,3.943-3.835C261.68,81.752,263.439,83.471,263.439,85.59z"/>
<ellipse fill="#9C9D9D" cx="259.485" cy="106.045" rx="3.935" ry="3.835"/>
<ellipse fill="#9C9D9D" cx="259.466" cy="126.501" rx="3.935" ry="3.835"/>
<path fill="#9C9D9D" d="M263.403,146.193c0,2.12-1.763,3.835-3.938,3.832c-2.175,0-3.935-1.719-3.932-3.838
	c0.004-2.12,1.768-3.834,3.938-3.832C261.648,142.356,263.406,144.076,263.403,146.193z"/>
<path fill="#9C9D9D" d="M263.403,165.881c0,2.12-1.763,3.835-3.938,3.832c-2.175,0-3.935-1.719-3.932-3.839
	c0.004-2.12,1.768-3.833,3.938-3.832C261.648,162.043,263.406,163.764,263.403,165.881z"/>
<rect x="119.669" y="182.744" fill="#BFBFC0" width="13.076" height="78.759"/>
<ellipse fill="#9C9D9D" cx="137.96" cy="191.437" rx="3.935" ry="3.834"/>
<path fill="#9C9D9D" d="M141.878,211.896c-0.004,2.12-1.767,3.836-3.941,3.835c-2.172-0.001-3.932-1.722-3.932-3.841
	c0.003-2.116,1.766-3.834,3.938-3.831C140.118,208.062,141.878,209.78,141.878,211.896z"/>
<path fill="#9C9D9D" d="M141.858,232.356c-0.003,2.117-1.766,3.833-3.937,3.833c-2.176-0.003-3.936-1.723-3.936-3.838
	c0.003-2.121,1.767-3.835,3.942-3.835C140.098,228.519,141.858,230.237,141.858,232.356z"/>
<path fill="#9C9D9D" d="M141.839,252.812c0,2.121-1.763,3.838-3.938,3.833c-2.175-0.002-3.935-1.722-3.931-3.838
	c0-2.119,1.763-3.836,3.938-3.832C140.081,248.976,141.842,250.694,141.839,252.812z"/>
<rect x="367.947" y="182.744" fill="#BFBFC0" width="13.077" height="78.759"/>
<path fill="#9C9D9D" d="M359.058,191.44c0,2.118,1.764,3.833,3.938,3.831c2.175,0,3.938-1.718,3.932-3.838
	c0.001-2.12-1.767-3.835-3.938-3.832C360.815,187.601,359.054,189.319,359.058,191.44z"/>
<path fill="#9C9D9D" d="M359.074,211.896c0.003,2.12,1.766,3.836,3.94,3.835c2.172-0.001,3.933-1.722,3.932-3.841
	c-0.004-2.116-1.767-3.834-3.938-3.831C360.833,208.062,359.074,209.78,359.074,211.896z"/>
<path fill="#9C9D9D" d="M359.094,232.356c0.003,2.117,1.766,3.833,3.938,3.833c2.175-0.003,3.935-1.723,3.936-3.838
	c-0.003-2.121-1.767-3.835-3.942-3.835C360.854,228.519,359.094,230.237,359.094,232.356z"/>
<path fill="#9C9D9D" d="M359.114,252.812c0,2.121,1.764,3.838,3.938,3.833c2.176-0.002,3.937-1.722,3.932-3.838
	c0-2.119-1.763-3.836-3.938-3.832C360.871,248.976,359.111,250.694,359.114,252.812z"/>
</svg>
