<?xml version="1.0" encoding="utf-8"?>
<!-- Generator: Adobe Illustrator 16.0.1, SVG Export Plug-In . SVG Version: 6.00 Build 0)  -->
<!DOCTYPE svg PUBLIC "-//W3C//DTD SVG 1.1//EN" "http://www.w3.org/Graphics/SVG/1.1/DTD/svg11.dtd">
<svg version="1.1" id="content" xmlns="http://www.w3.org/2000/svg" xmlns:xlink="http://www.w3.org/1999/xlink" x="0px" y="0px"
	 width="500px" height="500px" viewBox="0 0 500 500" enable-background="new 0 0 500 500" xml:space="preserve">
<g id="bounds">
	<rect x="0" fill="none" width="500" height="500"/>
</g>
<path fill="#9C9D9D" d="M32.116,511.671"/>
<g id="avatar_1_">
	<g>
		<g>
			<g>
				<path fill="#BFBFC0" d="M180.193,304.592c0,9.827-8.04,17.868-17.865,17.868h-0.483c-9.828,0-17.869-8.044-17.869-17.868
					v-98.456c0-9.828,8.041-17.868,17.869-17.868h0.483c9.825,0,17.865,8.041,17.865,17.868V304.592z"/>
			</g>
		</g>
		<g>
			<g>
				<path fill="#BFBFC0" d="M369.871,304.592c0,9.827-8.04,17.868-17.867,17.868h-0.482c-9.828,0-17.863-8.044-17.863-17.868
					v-98.456c0-9.828,8.037-17.868,17.863-17.868h0.482c9.828,0,17.867,8.041,17.867,17.868V304.592L369.871,304.592z"/>
			</g>
		</g>
		<g>
			<g>
				<path fill="#9C9D9D" d="M204.41,414.135v-71.621c0-11.027,9.023-20.054,20.056-20.054h1.929c11.03,0,20.058,9.024,20.058,20.054
					v71.621H204.41L204.41,414.135z"/>
			</g>
			<g>
				<path fill="#9C9D9D" d="M266.319,413.88v-71.111c0-11.17,9.142-20.309,20.312-20.309h2.494c11.172,0,20.311,9.139,20.311,20.309
					v71.111H266.319z"/>
			</g>
		</g>
		<g>
			<circle fill="#BFBFC0" cx="256.924" cy="113.437" r="70.305"/>
		</g>
		<g>
			<circle fill="#FFFFFF" cx="230.341" cy="106.167" r="12.402"/>
			<circle fill="#FFFFFF" cx="282.501" cy="106.167" r="12.402"/>
			<path fill="#FFFFFF" d="M269.326,141.282c0,6.849-5.556,12.401-12.402,12.401c-6.852,0-12.404-5.553-12.404-12.401H269.326z"/>
		</g>
		<g>
			<path fill="#BFBFC0" d="M316.531,334.608c-0.822,9.685-9.449,17.605-19.17,17.605h-81.125c-9.72,0-18.334-7.924-19.144-17.607
				l-10.771-128.729c-0.81-9.685,6.479-17.609,16.197-17.609h108.81c9.72,0,16.994,7.923,16.171,17.606L316.531,334.608z"/>
		</g>
	</g>
</g>
<path fill="#9C9D9D" d="M193.048,74.19c3.931,15.343-1.167,45.323-30.135,61.09C151.726,116.787,163.914,73.28,193.048,74.19z"/>
<path fill="#9C9D9D" d="M173.931,101.322c17.298,3.494,42.603,23.628,38.45,61.587C187.253,165.414,153.709,131.208,173.931,101.322
	z"/>
<path fill="#9C9D9D" d="M307.48,78.824c-6.776,14.318-7.472,44.719,17.97,65.708C339.949,128.502,336.257,83.472,307.48,78.824z"/>
<path fill="#9C9D9D" d="M341.627,104.729c-15.515,3.194-40.225,20.92-41.694,53.869
	C321.459,160.544,355.218,130.514,341.627,104.729z"/>
<path fill="#9C9D9D" d="M304.098,72.906c1.458,15.774,16.34,42.292,48.923,47.401C357.338,99.128,331.231,62.253,304.098,72.906z"/>
<g>
	<path fill="#9C9D9D" d="M243.743,414.88h-43.242v-73.668c0-11.344,9.283-20.626,20.628-20.626h1.984
		c11.346,0,20.629,9.282,20.629,20.626V414.88z"/>
</g>
<g>
	<path fill="#9C9D9D" d="M308.528,414.616H264.18v-73.141c0-11.49,9.4-20.892,20.892-20.892h2.565
		c11.49,0,20.891,9.401,20.891,20.892V414.616z"/>
</g>
<path fill="#9C9D9D" d="M240.743,48.333c0,0-6.253-7.528-17.812-4.601C225.015,46.66,230.889,50.842,240.743,48.333z"/>
<path fill="#9C9D9D" d="M239.907,50.871c0,0,6.494-8.806-3.874-15.489C233.314,38.556,231.052,45.182,239.907,50.871z"/>
<path fill="#9C9D9D" d="M240.743,48.333c0,0-2.272-9.481,10.423-8.783C247.187,43.452,248.892,46.798,240.743,48.333z"/>
<path fill="#9C9D9D" d="M245.552,61.517c0,0-39.231,5.79-40.214,29.719C203.508,79.005,202.334,53.723,245.552,61.517z"/>
<path fill="#9C9D9D" d="M244.289,54.641c2.046,16.334-30.033,40.503-65.919,48.794C168.638,76.411,208.816,50.557,244.289,54.641z"
	/>
<path fill="#9C9D9D" d="M253.245,60.508c-9.918,12.692-42.21,29.786-85.76,22.92C172.92,64.241,224.623,42.324,253.245,60.508z"/>
<path fill="#9C9D9D" d="M254.996,59.043c-17.369,8.435-57.721,14.194-92.137-4.837C180.554,38.627,241.52,34.29,254.996,59.043z"/>
<path fill="#9C9D9D" d="M269.284,57.278c-19.738,2.216-65.178-1.564-73.701-29.539C229.598,24.583,273.543,32.933,269.284,57.278z"
	/>
<path fill="#9C9D9D" d="M242.073,46.416c14.604,4.167,52.3,0.682,68.181-17.941C293.646,19.199,245.661,27.109,242.073,46.416z"/>
<path fill="#9C9D9D" d="M241.51,63.342c14.718-3.989,35.837-18.635,31.233-40.43C251.152,24.263,223.365,48.085,241.51,63.342z"/>
<path fill="#9C9D9D" d="M256.756,51.266c13.006,7.802,44.971,14.718,75.263,1.222C319.653,38.88,270.808,31.966,256.756,51.266z"/>
<path fill="#9C9D9D" d="M279.717,57.529c6.885,10.716,31.545,25.931,67.581,22.156C344.661,63.883,304.67,43.949,279.717,57.529z"/>
<path fill="#9C9D9D" d="M257.085,45.242c32.403,4.991,66.061,30.363,54.573,54.447C287.611,95.417,238.325,69.97,257.085,45.242z"/>
<path fill="#9C9D9D" d="M282.442,47.551c33.844,5.801,58.237,31.631,46.751,55.717C297.532,97.283,257.511,62.516,282.442,47.551z"
	/>
<g>
	<g>
		<path id="XMLID_58_" fill="#FBC9C3" d="M244.298,429.599l-69.601,1.896c0,0-6.041,2.746-5.856-4.558
			c-0.231-11.135,27.84-17.69,35.111-18.153c12.992-1.039,29.521,2.606,38.303,1.709
			C249.215,419.63,244.298,429.599,244.298,429.599z"/>
		<path fill="#FBC9C3" d="M187.938,416.322c13.054-0.763,21.037,3.024,23.842,11.286c14.572,0.739,29.069-0.183,33.129-0.432
			c1.887,3.283,0.615,8.196-0.612,9.597c-0.543,0.521-48.201,2.903-76.19,1.002C166.502,432.413,163.932,417.727,187.938,416.322z"
			/>
		<path fill="#FBC9C3" d="M187.865,412.366c10.162-2.291,27.042,0.108,32.985,4.47c1.145-0.121,4-0.679,5.129-1.335
			c-6.463-5.168-23.341-6.821-32.792-5.041C191.152,410.77,188.268,411.69,187.865,412.366z"/>
		<path fill="#FBC9C3" d="M183.64,413.723c-2.08,0.313-5.809,1.535-5.592,2.654c17.482-4.026,30.896,1.342,33.552,2.953
			c1.495-0.137,5.505-1.235,6.238-1.698C215.368,415.694,200.808,411.138,183.64,413.723z"/>
	</g>
	<g>
		<path id="XMLID_56_" fill="#9C9D9D" d="M244.298,429.599l-69.601,1.896c0,0-6.041,2.746-5.856-4.558
			c-0.231-11.135,27.84-17.69,35.111-18.153c12.992-1.039,29.521,2.606,38.303,1.709
			C249.215,419.63,244.298,429.599,244.298,429.599z"/>
		<path fill="#C4C4C4" d="M187.938,416.322c13.054-0.763,21.037,3.024,23.842,11.286c14.572,0.739,29.069-0.183,33.129-0.432
			c1.887,3.283,0.615,8.196-0.612,9.597c-0.543,0.521-48.201,2.903-76.19,1.002C166.502,432.413,163.932,417.727,187.938,416.322z"
			/>
		<path fill="#C4C4C4" d="M187.865,412.366c10.162-2.291,27.042,0.108,32.985,4.47c1.145-0.121,4-0.679,5.129-1.335
			c-6.463-5.168-23.341-6.821-32.792-5.041C191.152,410.77,188.268,411.69,187.865,412.366z"/>
		<path fill="#C4C4C4" d="M183.64,413.723c-2.08,0.313-5.809,1.535-5.592,2.654c17.482-4.026,30.896,1.342,33.552,2.953
			c1.495-0.137,5.505-1.235,6.238-1.698C215.368,415.694,200.808,411.138,183.64,413.723z"/>
	</g>
</g>
<g>
	<g>
		<path id="XMLID_2_" fill="#FBC9C3" d="M261.211,429.599l69.601,1.896c0,0,6.04,2.746,5.856-4.558
			c0.231-11.135-27.84-17.69-35.111-18.153c-12.991-1.039-29.52,2.606-38.303,1.709C256.293,419.63,261.211,429.599,261.211,429.599
			z"/>
		<path fill="#FBC9C3" d="M317.571,416.322c-13.054-0.763-21.038,3.024-23.843,11.286c-14.572,0.739-29.069-0.183-33.129-0.432
			c-1.887,3.283-0.614,8.196,0.612,9.597c0.544,0.521,48.2,2.903,76.19,1.002C339.006,432.413,341.575,417.727,317.571,416.322z"/>
		<path fill="#FBC9C3" d="M317.643,412.366c-10.161-2.291-27.041,0.108-32.984,4.47c-1.146-0.121-4-0.679-5.129-1.335
			c6.462-5.168,23.341-6.821,32.791-5.041C314.357,410.77,317.241,411.69,317.643,412.366z"/>
		<path fill="#FBC9C3" d="M321.869,413.723c2.078,0.313,5.809,1.535,5.592,2.654c-17.482-4.026-30.896,1.342-33.553,2.953
			c-1.495-0.137-5.505-1.235-6.237-1.698C290.14,415.694,304.699,411.138,321.869,413.723z"/>
	</g>
	<g>
		<path id="XMLID_1_" fill="#9C9D9D" d="M261.211,429.599l69.601,1.896c0,0,6.04,2.746,5.856-4.558
			c0.231-11.135-27.84-17.69-35.111-18.153c-12.991-1.039-29.52,2.606-38.303,1.709C256.293,419.63,261.211,429.599,261.211,429.599
			z"/>
		<path fill="#C4C4C4" d="M317.571,416.322c-13.054-0.763-21.038,3.024-23.843,11.286c-14.572,0.739-29.069-0.183-33.129-0.432
			c-1.887,3.283-0.614,8.196,0.612,9.597c0.544,0.521,48.2,2.903,76.19,1.002C339.006,432.413,341.575,417.727,317.571,416.322z"/>
		<path fill="#C4C4C4" d="M317.643,412.366c-10.161-2.291-27.041,0.108-32.984,4.47c-1.146-0.121-4-0.679-5.129-1.335
			c6.462-5.168,23.341-6.821,32.791-5.041C314.357,410.77,317.241,411.69,317.643,412.366z"/>
		<path fill="#C4C4C4" d="M321.869,413.723c2.078,0.313,5.809,1.535,5.592,2.654c-17.482-4.026-30.896,1.342-33.553,2.953
			c-1.495-0.137-5.505-1.235-6.237-1.698C290.14,415.694,304.699,411.138,321.869,413.723z"/>
	</g>
</g>
<path fill="#9C9D9D" d="M178.408,240.117c0,12.694-42.883,12.694-42.883,0V202.87c0-12.695,8.291-23.081,18.424-23.081h6.033
	c10.134,0,18.426,10.386,18.426,23.081V240.117z"/>
<path fill="#9C9D9D" d="M373.031,240.117c0,12.694-42.883,12.694-42.883,0V202.87c0-12.695,8.291-23.081,18.424-23.081h6.033
	c10.134,0,18.426,10.386,18.426,23.081V240.117z"/>
<path fill="#9C9D9D" d="M295.147,182.556c0,22.44-18.191,40.631-40.631,40.631c-22.44,0-40.631-18.191-40.631-40.631H179.68
	L192.94,333.08c0.852,9.96,9.729,18.109,19.725,18.109h83.445c9.996,0,18.854-8.151,19.684-18.111l12.856-150.522H295.147z"/>
<polygon fill="#FFFFFF" points="231.755,296.163 253.58,286.85 289.28,312.157 275.724,273.747 289.375,256.689 265.18,251.273 
	255.949,228.99 242.899,252.231 219.656,254.14 235.89,272.922 "/>
<path fill="#9C9D9D" d="M135.621,236.103v5.105c0,12.695,42.882,12.695,42.882,0v-5.105
	C178.504,248.797,135.621,248.797,135.621,236.103z"/>
<path fill="#9C9D9D" d="M330.34,236.103v5.105c0,12.695,42.882,12.695,42.882,0v-5.105
	C373.222,248.797,330.34,248.797,330.34,236.103z"/>
<g>
	<path fill="#BFBFC0" d="M231.17,237.281c-9.937,2.553-20.85,14.345-28.605,21.865c-7.527,5.191-14.234,7.204-26.393,7.793
		c-9.39,0.124-16.786,1.183-22.168,2.342c-2.089,0.213-4.251,0.726-6.471,1.604c-0.303,0.121-0.606,0.252-0.909,0.383
		c-2.197,0.731-3.204,1.336-3.037,1.46c-11.532,6.227-21.6,19.154-14.663,36.034c5.843,14.902,12.061,27.422,20.568,39.159
		c10.112,13.963,29.578,16.568,42.229,8.305c17.361-11.914,22.144-31.044,38.242-32.137c5.85-1.151,19.894-2.374,29.019-11.507
		c3.373-3.344,1.322-8.53-4.614-5.819c-5.938,2.709-21.092-0.614-20.127-16.543c0.081-1.331-0.999-0.946-2.771,0.499
		c-1.127-3.044-2.695-6.803-4.769-10.562c4.536-2.175,10.608-5.473,14.548-8.917c-15.964-12.742-3.988-22.422,1.722-26.702
		C248.675,240.257,244.845,233.765,231.17,237.281z"/>
	<path fill="#BFBFC0" d="M171.28,287.185c3.896-2.983,4.674-4.231,24.689-6.791c13.339-1.705,15.717-5.347,20.41-8.493
		c4.689-3.145,11.421-6.851,12.706,2.962c1.279,9.811-0.5,22.184,4.321,28.645c4.297,4.893,6.811,6.713,14.015,7.745
		c5.249-0.527,7.682,2.018,3.019,4.26c-5.928,2.85-15.095,4.141-23.341,4.894c-8.25,0.753-13.467,3.89-18.045,10.378
		c-4.574,6.488-14.315,18.275-21.202,20.173c-6.887,1.896-7.604-5.958-4.747-12.285c2.188-4.854,1.351-9.312-0.794-14.798
		C179.151,315.801,161.49,294.681,171.28,287.185z"/>
	<path fill="#9C9D9D" d="M160.394,300.372l12.965,25.227l11.712-7.368l-11.836-24.032
		C173.236,294.198,160.928,300.396,160.394,300.372z"/>
	<path fill="#BFBFC0" d="M362.635,215.381c-9.1,1.119-41.959,9.1-41.959,9.1l-4.502,8.212l-97.115,43.01l10.553,20.384l93.98-49.176
		c0.004,0.007,0.008,0.013,0.011,0.02c10.356-2.856,21.365-0.481,21.365-0.481s7.028-7.223,14.001-12.197
		c11.727,8.401,20.025-2.067,18.844-7.67C377.133,218.356,367.85,214.738,362.635,215.381z"/>
	<polygon fill="#BFBFC0" points="336.714,215.132 337.113,218.945 343.077,218.152 341.24,213.957 	"/>
	<polygon fill="#BFBFC0" points="346.382,213.445 346.615,217.203 351.364,215.917 350.081,212.273 	"/>
	<polygon fill="#BFBFC0" points="354.61,211.377 355.117,215.133 360.145,214.124 359.083,210.094 	"/>
	<polygon fill="#9C9D9D" points="210.365,279.285 221.263,298.126 223.933,295.725 214.161,277.02 	"/>
	<polygon fill="#9C9D9D" points="193.672,287.442 204.288,307.13 208.928,304.439 198.454,285.742 	"/>
	<g>
		<polygon fill="#9C9D9D" points="330.662,227.744 172.754,301.371 173.222,302.368 331.665,227.979 		"/>
		<polygon fill="#9C9D9D" points="338.593,227.579 174.971,305.778 175.445,306.772 339.516,227.953 		"/>
		<polygon fill="#9C9D9D" points="346.749,227.86 177.412,310.638 177.898,311.625 348.253,228.169 		"/>
		<polygon fill="#9C9D9D" points="354.905,228.145 179.859,315.496 180.35,316.479 356.228,228.771 		"/>
	</g>
</g>
</svg>
