<?xml version="1.0" encoding="utf-8"?>
<!-- Generator: Adobe Illustrator 16.0.1, SVG Export Plug-In . SVG Version: 6.00 Build 0)  -->
<!DOCTYPE svg PUBLIC "-//W3C//DTD SVG 1.1//EN" "http://www.w3.org/Graphics/SVG/1.1/DTD/svg11.dtd">
<svg version="1.1" id="content" xmlns="http://www.w3.org/2000/svg" xmlns:xlink="http://www.w3.org/1999/xlink" x="0px" y="0px"
	 width="500px" height="500px" viewBox="0 0 500 500" enable-background="new 0 0 500 500" xml:space="preserve">
<g>
	<g>
		<path fill="#BFBFC0" d="M241.112,435.744c0,11.045-9.036,20.082-20.082,20.082h-1.932c-11.045,0-20.082-9.037-20.082-20.082
			V330.068c0-11.045,9.037-20.082,20.082-20.082h1.932c11.046,0,20.082,9.037,20.082,20.082V435.744z"/>
	</g>
	<g>
		<path fill="#BFBFC0" d="M304.182,435.488c0,11.187-9.152,20.338-20.338,20.338h-2.499c-11.186,0-20.338-9.151-20.338-20.338
			V330.324c0-11.186,9.152-20.338,20.338-20.338h2.499c11.186,0,20.338,9.152,20.338,20.338V435.488z"/>
	</g>
</g>
<path fill="#9C9D9D" d="M311.486,356.107c-0.807,9.698-9.431,17.634-19.163,17.634h-81.236c-9.731,0-18.373-7.934-19.203-17.631
	l-12.908-146.54h46.004l25.857,26.251l25.138-26.251h48.027L311.486,356.107z"/>
<g>
	<g>
		<g>
			<path fill="#BFBFC0" d="M174.763,326.052c0,9.841-8.051,17.893-17.892,17.893h-0.484c-9.841,0-17.892-8.052-17.892-17.893
				v-98.591c0-9.841,8.051-17.892,17.892-17.892h0.484c9.841,0,17.892,8.051,17.892,17.892V326.052z"/>
		</g>
	</g>
	<g>
		<g>
			<path fill="#BFBFC0" d="M364.701,326.052c0,9.841-8.053,17.893-17.894,17.893h-0.482c-9.842,0-17.894-8.052-17.894-17.893
				v-98.591c0-9.841,8.052-17.892,17.894-17.892h0.482c9.841,0,17.894,8.051,17.894,17.892V326.052z"/>
		</g>
	</g>
	<g>
		<circle fill="#BFBFC0" cx="251.599" cy="134.637" r="70.401"/>
	</g>
	<g>
		<circle fill="#FFFFFF" cx="224.98" cy="127.357" r="12.418"/>
		<circle fill="#FFFFFF" cx="277.21" cy="127.357" r="12.419"/>
		<path fill="#FFFFFF" d="M264.017,162.521c0,6.857-5.56,12.418-12.418,12.418s-12.419-5.561-12.419-12.418H264.017z"/>
	</g>
</g>
<path fill="#BFBFC0" d="M347.175,355.193c-0.927,0-1.714-0.03-2.367-0.056c-0.469-0.019-0.867-0.033-1.2-0.033l-0.192-0.037
	c-4.089-0.371-7.635-1.387-10.249-2.938c-0.091-0.065-1.966-1.438-3.332-2.481l-0.102-0.809l-0.805,0.093
	c-0.228-0.176-0.497-0.398-0.587-0.506l-0.038-0.045l-0.045-0.039c-0.421-0.38-1.864-1.684-2.702-2.482l0.343-0.731l-0.712-0.353
	c-0.447-0.22-0.821-0.424-0.979-0.521c-0.928-1.471-2.062-4.317-2.218-9.551l-0.001-0.06l-0.011-0.056
	c-0.013-0.284-0.017-0.573-0.019-0.866c0.093-2.53,0.293-5.039,0.594-7.422c2.009-11.528,8.945-24.124,19.023-34.518
	c9.022-9.309,21.783-16.009,34.135-17.926l0.046-0.008l0.045-0.013c1.659-0.455,3.577-0.688,5.707-0.688
	c3.641,0,6.634,0.662,6.76,0.691l0.084-0.159l-0.016,0.062l-0.017,0.103l-0.077,0.807l0.806,0.089
	c2.83,0.313,4.715,0.92,5.226,1.101l0.05,0.016l0.049,0.011c5.521,2.317,7.215,4.729,7.497,5.187l0.058,0.093l0.082,0.076
	c0.545,0.509,3.34,3.312,4.762,8.479l-0.079,0.898c-0.015,0.142-0.035,0.284-0.055,0.431l-0.044,0.333l-0.097,0.817l0.816,0.095
	c0.365,2.367,0.366,4.876,0.011,7.447c-0.16,1.15-0.265,1.702-0.302,1.886l-0.017,0.086l0.002,0.088
	c-1.759,11.239-4.807,20.051-15.173,31.845c-10.629,12.092-24.72,17.481-30.286,19.238
	C356.376,354.431,351.671,355.193,347.175,355.193z"/>
<rect x="199.015" y="366.392" fill="#9C9D9D" width="42.096" height="23.791"/>
<rect x="261.515" y="366.392" fill="#9C9D9D" width="42.097" height="23.791"/>
<rect x="199.015" y="390.183" fill="#BFBFC0" width="42.096" height="2.91"/>
<rect x="261.515" y="390.183" fill="#BFBFC0" width="42.097" height="2.91"/>
<rect x="199.015" y="410.123" fill="#FFFFFF" width="42.096" height="4.918"/>
<rect x="261.515" y="410.123" fill="#FFFFFF" width="42.097" height="4.918"/>
<rect x="199.015" y="414.594" fill="#9C9D9D" width="42.096" height="22.441"/>
<rect x="261.515" y="414.594" fill="#9C9D9D" width="42.097" height="22.441"/>
<path fill="#9C9D9D" d="M248.997,56.068c-56.415,0-98.81,49.372-67.167,92.544l0,0c0,0-1.484-44.348,28.072-64.026
	c0,0,1.483,23.638,82.684,16.731c0,0-11.324-10.272-10.729-20.564c0,0,39.975,48.182,38.947,67.859l0,0
	C349.325,106.443,316.438,56.068,248.997,56.068z"/>
<g>
	<g>
		<path fill="#9C9D9D" d="M384.709,274.572c-5.301,0.154-13.756,1.818-23.906,8.868c-9.793,6.801-19.549,17.974-26.1,29.887
			c-7.111,12.936-9.356,24.498-6.323,32.558v0.001c0.003,0.01,0.396,1.021,1.087,1.481l0.173,0.176
			c0.527,0.528,4.91,3.93,24.909-2.849c23.492-7.959,50.048-31.595,52.144-54.091l0.079-0.898c-1.568-5.704-4.848-8.558-4.848-8.558
			s-1.339-2.668-7.555-5.276l0.002,0.006C394.338,275.863,390.448,274.405,384.709,274.572z M403.631,293.952
			c-2.346,12.555-8.002,20.21-12.416,25.039c-4.415,4.828-15.381,15.105-31.521,19.658c-16.142,4.552-22.898,3.999-24.763,1.586
			c0,0-1.242-1.033-1.519-3.725c-0.274-2.689-0.274-11.587,4.276-22.072c4.554-10.484,10.762-18.555,15.244-23.176
			s16.208-13.726,30.143-15.245C396.941,274.985,405.976,281.399,403.631,293.952z"/>
		<path fill="#9C9D9D" d="M333.979,312.928c6.61-12.021,16.459-23.301,26.354-30.168c10.344-7.185,18.983-8.87,24.413-9.02
			c1.32-0.037,2.509,0.016,3.571,0.113c-0.017-0.004-0.031-0.009-0.048-0.013c0,0-6.933-1.563-12.548,0.017
			c-4.508,1.299-15.666,5.65-28.765,19.174c-17.106,17.658-21.521,32.372-22.992,38.442c-1.233,5.086-1.819,3.717-1.979,3.14
			c0.146,5.319,1.289,8.164,2.221,9.641c0.557,0.342,2.305,1.226,3.198,1.351C324.594,337.348,326.912,325.781,333.979,312.928z"/>
		<path fill="#9C9D9D" d="M407.317,292.267c-1.482,10.461-8.035,21.743-18.62,31.964c-9.753,9.421-22.421,17.362-33.883,21.248
			c-9.632,3.264-15.758,4.205-19.614,4.205c-2.989,0-4.618-0.563-5.471-1.055l0.105,1.019c1.421,1.089,3.331,2.481,3.331,2.481
			c2.55,1.514,6.093,2.571,10.323,2.945c-0.835-0.192-5.465-1.394,0.341-2.907c6.345-1.654,19.588-4.14,39.178-20.97
			c19.589-16.83,22.898-24.556,24.003-29.521c0,0,0.11-0.48,0.314-1.951C407.714,296.921,407.647,294.437,407.317,292.267z"/>
		<path fill="#9C9D9D" d="M327.731,346.46c-0.747-0.004-1.551-0.3-2.175-0.6c0.964,0.922,2.767,2.538,2.767,2.538
			c0.032,0.065,0.267,0.268,0.603,0.54l-0.082-1.007C328.281,347.489,327.908,346.832,327.731,346.46z"/>
	</g>
</g>
<path fill="#9C9D9D" d="M177.737,256.908c0,12.359-41.748,0.102-41.748-12.258v-15.304c0-12.358,8.071-22.471,17.937-22.471h5.875
	c9.865,0,17.938,10.112,17.938,22.471L177.737,256.908L177.737,256.908z"/>
<path fill="#9C9D9D" d="M367.207,244.65c0,12.358-41.747,24.617-41.747,12.258v-27.562c0-12.358,8.07-22.471,17.935-22.471h5.875
	c9.865,0,17.938,10.112,17.938,22.471L367.207,244.65L367.207,244.65z"/>
<path fill="#FFFFFF" d="M367.207,241.635c0,12.357-41.747,24.615-41.747,12.259v3.709c0,12.357,41.747,0.1,41.747-12.258V241.635z"
	/>
<path fill="#FFFFFF" d="M135.744,241.635c0,12.357,41.748,24.615,41.748,12.259v3.709c0,12.357-41.748,0.1-41.748-12.258V241.635z"
	/>
<path fill="#FFFFFF" d="M367.207,234.051c0,12.358-41.747,24.616-41.747,12.259v3.709c0,12.357,41.747,0.1,41.747-12.258V234.051z"
	/>
<path fill="#FFFFFF" d="M135.744,234.051c0,12.358,41.748,24.616,41.748,12.259v3.709c0,12.357-41.748,0.1-41.748-12.258V234.051z"
	/>
<g>
	<path fill="#FFFFFF" d="M209.049,385.935c-1.86-0.71-3.183-2.509-3.183-4.617c0-2.109,1.322-3.908,3.183-4.617
		c1.859,0.709,3.182,2.507,3.182,4.617C212.231,383.427,210.908,385.225,209.049,385.935L209.049,385.935z"/>
</g>
<g>
	<path fill="#FFFFFF" d="M289.628,286.211c-5.105-1.945-8.736-6.889-8.736-12.683c0-5.789,3.631-10.733,8.736-12.684
		c5.108,1.949,8.738,6.895,8.738,12.684C298.366,279.322,294.738,284.264,289.628,286.211L289.628,286.211z"/>
	<g>
		<polygon fill="#FFFFFF" points="179.137,211.408 179.729,218.134 251.053,292.267 323.235,218.544 323.797,211.966 
			251.106,286.211 		"/>
		<polygon fill="#9C9D9D" points="251.106,286.211 323.797,211.966 324.001,209.571 319.763,209.571 251.161,279.639 
			183.748,209.571 178.975,209.571 179.137,211.408 		"/>
		<polygon fill="#FFFFFF" points="319.763,209.571 314.832,209.571 251.204,274.558 188.679,209.571 183.748,209.571 
			251.161,279.639 		"/>
		<polygon fill="#BFBFC0" points="314.832,209.571 303.612,209.571 251.303,262.997 199.9,209.571 188.679,209.571 251.204,274.558 
					"/>
		<polygon fill="#9C9D9D" points="303.612,209.571 287.438,209.571 284.825,209.571 281.989,209.571 279.796,209.571 
			275.974,209.571 250.836,235.822 224.979,209.571 221.171,209.571 218.779,209.571 215.686,209.571 212.835,209.571 
			199.9,209.571 251.303,262.997 		"/>
	</g>
</g>
<path fill="#BFBFC0" d="M169.076,436.514c-0.011-0.019-0.021-0.035-0.03-0.052c-0.006-0.013-0.016-0.021-0.023-0.032
	c-0.01-0.016-0.021-0.027-0.036-0.04c-0.002-0.002-0.005-0.005-0.007-0.007c0.045,0.044,0.077,0.089,0.104,0.144
	C169.08,436.523,169.078,436.518,169.076,436.514z"/>
<path fill="#BFBFC0" d="M169.139,436.659c0.016,0.04,0.033,0.076,0.055,0.129C169.175,436.741,169.155,436.696,169.139,436.659z"/>
<path fill="#BFBFC0" d="M174.015,434.816c0.007,0.02,0.014,0.036,0.021,0.055c0.017,0.042,0.034,0.085,0.055,0.131
	c0.005,0.012,0.01,0.021,0.016,0.032c0.002,0.004,0.004,0.009,0.006,0.013c-0.049-0.102-0.089-0.199-0.118-0.297
	C174.001,434.772,174.008,434.795,174.015,434.816z"/>
<path fill="#BFBFC0" d="M170.206,436.219c0,0.003,0.003,0.008,0.003,0.012c0.016,0.048,0.034,0.097,0.053,0.146
	c0.001,0.002,0.002,0.004,0.003,0.006c0.014,0.032,0.031,0.066,0.047,0.101C170.269,436.392,170.233,436.303,170.206,436.219
	L170.206,436.219z"/>
<path fill="#BFBFC0" d="M202.142,455.472c-0.546,0.003-1.09,0.007-1.649,0.009C201.051,455.479,201.597,455.475,202.142,455.472z"/>
<path fill="#BFBFC0" d="M168.954,436.359c-0.017-0.016-0.035-0.029-0.056-0.046c-0.014-0.008-0.023-0.017-0.038-0.027
	c-0.032-0.021-0.072-0.046-0.117-0.071c0.097,0.057,0.164,0.103,0.213,0.147C168.956,436.361,168.955,436.36,168.954,436.359z"/>
<path fill="#BFBFC0" d="M164.865,437.675c-0.014-0.012-0.022-0.02-0.035-0.027c-0.03-0.021-0.068-0.043-0.107-0.065
	c0.088,0.053,0.154,0.097,0.201,0.14C164.908,437.705,164.887,437.688,164.865,437.675z"/>
<path fill="#BFBFC0" d="M162.327,438.749c0,0.014,0.002,0.024,0.004,0.035c0.003,0.037,0.006,0.075,0.015,0.111
	c0.002,0.01,0.005,0.019,0.007,0.027c0.006,0.024,0.014,0.051,0.021,0.075c-0.025-0.089-0.042-0.177-0.045-0.259
	C162.328,438.743,162.327,438.746,162.327,438.749z"/>
<path fill="#BFBFC0" d="M204.54,455.455c-0.403,0.003-0.81,0.008-1.221,0.011C203.73,455.463,204.137,455.459,204.54,455.455z"/>
<path fill="#BFBFC0" d="M162.386,439.051c0.002,0.007,0.006,0.013,0.008,0.02c0.017,0.047,0.033,0.093,0.053,0.143
	c0.003,0.004,0.004,0.006,0.005,0.01c0.015,0.033,0.029,0.065,0.046,0.1c-0.047-0.098-0.086-0.192-0.115-0.287
	C162.383,439.039,162.385,439.045,162.386,439.051z"/>
<path fill="#BFBFC0" d="M166.388,437.175c-0.004,0.019-0.012,0.035-0.015,0.056c-0.005,0.024-0.007,0.049-0.01,0.074
	c0,0.017-0.003,0.032-0.003,0.051c0,0.006,0.001,0.014,0.001,0.02c-0.002-0.09,0.013-0.174,0.043-0.252
	C166.399,437.138,166.394,437.155,166.388,437.175z"/>
<path fill="#BFBFC0" d="M166.366,437.443c0.002,0.014,0.002,0.027,0.005,0.04c0.003,0.035,0.012,0.069,0.02,0.105
	c0.003,0.009,0.005,0.02,0.008,0.025c0.003,0.014,0.009,0.025,0.013,0.039c-0.028-0.095-0.045-0.187-0.048-0.273
	C166.364,437.401,166.365,437.423,166.366,437.443z"/>
<path fill="#BFBFC0" d="M165.013,437.822c-0.006-0.01-0.013-0.02-0.019-0.025c-0.012-0.018-0.025-0.031-0.039-0.047
	c-0.003-0.003-0.006-0.006-0.01-0.01c0.042,0.043,0.073,0.087,0.1,0.139C165.035,437.859,165.025,437.842,165.013,437.822z"/>
<path fill="#BFBFC0" d="M173.943,434.494c0.001,0.021,0.004,0.04,0.008,0.062c0.004,0.031,0.01,0.062,0.017,0.096
	c0.005,0.021,0.008,0.039,0.015,0.062c0.003,0.009,0.006,0.019,0.01,0.027c-0.028-0.096-0.045-0.188-0.048-0.273
	C173.942,434.474,173.942,434.484,173.943,434.494z"/>
<path fill="#BFBFC0" d="M206.931,455.43c-0.199,0.002-0.403,0.004-0.604,0.007C206.527,455.434,206.732,455.432,206.931,455.43z"/>
<path fill="#BFBFC0" d="M180.48,432.631c0.024,0.056,0.051,0.117,0.086,0.201C180.532,432.755,180.504,432.684,180.48,432.631z"/>
<path fill="#BFBFC0" d="M197.988,455.489L197.988,455.489c0.737,0,1.449-0.004,2.164-0.007l0,0
	C199.44,455.485,198.721,455.488,197.988,455.489z"/>
<path fill="#BFBFC0" d="M184.196,457.8h-7.017h-0.002c-0.795,0-1.44-0.892-1.44-1.992v-0.178c0,0,0.001,0,0.002,0l0,0v-0.001
	c0,0-0.001,0-0.002,0v-0.375c-0.975-0.025-1.918-0.054-2.829-0.077v0.001c0.907,0.023,1.85,0.052,2.819,0.077
	c0.002,0,0.004,0,0.008,0v0.376v0.178c0,1.102,0.646,1.992,1.44,1.992h7.019c0.089,0,0.173-0.014,0.254-0.031
	c0,0,0.002-0.001,0.003-0.001c-0.082,0.019-0.165,0.031-0.253,0.031H184.196z"/>
<path fill="#BFBFC0" d="M215.399,456.09l-0.027-0.427c0,0,0,0-0.001,0l-0.026-0.375c-0.001,0-0.002,0-0.003,0l0.026,0.373
	l0.026,0.427c0.06,0.854,0.487,1.57,1.048,1.855C215.883,457.656,215.456,456.942,215.399,456.09z"/>
<path fill="#BFBFC0" d="M200.152,455.482c0.03,0,0.062,0,0.092,0C200.213,455.482,200.181,455.482,200.152,455.482L200.152,455.482z
	"/>
<path fill="#BFBFC0" d="M229.018,455.274l-0.002-0.024l0,0l-0.027-0.443c-0.001,0-0.003,0-0.005,0l0.028,0.44l0.002,0.025
	c0.051,0.824,0.458,1.516,0.995,1.793C229.474,456.787,229.068,456.096,229.018,455.274z"/>
<path fill="#BFBFC0" d="M171.434,457.569L171.434,457.569l-6.739-0.169c-0.766-0.02-1.354-0.926-1.313-2.025v-0.011
	c0,0,0.001,0,0.002,0l0,0v-0.001c0,0-0.001,0-0.002,0l0.019-0.558c-0.248-0.012-0.483-0.024-0.725-0.036
	c0.239,0.013,0.475,0.025,0.721,0.037l-0.018,0.559v0.01c-0.04,1.102,0.549,2.008,1.313,2.026l6.738,0.169
	c0.098,0.003,0.193-0.009,0.285-0.034c0,0,0.001-0.001,0.002-0.001C171.626,457.56,171.53,457.572,171.434,457.569L171.434,457.569
	L171.434,457.569z"/>
<path fill="#BFBFC0" d="M189.527,458.157L189.527,458.157c-0.798,0-1.442-0.972-1.442-2.169v-0.375c0,0,0,0-0.001,0v-0.158
	c-0.83-0.004-1.644-0.014-2.442-0.021v0.001c0.033,0,0.067,0.001,0.101,0.002c0.766,0.009,1.547,0.017,2.341,0.021v0.157v0.376
	c0,1.197,0.646,2.169,1.44,2.169h6.957h0.002v-0.001L189.527,458.157L189.527,458.157z"/>
<path fill="#BFBFC0" d="M170.353,435.445c0.597-0.507,1.872-0.868,2.168-0.699c0.111,0.063,0.186,0.114,0.238,0.165
	c-0.002-0.003-0.004-0.006-0.007-0.008c-0.017-0.016-0.038-0.031-0.061-0.049c-0.012-0.007-0.021-0.018-0.034-0.027
	c-0.039-0.022-0.083-0.052-0.139-0.084c-0.297-0.169-1.572,0.192-2.168,0.699c-0.038,0.033-0.067,0.066-0.096,0.104
	c-0.007,0.012-0.013,0.022-0.021,0.035c-0.017,0.025-0.032,0.054-0.045,0.078c-0.005,0.015-0.006,0.025-0.01,0.038
	c-0.01,0.029-0.02,0.06-0.022,0.089c-0.003,0.014-0.003,0.023-0.003,0.036c-0.003,0.032-0.008,0.064-0.006,0.101
	c0,0.011,0.004,0.02,0.004,0.027c0.002,0.037,0.008,0.077,0.015,0.115c0.001,0.007,0.003,0.014,0.005,0.021
	c0.005,0.028,0.015,0.06,0.022,0.09C170.115,435.89,170.136,435.631,170.353,435.445z"/>
<path fill="#BFBFC0" d="M172.99,435.343c-0.046-0.105-0.077-0.188-0.108-0.252c0.001,0.002,0.002,0.005,0.003,0.006
	C172.914,435.16,172.946,435.239,172.99,435.343z"/>
<path fill="#BFBFC0" d="M172.865,435.058c-0.011-0.021-0.021-0.04-0.032-0.059c-0.005-0.01-0.008-0.016-0.014-0.021
	c-0.012-0.016-0.025-0.032-0.041-0.048c-0.007-0.006-0.013-0.014-0.02-0.021c0.028,0.025,0.042,0.058,0.061,0.084
	C172.834,435.016,172.853,435.035,172.865,435.058z"/>
<path fill="#BFBFC0" d="M180.05,432.231c0.018,0.003,0.04,0.006,0.052,0.013c0.205,0.116,0.278,0.191,0.335,0.301
	c-0.01-0.021-0.019-0.042-0.029-0.061c-0.008-0.009-0.015-0.017-0.021-0.025c-0.012-0.016-0.023-0.027-0.038-0.045
	c-0.01-0.009-0.021-0.02-0.031-0.027c-0.018-0.016-0.035-0.028-0.058-0.045c-0.011-0.01-0.021-0.019-0.035-0.025
	c-0.037-0.025-0.078-0.051-0.127-0.079c-0.298-0.169-1.575,0.19-2.17,0.698c-0.034,0.031-0.064,0.062-0.09,0.099
	c-0.009,0.013-0.017,0.025-0.024,0.039c-0.014,0.022-0.026,0.044-0.037,0.067c-0.009,0.018-0.014,0.037-0.019,0.058
	c-0.006,0.021-0.014,0.038-0.019,0.062c-0.004,0.021-0.006,0.045-0.009,0.065c-0.002,0.021-0.004,0.037-0.004,0.057
	c0,0.01,0.001,0.021,0.001,0.03c-0.004-0.181,0.055-0.342,0.202-0.469C178.502,432.456,179.689,432.11,180.05,432.231z"/>
<path fill="#BFBFC0" d="M160.996,454.682c0.304,0.016,0.622,0.033,0.939,0.05C161.617,454.717,161.301,454.699,160.996,454.682
	L160.996,454.682z"/>
<path fill="#BFBFC0" d="M168.731,436.206L168.731,436.206c-0.297-0.169-1.573,0.191-2.169,0.698
	c-0.035,0.03-0.064,0.063-0.092,0.099c-0.01,0.016-0.017,0.029-0.024,0.045c-0.014,0.021-0.026,0.042-0.035,0.063
	c-0.001,0.003-0.002,0.006-0.003,0.008c0.032-0.078,0.084-0.149,0.157-0.214C167.158,436.399,168.43,436.04,168.731,436.206z"/>
<path fill="#BFBFC0" d="M151.062,454.698l0.038-0.414c0,0,0,0-0.001,0l0.03-0.327c-0.529-0.056-0.787-0.086-0.787-0.086
	c-0.001,0-0.003-0.001-0.005-0.001c0,0,0,0.001,0.001,0.001c0,0,0.008,0.001,0.021,0.003c0.065,0.009,0.317,0.036,0.768,0.083
	l-0.03,0.327l-0.038,0.414c-0.095,1.046,0.471,1.937,1.267,1.987l6.995,0.465c0,0,0,0,0.001,0l-6.993-0.465
	C151.532,456.635,150.967,455.744,151.062,454.698z"/>
<path fill="#BFBFC0" d="M164.542,437.525c-0.453-0.038-1.494,0.293-2.016,0.737c-0.038,0.032-0.069,0.065-0.098,0.104
	c-0.008,0.015-0.013,0.026-0.02,0.038c-0.019,0.024-0.033,0.052-0.043,0.078c-0.007,0.015-0.009,0.029-0.015,0.043
	c-0.007,0.027-0.017,0.056-0.021,0.086c-0.002,0.013-0.001,0.026-0.002,0.041c-0.003,0.023-0.003,0.047-0.003,0.071
	c-0.002-0.178,0.055-0.337,0.2-0.461C163.049,437.819,164.089,437.488,164.542,437.525z"/>
<path fill="#BFBFC0" d="M177.732,433.462c0,0.016,0.003,0.029,0.006,0.047c0.005,0.03,0.011,0.062,0.019,0.096
	c0.003,0.012,0.006,0.022,0.008,0.036c0.003,0.013,0.008,0.024,0.012,0.038c-0.024-0.089-0.042-0.177-0.045-0.259
	C177.73,433.432,177.731,433.446,177.732,433.462z"/>
<path fill="#BFBFC0" d="M210.391,455.385c0.062,0,0.123-0.002,0.187-0.004c-0.244,0.004-0.486,0.008-0.733,0.012
	C210.026,455.388,210.21,455.386,210.391,455.385z"/>
<path fill="#BFBFC0" d="M239.016,426.897c-0.043-0.012-0.09-0.024-0.137-0.034c-0.02-0.006-0.036-0.01-0.058-0.015
	c-0.001-0.001-0.004-0.002-0.008-0.002c-0.001-0.001-0.002-0.001-0.006-0.002c-0.048-0.012-0.097-0.023-0.146-0.033
	c-0.021-0.005-0.04-0.009-0.062-0.013c0,0-0.003-0.002-0.004-0.002c-0.002,0-0.004-0.001-0.006-0.002
	c-0.053-0.013-0.106-0.021-0.163-0.033c-0.021-0.004-0.044-0.01-0.064-0.014l-0.002-0.001c-0.005,0-0.005-0.001-0.005-0.001
	c-0.071-0.015-0.146-0.025-0.226-0.041c-0.006-0.001-0.014-0.001-0.021-0.003c-0.002-0.001-0.007-0.001-0.008-0.002
	c-0.001,0-0.003-0.001-0.005-0.001c-0.074-0.012-0.152-0.021-0.229-0.035c-0.014-0.001-0.022-0.003-0.036-0.005
	c-0.072-0.009-0.146-0.02-0.222-0.024c-0.02-0.003-0.033-0.005-0.052-0.009c-0.002,0-0.004,0-0.004,0c-0.002,0-0.003,0-0.008-0.002
	c-0.077-0.008-0.158-0.015-0.238-0.021c-0.016-0.002-0.029-0.004-0.046-0.006c0,0-0.003,0-0.005,0
	c-0.004-0.001-0.008-0.001-0.009-0.002c-0.07-0.005-0.143-0.008-0.211-0.012c-0.025-0.002-0.049-0.005-0.071-0.006
	c-0.002,0-0.005,0-0.006,0c-0.004,0-0.008,0-0.013,0c-0.084-0.005-0.17-0.006-0.256-0.008c-0.016,0-0.028,0-0.043,0
	c-0.004,0-0.008,0-0.01,0c-0.003,0-0.006,0-0.007,0c-0.086,0-0.172,0.001-0.257,0.005c-0.021,0-0.039,0-0.059,0
	c-0.086,0.004-0.169,0.011-0.255,0.018c-0.016,0.002-0.027,0.002-0.043,0.003h0.004c-0.01,0-0.018,0-0.023,0.002
	c-0.084,0.006-0.17,0.016-0.254,0.024c-0.024,0.005-0.05,0.007-0.073,0.011c-0.081,0.01-0.164,0.022-0.246,0.037
	c-0.024,0.006-0.052,0.01-0.076,0.012c0,0-0.001,0.001-0.002,0.001c-0.002,0-0.004,0-0.006,0.001
	c-0.079,0.016-0.158,0.034-0.236,0.053c-0.028,0.006-0.059,0.012-0.088,0.021c-0.078,0.019-0.156,0.042-0.233,0.062
	c-0.029,0.009-0.062,0.019-0.091,0.025c-0.07,0.021-0.144,0.05-0.215,0.074c-0.018,0.008-0.033,0.013-0.052,0.019
	c-0.004,0.001-0.007,0.003-0.012,0.005c-0.015,0.005-0.028,0.01-0.045,0.016c-0.072,0.028-0.146,0.062-0.218,0.095
	c-0.033,0.016-0.066,0.025-0.1,0.043c-0.059,0.025-0.115,0.059-0.175,0.09c-0.022,0.012-0.046,0.021-0.069,0.036
	c-0.016,0.008-0.029,0.016-0.046,0.021c-0.006,0.004-0.011,0.006-0.018,0.011c0,0.001-0.002,0.001-0.002,0.001
	c-0.002,0-0.002,0.002-0.002,0.002c-0.062,0.033-0.12,0.071-0.182,0.109c-0.017,0.013-0.031,0.021-0.049,0.03
	c-0.005,0.003-0.008,0.005-0.014,0.008c-0.019,0.013-0.038,0.023-0.057,0.035c-0.001,0-0.001,0-0.001,0
	c-0.001,0.001-0.002,0.001-0.002,0.002c-0.064,0.043-0.128,0.092-0.188,0.141c-0.034,0.024-0.067,0.048-0.1,0.071l-0.001,0.002
	h-0.002c-0.047,0.039-0.092,0.081-0.139,0.12c-0.02,0.021-0.04,0.035-0.062,0.054c-0.001,0.003-0.007,0.009-0.013,0.013
	c-0.021,0.021-0.047,0.039-0.066,0.06c-0.057,0.053-0.107,0.11-0.162,0.168c-0.034,0.034-0.068,0.067-0.104,0.105
	c-0.002,0.001-0.002,0.001-0.002,0.001c-0.001,0.001-0.001,0.001-0.001,0.001c-0.038,0.044-0.074,0.094-0.115,0.141
	c-0.021,0.027-0.043,0.054-0.062,0.081c-0.004,0.003-0.009,0.009-0.011,0.012c-0.021,0.025-0.041,0.048-0.062,0.074
	c-0.055,0.073-0.106,0.153-0.158,0.232c-0.019,0.023-0.035,0.047-0.053,0.071c-0.008,0.013-0.016,0.021-0.022,0.034
	c-0.075,0.121-0.146,0.246-0.216,0.377c-2.199,4.227-6.598,4.624-10.998,3.687c-0.038-0.01-0.076-0.021-0.114-0.029
	c-0.19-0.045-0.382-0.101-0.571-0.166c-0.026-0.009-0.052-0.017-0.078-0.025c-0.021-0.008-0.045-0.017-0.068-0.023
	c-0.061-0.022-0.121-0.049-0.183-0.072c-0.146-0.059-0.293-0.122-0.44-0.19c-0.039-0.02-0.079-0.036-0.119-0.057
	c-0.077-0.038-0.154-0.076-0.231-0.116c-0.15-0.077-0.299-0.161-0.447-0.25c-0.04-0.022-0.079-0.046-0.118-0.069
	c-0.029-0.019-0.06-0.035-0.089-0.054c-0.02-0.013-0.04-0.024-0.059-0.035c-0.009-0.007-0.019-0.013-0.024-0.018
	c-0.044-0.026-0.088-0.057-0.132-0.085c-0.138-0.089-0.273-0.18-0.411-0.274c-0.027-0.021-0.057-0.038-0.085-0.06
	c-0.005-0.003-0.009-0.007-0.014-0.01c-0.019-0.013-0.033-0.025-0.051-0.036c-0.02-0.014-0.037-0.027-0.057-0.041
	c-0.071-0.053-0.144-0.106-0.215-0.16c-0.139-0.104-0.277-0.21-0.417-0.319c-0.034-0.027-0.067-0.055-0.102-0.081
	c-0.029-0.025-0.06-0.052-0.087-0.072c-0.01-0.008-0.019-0.015-0.024-0.021c-0.051-0.04-0.101-0.083-0.147-0.123
	c-0.006-0.004-0.011-0.009-0.017-0.013c-0.077-0.064-0.154-0.131-0.229-0.197c-0.078-0.065-0.156-0.134-0.235-0.203
	c-0.029-0.026-0.061-0.057-0.092-0.082c-0.004-0.003-0.006-0.007-0.01-0.01c-0.107-0.096-0.215-0.191-0.321-0.291
	c-0.003-0.003-0.006-0.006-0.009-0.009s-0.008-0.005-0.011-0.01c-0.003-0.003-0.007-0.006-0.01-0.01
	c-0.121-0.11-0.24-0.225-0.357-0.337c-0.021-0.021-0.041-0.039-0.063-0.061c-0.095-0.093-0.19-0.185-0.285-0.277
	c-0.03-0.028-0.062-0.059-0.09-0.088c-0.055-0.055-0.108-0.105-0.163-0.163c-0.031-0.029-0.064-0.062-0.101-0.098
	c-0.01-0.011-0.02-0.02-0.029-0.03c-0.018-0.018-0.033-0.035-0.052-0.052c-0.104-0.104-0.208-0.211-0.312-0.315
	c-0.003-0.005-0.007-0.008-0.01-0.012c-0.003-0.003-0.006-0.005-0.009-0.008c-0.01-0.01-0.02-0.021-0.029-0.03
	c-0.161-0.166-0.318-0.331-0.476-0.495c-0.041-0.041-0.082-0.084-0.121-0.127c-0.146-0.151-0.291-0.307-0.434-0.457
	c-0.364-0.388-0.713-0.762-1.048-1.112c-0.024-0.026-0.052-0.056-0.077-0.083c-0.004-0.002-0.007-0.008-0.011-0.012
	c-0.012-0.011-0.021-0.021-0.033-0.032c-0.043-0.048-0.086-0.093-0.128-0.139c-0.033-0.032-0.064-0.064-0.099-0.1
	c-0.005-0.007-0.011-0.012-0.018-0.019c-0.011-0.013-0.021-0.022-0.032-0.034c-0.038-0.038-0.076-0.077-0.113-0.116
	c-0.054-0.059-0.107-0.11-0.162-0.165c-0.031-0.031-0.062-0.063-0.093-0.093c-0.003-0.005-0.008-0.011-0.012-0.016
	c-0.009-0.008-0.017-0.015-0.024-0.021c-0.109-0.11-0.217-0.215-0.321-0.315c-0.003-0.002-0.006-0.005-0.007-0.007
	c0-0.001-0.001-0.001-0.001-0.001c-0.025-0.023-0.05-0.046-0.074-0.068c-0.114-0.108-0.228-0.214-0.335-0.309
	c-0.004-0.004-0.009-0.006-0.014-0.011c-0.102-0.088-0.198-0.169-0.294-0.244c-0.024-0.021-0.05-0.039-0.073-0.057
	c-0.042-0.032-0.083-0.063-0.124-0.095c-0.056-0.041-0.108-0.076-0.161-0.109c-0.068-0.045-0.146-0.087-0.226-0.128
	c-0.013-0.009-0.027-0.013-0.04-0.02c-0.07-0.036-0.146-0.068-0.226-0.103c-0.008-0.002-0.019-0.007-0.024-0.011
	c-0.087-0.033-0.18-0.066-0.276-0.1c-0.001-0.001-0.003-0.001-0.003-0.002c-0.104-0.034-0.211-0.064-0.324-0.095l-0.138-0.149
	l-1.229-0.085c-0.001,0-0.003,0-0.006,0c-0.252-0.023-0.518-0.043-0.792-0.053c-0.001,0-0.001,0-0.001,0l-1.394-0.094
	c0,0-1.774-0.549-3.638-0.681c-1.286-0.091-2.613,0.016-3.43,0.634c-0.256,0.194-0.621,0.439-1.061,0.72
	c-2.987,1.895-9.543,5.39-10.704,5.719c-1.332,0.379-5.327,2.652-5.327,2.652s0,0.004,0,0.011c0,0.003,0,0.006,0,0.012
	s0,0.017,0,0.027c0.001,0.005,0.001,0.011,0.001,0.018c0.001,0.037,0.004,0.09,0.008,0.156c0,0.011,0.001,0.02,0.002,0.027
	c0.002,0.025,0.006,0.055,0.008,0.085c0.001,0.011,0.001,0.021,0.002,0.032c0.004,0.039,0.008,0.082,0.014,0.131
	c-0.156,0.06-0.312,0.121-0.467,0.18c-0.018,0.006-0.035,0.014-0.053,0.019c0.038,0.091,0.079,0.186,0.15,0.317
	c0,0,0.062,0.095,0.145,0.251c0.138,0.262,0.336,0.693,0.408,1.146c0.067,0.421-1.148,0.934-1.971,0.879
	c-0.273-0.02-0.504-0.101-0.628-0.27c-0.303-0.413-0.737-0.972-0.897-1.46c0.002,0.005,0.004,0.009,0.005,0.014
	c0.002,0.009,0.004,0.016,0.007,0.021c0.016,0.043,0.031,0.085,0.05,0.127c-0.006,0.003-0.011,0.005-0.017,0.007
	c-0.287,0.105-0.566,0.206-0.843,0.308c-0.017,0.007-0.031,0.012-0.048,0.02c0-0.001-0.003-0.007-0.003-0.007
	c-0.349-0.646-0.19-0.689-0.636-0.942c-0.298-0.169-1.572,0.192-2.168,0.699c-0.041,0.033-0.071,0.071-0.101,0.109
	c-0.009,0.013-0.014,0.025-0.021,0.04c-0.015,0.024-0.03,0.055-0.042,0.083c-0.006,0.018-0.01,0.032-0.015,0.053
	c-0.007,0.023-0.015,0.054-0.019,0.083c-0.001,0.018-0.004,0.037-0.004,0.058c0,0.015,0.001,0.029,0.001,0.044
	c-0.003-0.18,0.054-0.34,0.201-0.465c0.596-0.507,1.871-0.868,2.168-0.699c0.111,0.063,0.185,0.114,0.238,0.164
	c0.036,0.034,0.057,0.073,0.08,0.111c0.01,0.019,0.025,0.031,0.035,0.05c0.004,0.009,0.011,0.024,0.016,0.034
	c0.054,0.122,0.105,0.285,0.267,0.584c0,0,0.438,0.676,0.553,1.397l0,0c0,0.001,0,0.001,0,0.001c0.092,0.562-2.104,1.287-2.599,0.61
	c-0.035-0.05-0.072-0.1-0.112-0.152l0,0c-0.229-0.312-0.499-0.678-0.672-1.031c0.024,0.051,0.05,0.1,0.077,0.148
	c0,0,0,0.001,0.002,0.004c-0.001,0-0.002,0.002-0.003,0.002c-0.387,0.135-0.752,0.261-1.086,0.376
	c0.02,0.039,0.027,0.062,0.051,0.104c0,0,0.438,0.676,0.552,1.396l0,0c0,0.001,0,0.001,0,0.001c0.091,0.562-2.104,1.289-2.599,0.61
	c-0.036-0.048-0.073-0.1-0.112-0.15h0.001c-0.227-0.309-0.492-0.669-0.667-1.021c0.001,0.002,0.001,0.003,0.002,0.005
	c0,0.001,0,0.001,0,0.001c-0.348,0.119-0.706,0.243-1.082,0.377c0.034,0.074,0.062,0.14,0.115,0.239c0,0,0.437,0.677,0.552,1.398
	c0.012,0.069-0.014,0.144-0.066,0.216c-0.366,0.506-2.1,0.988-2.533,0.396c-0.035-0.049-0.073-0.101-0.112-0.151
	c0,0,0.001,0,0.002,0c-0.295-0.4-0.657-0.896-0.793-1.332c0.007,0.021,0.012,0.041,0.02,0.062c0.001,0.005,0.005,0.011,0.005,0.016
	c0.017,0.046,0.035,0.091,0.056,0.137c-0.019,0.006-0.035,0.014-0.052,0.019c-0.36,0.133-0.726,0.266-1.097,0.402
	c-0.03,0.011-0.06,0.021-0.089,0.032c-0.001,0-0.002,0.001-0.003,0.001c0.026,0.057,0.042,0.096,0.078,0.165
	c0,0,0.438,0.675,0.553,1.396c0.033,0.211-0.254,0.444-0.652,0.618c-0.664,0.29-1.637,0.414-1.947-0.009
	c-0.247-0.337-0.584-0.771-0.786-1.185c0.008,0.014,0.014,0.027,0.021,0.043v0.001c-0.009,0.004-0.021,0.009-0.03,0.013
	c-2.077,0.803-4.223,1.679-6.272,2.6l0,0c-0.87,0.394-1.724,0.79-2.545,1.195c0,0,0,0-0.001,0.001c-0.001,0-0.003,0.001-0.004,0.001
	c-1.407,0.693-2.812,1.919-3.853,3.286c-0.089,0.116-0.175,0.234-0.259,0.354c-0.022,0.032-0.046,0.066-0.068,0.102
	c-0.064,0.094-0.127,0.188-0.188,0.282c-0.019,0.028-0.038,0.059-0.058,0.089c-0.076,0.12-0.149,0.242-0.219,0.364
	c-0.009,0.019-0.019,0.032-0.027,0.051c-0.061,0.105-0.116,0.214-0.17,0.318c-0.018,0.032-0.033,0.065-0.049,0.1
	c-0.053,0.104-0.102,0.21-0.146,0.314c-0.009,0.02-0.017,0.036-0.024,0.055c-0.054,0.126-0.103,0.249-0.146,0.371
	c-0.01,0.021-0.017,0.046-0.024,0.066c-0.035,0.104-0.067,0.205-0.098,0.307c-0.009,0.027-0.018,0.057-0.025,0.082
	c-0.021,0.077-0.028,0.149-0.045,0.227c-0.01,0.044-0.029,0.089-0.038,0.133s-0.008,0.085-0.015,0.129
	c-0.013,0.067-0.033,0.14-0.042,0.205c-0.002,0.023-0.004,0.048-0.008,0.072c-0.008,0.082-0.015,0.165-0.018,0.246
	c-0.003,0.031-0.004,0.062-0.004,0.096c-0.001,0.076,0,0.149,0.005,0.224c0.001,0.031,0.002,0.062,0.004,0.09
	c0.008,0.102,0.021,0.199,0.038,0.297c0.002,0.013,0.009,0.023,0.011,0.038c0-0.001,0-0.002,0.001-0.002
	c0.25,1.264,1.354,2.194,3.756,2.325c3.991,0.222,26.696,0.846,48.191,0.938v-0.027l-0.532-0.745l0.532,0.744v-8.692l-5.941-8.074
	c1.901-0.477,3.94-0.837,5.941-1.258v-0.692v0.692c3.766-0.79,7.397-1.79,9.716-4.164c0.306,0.404,0.622,0.807,0.954,1.201
	c3.3,3.442,8.436,4.694,13.2,5.319c6.236,0.938,11.004-2.815,15.037-7.197c0.376-0.479,1.137-0.795,2.033-0.947
	c-0.052-0.146-0.104-0.294-0.155-0.438h-0.001c-0.131-0.367-0.262-0.72-0.393-1.055c-0.275-0.712-0.55-1.354-0.812-1.887l0,0
	c0-0.001,0-0.001-0.001-0.003c0,0-0.006-0.002-0.02-0.008c-0.005-0.001-0.012-0.004-0.021-0.007
	c-0.005-0.002-0.009-0.002-0.015-0.005c-0.004-0.001-0.008-0.001-0.013-0.004c0,0-0.003-0.001-0.004-0.002
	c-0.017-0.006-0.034-0.014-0.058-0.021c-0.006-0.001-0.011-0.002-0.018-0.005c-0.019-0.007-0.039-0.014-0.062-0.021
	c-0.01-0.004-0.018-0.008-0.028-0.013c-0.002,0-0.006-0.001-0.008-0.002c-0.001,0-0.001-0.001-0.004-0.001
	c-0.034-0.011-0.072-0.021-0.111-0.034c-0.009-0.003-0.016-0.006-0.021-0.006c-0.043-0.014-0.089-0.024-0.135-0.041
	c-0.009-0.002-0.015-0.003-0.021-0.006c-0.021-0.006-0.042-0.011-0.062-0.017c-0.027-0.007-0.055-0.016-0.082-0.021
	C239.036,426.902,239.028,426.898,239.016,426.897z M155.78,449.848c0.524,0.11,1.061,0.189,1.604,0.245
	C156.84,450.038,156.303,449.959,155.78,449.848L155.78,449.848z M189.074,438.877l2.13,2.968L189.074,438.877z M181.075,432.182
	c0,0,3.995-2.273,5.327-2.652c1.332-0.378,9.768-4.923,11.765-6.438c0.815-0.619,2.143-0.726,3.429-0.633
	c0.086,0.422,0.188,0.834,0.057,1.165c1.468,0.312,2.567,0.938,2.934,2.188c0.368,1.565-1.466,2.817-2.934,2.817
	c-0.732,0-1.438,0.033-2.119,0.1c-4.77,0.458-8.379,2.442-12.551,4.906c-0.171,0.122-0.348,0.229-0.531,0.326
	c-1.284,0.671-2.862,0.729-4.494,0.428c-0.293-0.412-0.552-0.877-0.802-1.366C181.075,432.528,181.075,432.182,181.075,432.182z"/>
<path fill="#9C9D9D" d="M155.78,449.848L155.78,449.848c0.523,0.11,1.061,0.189,1.604,0.245
	C156.84,450.039,156.303,449.961,155.78,449.848z"/>
<path fill="#9C9D9D" d="M242.297,451.189c-0.065,0.094-0.139,0.178-0.209,0.266c-0.081,0.102-0.158,0.205-0.245,0.298
	c-0.09,0.096-0.191,0.178-0.289,0.264c-0.08,0.069-0.153,0.146-0.237,0.21c-0.149,0.112-0.312,0.209-0.479,0.301
	c-0.042,0.023-0.078,0.055-0.121,0.076c-0.141,0.071-0.322,0.14-0.533,0.205c-0.007,0.003-0.013,0.005-0.02,0.007
	c-0.096,0.029-0.201,0.058-0.31,0.086c-0.02,0.006-0.037,0.011-0.057,0.016c-0.109,0.028-0.229,0.056-0.351,0.081
	c-0.022,0.007-0.045,0.012-0.068,0.017c-0.124,0.025-0.257,0.053-0.395,0.078c-0.026,0.005-0.052,0.01-0.08,0.015
	c-0.141,0.026-0.291,0.052-0.444,0.076c-0.026,0.004-0.051,0.009-0.077,0.013c-0.158,0.024-0.323,0.049-0.494,0.073
	c-0.027,0.004-0.053,0.008-0.081,0.012c-0.174,0.023-0.354,0.047-0.542,0.07c-0.027,0.003-0.053,0.007-0.08,0.01
	c-0.188,0.023-0.386,0.046-0.587,0.068c-0.027,0.003-0.055,0.006-0.083,0.009c-0.211,0.022-0.428,0.045-0.652,0.067
	c-0.014,0.001-0.028,0.003-0.043,0.004c-5.777,0.562-15.692,0.793-26.75,0.835c-0.824,0.002-1.656,0.005-2.492,0.006
	c-1.533,0.002-3.086,0-4.646-0.005c-0.587-0.001-1.172-0.002-1.761-0.004l-0.021-0.028v0.001l0.021,0.028l-0.021-0.028l0,0
	l0.021,0.027c-0.006,0-0.014,0-0.021,0v1.143c0.03,0,0.062,0,0.092,0c0.082,0,0.167,0,0.25-0.001
	c0.56-0.002,1.104-0.006,1.649-0.009c0.396-0.003,0.789-0.005,1.177-0.008c0.411-0.003,0.817-0.008,1.221-0.011
	c0.604-0.006,1.198-0.012,1.787-0.018c0.2-0.003,0.404-0.005,0.604-0.007c0.997-0.013,1.967-0.024,2.913-0.039
	c0.247-0.004,0.489-0.008,0.733-0.012c1.664-0.026,3.258-0.059,4.764-0.093c0.001,0,0.002,0,0.003,0l0.026,0.375c0,0,0,0,0.001,0
	l0.027,0.427c0.059,0.854,0.484,1.566,1.043,1.854c0.188,0.096,0.39,0.145,0.598,0.133l0,0l0,0l7.195-0.354l0.104-0.005
	c0.827-0.042,1.438-0.998,1.355-2.141l-0.041-0.616c1.189-0.051,2.301-0.103,3.329-0.153c0.001,0,0.003,0,0.005,0l0.027,0.443l0,0
	l0.002,0.024c0.05,0.822,0.456,1.513,0.991,1.791c0.179,0.094,0.373,0.142,0.572,0.132l0,0l0,0l6.58-0.298l0.429-0.02
	c0.792-0.035,1.383-0.956,1.314-2.055l-0.041-0.627l-0.005-0.083c0.89-0.088,1.302-0.144,1.302-0.144
	c0.515-0.217,1.408-0.524,1.677-0.867c0.68-0.87,0.684-1.943,0.669-2.256c0,0,0,0,0-0.001
	C242.439,450.966,242.372,451.082,242.297,451.189z"/>
<path fill="#9C9D9D" d="M200.152,455.482v-1.143c-21.494-0.093-44.199-0.717-48.19-0.938c-2.402-0.131-3.507-1.062-3.756-2.326
	c0,0,0,0.001-0.001,0.002c-0.222,0.521-0.312,1.136-0.074,1.696c0.104,0.243,1.05,0.979,2.208,1.095
	c0.002,0,0.003,0.001,0.005,0.001c0,0,0.257,0.03,0.787,0.086l-0.03,0.327c0,0,0,0,0.001,0l-0.038,0.414
	c-0.095,1.046,0.472,1.937,1.267,1.987l6.994,0.465h0.002l0,0l0,0c0.149,0.011,0.299-0.011,0.44-0.06c0,0.001,0,0.001,0,0.001
	l0.001-0.001l0,0c0.604-0.204,1.091-0.894,1.167-1.736l0.062-0.672l0,0c0.304,0.017,0.621,0.033,0.939,0.05
	c0.241,0.013,0.489,0.024,0.739,0.037c0.241,0.012,0.477,0.024,0.725,0.036l-0.019,0.558c0,0,0.001,0,0.002,0v0.001l0,0
	c0,0-0.001,0-0.002,0v0.012c-0.04,1.1,0.549,2.006,1.313,2.024l6.738,0.169l0,0h0.001c0.098,0.003,0.192-0.009,0.283-0.034
	c0,0,0.001,0,0.002,0c0.636-0.173,1.136-0.962,1.169-1.92l0.018-0.438v-0.001c0.911,0.023,1.854,0.052,2.829,0.077v0.375
	c0,0,0.001,0,0.002,0v0.001l0,0c0,0-0.001,0-0.002,0v0.178c0,1.102,0.646,1.992,1.44,1.992h0.002h7.017h0.002
	c0.088,0,0.171-0.014,0.253-0.031c0,0,0.001,0,0.002,0c0.675-0.168,1.188-0.98,1.188-1.961v-0.373v-0.001
	c0.799,0.009,1.613,0.019,2.442,0.021v0.158c0,0,0,0,0.001,0v0.375c0,1.197,0.646,2.169,1.441,2.169h0.001h6.955v0.001h0.062h0.002
	c0.199,0,0.389-0.061,0.562-0.171c0.52-0.328,0.883-1.101,0.883-1.999v-0.498v-0.001
	C198.721,455.488,199.44,455.485,200.152,455.482z"/>
<polygon fill="#9C9D9D" points="200.152,454.311 199.619,453.567 200.152,454.312 "/>
<polygon fill="#9C9D9D" points="199.619,453.567 200.152,454.312 200.152,454.312 "/>
<polygon fill="#9C9D9D" points="210.065,453.677 210.066,453.677 210.068,453.677 "/>
<path fill="#9C9D9D" d="M178.69,435.195c0.124,0.169,0.354,0.25,0.628,0.27c0.822,0.055,2.039-0.458,1.972-0.879
	c-0.073-0.452-0.271-0.885-0.409-1.146c-0.083-0.156-0.145-0.251-0.145-0.251c-0.071-0.133-0.112-0.228-0.15-0.317
	c-0.005-0.011-0.015-0.027-0.02-0.039c-0.036-0.084-0.062-0.146-0.086-0.201c-0.012-0.028-0.029-0.062-0.043-0.086
	c-0.058-0.108-0.13-0.185-0.335-0.301c-0.013-0.007-0.034-0.01-0.052-0.013c-0.361-0.121-1.548,0.226-2.119,0.711
	c-0.147,0.127-0.206,0.288-0.202,0.469c0,0.003,0,0.006,0,0.009c0.002,0.082,0.021,0.17,0.045,0.259
	c0.006,0.02,0.013,0.038,0.019,0.058C177.952,434.223,178.387,434.782,178.69,435.195z"/>
<path fill="#9C9D9D" d="M174.788,436.087L174.788,436.087c0.04,0.054,0.076,0.104,0.111,0.152c0.495,0.676,2.689-0.049,2.6-0.61
	c0,0,0,0,0-0.001l0,0c-0.115-0.723-0.554-1.397-0.554-1.397c-0.16-0.299-0.213-0.462-0.267-0.584
	c-0.004-0.01-0.01-0.025-0.015-0.034c-0.01-0.019-0.025-0.032-0.036-0.05c-0.023-0.038-0.043-0.077-0.08-0.111
	c-0.054-0.05-0.127-0.101-0.238-0.164c-0.297-0.169-1.572,0.192-2.168,0.699c-0.146,0.125-0.204,0.285-0.201,0.465
	c0,0.005,0,0.011,0,0.016c0.003,0.087,0.02,0.179,0.047,0.273c0.001,0.003,0.004,0.007,0.005,0.012
	c0.029,0.097,0.069,0.194,0.118,0.296c0.001,0.003,0.003,0.006,0.004,0.009C174.29,435.409,174.559,435.775,174.788,436.087z"/>
<path fill="#9C9D9D" d="M171,437.549L171,437.549c0.038,0.052,0.075,0.104,0.11,0.15c0.495,0.679,2.688-0.049,2.6-0.61
	c0,0,0,0,0-0.001l0,0c-0.115-0.722-0.552-1.396-0.552-1.396c-0.024-0.044-0.031-0.066-0.052-0.104
	c-0.045-0.091-0.089-0.179-0.117-0.243c-0.044-0.104-0.075-0.183-0.104-0.246c-0.001-0.001-0.002-0.004-0.003-0.006
	c-0.002-0.005-0.005-0.014-0.007-0.019c-0.003-0.005-0.007-0.009-0.011-0.014c-0.012-0.023-0.03-0.042-0.044-0.062
	c-0.02-0.026-0.032-0.059-0.061-0.084c0-0.001,0-0.001,0-0.001l0,0c-0.053-0.051-0.126-0.102-0.238-0.165
	c-0.296-0.169-1.571,0.192-2.168,0.699c-0.217,0.186-0.238,0.445-0.157,0.732c0.005,0.014,0.007,0.025,0.012,0.04
	c0.025,0.086,0.062,0.175,0.104,0.264c0.007,0.016,0.015,0.03,0.021,0.046C170.507,436.88,170.773,437.24,171,437.549z"/>
<path fill="#9C9D9D" d="M167.21,439.009c0,0-0.001,0-0.002,0c0.039,0.052,0.077,0.104,0.111,0.151
	c0.435,0.593,2.167,0.109,2.533-0.396c0.053-0.072,0.078-0.146,0.067-0.216c-0.116-0.723-0.552-1.398-0.552-1.398
	c-0.056-0.101-0.081-0.165-0.115-0.239c-0.018-0.038-0.045-0.09-0.06-0.122c-0.021-0.053-0.039-0.089-0.055-0.129
	c-0.018-0.045-0.04-0.097-0.057-0.132c-0.027-0.055-0.06-0.1-0.104-0.144c-0.007-0.007-0.015-0.016-0.021-0.021
	c-0.051-0.046-0.116-0.092-0.213-0.147c-0.005-0.003-0.006-0.004-0.011-0.008c0,0-0.002,0-0.002-0.001
	c-0.301-0.166-1.572,0.193-2.167,0.699c-0.074,0.063-0.125,0.136-0.158,0.214c0,0.001,0,0.002,0,0.003
	c-0.031,0.078-0.045,0.162-0.043,0.252c0,0.003,0,0.005,0,0.007c0.002,0.088,0.021,0.18,0.048,0.273
	c0.002,0.007,0.004,0.015,0.006,0.021C166.552,438.113,166.915,438.607,167.21,439.009z"/>
<path fill="#9C9D9D" d="M163.286,440.514c0.311,0.423,1.283,0.299,1.946,0.009c0.398-0.174,0.687-0.407,0.652-0.618
	c-0.114-0.723-0.552-1.396-0.552-1.396c-0.037-0.069-0.053-0.108-0.079-0.165c-0.104-0.216-0.161-0.366-0.21-0.465
	c-0.026-0.052-0.057-0.096-0.1-0.139c-0.007-0.006-0.014-0.015-0.021-0.021c-0.047-0.043-0.113-0.087-0.201-0.14
	c-0.01-0.006-0.013-0.01-0.023-0.017c-0.023-0.015-0.063-0.02-0.1-0.025c0,0,0,0,0,0.001c-0.021-0.005-0.034-0.013-0.059-0.015
	c-0.453-0.037-1.493,0.294-2.014,0.737c-0.146,0.124-0.202,0.283-0.2,0.461c0,0.006-0.001,0.011,0,0.017
	c0.002,0.082,0.02,0.17,0.045,0.259c0.003,0.013,0.005,0.022,0.009,0.034c0.029,0.095,0.067,0.189,0.115,0.287
	c0.001,0.003,0.003,0.006,0.004,0.01C162.702,439.743,163.039,440.177,163.286,440.514z"/>
<path fill="#9C9D9D" d="M239.059,431.446c-4.033,4.381-8.801,8.136-15.037,7.197c-4.766-0.625-9.899-1.877-13.2-5.319
	c-0.331-0.396-0.648-0.797-0.953-1.202c-2.318,2.374-5.95,3.374-9.717,4.164v9.332l2.096,2.848
	c5.345-0.307,10.712-0.376,16.125,0.008c0.104,0.012,0.216,0.021,0.322,0.029c0.012-0.007,0.022-0.013,0.034-0.019
	c0.006-0.003,0.012-0.007,0.018-0.01c0,0,0,0,0.001,0s0.001-0.001,0.001-0.001c-0.001,0-0.001,0-0.002,0
	c1.486-0.812,2.999-1.605,4.522-2.393c0.021-0.011,0.041-0.021,0.062-0.032c1.562-0.806,3.142-1.603,4.727-2.397
	c0.153-0.087,0.315-0.16,0.482-0.227c0.016-0.007,0.033-0.012,0.049-0.019c0.159-0.061,0.324-0.115,0.493-0.164
	c0.851-0.337,3.36-1.315,5.202-1.979c1.912-0.688,4.437-1.646,5.15-1.916c0.111-0.046,0.226-0.089,0.336-0.135
	c0.265-0.108,0.53-0.214,0.796-0.318c0.821-0.326,1.648-0.642,2.497-0.924c-0.508-2.688-1.228-5.312-1.971-7.475
	C240.196,430.651,239.435,430.969,239.059,431.446z"/>
<path fill="#9C9D9D" d="M200.152,436.286c-2.001,0.421-4.04,0.782-5.94,1.259l5.94,8.073V436.286z"/>
<path fill="#BFBFC0" d="M200.152,454.312v0.027c0.007,0,0.014,0,0.021,0L200.152,454.312z"/>
<line fill="none" x1="189.074" y1="438.877" x2="191.204" y2="441.844"/>
<line fill="none" x1="200.152" y1="454.312" x2="199.619" y2="453.567"/>
<line fill="none" x1="200.152" y1="454.312" x2="200.172" y2="454.342"/>
<line fill="none" x1="206.092" y1="453.69" x2="206.577" y2="454.348"/>
<line fill="none" x1="200.152" y1="455.482" x2="200.152" y2="455.482"/>
<line fill="none" x1="200.152" y1="455.64" x2="200.152" y2="455.482"/>
<line fill="none" x1="200.152" y1="445.618" x2="200.152" y2="436.286"/>
<line fill="none" x1="200.152" y1="454.341" x2="200.152" y2="455.482"/>
<line fill="none" x1="200.152" y1="436.286" x2="200.152" y2="435.594"/>
<line fill="none" x1="200.152" y1="454.311" x2="200.152" y2="454.312"/>
<line fill="none" x1="200.152" y1="454.341" x2="200.152" y2="454.312"/>
<line fill="none" x1="200.152" y1="454.312" x2="200.152" y2="454.312"/>
<line fill="none" x1="200.152" y1="445.618" x2="200.152" y2="454.311"/>
<path fill="#9C9D9D" d="M181.957,434.391c1.632,0.302,3.209,0.243,4.494-0.428c0.184-0.098,0.36-0.204,0.531-0.326
	c4.172-2.464,7.782-4.448,12.551-4.906c0.681-0.065,1.386-0.1,2.119-0.1c1.468,0,3.302-1.252,2.934-2.817
	c-0.365-1.251-1.466-1.877-2.934-2.189c0.131-0.33,0.029-0.742-0.057-1.164c-1.286-0.093-2.612,0.014-3.429,0.633
	c-1.997,1.515-10.433,6.06-11.765,6.438c-1.332,0.379-5.327,2.652-5.327,2.652s0,0.346,0.08,0.843
	C181.406,433.514,181.664,433.979,181.957,434.391z"/>
<path fill="#BFBFC0" d="M240.566,438.895c-0.267,0.104-0.531,0.21-0.796,0.318c-0.11,0.046-0.225,0.089-0.336,0.135
	c-0.715,0.271-3.238,1.229-5.15,1.916c-1.842,0.662-4.352,1.642-5.202,1.979c-0.169,0.05-0.333,0.104-0.493,0.164
	c-0.017,0.007-0.033,0.013-0.049,0.019c-0.167,0.065-0.329,0.14-0.482,0.227c-1.585,0.796-3.163,1.593-4.727,2.397
	c-0.021,0.011-0.041,0.021-0.062,0.032c-1.524,0.786-3.036,1.58-4.522,2.393c0.001,0,0.001,0,0.002,0l-0.001,0.001h-0.001
	c-0.007,0.003-0.012,0.007-0.018,0.01c-0.011,0.006-0.021,0.012-0.034,0.019c-0.106-0.01-0.218-0.019-0.322-0.029
	c-5.413-0.384-10.78-0.313-16.125-0.008l-2.096-2.848v8.693l0.021,0.028c0.589,0.002,1.174,0.003,1.761,0.004
	c1.56,0.005,3.111,0.007,4.646,0.005l-0.485-0.658l0.485,0.658c0.836-0.001,1.668-0.004,2.492-0.006
	c11.058-0.042,20.973-0.273,26.75-0.835c0.016-0.001,0.029-0.003,0.043-0.004c0.225-0.022,0.441-0.044,0.652-0.067
	c0.028-0.003,0.055-0.006,0.083-0.009c0.202-0.022,0.398-0.045,0.587-0.068c0.027-0.003,0.053-0.007,0.08-0.01
	c0.188-0.023,0.368-0.047,0.542-0.07c0.027-0.004,0.054-0.008,0.081-0.012c0.17-0.024,0.335-0.049,0.494-0.073
	c0.026-0.004,0.051-0.009,0.077-0.013c0.153-0.024,0.304-0.05,0.444-0.076c0.027-0.005,0.054-0.01,0.08-0.015
	c0.138-0.025,0.271-0.053,0.395-0.078c0.023-0.005,0.046-0.01,0.068-0.017c0.122-0.025,0.241-0.053,0.351-0.08
	c0.02-0.006,0.037-0.011,0.057-0.017c0.108-0.028,0.214-0.057,0.31-0.086c0.007-0.002,0.013-0.004,0.02-0.007
	c0.211-0.065,0.394-0.134,0.533-0.205c0.043-0.021,0.079-0.053,0.121-0.076c0.167-0.092,0.33-0.188,0.479-0.301
	c0.084-0.063,0.158-0.141,0.237-0.21c0.097-0.086,0.198-0.168,0.289-0.264c0.087-0.093,0.165-0.196,0.245-0.297
	c0.07-0.089,0.144-0.173,0.209-0.267c0.075-0.106,0.142-0.225,0.211-0.341c0,0.001,0,0.001,0,0.001
	c0.004-0.006,0.007-0.013,0.011-0.021c0.042-0.07,0.091-0.137,0.131-0.211c0.015-0.025,0.025-0.057,0.039-0.084
	c0.059-0.11,0.11-0.229,0.163-0.347c0.052-0.117,0.104-0.234,0.151-0.355c0.05-0.131,0.097-0.265,0.142-0.399
	c0.04-0.119,0.077-0.239,0.112-0.363c0.042-0.147,0.083-0.298,0.12-0.452c0.027-0.117,0.053-0.237,0.078-0.358
	c0.035-0.168,0.068-0.337,0.098-0.512c0.017-0.105,0.03-0.214,0.045-0.32c0.028-0.198,0.058-0.396,0.078-0.603
	c0.003-0.034,0.005-0.071,0.008-0.106c0.049-0.508,0.077-1.034,0.085-1.577c0,0,0.002,0,0.002-0.001c0-0.024-0.001-0.05,0-0.074
	c0.003-0.235,0-0.477-0.003-0.719c-0.001-0.082,0.001-0.162-0.001-0.244c0-0.012,0-0.021-0.001-0.034c0-0.002,0-0.003,0-0.004
	c-0.001-0.045-0.003-0.091-0.005-0.136c-0.003-0.098-0.006-0.196-0.01-0.295c-0.002-0.069-0.004-0.138-0.007-0.207
	c-0.001-0.002-0.001-0.003-0.001-0.005c0-0.016-0.001-0.03-0.002-0.048c0-0.001,0-0.001,0-0.003c-0.005-0.082-0.015-0.167-0.02-0.25
	c-0.016-0.27-0.034-0.538-0.057-0.812c-0.003-0.04-0.007-0.08-0.012-0.12c-0.001-0.014-0.002-0.028-0.004-0.043
	c-0.01-0.108-0.019-0.219-0.029-0.329c-0.124-1.267-0.312-2.562-0.555-3.846c0,0-0.001,0.001-0.002,0.001c0-0.001,0-0.001,0-0.001
	C242.215,438.255,241.387,438.569,240.566,438.895z M210.065,453.677c0.001-0.001,0.001-0.001,0.002-0.002
	C210.067,453.677,210.066,453.677,210.065,453.677L210.065,453.677z"/>
<path fill="#BFBFC0" d="M333.869,436.514c0.01-0.019,0.021-0.035,0.03-0.052c0.006-0.013,0.015-0.021,0.023-0.032
	c0.01-0.016,0.021-0.027,0.035-0.04c0.003-0.002,0.006-0.005,0.008-0.007c-0.045,0.044-0.076,0.089-0.104,0.144
	C333.865,436.523,333.868,436.518,333.869,436.514z"/>
<path fill="#BFBFC0" d="M333.807,436.659c-0.016,0.04-0.033,0.076-0.055,0.129C333.772,436.741,333.791,436.696,333.807,436.659z"/>
<path fill="#BFBFC0" d="M328.932,434.816c-0.008,0.02-0.014,0.036-0.021,0.055c-0.017,0.042-0.035,0.085-0.056,0.131
	c-0.004,0.012-0.01,0.021-0.016,0.032c-0.002,0.004-0.004,0.009-0.006,0.013c0.049-0.102,0.089-0.199,0.119-0.297
	C328.946,434.772,328.939,434.795,328.932,434.816z"/>
<path fill="#BFBFC0" d="M332.74,436.219c0,0.003-0.004,0.008-0.004,0.012c-0.016,0.048-0.032,0.097-0.053,0.146
	c0,0.002-0.002,0.004-0.002,0.006c-0.015,0.032-0.031,0.066-0.047,0.101C332.677,436.392,332.713,436.303,332.74,436.219
	L332.74,436.219z"/>
<path fill="#BFBFC0" d="M300.804,455.472c0.546,0.003,1.091,0.007,1.65,0.009C301.895,455.479,301.349,455.475,300.804,455.472z"/>
<path fill="#BFBFC0" d="M333.992,436.359c0.016-0.016,0.034-0.029,0.055-0.046c0.014-0.008,0.022-0.017,0.037-0.027
	c0.033-0.021,0.072-0.046,0.119-0.071c-0.099,0.057-0.164,0.103-0.215,0.147C333.99,436.361,333.99,436.36,333.992,436.359z"/>
<path fill="#BFBFC0" d="M338.08,437.675c0.014-0.012,0.022-0.02,0.034-0.027c0.031-0.021,0.068-0.043,0.107-0.065
	c-0.088,0.053-0.154,0.097-0.201,0.14C338.038,437.705,338.059,437.688,338.08,437.675z"/>
<path fill="#BFBFC0" d="M340.619,438.749c0,0.014-0.002,0.024-0.005,0.035c-0.004,0.037-0.006,0.075-0.016,0.111
	c-0.002,0.01-0.004,0.019-0.006,0.027c-0.006,0.024-0.014,0.051-0.021,0.075c0.025-0.089,0.042-0.177,0.046-0.259
	C340.618,438.743,340.619,438.746,340.619,438.749z"/>
<path fill="#BFBFC0" d="M298.406,455.455c0.403,0.003,0.81,0.008,1.222,0.011C299.217,455.463,298.809,455.459,298.406,455.455z"/>
<path fill="#BFBFC0" d="M340.561,439.051c-0.002,0.007-0.006,0.013-0.008,0.02c-0.016,0.047-0.033,0.093-0.053,0.143
	c-0.002,0.004-0.004,0.006-0.004,0.01c-0.017,0.033-0.031,0.065-0.047,0.1c0.047-0.098,0.086-0.192,0.114-0.287
	C340.563,439.039,340.562,439.045,340.561,439.051z"/>
<path fill="#BFBFC0" d="M336.559,437.175c0.004,0.019,0.012,0.035,0.014,0.056c0.007,0.024,0.009,0.049,0.011,0.074
	c0,0.017,0.002,0.032,0.002,0.051c0,0.006,0,0.014,0,0.02c0.002-0.09-0.012-0.174-0.044-0.252
	C336.547,437.138,336.553,437.155,336.559,437.175z"/>
<path fill="#BFBFC0" d="M336.58,437.443c-0.002,0.014-0.002,0.027-0.007,0.04c-0.002,0.035-0.012,0.069-0.02,0.105
	c-0.002,0.009-0.004,0.02-0.008,0.025c-0.003,0.014-0.008,0.025-0.012,0.039c0.027-0.095,0.045-0.187,0.048-0.273
	C336.582,437.401,336.582,437.423,336.58,437.443z"/>
<path fill="#BFBFC0" d="M337.934,437.822c0.006-0.01,0.012-0.02,0.019-0.025c0.012-0.018,0.024-0.031,0.039-0.047
	c0.004-0.003,0.007-0.006,0.01-0.01c-0.043,0.043-0.072,0.087-0.1,0.139C337.91,437.859,337.922,437.842,337.934,437.822z"/>
<path fill="#BFBFC0" d="M329.004,434.494c-0.002,0.021-0.004,0.04-0.008,0.062c-0.004,0.031-0.011,0.062-0.017,0.096
	c-0.006,0.021-0.008,0.039-0.016,0.062c-0.002,0.009-0.006,0.019-0.008,0.027c0.026-0.096,0.044-0.188,0.047-0.273
	C329.004,434.474,329.004,434.484,329.004,434.494z"/>
<path fill="#BFBFC0" d="M296.016,455.43c0.199,0.002,0.402,0.004,0.604,0.007C296.419,455.434,296.214,455.432,296.016,455.43z"/>
<path fill="#BFBFC0" d="M322.466,432.631c-0.024,0.056-0.051,0.117-0.087,0.201C322.414,432.755,322.443,432.684,322.466,432.631z"
	/>
<path fill="#BFBFC0" d="M304.959,455.489L304.959,455.489c-0.738,0-1.449-0.004-2.164-0.007l0,0
	C303.506,455.485,304.225,455.488,304.959,455.489z"/>
<path fill="#BFBFC0" d="M318.75,457.8h7.018h0.002c0.795,0,1.439-0.892,1.439-1.992v-0.178c0,0-0.001,0-0.002,0l0,0v-0.001
	c0.001,0,0.002,0,0.002,0v-0.375c0.976-0.025,1.919-0.054,2.83-0.077v0.001c-0.908,0.023-1.851,0.052-2.82,0.077
	c-0.002,0-0.004,0-0.008,0v0.376v0.178c0,1.102-0.646,1.992-1.439,1.992h-7.02c-0.088,0-0.172-0.014-0.254-0.031
	c0,0-0.001-0.001-0.002-0.001c0.082,0.019,0.165,0.031,0.252,0.031H318.75z"/>
<path fill="#BFBFC0" d="M287.547,456.09l0.029-0.427l0,0l0.025-0.375c0.001,0,0.003,0,0.003,0l-0.024,0.373l-0.027,0.427
	c-0.059,0.854-0.488,1.57-1.049,1.855C287.063,457.656,287.49,456.942,287.547,456.09z"/>
<path fill="#BFBFC0" d="M302.795,455.482c-0.031,0-0.062,0-0.092,0C302.734,455.482,302.765,455.482,302.795,455.482
	L302.795,455.482z"/>
<path fill="#BFBFC0" d="M273.928,455.274l0.002-0.024l0,0l0.027-0.443c0.002,0,0.004,0,0.006,0l-0.029,0.44l-0.002,0.025
	c-0.051,0.824-0.457,1.516-0.994,1.793C273.473,456.787,273.878,456.096,273.928,455.274z"/>
<path fill="#BFBFC0" d="M331.512,457.569L331.512,457.569l6.738-0.169c0.766-0.02,1.354-0.926,1.313-2.025v-0.011
	c0,0-0.001,0-0.002,0l0,0v-0.001c0.001,0,0.002,0,0.002,0l-0.019-0.558c0.247-0.012,0.482-0.024,0.725-0.036
	c-0.239,0.013-0.475,0.025-0.722,0.037l0.018,0.559v0.01c0.041,1.102-0.549,2.008-1.313,2.026l-6.738,0.169
	c-0.098,0.003-0.193-0.009-0.285-0.034c0,0,0-0.001-0.002-0.001c0.092,0.025,0.188,0.037,0.283,0.034H331.512L331.512,457.569z"/>
<path fill="#BFBFC0" d="M313.42,458.157L313.42,458.157c0.797,0,1.442-0.972,1.442-2.169v-0.375l0,0v-0.158
	c0.83-0.004,1.645-0.014,2.443-0.021v0.001c-0.033,0-0.067,0.001-0.1,0.002c-0.767,0.009-1.547,0.017-2.343,0.021v0.157v0.376
	c0,1.197-0.645,2.169-1.44,2.169h-6.957h-0.002v-0.001L313.42,458.157L313.42,458.157z"/>
<path fill="#BFBFC0" d="M332.594,435.445c-0.596-0.507-1.873-0.868-2.168-0.699c-0.111,0.063-0.187,0.114-0.238,0.165
	c0.002-0.003,0.004-0.006,0.008-0.008c0.017-0.016,0.037-0.031,0.06-0.049c0.012-0.007,0.021-0.018,0.035-0.027
	c0.039-0.022,0.084-0.052,0.139-0.084c0.297-0.169,1.572,0.192,2.168,0.699c0.037,0.033,0.068,0.066,0.096,0.104
	c0.007,0.012,0.013,0.022,0.021,0.035c0.016,0.025,0.033,0.054,0.045,0.078c0.004,0.015,0.006,0.025,0.01,0.038
	c0.01,0.029,0.021,0.06,0.023,0.089c0.002,0.014,0.002,0.023,0.002,0.036c0.002,0.032,0.008,0.064,0.006,0.101
	c0,0.011-0.004,0.02-0.004,0.027c-0.002,0.037-0.008,0.077-0.014,0.115c-0.003,0.007-0.005,0.014-0.007,0.021
	c-0.005,0.028-0.014,0.06-0.022,0.09C332.832,435.89,332.811,435.631,332.594,435.445z"/>
<path fill="#BFBFC0" d="M329.956,435.343c0.046-0.105,0.077-0.188,0.107-0.252c-0.002,0.002-0.002,0.005-0.004,0.006
	C330.031,435.16,330,435.239,329.956,435.343z"/>
<path fill="#BFBFC0" d="M330.081,435.058c0.011-0.021,0.021-0.04,0.031-0.059c0.005-0.01,0.009-0.016,0.013-0.021
	c0.012-0.016,0.026-0.032,0.041-0.048c0.008-0.006,0.014-0.014,0.021-0.021c-0.027,0.025-0.042,0.058-0.062,0.084
	C330.112,435.016,330.093,435.035,330.081,435.058z"/>
<path fill="#BFBFC0" d="M322.897,432.231c-0.018,0.003-0.039,0.006-0.053,0.013c-0.205,0.116-0.277,0.191-0.335,0.301
	c0.01-0.021,0.019-0.042,0.03-0.061c0.006-0.009,0.014-0.017,0.02-0.025c0.012-0.016,0.023-0.027,0.039-0.045
	c0.01-0.009,0.021-0.02,0.031-0.027c0.018-0.016,0.035-0.028,0.057-0.045c0.012-0.01,0.021-0.019,0.035-0.025
	c0.037-0.025,0.078-0.051,0.127-0.079c0.299-0.169,1.576,0.19,2.17,0.698c0.035,0.031,0.064,0.062,0.09,0.099
	c0.011,0.013,0.017,0.025,0.025,0.039c0.014,0.022,0.027,0.044,0.037,0.067c0.008,0.018,0.014,0.037,0.018,0.058
	c0.006,0.021,0.015,0.038,0.019,0.062c0.004,0.021,0.006,0.045,0.01,0.065c0.002,0.021,0.004,0.037,0.004,0.057
	c0,0.01-0.002,0.021-0.002,0.03c0.004-0.181-0.054-0.342-0.201-0.469C324.445,432.456,323.258,432.11,322.897,432.231z"/>
<path fill="#BFBFC0" d="M341.949,454.682c-0.305,0.016-0.621,0.033-0.939,0.05C341.328,454.717,341.646,454.699,341.949,454.682
	L341.949,454.682z"/>
<path fill="#BFBFC0" d="M334.215,436.206L334.215,436.206c0.297-0.169,1.574,0.191,2.17,0.698c0.035,0.03,0.064,0.063,0.092,0.099
	c0.01,0.016,0.017,0.029,0.023,0.045c0.014,0.021,0.026,0.042,0.037,0.063c0,0.003,0.002,0.006,0.002,0.008
	c-0.032-0.078-0.084-0.149-0.158-0.214C335.787,436.399,334.516,436.04,334.215,436.206z"/>
<path fill="#BFBFC0" d="M351.885,454.698l-0.039-0.414c0.001,0,0.001,0,0.002,0l-0.03-0.327c0.529-0.056,0.786-0.086,0.786-0.086
	c0.002,0,0.004-0.001,0.006-0.001c-0.001,0-0.001,0.001-0.002,0.001c0,0-0.008,0.001-0.021,0.003
	c-0.066,0.009-0.318,0.036-0.769,0.083l0.031,0.327l0.037,0.414c0.096,1.046-0.471,1.937-1.266,1.987l-6.996,0.465l0,0l6.994-0.465
	C351.414,456.635,351.979,455.744,351.885,454.698z"/>
<path fill="#BFBFC0" d="M338.405,437.525c0.452-0.038,1.494,0.293,2.015,0.737c0.039,0.032,0.069,0.065,0.098,0.104
	c0.008,0.015,0.014,0.026,0.021,0.038c0.018,0.024,0.032,0.052,0.043,0.078c0.006,0.015,0.008,0.029,0.014,0.043
	c0.008,0.027,0.018,0.056,0.021,0.086c0.003,0.013,0,0.026,0.003,0.041c0.002,0.023,0.002,0.047,0.002,0.071
	c0.002-0.178-0.056-0.337-0.201-0.461C339.897,437.819,338.858,437.488,338.405,437.525z"/>
<path fill="#BFBFC0" d="M325.215,433.462c0,0.016-0.004,0.029-0.006,0.047c-0.004,0.03-0.011,0.062-0.019,0.096
	c-0.004,0.012-0.006,0.022-0.008,0.036c-0.004,0.013-0.009,0.024-0.012,0.038c0.023-0.089,0.042-0.177,0.045-0.259
	C325.216,433.432,325.215,433.446,325.215,433.462z"/>
<path fill="#BFBFC0" d="M292.555,455.385c-0.062,0-0.123-0.002-0.186-0.004c0.243,0.004,0.485,0.008,0.732,0.012
	C292.92,455.388,292.737,455.386,292.555,455.385z"/>
<path fill="#BFBFC0" d="M263.897,426.906c-0.026,0.007-0.055,0.016-0.082,0.021c-0.021,0.006-0.043,0.011-0.062,0.017
	c-0.008,0.003-0.015,0.004-0.021,0.006c-0.047,0.017-0.092,0.027-0.135,0.041c-0.006,0-0.014,0.003-0.021,0.005
	c-0.039,0.015-0.078,0.024-0.111,0.035c-0.004,0-0.004,0.001-0.004,0.001c-0.002,0.001-0.006,0.002-0.008,0.002
	c-0.013,0.004-0.021,0.009-0.029,0.013c-0.023,0.007-0.045,0.014-0.062,0.021c-0.006,0.003-0.012,0.004-0.018,0.005
	c-0.023,0.007-0.041,0.016-0.057,0.021c-0.002,0.001-0.004,0.002-0.004,0.002c-0.007,0.003-0.009,0.003-0.013,0.004
	c-0.006,0.003-0.01,0.003-0.016,0.005c-0.008,0.003-0.017,0.006-0.021,0.007c-0.014,0.006-0.02,0.008-0.02,0.008
	c0,0.001,0,0.001,0,0.002l0,0c-0.262,0.533-0.535,1.176-0.812,1.888c-0.13,0.335-0.261,0.688-0.392,1.055c-0.001,0-0.001,0-0.001,0
	c-0.053,0.144-0.105,0.291-0.156,0.438c0.896,0.152,1.658,0.47,2.033,0.947c4.033,4.381,8.801,8.137,15.037,7.197
	c4.766-0.625,9.899-1.877,13.201-5.319c0.332-0.396,0.647-0.797,0.953-1.202c2.317,2.374,5.949,3.374,9.717,4.164v-0.691v0.691
	c2.001,0.422,4.039,0.782,5.94,1.259l-5.94,8.073v8.693l0.531-0.744l-0.531,0.745v0.027c21.494-0.093,44.199-0.716,48.19-0.938
	c2.401-0.131,3.507-1.062,3.757-2.326c0,0,0,0.001,0.001,0.002c0.003-0.014,0.009-0.024,0.011-0.037
	c0.02-0.098,0.031-0.195,0.039-0.298c0.002-0.027,0.002-0.058,0.004-0.089c0.004-0.073,0.006-0.146,0.004-0.224
	c0-0.033,0-0.064-0.004-0.096c-0.002-0.081-0.01-0.164-0.019-0.246c-0.002-0.024-0.004-0.049-0.006-0.072
	c-0.009-0.066-0.029-0.138-0.042-0.205c-0.007-0.044-0.007-0.085-0.015-0.129c-0.01-0.044-0.027-0.089-0.038-0.133
	c-0.017-0.076-0.024-0.148-0.046-0.227c-0.008-0.025-0.019-0.055-0.025-0.083c-0.028-0.101-0.062-0.201-0.098-0.306
	c-0.008-0.021-0.016-0.045-0.023-0.067c-0.045-0.122-0.094-0.244-0.146-0.37c-0.01-0.019-0.019-0.035-0.025-0.055
	c-0.045-0.104-0.094-0.211-0.146-0.314c-0.017-0.033-0.031-0.066-0.049-0.1c-0.054-0.104-0.109-0.213-0.17-0.318
	c-0.011-0.019-0.021-0.032-0.027-0.052c-0.068-0.122-0.144-0.243-0.219-0.363c-0.021-0.03-0.039-0.061-0.058-0.089
	c-0.062-0.096-0.123-0.188-0.188-0.282c-0.021-0.034-0.045-0.068-0.068-0.102c-0.084-0.12-0.17-0.237-0.258-0.354
	c-1.041-1.367-2.445-2.593-3.854-3.286l-0.002-0.001c-0.001-0.001-0.001-0.001-0.002-0.001c-0.821-0.405-1.674-0.803-2.545-1.195
	l0,0c-2.05-0.921-4.195-1.797-6.272-2.6c-0.011-0.004-0.021-0.009-0.029-0.014v-0.001c0.007-0.015,0.013-0.028,0.02-0.043
	c-0.2,0.413-0.539,0.849-0.784,1.186c-0.312,0.423-1.284,0.299-1.947,0.009c-0.398-0.174-0.688-0.407-0.652-0.618
	c0.113-0.723,0.551-1.396,0.551-1.396c0.037-0.069,0.054-0.108,0.08-0.165c-0.002,0-0.003-0.001-0.004-0.001
	c-0.028-0.012-0.059-0.021-0.089-0.032c-0.371-0.138-0.737-0.271-1.097-0.402c-0.019-0.005-0.033-0.013-0.054-0.019
	c0.021-0.046,0.039-0.091,0.058-0.137c0-0.006,0.004-0.011,0.004-0.016c0.008-0.021,0.014-0.041,0.02-0.062
	c-0.136,0.438-0.498,0.932-0.793,1.332c0,0,0.001,0,0.002,0c-0.038,0.052-0.077,0.104-0.112,0.151
	c-0.435,0.593-2.166,0.109-2.532-0.396c-0.054-0.072-0.078-0.146-0.067-0.216c0.117-0.723,0.554-1.398,0.554-1.398
	c0.055-0.101,0.08-0.165,0.114-0.239c-0.377-0.134-0.733-0.258-1.082-0.377c0,0,0,0,0-0.001c0-0.002,0.001-0.003,0.002-0.005
	c-0.174,0.352-0.438,0.713-0.667,1.021c0.002,0,0.002,0,0.002,0c-0.039,0.052-0.076,0.104-0.111,0.15
	c-0.496,0.678-2.689-0.049-2.601-0.61c0,0,0,0,0-0.001l0,0c0.115-0.722,0.554-1.396,0.554-1.396c0.022-0.044,0.03-0.066,0.051-0.105
	c-0.334-0.114-0.699-0.24-1.086-0.376c-0.002,0-0.002-0.002-0.004-0.002c0.002-0.002,0.002-0.003,0.002-0.003
	c0.027-0.05,0.053-0.099,0.078-0.148c-0.174,0.354-0.443,0.721-0.672,1.031l0,0c-0.041,0.054-0.078,0.104-0.113,0.152
	c-0.494,0.676-2.689-0.049-2.598-0.61c0,0,0,0,0-0.001l0,0c0.114-0.723,0.553-1.397,0.553-1.397c0.16-0.299,0.213-0.462,0.267-0.584
	c0.005-0.01,0.011-0.025,0.016-0.034c0.01-0.019,0.024-0.032,0.034-0.05c0.023-0.038,0.045-0.077,0.08-0.111
	c0.056-0.05,0.127-0.101,0.238-0.164c0.297-0.169,1.572,0.192,2.168,0.699c0.147,0.125,0.205,0.285,0.201,0.465
	c0-0.015,0.002-0.029,0.002-0.044c0-0.021-0.004-0.04-0.004-0.058c-0.004-0.029-0.012-0.06-0.019-0.083
	c-0.006-0.021-0.01-0.035-0.016-0.053c-0.012-0.028-0.027-0.059-0.041-0.083c-0.01-0.015-0.014-0.027-0.022-0.04
	c-0.027-0.038-0.06-0.076-0.101-0.109c-0.596-0.507-1.869-0.868-2.168-0.699c-0.443,0.253-0.287,0.296-0.635,0.942
	c0,0-0.004,0.006-0.004,0.007c-0.017-0.008-0.031-0.013-0.047-0.021c-0.275-0.101-0.556-0.2-0.843-0.307
	c-0.006-0.002-0.012-0.004-0.018-0.007c0.02-0.042,0.035-0.084,0.051-0.127c0.002-0.007,0.004-0.014,0.006-0.021
	c0.002-0.005,0.004-0.009,0.005-0.014c-0.158,0.488-0.595,1.047-0.896,1.46c-0.123,0.169-0.354,0.25-0.628,0.269
	c-0.821,0.056-2.038-0.457-1.972-0.879c0.072-0.451,0.271-0.884,0.408-1.146c0.083-0.156,0.145-0.251,0.145-0.251
	c0.072-0.133,0.113-0.229,0.152-0.317c-0.02-0.005-0.036-0.013-0.054-0.019c-0.156-0.06-0.311-0.12-0.467-0.18
	c0.006-0.049,0.01-0.092,0.014-0.131c0-0.013,0-0.021,0.002-0.032c0.002-0.03,0.005-0.06,0.007-0.085
	c0.002-0.01,0.002-0.018,0.002-0.027c0.004-0.066,0.008-0.119,0.008-0.156c0-0.007,0-0.013,0.002-0.018c0-0.013,0-0.021,0-0.027
	s0-0.009,0-0.012c0-0.007,0-0.011,0-0.011s-3.996-2.273-5.328-2.652c-1.16-0.329-7.717-3.824-10.703-5.719
	c-0.438-0.279-0.805-0.524-1.061-0.72c-0.816-0.618-2.144-0.725-3.431-0.634c-1.862,0.132-3.637,0.68-3.637,0.68l-1.395,0.095l0,0
	c-0.275,0.01-0.541,0.027-0.793,0.053c-0.002,0-0.005,0-0.005,0l-1.229,0.085l-0.137,0.149c-0.113,0.029-0.222,0.061-0.324,0.095
	c0,0.001-0.002,0.001-0.004,0.002c-0.097,0.032-0.189,0.065-0.275,0.1c-0.008,0.003-0.018,0.009-0.024,0.011
	c-0.08,0.032-0.154,0.065-0.226,0.103c-0.014,0.007-0.026,0.011-0.041,0.02c-0.078,0.04-0.156,0.083-0.225,0.128
	c-0.053,0.032-0.105,0.068-0.162,0.109c-0.041,0.03-0.082,0.062-0.123,0.094c-0.023,0.019-0.049,0.035-0.074,0.058
	c-0.096,0.075-0.192,0.156-0.293,0.244c-0.006,0.005-0.01,0.007-0.014,0.011c-0.107,0.095-0.221,0.199-0.336,0.309
	c-0.023,0.022-0.049,0.044-0.074,0.068c0,0,0,0,0,0.001c-0.002,0.002-0.004,0.005-0.008,0.007c-0.104,0.102-0.211,0.205-0.32,0.315
	c-0.01,0.007-0.018,0.014-0.024,0.021c-0.005,0.005-0.009,0.01-0.013,0.016c-0.028,0.028-0.061,0.062-0.092,0.093
	c-0.055,0.055-0.109,0.106-0.162,0.165c-0.037,0.039-0.076,0.078-0.113,0.116c-0.012,0.012-0.022,0.021-0.032,0.033
	c-0.006,0.008-0.013,0.013-0.019,0.02c-0.033,0.034-0.063,0.065-0.098,0.1c-0.043,0.046-0.086,0.09-0.129,0.139
	c-0.012,0.011-0.021,0.021-0.033,0.032c-0.004,0.003-0.006,0.01-0.01,0.012c-0.025,0.027-0.054,0.057-0.078,0.083
	c-0.334,0.352-0.682,0.726-1.047,1.112c-0.144,0.15-0.287,0.306-0.435,0.457c-0.039,0.043-0.08,0.086-0.121,0.127
	c-0.155,0.164-0.313,0.329-0.475,0.495c-0.012,0.01-0.02,0.021-0.029,0.03c-0.004,0.003-0.006,0.005-0.01,0.008
	c-0.002,0.004-0.006,0.007-0.01,0.011c-0.104,0.105-0.207,0.212-0.312,0.316c-0.02,0.017-0.034,0.034-0.053,0.052
	c-0.01,0.011-0.02,0.021-0.029,0.03c-0.034,0.034-0.067,0.067-0.1,0.098c-0.055,0.058-0.109,0.108-0.164,0.163
	c-0.027,0.029-0.059,0.06-0.09,0.088c-0.094,0.094-0.189,0.186-0.285,0.277c-0.021,0.021-0.041,0.04-0.062,0.06
	c-0.119,0.113-0.238,0.228-0.359,0.337c-0.002,0.005-0.006,0.008-0.01,0.011c-0.003,0.005-0.007,0.007-0.011,0.01
	c-0.003,0.003-0.006,0.006-0.009,0.009c-0.105,0.1-0.214,0.195-0.32,0.291c-0.005,0.003-0.007,0.007-0.011,0.009
	c-0.03,0.026-0.062,0.057-0.092,0.082c-0.079,0.07-0.157,0.139-0.234,0.204c-0.076,0.066-0.153,0.132-0.229,0.197
	c-0.006,0.004-0.011,0.009-0.016,0.013c-0.05,0.04-0.099,0.083-0.148,0.123c-0.008,0.007-0.016,0.015-0.025,0.021
	c-0.026,0.021-0.057,0.047-0.086,0.071c-0.034,0.027-0.067,0.055-0.103,0.081c-0.138,0.11-0.277,0.217-0.417,0.32
	c-0.07,0.053-0.144,0.107-0.215,0.16c-0.019,0.014-0.037,0.027-0.056,0.041c-0.018,0.011-0.032,0.022-0.051,0.036
	c-0.006,0.003-0.01,0.007-0.015,0.01c-0.028,0.021-0.058,0.039-0.085,0.059c-0.138,0.097-0.273,0.188-0.41,0.275
	c-0.045,0.028-0.088,0.058-0.133,0.085c-0.006,0.005-0.017,0.011-0.023,0.017c-0.02,0.012-0.039,0.023-0.059,0.036
	c-0.03,0.019-0.062,0.035-0.09,0.054c-0.039,0.023-0.078,0.047-0.117,0.069c-0.148,0.088-0.298,0.172-0.447,0.25
	c-0.077,0.04-0.154,0.078-0.23,0.116c-0.04,0.021-0.079,0.037-0.12,0.056c-0.146,0.069-0.293,0.134-0.439,0.191
	c-0.061,0.023-0.121,0.05-0.183,0.072c-0.022,0.008-0.046,0.017-0.067,0.023c-0.027,0.01-0.053,0.018-0.078,0.025
	c-0.189,0.064-0.381,0.121-0.57,0.166c-0.038,0.009-0.077,0.021-0.114,0.029c-4.4,0.938-8.799,0.54-10.998-3.687
	c-0.068-0.131-0.142-0.256-0.215-0.377c-0.009-0.013-0.017-0.021-0.023-0.034c-0.018-0.024-0.035-0.048-0.053-0.071
	c-0.051-0.079-0.104-0.159-0.158-0.232c-0.02-0.026-0.039-0.049-0.061-0.074c-0.002-0.003-0.009-0.009-0.013-0.012
	c-0.02-0.027-0.041-0.054-0.062-0.081c-0.041-0.047-0.076-0.097-0.115-0.141c0,0,0,0,0-0.001c0,0,0,0-0.002-0.002
	c-0.035-0.037-0.068-0.07-0.104-0.104c-0.055-0.058-0.104-0.115-0.161-0.168c-0.021-0.021-0.045-0.039-0.066-0.06
	c-0.006-0.005-0.012-0.01-0.014-0.013c-0.021-0.019-0.041-0.034-0.062-0.054c-0.047-0.039-0.092-0.081-0.139-0.12h-0.002v-0.002
	c-0.031-0.024-0.064-0.047-0.101-0.071c-0.061-0.049-0.123-0.098-0.188-0.141c0-0.001,0-0.001-0.002-0.002l0,0
	c-0.019-0.012-0.039-0.022-0.058-0.035c-0.006-0.003-0.008-0.005-0.014-0.008c-0.018-0.01-0.031-0.02-0.049-0.03
	c-0.062-0.038-0.119-0.076-0.18-0.11c0,0,0-0.002-0.002-0.002c0,0-0.003,0-0.003-0.001c-0.008-0.004-0.012-0.006-0.018-0.01
	c-0.018-0.007-0.031-0.015-0.047-0.021c-0.023-0.015-0.047-0.024-0.068-0.036c-0.061-0.031-0.117-0.063-0.176-0.09
	c-0.031-0.018-0.063-0.027-0.1-0.043c-0.07-0.031-0.146-0.065-0.218-0.095c-0.016-0.006-0.03-0.011-0.045-0.016
	c-0.004-0.002-0.008-0.004-0.012-0.005c-0.018-0.006-0.033-0.011-0.051-0.019c-0.072-0.024-0.146-0.053-0.215-0.074
	c-0.029-0.009-0.062-0.018-0.09-0.025c-0.078-0.021-0.156-0.045-0.234-0.063c-0.029-0.008-0.06-0.014-0.088-0.02
	c-0.078-0.02-0.158-0.037-0.236-0.053c-0.002-0.001-0.004-0.001-0.006-0.001s-0.002-0.001-0.002-0.001
	c-0.025-0.002-0.053-0.007-0.076-0.012c-0.082-0.015-0.166-0.027-0.246-0.038c-0.024-0.004-0.049-0.005-0.074-0.01
	c-0.084-0.01-0.17-0.02-0.254-0.024c-0.006-0.002-0.014-0.002-0.022-0.002h0.004c-0.017-0.001-0.027-0.001-0.043-0.004
	c-0.086-0.006-0.17-0.013-0.256-0.017c-0.019,0-0.037,0-0.058,0c-0.086-0.004-0.172-0.005-0.258-0.005c0,0-0.004,0-0.006,0
	s-0.006,0-0.01,0c-0.015,0-0.027,0-0.043,0c-0.086,0.002-0.172,0.003-0.257,0.008c-0.004,0-0.008,0-0.012,0
	c-0.002,0-0.004,0-0.006,0c-0.023,0.001-0.047,0.004-0.072,0.006c-0.067,0.003-0.141,0.006-0.211,0.012
	c0,0.001-0.004,0.001-0.008,0.002c-0.002,0-0.006,0-0.006,0c-0.016,0.002-0.029,0.004-0.045,0.006
	c-0.08,0.006-0.162,0.013-0.238,0.021c-0.006,0.002-0.006,0.002-0.008,0.002c0,0-0.002,0-0.004,0
	c-0.019,0.003-0.033,0.005-0.053,0.009c-0.074,0.006-0.148,0.017-0.222,0.024c-0.014,0.002-0.022,0.004-0.035,0.005
	c-0.077,0.014-0.155,0.023-0.229,0.035c-0.002,0-0.004,0.001-0.006,0.001c0,0.001-0.006,0.001-0.008,0.002
	c-0.007,0.002-0.015,0.002-0.021,0.003c-0.078,0.016-0.154,0.026-0.227,0.041c0,0,0,0.001-0.004,0.001l-0.003,0.001
	c-0.021,0.004-0.043,0.01-0.063,0.014c-0.057,0.012-0.111,0.021-0.164,0.032c-0.002,0.001-0.004,0.002-0.006,0.002l-0.004,0.003
	c-0.021,0.004-0.039,0.008-0.062,0.013c-0.051,0.01-0.1,0.021-0.147,0.033c-0.004,0.001-0.004,0.001-0.006,0.002
	c-0.005,0-0.007,0.001-0.009,0.002c-0.02,0.005-0.037,0.009-0.057,0.015c-0.047,0.01-0.094,0.022-0.137,0.034
	C263.918,426.898,263.91,426.902,263.897,426.906z M347.168,449.848c-0.524,0.11-1.062,0.189-1.605,0.245
	C346.107,450.038,346.643,449.959,347.168,449.848L347.168,449.848z M311.742,441.844l2.129-2.968L311.742,441.844z
	 M321.789,433.025c-0.25,0.489-0.509,0.954-0.802,1.366c-1.631,0.302-3.209,0.243-4.492-0.428c-0.185-0.098-0.36-0.204-0.532-0.326
	c-4.172-2.464-7.781-4.448-12.55-4.906c-0.682-0.065-1.387-0.1-2.12-0.1c-1.467,0-3.301-1.252-2.933-2.817
	c0.365-1.251,1.466-1.877,2.933-2.189c-0.129-0.33-0.029-0.742,0.057-1.164c1.287-0.093,2.613,0.014,3.43,0.633
	c1.996,1.515,10.433,6.06,11.765,6.438c1.332,0.379,5.328,2.652,5.328,2.652S321.871,432.528,321.789,433.025z"/>
<path fill="#9C9D9D" d="M347.166,449.848h0.002c-0.524,0.11-1.062,0.189-1.605,0.245
	C346.107,450.039,346.643,449.961,347.166,449.848z"/>
<path fill="#9C9D9D" d="M260.65,451.189c0.065,0.094,0.141,0.178,0.21,0.266c0.08,0.102,0.158,0.205,0.244,0.298
	c0.091,0.096,0.191,0.178,0.289,0.264c0.08,0.069,0.153,0.146,0.237,0.21c0.148,0.112,0.312,0.209,0.479,0.301
	c0.043,0.023,0.078,0.055,0.121,0.076c0.142,0.071,0.322,0.14,0.533,0.205c0.008,0.003,0.014,0.005,0.021,0.007
	c0.095,0.029,0.199,0.058,0.31,0.086c0.02,0.006,0.037,0.011,0.057,0.016c0.109,0.028,0.229,0.056,0.351,0.081
	c0.022,0.007,0.045,0.012,0.069,0.017c0.123,0.025,0.257,0.053,0.394,0.078c0.027,0.005,0.053,0.01,0.08,0.015
	c0.141,0.026,0.291,0.052,0.444,0.076c0.025,0.004,0.052,0.009,0.076,0.013c0.158,0.024,0.324,0.049,0.494,0.073
	c0.027,0.004,0.053,0.008,0.08,0.012c0.174,0.023,0.355,0.047,0.542,0.07c0.026,0.003,0.054,0.007,0.08,0.01
	c0.188,0.023,0.386,0.046,0.587,0.068c0.027,0.003,0.055,0.006,0.083,0.009c0.211,0.022,0.429,0.045,0.651,0.067
	c0.015,0.001,0.028,0.003,0.044,0.004c5.777,0.562,15.691,0.793,26.749,0.835c0.825,0.002,1.657,0.005,2.494,0.006
	c1.532,0.002,3.086,0,4.645-0.005c0.586-0.001,1.172-0.002,1.76-0.004l0.021-0.028v0.001l-0.021,0.028l0.021-0.028l0,0l-0.021,0.027
	c0.006,0,0.014,0,0.021,0v1.143c-0.03,0-0.062,0-0.092,0c-0.082,0-0.167,0-0.249-0.001c-0.561-0.002-1.104-0.006-1.65-0.009
	c-0.396-0.003-0.788-0.005-1.177-0.008c-0.412-0.003-0.817-0.008-1.222-0.011c-0.604-0.006-1.198-0.012-1.786-0.018
	c-0.201-0.003-0.404-0.005-0.604-0.007c-0.997-0.013-1.968-0.024-2.913-0.039c-0.247-0.004-0.489-0.008-0.732-0.012
	c-1.664-0.026-3.259-0.059-4.765-0.093c0,0-0.002,0-0.003,0l-0.026,0.375l0,0l-0.028,0.427c-0.058,0.854-0.484,1.566-1.043,1.854
	c-0.188,0.096-0.39,0.145-0.597,0.133h-0.001c-0.001,0-0.001,0-0.001,0l-7.194-0.354l-0.104-0.005
	c-0.828-0.042-1.438-0.998-1.356-2.141l0.041-0.616c-1.189-0.051-2.301-0.103-3.328-0.153c-0.002,0-0.004,0-0.006,0l-0.027,0.443
	l0,0l-0.002,0.024c-0.05,0.822-0.455,1.513-0.99,1.791c-0.18,0.094-0.373,0.142-0.572,0.132h-0.001c-0.001,0-0.001,0-0.001,0
	l-6.58-0.298l-0.428-0.02c-0.793-0.035-1.383-0.956-1.315-2.055l0.041-0.627l0.006-0.083c-0.89-0.088-1.302-0.144-1.302-0.144
	c-0.516-0.217-1.409-0.524-1.678-0.867c-0.68-0.87-0.684-1.943-0.669-2.256c0,0,0,0,0-0.001
	C260.508,450.966,260.574,451.082,260.65,451.189z"/>
<path fill="#9C9D9D" d="M302.795,455.482v-1.143c21.494-0.093,44.199-0.717,48.19-0.938c2.401-0.131,3.507-1.062,3.757-2.326
	c0,0,0,0.001,0.001,0.002c0.222,0.521,0.312,1.136,0.072,1.696c-0.104,0.243-1.05,0.979-2.207,1.095
	c-0.002,0-0.004,0.001-0.006,0.001c0,0-0.257,0.03-0.786,0.086l0.03,0.327c-0.001,0-0.001,0-0.002,0l0.039,0.414
	c0.094,1.046-0.471,1.937-1.266,1.987l-6.994,0.465h-0.002c0,0,0,0-0.001,0h-0.001c-0.15,0.011-0.3-0.011-0.44-0.06
	c0,0.001-0.001,0.001-0.001,0.001s0-0.001-0.001-0.001s-0.001,0-0.001,0c-0.604-0.204-1.09-0.894-1.166-1.736l-0.062-0.672l0,0
	c-0.304,0.017-0.62,0.033-0.938,0.05c-0.242,0.013-0.49,0.024-0.739,0.037c-0.241,0.012-0.478,0.024-0.725,0.036l0.019,0.558
	c0,0-0.001,0-0.002,0v0.001l0,0c0.001,0,0.002,0,0.002,0v0.012c0.041,1.1-0.549,2.006-1.313,2.024l-6.738,0.169l0,0h-0.002
	c-0.096,0.003-0.191-0.009-0.283-0.034c0,0-0.001,0-0.002,0c-0.635-0.173-1.135-0.962-1.168-1.92l-0.018-0.438v-0.001
	c-0.911,0.023-1.854,0.052-2.83,0.077v0.375c0,0-0.001,0-0.002,0v0.001l0,0c0.001,0,0.002,0,0.002,0v0.178
	c0,1.102-0.646,1.992-1.439,1.992h-0.002h-7.018h-0.002c-0.087,0-0.17-0.014-0.252-0.031c0,0-0.001,0-0.002,0
	c-0.675-0.168-1.188-0.98-1.188-1.961v-0.373v-0.001c-0.8,0.009-1.613,0.019-2.443,0.021v0.158l0,0v0.375
	c0,1.197-0.646,2.169-1.442,2.169l0,0h-6.955v0.001h-0.062h-0.002c-0.198,0-0.389-0.061-0.561-0.171
	c-0.521-0.328-0.883-1.101-0.883-1.999v-0.498v-0.001C304.225,455.488,303.506,455.485,302.795,455.482z"/>
<polygon fill="#9C9D9D" points="302.795,454.311 303.326,453.567 302.795,454.312 "/>
<polygon fill="#9C9D9D" points="303.326,453.567 302.795,454.312 302.795,454.312 "/>
<polygon fill="#9C9D9D" points="292.881,453.677 292.881,453.677 292.879,453.677 "/>
<path fill="#9C9D9D" d="M324.256,435.195c-0.123,0.169-0.354,0.25-0.628,0.27c-0.821,0.055-2.038-0.458-1.972-0.879
	c0.072-0.452,0.271-0.885,0.408-1.146c0.083-0.156,0.145-0.251,0.145-0.251c0.072-0.133,0.113-0.228,0.151-0.317
	c0.005-0.011,0.015-0.027,0.019-0.039c0.036-0.084,0.062-0.146,0.087-0.201c0.013-0.028,0.03-0.062,0.043-0.086
	c0.058-0.108,0.13-0.185,0.335-0.301c0.014-0.007,0.035-0.01,0.053-0.013c0.361-0.121,1.548,0.226,2.119,0.711
	c0.147,0.127,0.205,0.288,0.201,0.469c0,0.003,0,0.006,0,0.009c-0.003,0.082-0.021,0.17-0.045,0.259
	c-0.006,0.02-0.012,0.038-0.02,0.058C324.994,434.223,324.559,434.782,324.256,435.195z"/>
<path fill="#9C9D9D" d="M328.158,436.087L328.158,436.087c-0.041,0.054-0.078,0.104-0.113,0.152
	c-0.494,0.676-2.689-0.049-2.599-0.61c0,0,0,0,0-0.001l0,0c0.115-0.723,0.554-1.397,0.554-1.397c0.16-0.299,0.213-0.462,0.267-0.584
	c0.005-0.01,0.011-0.025,0.016-0.034c0.01-0.019,0.024-0.032,0.034-0.05c0.023-0.038,0.044-0.077,0.08-0.111
	c0.056-0.05,0.127-0.101,0.238-0.164c0.297-0.169,1.572,0.192,2.168,0.699c0.147,0.125,0.205,0.285,0.201,0.465
	c0,0.005,0,0.011,0,0.016c-0.003,0.087-0.021,0.179-0.047,0.273c-0.002,0.003-0.004,0.007-0.004,0.012
	c-0.03,0.097-0.07,0.194-0.119,0.296c-0.002,0.003-0.003,0.006-0.004,0.009C328.656,435.409,328.387,435.775,328.158,436.087z"/>
<path fill="#9C9D9D" d="M331.947,437.549C331.948,437.549,331.948,437.549,331.947,437.549c-0.037,0.052-0.074,0.104-0.109,0.15
	c-0.496,0.679-2.689-0.049-2.601-0.61c0,0,0,0,0-0.001l0,0c0.115-0.722,0.554-1.396,0.554-1.396c0.022-0.044,0.03-0.066,0.051-0.104
	c0.045-0.091,0.088-0.179,0.116-0.243c0.044-0.104,0.075-0.183,0.104-0.246c0.002-0.001,0.002-0.004,0.004-0.006
	c0.002-0.005,0.004-0.014,0.006-0.019c0.005-0.005,0.009-0.009,0.012-0.014c0.012-0.023,0.029-0.042,0.044-0.062
	c0.02-0.026,0.033-0.059,0.062-0.084c0-0.001,0-0.001,0.001-0.001l0,0c0.054-0.051,0.127-0.102,0.238-0.165
	c0.295-0.169,1.572,0.192,2.168,0.699c0.217,0.186,0.238,0.445,0.156,0.732c-0.004,0.014-0.006,0.025-0.01,0.04
	c-0.027,0.086-0.063,0.175-0.105,0.264c-0.008,0.016-0.014,0.03-0.021,0.046C332.44,436.88,332.174,437.24,331.947,437.549z"/>
<path fill="#9C9D9D" d="M335.737,439.009c0,0,0.001,0,0.002,0c-0.038,0.052-0.077,0.104-0.112,0.151
	c-0.435,0.593-2.166,0.109-2.532-0.396c-0.054-0.072-0.078-0.146-0.067-0.216c0.117-0.723,0.554-1.398,0.554-1.398
	c0.055-0.101,0.08-0.165,0.114-0.239c0.018-0.038,0.046-0.09,0.06-0.122c0.021-0.053,0.039-0.089,0.055-0.129
	c0.019-0.045,0.039-0.097,0.058-0.132c0.026-0.055,0.059-0.1,0.104-0.144c0.007-0.007,0.016-0.016,0.022-0.021
	c0.05-0.046,0.115-0.092,0.214-0.147c0.004-0.003,0.004-0.004,0.01-0.008c0,0,0.002,0,0.002-0.001
	c0.301-0.166,1.572,0.193,2.166,0.699c0.074,0.063,0.126,0.136,0.158,0.214c0,0.001,0.001,0.002,0.001,0.003
	c0.032,0.078,0.046,0.162,0.044,0.252c0,0.003-0.001,0.005-0.001,0.007c-0.003,0.088-0.021,0.18-0.048,0.273
	c-0.002,0.007-0.004,0.015-0.007,0.021C336.394,438.113,336.031,438.607,335.737,439.009z"/>
<path fill="#9C9D9D" d="M339.66,440.514c-0.312,0.423-1.284,0.299-1.947,0.009c-0.398-0.174-0.688-0.407-0.652-0.618
	c0.113-0.723,0.551-1.396,0.551-1.396c0.037-0.069,0.054-0.108,0.08-0.165c0.104-0.216,0.16-0.366,0.21-0.465
	c0.026-0.052,0.057-0.096,0.1-0.139c0.007-0.006,0.014-0.015,0.021-0.021c0.047-0.043,0.113-0.087,0.201-0.14
	c0.01-0.006,0.013-0.01,0.023-0.017c0.022-0.015,0.063-0.02,0.1-0.025c0,0,0,0,0,0.001c0.02-0.005,0.033-0.013,0.059-0.015
	c0.453-0.037,1.492,0.294,2.013,0.737c0.146,0.124,0.203,0.283,0.201,0.461c0,0.006,0.002,0.011,0.001,0.017
	c-0.004,0.082-0.021,0.17-0.046,0.259c-0.003,0.013-0.005,0.022-0.009,0.034c-0.028,0.095-0.067,0.189-0.115,0.287
	c-0.001,0.003-0.002,0.006-0.004,0.01C340.244,439.743,339.906,440.177,339.66,440.514z"/>
<path fill="#9C9D9D" d="M263.887,431.446c4.033,4.381,8.801,8.136,15.037,7.197c4.766-0.625,9.899-1.877,13.201-5.319
	c0.332-0.396,0.647-0.797,0.953-1.202c2.317,2.374,5.949,3.374,9.717,4.164v9.332l-2.097,2.848
	c-5.344-0.307-10.711-0.376-16.125,0.008c-0.104,0.012-0.215,0.021-0.321,0.029c-0.013-0.007-0.023-0.013-0.034-0.019
	c-0.006-0.003-0.011-0.007-0.017-0.01c0,0-0.001,0-0.003,0c0,0,0-0.001-0.001-0.001c0.001,0,0.001,0,0.004,0
	c-1.488-0.812-2.999-1.605-4.523-2.393c-0.021-0.011-0.041-0.021-0.062-0.032c-1.562-0.806-3.141-1.603-4.727-2.397
	c-0.152-0.087-0.314-0.16-0.481-0.227c-0.017-0.007-0.031-0.012-0.049-0.019c-0.159-0.061-0.322-0.115-0.493-0.164
	c-0.851-0.337-3.359-1.315-5.2-1.979c-1.914-0.688-4.438-1.646-5.152-1.916c-0.11-0.046-0.225-0.089-0.336-0.135
	c-0.264-0.108-0.529-0.214-0.796-0.318c-0.821-0.326-1.648-0.642-2.497-0.924c0.508-2.688,1.229-5.312,1.971-7.475
	C262.75,430.651,263.512,430.969,263.887,431.446z"/>
<path fill="#9C9D9D" d="M302.795,436.286c2.001,0.421,4.039,0.782,5.94,1.259l-5.94,8.073V436.286z"/>
<path fill="#BFBFC0" d="M302.795,454.312v0.027c-0.007,0-0.015,0-0.021,0L302.795,454.312z"/>
<line fill="none" x1="313.871" y1="438.877" x2="311.742" y2="441.844"/>
<line fill="none" x1="302.795" y1="454.312" x2="303.326" y2="453.567"/>
<line fill="none" x1="302.795" y1="454.312" x2="302.774" y2="454.342"/>
<line fill="none" x1="296.854" y1="453.69" x2="296.369" y2="454.348"/>
<line fill="none" x1="302.795" y1="455.482" x2="302.795" y2="455.482"/>
<line fill="none" x1="302.795" y1="455.64" x2="302.795" y2="455.482"/>
<line fill="none" x1="302.795" y1="445.618" x2="302.795" y2="436.286"/>
<line fill="none" x1="302.795" y1="454.341" x2="302.795" y2="455.482"/>
<line fill="none" x1="302.795" y1="436.286" x2="302.795" y2="435.594"/>
<line fill="none" x1="302.795" y1="454.311" x2="302.795" y2="454.312"/>
<line fill="none" x1="302.795" y1="454.341" x2="302.795" y2="454.312"/>
<line fill="none" x1="302.795" y1="454.312" x2="302.795" y2="454.312"/>
<line fill="none" x1="302.795" y1="445.618" x2="302.795" y2="454.311"/>
<path fill="#9C9D9D" d="M320.989,434.391c-1.631,0.302-3.209,0.243-4.492-0.428c-0.185-0.098-0.36-0.204-0.532-0.326
	c-4.172-2.464-7.781-4.448-12.55-4.906c-0.682-0.065-1.387-0.1-2.12-0.1c-1.467,0-3.301-1.252-2.933-2.817
	c0.365-1.251,1.466-1.877,2.933-2.189c-0.129-0.33-0.029-0.742,0.057-1.164c1.287-0.093,2.613,0.014,3.43,0.633
	c1.996,1.515,10.433,6.06,11.765,6.438c1.332,0.379,5.328,2.652,5.328,2.652s0,0.346-0.082,0.843
	C321.539,433.514,321.281,433.979,320.989,434.391z"/>
<path fill="#BFBFC0" d="M259.883,437.971L259.883,437.971c0,0.001-0.001,0-0.002,0c-0.241,1.283-0.43,2.579-0.554,3.846
	c-0.012,0.11-0.021,0.22-0.03,0.329c-0.001,0.015-0.002,0.029-0.004,0.043c-0.003,0.04-0.008,0.08-0.01,0.12
	c-0.023,0.271-0.041,0.542-0.058,0.811c-0.006,0.083-0.016,0.168-0.02,0.25c0,0.002,0,0.002,0,0.003
	c0,0.019-0.002,0.033-0.002,0.049c0,0.002,0,0.003,0,0.005c-0.004,0.068-0.007,0.138-0.009,0.207
	c-0.004,0.099-0.008,0.196-0.01,0.295c-0.002,0.045-0.004,0.091-0.006,0.136c0,0.001,0,0.002,0,0.004c0,0.012,0,0.022,0,0.034
	c-0.003,0.082,0,0.162-0.002,0.244c-0.004,0.242-0.006,0.481-0.003,0.719c0.001,0.024-0.001,0.05-0.001,0.074
	c0,0.001,0.002,0.001,0.003,0.001c0.009,0.543,0.036,1.069,0.085,1.577c0.004,0.035,0.006,0.071,0.009,0.106
	c0.021,0.205,0.05,0.403,0.077,0.603c0.016,0.106,0.029,0.215,0.045,0.319c0.029,0.176,0.063,0.345,0.098,0.513
	c0.025,0.121,0.052,0.24,0.078,0.358c0.037,0.154,0.078,0.305,0.119,0.452c0.036,0.124,0.073,0.244,0.113,0.363
	c0.045,0.136,0.091,0.27,0.141,0.398c0.048,0.122,0.101,0.239,0.151,0.356c0.053,0.117,0.104,0.235,0.163,0.347
	c0.014,0.027,0.023,0.059,0.039,0.084c0.039,0.074,0.088,0.141,0.131,0.211c0.004,0.008,0.007,0.015,0.011,0.021c0,0,0,0,0-0.001
	c0.069,0.116,0.136,0.232,0.211,0.341c0.065,0.094,0.141,0.178,0.21,0.266c0.08,0.102,0.158,0.205,0.244,0.297
	c0.091,0.097,0.191,0.179,0.289,0.265c0.08,0.069,0.153,0.146,0.237,0.21c0.148,0.112,0.312,0.209,0.479,0.301
	c0.043,0.023,0.078,0.055,0.121,0.076c0.141,0.071,0.322,0.14,0.533,0.205c0.008,0.003,0.014,0.005,0.021,0.007
	c0.096,0.029,0.2,0.058,0.311,0.086c0.02,0.006,0.037,0.011,0.057,0.016c0.109,0.028,0.229,0.056,0.351,0.081
	c0.022,0.006,0.045,0.012,0.069,0.017c0.123,0.025,0.256,0.053,0.394,0.078c0.026,0.005,0.053,0.01,0.08,0.015
	c0.141,0.026,0.291,0.052,0.444,0.076c0.025,0.004,0.052,0.009,0.076,0.013c0.158,0.024,0.324,0.049,0.494,0.073
	c0.027,0.004,0.053,0.008,0.08,0.012c0.174,0.023,0.354,0.047,0.542,0.07c0.026,0.003,0.054,0.007,0.08,0.01
	c0.188,0.023,0.386,0.046,0.587,0.068c0.027,0.003,0.055,0.006,0.083,0.009c0.211,0.022,0.429,0.045,0.651,0.067
	c0.015,0.001,0.028,0.003,0.044,0.004c5.777,0.562,15.691,0.793,26.749,0.835c0.825,0.002,1.657,0.005,2.493,0.006l0.484-0.658
	l-0.484,0.658c1.533,0.002,3.086,0,4.646-0.005c0.586-0.001,1.172-0.002,1.76-0.004l0.021-0.028v-8.693l-2.097,2.848
	c-5.344-0.307-10.711-0.376-16.125,0.008c-0.104,0.012-0.215,0.021-0.321,0.028c-0.013-0.006-0.023-0.012-0.034-0.018
	c-0.006-0.003-0.011-0.007-0.018-0.01c0,0-0.001,0-0.002,0c0,0,0-0.001-0.001-0.001c0.001,0,0.001,0,0.003,0
	c-1.487-0.812-2.999-1.605-4.522-2.393c-0.021-0.011-0.041-0.021-0.062-0.032c-1.562-0.806-3.141-1.603-4.727-2.397
	c-0.152-0.087-0.314-0.16-0.481-0.227c-0.017-0.007-0.031-0.012-0.049-0.019c-0.159-0.061-0.323-0.115-0.493-0.164
	c-0.851-0.337-3.359-1.315-5.201-1.979c-1.913-0.688-4.438-1.646-5.151-1.916c-0.11-0.046-0.226-0.089-0.336-0.136
	c-0.265-0.107-0.529-0.213-0.796-0.317C261.559,438.569,260.732,438.255,259.883,437.971z M292.881,453.677
	c-0.001-0.001-0.002-0.001-0.002-0.002C292.879,453.677,292.88,453.677,292.881,453.677L292.881,453.677z"/>
<g id="bounds">
	<rect x="0" y="0" fill="none" width="500" height="500"/>
</g>
</svg>
