<?xml version="1.0" encoding="utf-8"?>
<!-- Generator: Adobe Illustrator 16.0.1, SVG Export Plug-In . SVG Version: 6.00 Build 0)  -->
<!DOCTYPE svg PUBLIC "-//W3C//DTD SVG 1.1//EN" "http://www.w3.org/Graphics/SVG/1.1/DTD/svg11.dtd">
<svg version="1.1" id="content" xmlns="http://www.w3.org/2000/svg" xmlns:xlink="http://www.w3.org/1999/xlink" x="0px" y="0px"
	 width="500px" height="500px" viewBox="0 0 500 500" enable-background="new 0 0 500 500" xml:space="preserve">
<g id="bounds">
	<rect fill="none" width="500" height="500"/>
</g>
<g>
	<path fill="#BFBFC0" d="M223.746,347.248h-1.924c-11,0-19.999,9.362-19.999,20.804v74.296h41.923v-27.216v-4.055v-43.026
		C243.745,356.61,234.745,347.248,223.746,347.248z"/>
	<path fill="#BFBFC0" d="M286.292,347.246h-2.487c-11.14,0-20.254,9.481-20.254,21.07v42.763h-0.156v4.054h0.156v26.949h42.995
		v-26.949v-4.054v-42.763C306.546,356.728,297.431,347.246,286.292,347.246z"/>
</g>
<rect x="201.822" y="368.051" fill="#9C9D9D" width="41.923" height="29.973"/>
<rect x="264.001" y="368.051" fill="#9C9D9D" width="41.923" height="29.973"/>
<rect x="201.822" y="414.685" fill="#9C9D9D" width="41.923" height="27.868"/>
<rect x="264.001" y="414.685" fill="#9C9D9D" width="41.923" height="27.868"/>
<g>
	<path fill="#9C9D9D" d="M313.624,359.362c-0.823,9.656-9.426,17.558-19.117,17.558h-80.893c-9.691,0-18.282-7.902-19.09-17.56
		l-10.739-128.372c-0.808-9.658,6.46-17.56,16.152-17.56h108.498c9.691,0,16.948,7.901,16.125,17.558L313.624,359.362z"/>
</g>
<g>
	<path fill="#9C9D9D" d="M313.624,359.362c-0.823,9.656-9.426,17.558-19.117,17.558h-80.893c-9.691,0-18.282-7.902-19.09-17.56
		l-10.739-128.372c-0.808-9.658,6.46-17.56,16.152-17.56h108.498c9.691,0,16.948,7.901,16.125,17.558L313.624,359.362z"/>
</g>
<g>
	<g>
		<path fill="#BFBFC0" d="M177.672,329.428c0,9.8-8.018,17.818-17.818,17.818h-0.482c-9.8,0-17.818-8.019-17.818-17.818v-98.181
			c0-9.8,8.018-17.818,17.818-17.818h0.482c9.8,0,17.818,8.018,17.818,17.818V329.428z"/>
	</g>
</g>
<g>
	<g>
		<path fill="#BFBFC0" d="M366.814,329.428c0,9.8-8.019,17.818-17.818,17.818h-0.481c-9.8,0-17.818-8.019-17.818-17.818v-98.181
			c0-9.8,8.019-17.818,17.818-17.818h0.481c9.8,0,17.818,8.018,17.818,17.818V329.428z"/>
	</g>
</g>
<g>
	<path fill="#BFBFC0" d="M324.29,138.805c0-38.719-31.389-70.108-70.107-70.108c-38.714,0-70.104,31.389-70.104,70.108
		c0,38.722,31.39,70.111,70.104,70.111C292.901,208.917,324.29,177.527,324.29,138.805z"/>
</g>
<g>
	<circle fill="#FFFFFF" cx="227.68" cy="131.556" r="12.367"/>
	<circle fill="#FFFFFF" cx="279.687" cy="131.556" r="12.367"/>
	<path fill="#FFFFFF" d="M266.549,166.574c0,6.83-5.536,12.367-12.367,12.367c-6.823,0-12.361-5.537-12.361-12.367H266.549z"/>
</g>
<g>
	<polygon fill="#9C9D9D" points="260.566,281.197 244.278,281.197 203.812,213.429 304.403,213.429 	"/>
</g>
<polygon fill="#BFBFC0" points="224.271,213.197 242.282,229.604 253.764,262.977 265.198,229.249 284.142,213.29 "/>
<polygon fill="#9C9D9D" points="242.282,229.604 222.891,247.312 218.917,213.429 224.271,213.197 "/>
<polygon fill="#9C9D9D" points="266.028,229.604 285.42,247.312 289.393,213.429 284.041,213.197 "/>
<polygon fill="#BFBFC0" points="242.282,229.604 219.087,245.536 218.917,213.429 224.271,213.197 "/>
<polygon fill="#BFBFC0" points="265.198,229.249 288.9,245.641 288.9,213.29 284.142,213.29 "/>
<path fill="#9C9D9D" d="M180.403,269.234c0,12.308-41.575,12.308-41.575,0v-36.111c0-12.308,8.038-22.377,17.861-22.377h5.85
	c9.824,0,17.862,10.07,17.862,22.377L180.403,269.234L180.403,269.234z"/>
<path fill="#9C9D9D" d="M138.92,265.343v4.95c0,12.308,41.574,12.308,41.574,0v-4.95C180.495,277.649,138.92,277.649,138.92,265.343
	z"/>
<path fill="#9C9D9D" d="M369.497,269.234c0,12.308-41.574,12.308-41.574,0v-36.111c0-12.308,8.038-22.377,17.861-22.377h5.849
	c9.824,0,17.864,10.07,17.864,22.377V269.234L369.497,269.234z"/>
<path fill="#9C9D9D" d="M328.016,265.343v4.95c0,12.308,41.572,12.308,41.572,0v-4.95
	C369.589,277.649,328.016,277.649,328.016,265.343z"/>
<g>
	<g>
		<g>
			<path fill="#BFBFC0" d="M299.604,268.459L288.9,262.54l-10.705,5.919c0,0-0.547,12.129,7.309,18.219
				c0.99,0.903,2.116,1.745,3.396,2.49c1.281-0.745,2.408-1.587,3.398-2.491C300.15,280.586,299.604,268.459,299.604,268.459z"/>
		</g>
	</g>
	<g>
		<g>
			<path fill="#BFBFC0" d="M288.9,287.532l-0.136-0.089c-0.821-0.537-1.603-1.143-2.32-1.798c-0.027-0.023-0.056-0.048-0.085-0.071
				c-6.025-4.672-6.703-13.534-6.768-16.14l-0.004-0.149l9.312-5.148l9.312,5.148l-0.004,0.149
				c-0.064,2.604-0.742,11.465-6.767,16.139c-0.029,0.022-0.057,0.047-0.085,0.072c-0.719,0.655-1.5,1.261-2.322,1.798
				L288.9,287.532z M280.09,269.571c0.084,2.724,0.826,11.158,6.571,15.613c0.04,0.032,0.078,0.063,0.116,0.097
				c0.659,0.602,1.372,1.16,2.123,1.66c0.751-0.501,1.465-1.059,2.125-1.661c0.036-0.034,0.076-0.065,0.115-0.097
				c5.744-4.456,6.486-12.889,6.571-15.612L288.9,264.7L280.09,269.571z"/>
		</g>
	</g>
	<g>
		<g>
			<path fill="#BFBFC0" d="M288.9,288.499l-0.044-0.025c-1.061-0.646-2.058-1.393-2.965-2.22c-0.012-0.011-0.023-0.021-0.035-0.029
				c-6.784-5.262-7.099-15.396-7.093-17.373l0.001-0.049l10.136-5.605l10.137,5.605v0.049c0.006,1.978-0.31,12.108-7.091,17.371
				c-0.013,0.009-0.023,0.019-0.034,0.028c-0.91,0.83-1.909,1.577-2.969,2.223L288.9,288.499z M278.928,268.899
				c-0.001,2.076,0.359,12.022,7.029,17.194c0.016,0.013,0.03,0.025,0.045,0.039c0.888,0.809,1.862,1.54,2.898,2.173
				c1.036-0.633,2.012-1.365,2.9-2.175c0.015-0.014,0.028-0.026,0.046-0.038c6.668-5.173,7.026-15.117,7.025-17.193l-9.972-5.513
				L278.928,268.899z"/>
		</g>
	</g>
	<g>
		<g>
			<g>
				<g>
					<g>
						<g>
							<g>
								<path fill="#9C9D9D" d="M275.327,276.584c-0.024-0.348,0.066-0.592,0.162-0.85c0.107-0.294,0.22-0.6,0.172-1.11l0.213-0.02
									c0.052,0.558-0.074,0.9-0.187,1.203c-0.09,0.247-0.168,0.461-0.147,0.761L275.327,276.584z"/>
							</g>
						</g>
						<g>
							<g>
								<g>
									<path fill="#9C9D9D" d="M275.703,275.595c0,0-0.974-1.988,1.37-3.407C277.073,272.188,277.625,273.856,275.703,275.595z"/>
								</g>
							</g>
						</g>
					</g>
					<g>
						<g>
							<path fill="#9C9D9D" d="M275.783,275.253c0,0-0.083-0.373,0.381-1.45c0.434-1.006,0.776-1.301,0.776-1.301
								C275.487,273.506,275.632,274.729,275.783,275.253z"/>
						</g>
					</g>
				</g>
				<g>
					<g>
						<g>
							<g>
								<path fill="#9C9D9D" d="M276.22,279.273c-0.062-0.34-0.001-0.595,0.064-0.861c0.074-0.305,0.15-0.621,0.046-1.123
									l0.21-0.044c0.115,0.549,0.027,0.903-0.048,1.217c-0.062,0.256-0.118,0.477-0.062,0.773L276.22,279.273z"/>
							</g>
						</g>
						<g>
							<g>
								<g>
									<path fill="#BFBFC0" d="M276.481,278.249c0,0-1.191-1.865,0.979-3.54C277.46,274.709,278.195,276.305,276.481,278.249z"/>
								</g>
							</g>
						</g>
					</g>
					<g>
						<g>
							<path fill="#9C9D9D" d="M276.521,277.9c0,0-0.122-0.361,0.218-1.485c0.316-1.047,0.624-1.379,0.624-1.379
								C276.032,276.199,276.313,277.396,276.521,277.9z"/>
						</g>
					</g>
				</g>
				<g>
					<g>
						<g>
							<g>
								<path fill="#BFBFC0" d="M277.341,281.849c-0.1-0.333-0.065-0.592-0.029-0.864c0.041-0.312,0.083-0.634-0.075-1.121
									l0.203-0.067c0.174,0.534,0.127,0.896,0.084,1.215c-0.034,0.263-0.064,0.487,0.021,0.776L277.341,281.849z"/>
							</g>
						</g>
						<g>
							<g>
								<g>
									<path fill="#BFBFC0" d="M277.49,280.799c0,0-1.386-1.724,0.592-3.623C278.082,277.176,278.984,278.683,277.49,280.799z"/>
								</g>
							</g>
						</g>
					</g>
					<g>
						<g>
							<path fill="#BFBFC0" d="M277.494,280.45c0,0-0.164-0.347,0.054-1.499c0.204-1.077,0.474-1.439,0.474-1.439
								C276.822,278.811,277.231,279.972,277.494,280.45z"/>
						</g>
					</g>
				</g>
				<g>
					<g>
						<g>
							<g>
								<path fill="#BFBFC0" d="M278.603,284.355c-0.12-0.325-0.102-0.586-0.083-0.86c0.021-0.313,0.043-0.639-0.146-1.115
									l0.198-0.078c0.206,0.522,0.182,0.887,0.161,1.208c-0.02,0.263-0.035,0.489,0.07,0.771L278.603,284.355z"/>
							</g>
						</g>
						<g>
							<g>
								<g>
									<path fill="#BFBFC0" d="M278.687,283.299c0,0-1.492-1.634,0.362-3.653C279.049,279.646,280.044,281.094,278.687,283.299z"
										/>
								</g>
							</g>
						</g>
					</g>
					<g>
						<g>
							<path fill="#BFBFC0" d="M278.667,282.951c0,0-0.185-0.336-0.039-1.5c0.135-1.087,0.381-1.466,0.381-1.466
								C277.896,281.357,278.376,282.49,278.667,282.951z"/>
						</g>
					</g>
				</g>
				<g>
					<g>
						<g>
							<g>
								<path fill="#BFBFC0" d="M280.269,286.824c-0.155-0.312-0.167-0.571-0.179-0.847c-0.016-0.313-0.03-0.639-0.271-1.091
									l0.188-0.101c0.265,0.494,0.28,0.859,0.296,1.181c0.012,0.264,0.021,0.491,0.156,0.762L280.269,286.824z"/>
							</g>
						</g>
						<g>
							<g>
								<g>
									<path fill="#BFBFC0" d="M280.232,285.766c0,0-1.667-1.457-0.053-3.672C280.18,282.094,281.332,283.419,280.232,285.766z"/>
								</g>
							</g>
						</g>
					</g>
					<g>
						<g>
							<path fill="#BFBFC0" d="M280.174,285.42c0,0-0.22-0.312-0.208-1.485c0.011-1.097,0.213-1.5,0.213-1.5
								C279.227,283.924,279.831,284.995,280.174,285.42z"/>
						</g>
					</g>
				</g>
				<g>
					<g>
						<g>
							<g>
								<path fill="#BFBFC0" d="M282.145,289.024c-0.182-0.296-0.214-0.554-0.25-0.827c-0.041-0.311-0.083-0.634-0.361-1.064
									l0.18-0.116c0.305,0.472,0.352,0.834,0.394,1.154c0.035,0.259,0.062,0.484,0.221,0.743L282.145,289.024z"/>
							</g>
						</g>
						<g>
							<g>
								<g>
									<path fill="#BFBFC0" d="M282.02,287.973c0,0-1.783-1.31-0.362-3.654C281.657,284.318,282.919,285.543,282.02,287.973z"/>
								</g>
							</g>
						</g>
					</g>
					<g>
						<g>
							<path fill="#BFBFC0" d="M281.933,287.635c0,0-0.245-0.291-0.333-1.464c-0.082-1.091,0.086-1.513,0.086-1.513
								C280.862,286.224,281.556,287.239,281.933,287.635z"/>
						</g>
					</g>
				</g>
				<g>
					<g>
						<g>
							<g>
								<path fill="#BFBFC0" d="M284.287,290.845c-0.216-0.272-0.28-0.525-0.348-0.792c-0.077-0.305-0.157-0.619-0.485-1.014
									l0.164-0.138c0.359,0.433,0.449,0.787,0.529,1.1c0.064,0.254,0.12,0.475,0.308,0.712L284.287,290.845z"/>
							</g>
						</g>
						<g>
							<g>
								<g>
									<path fill="#BFBFC0" d="M284.038,289.816c0,0-1.927-1.09-0.795-3.586C283.243,286.23,284.642,287.296,284.038,289.816z"/>
								</g>
							</g>
						</g>
					</g>
					<g>
						<g>
							<path fill="#BFBFC0" d="M283.911,289.49c0,0-0.28-0.261-0.506-1.414c-0.211-1.074-0.094-1.512-0.094-1.512
								C282.681,288.216,283.488,289.142,283.911,289.49z"/>
						</g>
					</g>
				</g>
				<g>
					<g>
						<g>
							<g>
								<path fill="#BFBFC0" d="M286.609,292.612c-0.233-0.258-0.313-0.505-0.398-0.769c-0.097-0.299-0.196-0.607-0.55-0.98
									l0.154-0.146c0.387,0.408,0.5,0.756,0.598,1.062c0.082,0.249,0.152,0.465,0.354,0.689L286.609,292.612z"/>
							</g>
						</g>
						<g>
							<g>
								<g>
									<path fill="#BFBFC0" d="M286.294,291.602c0,0-1.992-0.963-1.024-3.527C285.27,288.074,286.732,289.047,286.294,291.602z"/>
								</g>
							</g>
						</g>
					</g>
					<g>
						<g>
							<path fill="#BFBFC0" d="M286.145,291.285c0,0-0.295-0.244-0.593-1.379c-0.28-1.059-0.193-1.502-0.193-1.502
								C284.835,290.093,285.703,290.965,286.145,291.285z"/>
						</g>
					</g>
				</g>
				<g>
					<g>
						<g>
							<g>
								<path fill="#9C9D9D" d="M275.254,276.078c-0.135-0.333-0.301-0.528-0.478-0.734c-0.208-0.245-0.446-0.521-0.652-1.064
									l0.198-0.076c0.194,0.509,0.409,0.759,0.616,1.002c0.188,0.22,0.365,0.428,0.513,0.795L275.254,276.078z"/>
							</g>
						</g>
						<g>
							<g>
								<g>
									<path fill="#9C9D9D" d="M274.635,274.906c0,0-2.17-0.44-1.863-3.164C272.771,271.742,274.429,272.323,274.635,274.906z"/>
								</g>
							</g>
						</g>
					</g>
					<g>
						<g>
							<path fill="#9C9D9D" d="M274.413,274.636c0,0-0.347-0.162-0.917-1.188c-0.532-0.957-0.557-1.408-0.557-1.408
								C272.849,273.804,273.905,274.435,274.413,274.636z"/>
						</g>
					</g>
				</g>
				<g>
					<g>
						<g>
							<g>
								<path fill="#9C9D9D" d="M276.034,278.782c-0.167-0.32-0.352-0.496-0.545-0.685c-0.233-0.223-0.496-0.476-0.755-0.996
									l0.19-0.095c0.243,0.487,0.481,0.716,0.711,0.938c0.208,0.2,0.405,0.389,0.587,0.739L276.034,278.782z"/>
							</g>
						</g>
						<g>
							<g>
								<g>
									<path fill="#9C9D9D" d="M275.303,277.676c0,0-2.201-0.228-2.163-2.967C273.14,274.709,274.848,275.124,275.303,277.676z"/>
								</g>
							</g>
						</g>
					</g>
					<g>
						<g>
							<path fill="#9C9D9D" d="M275.056,277.428c0,0-0.359-0.127-1.028-1.093c-0.623-0.9-0.691-1.348-0.691-1.348
								C273.418,276.753,274.531,277.279,275.056,277.428z"/>
						</g>
					</g>
				</g>
				<g>
					<g>
						<g>
							<g>
								<path fill="#9C9D9D" d="M277.143,281.543c-0.189-0.308-0.385-0.473-0.593-0.646c-0.246-0.206-0.527-0.44-0.82-0.942
									l0.185-0.107c0.273,0.469,0.528,0.682,0.773,0.886c0.222,0.186,0.43,0.361,0.637,0.699L277.143,281.543z"/>
							</g>
						</g>
						<g>
							<g>
								<g>
									<path fill="#9C9D9D" d="M276.337,280.488c0,0-2.212-0.076-2.36-2.812C273.977,277.676,275.707,277.975,276.337,280.488z"/>
								</g>
							</g>
						</g>
					</g>
					<g>
						<g>
							<path fill="#9C9D9D" d="M276.072,280.257c0,0-0.366-0.101-1.099-1.019c-0.684-0.856-0.782-1.297-0.782-1.297
								C274.393,279.697,275.539,280.146,276.072,280.257z"/>
						</g>
					</g>
				</g>
				<g>
					<g>
						<g>
							<g>
								<path fill="#BFBFC0" d="M278.467,284.093c-0.217-0.287-0.429-0.434-0.652-0.587c-0.265-0.181-0.565-0.388-0.905-0.858
									l0.174-0.126c0.318,0.441,0.59,0.628,0.854,0.81c0.238,0.163,0.463,0.317,0.7,0.634L278.467,284.093z"/>
							</g>
						</g>
						<g>
							<g>
								<g>
									<path fill="#BFBFC0" d="M277.564,283.12c0,0-2.209,0.136-2.619-2.574C274.945,280.546,276.698,280.679,277.564,283.12z"/>
								</g>
							</g>
						</g>
					</g>
					<g>
						<g>
							<path fill="#9C9D9D" d="M277.279,282.915c0,0-0.375-0.065-1.191-0.91c-0.763-0.786-0.902-1.217-0.902-1.217
								C275.554,282.518,276.738,282.854,277.279,282.915z"/>
						</g>
					</g>
				</g>
				<g>
					<g>
						<g>
							<g>
								<path fill="#BFBFC0" d="M280.057,286.627c-0.236-0.271-0.457-0.402-0.689-0.54c-0.278-0.164-0.592-0.349-0.964-0.794
									l0.164-0.138c0.349,0.418,0.634,0.585,0.908,0.748c0.249,0.146,0.484,0.285,0.743,0.584L280.057,286.627z"/>
							</g>
						</g>
						<g>
							<g>
								<g>
									<path fill="#BFBFC0" d="M279.09,285.719c0,0-2.195,0.286-2.789-2.388C276.301,283.331,278.059,283.342,279.09,285.719z"/>
								</g>
							</g>
						</g>
					</g>
					<g>
						<g>
							<path fill="#BFBFC0" d="M278.792,285.535c0,0-0.38-0.042-1.251-0.826c-0.814-0.734-0.984-1.152-0.984-1.152
								C277.043,285.256,278.247,285.51,278.792,285.535z"/>
						</g>
					</g>
				</g>
				<g>
					<g>
						<g>
							<g>
								<path fill="#BFBFC0" d="M281.962,288.819c-0.268-0.239-0.504-0.34-0.754-0.447c-0.296-0.125-0.632-0.269-1.058-0.663
									l0.146-0.158c0.397,0.37,0.701,0.5,0.995,0.626c0.267,0.112,0.518,0.221,0.812,0.484L281.962,288.819z"/>
							</g>
						</g>
						<g>
							<g>
								<g>
									<path fill="#BFBFC0" d="M280.887,288.043c0,0-2.141,0.567-3.074-2.009C277.812,286.034,279.557,285.819,280.887,288.043z"
										/>
								</g>
							</g>
						</g>
					</g>
					<g>
						<g>
							<path fill="#BFBFC0" d="M280.567,287.899c0,0-0.381,0.009-1.348-0.658c-0.902-0.622-1.124-1.016-1.124-1.016
								C278.797,287.848,280.023,287.946,280.567,287.899z"/>
						</g>
					</g>
				</g>
				<g>
					<g>
						<g>
							<g>
								<path fill="#BFBFC0" d="M284.16,290.762c-0.3-0.198-0.548-0.264-0.811-0.332c-0.312-0.081-0.664-0.173-1.144-0.501
									l0.12-0.177c0.449,0.307,0.769,0.392,1.077,0.472c0.279,0.073,0.544,0.143,0.875,0.359L284.16,290.762z"/>
							</g>
						</g>
						<g>
							<g>
								<g>
									<path fill="#BFBFC0" d="M282.982,290.152c0,0-2.032,0.876-3.336-1.533C279.646,288.619,281.341,288.147,282.982,290.152z"
										/>
								</g>
							</g>
						</g>
					</g>
					<g>
						<g>
							<path fill="#BFBFC0" d="M282.646,290.056c0,0-0.375,0.064-1.431-0.452c-0.983-0.481-1.261-0.838-1.261-0.838
								C280.887,290.267,282.115,290.183,282.646,290.056z"/>
						</g>
					</g>
				</g>
				<g>
					<g>
						<g>
							<g>
								<path fill="#BFBFC0" d="M286.501,292.523c-0.316-0.173-0.569-0.218-0.836-0.263c-0.316-0.057-0.677-0.12-1.183-0.407
									l0.107-0.186c0.472,0.269,0.797,0.325,1.112,0.382c0.285,0.049,0.554,0.096,0.901,0.286L286.501,292.523z"/>
							</g>
						</g>
						<g>
							<g>
								<g>
									<path fill="#BFBFC0" d="M285.276,292.012c0,0-1.954,1.041-3.451-1.255C281.825,290.757,283.476,290.151,285.276,292.012z"
										/>
								</g>
							</g>
						</g>
					</g>
					<g>
						<g>
							<path fill="#BFBFC0" d="M284.932,291.944c0,0-0.368,0.096-1.462-0.333c-1.019-0.399-1.326-0.733-1.326-0.733
								C283.197,292.299,284.415,292.113,284.932,291.944z"/>
						</g>
					</g>
				</g>
				<g>
					<g>
						<path fill="#BFBFC0" d="M290.606,294.389c0,0-0.11-0.019-0.313-0.062c-0.203-0.043-0.496-0.117-0.866-0.237
							c-0.091-0.03-0.189-0.062-0.291-0.096c-0.103-0.036-0.204-0.083-0.312-0.126c-0.214-0.094-0.451-0.187-0.692-0.308
							c-0.241-0.126-0.495-0.26-0.764-0.401c-0.269-0.145-0.53-0.325-0.814-0.498c-0.141-0.089-0.288-0.176-0.431-0.272
							c-0.14-0.102-0.282-0.206-0.427-0.312c-0.286-0.213-0.592-0.423-0.889-0.661c-0.293-0.243-0.592-0.493-0.898-0.75
							c-0.151-0.127-0.311-0.254-0.462-0.39c-0.148-0.138-0.299-0.277-0.45-0.419c-0.303-0.282-0.61-0.57-0.923-0.861
							c-0.077-0.075-0.154-0.139-0.236-0.225l-0.222-0.232c-0.148-0.154-0.298-0.31-0.447-0.467
							c-0.146-0.161-0.286-0.334-0.43-0.501c-0.141-0.171-0.294-0.334-0.424-0.512c-0.133-0.175-0.268-0.353-0.401-0.528
							l-0.199-0.267l-0.188-0.273c-0.249-0.367-0.506-0.73-0.729-1.11c-0.115-0.188-0.231-0.376-0.346-0.562
							c-0.11-0.191-0.214-0.383-0.321-0.572c-0.105-0.19-0.215-0.38-0.316-0.569c-0.098-0.193-0.194-0.384-0.291-0.575
							c-0.199-0.378-0.371-0.764-0.545-1.142c-0.178-0.375-0.326-0.755-0.479-1.124c-0.158-0.367-0.285-0.738-0.416-1.094
							c-0.135-0.356-0.24-0.712-0.35-1.053c-0.113-0.341-0.2-0.677-0.287-0.997c-0.041-0.16-0.085-0.316-0.125-0.471
							c-0.035-0.157-0.068-0.309-0.102-0.456c-0.062-0.296-0.134-0.576-0.172-0.845c-0.045-0.267-0.086-0.516-0.124-0.748
							c-0.025-0.232-0.049-0.445-0.07-0.641c-0.023-0.192-0.04-0.366-0.042-0.518c-0.006-0.151-0.012-0.279-0.016-0.385
							c-0.01-0.208-0.014-0.319-0.014-0.319l0.329-0.003c0,0,0.005,0.108,0.015,0.312c0.006,0.101,0.012,0.228,0.018,0.374
							c0.003,0.147,0.021,0.316,0.046,0.506c0.02,0.189,0.044,0.398,0.071,0.627c0.039,0.226,0.082,0.472,0.126,0.733
							c0.04,0.263,0.11,0.537,0.175,0.828c0.033,0.145,0.067,0.294,0.102,0.446c0.042,0.152,0.084,0.307,0.129,0.466
							c0.086,0.315,0.173,0.645,0.289,0.979c0.109,0.336,0.213,0.687,0.351,1.037c0.132,0.352,0.254,0.719,0.41,1.08
							c0.151,0.366,0.297,0.742,0.473,1.111c0.17,0.375,0.34,0.755,0.535,1.129c0.096,0.188,0.191,0.378,0.288,0.567
							c0.099,0.189,0.205,0.375,0.31,0.564c0.105,0.187,0.208,0.378,0.317,0.564c0.113,0.186,0.227,0.37,0.34,0.557
							c0.221,0.375,0.473,0.731,0.717,1.095l0.185,0.271l0.196,0.261c0.131,0.175,0.262,0.349,0.391,0.522
							c0.129,0.177,0.275,0.335,0.41,0.503c0.138,0.164,0.271,0.332,0.415,0.492c0.148,0.157,0.296,0.314,0.443,0.472l0.22,0.232
							c0.065,0.07,0.151,0.146,0.226,0.219c0.307,0.291,0.61,0.579,0.908,0.862c0.148,0.142,0.297,0.281,0.443,0.42
							c0.149,0.135,0.305,0.261,0.454,0.389c0.302,0.256,0.596,0.507,0.883,0.751c0.291,0.236,0.592,0.446,0.873,0.66
							c0.143,0.105,0.281,0.21,0.418,0.311c0.14,0.097,0.283,0.183,0.422,0.271c0.276,0.173,0.535,0.353,0.794,0.498
							c0.265,0.14,0.514,0.273,0.748,0.397c0.235,0.124,0.469,0.211,0.676,0.311c0.209,0.099,0.403,0.179,0.581,0.253
							c0.351,0.153,0.629,0.276,0.816,0.365C290.509,294.334,290.606,294.389,290.606,294.389z"/>
					</g>
				</g>
				<g>
					<g>
						<g>
							<g>
								<path fill="#9C9D9D" d="M274.996,273.242c0,0-1.657-1.465-0.032-3.671C274.964,269.571,276.11,270.903,274.996,273.242z"/>
							</g>
						</g>
					</g>
					<g>
						<g>
							<path fill="#9C9D9D" d="M274.94,272.897c0,0-0.218-0.312-0.2-1.486c0.019-1.097,0.222-1.499,0.222-1.499
								C274.001,271.396,274.601,272.47,274.94,272.897z"/>
						</g>
					</g>
				</g>
			</g>
		</g>
		<g>
			<g>
				<g>
					<g>
						<g>
							<g>
								<path fill="#BFBFC0" d="M302.474,276.584l-0.214-0.016c0.021-0.3-0.058-0.514-0.147-0.761
									c-0.111-0.303-0.237-0.646-0.185-1.203l0.212,0.02c-0.048,0.511,0.064,0.816,0.173,1.11
									C302.407,275.992,302.496,276.236,302.474,276.584z"/>
							</g>
						</g>
						<g>
							<g>
								<g>
									<path fill="#BFBFC0" d="M302.098,275.595c0,0,0.975-1.988-1.371-3.407C300.727,272.188,300.177,273.856,302.098,275.595z"
										/>
								</g>
							</g>
						</g>
					</g>
					<g>
						<g>
							<path fill="#BFBFC0" d="M302.019,275.253c0,0,0.082-0.373-0.383-1.45c-0.434-1.006-0.775-1.301-0.775-1.301
								C302.314,273.506,302.169,274.729,302.019,275.253z"/>
						</g>
					</g>
				</g>
				<g>
					<g>
						<g>
							<g>
								<path fill="#BFBFC0" d="M301.58,279.273l-0.211-0.038c0.056-0.297,0.001-0.518-0.061-0.773
									c-0.077-0.313-0.163-0.668-0.047-1.217l0.208,0.044c-0.104,0.502-0.028,0.818,0.046,1.123
									C301.581,278.679,301.643,278.934,301.58,279.273z"/>
							</g>
						</g>
						<g>
							<g>
								<g>
									<path fill="#BFBFC0" d="M301.319,278.249c0,0,1.19-1.865-0.979-3.54C300.341,274.709,299.604,276.305,301.319,278.249z"/>
								</g>
							</g>
						</g>
					</g>
					<g>
						<g>
							<path fill="#BFBFC0" d="M301.277,277.9c0,0,0.125-0.361-0.216-1.485c-0.316-1.047-0.624-1.379-0.624-1.379
								C301.77,276.199,301.488,277.396,301.277,277.9z"/>
						</g>
					</g>
				</g>
				<g>
					<g>
						<g>
							<g>
								<path fill="#BFBFC0" d="M300.46,281.849l-0.204-0.062c0.085-0.289,0.055-0.514,0.021-0.776
									c-0.043-0.318-0.09-0.681,0.083-1.215l0.205,0.067c-0.16,0.487-0.117,0.809-0.076,1.121
									C300.524,281.257,300.56,281.516,300.46,281.849z"/>
							</g>
						</g>
						<g>
							<g>
								<g>
									<path fill="#BFBFC0" d="M300.309,280.799c0,0,1.387-1.724-0.59-3.623C299.719,277.176,298.815,278.683,300.309,280.799z"/>
								</g>
							</g>
						</g>
					</g>
					<g>
						<g>
							<path fill="#BFBFC0" d="M300.308,280.45c0,0,0.161-0.347-0.056-1.499c-0.203-1.077-0.474-1.439-0.474-1.439
								C300.978,278.811,300.569,279.972,300.308,280.45z"/>
						</g>
					</g>
				</g>
				<g>
					<g>
						<g>
							<g>
								<path fill="#BFBFC0" d="M299.199,284.355l-0.201-0.074c0.104-0.282,0.088-0.509,0.07-0.771
									c-0.021-0.321-0.048-0.686,0.159-1.208l0.199,0.078c-0.189,0.477-0.168,0.802-0.145,1.115
									C299.3,283.77,299.317,284.03,299.199,284.355z"/>
							</g>
						</g>
						<g>
							<g>
								<g>
									<path fill="#BFBFC0" d="M299.115,283.299c0,0,1.489-1.634-0.363-3.653C298.752,279.646,297.756,281.094,299.115,283.299z"
										/>
								</g>
							</g>
						</g>
					</g>
					<g>
						<g>
							<path fill="#BFBFC0" d="M299.134,282.951c0,0,0.183-0.336,0.038-1.5c-0.135-1.087-0.382-1.466-0.382-1.466
								C299.905,281.357,299.425,282.49,299.134,282.951z"/>
						</g>
					</g>
				</g>
				<g>
					<g>
						<g>
							<g>
								<path fill="#BFBFC0" d="M297.532,286.824l-0.191-0.096c0.136-0.271,0.146-0.498,0.157-0.762
									c0.015-0.321,0.031-0.687,0.296-1.181l0.188,0.101c-0.243,0.452-0.257,0.777-0.271,1.091
									C297.7,286.253,297.688,286.513,297.532,286.824z"/>
							</g>
						</g>
						<g>
							<g>
								<g>
									<path fill="#BFBFC0" d="M297.568,285.766c0,0,1.666-1.457,0.053-3.672C297.621,282.094,296.468,283.419,297.568,285.766z"
										/>
								</g>
							</g>
						</g>
					</g>
					<g>
						<g>
							<path fill="#BFBFC0" d="M297.627,285.42c0,0,0.22-0.312,0.208-1.485c-0.013-1.097-0.213-1.5-0.213-1.5
								C298.573,283.924,297.968,284.995,297.627,285.42z"/>
						</g>
					</g>
				</g>
				<g>
					<g>
						<g>
							<g>
								<path fill="#BFBFC0" d="M295.655,289.024l-0.183-0.11c0.158-0.259,0.188-0.484,0.221-0.743
									c0.043-0.32,0.091-0.683,0.395-1.154l0.18,0.116c-0.279,0.431-0.321,0.754-0.362,1.064
									C295.871,288.471,295.837,288.729,295.655,289.024z"/>
							</g>
						</g>
						<g>
							<g>
								<g>
									<path fill="#BFBFC0" d="M295.781,287.973c0,0,1.782-1.31,0.361-3.654C296.143,284.318,294.882,285.543,295.781,287.973z"/>
								</g>
							</g>
						</g>
					</g>
					<g>
						<g>
							<path fill="#BFBFC0" d="M295.868,287.635c0,0,0.245-0.291,0.332-1.464c0.082-1.091-0.085-1.513-0.085-1.513
								C296.938,286.224,296.245,287.239,295.868,287.635z"/>
						</g>
					</g>
				</g>
				<g>
					<g>
						<g>
							<g>
								<path fill="#BFBFC0" d="M293.515,290.845l-0.169-0.132c0.188-0.237,0.243-0.458,0.308-0.712
									c0.079-0.312,0.169-0.667,0.527-1.1l0.166,0.138c-0.329,0.395-0.409,0.709-0.486,1.014
									C293.793,290.319,293.728,290.572,293.515,290.845z"/>
							</g>
						</g>
						<g>
							<g>
								<g>
									<path fill="#BFBFC0" d="M293.763,289.816c0,0,1.925-1.09,0.794-3.586C294.557,286.23,293.16,287.296,293.763,289.816z"/>
								</g>
							</g>
						</g>
					</g>
					<g>
						<g>
							<path fill="#BFBFC0" d="M293.891,289.49c0,0,0.277-0.261,0.503-1.414c0.211-1.074,0.095-1.512,0.095-1.512
								C295.12,288.216,294.311,289.142,293.891,289.49z"/>
						</g>
					</g>
				</g>
				<g>
					<g>
						<g>
							<g>
								<path fill="#BFBFC0" d="M291.191,292.612l-0.158-0.144c0.202-0.225,0.271-0.44,0.354-0.689
									c0.099-0.307,0.211-0.654,0.597-1.062l0.155,0.146c-0.353,0.373-0.453,0.682-0.549,0.98
									C291.504,292.107,291.425,292.354,291.191,292.612z"/>
							</g>
						</g>
						<g>
							<g>
								<g>
									<path fill="#BFBFC0" d="M291.508,291.602c0,0,1.992-0.963,1.024-3.527C292.532,288.074,291.067,289.047,291.508,291.602z"
										/>
								</g>
							</g>
						</g>
					</g>
					<g>
						<g>
							<path fill="#BFBFC0" d="M291.654,291.285c0,0,0.296-0.244,0.595-1.379c0.28-1.059,0.192-1.502,0.192-1.502
								C292.965,290.093,292.098,290.965,291.654,291.285z"/>
						</g>
					</g>
				</g>
				<g>
					<g>
						<g>
							<g>
								<path fill="#BFBFC0" d="M302.547,276.078L302.348,276c0.147-0.367,0.326-0.575,0.514-0.795
									c0.207-0.243,0.422-0.493,0.615-1.002l0.2,0.076c-0.208,0.543-0.443,0.819-0.653,1.064
									C302.848,275.55,302.682,275.745,302.547,276.078z"/>
							</g>
						</g>
						<g>
							<g>
								<g>
									<path fill="#BFBFC0" d="M303.166,274.906c0,0,2.169-0.44,1.863-3.164C305.029,271.742,303.371,272.323,303.166,274.906z"/>
								</g>
							</g>
						</g>
					</g>
					<g>
						<g>
							<path fill="#BFBFC0" d="M303.387,274.636c0,0,0.346-0.162,0.917-1.188c0.532-0.957,0.557-1.408,0.557-1.408
								C304.952,273.804,303.896,274.435,303.387,274.636z"/>
						</g>
					</g>
				</g>
				<g>
					<g>
						<g>
							<g>
								<path fill="#BFBFC0" d="M301.766,278.782l-0.188-0.099c0.181-0.351,0.379-0.539,0.587-0.739
									c0.231-0.222,0.469-0.45,0.711-0.938l0.191,0.095c-0.259,0.521-0.521,0.773-0.753,0.996
									C302.116,278.286,301.933,278.462,301.766,278.782z"/>
							</g>
						</g>
						<g>
							<g>
								<g>
									<path fill="#BFBFC0" d="M302.497,277.676c0,0,2.201-0.228,2.164-2.967C304.661,274.709,302.953,275.124,302.497,277.676z"
										/>
								</g>
							</g>
						</g>
					</g>
					<g>
						<g>
							<path fill="#BFBFC0" d="M302.744,277.428c0,0,0.359-0.127,1.027-1.093c0.624-0.9,0.691-1.348,0.691-1.348
								C304.382,276.753,303.269,277.279,302.744,277.428z"/>
						</g>
					</g>
				</g>
				<g>
					<g>
						<g>
							<g>
								<path fill="#BFBFC0" d="M300.658,281.543l-0.184-0.111c0.207-0.338,0.417-0.514,0.639-0.699
									c0.244-0.204,0.498-0.417,0.772-0.886l0.186,0.107c-0.294,0.502-0.573,0.736-0.82,0.942
									C301.043,281.07,300.847,281.235,300.658,281.543z"/>
							</g>
						</g>
						<g>
							<g>
								<g>
									<path fill="#BFBFC0" d="M301.464,280.488c0,0,2.211-0.076,2.36-2.812C303.824,277.676,302.093,277.975,301.464,280.488z"/>
								</g>
							</g>
						</g>
					</g>
					<g>
						<g>
							<path fill="#BFBFC0" d="M301.727,280.257c0,0,0.368-0.101,1.1-1.019c0.685-0.856,0.784-1.297,0.784-1.297
								C303.407,279.697,302.261,280.146,301.727,280.257z"/>
						</g>
					</g>
				</g>
				<g>
					<g>
						<g>
							<g>
								<path fill="#BFBFC0" d="M299.333,284.093l-0.17-0.128c0.236-0.316,0.462-0.471,0.7-0.634
									c0.265-0.182,0.537-0.368,0.855-0.81l0.173,0.126c-0.339,0.471-0.641,0.678-0.907,0.858
									C299.762,283.659,299.55,283.806,299.333,284.093z"/>
							</g>
						</g>
						<g>
							<g>
								<g>
									<path fill="#BFBFC0" d="M300.236,283.12c0,0,2.207,0.136,2.618-2.574C302.854,280.546,301.103,280.679,300.236,283.12z"/>
								</g>
							</g>
						</g>
					</g>
					<g>
						<g>
							<path fill="#BFBFC0" d="M300.521,282.915c0,0,0.375-0.065,1.192-0.91c0.763-0.786,0.902-1.217,0.902-1.217
								C302.246,282.518,301.062,282.854,300.521,282.915z"/>
						</g>
					</g>
				</g>
				<g>
					<g>
						<g>
							<g>
								<path fill="#BFBFC0" d="M297.744,286.627l-0.162-0.14c0.26-0.299,0.494-0.438,0.743-0.584
									c0.274-0.163,0.56-0.33,0.907-0.748l0.164,0.138c-0.372,0.445-0.686,0.63-0.963,0.794
									C298.199,286.225,297.979,286.355,297.744,286.627z"/>
							</g>
						</g>
						<g>
							<g>
								<g>
									<path fill="#BFBFC0" d="M298.71,285.719c0,0,2.195,0.286,2.79-2.388C301.5,283.331,299.742,283.342,298.71,285.719z"/>
								</g>
							</g>
						</g>
					</g>
					<g>
						<g>
							<path fill="#BFBFC0" d="M299.008,285.535c0,0,0.38-0.042,1.253-0.826c0.813-0.734,0.983-1.152,0.983-1.152
								C300.757,285.256,299.553,285.51,299.008,285.535z"/>
						</g>
					</g>
				</g>
				<g>
					<g>
						<g>
							<g>
								<path fill="#BFBFC0" d="M295.838,288.819l-0.143-0.158c0.295-0.264,0.547-0.372,0.812-0.484
									c0.295-0.126,0.598-0.256,0.995-0.626l0.146,0.158c-0.425,0.395-0.761,0.538-1.057,0.663
									C296.343,288.479,296.107,288.58,295.838,288.819z"/>
							</g>
						</g>
						<g>
							<g>
								<g>
									<path fill="#BFBFC0" d="M296.914,288.043c0,0,2.14,0.567,3.074-2.009C299.988,286.034,298.244,285.819,296.914,288.043z"/>
								</g>
							</g>
						</g>
					</g>
					<g>
						<g>
							<path fill="#BFBFC0" d="M297.232,287.899c0,0,0.382,0.009,1.348-0.658c0.901-0.622,1.125-1.016,1.125-1.016
								C299.003,287.848,297.776,287.946,297.232,287.899z"/>
						</g>
					</g>
				</g>
				<g>
					<g>
						<g>
							<g>
								<path fill="#BFBFC0" d="M293.639,290.762l-0.116-0.179c0.33-0.217,0.595-0.286,0.875-0.359
									c0.308-0.08,0.628-0.165,1.077-0.472l0.12,0.177c-0.479,0.328-0.832,0.42-1.145,0.501
									C294.188,290.498,293.939,290.563,293.639,290.762z"/>
							</g>
						</g>
						<g>
							<g>
								<g>
									<path fill="#BFBFC0" d="M294.817,290.152c0,0,2.033,0.876,3.337-1.533C298.154,288.619,296.461,288.147,294.817,290.152z"
										/>
								</g>
							</g>
						</g>
					</g>
					<g>
						<g>
							<path fill="#BFBFC0" d="M295.154,290.056c0,0,0.376,0.064,1.431-0.452c0.983-0.481,1.262-0.838,1.262-0.838
								C296.912,290.267,295.685,290.183,295.154,290.056z"/>
						</g>
					</g>
				</g>
				<g>
					<g>
						<g>
							<g>
								<path fill="#BFBFC0" d="M291.299,292.523l-0.102-0.188c0.348-0.19,0.616-0.237,0.9-0.286
									c0.315-0.057,0.641-0.113,1.113-0.382l0.104,0.186c-0.504,0.287-0.863,0.351-1.181,0.407
									C291.868,292.306,291.616,292.351,291.299,292.523z"/>
							</g>
						</g>
						<g>
							<g>
								<g>
									<path fill="#BFBFC0" d="M292.523,292.012c0,0,1.953,1.041,3.451-1.255C295.975,290.757,294.325,290.151,292.523,292.012z"
										/>
								</g>
							</g>
						</g>
					</g>
					<g>
						<g>
							<path fill="#BFBFC0" d="M292.867,291.944c0,0,0.369,0.096,1.461-0.333c1.021-0.399,1.328-0.733,1.328-0.733
								C294.603,292.299,293.386,292.113,292.867,291.944z"/>
						</g>
					</g>
				</g>
				<g>
					<g>
						<path fill="#BFBFC0" d="M287.193,294.389c0,0,0.098-0.055,0.284-0.144c0.188-0.089,0.467-0.212,0.817-0.365
							c0.177-0.074,0.373-0.154,0.58-0.253c0.207-0.1,0.44-0.187,0.676-0.311c0.234-0.124,0.483-0.258,0.746-0.397
							c0.262-0.146,0.519-0.325,0.798-0.498c0.138-0.089,0.279-0.175,0.42-0.271c0.137-0.101,0.276-0.205,0.419-0.311
							c0.28-0.214,0.58-0.424,0.872-0.66c0.287-0.244,0.582-0.495,0.884-0.751c0.149-0.128,0.305-0.254,0.453-0.389
							c0.147-0.139,0.295-0.278,0.444-0.42c0.299-0.283,0.602-0.571,0.908-0.862c0.074-0.073,0.16-0.148,0.225-0.219l0.221-0.232
							c0.146-0.157,0.295-0.314,0.442-0.472c0.144-0.16,0.276-0.328,0.416-0.492c0.136-0.168,0.28-0.326,0.407-0.503
							c0.131-0.174,0.263-0.348,0.393-0.522l0.197-0.261l0.185-0.271c0.243-0.363,0.495-0.72,0.716-1.095
							c0.114-0.187,0.228-0.371,0.341-0.557c0.108-0.187,0.211-0.378,0.316-0.564c0.104-0.189,0.211-0.375,0.311-0.564
							c0.096-0.189,0.191-0.379,0.287-0.567c0.196-0.374,0.365-0.754,0.535-1.129c0.176-0.369,0.323-0.745,0.474-1.111
							c0.156-0.361,0.279-0.729,0.409-1.08c0.138-0.351,0.241-0.701,0.353-1.037c0.113-0.335,0.202-0.664,0.288-0.979
							c0.043-0.159,0.087-0.313,0.127-0.466c0.035-0.152,0.069-0.302,0.103-0.446c0.064-0.291,0.135-0.565,0.174-0.828
							c0.046-0.262,0.088-0.508,0.127-0.733c0.026-0.229,0.051-0.438,0.073-0.627s0.042-0.358,0.044-0.506
							c0.007-0.146,0.013-0.273,0.019-0.374c0.01-0.204,0.016-0.312,0.016-0.312l0.328,0.003c0,0-0.006,0.111-0.014,0.319
							c-0.004,0.105-0.01,0.233-0.017,0.385c-0.001,0.151-0.02,0.325-0.042,0.518c-0.021,0.195-0.043,0.408-0.069,0.641
							c-0.038,0.232-0.081,0.481-0.125,0.748c-0.038,0.269-0.108,0.549-0.172,0.845c-0.032,0.147-0.067,0.299-0.101,0.456
							c-0.042,0.154-0.083,0.311-0.127,0.471c-0.086,0.32-0.173,0.656-0.287,0.997c-0.108,0.341-0.212,0.696-0.348,1.053
							c-0.133,0.355-0.259,0.727-0.417,1.094c-0.153,0.369-0.301,0.749-0.48,1.124c-0.172,0.378-0.345,0.764-0.544,1.142
							c-0.097,0.191-0.193,0.382-0.291,0.575c-0.101,0.189-0.21,0.379-0.315,0.569c-0.107,0.189-0.211,0.381-0.321,0.572
							c-0.115,0.186-0.231,0.374-0.347,0.562c-0.225,0.38-0.479,0.743-0.729,1.11l-0.188,0.273l-0.2,0.267
							c-0.134,0.176-0.268,0.354-0.4,0.528c-0.132,0.178-0.284,0.341-0.425,0.512c-0.144,0.167-0.283,0.34-0.43,0.501
							c-0.149,0.157-0.298,0.312-0.447,0.467l-0.222,0.232c-0.081,0.086-0.157,0.149-0.236,0.225
							c-0.312,0.291-0.619,0.579-0.922,0.861c-0.151,0.142-0.301,0.281-0.45,0.419c-0.152,0.136-0.309,0.263-0.462,0.39
							c-0.307,0.257-0.606,0.507-0.897,0.75c-0.297,0.238-0.604,0.448-0.892,0.661c-0.145,0.106-0.286,0.211-0.426,0.312
							c-0.143,0.097-0.288,0.184-0.429,0.272c-0.285,0.173-0.548,0.354-0.814,0.498c-0.271,0.142-0.525,0.275-0.766,0.401
							c-0.24,0.121-0.478,0.214-0.692,0.308c-0.109,0.043-0.211,0.09-0.311,0.126c-0.104,0.034-0.201,0.065-0.292,0.096
							c-0.37,0.12-0.664,0.194-0.867,0.237C287.304,294.37,287.193,294.389,287.193,294.389z"/>
					</g>
				</g>
				<g>
					<g>
						<g>
							<g>
								<path fill="#BFBFC0" d="M302.803,273.242c0,0,1.659-1.465,0.033-3.671C302.836,269.571,301.689,270.903,302.803,273.242z"/>
							</g>
						</g>
					</g>
					<g>
						<g>
							<path fill="#BFBFC0" d="M302.859,272.897c0,0,0.219-0.312,0.2-1.486c-0.017-1.097-0.221-1.499-0.221-1.499
								C303.8,271.396,303.199,272.47,302.859,272.897z"/>
						</g>
					</g>
				</g>
			</g>
		</g>
	</g>
</g>
<path fill="#9C9D9D" d="M251.816,59.329c-56.177,0-98.395,49.168-66.884,92.162l0,0c0,0-1.479-44.164,27.957-63.76
	c0,0,1.477,23.538,82.328,16.661c0,0-11.277-10.23-10.685-20.479c0,0,39.808,47.981,38.786,67.578l0,0
	C351.722,109.496,318.969,59.329,251.816,59.329z"/>
<g>
	<path fill="#9C9D9D" d="M298.958,431.207h6.383c0,0,10.115,8.565,37.198,13.004l-18.463,7.05l-37.872-11.048L298.958,431.207z"/>
	<path fill="#9C9D9D" d="M259.787,454.384l2.711,5.666h35.753l0.129-1.039c0,0,6.035,0.291,12.692,1.039
		c0,0,20.83,2.107,48.557-1.798v-3.868l-44.028-4.568l-43.895-2.977L259.787,454.384z"/>
	<path fill="#9C9D9D" d="M343.909,444.378L343.909,444.378c0,0-33.396-3.678-44.951-13.171h-33.213c0,0-10.649,8.882-5.958,23.177
		c0,0,0.543,1.631,18.774,1.631c0,0,7.945,0,12.999-0.817c0,0,11.62-0.771,23.354,0.862c0,0,10.141,2.264,40.746-0.862
		c0,0,2.779-0.263,3.969-0.813v-0.807C359.629,448.496,354.943,445.191,343.909,444.378z"/>
	<ellipse fill="#9C9D9D" cx="299.559" cy="433.938" rx="1.528" ry="0.864"/>
	<ellipse fill="#9C9D9D" cx="303.812" cy="436.343" rx="1.528" ry="0.864"/>
	<ellipse fill="#9C9D9D" cx="308.928" cy="438.41" rx="1.528" ry="0.863"/>
	<ellipse fill="#9C9D9D" cx="314.074" cy="440.137" rx="1.527" ry="0.864"/>
	<ellipse fill="#9C9D9D" cx="319.558" cy="441.865" rx="1.528" ry="0.864"/>
	<ellipse fill="#9C9D9D" cx="325.141" cy="443.166" rx="1.527" ry="0.863"/>
	<g>
		<g>
			<path fill="#9C9D9D" d="M299.624,434.306c3.063,0.075,6.582-0.014,8.84-1.344c0.757-0.445-0.439-1.125-1.197-0.678
				c-1.931,1.134-5.048,1.126-7.643,1.062C298.534,433.319,298.538,434.279,299.624,434.306L299.624,434.306z"/>
		</g>
		<g>
			<path fill="#9C9D9D" d="M304.942,436.71c2.507,0.038,4.625-0.647,6.444-1.568c0.817-0.414-0.386-1.09-1.197-0.678
				c-1.492,0.754-3.192,1.317-5.247,1.287C303.848,435.735,303.85,436.691,304.942,436.71L304.942,436.71z"/>
		</g>
		<g>
			<path fill="#9C9D9D" d="M310.084,438.871c2.026-0.374,3.708-1.12,4.759-2.174c0.536-0.539-0.928-1.021-1.464-0.484
				c-0.833,0.838-2.13,1.437-3.745,1.735C308.601,438.139,309.043,439.064,310.084,438.871L310.084,438.871z"/>
		</g>
		<g>
			<path fill="#9C9D9D" d="M314.937,440.551c1.73-0.562,3.543-1.045,4.423-2.126c0.455-0.556-1.006-1.042-1.464-0.482
				c-0.754,0.925-2.333,1.301-3.814,1.781C313.136,440.031,313.988,440.858,314.937,440.551L314.937,440.551z"/>
		</g>
		<g>
			<path fill="#9C9D9D" d="M320.05,442.103c1.773-0.31,2.778-1.225,3.827-2.022c0.653-0.498-0.819-0.975-1.463-0.484
				c-0.755,0.573-1.532,1.359-2.816,1.584C318.557,441.362,319.004,442.287,320.05,442.103L320.05,442.103z"/>
		</g>
		<g>
			<path fill="#9C9D9D" d="M326.23,443.257c1.06-0.447,1.83-1.012,2.43-1.676c0.5-0.546-0.964-1.034-1.462-0.483
				c-0.457,0.505-1.006,0.988-1.822,1.332C324.512,442.795,325.354,443.628,326.23,443.257L326.23,443.257z"/>
		</g>
	</g>
</g>
<g>
	<path fill="#9C9D9D" d="M208.582,431.207H202.2c0,0-10.117,8.565-37.198,13.004l18.463,7.05l37.871-11.048L208.582,431.207z"/>
	<path fill="#9C9D9D" d="M247.753,454.384l-2.712,5.666H209.29l-0.129-1.039c0,0-6.036,0.291-12.693,1.039
		c0,0-20.829,2.107-48.557-1.798v-3.868l44.029-4.568l43.894-2.977L247.753,454.384z"/>
	<path fill="#9C9D9D" d="M163.631,444.378L163.631,444.378c0,0,33.395-3.678,44.95-13.171h33.213c0,0,10.647,8.882,5.958,23.177
		c0,0-0.543,1.631-18.775,1.631c0,0-7.945,0-12.999-0.817c0,0-11.62-0.771-23.354,0.862c0,0-10.141,2.264-40.745-0.862
		c0,0-2.781-0.263-3.97-0.813v-0.807C147.911,448.496,152.596,445.191,163.631,444.378z"/>
	<ellipse fill="#9C9D9D" cx="207.981" cy="433.938" rx="1.528" ry="0.864"/>
	<ellipse fill="#9C9D9D" cx="203.728" cy="436.343" rx="1.528" ry="0.864"/>
	<ellipse fill="#9C9D9D" cx="198.612" cy="438.41" rx="1.529" ry="0.863"/>
	<ellipse fill="#9C9D9D" cx="193.467" cy="440.137" rx="1.527" ry="0.864"/>
	<ellipse fill="#9C9D9D" cx="187.982" cy="441.865" rx="1.528" ry="0.864"/>
	<ellipse fill="#9C9D9D" cx="182.4" cy="443.166" rx="1.528" ry="0.863"/>
	<g>
		<g>
			<path fill="#9C9D9D" d="M207.915,434.306c-3.062,0.075-6.58-0.014-8.839-1.344c-0.757-0.445,0.439-1.125,1.198-0.678
				c1.93,1.134,5.047,1.126,7.641,1.062C209.006,433.319,209.002,434.279,207.915,434.306L207.915,434.306z"/>
		</g>
		<g>
			<path fill="#9C9D9D" d="M202.598,436.71c-2.507,0.038-4.625-0.647-6.445-1.568c-0.816-0.414,0.386-1.09,1.199-0.678
				c1.492,0.754,3.192,1.317,5.247,1.287C203.692,435.735,203.69,436.691,202.598,436.71L202.598,436.71z"/>
		</g>
		<g>
			<path fill="#9C9D9D" d="M197.456,438.871c-2.026-0.374-3.708-1.12-4.759-2.174c-0.536-0.539,0.929-1.021,1.464-0.484
				c0.833,0.838,2.131,1.437,3.745,1.735C198.939,438.139,198.498,439.064,197.456,438.871L197.456,438.871z"/>
		</g>
		<g>
			<path fill="#9C9D9D" d="M192.603,440.551c-1.729-0.562-3.542-1.045-4.42-2.126c-0.456-0.556,1.005-1.042,1.462-0.482
				c0.753,0.925,2.334,1.301,3.815,1.781C194.405,440.031,193.552,440.858,192.603,440.551L192.603,440.551z"/>
		</g>
		<g>
			<path fill="#9C9D9D" d="M187.491,442.103c-1.774-0.31-2.78-1.225-3.828-2.022c-0.652-0.498,0.819-0.975,1.463-0.484
				c0.755,0.573,1.532,1.359,2.816,1.584C188.983,441.362,188.537,442.287,187.491,442.103L187.491,442.103z"/>
		</g>
		<g>
			<path fill="#9C9D9D" d="M181.309,443.257c-1.06-0.447-1.83-1.012-2.43-1.676c-0.499-0.546,0.965-1.034,1.463-0.483
				c0.457,0.505,1.005,0.988,1.822,1.332C183.029,442.795,182.186,443.628,181.309,443.257L181.309,443.257z"/>
		</g>
	</g>
</g>
</svg>
