<?xml version="1.0" encoding="utf-8"?>
<!-- Generator: Adobe Illustrator 16.0.1, SVG Export Plug-In . SVG Version: 6.00 Build 0)  -->
<!DOCTYPE svg PUBLIC "-//W3C//DTD SVG 1.1//EN" "http://www.w3.org/Graphics/SVG/1.1/DTD/svg11.dtd">
<svg version="1.1" id="content" xmlns="http://www.w3.org/2000/svg" xmlns:xlink="http://www.w3.org/1999/xlink" x="0px" y="0px"
	 width="500px" height="500px" viewBox="0 0 500 500" enable-background="new 0 0 500 500" xml:space="preserve">
<g id="bounds">
	<rect x="0" fill="none" width="500" height="500"/>
</g>
<g>
	<g>
		<g>
			<path fill="#BFBFC0" d="M180.002,327.479c0,9.729-7.96,17.689-17.689,17.689h-0.479c-9.729,0-17.689-7.96-17.689-17.689v-97.473
				c0-9.729,7.96-17.689,17.689-17.689h0.479c9.729,0,17.689,7.96,17.689,17.689V327.479z"/>
		</g>
	</g>
	<g>
		<g>
			<path fill="#BFBFC0" d="M367.787,327.479c0,9.729-7.96,17.689-17.689,17.689h-0.479c-9.729,0-17.689-7.96-17.689-17.689v-97.473
				c0-9.729,7.96-17.689,17.689-17.689h0.479c9.729,0,17.689,7.96,17.689,17.689V327.479z"/>
		</g>
	</g>
	<g>
		<g>
			<path fill="#BFBFC0" d="M245.597,435.928c0,10.92-8.935,19.854-19.854,19.854h-1.911c-10.92,0-19.854-8.935-19.854-19.854
				v-104.48c0-10.92,8.935-19.854,19.854-19.854h1.911c10.92,0,19.854,8.935,19.854,19.854V435.928z"/>
		</g>
		<g>
			<path fill="#BFBFC0" d="M307.419,435.928c0,10.92-8.935,19.854-19.854,19.854h-1.911c-10.92,0-19.854-8.935-19.854-19.854
				v-104.48c0-10.92,8.935-19.854,19.854-19.854h1.911c10.92,0,19.854,8.935,19.854,19.854V435.928z"/>
		</g>
		<g>
			<path fill="#BFBFC0" d="M307.952,435.675c0,11.06-9.048,20.107-20.107,20.107h-2.471c-11.06,0-20.107-9.048-20.107-20.107V331.7
				c0-11.06,9.048-20.107,20.107-20.107h2.471c11.06,0,20.107,9.048,20.107,20.107V435.675z"/>
		</g>
	</g>
	<g>
		<circle fill="#BFBFC0" cx="255.965" cy="138.232" r="69.603"/>
	</g>
	<g>
		<circle fill="#FFFFFF" cx="229.649" cy="131.034" r="12.278"/>
		<circle fill="#FFFFFF" cx="281.287" cy="131.034" r="12.278"/>
		<path fill="#FFFFFF" d="M268.243,165.8c0,6.78-5.497,12.276-12.277,12.276c-6.782,0-12.279-5.496-12.279-12.276H268.243z"/>
	</g>
	<g>
		<path fill="#BFBFC0" d="M314.979,357.196c-0.816,9.587-9.356,17.431-18.979,17.431h-80.315c-9.622,0-18.15-7.845-18.953-17.434
			L186.069,229.75c-0.802-9.588,6.414-17.433,16.036-17.433h107.722c9.622,0,16.826,7.844,16.01,17.431L314.979,357.196z"/>
	</g>
</g>
<g>
	<g>
		<g>
			<path fill="#BFBFC0" d="M180.23,327.479c0,9.729-7.96,17.689-17.689,17.689h-0.478c-9.729,0-17.689-7.96-17.689-17.689v-97.473
				c0-9.729,7.96-17.689,17.689-17.689h0.478c9.729,0,17.689,7.96,17.689,17.689V327.479z"/>
		</g>
	</g>
	<g>
		<g>
			<path fill="#BFBFC0" d="M368.015,327.479c0,9.729-7.96,17.689-17.689,17.689h-0.479c-9.729,0-17.689-7.96-17.689-17.689v-97.473
				c0-9.729,7.96-17.689,17.689-17.689h0.479c9.729,0,17.689,7.96,17.689,17.689V327.479z"/>
		</g>
	</g>
	<g>
		<g>
			<path fill="#BFBFC0" d="M245.826,435.928c0,10.92-8.935,19.854-19.854,19.854h-1.911c-10.92,0-19.854-8.935-19.854-19.854
				v-104.48c0-10.92,8.935-19.854,19.854-19.854h1.911c10.92,0,19.854,8.935,19.854,19.854V435.928z"/>
		</g>
		<g>
			<path fill="#BFBFC0" d="M307.649,435.928c0,10.92-8.935,19.854-19.854,19.854h-1.911c-10.92,0-19.854-8.935-19.854-19.854
				v-104.48c0-10.92,8.935-19.854,19.854-19.854h1.911c10.92,0,19.854,8.935,19.854,19.854V435.928z"/>
		</g>
		<g>
			<path fill="#BFBFC0" d="M308.18,435.675c0,11.06-9.048,20.107-20.107,20.107h-2.469c-11.06,0-20.107-9.048-20.107-20.107V331.7
				c0-11.06,9.048-20.107,20.107-20.107h2.469c11.06,0,20.107,9.048,20.107,20.107V435.675z"/>
		</g>
	</g>
	<g>
		<path fill="#BFBFC0" d="M315.208,357.196c-0.816,9.587-9.356,17.431-18.979,17.431h-80.317c-9.622,0-18.15-7.845-18.953-17.434
			L186.297,229.75c-0.802-9.588,6.414-17.433,16.036-17.433h107.722c9.622,0,16.826,7.844,16.01,17.431L315.208,357.196z"/>
	</g>
</g>
<g>
	<path fill="#BFBFC0" d="M225.743,345.17h-1.911c-10.92,0-19.855,8.934-19.855,19.853v70.906h41.62v-25.974v-3.87v-41.063
		C245.597,354.104,236.662,345.17,225.743,345.17z"/>
	<path fill="#BFBFC0" d="M287.846,345.168h-2.472c-11.06,0-20.107,9.049-20.107,20.108v40.81h-0.153v3.87h0.153v25.718h42.686
		v-25.718v-3.87v-40.81C307.952,354.217,298.903,345.168,287.846,345.168z"/>
</g>
<g>
	<g>
		<path fill="#9C9D9D" d="M315.175,357.194c-0.8,9.586-9.324,17.433-18.945,17.433h-80.317c-9.622,0-18.166-7.845-18.985-17.431
			l-12.762-144.88h143.384L315.175,357.194z"/>
	</g>
	<g>
		<polygon opacity="0.25" fill="#BFBFC0" points="310.323,243.268 267.603,243.268 267.603,238.251 310.323,237.483 		"/>
		<path fill="#BFBFC0" d="M267.603,238.251c0,0,23.366,3.998,42.72-0.768v38.601c0,0-5.578,5.384-21.447,5.384
			c-18.135,0-21.272-5.844-21.272-5.844V238.251z"/>
		<path fill="#BFBFC0" d="M288.091,251.172c-11.937,0-20.262-2.062-20.403-2.097l-0.062-2.592c0.211,0.05,21.94,4.976,42.697-0.751
			v2.827C302.552,250.703,294.912,251.172,288.091,251.172z"/>
	</g>
</g>
<path fill="#9C9D9D" d="M253.842,59.329c-55.774,0-97.688,48.813-66.404,91.496l0,0c0,0-1.468-43.844,27.755-63.3
	c0,0,1.466,23.37,81.742,16.542c0,0-11.196-10.156-10.609-20.332c0,0,39.521,47.635,38.506,67.09l0,0
	C353.031,109.133,320.517,59.329,253.842,59.329z"/>
<g>
	<g>
		<path fill="#9C9D9D" d="M272.14,453.139c20.499,0.222,46.82,0.582,67.035-0.078c12.751-0.415,19.111-1.812,24.006-2.583
			c-0.762-2.38-3.007-6.423-9.489-6.159c-3.635,0.148-9.727-1.27-16.013-3.514c-12.22-4.366-25.528-16.844-25.528-16.844
			s0,0-6.041,3.619c-10.688,6.399-31.315,2.246-35.076-0.804c-3.758-3.05-9.648-2.815-9.648-2.815l-0.254,9.72
			c0,0-4.765,6.969-2.752,19.338L272.14,453.139z"/>
		<g>
			<g>
				<path fill="#9C9D9D" d="M258.379,453.019l13.761,0.12c2.549,0.026,5.186,0.057,7.892,0.086c0.007-0.157,0.021-0.302,0.025-0.464
					c0.563-16.097-18.926-19.08-18.926-19.08S256.366,440.649,258.379,453.019z"/>
				<path fill="#9C9D9D" d="M321.815,453.225c8.537-0.022,9.881-0.164,17.36-0.164c15.945,0,24.006-2.583,24.006-2.583
					c-0.762-2.38-3.007-6.423-9.489-6.159c0,0,0.448,3.686-7.566,3.868c-1.76,0.04-12.313,0.01-14.515,0.01
					C325.186,448.196,321.815,450.839,321.815,453.225z"/>
			</g>
			<g>
				<path fill="#9C9D9D" d="M304.513,428.418c0.546-0.257,1.082-0.53,1.597-0.838c6.041-3.619,6.041-3.619,6.041-3.619
					s8.526,12.705,21.548,18.051c2.131,0.874,8.785,0.691,14.618,1.773c-17.642-4.137-31.252-15.995-35.348-23.114
					c-0.832-1.447-4.104-1.219-4.565-0.74C305.96,422.474,304.513,428.418,304.513,428.418L304.513,428.418z"/>
				<path fill="#9C9D9D" d="M261.055,433.959c8.497,1.793,13.057-3.599,9.979-7.183c-3.077-3.585-7.716-4.116-9.648-2.609
					C259.484,425.653,261.055,433.959,261.055,433.959z"/>
			</g>
		</g>
		<g>
			<path fill="#9C9D9D" d="M363.704,450.392l1.295,6.032c0,0-7.208,2.416-25.45,3.072c-23.551,0.847-53.501-0.219-82.184-0.219
				l0.165-6.27c20.403,0,54.716,0.933,81.645,0.053C357.099,452.477,363.704,450.392,363.704,450.392z"/>
			<path fill="#9C9D9D" d="M315.399,434.412c-0.578,0.492-1.489,0.469-2.034-0.051l0,0c-0.549-0.522-0.524-1.343,0.054-1.836
				l5.312-4.527c0.577-0.493,1.489-0.471,2.034,0.05l0,0c0.548,0.521,0.521,1.344-0.057,1.836L315.399,434.412z"/>
			<path fill="#9C9D9D" d="M320.848,437.293c-0.579,0.492-1.49,0.47-2.037-0.052l0,0c-0.545-0.521-0.519-1.342,0.059-1.836
				l4.688-4.059c0.579-0.493,1.488-0.469,2.035,0.05l0,0c0.548,0.521,0.521,1.344-0.056,1.836L320.848,437.293z"/>
			<path fill="#9C9D9D" d="M326.298,440.173c-0.577,0.493-1.488,0.47-2.036-0.052l0,0c-0.546-0.52-0.521-1.341,0.057-1.834
				l4.408-3.889c0.577-0.492,1.488-0.469,2.034,0.051l0,0c0.545,0.521,0.52,1.344-0.057,1.835L326.298,440.173z"/>
			<path fill="#9C9D9D" d="M331.745,443.055c-0.576,0.492-1.487,0.469-2.033-0.052l0,0c-0.547-0.52-0.521-1.341,0.057-1.837
				l4.595-3.889c0.577-0.493,1.489-0.472,2.036,0.052l0,0c0.546,0.52,0.521,1.342-0.057,1.835L331.745,443.055z"/>
			<path fill="#9C9D9D" d="M338.81,445.434c-0.578,0.494-1.489,0.47-2.036-0.052l0,0c-0.546-0.52-0.521-1.342,0.057-1.834
				l3.923-3.346c0.579-0.492,1.489-0.471,2.037,0.051l0,0c0.544,0.521,0.52,1.343-0.058,1.837L338.81,445.434z"/>
			<path fill="#9C9D9D" d="M345.386,446.616c-0.576,0.492-1.488,0.471-2.034-0.051l0,0c-0.547-0.522-0.521-1.343,0.056-1.836
				l3.407-3.006c0.578-0.49,1.488-0.468,2.036,0.052l0,0c0.544,0.522,0.52,1.343-0.058,1.835L345.386,446.616z"/>
			<g>
				<path fill="#9C9D9D" d="M293.213,446.2l10.543-9.762l-6.111,0.712l-9.718,8.998C289.668,446.167,291.436,446.183,293.213,446.2z
					"/>
				<path fill="#9C9D9D" d="M306.671,440.089l-9.775,9.076c1.764,0.013,3.536,0.022,5.31,0.031l10.313-9.577L306.671,440.089z"/>
			</g>
		</g>
	</g>
</g>
<g>
	<g>
		<path fill="#9C9D9D" d="M239.749,453.139c-20.283,0.222-46.326,0.582-66.327-0.078c-12.621-0.415-18.911-1.812-23.755-2.583
			c0.754-2.38,2.976-6.423,9.389-6.159c3.597,0.148,9.625-1.27,15.845-3.514c12.09-4.366,25.258-16.844,25.258-16.844
			s0,0,5.978,3.619c10.573,6.399,30.986,2.246,34.706-0.804c3.718-3.05,9.546-2.815,9.546-2.815l0.254,9.72
			c0,0,4.713,6.969,2.723,19.338L239.749,453.139z"/>
		<g>
			<g>
				<path fill="#9C9D9D" d="M253.365,453.019l-13.617,0.12c-2.521,0.026-5.132,0.057-7.809,0.086
					c-0.007-0.157-0.02-0.302-0.024-0.464c-0.558-16.097,18.727-19.08,18.727-19.08S255.356,440.649,253.365,453.019z"/>
				<path fill="#9C9D9D" d="M190.599,453.225c-8.449-0.022-9.779-0.164-17.177-0.164c-15.779,0-23.755-2.583-23.755-2.583
					c0.754-2.38,2.976-6.423,9.389-6.159c0,0-0.444,3.686,7.488,3.868c1.74,0.04,12.184,0.01,14.363,0.01
					C187.26,448.196,190.599,450.839,190.599,453.225z"/>
			</g>
			<g>
				<path fill="#9C9D9D" d="M207.718,428.418c-0.541-0.257-1.071-0.53-1.58-0.838c-5.978-3.619-5.978-3.619-5.978-3.619
					s-8.438,12.705-21.321,18.051c-2.108,0.874-8.693,0.691-14.465,1.773c17.457-4.137,30.925-15.995,34.977-23.114
					c0.823-1.447,4.059-1.219,4.516-0.74C206.284,422.474,207.718,428.418,207.718,428.418L207.718,428.418z"/>
				<path fill="#9C9D9D" d="M250.717,433.959c-8.405,1.793-12.919-3.599-9.874-7.183c3.045-3.585,7.636-4.116,9.546-2.609
					C252.272,425.653,250.717,433.959,250.717,433.959z"/>
			</g>
		</g>
		<g>
			<path fill="#9C9D9D" d="M149.149,450.392l-1.281,6.032c0,0,7.131,2.416,25.182,3.072c23.301,0.847,52.937-0.219,81.318-0.219
				l-0.162-6.27c-20.19,0-54.143,0.933-80.784,0.053C155.685,452.477,149.149,450.392,149.149,450.392z"/>
			<path fill="#9C9D9D" d="M196.947,434.412c0.572,0.492,1.474,0.469,2.013-0.051l0,0c0.541-0.522,0.516-1.343-0.056-1.836
				l-5.254-4.527c-0.572-0.493-1.473-0.471-2.013,0.05l0,0c-0.541,0.521-0.516,1.344,0.056,1.836L196.947,434.412z"/>
			<path fill="#9C9D9D" d="M191.555,437.293c0.571,0.492,1.472,0.47,2.013-0.052l0,0c0.54-0.521,0.516-1.342-0.055-1.836
				l-4.641-4.059c-0.572-0.493-1.473-0.469-2.014,0.05l0,0c-0.541,0.521-0.515,1.344,0.056,1.836L191.555,437.293z"/>
			<path fill="#9C9D9D" d="M186.162,440.173c0.571,0.493,1.473,0.47,2.014-0.052l0,0c0.541-0.52,0.516-1.341-0.055-1.834
				l-4.362-3.889c-0.572-0.492-1.473-0.469-2.013,0.051l0,0c-0.541,0.521-0.516,1.344,0.057,1.835L186.162,440.173z"/>
			<path fill="#9C9D9D" d="M180.769,443.055c0.572,0.492,1.473,0.469,2.014-0.052l0,0c0.541-0.52,0.515-1.341-0.057-1.837
				l-4.547-3.889c-0.571-0.493-1.473-0.472-2.013,0.052l0,0c-0.541,0.52-0.516,1.342,0.056,1.835L180.769,443.055z"/>
			<path fill="#9C9D9D" d="M173.782,445.434c0.571,0.494,1.474,0.47,2.013-0.052l0,0c0.541-0.52,0.516-1.342-0.056-1.834
				l-3.881-3.346c-0.572-0.492-1.474-0.471-2.015,0.051l0,0c-0.541,0.521-0.514,1.343,0.057,1.837L173.782,445.434z"/>
			<path fill="#9C9D9D" d="M167.274,446.616c0.571,0.492,1.473,0.471,2.014-0.051l0,0c0.54-0.522,0.515-1.343-0.056-1.836
				l-3.371-3.006c-0.572-0.49-1.474-0.468-2.013,0.052l0,0c-0.541,0.522-0.516,1.343,0.055,1.835L167.274,446.616z"/>
			<g>
				<path fill="#9C9D9D" d="M218.897,446.2l-10.431-9.762l6.046,0.712l9.617,8.998C222.405,446.167,220.658,446.183,218.897,446.2z"
					/>
				<path fill="#9C9D9D" d="M205.582,440.089l9.672,9.076c-1.746,0.013-3.499,0.022-5.255,0.031l-10.204-9.577L205.582,440.089z"/>
			</g>
		</g>
	</g>
</g>
<path fill="#9C9D9D" d="M182.941,267.718c0,12.22-41.274,12.22-41.274,0v-35.85c0-12.219,7.979-22.216,17.732-22.216h5.808
	c9.753,0,17.734,9.997,17.734,22.216V267.718z"/>
<path fill="#9C9D9D" d="M370.266,267.718c0,12.22-41.276,12.22-41.276,0v-35.85c0-12.219,7.981-22.216,17.732-22.216h5.809
	c9.753,0,17.735,9.997,17.735,22.216V267.718z"/>
<path fill="#9C9D9D" d="M300.774,413.076L300.774,413.076c-12.673-9.865-14.95-28.136-5.082-40.809l76.843-98.716
	c9.866-12.673,28.137-14.95,40.809-5.084h0.001c12.674,9.864,14.95,28.137,5.084,40.811l-76.843,98.714
	C331.72,420.666,313.448,422.942,300.774,413.076z"/>
<path fill="#9C9D9D" d="M292.507,377.358c-5.931,12.104-2.79,27.111,8.267,35.718l0,0c11.061,8.607,26.38,7.972,36.658-0.749
	L292.507,377.358z"/>
<path fill="#9C9D9D" d="M421.613,304.188c5.929-12.104,2.787-27.112-8.269-35.72h-0.001c-11.058-8.608-26.376-7.972-36.655,0.749
	L421.613,304.188z"/>
<g>
	<path fill="#BFBFC0" d="M375.496,286.871l-5.083-3.956c-0.888-0.691-1.048-1.974-0.357-2.863l5.758-7.394
		c0.694-0.888,1.975-1.049,2.863-0.357l5.082,3.957c0.888,0.692,1.048,1.974,0.356,2.86l-5.758,7.396
		C377.665,287.402,376.387,287.563,375.496,286.871z"/>
	<path fill="#BFBFC0" d="M409.87,313.63l-5.08-3.956c-0.89-0.691-1.049-1.973-0.356-2.861l5.756-7.396
		c0.692-0.888,1.972-1.048,2.861-0.356l5.081,3.957c0.889,0.69,1.05,1.972,0.356,2.86l-5.756,7.396
		C412.04,314.163,410.761,314.322,409.87,313.63z"/>
	<path fill="#BFBFC0" d="M391.647,303.956l-7.258-5.651c-0.466-0.361-0.549-1.033-0.188-1.499l8.335-10.705
		c0.362-0.466,1.034-0.549,1.499-0.188l7.258,5.652c0.465,0.361,0.551,1.031,0.188,1.5l-8.335,10.704
		C392.783,304.234,392.112,304.318,391.647,303.956z"/>
	
		<rect x="408.241" y="299.621" transform="matrix(-0.789 -0.6144 0.6144 -0.789 547.8613 800.8573)" fill="#BFBFC0" width="6.44" height="13.449"/>
	
		<rect x="373.866" y="272.861" transform="matrix(-0.789 -0.6144 0.6144 -0.789 502.8512 731.8535)" fill="#BFBFC0" width="6.441" height="13.45"/>
	<polygon fill="#BFBFC0" points="392.769,287.838 392.894,286.928 393.744,286.582 394.468,287.146 394.342,288.056 393.49,288.402 
			"/>
	<polygon fill="#BFBFC0" points="385.027,297.779 385.153,296.872 386.004,296.527 386.728,297.09 386.602,297.999 385.751,298.345 
			"/>
	<polygon fill="#BFBFC0" points="391.237,302.615 391.362,301.705 392.214,301.359 392.937,301.923 392.811,302.832 
		391.959,303.179 	"/>
	<polygon fill="#BFBFC0" points="398.977,292.671 399.103,291.762 399.955,291.417 400.678,291.98 400.552,292.89 399.699,293.235 	
		"/>
	<path fill="#BFBFC0" d="M408.106,302.163l-26.107-20.325l-1.591,2.043c3.038,5.427,5.026,8.972,7.044,11.482
		c-0.554,1.635-0.055,3.507,1.38,4.627c1.438,1.119,3.378,1.141,4.824,0.201c2.93,1.341,6.855,2.397,12.86,4.014L408.106,302.163z"
		/>
	<polygon fill="#BFBFC0" points="389.731,297.476 389.958,295.839 391.489,295.218 392.791,296.232 392.567,297.869 
		391.033,298.491 	"/>
</g>
<g>
	<path fill="#BFBFC0" d="M338.635,394.656l5.082,3.956c0.89,0.693,1.049,1.974,0.356,2.862l-5.756,7.394
		c-0.691,0.89-1.973,1.049-2.862,0.357l-5.081-3.955c-0.89-0.692-1.049-1.976-0.357-2.862l5.757-7.396
		C336.465,394.124,337.746,393.964,338.635,394.656z"/>
	<path fill="#BFBFC0" d="M304.261,367.898l5.082,3.957c0.887,0.689,1.048,1.972,0.355,2.86l-5.755,7.395
		c-0.691,0.89-1.974,1.05-2.863,0.357l-5.082-3.957c-0.888-0.69-1.047-1.974-0.356-2.862l5.756-7.394
		C302.09,367.366,303.37,367.207,304.261,367.898z"/>
	<path fill="#BFBFC0" d="M322.484,377.572l7.259,5.651c0.465,0.361,0.55,1.033,0.187,1.499l-8.332,10.705
		c-0.364,0.464-1.033,0.549-1.501,0.185l-7.258-5.648c-0.465-0.362-0.549-1.034-0.186-1.5l8.333-10.704
		C321.347,377.294,322.019,377.212,322.484,377.572z"/>
	
		<rect x="299.45" y="368.458" transform="matrix(0.789 0.6144 -0.6144 0.789 294.3534 -106.7948)" fill="#BFBFC0" width="6.441" height="13.45"/>
	
		<rect x="333.826" y="395.216" transform="matrix(0.7891 0.6142 -0.6142 0.7891 317.9679 -122.2651)" fill="#BFBFC0" width="6.439" height="13.45"/>
	<polygon fill="#BFBFC0" points="321.365,393.689 321.239,394.599 320.389,394.944 319.664,394.381 319.789,393.472 320.64,393.126 
			"/>
	<polygon fill="#BFBFC0" points="329.104,383.748 328.979,384.656 328.127,385.001 327.402,384.438 327.53,383.529 328.381,383.183 
			"/>
	<polygon fill="#BFBFC0" points="322.895,378.915 322.77,379.821 321.918,380.166 321.194,379.604 321.321,378.694 322.17,378.351 	
		"/>
	<polygon fill="#BFBFC0" points="315.156,388.855 315.029,389.766 314.179,390.111 313.455,389.547 313.579,388.637 
		314.431,388.291 	"/>
	<path fill="#BFBFC0" d="M306.026,379.364l26.109,20.323l1.589-2.042c-3.04-5.426-5.025-8.97-7.045-11.481
		c0.555-1.633,0.059-3.508-1.38-4.625c-1.437-1.12-3.376-1.145-4.823-0.203c-2.929-1.342-6.853-2.397-12.86-4.014L306.026,379.364z"
		/>
	<polygon fill="#BFBFC0" points="324.401,384.053 324.174,385.688 322.644,386.312 321.339,385.295 321.567,383.659 
		323.098,383.037 	"/>
</g>
</svg>
