<?xml version="1.0" encoding="utf-8"?>
<!-- Generator: Adobe Illustrator 16.0.1, SVG Export Plug-In . SVG Version: 6.00 Build 0)  -->
<!DOCTYPE svg PUBLIC "-//W3C//DTD SVG 1.1//EN" "http://www.w3.org/Graphics/SVG/1.1/DTD/svg11.dtd">
<svg version="1.1" id="Layer_1" xmlns="http://www.w3.org/2000/svg" xmlns:xlink="http://www.w3.org/1999/xlink" x="0px" y="0px"
	 width="500px" height="500px" viewBox="0 0 500 500" enable-background="new 0 0 500 500" xml:space="preserve">
<g id="avatar">
</g>
<g id="robot">
	<g>
		<path fill="#F7F7F7" d="M80.948,192.004l-0.957,0.453v86.936l6.628-0.023l7.765,11.323h117.104
			c11.145,0,14.433-5.203,17.069-13.041c4.334-12.881,10.652-30.894,23.59-30.894c12.936,0,19.254,18.013,23.59,30.894
			c2.637,7.836,5.919,13.041,17.063,13.041h117.104l7.767-11.323l6.634,0.023l-0.01-86.936l-1.37-0.651L80.948,192.004z
			 M207.768,266.521c0,6.062-4.474,10.971-10.002,10.971h-84.575c-5.523,0-10-4.907-10-10.971v-51.85c0-6.061,4.475-10.97,10-10.97
			h84.575c5.526,0,10.002,4.909,10.002,10.97V266.521z M401.091,266.521c0,6.056-4.474,10.971-9.994,10.971h-84.581
			c-5.523,0-9.998-4.915-9.998-10.971v-51.85c0-6.061,4.473-10.97,9.998-10.97h84.581c5.521,0,9.994,4.909,9.994,10.97V266.521z"/>
		<path fill="#F0F0F0" d="M79.99,192.456v87.943l6.628-0.026l7.765,11.324h117.104c11.145,0,14.433-5.204,17.069-13.04
			c4.334-12.879,10.652-30.89,23.59-30.89c12.936,0,19.254,18.011,23.59,30.89c2.637,7.836,5.919,13.04,17.063,13.04h117.104
			l7.767-11.324l6.634,0.026v-87.943H79.99z M207.768,267.53c0,6.06-4.474,10.97-10.002,10.97h-84.575c-5.523,0-10-4.909-10-10.97
			v-51.852c0-6.062,4.475-10.971,10-10.971h84.575c5.526,0,10.002,4.909,10.002,10.971V267.53z M401.091,267.53
			c0,6.054-4.474,10.97-9.994,10.97h-84.581c-5.523,0-9.998-4.914-9.998-10.97v-51.852c0-6.062,4.473-10.971,9.998-10.971h84.581
			c5.521,0,9.994,4.909,9.994,10.971V267.53z"/>
		
			<linearGradient id="SVGID_1_" gradientUnits="userSpaceOnUse" x1="103.301" y1="336.8845" x2="207.8782" y2="336.8845" gradientTransform="matrix(1 0 0 1 -0.1104 -95.2812)">
			<stop  offset="0" style="stop-color:#00447F"/>
			<stop  offset="1" style="stop-color:#0090D4"/>
		</linearGradient>
		<path opacity="0.9" fill="url(#SVGID_1_)" enable-background="new    " d="M207.768,215.678v51.852
			c0,6.06-4.474,10.97-10.002,10.97h-84.575c-5.523,0-10-4.909-10-10.97v-51.852c0-6.062,4.475-10.971,10-10.971h84.575
			C203.292,204.708,207.768,209.617,207.768,215.678z"/>
		<g opacity="0.9">
			
				<linearGradient id="SVGID_2_" gradientUnits="userSpaceOnUse" x1="296.6282" y1="336.8845" x2="401.2014" y2="336.8845" gradientTransform="matrix(1 0 0 1 -0.1104 -95.2812)">
				<stop  offset="0" style="stop-color:#D40006"/>
				<stop  offset="1" style="stop-color:#7F0F00"/>
			</linearGradient>
			<path fill="url(#SVGID_2_)" d="M401.091,215.678v51.852c0,6.054-4.474,10.97-9.994,10.97h-84.581
				c-5.523,0-9.998-4.914-9.998-10.97v-51.852c0-6.062,4.473-10.971,9.998-10.971h84.581
				C396.617,204.708,401.091,209.617,401.091,215.678z"/>
		</g>
	</g>
</g>
<rect x="0" y="0" fill="none" width="500" height="500"/>
</svg>
