<?xml version="1.0" encoding="utf-8"?>
<!-- Generator: Adobe Illustrator 16.0.1, SVG Export Plug-In . SVG Version: 6.00 Build 0)  -->
<!DOCTYPE svg PUBLIC "-//W3C//DTD SVG 1.1//EN" "http://www.w3.org/Graphics/SVG/1.1/DTD/svg11.dtd">
<svg version="1.1" id="Layer_1" xmlns="http://www.w3.org/2000/svg" xmlns:xlink="http://www.w3.org/1999/xlink" x="0px" y="0px"
	 width="500px" height="500px" viewBox="0 0 500 500" enable-background="new 0 0 500 500" xml:space="preserve">
<g>
	
		<linearGradient id="SVGID_1_" gradientUnits="userSpaceOnUse" x1="276.0305" y1="248.802" x2="415.7375" y2="248.802" gradientTransform="matrix(1 0 0 -1 -0.0552 499.8589)">
		<stop  offset="0" style="stop-color:#171513"/>
		<stop  offset="1" style="stop-color:#4F4E4E"/>
	</linearGradient>
	<path fill="url(#SVGID_1_)" d="M345.897,314.758c1.163-0.74,2.573-1.912,3.287-2.51c22.712-18.907,57.42-50.436,65.001-79.805
		c3.933-15.214,0.406-32.902-14.016-41.306c-15.178-8.84-31.739-0.855-43.113,10.328l-11.228,11.036l-11.228-11.036
		c-11.374-11.179-27.938-19.167-43.113-10.328c-14.419,8.4-17.945,26.091-14.019,41.306c7.845,30.371,41.12,60.264,64.893,79.719
		C343.121,312.771,344.66,314.008,345.897,314.758z"/>
	
		<linearGradient id="SVGID_2_" gradientUnits="userSpaceOnUse" x1="83.572" y1="248.8" x2="224.2322" y2="248.8" gradientTransform="matrix(1 0 0 -1 -0.0552 499.8589)">
		<stop  offset="0" style="stop-color:#171513"/>
		<stop  offset="1" style="stop-color:#4F4E4E"/>
	</linearGradient>
	<path fill="url(#SVGID_2_)" d="M153.914,315.195c1.168-0.754,2.591-1.928,3.314-2.525c22.861-19.043,57.805-50.785,65.443-80.355
		c3.957-15.315,0.41-33.123-14.108-41.583c-15.283-8.902-31.958-0.86-43.41,10.397l-11.305,11.111l-11.305-11.111
		c-11.452-11.257-28.13-19.299-43.41-10.397c-14.515,8.463-18.068,26.268-14.111,41.583c7.901,30.58,41.393,60.68,65.338,80.263
		C151.116,313.195,152.665,314.438,153.914,315.195z"/>
	<path fill="#EB3D00" d="M426.237,213.751c8.515,0.257,12.845,3.362,14.001,6.508c-1.142,3.592-5.483,6.754-15.301,8.861
		L426.237,213.751z"/>
	<g>
		<path fill="#EB3D00" d="M263.989,236.803c-12.946-50.13,39.133-87.273,81.843-45.289c42.707-41.981,94.795-4.841,81.84,45.289
			c-8.367,32.404-42.641,64.394-68.565,85.979c-9.924,8.269-15.569,8.979-26.552,0C303.651,299.138,272.362,269.207,263.989,236.803
			L263.989,236.803z M345.894,313.222c1.136-0.727,2.508-1.871,3.213-2.451c22.162-18.453,56.029-49.225,63.432-77.88
			c3.84-14.85,0.395-32.11-13.678-40.308c-14.811-8.627-30.975-0.837-42.073,10.074l-10.956,10.771l-10.955-10.771
			c-11.099-10.914-27.264-18.704-42.074-10.074c-14.072,8.197-17.515,25.458-13.678,40.308c7.653,29.636,40.119,58.812,63.327,77.79
			C343.181,311.286,344.687,312.49,345.894,313.222z"/>
	</g>
	<g>
		<path fill="#EB3D00" d="M72.005,236.803c-12.949-50.13,39.133-87.273,81.84-45.289c42.71-41.981,94.789-4.841,81.84,45.289
			c-8.368,32.404-42.639,64.394-68.563,85.979c-9.93,8.269-15.569,8.979-26.555,0C111.664,299.138,80.375,269.207,72.005,236.803
			L72.005,236.803z M153.911,313.222c1.132-0.727,2.51-1.871,3.209-2.451c22.162-18.453,56.029-49.225,63.432-77.88
			c3.837-14.85,0.395-32.11-13.678-40.308c-14.808-8.627-30.972-0.837-42.071,10.074l-10.958,10.771l-10.958-10.771
			c-11.096-10.914-27.26-18.704-42.073-10.074c-14.073,8.197-17.515,25.458-13.681,40.308c7.653,29.636,40.122,58.812,63.327,77.79
			C151.203,311.286,152.7,312.49,153.911,313.222z"/>
	</g>
	<path fill="#EB3D00" d="M232.569,229.284l0.263-0.098l-0.358-3l0.358-0.128l-0.263-2.188c13.179-4.854,26.244-4.854,39.42,0
		l-0.264,2.188l0.359,0.128l-0.359,3l0.264,0.098l-0.998,8.386c-13.062-5.152-24.359-5.152-37.421,0L232.569,229.284z"/>
	<path opacity="0.5" fill="#FFA080" enable-background="new    " d="M127.514,179.277c8.723,2.244,17.73,7.292,26.331,15.746
		c37.528-37.232,83.621-12.124,80.762,29.953c-2.06-40.104-45.807-61.588-80.762-24.801
		C146.565,190.498,136.626,184.27,127.514,179.277z"/>
	<path fill="#EB3D00" d="M76.021,213.751c-8.311,0.251-12.635,3.215-13.914,6.284c1.061,3.64,5.346,6.847,15.205,8.989
		L76.021,213.751z"/>
	<path opacity="0.5" fill="#FFA080" enable-background="new    " d="M319.5,179.277c8.724,2.244,17.728,7.292,26.328,15.746
		c37.531-37.232,83.624-12.124,80.765,29.953c-2.065-40.104-45.81-61.588-80.765-24.801
		C338.552,190.498,328.61,184.27,319.5,179.277z"/>
</g>
<rect x="0" y="0" fill="none" width="500" height="500"/>
</svg>
