<?xml version="1.0" encoding="utf-8"?>
<!-- Generator: Adobe Illustrator 16.0.1, SVG Export Plug-In . SVG Version: 6.00 Build 0)  -->
<!DOCTYPE svg PUBLIC "-//W3C//DTD SVG 1.1//EN" "http://www.w3.org/Graphics/SVG/1.1/DTD/svg11.dtd">
<svg version="1.1" id="Layer_1" xmlns="http://www.w3.org/2000/svg" xmlns:xlink="http://www.w3.org/1999/xlink" x="0px" y="0px"
	 width="500px" height="500px" viewBox="0 0 500 500" enable-background="new 0 0 500 500" xml:space="preserve">
<g>
	<linearGradient id="SVGID_1_" gradientUnits="userSpaceOnUse" x1="259.2786" y1="97.0852" x2="304.9329" y2="97.0852">
		<stop  offset="0" style="stop-color:#171513"/>
		<stop  offset="1" style="stop-color:#4F4E4E"/>
	</linearGradient>
	<path fill-rule="evenodd" clip-rule="evenodd" fill="url(#SVGID_1_)" d="M282.127,117.902c0.38-0.242,0.841-0.625,1.074-0.82
		c7.422-6.179,18.764-16.482,21.242-26.079c1.285-4.972,0.132-10.752-4.58-13.498c-4.96-2.889-10.373-0.28-14.089,3.375
		l-3.669,3.606l-3.669-3.606c-3.717-3.654-9.13-6.264-14.089-3.375c-4.712,2.745-5.864,8.526-4.581,13.498
		c2.563,9.924,13.437,19.693,21.206,26.05C281.22,117.253,281.723,117.657,282.127,117.902z"/>
	<linearGradient id="SVGID_2_" gradientUnits="userSpaceOnUse" x1="196.3845" y1="97.0857" x2="242.3503" y2="97.0857">
		<stop  offset="0" style="stop-color:#171513"/>
		<stop  offset="1" style="stop-color:#4F4E4E"/>
	</linearGradient>
	<path fill-rule="evenodd" clip-rule="evenodd" fill="url(#SVGID_2_)" d="M219.39,118.045c0.382-0.246,0.847-0.63,1.083-0.826
		c7.471-6.222,18.89-16.595,21.386-26.258c1.293-5.005,0.133-10.825-4.611-13.589c-4.994-2.909-10.443-0.281-14.185,3.397
		l-3.695,3.631l-3.694-3.631c-3.742-3.678-9.192-6.306-14.185-3.397c-4.744,2.765-5.905,8.584-4.612,13.589
		c2.582,9.993,13.527,19.829,21.352,26.228C218.476,117.391,218.982,117.798,219.39,118.045z"/>
	<path fill-rule="evenodd" clip-rule="evenodd" fill="#EB3D00" d="M308.381,84.894c2.782,0.084,4.197,1.099,4.575,2.127
		c-0.373,1.174-1.792,2.207-5,2.896L308.381,84.894z"/>
	<g>
		<path fill-rule="evenodd" clip-rule="evenodd" fill="#EB3D00" d="M255.361,92.427c-4.231-16.381,12.788-28.519,26.745-14.799
			c13.956-13.719,30.977-1.582,26.744,14.799c-2.734,10.589-13.935,21.043-22.406,28.097c-3.244,2.702-5.088,2.935-8.677,0
			C268.322,112.798,258.097,103.016,255.361,92.427L255.361,92.427z M282.126,117.4c0.371-0.237,0.82-0.611,1.05-0.801
			c7.242-6.03,18.31-16.086,20.729-25.45c1.254-4.852,0.128-10.493-4.47-13.172c-4.84-2.819-10.122-0.273-13.749,3.292l-3.58,3.52
			l-3.58-3.52c-3.627-3.566-8.91-6.112-13.749-3.292c-4.599,2.679-5.724,8.32-4.47,13.172c2.501,9.685,13.11,19.219,20.694,25.421
			C281.24,116.767,281.732,117.161,282.126,117.4z"/>
	</g>
	<g>
		<path fill-rule="evenodd" clip-rule="evenodd" fill="#EB3D00" d="M192.623,92.427c-4.231-16.381,12.788-28.519,26.744-14.799
			c13.957-13.719,30.976-1.582,26.745,14.799c-2.735,10.589-13.934,21.043-22.406,28.097c-3.245,2.702-5.088,2.935-8.677,0
			C205.583,112.798,195.359,103.016,192.623,92.427L192.623,92.427z M219.389,117.4c0.37-0.237,0.82-0.611,1.049-0.801
			c7.242-6.03,18.309-16.086,20.728-25.45c1.254-4.852,0.129-10.493-4.469-13.172c-4.839-2.819-10.122-0.273-13.749,3.292
			l-3.581,3.52l-3.581-3.52c-3.626-3.566-8.908-6.112-13.749-3.292c-4.598,2.679-5.723,8.32-4.47,13.172
			c2.501,9.685,13.111,19.219,20.694,25.421C218.504,116.767,218.993,117.161,219.389,117.4z"/>
	</g>
	<path fill-rule="evenodd" clip-rule="evenodd" fill="#EB3D00" d="M245.093,89.97l0.086-0.032l-0.117-0.98l0.117-0.042l-0.086-0.715
		c4.307-1.586,8.576-1.586,12.882,0l-0.086,0.715l0.117,0.042l-0.117,0.98l0.086,0.032l-0.326,2.741
		c-4.269-1.684-7.96-1.684-12.229,0L245.093,89.97z"/>
	<path opacity="0.5" fill-rule="evenodd" clip-rule="evenodd" fill="#FFA080" d="M210.763,73.629
		c2.851,0.733,5.794,2.382,8.604,5.145c12.264-12.167,27.327-3.962,26.392,9.788c-0.673-13.105-14.969-20.126-26.392-8.104
		C216.989,77.296,213.74,75.26,210.763,73.629z"/>
	<path fill-rule="evenodd" clip-rule="evenodd" fill="#EB3D00" d="M193.936,84.894c-2.716,0.082-4.129,1.051-4.547,2.054
		c0.347,1.189,1.747,2.237,4.969,2.937L193.936,84.894z"/>
	<path opacity="0.5" fill-rule="evenodd" clip-rule="evenodd" fill="#FFA080" d="M273.501,73.629
		c2.851,0.733,5.793,2.382,8.604,5.145c12.264-12.167,27.327-3.962,26.392,9.788c-0.674-13.105-14.969-20.126-26.392-8.104
		C279.727,77.296,276.478,75.26,273.501,73.629z"/>
</g>
</svg>
