<?xml version="1.0" encoding="utf-8"?>
<!-- Generator: Adobe Illustrator 16.0.1, SVG Export Plug-In . SVG Version: 6.00 Build 0)  -->
<!DOCTYPE svg PUBLIC "-//W3C//DTD SVG 1.1//EN" "http://www.w3.org/Graphics/SVG/1.1/DTD/svg11.dtd">
<svg version="1.1" id="Layer_1" xmlns="http://www.w3.org/2000/svg" xmlns:xlink="http://www.w3.org/1999/xlink" x="0px" y="0px"
	 width="500px" height="500px" viewBox="0 0 500 500" enable-background="new 0 0 500 500" xml:space="preserve">
<g id="avatar">
</g>
<rect x="0" y="0" fill="none" width="500" height="500"/>
<g id="robot">
	<g>
		<path fill="#1D1D1B" d="M70.258,236.803c-2.549,0-4.659-2.104-4.659-4.659c0-2.552,2.11-4.657,4.659-4.657
			c2.549,0,4.662,2.104,4.662,4.657C74.92,234.698,72.898,236.803,70.258,236.803"/>
		<path fill="#1D1D1B" d="M440.64,235.75v-8.182l0,0c0,0,0.615-7.473-8.971-7.473h-14.422c0,0-6.857,0.352-8.177-3.342v0.27
			c-9.761-28.583-36.845-49.331-68.765-49.331c-31.392,0-58.124,19.959-68.235,47.834c-0.265,0.707-0.704,2.113-1.852,2.465
			c-1.14,0.352-2.721-0.535-3.425-0.883c-5.365-2.901-9.761-4.744-16.797-4.744c-6.947,0-11.347,1.671-16.794,4.744
			c-0.704,0.351-2.288,1.142-3.424,0.883c-1.145-0.27-1.586-1.671-1.851-2.465c-10.112-27.875-36.935-47.834-68.413-47.834
			c-31.92,0-59.092,20.663-68.765,49.331v-0.27c-1.319,3.694-8.176,3.342-8.176,3.342H68.331c-9.411,0-8.969,7.473-8.969,7.473
			v8.182c0,0-0.617,7.473,8.969,7.473h5.712c0,0,11.167,0,14.338,11.345v-0.085c6.505,33.502,35.961,58.74,71.314,58.74
			c40.097,0,72.808-32.537,72.808-72.811c0-8.348,6.775-15.126,17.588-15.126c10.728,0,17.585,6.775,17.585,15.126
			c0,40.277,32.533,72.811,72.811,72.811c35.35,0,64.809-25.329,71.401-58.74v0.085c3.074-11.345,14.335-11.345,14.335-11.345h5.717
			C441.255,243.223,440.64,235.75,440.64,235.75z M159.864,293.877c-29.458,0-53.29-23.831-53.29-53.29
			c0-29.461,23.832-53.29,53.29-53.29c29.461,0,53.29,23.744,53.29,53.2C213.153,269.953,189.322,293.877,159.864,293.877z
			 M340.396,293.877c-29.459,0-53.289-23.831-53.289-53.29c0-29.461,23.83-53.29,53.289-53.29c29.456,0,53.29,23.829,53.29,53.29
			C393.683,270.046,369.852,293.877,340.396,293.877z"/>
		<path fill="#1D1D1B" d="M429.913,236.803c-2.558,0-4.661-2.104-4.661-4.659c0-2.552,2.104-4.657,4.661-4.657
			c2.55,0,4.66,2.104,4.66,4.657C434.573,234.698,432.376,236.803,429.913,236.803"/>
		<path fill="#FFFFFF" d="M70.258,236.803c-2.549,0-4.659-2.104-4.659-4.659c0-2.552,2.11-4.657,4.659-4.657
			c2.549,0,4.662,2.104,4.662,4.657C74.92,234.698,72.898,236.803,70.258,236.803"/>
		<path fill="#FFFFFF" d="M429.913,236.803c-2.558,0-4.661-2.104-4.661-4.659c0-2.552,2.104-4.657,4.661-4.657
			c2.55,0,4.66,2.104,4.66,4.657C434.573,234.698,432.376,236.803,429.913,236.803"/>
	</g>
</g>
<path opacity="0.5" fill="#A8A8A7" enable-background="new    " d="M398.919,221.539c-1.198,0-2.322-0.754-2.726-1.95
	c-8.012-23.457-29.978-39.219-54.664-39.219c-1.592,0-2.881-1.292-2.881-2.881s1.289-2.881,2.881-2.881
	c27.152,0,51.309,17.329,60.113,43.119c0.517,1.508-0.29,3.146-1.795,3.66C399.54,221.491,399.229,221.539,398.919,221.539z"/>
<path opacity="0.5" fill="#A8A8A7" enable-background="new    " d="M216.982,221.539c-1.198,0-2.318-0.754-2.726-1.95
	c-8.008-23.457-29.974-39.219-54.66-39.219c-1.593,0-2.881-1.292-2.881-2.881s1.288-2.881,2.881-2.881
	c27.149,0,51.307,17.329,60.113,43.119c0.515,1.508-0.292,3.146-1.795,3.66C217.601,221.491,217.292,221.539,216.982,221.539z"/>
</svg>
