<?xml version="1.0" encoding="utf-8"?>
<!-- Generator: Adobe Illustrator 16.0.1, SVG Export Plug-In . SVG Version: 6.00 Build 0)  -->
<!DOCTYPE svg PUBLIC "-//W3C//DTD SVG 1.1//EN" "http://www.w3.org/Graphics/SVG/1.1/DTD/svg11.dtd">
<svg version="1.1" id="Layer_1" xmlns="http://www.w3.org/2000/svg" xmlns:xlink="http://www.w3.org/1999/xlink" x="0px" y="0px"
	 width="500px" height="500px" viewBox="0 0 500 500" enable-background="new 0 0 500 500" xml:space="preserve">
<g id="avatar">
</g>
<g id="robot">
	<g>
		<rect x="163.141" y="86.333" fill="#6E6E6E" width="7.431" height="14.618"/>
		<rect x="329.426" y="86.333" fill="#6E6E6E" width="7.431" height="14.618"/>
		<g>
			<linearGradient id="SVGID_1_" gradientUnits="userSpaceOnUse" x1="172.1643" y1="93.9705" x2="328.7542" y2="93.9705">
				<stop  offset="0" style="stop-color:#171513"/>
				<stop  offset="1" style="stop-color:#4F4E4E"/>
			</linearGradient>
			<path opacity="0.85" fill="url(#SVGID_1_)" d="M307.526,122.444c-17.716,7.16-27.279,8.608-36.84-4.113
				c-9.561-12.72-18.264-13.024-19.703-13.024c-1.438,0-11.188,0.305-20.751,13.024c-9.562,12.722-19.123,11.273-36.841,4.113
				c-17.716-7.159-21.227-18.433-21.227-32.906c0-15.387,4.386-22.929,23.597-26.129c22.102-4.114,55.223-3.274,55.223-3.274
				s32.07-0.84,54.177,3.274c19.209,3.201,23.594,10.743,23.594,26.129C328.752,104.01,325.244,115.285,307.526,122.444z"/>
			<path opacity="0.12" fill="#CF6600" enable-background="new    " d="M181.498,80.075c-0.016,0.038-0.021,0.059-0.021,0.059
				C181.483,80.113,181.491,80.095,181.498,80.075z"/>
			<path opacity="0.12" fill="#CF6600" enable-background="new    " d="M321.09,80.075c0.007,0.021,0.017,0.039,0.02,0.059
				C321.113,80.135,321.104,80.112,321.09,80.075z"/>
			<path opacity="0.3" fill="#495860" enable-background="new    " d="M251.363,61.217c0,0-66.687-6.66-75.862,18.859
				c0.439-1.042,7.937-16.009,75.862-14.622c67.926-1.387,75.425,13.579,75.862,14.622C318.05,54.556,251.363,61.217,251.363,61.217
				z"/>
			<path fill="#EFEFEF" d="M323.735,65.003c-9.623-5.258-28.96-10.396-73.601-10.396c-44.637,0-63.328,5.136-72.95,10.396
				c-9.625,5.264-7.616,18.829-6.612,35.949c1.005,17.122,13.895,22.902,28.121,32.168c14.227,9.267,25.942,6.522,34.479-5.04
				c8.536-11.56,17.791-10.896,17.791-10.896s8.251-0.668,16.787,10.896c8.535,11.562,20.252,14.307,34.479,5.04
				c14.227-9.266,27.116-15.046,28.12-32.168C331.351,83.83,333.357,70.266,323.735,65.003z M304.171,120.77
				c-16.675,6.74-25.675,8.101-34.675-3.868c-9-11.977-15.279-12.261-18.545-12.261c-3.265,0-10.531,0.288-19.533,12.261
				c-9,11.973-17.997,10.61-34.676,3.868c-16.676-6.74-19.98-17.352-19.98-30.974c0-14.482,4.129-21.581,22.209-24.593
				c20.805-3.872,51.98-3.086,51.98-3.086s30.187-0.788,50.987,3.086c18.081,3.011,22.212,10.107,22.212,24.593
				C324.151,103.419,320.85,114.031,304.171,120.77z"/>
			<path opacity="0.5" fill="#E6E6E6" enable-background="new    " d="M304.316,120.77c-16.535,6.74-25.676,8.39-34.598-3.583
				c-8.584-11.515-15.356-12.508-18.754-12.546v-0.002c-0.004,0-0.006,0-0.009,0c-0.061,0-0.127,0-0.191,0s-0.133,0-0.193,0
				c-0.003,0-0.006,0-0.008,0v0.002c-3.431,0.036-10.482,0.74-19.141,12.258c-8.999,11.973-17.997,10.607-34.676,3.868
				c-7.729-3.124-12.583-7.08-15.567-11.783c2.733,9.854,22.438,20.748,33.925,20.748c12.457,0,15.518-5.071,20.465-12.073
				c5.877-9.189,13.224-9.936,14.995-9.979v0.004c0,0,0.072-0.006,0.201-0.006c0.128,0,0.2,0.006,0.2,0.006v-0.004
				c1.76,0.043,9.039,0.792,14.861,9.979c4.907,7.002,7.942,12.073,20.291,12.073c11.394,0,30.93-10.895,33.637-20.748
				C316.789,113.689,311.979,117.646,304.316,120.77z"/>
			<path opacity="0.7" fill="#E6E6E6" enable-background="new    " d="M323.735,65.003c-9.623-5.258-28.96-10.396-73.601-10.396
				c-44.637,0-63.328,5.136-72.95,10.396c-3.636,1.989-5.609,5.167-6.605,9.27c6.11-6.848,24.581-16.461,80.137-16.461
				c53.562,0,72.651,8.939,79.43,15.714C329.092,69.783,327.146,66.869,323.735,65.003z"/>
			<path fill="#6E6E6E" d="M250.463,112.941c-7.827,0-15.228,12.581-15.228,12.581h0.007c7.895-8.896,15.717-8.338,15.717-8.338
				s6.971-0.558,14.723,8.328C265.536,125.259,258.209,112.941,250.463,112.941z"/>
		</g>
	</g>
</g>
</svg>
