<?xml version="1.0" encoding="utf-8"?>
<!-- Generator: Adobe Illustrator 16.0.1, SVG Export Plug-In . SVG Version: 6.00 Build 0)  -->
<!DOCTYPE svg PUBLIC "-//W3C//DTD SVG 1.1//EN" "http://www.w3.org/Graphics/SVG/1.1/DTD/svg11.dtd">
<svg version="1.1" xmlns="http://www.w3.org/2000/svg" xmlns:xlink="http://www.w3.org/1999/xlink" x="0px" y="0px" width="500px"
	 height="500px" viewBox="0 0 500 500" enable-background="new 0 0 500 500" xml:space="preserve">
<g id="avatar">
</g>
<g id="robot">
	<path fill="#1D1D1B" d="M332.002,76.465c-0.859-1.106-18.559-4.794-38.716-5.408c-20.157-0.615-26.427,3.932-42.526,3.932
		c-16.102,0-22.37-4.547-42.527-3.932c-20.157,0.613-37.855,4.301-38.717,5.408c-0.86,1.105-1.598,16.1-0.736,18.189
		c0.859,2.089,2.09,1.353,2.459,2.582c0.367,1.229,5.037,24.337,11.061,28.638c6.022,4.302,7.743,5.407,22.616,5.407
		c14.872,0,24.335-4.302,27.163-8.111c2.826-3.81,7.426-10.013,11.43-23.845c1.352-4.671,2.827-11.922,4.056-12.414
		c1.229-0.493,0.86-0.614,3.196-0.614c2.335,0,1.967,0.121,3.195,0.614c1.229,0.492,2.704,7.743,4.057,12.414
		c4.004,13.832,8.603,20.035,11.431,23.845c2.827,3.81,12.29,8.111,27.162,8.111s16.592-1.105,22.614-5.407
		c6.023-4.301,10.694-27.409,11.063-28.638c0.368-1.229,1.598-0.492,2.457-2.582C333.601,92.565,332.862,77.57,332.002,76.465z
		 M237.854,103.259c-2.335,7.005-6.146,14.134-10.324,18.066c-4.179,3.934-13.889,5.533-20.649,5.533
		c-6.759,0-16.346-0.615-19.909-3.443c-3.565-2.825-6.024-9.217-7.375-14.994c-1.353-5.776-1.723-13.397,0-21.141
		c1.719-7.743,19.91-9.587,29.981-9.587c21.134,0,28.276,4.672,30.12,7.989C241.542,89.001,240.189,96.252,237.854,103.259z
		 M321.925,108.421c-1.353,5.777-3.812,12.169-7.375,14.994c-3.565,2.828-13.151,3.443-19.912,3.443
		c-6.759,0-16.471-1.599-20.649-5.533c-4.179-3.932-7.988-11.062-10.323-18.066c-2.336-7.007-3.688-14.258-1.843-17.577
		c1.843-3.317,8.986-7.989,30.119-7.989c10.071,0,28.262,1.844,29.983,9.587C323.645,95.023,323.275,102.645,321.925,108.421z"/>
</g>
</svg>
