<?xml version="1.0" encoding="utf-8"?>
<!-- Generator: Adobe Illustrator 16.0.1, SVG Export Plug-In . SVG Version: 6.00 Build 0)  -->
<!DOCTYPE svg PUBLIC "-//W3C//DTD SVG 1.1//EN" "http://www.w3.org/Graphics/SVG/1.1/DTD/svg11.dtd">
<svg version="1.1" id="Layer_1" xmlns="http://www.w3.org/2000/svg" xmlns:xlink="http://www.w3.org/1999/xlink" x="0px" y="0px"
	 width="500px" height="500px" viewBox="0 0 500 500" enable-background="new 0 0 500 500" xml:space="preserve">
<g id="avatar">
</g>
<rect x="0" y="0" fill="none" width="500" height="500"/>
<g id="robot">
	<g>
		<path fill="#4B5055" d="M224.757,74.427c-5.434,0-19.263,6.755-32.986,12.234c-2.441,0.975-4.043,3.339-4.043,5.966v11.486
			c0,2.76,1.762,5.208,4.378,6.087c13.613,4.576,27.262,8.658,32.651,8.658c12.269,0,22.216-9.944,22.216-22.216
			S237.027,74.427,224.757,74.427z"/>
		<path opacity="0.8" fill="#00AADC" enable-background="new    " d="M224.757,78.659c-2.7,0-5.261,0.595-7.557,1.66
			c-4.101,1.902-8.312,3.772-12.474,5.538c-2.955,1.253-8.089,2.532-12.362,3.772c-2.745,0.797-4.634,3.305-4.634,6.167v5.251
			c0,2.787,1.801,5.256,4.453,6.111c15.784,5.091,25.554,6.802,30.076,7.295c0.668,0.092,1.347,0.147,2.036,0.165
			c0.159,0.006,0.298,0.011,0.417,0.011c0.016,0,0.03,0.001,0.046,0.001c9.932,0,17.986-8.053,17.986-17.987
			C242.743,86.71,234.69,78.659,224.757,78.659z"/>
		<path fill="#FFC855" d="M192.511,90.253h-2.206c-2.056,0-3.725,1.667-3.725,3.725v7.008c0,2.058,1.668,3.726,3.725,3.726h2.206
			c2.057,0,3.725-1.667,3.725-3.726v-7.008C196.235,91.92,194.568,90.253,192.511,90.253z"/>
		<path fill="#4B5055" d="M187.461,91.618h-0.175c-1.487,0-2.691,1.204-2.691,2.692v6.348c0,1.484,1.206,2.689,2.691,2.689h0.175
			c1.485,0,2.689-1.206,2.689-2.689V94.31C190.151,92.823,188.947,91.618,187.461,91.618z"/>
		<path fill="#32373C" d="M309.934,86.66c-13.723-5.479-27.552-12.234-32.983-12.234c-12.271,0-22.218,9.947-22.218,22.217
			c0,12.271,9.946,22.216,22.218,22.216c5.388,0,19.038-4.081,32.651-8.658c2.616-0.879,4.375-3.327,4.375-6.087V92.627
			C313.977,89.999,312.374,87.636,309.934,86.66z"/>
		<path opacity="0.8" fill="#00AADC" enable-background="new    " d="M309.342,89.629c-4.273-1.24-9.408-2.519-12.363-3.772
			c0,0-0.001,0-0.002,0c-4.157-1.765-8.373-3.635-12.47-5.538c-2.298-1.067-4.858-1.66-7.558-1.66
			c-9.934,0-17.985,8.051-17.985,17.984c0,9.932,8.052,17.986,17.985,17.986c0.016,0,0.029,0,0.048,0
			c0.117,0,0.255-0.006,0.417-0.012c0.686-0.018,1.367-0.072,2.034-0.165c4.521-0.492,14.292-2.203,30.076-7.295
			c2.652-0.855,4.452-3.323,4.452-6.111v-5.252C313.977,92.934,312.088,90.426,309.342,89.629z"/>
		<path opacity="0.8" fill="#FFA032" enable-background="new    " d="M311.401,90.253h-2.206c-2.058,0-3.722,1.667-3.722,3.725
			v7.008c0,2.058,1.666,3.726,3.722,3.726h2.206c2.056,0,3.725-1.667,3.725-3.726v-7.008
			C315.125,91.92,313.456,90.253,311.401,90.253z"/>
		<path fill="#32373C" d="M314.419,91.618h-0.177c-1.484,0-2.688,1.204-2.688,2.692v6.348c0,1.484,1.204,2.689,2.688,2.689h0.177
			c1.485,0,2.689-1.206,2.689-2.689V94.31C317.109,92.823,315.905,91.618,314.419,91.618z"/>
		<path fill="#FFC855" d="M257.068,93.647h-12.43c-1.485,0-2.69,1.204-2.69,2.689v0.618c0,1.484,1.205,2.688,2.69,2.688h12.43
			c1.485,0,2.688-1.204,2.688-2.688v-0.618C259.756,94.851,258.553,93.647,257.068,93.647z"/>
		<path fill="#FFA032" d="M257.068,93.647h-6.216v5.997h6.216c1.485,0,2.688-1.204,2.688-2.689v-0.618
			C259.756,94.851,258.553,93.647,257.068,93.647z"/>
		<path opacity="0.25" fill="#F0F0F0" enable-background="new    " d="M242.617,94.557c-0.476-4.116-2.337-7.809-5.11-10.597
			l-21.828,21.828c-0.998,0.999-2.416,1.457-3.811,1.228c-1.394-0.228-2.593-1.111-3.223-2.375
			c-1.199-2.409-1.874-5.123-1.874-7.997c0-4.19,1.434-8.046,3.837-11.104c0.216-0.277,0.175-0.678-0.097-0.904
			s-0.672-0.195-0.908,0.068c-2.82,3.173-4.535,7.355-4.535,11.941c0,9.933,8.052,17.987,17.985,17.987
			c0.285,0,0.568-0.01,0.851-0.022c-0.224-0.01-0.421-0.152-0.503-0.36c-0.08-0.211-0.031-0.448,0.129-0.606L242.617,94.557z"/>
		<path opacity="0.25" fill="#F0F0F0" enable-background="new    " d="M285.371,80.806c-0.203-0.091-0.444-0.006-0.544,0.193
			c-0.101,0.2-0.028,0.444,0.169,0.553c0.326,0.186,0.549,0.515,0.599,0.887c0.05,0.372-0.076,0.75-0.343,1.014l-23.227,23.229
			c2.118,3.143,5.199,5.579,8.824,6.886l20.379-20.386c0.409-0.409,1.007-0.558,1.558-0.384c0.552,0.17,0.963,0.633,1.068,1.2
			c0.19,1.044,0.29,2.118,0.29,3.221c0,4.745-1.838,9.062-4.841,12.275c-0.24,0.256-0.233,0.654,0.014,0.903
			c0.248,0.249,0.645,0.255,0.902,0.019c3.542-3.28,5.768-7.97,5.768-13.196C295.985,89.889,291.614,83.618,285.371,80.806z"/>
	</g>
</g>
</svg>
