<?xml version="1.0" encoding="utf-8"?>
<!-- Generator: Adobe Illustrator 16.0.1, SVG Export Plug-In . SVG Version: 6.00 Build 0)  -->
<!DOCTYPE svg PUBLIC "-//W3C//DTD SVG 1.1//EN" "http://www.w3.org/Graphics/SVG/1.1/DTD/svg11.dtd">
<svg version="1.1" id="Layer_1" xmlns="http://www.w3.org/2000/svg" xmlns:xlink="http://www.w3.org/1999/xlink" x="0px" y="0px"
	 width="500px" height="500px" viewBox="0 0 500 500" enable-background="new 0 0 500 500" xml:space="preserve">
<g id="avatar">
</g>
<g id="robot">
	<g>
		<path fill="#4B5055" d="M171.195,173.577c-16.589,0-58.801,20.621-100.693,37.346c-7.452,2.976-12.343,10.194-12.343,18.213
			v35.063c0,8.426,5.378,15.899,13.364,18.582c41.556,13.971,83.22,26.43,99.672,26.43c37.452,0,67.815-30.355,67.815-67.815
			C239.01,203.936,208.649,173.577,171.195,173.577z"/>
		<path opacity="0.8" fill="#00AADC" enable-background="new    " d="M171.195,186.496c-8.244,0-16.061,1.816-23.07,5.069
			c-12.516,5.806-25.373,11.515-38.077,16.903c-9.021,3.826-24.694,7.73-37.738,11.515c-8.378,2.433-14.147,10.09-14.147,18.824
			v16.033c0,8.506,5.497,16.044,13.594,18.654c48.182,15.541,78.006,20.764,91.809,22.268c2.041,0.283,4.11,0.451,6.215,0.504
			c0.486,0.02,0.912,0.035,1.273,0.035c0.05,0,0.092,0.004,0.142,0.004c30.317,0,54.905-24.584,54.905-54.906
			C226.1,211.073,201.514,186.496,171.195,186.496z"/>
		<path fill="#FFC855" d="M72.76,221.887h-6.732c-6.278,0-11.37,5.089-11.37,11.37v21.391c0,6.281,5.091,11.372,11.37,11.372h6.732
			c6.278,0,11.37-5.091,11.37-11.372v-21.391C84.129,226.976,79.038,221.887,72.76,221.887z"/>
		<path fill="#4B5055" d="M57.346,226.055h-0.534c-4.538,0-8.214,3.676-8.214,8.217v19.378c0,4.531,3.679,8.211,8.214,8.211h0.534
			c4.533,0,8.208-3.68,8.208-8.211v-19.378C65.555,229.731,61.879,226.055,57.346,226.055z"/>
		<path fill="#32373C" d="M431.207,210.92c-41.893-16.725-84.107-37.346-100.688-37.346c-37.457,0-67.821,30.364-67.821,67.821
			c0,37.459,30.364,67.815,67.821,67.815c16.447,0,58.117-12.457,99.67-26.43c7.986-2.683,13.358-10.156,13.358-18.582v-35.063
			C443.547,221.114,438.656,213.899,431.207,210.92z"/>
		<path opacity="0.8" fill="#00AADC" enable-background="new    " d="M429.397,219.983c-13.044-3.785-28.718-7.688-37.738-11.515
			c0,0-0.003,0-0.006,0c-12.693-5.386-25.559-11.095-38.068-16.903c-7.013-3.259-14.829-5.069-23.068-5.069
			c-30.321,0-54.902,24.578-54.902,54.9c0,30.319,24.581,54.905,54.902,54.905c0.048,0,0.09-0.002,0.143-0.002
			c0.361,0,0.781-0.018,1.276-0.037c2.094-0.055,4.173-0.219,6.209-0.502c13.8-1.502,43.63-6.725,91.812-22.268
			c8.095-2.611,13.589-10.144,13.589-18.654v-16.034C443.547,230.073,437.782,222.415,429.397,219.983z"/>
		<path opacity="0.8" fill="#FFA032" enable-background="new    " d="M435.681,221.887h-6.734c-6.279,0-11.362,5.089-11.362,11.37
			v21.391c0,6.281,5.086,11.372,11.362,11.372h6.734c6.278,0,11.37-5.091,11.37-11.372v-21.391
			C447.051,226.976,441.959,221.887,435.681,221.887z"/>
		<path fill="#32373C" d="M444.896,226.055h-0.537c-4.535,0-8.208,3.676-8.208,8.217v19.378c0,4.531,3.676,8.211,8.208,8.211h0.537
			c4.535,0,8.211-3.68,8.211-8.211v-19.378C453.107,229.731,449.431,226.055,444.896,226.055z"/>
		<path fill="#FFC855" d="M269.824,232.247h-37.943c-4.533,0-8.211,3.676-8.211,8.208v1.885c0,4.532,3.679,8.208,8.211,8.208h37.943
			c4.535,0,8.209-3.675,8.209-8.208v-1.885C278.033,235.924,274.36,232.247,269.824,232.247z"/>
		<path fill="#FFA032" d="M269.824,232.247h-18.972v18.305h18.972c4.535,0,8.209-3.676,8.209-8.208v-1.885
			C278.033,235.924,274.36,232.247,269.824,232.247z"/>
		<path opacity="0.25" fill="#F0F0F0" enable-background="new    " d="M225.714,235.025c-1.452-12.565-7.135-23.838-15.599-32.349
			l-66.631,66.63c-3.045,3.049-7.374,4.449-11.631,3.749c-4.254-0.695-7.917-3.393-9.84-7.249c-3.659-7.352-5.72-15.638-5.72-24.411
			c0-12.791,4.376-24.563,11.714-33.896c0.662-0.848,0.534-2.071-0.294-2.761c-0.829-0.69-2.052-0.595-2.77,0.208
			c-8.609,9.685-13.845,22.451-13.845,36.451c0,30.32,24.581,54.906,54.9,54.906c0.871,0,1.735-0.031,2.597-0.067
			c-0.684-0.03-1.285-0.464-1.535-1.101c-0.245-0.643-0.094-1.365,0.392-1.848L225.714,235.025z"/>
		<path opacity="0.25" fill="#F0F0F0" enable-background="new    " d="M356.226,193.05c-0.623-0.278-1.357-0.02-1.663,0.589
			c-0.306,0.609-0.083,1.357,0.515,1.688c0.998,0.567,1.677,1.571,1.829,2.708c0.153,1.137-0.233,2.288-1.045,3.095l-70.902,70.907
			c6.465,9.594,15.872,17.029,26.936,21.02l62.21-62.23c1.249-1.248,3.075-1.702,4.755-1.173c1.683,0.52,2.939,1.933,3.259,3.665
			c0.584,3.189,0.887,6.465,0.887,9.832c0,14.484-5.611,27.664-14.778,37.471c-0.731,0.781-0.712,1.996,0.044,2.759
			c0.754,0.757,1.966,0.778,2.753,0.056c10.812-10.01,17.606-24.33,17.606-40.282C388.622,220.778,375.279,201.633,356.226,193.05z"
			/>
	</g>
</g>
<rect x="0" y="0" fill="none" width="500" height="500"/>
</svg>
