<?xml version="1.0" encoding="utf-8"?>
<!-- Generator: Adobe Illustrator 16.0.1, SVG Export Plug-In . SVG Version: 6.00 Build 0)  -->
<!DOCTYPE svg PUBLIC "-//W3C//DTD SVG 1.1//EN" "http://www.w3.org/Graphics/SVG/1.1/DTD/svg11.dtd">
<svg version="1.1" id="Layer_1" xmlns="http://www.w3.org/2000/svg" xmlns:xlink="http://www.w3.org/1999/xlink" x="0px" y="0px"
	 width="500px" height="500px" viewBox="0 0 500 500" enable-background="new 0 0 500 500" xml:space="preserve">
<g id="avatar">
</g>
<g id="robot">
	
		<linearGradient id="SVGID_1_" gradientUnits="userSpaceOnUse" x1="348.2444" y1="266.4304" x2="348.2444" y2="405.7156" gradientTransform="matrix(1 0 0 1 -0.1104 -95.2812)">
		<stop  offset="0" style="stop-color:#343638"/>
		<stop  offset="0.2716" style="stop-color:#424447"/>
		<stop  offset="0.7906" style="stop-color:#686A6E"/>
		<stop  offset="1" style="stop-color:#797B7F"/>
	</linearGradient>
	<path fill="url(#SVGID_1_)" d="M415.002,196.635c12.192,22.169,4.023,51.203-3.859,73.386
		c-4.868,13.662-10.422,28.452-24.121,35.398c-1.627,0.832-3.188,1.482-4.918,2.018c-34.151,10.629-74.297-8.223-92.862-37.444
		c-10.705-16.832-17.288-38.713-12.725-58.58c3.8-16.507,20.202-26.174,35.14-31.755c4.034-1.509,8.157-2.786,12.319-3.863
		c16.651-4.333,34.514-6.062,51.582-3.331C391.3,174.977,407.028,182.117,415.002,196.635z"/>
	
		<linearGradient id="SVGID_2_" gradientUnits="userSpaceOnUse" x1="153.8289" y1="266.4324" x2="153.8289" y2="405.7185" gradientTransform="matrix(1 0 0 1 -0.1104 -95.2812)">
		<stop  offset="0" style="stop-color:#343638"/>
		<stop  offset="0.2716" style="stop-color:#424447"/>
		<stop  offset="0.7906" style="stop-color:#686A6E"/>
		<stop  offset="1" style="stop-color:#797B7F"/>
	</linearGradient>
	<path fill="url(#SVGID_2_)" d="M225.337,211.415c4.556,19.866-2.019,41.748-12.726,58.582
		c-18.565,29.219-58.711,48.071-92.861,37.443c-1.73-0.532-3.293-1.186-4.918-2.018c-13.712-6.948-19.252-21.739-24.121-35.398
		c-7.883-22.183-16.053-51.22-3.86-73.386c7.976-14.521,23.7-21.661,39.443-24.173c17.057-2.731,34.931-1.002,51.583,3.331
		c4.164,1.078,8.287,2.354,12.32,3.862C205.134,185.239,221.538,194.908,225.337,211.415z"/>
	<path fill="#231F20" d="M433.826,205.9c0.117,3.772,0.169,10.107-1.365,13.881c-1.81,0.22-3.385,0.936-4.724,1.978
		c-1.236,1.652-1.834,3.722-2.34,5.864c-1.719,7.379-2.187,14.989-3.788,22.39c-3.538,16.458-9.001,35.231-19.604,48.774
		c-11.042,14.103-30.587,19.098-47.73,17.444c-26.085-2.521-51.504-16.757-67.36-37.583c-5.882-7.73-10.772-16.208-15.08-24.86
		c-4.423-8.875-6.57-20.036-14.362-26.8c-8.611-7.495-15.26,0.742-19.485,8.639c-3.135,5.843-5.009,12.243-7.964,18.161
		c-4.306,8.652-9.211,17.132-15.078,24.86c-15.857,20.829-41.277,35.062-67.362,37.583c-17.146,1.652-36.701-3.343-47.732-17.444
		c-10.614-13.543-16.065-32.316-19.605-48.774c-1.602-7.403-2.069-15.011-3.799-22.39c-0.494-2.144-1.093-4.215-2.326-5.864
		c-1.341-1.042-2.929-1.759-4.725-1.978c-1.535-3.773-1.48-10.108-1.365-13.881c0.183-0.042,0.375-0.078,0.546-0.116
		c0.313-0.091,0.611-0.194,0.899-0.328c10.082-1.509,13.296-14.245,21.076-20.423c0,0,0,0,0.026-0.026
		c11.422-12.033,30.272-18.281,46.988-18.695c30.546-0.779,57.698,5.711,81.568,25.005c6.479,5.256,13.271,10.433,21.182,13.062
		c3.383,1.131,7.038,1.717,10.616,1.614c3.577,0.103,7.23-0.48,10.616-1.614c7.911-2.63,14.687-7.807,21.18-13.062
		c23.869-19.292,51.01-25.784,81.568-25.005c16.704,0.417,35.568,6.662,46.991,18.695c0.023,0.026,0.023,0.026,0.023,0.026
		c7.781,6.178,10.994,18.914,21.077,20.423c0.285,0.133,0.584,0.236,0.885,0.328C433.449,205.823,433.645,205.858,433.826,205.9z
		 M411.14,270.024c7.884-22.183,16.056-51.22,3.86-73.386c-7.974-14.521-23.702-21.661-39.442-24.173
		c-17.068-2.731-34.931-1.002-51.582,3.331c-4.164,1.078-8.288,2.354-12.319,3.862c-14.936,5.58-31.34,15.247-35.14,31.756
		c-4.566,19.866,2.018,41.748,12.724,58.582c18.566,29.219,58.712,48.071,92.863,37.443c1.729-0.532,3.288-1.186,4.918-2.018
		C400.719,298.474,406.273,283.685,411.14,270.024z M212.615,269.997c10.704-16.834,17.277-38.715,12.724-58.582
		c-3.798-16.507-20.202-26.174-35.138-31.756c-4.034-1.509-8.158-2.785-12.321-3.862c-16.651-4.333-34.525-6.062-51.582-3.331
		c-15.742,2.512-31.469,9.651-39.444,24.173c-12.19,22.169-4.022,51.203,3.861,73.386c4.867,13.661,10.409,28.45,24.122,35.398
		c1.627,0.832,3.188,1.481,4.918,2.018C153.902,318.068,194.047,299.219,212.615,269.997z"/>
</g>
<rect x="0" y="0" fill="none" width="500" height="500"/>
</svg>
