<?xml version="1.0" encoding="utf-8"?>
<!-- Generator: Adobe Illustrator 16.0.1, SVG Export Plug-In . SVG Version: 6.00 Build 0)  -->
<!DOCTYPE svg PUBLIC "-//W3C//DTD SVG 1.1//EN" "http://www.w3.org/Graphics/SVG/1.1/DTD/svg11.dtd">
<svg version="1.1" xmlns="http://www.w3.org/2000/svg" xmlns:xlink="http://www.w3.org/1999/xlink" x="0px" y="0px" width="500px"
	 height="500px" viewBox="0 0 500 500" enable-background="new 0 0 500 500" xml:space="preserve">
<g id="avatar">
</g>
<g id="robot">
	<linearGradient id="SVGID_1_" gradientUnits="userSpaceOnUse" x1="293.564" y1="74.6968" x2="293.564" y2="135.79">
		<stop  offset="0" style="stop-color:#343638"/>
		<stop  offset="0.2716" style="stop-color:#424447"/>
		<stop  offset="0.7906" style="stop-color:#686A6E"/>
		<stop  offset="1" style="stop-color:#797B7F"/>
	</linearGradient>
	<path fill="url(#SVGID_1_)" d="M322.895,85.875c5.347,9.723,1.764,22.459-1.694,32.188c-2.134,5.992-4.571,12.48-10.58,15.527
		c-0.713,0.365-1.398,0.65-2.157,0.884c-14.979,4.662-32.588-3.606-40.731-16.423c-4.696-7.383-7.583-16.981-5.581-25.695
		c1.667-7.24,8.861-11.48,15.413-13.929c1.769-0.662,3.578-1.221,5.403-1.694c7.304-1.9,15.139-2.659,22.625-1.461
		C312.498,76.375,319.397,79.507,322.895,85.875z"/>
	<linearGradient id="SVGID_2_" gradientUnits="userSpaceOnUse" x1="208.2896" y1="74.6968" x2="208.2896" y2="135.79">
		<stop  offset="0" style="stop-color:#343638"/>
		<stop  offset="0.2716" style="stop-color:#424447"/>
		<stop  offset="0.7906" style="stop-color:#686A6E"/>
		<stop  offset="1" style="stop-color:#797B7F"/>
	</linearGradient>
	<path fill="url(#SVGID_2_)" d="M239.703,92.357c1.998,8.714-0.884,18.312-5.581,25.695c-8.143,12.816-25.752,21.085-40.731,16.423
		c-0.759-0.233-1.444-0.519-2.157-0.884c-6.015-3.047-8.445-9.536-10.58-15.527c-3.458-9.729-7.041-22.466-1.694-32.188
		c3.498-6.369,10.396-9.501,17.301-10.603c7.481-1.198,15.321-0.439,22.625,1.461c1.826,0.473,3.635,1.032,5.404,1.694
		C230.842,80.876,238.037,85.117,239.703,92.357z"/>
	<path fill="#231F20" d="M331.152,89.938c0.051,1.655,0.074,4.434-0.6,6.089c-0.793,0.097-1.483,0.41-2.071,0.867
		c-0.543,0.725-0.805,1.632-1.027,2.573c-0.754,3.236-0.959,6.574-1.661,9.82c-1.552,7.219-3.948,15.453-8.599,21.393
		c-4.844,6.186-13.416,8.377-20.936,7.652c-11.441-1.106-22.591-7.35-29.546-16.485c-2.58-3.39-4.725-7.109-6.614-10.904
		c-1.94-3.892-2.882-8.788-6.3-11.755c-3.777-3.287-6.693,0.325-8.547,3.789c-1.375,2.563-2.197,5.37-3.493,7.966
		c-1.889,3.795-4.04,7.515-6.613,10.904c-6.956,9.136-18.106,15.379-29.547,16.485c-7.521,0.725-16.098-1.466-20.937-7.652
		c-4.655-5.94-7.046-14.174-8.599-21.393c-0.702-3.247-0.907-6.584-1.666-9.82c-0.217-0.941-0.48-1.849-1.021-2.573
		c-0.588-0.457-1.284-0.771-2.072-0.867c-0.673-1.655-0.649-4.434-0.599-6.089c0.08-0.018,0.165-0.034,0.24-0.051
		c0.137-0.04,0.268-0.085,0.394-0.143c4.422-0.662,5.832-6.248,9.244-8.958c0,0,0,0,0.012-0.012c5.01-5.278,13.278-8.018,20.61-8.2
		c13.399-0.342,25.308,2.505,35.778,10.968c2.842,2.305,5.821,4.576,9.291,5.729c1.483,0.496,3.087,0.753,4.656,0.708
		c1.569,0.045,3.172-0.211,4.656-0.708c3.47-1.153,6.442-3.424,9.29-5.729c10.47-8.462,22.374-11.31,35.778-10.968
		c7.327,0.183,15.601,2.922,20.611,8.2c0.011,0.012,0.011,0.012,0.011,0.012c3.413,2.71,4.822,8.296,9.245,8.958
		c0.125,0.058,0.256,0.103,0.388,0.143C330.987,89.904,331.072,89.92,331.152,89.938z M321.2,118.064
		c3.458-9.729,7.042-22.466,1.694-32.188c-3.497-6.369-10.397-9.501-17.301-10.603c-7.486-1.198-15.321-0.439-22.625,1.461
		c-1.826,0.473-3.635,1.032-5.403,1.694c-6.551,2.448-13.746,6.688-15.413,13.929c-2.003,8.714,0.884,18.312,5.581,25.695
		c8.143,12.816,25.752,21.085,40.731,16.423c0.759-0.233,1.443-0.519,2.157-0.884C316.629,130.544,319.066,124.056,321.2,118.064z
		 M234.123,118.052c4.696-7.383,7.578-16.981,5.581-25.695c-1.666-7.24-8.861-11.48-15.412-13.929
		c-1.769-0.662-3.578-1.221-5.404-1.694c-7.304-1.9-15.144-2.659-22.625-1.461c-6.904,1.102-13.803,4.234-17.301,10.603
		c-5.347,9.723-1.764,22.459,1.694,32.188c2.134,5.992,4.565,12.48,10.58,15.527c0.713,0.365,1.398,0.65,2.157,0.884
		C208.37,139.137,225.979,130.869,234.123,118.052z"/>
</g>
</svg>
