<?xml version="1.0" encoding="utf-8"?>
<!-- Generator: Adobe Illustrator 16.0.1, SVG Export Plug-In . SVG Version: 6.00 Build 0)  -->
<!DOCTYPE svg PUBLIC "-//W3C//DTD SVG 1.1//EN" "http://www.w3.org/Graphics/SVG/1.1/DTD/svg11.dtd">
<svg version="1.1" id="content" xmlns="http://www.w3.org/2000/svg" xmlns:xlink="http://www.w3.org/1999/xlink" x="0px" y="0px"
	 width="500px" height="500px" viewBox="0 0 500 500" enable-background="new 0 0 500 500" xml:space="preserve">
<rect id="position" fill="none" width="500" height="500"/>
<path fill="#BFBFC0" d="M349.692,135.939H149.356l-12.691,244.176c-0.642,8.217,21.647,16.666,49.77,18.847
	c28.115,2.184,51.429-2.726,52.065-10.947l10.974-172.676h0.049l8.508,172.676c0.64,8.219,23.953,13.13,52.073,10.947
	c28.117-2.182,50.408-10.63,49.767-18.847L349.692,135.939z"/>
<path fill="none" stroke="#999999" stroke-width="10" stroke-miterlimit="10" d="M149.356,135.939"/>
<path fill="none" stroke="#999999" stroke-width="10" stroke-miterlimit="10" d="M349.692,135.939"/>
<path fill="none" stroke="#999999" stroke-width="10" stroke-linecap="round" stroke-linejoin="round" stroke-miterlimit="10" d="
	M258.031,388.015c0.64,8.219,23.953,13.13,52.073,10.947c28.117-2.182,50.408-10.63,49.767-18.847"/>
<path fill="none" stroke="#999999" stroke-width="10" stroke-linecap="round" stroke-linejoin="round" stroke-miterlimit="10" d="
	M136.665,380.115c-0.642,8.217,21.647,16.666,49.77,18.847c28.115,2.184,51.429-2.726,52.065-10.947"/>
<path fill="#999999" d="M149.356,135.939l-2.54,48.861c26.985,0,51.4-21.875,51.4-48.861"/>
<path fill="#999999" d="M349.56,135.939l2.54,48.861c-26.986,0-51.4-21.875-51.4-48.861"/>
</svg>
