<?xml version="1.0" encoding="utf-8"?>
<!-- Generator: Adobe Illustrator 16.0.1, SVG Export Plug-In . SVG Version: 6.00 Build 0)  -->
<!DOCTYPE svg PUBLIC "-//W3C//DTD SVG 1.1//EN" "http://www.w3.org/Graphics/SVG/1.1/DTD/svg11.dtd">
<svg version="1.1" id="content" xmlns="http://www.w3.org/2000/svg" xmlns:xlink="http://www.w3.org/1999/xlink" x="0px" y="0px"
	 width="500px" height="500px" viewBox="0 0 500 500" enable-background="new 0 0 500 500" xml:space="preserve">
<rect id="position" fill="none" width="500" height="500"/>
<g>
	<circle fill="#C1C1C1" cx="250.577" cy="254.147" r="127.02"/>
</g>
<path fill="#999999" d="M246.285,110.156c-101.783,0-178.271,89.08-121.182,166.973l0,0c0,0-2.679-80.013,50.65-115.518
	c0,0,2.675,42.646,149.17,30.188c0,0-20.431-18.535-19.358-37.104c0,0,72.123,86.928,70.271,122.434l0,0
	C427.294,201.044,367.957,110.156,246.285,110.156z"/>
<g>
	<circle fill="#FFFFFF" cx="202.55" cy="241.012" r="22.406"/>
	<circle fill="#FFFFFF" cx="296.787" cy="241.012" r="22.407"/>
	<path fill="#FFFFFF" d="M272.982,304.455c0,12.373-10.029,22.403-22.406,22.403c-12.374,0-22.407-10.03-22.407-22.403H272.982z"/>
</g>
<circle fill="#999999" cx="180.144" cy="304.455" r="27.05"/>
<circle fill="#999999" cx="319.193" cy="304.455" r="27.05"/>
</svg>
