<?xml version="1.0" encoding="utf-8"?>
<!-- Generator: Adobe Illustrator 16.0.1, SVG Export Plug-In . SVG Version: 6.00 Build 0)  -->
<!DOCTYPE svg PUBLIC "-//W3C//DTD SVG 1.1//EN" "http://www.w3.org/Graphics/SVG/1.1/DTD/svg11.dtd">
<svg version="1.1" id="content" xmlns="http://www.w3.org/2000/svg" xmlns:xlink="http://www.w3.org/1999/xlink" x="0px" y="0px"
	 width="500px" height="500px" viewBox="0 0 500 500" enable-background="new 0 0 500 500" xml:space="preserve">
<rect id="position" fill="none" width="500" height="500"/>
<g>
	<path fill="#C1C1C1" d="M102.988,328.331c0,0-3.057-91.369,56.733-134.267v-43.178C89.283,185.636,53.323,260.566,102.988,328.331z
		"/>
	<path fill="#AFAFAF" d="M246.069,131.185c-31.629,0-61.188,7.289-86.348,19.701v43.178c1.006-0.722,2.028-1.433,3.07-2.126
		c0,0,2.045,32.595,92.93,37.674v-98.244C252.537,131.259,249.329,131.185,246.069,131.185z"/>
	<path fill="#999999" d="M255.721,131.368v98.244c22.076,1.233,49.395,0.844,83.197-2.031c0,0-24.123-21.884-22.855-43.809
		c0,0,17.027,20.528,35.658,46.968v-75.163C325.91,141.542,293.536,132.663,255.721,131.368z"/>
	<path fill="#8C8C8C" d="M351.721,155.576v75.163c23.034,32.688,48.52,74.416,47.311,97.592
		C442.032,264.751,419.491,192.426,351.721,155.576z"/>
</g>
</svg>
