<?xml version="1.0" encoding="utf-8"?>
<!-- Generator: Adobe Illustrator 16.0.1, SVG Export Plug-In . SVG Version: 6.00 Build 0)  -->
<!DOCTYPE svg PUBLIC "-//W3C//DTD SVG 1.1//EN" "http://www.w3.org/Graphics/SVG/1.1/DTD/svg11.dtd">
<svg version="1.1" id="content" xmlns="http://www.w3.org/2000/svg" xmlns:xlink="http://www.w3.org/1999/xlink" x="0px" y="0px"
	 width="500px" height="500px" viewBox="0 0 500 500" enable-background="new 0 0 500 500" xml:space="preserve">
<rect id="position" fill="none" width="500" height="500"/>
<g id="shoes">
	<g>
		<path fill="#BFBFC0" d="M430.194,264.01c0-11.822-2.337-29.007-3.712-38.081c-0.549-3.85-2.475-4.262-5.499-1.65
			c-7.698,7.012-42.067,19.385-68.875,19.247c-47.018,0-66.265-26.121-66.265-26.121s18.697-17.734-0.688-42.205
			c0,0-54.44,36.844-88.673,55.54c-34.094,18.698-93.072,37.669-93.072,37.669c-22.821,2.887-32.307,13.061-35.606,25.57v15.948
			c0,0,104.483,11.135,178.17,8.11c73.689-3.024,182.295-6.187,182.295-6.187S430.058,280.782,430.194,264.01z"/>
	</g>
	<g>
		<circle fill="#CECECE" cx="257.111" cy="220.292" r="5.911"/>
	</g>
	<g>
		<circle fill="#CECECE" cx="230.303" cy="235.002" r="5.912"/>
	</g>
	<g>
		<circle fill="#CECECE" cx="208.307" cy="246.688" r="5.912"/>
	</g>
	<g>
		<circle fill="#CECECE" cx="184.936" cy="259.061" r="5.912"/>
	</g>
	<g>
		<circle fill="#CECECE" cx="159.502" cy="265.247" r="4.262"/>
	</g>
	<g>
		<path fill="#F9F9F9" d="M257.111,222.904c-0.962,0-1.788-0.412-2.337-1.237l-11.823-18.834c-0.825-1.238-0.413-2.886,0.825-3.712
			c1.237-0.825,2.886-0.413,3.711,0.826l11.823,18.833c0.824,1.238,0.412,2.888-0.824,3.712
			C258.073,222.767,257.523,222.904,257.111,222.904z"/>
	</g>
	<g>
		<path fill="#F9F9F9" d="M230.303,236.927c-0.962,0-1.787-0.549-2.336-1.375l-10.311-18.009c-0.687-1.238-0.275-2.888,0.962-3.712
			c1.237-0.687,2.887-0.275,3.712,0.963l10.311,18.009c0.687,1.238,0.274,2.888-0.963,3.712
			C231.128,236.79,230.716,236.927,230.303,236.927z"/>
	</g>
	<g>
		<path fill="#F9F9F9" d="M208.307,248.063c-0.962,0-1.925-0.55-2.337-1.375l-9.073-16.36c-0.688-1.238-0.275-2.887,1.1-3.712
			c1.237-0.687,2.887-0.275,3.712,1.1l9.074,16.36c0.687,1.238,0.274,2.887-1.1,3.712
			C209.269,247.925,208.72,248.063,208.307,248.063z"/>
	</g>
	<g>
		<path fill="#F9F9F9" d="M184.11,260.985c-1.1,0-2.062-0.55-2.474-1.65l-7.974-18.146c-0.55-1.375,0-2.888,1.375-3.575
			c1.375-0.549,2.886,0,3.574,1.375l7.974,18.147c0.55,1.375,0,2.887-1.375,3.574C184.936,260.985,184.523,260.985,184.11,260.985z"
			/>
	</g>
	<g>
		<path fill="#F9F9F9" d="M158.677,265.248c-0.824,0-1.649-0.551-1.925-1.514l-3.437-13.06c-0.275-1.1,0.413-2.062,1.375-2.338
			c1.1-0.274,2.062,0.414,2.337,1.375l3.437,13.061c0.274,1.101-0.413,2.062-1.375,2.337
			C158.953,265.248,158.815,265.248,158.677,265.248z"/>
	</g>
	<g>
		<path fill="#8E8E8E" d="M262.885,195.134l12.099,19.796c0,0,18.146-14.297,6.461-30.794
			C267.56,191.284,262.885,195.134,262.885,195.134z"/>
	</g>
	<g>
		<rect x="67.805" y="299.479" fill="#E5E5E5" width="360.603" height="36.021"/>
	</g>
	<g>
		<rect x="67.805" y="302.366" fill="#ADADAD" width="360.603" height="7.424"/>
	</g>
</g>
</svg>
