<?xml version="1.0" encoding="utf-8"?>
<!-- Generator: Adobe Illustrator 16.0.1, SVG Export Plug-In . SVG Version: 6.00 Build 0)  -->
<!DOCTYPE svg PUBLIC "-//W3C//DTD SVG 1.1//EN" "http://www.w3.org/Graphics/SVG/1.1/DTD/svg11.dtd">
<svg version="1.1" id="content" xmlns="http://www.w3.org/2000/svg" xmlns:xlink="http://www.w3.org/1999/xlink" x="0px" y="0px"
	 width="500px" height="500px" viewBox="0 0 500 500" enable-background="new 0 0 500 500" xml:space="preserve">
<rect id="position" fill="none" width="500" height="500"/>
<g>
	<g>
		<g>
			<path fill="#C1C1C1" d="M176.11,322.422c0,9.583-7.84,17.423-17.422,17.423h-0.472c-9.582,0-17.422-7.84-17.422-17.423v-96.002
				c0-9.582,7.84-17.422,17.422-17.422h0.472c9.582,0,17.422,7.84,17.422,17.422V322.422z"/>
		</g>
	</g>
	<g>
		<g>
			<path fill="#C1C1C1" d="M361.061,322.422c0,9.583-7.84,17.423-17.423,17.423h-0.471c-9.583,0-17.423-7.84-17.423-17.423v-96.002
				c0-9.582,7.84-17.422,17.423-17.422h0.471c9.583,0,17.423,7.84,17.423,17.422V322.422z"/>
		</g>
	</g>
	<g>
		<g>
			<path fill="#C1C1C1" d="M240.716,429.235c0,10.755-8.8,19.555-19.555,19.555h-1.881c-10.755,0-19.555-8.8-19.555-19.555V326.332
				c0-10.755,8.8-19.555,19.555-19.555h1.881c10.755,0,19.555,8.8,19.555,19.555V429.235z"/>
		</g>
		<g>
			<path fill="#C1C1C1" d="M301.605,429.235c0,10.755-8.8,19.555-19.555,19.555h-1.883c-10.755,0-19.555-8.8-19.555-19.555V326.332
				c0-10.755,8.8-19.555,19.555-19.555h1.883c10.755,0,19.555,8.8,19.555,19.555V429.235z"/>
		</g>
		<g>
			<path fill="#C1C1C1" d="M302.13,428.986c0,10.892-8.912,19.804-19.804,19.804h-2.433c-10.892,0-19.804-8.912-19.804-19.804
				V326.581c0-10.892,8.912-19.804,19.804-19.804h2.433c10.892,0,19.804,8.912,19.804,19.804V428.986z"/>
		</g>
	</g>
	<g>
		<circle fill="#C1C1C1" cx="250.927" cy="136.031" r="68.553"/>
	</g>
	<g>
		<circle fill="#FFFFFF" cx="225.007" cy="128.942" r="12.093"/>
		<circle fill="#FFFFFF" cx="275.868" cy="128.942" r="12.093"/>
		<path fill="#FFFFFF" d="M263.021,163.182c0,6.678-5.413,12.092-12.093,12.092c-6.679,0-12.093-5.414-12.093-12.092H263.021z"/>
	</g>
	<g>
		<path fill="#C1C1C1" d="M309.051,351.691c-0.805,9.442-9.217,17.168-18.693,17.168h-79.104c-9.477,0-17.876-7.727-18.667-17.17
			l-10.502-125.522c-0.79-9.443,6.317-17.17,15.793-17.17h106.096c9.477,0,16.572,7.726,15.768,17.168L309.051,351.691z"/>
	</g>
</g>
</svg>
