<?xml version="1.0" encoding="utf-8"?>
<!-- Generator: Adobe Illustrator 16.0.1, SVG Export Plug-In . SVG Version: 6.00 Build 0)  -->
<!DOCTYPE svg PUBLIC "-//W3C//DTD SVG 1.1//EN" "http://www.w3.org/Graphics/SVG/1.1/DTD/svg11.dtd">
<svg version="1.1" id="content" xmlns="http://www.w3.org/2000/svg" xmlns:xlink="http://www.w3.org/1999/xlink" x="0px" y="0px"
	 width="500px" height="500px" viewBox="0 0 500 500" enable-background="new 0 0 500 500" xml:space="preserve">
<rect id="position" x="0" y="0" fill="none" width="500" height="500"/>
<g>
	<path fill="#BFBFC0" d="M374.608,259.941c0-68.79-55.767-124.555-124.558-124.555s-124.557,55.765-124.557,124.555
		c0,68.793,55.766,124.559,124.557,124.559S374.608,328.734,374.608,259.941z"/>
</g>
<g>
	<circle fill="#FFFFFF" cx="202.956" cy="247.062" r="21.972"/>
	<circle fill="#FFFFFF" cx="295.365" cy="247.062" r="21.972"/>
	<path fill="#FFFFFF" d="M272.023,309.274c0,12.133-9.835,21.971-21.973,21.971c-12.134,0-21.972-9.838-21.972-21.971H272.023z"/>
</g>
<path fill="#382800" d="M144.178,205.866c6.771,26.429-2.01,78.066-51.904,105.226C73.005,279.236,93.997,204.3,144.178,205.866z"/>
<path fill="#382800" d="M111.251,252.598c29.794,6.019,73.379,40.698,66.228,106.078C134.196,362.992,76.42,304.075,111.251,252.598
	z"/>
<path fill="#382800" d="M341.279,213.848c-11.673,24.663-12.868,77.024,30.949,113.175
	C397.202,299.415,390.843,221.853,341.279,213.848z"/>
<path fill="#382800" d="M400.093,258.467c-26.723,5.503-69.283,36.033-71.814,92.787
	C365.356,354.603,423.502,302.883,400.093,258.467z"/>
<path fill="#382800" d="M335.452,203.655c2.511,27.169,28.145,72.843,84.266,81.644
	C427.155,248.819,382.186,185.305,335.452,203.655z"/>
<path fill="#382800" d="M226.328,161.329c0,0-10.771-12.967-30.682-7.925C199.238,158.448,209.356,165.651,226.328,161.329z"/>
<path fill="#382800" d="M224.888,165.702c0,0,11.185-15.167-6.672-26.679C213.531,144.49,209.637,155.9,224.888,165.702z"/>
<path fill="#382800" d="M226.328,161.329c0,0-3.914-16.33,17.951-15.129C237.428,152.924,240.365,158.685,226.328,161.329z"/>
<path fill="#382800" d="M234.612,184.037c0,0-67.569,9.972-69.265,51.188C162.194,214.16,160.172,170.613,234.612,184.037z"/>
<path fill="#382800" d="M232.436,172.193c3.525,28.135-51.729,69.766-113.54,84.047
	C102.134,209.691,171.336,165.161,232.436,172.193z"/>
<path fill="#382800" d="M247.863,182.3c-17.084,21.861-72.703,51.306-147.715,39.479C109.508,188.73,198.563,150.979,247.863,182.3z
	"/>
<path fill="#382800" d="M250.879,179.776c-29.917,14.528-99.419,24.449-158.698-8.331
	C122.658,144.612,227.667,137.14,250.879,179.776z"/>
<path fill="#382800" d="M275.49,176.737c-33.996,3.816-112.265-2.694-126.943-50.879
	C207.133,120.423,282.825,134.804,275.49,176.737z"/>
<path fill="#382800" d="M228.621,158.028c25.152,7.177,90.083,1.174,117.435-30.902C317.448,111.148,234.8,124.773,228.621,158.028z
	"/>
<path fill="#382800" d="M227.651,187.182c25.352-6.872,61.728-32.1,53.796-69.639C244.256,119.87,196.396,160.903,227.651,187.182z"
	/>
<path fill="#382800" d="M253.909,166.38c22.399,13.439,77.457,25.354,129.635,2.106C362.243,145.049,278.115,133.138,253.909,166.38
	z"/>
<path fill="#382800" d="M293.458,177.169c11.856,18.458,54.334,44.663,116.4,38.163C405.32,188.112,336.437,153.778,293.458,177.169
	z"/>
<path fill="#382800" d="M254.477,156.006c55.812,8.598,113.782,52.298,93.998,93.78
	C307.054,242.427,222.164,198.597,254.477,156.006z"/>
<path fill="#382800" d="M298.151,159.983c58.293,9.992,100.312,54.48,80.524,95.968C324.145,245.641,255.21,185.758,298.151,159.983
	z"/>
</svg>
