<?xml version="1.0" encoding="utf-8"?>
<!-- Generator: Adobe Illustrator 16.0.1, SVG Export Plug-In . SVG Version: 6.00 Build 0)  -->
<!DOCTYPE svg PUBLIC "-//W3C//DTD SVG 1.1//EN" "http://www.w3.org/Graphics/SVG/1.1/DTD/svg11.dtd">
<svg version="1.1" id="content" xmlns="http://www.w3.org/2000/svg" xmlns:xlink="http://www.w3.org/1999/xlink" x="0px" y="0px"
	 width="500px" height="500px" viewBox="0 0 500 500" enable-background="new 0 0 500 500" xml:space="preserve">
<rect id="position" x="0" y="0" fill="none" width="500" height="500"/>
<g id="bounds">
	<rect x="0.2" y="0" fill="none" width="499.497" height="499.5"/>
</g>
<g>
	<circle fill="#BFBFC0" cx="249.927" cy="256.923" r="126.639"/>
</g>
<g>
	<circle fill="#FFFFFF" cx="202.045" cy="243.827" r="22.339"/>
	<circle fill="#FFFFFF" cx="296" cy="243.827" r="22.339"/>
	<path fill="#FFFFFF" d="M272.267,307.081c0,12.338-10,22.34-22.339,22.34c-12.337,0-22.34-10.003-22.34-22.34H272.267z"/>
</g>
<g id="avatar">
	<g>
		<path fill="#382800" d="M158.916,344.937l1.284-108.224l-18.194,0.323l9.897,124.604c0,0,8.86-1.123,23.428-2.403
			C169.455,354.943,163.964,350.156,158.916,344.937z"/>
		<path fill="#382800" d="M353.968,233.27l-14.354,0.254l1.325,111.413c-5.023,5.194-10.487,9.961-16.333,14.24
			c5.92,0.696,11.767,1.514,17.485,2.462C366.052,317.973,353.968,233.27,353.968,233.27z"/>
	</g>
	<path fill="#382800" d="M388.397,256.562c-0.017-0.857-0.052-1.688-0.071-2.536c-0.037-1.384-0.069-2.778-0.121-4.138
		c-0.036-0.906-0.093-1.784-0.137-2.679c-0.062-1.271-0.111-2.558-0.188-3.809c-0.055-0.905-0.127-1.781-0.189-2.675
		c-0.084-1.207-0.156-2.43-0.255-3.613c-0.075-0.917-0.169-1.807-0.251-2.71c-0.104-1.136-0.199-2.282-0.313-3.397
		c-0.093-0.863-0.197-1.698-0.294-2.553c-0.131-1.125-0.248-2.264-0.392-3.371c-0.106-0.843-0.23-1.661-0.347-2.493
		c-0.148-1.085-0.291-2.184-0.451-3.25c-0.122-0.797-0.257-1.564-0.385-2.353c-0.174-1.075-0.34-2.159-0.526-3.214
		c-0.134-0.761-0.284-1.495-0.424-2.246c-0.196-1.051-0.386-2.112-0.595-3.143c-0.148-0.738-0.313-1.449-0.469-2.18
		c-0.218-1.018-0.429-2.041-0.654-3.038c-0.162-0.706-0.338-1.388-0.505-2.085c-0.238-0.991-0.473-1.99-0.723-2.96
		c-0.175-0.684-0.363-1.341-0.544-2.013c-0.258-0.96-0.511-1.927-0.777-2.866c-0.188-0.657-0.392-1.293-0.584-1.939
		c-0.276-0.928-0.551-1.864-0.837-2.771c-0.204-0.644-0.421-1.263-0.629-1.895c-0.293-0.891-0.583-1.787-0.886-2.659
		c-0.213-0.612-0.438-1.202-0.657-1.809c-0.312-0.866-0.623-1.74-0.946-2.591c-0.223-0.579-0.453-1.137-0.682-1.707
		c-0.335-0.847-0.667-1.702-1.01-2.53c-0.229-0.554-0.474-1.088-0.709-1.634c-0.354-0.819-0.704-1.649-1.068-2.453
		c-0.234-0.521-0.482-1.026-0.727-1.544c-0.374-0.801-0.745-1.606-1.129-2.392c-0.248-0.506-0.507-0.994-0.761-1.492
		c-0.39-0.768-0.773-1.541-1.172-2.292c-0.265-0.495-0.534-0.973-0.805-1.459c-0.397-0.729-0.796-1.469-1.205-2.184
		c-0.271-0.475-0.55-0.928-0.823-1.395c-0.416-0.706-0.83-1.418-1.258-2.106c-0.275-0.449-0.562-0.879-0.841-1.322
		c-0.435-0.686-0.865-1.374-1.308-2.041c-0.287-0.432-0.58-0.847-0.87-1.271c-0.445-0.652-0.89-1.312-1.341-1.948
		c-0.299-0.421-0.606-0.823-0.908-1.237c-0.454-0.622-0.906-1.25-1.369-1.856c-0.302-0.396-0.611-0.771-0.914-1.159
		c-0.472-0.604-0.94-1.214-1.423-1.801c-0.306-0.375-0.619-0.733-0.93-1.104c-0.484-0.58-0.97-1.163-1.462-1.728
		c-0.318-0.363-0.646-0.714-0.967-1.072c-0.49-0.549-0.979-1.102-1.479-1.632c-0.327-0.35-0.659-0.684-0.987-1.025
		c-0.502-0.522-1.001-1.049-1.509-1.558c-0.332-0.332-0.672-0.65-1.005-0.978c-0.513-0.498-1.021-1.002-1.538-1.487
		c-0.343-0.317-0.688-0.624-1.032-0.937c-0.517-0.472-1.032-0.95-1.555-1.407c-0.354-0.307-0.708-0.603-1.062-0.905
		c-0.521-0.442-1.041-0.894-1.563-1.324c-0.359-0.294-0.727-0.576-1.084-0.866c-0.527-0.418-1.05-0.844-1.581-1.252
		c-0.366-0.28-0.735-0.55-1.104-0.826c-0.53-0.398-1.061-0.799-1.597-1.188c-0.372-0.269-0.749-0.521-1.124-0.783
		c-0.535-0.375-1.071-0.758-1.605-1.117c-0.385-0.258-0.771-0.502-1.15-0.753c-0.535-0.351-1.069-0.706-1.607-1.046
		c-0.396-0.248-0.793-0.485-1.188-0.729c-0.532-0.326-1.063-0.655-1.596-0.97c-0.401-0.236-0.803-0.46-1.202-0.688
		c-0.537-0.307-1.071-0.621-1.609-0.916c-0.405-0.224-0.812-0.435-1.218-0.65c-0.534-0.288-1.07-0.576-1.606-0.854
		c-0.42-0.215-0.84-0.42-1.262-0.631c-0.528-0.263-1.055-0.531-1.585-0.785c-0.426-0.204-0.853-0.396-1.279-0.597
		c-0.522-0.244-1.051-0.494-1.574-0.729c-0.437-0.194-0.873-0.378-1.312-0.567c-0.52-0.226-1.039-0.455-1.559-0.669
		c-0.442-0.187-0.89-0.359-1.332-0.539c-0.516-0.208-1.027-0.418-1.543-0.618c-0.45-0.174-0.9-0.339-1.354-0.506
		c-0.509-0.192-1.017-0.385-1.523-0.569c-0.458-0.163-0.914-0.315-1.373-0.475c-0.504-0.175-1.006-0.354-1.511-0.521
		c-0.464-0.151-0.926-0.299-1.389-0.444c-0.497-0.159-0.993-0.321-1.488-0.476c-0.474-0.146-0.943-0.28-1.419-0.421
		c-0.482-0.143-0.97-0.289-1.451-0.427c-0.479-0.134-0.952-0.26-1.433-0.392c-0.479-0.13-0.958-0.264-1.438-0.388
		c-0.484-0.125-0.969-0.244-1.45-0.364c-0.465-0.113-0.936-0.233-1.398-0.346c-0.499-0.119-0.999-0.228-1.496-0.341
		c-0.445-0.101-0.896-0.208-1.343-0.303c-0.512-0.111-1.019-0.215-1.527-0.319c-0.433-0.089-0.862-0.18-1.294-0.267
		c-0.519-0.102-1.028-0.195-1.544-0.291c-0.42-0.079-0.842-0.16-1.262-0.233c-0.521-0.094-1.046-0.181-1.567-0.269
		c-0.402-0.068-0.807-0.141-1.208-0.202c-0.53-0.085-1.058-0.162-1.587-0.242c-0.39-0.058-0.779-0.12-1.171-0.175
		c-0.54-0.077-1.074-0.147-1.613-0.22c-0.368-0.049-0.735-0.1-1.103-0.146c-0.559-0.071-1.11-0.134-1.667-0.199
		c-0.34-0.038-0.682-0.081-1.02-0.118c-0.563-0.062-1.121-0.119-1.682-0.175c-0.324-0.032-0.651-0.066-0.979-0.098
		c-0.564-0.053-1.123-0.104-1.684-0.151c-0.311-0.024-0.621-0.055-0.933-0.081c-0.577-0.047-1.146-0.088-1.72-0.13
		c-0.283-0.02-0.567-0.043-0.851-0.062c-0.589-0.041-1.174-0.074-1.755-0.109c-0.257-0.015-0.519-0.03-0.771-0.046
		c-0.593-0.032-1.18-0.062-1.763-0.086c-0.238-0.01-0.48-0.023-0.721-0.035c-0.605-0.026-1.208-0.046-1.806-0.068
		c-0.206-0.007-0.414-0.016-0.617-0.021c-0.619-0.021-1.229-0.034-1.837-0.049c-0.18-0.004-0.359-0.012-0.539-0.015
		c-0.632-0.013-1.255-0.021-1.876-0.028c-0.146-0.003-0.293-0.008-0.438-0.009c-0.645-0.006-1.279-0.01-1.912-0.012
		c-0.092,0-0.186-0.001-0.275-0.001l0,0c-0.137,0-0.279-0.001-0.415-0.001c-46.509,0-138.534,12.593-138.534,162.427
		c0,16.619,0,73.671,0,91.983s31.285,40.979,46.896,42.488l2.207-185.846c0,0,33.227,4.91,84.736,4.91
		c8.188,0,16.055-0.112,23.521-0.308c0.048-0.001,0.094-0.001,0.142-0.003c1.267-0.031,2.512-0.069,3.753-0.105
		c0.245-0.007,0.493-0.015,0.738-0.021c1.155-0.035,2.292-0.073,3.425-0.114c0.31-0.01,0.621-0.02,0.927-0.03
		c1.06-0.038,2.102-0.078,3.141-0.119c0.38-0.014,0.764-0.025,1.139-0.043c0.972-0.036,1.927-0.08,2.878-0.118
		c0.423-0.021,0.853-0.034,1.271-0.055c0.93-0.042,1.843-0.085,2.752-0.128c0.421-0.019,0.844-0.038,1.259-0.059
		c0.89-0.042,1.764-0.088,2.636-0.133c0.421-0.021,0.846-0.042,1.266-0.065c0.843-0.043,1.669-0.089,2.492-0.134
		c0.434-0.023,0.866-0.049,1.293-0.072c0.781-0.044,1.551-0.091,2.312-0.134c0.45-0.027,0.903-0.053,1.348-0.081
		c0.742-0.045,1.473-0.091,2.195-0.136c0.435-0.027,0.869-0.057,1.297-0.082c0.705-0.046,1.396-0.095,2.082-0.139
		c0.436-0.028,0.868-0.059,1.297-0.09c0.658-0.044,1.31-0.089,1.948-0.135c0.428-0.032,0.852-0.062,1.271-0.09
		c0.625-0.046,1.239-0.091,1.849-0.135c0.405-0.03,0.812-0.062,1.213-0.093c0.589-0.044,1.167-0.089,1.74-0.133
		c0.396-0.032,0.783-0.062,1.171-0.092c0.56-0.044,1.109-0.088,1.651-0.133c0.365-0.029,0.724-0.061,1.078-0.088
		c0.524-0.043,1.039-0.086,1.542-0.128c0.363-0.032,0.717-0.062,1.072-0.094c0.475-0.041,0.943-0.08,1.399-0.12
		c0.347-0.029,0.682-0.062,1.018-0.091c0.441-0.039,0.88-0.078,1.304-0.115c0.312-0.03,0.611-0.058,0.913-0.086
		c0.411-0.036,0.818-0.074,1.211-0.11c0.296-0.029,0.576-0.055,0.861-0.083c0.37-0.033,0.736-0.069,1.087-0.104
		c0.281-0.027,0.544-0.054,0.812-0.081c0.32-0.028,0.643-0.062,0.941-0.092c0.278-0.027,0.536-0.055,0.802-0.083
		c0.253-0.024,0.515-0.05,0.751-0.076c0.251-0.024,0.48-0.051,0.713-0.072c0.242-0.024,0.486-0.052,0.708-0.074
		c0.199-0.021,0.374-0.04,0.561-0.062c0.204-0.021,0.416-0.044,0.603-0.062c0.178-0.021,0.324-0.036,0.484-0.053
		c0.174-0.021,0.354-0.039,0.508-0.058c0.136-0.015,0.243-0.027,0.362-0.041c0.136-0.015,0.28-0.028,0.396-0.043
		c0.37-0.042,0.618-0.07,0.784-0.092c0.128-0.015,0.216-0.026,0.216-0.026l2.209,185.847c15.61-1.512,46.896-24.176,46.896-42.488
		s0-75.365,0-91.983C388.462,261.105,388.439,258.816,388.397,256.562z"/>
</g>
<g id="robot">
</g>
</svg>
