<?xml version="1.0" encoding="utf-8"?>
<!-- Generator: Adobe Illustrator 16.0.1, SVG Export Plug-In . SVG Version: 6.00 Build 0)  -->
<!DOCTYPE svg PUBLIC "-//W3C//DTD SVG 1.1//EN" "http://www.w3.org/Graphics/SVG/1.1/DTD/svg11.dtd">
<svg version="1.1" id="content" xmlns="http://www.w3.org/2000/svg" xmlns:xlink="http://www.w3.org/1999/xlink" x="0px" y="0px"
	 width="500px" height="500px" viewBox="0 0 500 500" enable-background="new 0 0 500 500" xml:space="preserve">
<g>
	<circle fill="#BFBFC0" cx="250.928" cy="262.499" r="122"/>
</g>
<g>
	<circle fill="#FFFFFF" cx="204.8" cy="249.882" r="21.521"/>
	<circle fill="#FFFFFF" cx="295.312" cy="249.882" r="21.521"/>
	<path fill="#FFFFFF" d="M272.449,310.819c0,11.885-9.635,21.52-21.521,21.52c-11.885,0-21.522-9.635-21.522-21.52H272.449z"/>
</g>
<rect id="position" x="0" y="0" fill="none" width="500" height="500"/>
<g id="bounds">
	<rect x="0.2" y="0.132" fill="none" width="499.497" height="499.501"/>
</g>
<rect id="position_1_" x="0" y="0" fill="none" width="500" height="500"/>
<g id="bounds_1_">
	<rect x="0" y="0" fill="none" width="499.498" height="499.5"/>
</g>
<g id="avatar_1_">
	<path fill="#382800" d="M422.532,350.56c-2.22-22.317-18.232-33.64-26.382-38.017c8.439-2.799,16.493-7.085,20.016-13.79
		c7.571-29.398-12.779-40.859-24.79-45.008c6.652-5.162,15.628-16.298,11.67-31.068c-14.616-31.867-43.119-28.228-43.119-28.228
		s15.774-13.046,8.25-29.727c-11.622-29.677-37.474-25.719-37.474-25.719s2.604,4.341-5.645-9.406
		c-21.981-20.306-58.258-7.832-66.12-0.611c-7.142-2.838-16.597-5.401-27.643-5.543c-16.201-0.235-25.605,6.896-30.383,12.293
		c-4.244-0.135-25.512,0.193-44.612,17.055c-13.549,11.974-11.432,29.492-8.007,40.668c-4.145,3.031-9.5,6.198-15.575,8.2
		c-14.662,4.701-35.647,10.898-31.498,34.057c1.692,9.594,6.031,15.6,10.513,19.284c-10.993,2.604-26.857,9.452-25.893,27.065
		c1.156,20.732,13.016,26.741,18.373,28.371c-4.052,4.05-9.5,8.804-16.154,14.766c-13.843,12.3-13.123,25.352-4.489,38.393
		c5.979,8.993,14.471,13.322,19.149,15.141c-1.397,6.148-3.618,12.393-6.028,14.906c-4.877,5.081-12.35,19.895,1.878,35.874
		c14.276,15.928,47.989,5.404,47.989,5.404l26.063,3.409l90.455-8.976c17.024,10.35,55.615-3.211,72.736,6.104
		c26.626,14.489,58.591-4.175,65.347-19.732c4.577-10.483-0.098-18.729-3.617-22.923c0.577-0.514,1.157-1.07,1.734-1.727
		c6.079-6.709,6.946-14.157,6.709-18.816C413.998,368.26,420.554,360.668,422.532,350.56z M251.326,384.412
		c-66.201,0-119.865-53.666-119.865-119.865c0-66.191,53.664-119.854,119.865-119.854c66.196,0,119.861,53.665,119.861,119.854
		C371.189,330.746,317.524,384.412,251.326,384.412z"/>
	<path fill="#382800" d="M404.127,294.492l-47.531-94.034l-12.597-33.347c0,0-24.281-20.36-26.019-21.236
		c-1.738-0.861-23.052-7.944-23.052-7.944H233.47l-32.086,12.446l-39.588,27.667l-47.917,57.094c0,0-14.46,68.883-12.728,68.883
		c1.739,0,6.946,67.162,6.946,67.162s40.462,3.967,56.134,0c-7.169-5.727-4.846-9.373-7.459-18.289
		c25.194-26.284-12.444-78.737-12.049-88.348c2.914-70.615,44.825-79.014,56.658-78.337c11.159,0.642,14.812,39.166,138.548,30.074
		c38.911-2.859-29.927,110.967,19.666,110.967c15.346,0-8.285,45.406-2.332,35.9L404.127,294.492z"/>
	<ellipse fill="#382800" cx="184.286" cy="428.477" rx="40.563" ry="19.373"/>
	<ellipse fill="#382800" cx="243.948" cy="425.957" rx="40.563" ry="19.374"/>
	<ellipse fill="#382800" cx="306.501" cy="422.321" rx="40.563" ry="19.373"/>
</g>
<g id="robot">
</g>
</svg>
