<?xml version="1.0" encoding="utf-8"?>
<!-- Generator: Adobe Illustrator 16.0.1, SVG Export Plug-In . SVG Version: 6.00 Build 0)  -->
<!DOCTYPE svg PUBLIC "-//W3C//DTD SVG 1.1//EN" "http://www.w3.org/Graphics/SVG/1.1/DTD/svg11.dtd">
<svg version="1.1" xmlns="http://www.w3.org/2000/svg" xmlns:xlink="http://www.w3.org/1999/xlink" x="0px" y="0px" width="500px"
	 height="537px" viewBox="0 0 500 537" enable-background="new 0 0 500 537" xml:space="preserve">
<g id="avatar">
	<path fill="#F0BE64" d="M250.927,91.744c-2.307,0.374-4.647-0.874-6.512-2.343c-8.628-6.794-11.927-18.395-12.719-29.348
		c-1.146-15.825,1.949-31.938,8.877-46.212c0.222,5.912,0.718,11.814,1.484,17.681c0.546-9.196,1.451-18.372,2.715-27.498
		c0.693,5.485,1.386,10.97,2.079,16.454c1.359-6.826,2.717-13.652,4.076-20.479c1.359,6.826,2.718,13.652,4.077,20.479
		c0.693-5.484,1.386-10.969,2.079-16.454c1.263,9.126,2.169,18.302,2.714,27.498c0.767-5.866,1.262-11.769,1.485-17.681
		c6.928,14.274,10.023,30.387,8.877,46.212c-0.793,10.953-4.092,22.554-12.719,29.348C255.574,90.87,253.234,92.118,250.927,91.744z
		"/>
</g>
<g id="robot">
</g>
</svg>
