<?xml version="1.0" encoding="utf-8"?>
<!-- Generator: Adobe Illustrator 16.0.1, SVG Export Plug-In . SVG Version: 6.00 Build 0)  -->
<!DOCTYPE svg PUBLIC "-//W3C//DTD SVG 1.1//EN" "http://www.w3.org/Graphics/SVG/1.1/DTD/svg11.dtd">
<svg version="1.1" xmlns="http://www.w3.org/2000/svg" xmlns:xlink="http://www.w3.org/1999/xlink" x="0px" y="0px" width="500px"
	 height="500px" viewBox="0 0 500 500" enable-background="new 0 0 500 500" xml:space="preserve">
<g id="avatar">
	<path fill="#F0BE64" d="M309.542,36.165c-15.32-9.939-29.67-17.514-57.662-17.514c-27.992,0-42.343,7.575-57.662,17.514
		c-58.955,38.238-11.876,90.108-11.876,90.108c-2.641-63.346,8.355-70.736,18.478-75.168c10.018-4.38,30.369,8.919,50.74,9.197
		v0.011c0.107,0,0.214-0.004,0.321-0.005c0.107,0,0.214,0.005,0.321,0.005v-0.011c20.375-0.278,40.727-13.577,50.745-9.197
		c10.118,4.433,21.114,11.822,18.477,75.168C321.423,126.273,368.5,74.403,309.542,36.165z"/>
	<path fill="#F0BE64" d="M180.586,45.438c-6.053-15.757-56.875-21.569-56.875,43.16c0,24.501,12.057,29.583,12.057,52.445
		c0,22.862-18.088,25.402-22.508,19.476c0,0,44.213,46.569,69.229-20.054C182.489,140.465,196.353,81.883,180.586,45.438z"/>
	<path fill="#F0BE64" d="M322.468,45.438c6.053-15.757,56.875-21.569,56.875,43.16c0,24.501-12.057,29.583-12.057,52.445
		c0,22.862,18.088,25.402,22.508,19.476c0,0-44.213,46.569-69.229-20.054C320.565,140.465,306.701,81.883,322.468,45.438z"/>
</g>
<g id="robot">
</g>
</svg>
