<?xml version="1.0" encoding="utf-8"?>
<!-- Generator: Adobe Illustrator 16.0.1, SVG Export Plug-In . SVG Version: 6.00 Build 0)  -->
<!DOCTYPE svg PUBLIC "-//W3C//DTD SVG 1.1//EN" "http://www.w3.org/Graphics/SVG/1.1/DTD/svg11.dtd">
<svg version="1.1" id="content" xmlns="http://www.w3.org/2000/svg" xmlns:xlink="http://www.w3.org/1999/xlink" x="0px" y="0px"
	 width="500px" height="500px" viewBox="0 0 500 500" enable-background="new 0 0 500 500" xml:space="preserve">
<rect id="position" fill="none" width="500" height="500"/>
<g id="bounds">
	<rect x="0.2" fill="none" width="499.497" height="499.5"/>
</g>
<g>
	<ellipse fill="#BFBFC0" cx="258.091" cy="276.238" rx="110.537" ry="113.171"/>
</g>
<g>
	<circle fill="#FFFFFF" cx="216.919" cy="266.339" r="19.675"/>
	<circle fill="#FFFFFF" cx="299.668" cy="266.339" r="19.675"/>
	<path fill="#FFFFFF" d="M278.767,322.049c0,10.864-8.808,19.674-19.676,19.674c-10.865,0-19.676-8.81-19.676-19.674H278.767z"/>
</g>
<path fill="#382800" d="M149.126,296.588c0,0-35.193-33.451-19.559-82.655c10.891-34.273,32.686-42.856,32.686-42.856
	s-4.601-2.918-15.644,1.078c-7.131,2.58-19.961,7.596-19.961,7.596s6.583-17.253,37.85-23.434c4.687-0.925,6.271-1.131,6.271-1.131
	l-21.697-0.654l25.163-7.029l-13.346-14.027l24.929,9.446c0,0,10.051-16.818,21.501-25.113c11.452-8.292,30.047-9.094,30.047-9.094
	l-24.337,20.581c0,0,34.842-19.155,42.087-20.877c7.244-1.721,17.818,0.108,17.818,0.108s-28.242,13.008-36.991,18.322
	c-8.753,5.316,18.496-6.917,28.449-8.892c26.77-5.32,48.081,1.049,75.786,16.881c106.226,60.7,23.65,193.085,14.124,201.16
	c4.889-169.659-192.144-91.73-192.144-91.73L149.126,296.588z"/>
</svg>
