<?xml version="1.0" encoding="utf-8"?>
<!-- Generator: Adobe Illustrator 16.0.1, SVG Export Plug-In . SVG Version: 6.00 Build 0)  -->
<!DOCTYPE svg PUBLIC "-//W3C//DTD SVG 1.1//EN" "http://www.w3.org/Graphics/SVG/1.1/DTD/svg11.dtd">
<svg version="1.1" id="Layer_1" xmlns="http://www.w3.org/2000/svg" xmlns:xlink="http://www.w3.org/1999/xlink" x="0px" y="0px"
	 width="500px" height="525px" viewBox="0 0 500 525" enable-background="new 0 0 500 525" xml:space="preserve">
<g id="robot">
</g>
<path fill="#F0BE64" d="M166.444,144.884c0,0-27.039-25.701-15.026-63.503c8.367-26.331,25.111-32.926,25.111-32.926
	s-3.534-2.241-12.019,0.829c-5.479,1.981-15.336,5.835-15.336,5.835s5.058-13.255,29.079-18.004
	c3.601-0.711,4.818-0.869,4.818-0.869l-16.669-0.501l19.332-5.401L175.48,19.567l19.153,7.257c0,0,7.722-12.921,16.519-19.294
	c8.799-6.37,23.084-6.988,23.084-6.988l-18.697,15.813c0,0,26.769-14.717,32.335-16.04c5.565-1.322,13.688,0.083,13.688,0.083
	s-21.697,9.995-28.419,14.077c-6.725,4.084,14.211-5.314,21.856-6.832c20.567-4.087,36.94,0.807,58.227,12.97
	c81.61,46.635,18.169,148.343,10.852,154.546c3.756-130.345-147.621-70.474-147.621-70.474L166.444,144.884z"/>
</svg>
