<?xml version="1.0" encoding="utf-8"?>
<!-- Generator: Adobe Illustrator 16.0.1, SVG Export Plug-In . SVG Version: 6.00 Build 0)  -->
<!DOCTYPE svg PUBLIC "-//W3C//DTD SVG 1.1//EN" "http://www.w3.org/Graphics/SVG/1.1/DTD/svg11.dtd">
<svg version="1.1" id="content" xmlns="http://www.w3.org/2000/svg" xmlns:xlink="http://www.w3.org/1999/xlink" x="0px" y="0px"
	 width="500px" height="500px" viewBox="0 0 500 500" enable-background="new 0 0 500 500" xml:space="preserve">
<rect id="position" fill="none" width="500" height="500"/>
<g id="bounds">
	<rect x="0.2" fill="none" width="499.497" height="499.5"/>
</g>
<g>
	<circle fill="#BFBFC0" cx="252.312" cy="266.394" r="120.136"/>
</g>
<g>
	<circle fill="#FFFFFF" cx="206.889" cy="253.97" r="21.192"/>
	<circle fill="#FFFFFF" cx="296.018" cy="253.97" r="21.192"/>
	<path fill="#FFFFFF" d="M273.505,313.976c0,11.703-9.487,21.19-21.192,21.19c-11.704,0-21.193-9.487-21.193-21.19H273.505z"/>
</g>
<g>
	<g>
		<path fill="#382800" d="M427.932,163.686c0.1,1.636,0.106,3.359-0.05,5.011c-0.147,1.566-0.444,3.088-0.958,4.411
			c-1.068,2.815-3.097,4.812-6.663,4.81c-4.167-0.008-7.805-2.26-10.9-5.437c-2.165-2.216-4.616-5.484-5.676-7.528
			c-1.212-2.562-28.408-49.895-56.636-46.211c-6.87,0.897-13.09,3.427-18.319,7.324c-4.616,3.434-8.448,7.937-11.278,13.311
			c-6.331,12.04-6.221,25.956-0.41,37.843c0.701,1.432,1.484,2.838,2.351,4.202c1.102,0.502,2.193,1.034,3.275,1.587
			c0.233,0.113,0.473,0.234,0.704,0.355c0.865,0.449,1.726,0.913,2.574,1.4c1.055,0.591,2.104,1.211,3.144,1.855
			c2.338,1.45,4.611,3.01,6.82,4.689c1.522,0.664,3.012,1.394,4.467,2.2c2.399,1.298,4.716,2.762,6.913,4.379
			c0.821,0.592,1.632,1.216,2.418,1.853c3.814,3.077,7.262,6.604,10.279,10.483c1.033,1.321,2.016,2.684,2.936,4.081
			c0.551,0.839,1.094,1.686,1.605,2.552c-0.263-0.783-0.535-1.553-0.814-2.291c1.177,0.389,2.379,0.767,3.579,1.126
			c20.542,6.104,44.261,7.467,59.421-8.765C438.17,194.666,437.86,176.287,427.932,163.686z"/>
	</g>
</g>
<path fill="#382800" d="M334.244,175.584c-21.604-17.567-41.84-30.956-81.312-30.956c-39.474,0-59.71,13.389-81.313,30.956
	c-83.135,67.585-16.747,159.264-16.747,159.264c-3.724-111.962,11.782-125.023,26.058-132.857
	c14.127-7.741,42.824,15.764,71.552,16.255v0.02c0.15,0,0.301-0.007,0.452-0.008c0.15,0,0.303,0.008,0.452,0.008v-0.02
	c28.732-0.491,57.433-23.996,71.56-16.255c14.268,7.835,29.772,20.895,26.054,132.857
	C350.997,334.848,417.383,243.169,334.244,175.584z"/>
</svg>
