<?xml version="1.0" encoding="utf-8"?>
<!-- Generator: Adobe Illustrator 16.0.1, SVG Export Plug-In . SVG Version: 6.00 Build 0)  -->
<!DOCTYPE svg PUBLIC "-//W3C//DTD SVG 1.1//EN" "http://www.w3.org/Graphics/SVG/1.1/DTD/svg11.dtd">
<svg version="1.1" id="Layer_1" xmlns="http://www.w3.org/2000/svg" xmlns:xlink="http://www.w3.org/1999/xlink" x="0px" y="0px"
	 width="500px" height="500px" viewBox="0 0 500 500" enable-background="new 0 0 500 500" xml:space="preserve">
<g id="robot">
</g>
<g>
	<g>
		<path fill="#F0BE64" d="M376.195,32.245c0.07,1.167,0.076,2.396-0.035,3.574c-0.105,1.117-0.317,2.203-0.684,3.146
			c-0.763,2.008-2.209,3.433-4.753,3.431c-2.973-0.006-5.567-1.612-7.775-3.878c-1.544-1.581-3.292-3.912-4.048-5.37
			c-0.865-1.827-20.264-35.59-40.398-32.962c-4.9,0.641-9.336,2.444-13.066,5.225c-3.293,2.449-6.026,5.661-8.045,9.494
			c-4.516,8.588-4.438,18.514-0.293,26.993c0.501,1.021,1.059,2.024,1.677,2.997c0.786,0.358,1.564,0.737,2.337,1.133
			c0.166,0.08,0.337,0.167,0.502,0.253c0.617,0.32,1.23,0.651,1.836,0.999c0.753,0.422,1.501,0.864,2.242,1.323
			c1.668,1.034,3.289,2.146,4.865,3.345c1.086,0.474,2.148,0.994,3.186,1.569c1.712,0.926,3.364,1.97,4.932,3.123
			c0.585,0.423,1.163,0.867,1.725,1.321c2.721,2.195,5.18,4.711,7.332,7.478c0.736,0.942,1.438,1.914,2.094,2.911
			c0.393,0.599,0.78,1.202,1.146,1.82c-0.188-0.559-0.382-1.107-0.581-1.634c0.839,0.277,1.696,0.547,2.553,0.804
			c14.652,4.354,31.57,5.326,42.385-6.252C383.498,54.342,383.277,41.233,376.195,32.245z"/>
	</g>
</g>
<path fill="#F0BE64" d="M309.368,40.731c-15.409-12.53-29.844-22.08-57.999-22.08c-28.156,0-42.591,9.55-58,22.08
	c-59.299,48.208-11.945,113.602-11.945,113.602c-2.656-79.862,8.404-89.178,18.586-94.766c10.077-5.521,30.546,11.244,51.038,11.595
	v0.014c0.106,0,0.214-0.005,0.322-0.006c0.107,0,0.216,0.006,0.323,0.006v-0.014c20.494-0.351,40.966-17.116,51.042-11.595
	c10.177,5.589,21.236,14.904,18.584,94.766C321.318,154.333,368.671,88.939,309.368,40.731z"/>
</svg>
