<?xml version="1.0" encoding="utf-8"?>
<!-- Generator: Adobe Illustrator 16.0.1, SVG Export Plug-In . SVG Version: 6.00 Build 0)  -->
<!DOCTYPE svg PUBLIC "-//W3C//DTD SVG 1.1//EN" "http://www.w3.org/Graphics/SVG/1.1/DTD/svg11.dtd">
<svg version="1.1" id="content" xmlns="http://www.w3.org/2000/svg" xmlns:xlink="http://www.w3.org/1999/xlink" x="0px" y="0px"
	 width="500px" height="500px" viewBox="0 0 500 500" enable-background="new 0 0 500 500" xml:space="preserve">
<rect id="position" x="0" y="0" display="none" fill="none" stroke="#000000" width="500" height="500"/>
<g id="bounds" display="none">
	<rect x="0.2" y="80.2" display="inline" fill="none" stroke="#EAEAEA" stroke-miterlimit="10" width="499.497" height="499.5"/>
</g>
<path fill="#BFBFC0" d="M325.621,196.368c-145.534,12.382-148.195-29.989-148.195-29.989
	c-49.614,33.031-50.433,104.838-50.336,113.828C137.462,339.455,189.131,384.5,251.347,384.5
	c63.259,0,115.64-46.551,124.772-107.265c-3.03-37.329-69.73-117.731-69.73-117.731
	C305.324,177.955,325.621,196.368,325.621,196.368z M203.635,267.52c-12.299,0-22.261-9.965-22.261-22.256
	c0-12.295,9.965-22.263,22.261-22.263c12.293,0,22.256,9.969,22.256,22.263C225.893,257.555,215.929,267.52,203.635,267.52z
	 M251.347,330.551c-12.292,0-22.254-9.967-22.254-22.262h44.517C273.606,320.587,263.643,330.551,251.347,330.551z M297.256,267.52
	c-12.294,0-22.256-9.965-22.256-22.256c0-12.295,9.965-22.263,22.256-22.263c12.29,0,22.261,9.969,22.261,22.263
	C319.517,257.555,309.55,267.52,297.256,267.52z"/>
<circle fill="#FFFFFF" cx="203.635" cy="245.26" r="22.26"/>
<circle fill="#FFFFFF" cx="297.256" cy="245.26" r="22.26"/>
<path fill="#FFFFFF" d="M251.347,330.551c12.299,0,22.259-9.964,22.259-22.262h-44.517
	C229.089,320.585,239.054,330.551,251.347,330.551z"/>
<path fill="#382800" d="M127.09,280.207c-0.096-8.994,0.723-80.797,50.336-113.828c0,0,2.658,42.373,148.195,29.989
	c0,0-20.297-18.413-19.232-36.862c0,0,66.699,80.401,69.73,117.731c0.11,1.357,0.146,2.667,0.08,3.902
	c51.127-75.584-7.821-165.879-128.703-165.879c-101.117,0-177.105,88.496-120.391,165.881
	C127.107,281.141,127.097,280.817,127.09,280.207z"/>
<rect id="position_1_" x="0" y="0" fill="none" width="500" height="500"/>
<g id="bounds_1_">
	<rect x="0.2" y="0" fill="none" width="499.498" height="499.5"/>
</g>
</svg>
