<?xml version="1.0" encoding="utf-8"?>
<!-- Generator: Adobe Illustrator 16.0.1, SVG Export Plug-In . SVG Version: 6.00 Build 0)  -->
<!DOCTYPE svg PUBLIC "-//W3C//DTD SVG 1.1//EN" "http://www.w3.org/Graphics/SVG/1.1/DTD/svg11.dtd">
<svg version="1.1" id="content" xmlns="http://www.w3.org/2000/svg" xmlns:xlink="http://www.w3.org/1999/xlink" x="0px" y="0px"
	 width="500px" height="500px" viewBox="0 0 500 500" enable-background="new 0 0 500 500" xml:space="preserve">
<rect x="116.405" y="174.13" fill="#93C01F" width="265.854" height="307.25"/>
<path opacity="0.47" fill="#006633" d="M283.05,409.417c-0.34,16.109,12.455,29.448,28.571,29.781
	c16.114,0.347,29.454-12.446,29.797-28.56c0.336-16.12-12.46-29.467-28.568-29.806C296.733,380.496,283.386,393.293,283.05,409.417z
	"/>
<path opacity="0.47" fill="#006633" d="M203.234,429.136c-0.114,5.414,4.187,9.896,9.602,10.007
	c5.416,0.118,9.898-4.182,10.013-9.597c0.113-5.417-4.187-9.902-9.6-10.016C207.832,419.415,203.347,423.716,203.234,429.136z"/>
<path opacity="0.47" fill="#006633" d="M239.029,370.583c-0.074,3.517,2.72,6.43,6.238,6.501c3.518,0.075,6.431-2.717,6.505-6.235
	c0.072-3.519-2.72-6.431-6.236-6.507C242.016,364.27,239.104,367.063,239.029,370.583z"/>
<path opacity="0.47" fill="#006633" d="M168.171,367.259c-0.052,2.433,1.879,4.443,4.311,4.493c2.432,0.053,4.445-1.877,4.496-4.309
	c0.051-2.434-1.879-4.446-4.31-4.498C170.236,362.895,168.222,364.826,168.171,367.259z"/>
<g>
	<path fill="#6B1431" d="M136.129,202.421c-5.687,23.839,7.773,56.648,18.78,75.677c16.538,27.062,49.153,42.546,76.01,47.815
		c53.545,10.489,117.845-26.624,128.371-85.27c3.834-23.846,11.32-51.996-18.328-54.313c-28.711-2.301-36.426,23.854-77.943,32.376
		c-20.135,4.139-43.585,4.53-62.072-4.646c-13.863-7.118-50.746-42.35-63.879-13.616"/>
</g>
<g>
	<path fill="#351A21" d="M212.116,278.508c-12.361-11.945-17.006-35.625-15.009-52.545c1.508-12.824,6.765-12.755,17.257-8.547
		c8.113,3.164,16.21,7.869,24.797,11.049c-2.416,4.591-1.488,9.748,0.403,13.87c-8.138,2.482-5.338,13.287,1.345,15.927
		c8.11,3.189,14.841-3.432,13.442-12.164c-0.46-2.073-2.851-2.092-3.321-3.137c-0.463-2.047,0.492-3.581,0.03-5.654
		c-1.404-5.664-1.398-6.674,2.44-9.209c4.799-3.023,13.877-2.927,19.638-5.942c5.744-2.517,11.502-7.599,17.702-3.92
		c5.241,3.641,7.566,14.445,8.49,20.623c1.853,11.325-0.605,23.114-6.396,33.317c-9.171,15.814-27.37,21.781-44.103,22.625
		c-4.782,0.472-10.033-0.093-15.291-1.174C224.478,290.959,220.218,283.214,212.116,278.508z"/>
</g>
<g>
	<path fill="#FFFFFF" d="M176.289,200.434c6.043,10.771,11.9,80.227,25.969,61.38c5.627-7.534,1.938-37.473,15.608-29.377
		c3.418,2.039,3.271,11.658,6.693,13.679c6.831,4.042,8.338-4.566,12.534-8.296c4.923-6.585,2.222-10.515,10.448-7.388
		c4.794,2.066,5.992,14.611,12.221,12.851c11.771-3.51,3.847-26.816,18.853-15.802c6.805,5.976,12.687,27.313,20.94,28.524
		c12.378,2.29,14.122-21.712,14.297-33.265c0.144-9.609,1.217-18.847-0.708-28.5c-10.384,2.57-21.15,14.386-33.61,17.879
		c-11.761,2.543-23.518,5.098-35.248,5.699c-21.362,1.304-48.856-11.008-67.965-19.743"/>
</g>
<g>
	<path fill="#E20613" d="M187.767,308.532c5.069-16.207,18.293-24.474,30.049-27.009c10.38-2.598,21.936,8.33,30.93,6.675
		c4.834-0.839,9.115-10.327,14.653-12.076c6.235-1.743,13.784,0.393,20.647,2.517c11.672,3.224,22.413,15.154,31.186,27.913
		c-24.007,20.421-56.777,21.984-77.437,20.415C223.339,325.566,189.647,316.861,187.767,308.532"/>
</g>
<g>
	<path fill="#BD1622" d="M208.083,284.915c13.122-8.77,29.39,19.297,35.378,33.906c3.718-18.165,14.288-33.247,25.459-42.554
		c-9.562-6.055-15.436,8.729-24.426,10.387C236.21,287.376,221.477,274.331,208.083,284.915z"/>
</g>
</svg>
