<?xml version="1.0" encoding="utf-8"?>
<!-- Generator: Adobe Illustrator 16.0.1, SVG Export Plug-In . SVG Version: 6.00 Build 0)  -->
<!DOCTYPE svg PUBLIC "-//W3C//DTD SVG 1.1//EN" "http://www.w3.org/Graphics/SVG/1.1/DTD/svg11.dtd">
<svg version="1.1" id="Layer_2" xmlns="http://www.w3.org/2000/svg" xmlns:xlink="http://www.w3.org/1999/xlink" x="0px" y="0px"
	 width="500px" height="500px" viewBox="0 0 500 500" enable-background="new 0 0 500 500" xml:space="preserve">
<g>
	<g>
		<path fill="#008D36" d="M157.406,338.494c0,11.979-9.8,21.778-21.778,21.778h-0.589c-11.978,0-21.778-9.8-21.778-21.778V218.491
			c0-11.978,9.8-21.778,21.778-21.778h0.589c11.978,0,21.778,9.8,21.778,21.778V338.494z"/>
	</g>
</g>
<path fill="#93C01F" d="M160.742,323.7c0,15.043-50.814,15.043-50.814,0V220.784c0-15.043,9.824-27.351,21.832-27.351h7.149
	c12.009,0,21.833,12.308,21.833,27.351V323.7z"/>
<path opacity="0.47" fill="#006633" d="M127.568,269.645c-0.143,6.85,5.296,12.512,12.152,12.656
	c6.853,0.146,12.525-5.283,12.669-12.14c0.145-6.86-5.296-12.526-12.15-12.671C133.386,257.344,127.713,262.778,127.568,269.645z"/>
<path opacity="0.47" fill="#006633" d="M117.262,313.957c-0.076,3.662,2.833,6.691,6.499,6.768c3.665,0.078,6.697-2.825,6.775-6.491
	c0.077-3.669-2.833-6.698-6.498-6.776C120.374,307.379,117.34,310.285,117.262,313.957z"/>
<path opacity="0.47" fill="#006633" d="M123.953,213.371c-0.048,2.298,1.777,4.198,4.077,4.247c2.299,0.049,4.202-1.772,4.25-4.073
	c0.048-2.302-1.777-4.203-4.077-4.251S124.001,211.067,123.953,213.371z"/>
<g>
	<path fill="#93C01F" d="M118.116,211.721c-14.824-9.713-34.768-9.922-48.478,1.646c-16.994,13.512-17.969,30.45-18.236,49.257
		c9.763-9.605,19.949,0.832,20.825,10.839c9.103-9.591,22.518-3.604,26.076,7.601c4.307-16.382,21.89-33.668,41.166-33.445
		c-3.57-11.832-12-33.586-26.042-37.678"/>
</g>
<g opacity="0.47">
	<path fill="#006633" d="M98.572,280.107c-4.291-12.086,18.076-44.27,13.44-40.62c-19.438,0.906-33.942,11.123-38.815,29.569
		c-8.688-13.203,17.04-40.02,31.195-41.802c-22.71-4.979-43.862,14.303-49.774,33.266c-0.763-11.385,14.21-49.484,59.408-50.327
		c-0.811,11.42,8.972,26.584,6.57,37.541C117.673,258.703,101.981,267.149,98.572,280.107"/>
</g>
<g>
	<path fill="#008D36" d="M118.797,344.461c-1.468,7.99-11.909,9.721-7.556,19.135c1.653,3.937,4.217,5.725,8.321,6.46
		c3.457,0.507,7.136,0.802,7.261,5.138c5.148-7.695-8.074-7.756-10.377-11.706c-1.668-3.069-0.521-6.08,0.617-8.658
		c1.8-3.214,2.491-5.15,1.489-9.073"/>
</g>
<g>
	<path fill="#008D36" d="M141.618,341.76c-1.446,12.383-10.998,15.201-7.15,29.711c1.456,6.068,3.772,8.801,7.507,9.885
		c3.148,0.736,6.501,1.145,6.558,7.854c4.801-11.977-7.265-11.895-9.313-17.977c-1.481-4.727-0.395-9.4,0.678-13.404
		c1.686-4.998,2.342-8.004,1.48-14.061"/>
</g>
<g>
	<path fill="#008D36" d="M167.927,356.049c-4.824,0.258-8.206-4.29-12.917-4.945c-5.783-0.557-7.256,6.223-3.733,10.215
		c3.332,3.832,24.166,11.479,10.878,18.601c10.154-9.444-13.399-13.716-16.374-17.577c-5.299-6.17,0.854-15.331,9.539-14.319"/>
</g>
<circle fill="#F3982B" cx="126.392" cy="375.193" r="4.752"/>
<circle fill="#F3982B" cx="148.564" cy="390.066" r="4.752"/>
<circle fill="#F3982B" cx="161.229" cy="381.352" r="4.752"/>
<circle fill="#F3982B" cx="168.665" cy="357.939" r="4.752"/>
</svg>
