<?xml version="1.0" encoding="utf-8"?>
<!-- Generator: Adobe Illustrator 16.0.1, SVG Export Plug-In . SVG Version: 6.00 Build 0)  -->
<!DOCTYPE svg PUBLIC "-//W3C//DTD SVG 1.1//EN" "http://www.w3.org/Graphics/SVG/1.1/DTD/svg11.dtd">
<svg version="1.1" id="content" xmlns="http://www.w3.org/2000/svg" xmlns:xlink="http://www.w3.org/1999/xlink" x="0px" y="0px"
	 width="500px" height="500px" viewBox="0 0 500 500" enable-background="new 0 0 500 500" xml:space="preserve">
<rect id="position" x="0.5" y="0.5" display="none" fill="none" stroke="#000000" width="499" height="499"/>
<g>
	<path fill="#D5D5D5" d="M160.34,101.309c-19.362,0-26.158,16.631-26.158,36.977l17.203,257.077c0,1.949,1.5,3.534,3.347,3.534
		c5.656,0,96.208,0,96.208,0s87.232,0,92.877,0c1.86,0,3.359-1.585,3.359-3.534l20.521-257.077c0-20.346-6.804-36.977-26.146-36.977
		H160.34z"/>
	<polygon fill="#BFBFC0" points="273.897,101.309 232.992,101.309 234.425,398.896 275.332,398.896 	"/>
	<polygon fill="#F0F0F0" points="268.368,101.309 231.978,101.309 233.253,398.896 269.643,398.896 	"/>
	<g>
		<path fill="#BFBFC0" d="M257.679,117.048c0,3.724-3.017,6.747-6.746,6.747c-3.722,0-6.749-3.023-6.749-6.747
			c0-3.729,3.027-6.75,6.749-6.75C254.662,110.297,257.679,113.319,257.679,117.048z"/>
		<g>
			<path fill="#D9D9D9" d="M249.734,114.606c0,0.683-0.552,1.239-1.24,1.239s-1.241-0.556-1.241-1.239s0.553-1.241,1.241-1.241
				S249.734,113.923,249.734,114.606z"/>
			<path fill="#D9D9D9" d="M254.616,114.606c0,0.683-0.561,1.239-1.241,1.239c-0.68,0-1.241-0.556-1.241-1.239
				s0.562-1.241,1.241-1.241C254.056,113.365,254.616,113.923,254.616,114.606z"/>
			<path fill="#D9D9D9" d="M254.616,119.488c0,0.681-0.561,1.235-1.241,1.235c-0.68,0-1.241-0.554-1.241-1.235
				c0-0.683,0.562-1.242,1.241-1.242C254.056,118.247,254.616,118.805,254.616,119.488z"/>
			<path fill="#D9D9D9" d="M249.734,119.488c0,0.681-0.552,1.235-1.24,1.235s-1.241-0.554-1.241-1.235
				c0-0.683,0.553-1.242,1.241-1.242S249.734,118.805,249.734,119.488z"/>
		</g>
	</g>
	<g>
		<path fill="#BFBFC0" d="M257.679,172.248c0,3.724-3.017,6.75-6.746,6.75c-3.722,0-6.749-3.026-6.749-6.75
			c0-3.726,3.027-6.747,6.749-6.747C254.662,165.5,257.679,168.522,257.679,172.248z"/>
		<g>
			<path fill="#D9D9D9" d="M249.734,169.807c0,0.686-0.552,1.241-1.24,1.241s-1.241-0.556-1.241-1.241
				c0-0.683,0.553-1.241,1.241-1.241S249.734,169.124,249.734,169.807z"/>
			<path fill="#D9D9D9" d="M254.616,169.807c0,0.686-0.561,1.241-1.241,1.241c-0.68,0-1.241-0.556-1.241-1.241
				c0-0.683,0.562-1.241,1.241-1.241C254.056,168.566,254.616,169.124,254.616,169.807z"/>
			<path fill="#D9D9D9" d="M254.616,174.687c0,0.684-0.561,1.242-1.241,1.242c-0.68,0-1.241-0.558-1.241-1.242
				c0-0.681,0.562-1.24,1.241-1.24C254.056,173.446,254.616,174.006,254.616,174.687z"/>
			<path fill="#D9D9D9" d="M249.734,174.687c0,0.684-0.552,1.242-1.24,1.242s-1.241-0.558-1.241-1.242
				c0-0.681,0.553-1.24,1.241-1.24S249.734,174.006,249.734,174.687z"/>
		</g>
	</g>
	<g>
		<path fill="#BFBFC0" d="M257.679,227.451c0,3.725-3.017,6.748-6.746,6.748c-3.722,0-6.749-3.023-6.749-6.748
			c0-3.729,3.027-6.75,6.749-6.75C254.662,220.701,257.679,223.722,257.679,227.451z"/>
		<g>
			<path fill="#D9D9D9" d="M249.734,225.005c0,0.687-0.552,1.242-1.24,1.242s-1.241-0.555-1.241-1.242
				c0-0.68,0.553-1.237,1.241-1.237S249.734,224.326,249.734,225.005z"/>
			<path fill="#D9D9D9" d="M254.616,225.005c0,0.687-0.561,1.242-1.241,1.242c-0.68,0-1.241-0.555-1.241-1.242
				c0-0.68,0.562-1.237,1.241-1.237C254.056,223.769,254.616,224.326,254.616,225.005z"/>
			<path fill="#D9D9D9" d="M254.616,229.889c0,0.681-0.561,1.239-1.241,1.239c-0.68,0-1.241-0.558-1.241-1.239
				c0-0.684,0.562-1.239,1.241-1.239C254.056,228.65,254.616,229.205,254.616,229.889z"/>
			<path fill="#D9D9D9" d="M249.734,229.889c0,0.681-0.552,1.239-1.24,1.239s-1.241-0.558-1.241-1.239
				c0-0.684,0.553-1.239,1.241-1.239S249.734,229.205,249.734,229.889z"/>
		</g>
	</g>
	<g>
		<path fill="#BFBFC0" d="M257.679,282.651c0,3.726-3.017,6.748-6.746,6.748c-3.722,0-6.749-3.022-6.749-6.748
			c0-3.729,3.027-6.748,6.749-6.748C254.662,275.903,257.679,278.922,257.679,282.651z"/>
		<g>
			<path fill="#D9D9D9" d="M249.734,280.209c0,0.685-0.552,1.239-1.24,1.239s-1.241-0.555-1.241-1.239c0-0.68,0.553-1.24,1.241-1.24
				S249.734,279.529,249.734,280.209z"/>
			<path fill="#D9D9D9" d="M254.616,280.209c0,0.685-0.561,1.239-1.241,1.239c-0.68,0-1.241-0.555-1.241-1.239
				c0-0.68,0.562-1.24,1.241-1.24C254.056,278.969,254.616,279.529,254.616,280.209z"/>
			<path fill="#D9D9D9" d="M254.616,285.092c0,0.683-0.561,1.238-1.241,1.238c-0.68,0-1.241-0.556-1.241-1.238
				c0-0.682,0.562-1.24,1.241-1.24C254.056,283.852,254.616,284.41,254.616,285.092z"/>
			<path fill="#D9D9D9" d="M249.734,285.092c0,0.683-0.552,1.238-1.24,1.238s-1.241-0.556-1.241-1.238
				c0-0.682,0.553-1.24,1.241-1.24S249.734,284.41,249.734,285.092z"/>
		</g>
	</g>
	<g>
		<path fill="#BFBFC0" d="M257.679,337.852c0,3.725-3.017,6.751-6.746,6.751c-3.722,0-6.749-3.026-6.749-6.751
			c0-3.727,3.027-6.749,6.749-6.749C254.662,331.103,257.679,334.125,257.679,337.852z"/>
		<g>
			<path fill="#D9D9D9" d="M249.734,335.41c0,0.686-0.552,1.241-1.24,1.241s-1.241-0.556-1.241-1.241
				c0-0.682,0.553-1.241,1.241-1.241S249.734,334.729,249.734,335.41z"/>
			<path fill="#D9D9D9" d="M254.616,335.41c0,0.686-0.561,1.241-1.241,1.241c-0.68,0-1.241-0.556-1.241-1.241
				c0-0.682,0.562-1.241,1.241-1.241C254.056,334.169,254.616,334.729,254.616,335.41z"/>
			<path fill="#D9D9D9" d="M254.616,340.291c0,0.684-0.561,1.241-1.241,1.241c-0.68,0-1.241-0.558-1.241-1.241
				c0-0.682,0.562-1.239,1.241-1.239C254.056,339.052,254.616,339.609,254.616,340.291z"/>
			<path fill="#D9D9D9" d="M249.734,340.291c0,0.684-0.552,1.241-1.24,1.241s-1.241-0.558-1.241-1.241
				c0-0.682,0.553-1.239,1.241-1.239S249.734,339.609,249.734,340.291z"/>
		</g>
	</g>
</g>
<path fill="#D5D5D5" d="M140.917,196.997c0,20.179-68.164,20.179-68.164,0v-59.204c0-20.179,13.178-36.689,29.286-36.689h9.59
	c16.108,0,29.288,16.51,29.288,36.689V196.997z"/>
<path fill="#D5D5D5" d="M428.594,197.377c0,20.179-68.165,20.179-68.165,0v-59.204c0-20.179,13.18-36.689,29.286-36.689h9.591
	c16.107,0,29.288,16.51,29.288,36.689V197.377z"/>
<polygon fill="#BFBFC0" points="174.177,125.758 221.961,169.807 248.494,103.613 "/>
<polygon fill="#BFBFC0" points="329.404,123.795 280.1,169.807 255.09,103.613 "/>
<polygon fill="#F5F7F8" points="196.449,101.309 249.605,101.309 221.055,160.451 174.177,120.734 "/>
<polygon fill="#F5F7F8" points="305.432,101.309 252.134,101.309 280.824,160.451 327.702,120.734 "/>
<path fill="#F5F7F8" d="M72.906,190.617v8.115c0,20.179,68.163,20.179,68.163,0v-8.115
	C141.069,210.795,72.906,210.795,72.906,190.617z"/>
<path fill="#F5F7F8" d="M360.734,190.997v8.115c0,20.179,68.164,20.179,68.164,0v-8.115
	C428.898,211.175,360.734,211.175,360.734,190.997z"/>
<rect x="104.396" y="101.309" fill="#D5D5D5" width="58.591" height="38.499"/>
<rect x="337" y="101.309" fill="#D5D5D5" width="58.59" height="38.499"/>
</svg>
