<?xml version="1.0" encoding="utf-8"?>
<!-- Generator: Adobe Illustrator 16.0.1, SVG Export Plug-In . SVG Version: 6.00 Build 0)  -->
<!DOCTYPE svg PUBLIC "-//W3C//DTD SVG 1.1//EN" "http://www.w3.org/Graphics/SVG/1.1/DTD/svg11.dtd">
<svg version="1.1" id="content" xmlns="http://www.w3.org/2000/svg" xmlns:xlink="http://www.w3.org/1999/xlink" x="0px" y="0px"
	 width="500px" height="500px" viewBox="0 0 500 500" enable-background="new 0 0 500 500" xml:space="preserve">
<path fill="#D5D5D5" d="M303.135,174.13c0.001,0.124-109.312,0.124-109.312,0h-77.419v307.253h265.854V174.13H303.135z"/>
<g>
	<path fill="#FED9AE" d="M347.67,424.71c-1.392,16.347-15.954,29.722-32.36,29.722H178.362c-16.406,0-30.948-13.376-32.316-29.726
		L127.865,207.4c-1.368-16.349,10.937-29.725,27.342-29.725h183.677c16.406,0,28.689,13.375,27.298,29.722L347.67,424.71z"/>
</g>
<path fill="#D5D5D5" d="M153.503,174.13c-19.991,0-27.007,17.171-27.007,38.178l17.761,265.425c0,2.013,1.548,3.649,3.456,3.649
	c5.84,0,99.333,0,99.333,0s90.065,0,95.894,0c1.921,0,3.468-1.637,3.468-3.649l21.188-265.425c0-21.007-7.024-38.178-26.996-38.178
	H153.503z"/>
<polygon fill="#BFBFC0" points="270.749,174.13 228.515,174.13 229.994,481.383 272.229,481.383 "/>
<polygon fill="#F0F0F0" points="265.04,174.13 227.468,174.13 228.784,481.383 266.355,481.383 "/>
<path fill="#BFBFC0" d="M254.003,190.38c0,3.845-3.114,6.966-6.965,6.966c-3.843,0-6.968-3.121-6.968-6.966
	c0-3.85,3.125-6.97,6.968-6.97C250.889,183.411,254.003,186.53,254.003,190.38z"/>
<path fill="#D9D9D9" d="M250.841,192.9c0,0.704-0.578,1.275-1.282,1.275c-0.7,0-1.28-0.572-1.28-1.275
	c0-0.705,0.58-1.282,1.28-1.282C250.263,191.618,250.841,192.195,250.841,192.9z"/>
<path fill="#D9D9D9" d="M245.801,192.9c0,0.704-0.57,1.275-1.281,1.275c-0.71,0-1.281-0.572-1.281-1.275
	c0-0.705,0.571-1.282,1.281-1.282C245.23,191.618,245.801,192.195,245.801,192.9z"/>
<g>
	<path fill="#BFBFC0" d="M254.003,247.373c0,3.845-3.114,6.969-6.965,6.969c-3.843,0-6.968-3.124-6.968-6.969
		c0-3.846,3.125-6.966,6.968-6.966C250.889,240.407,254.003,243.526,254.003,247.373z"/>
	<g>
		<path fill="#D9D9D9" d="M245.801,244.852c0,0.708-0.57,1.282-1.281,1.282c-0.71,0-1.281-0.573-1.281-1.282
			c0-0.705,0.571-1.281,1.281-1.281C245.23,243.571,245.801,244.147,245.801,244.852z"/>
		<path fill="#D9D9D9" d="M250.841,244.852c0,0.708-0.578,1.282-1.282,1.282c-0.7,0-1.28-0.573-1.28-1.282
			c0-0.705,0.58-1.281,1.28-1.281C250.263,243.571,250.841,244.147,250.841,244.852z"/>
		<path fill="#D9D9D9" d="M250.841,249.891c0,0.706-0.578,1.282-1.282,1.282c-0.7,0-1.28-0.576-1.28-1.282
			c0-0.704,0.58-1.281,1.28-1.281C250.263,248.61,250.841,249.188,250.841,249.891z"/>
		<path fill="#D9D9D9" d="M245.801,249.891c0,0.706-0.57,1.282-1.281,1.282c-0.71,0-1.281-0.576-1.281-1.282
			c0-0.704,0.571-1.281,1.281-1.281C245.23,248.61,245.801,249.188,245.801,249.891z"/>
	</g>
</g>
<g>
	<path fill="#BFBFC0" d="M254.003,304.369c0,3.846-3.114,6.967-6.965,6.967c-3.843,0-6.968-3.121-6.968-6.967
		c0-3.851,3.125-6.97,6.968-6.97C250.889,297.399,254.003,300.519,254.003,304.369z"/>
	<g>
		<path fill="#D9D9D9" d="M245.801,301.844c0,0.709-0.57,1.282-1.281,1.282c-0.71,0-1.281-0.573-1.281-1.282
			c0-0.702,0.571-1.276,1.281-1.276C245.23,300.567,245.801,301.142,245.801,301.844z"/>
		<path fill="#D9D9D9" d="M250.841,301.844c0,0.709-0.578,1.282-1.282,1.282c-0.7,0-1.28-0.573-1.28-1.282
			c0-0.702,0.58-1.276,1.28-1.276C250.263,300.567,250.841,301.142,250.841,301.844z"/>
		<path fill="#D9D9D9" d="M250.841,306.887c0,0.703-0.578,1.279-1.282,1.279c-0.7,0-1.28-0.576-1.28-1.279
			c0-0.706,0.58-1.28,1.28-1.28C250.263,305.606,250.841,306.181,250.841,306.887z"/>
		<path fill="#D9D9D9" d="M245.801,306.887c0,0.703-0.57,1.279-1.281,1.279c-0.71,0-1.281-0.576-1.281-1.279
			c0-0.706,0.571-1.28,1.281-1.28C245.23,305.606,245.801,306.181,245.801,306.887z"/>
	</g>
</g>
<g>
	<path fill="#BFBFC0" d="M254.003,361.361c0,3.849-3.114,6.969-6.965,6.969c-3.843,0-6.968-3.12-6.968-6.969
		c0-3.851,3.125-6.967,6.968-6.967C250.889,354.395,254.003,357.511,254.003,361.361z"/>
	<g>
		<path fill="#D9D9D9" d="M245.801,358.841c0,0.707-0.57,1.279-1.281,1.279c-0.71,0-1.281-0.572-1.281-1.279
			c0-0.702,0.571-1.281,1.281-1.281C245.23,357.56,245.801,358.139,245.801,358.841z"/>
		<path fill="#D9D9D9" d="M250.841,358.841c0,0.707-0.578,1.279-1.282,1.279c-0.7,0-1.28-0.572-1.28-1.279
			c0-0.702,0.58-1.281,1.28-1.281C250.263,357.56,250.841,358.139,250.841,358.841z"/>
		<path fill="#D9D9D9" d="M250.841,363.882c0,0.706-0.578,1.279-1.282,1.279c-0.7,0-1.28-0.573-1.28-1.279
			c0-0.704,0.58-1.28,1.28-1.28C250.263,362.602,250.841,363.178,250.841,363.882z"/>
		<path fill="#D9D9D9" d="M245.801,363.882c0,0.706-0.57,1.279-1.281,1.279c-0.71,0-1.281-0.573-1.281-1.279
			c0-0.704,0.571-1.28,1.281-1.28C245.23,362.602,245.801,363.178,245.801,363.882z"/>
	</g>
</g>
<g>
	<path fill="#BFBFC0" d="M254.003,418.355c0,3.845-3.114,6.97-6.965,6.97c-3.843,0-6.968-3.125-6.968-6.97
		c0-3.848,3.125-6.968,6.968-6.968C250.889,411.388,254.003,414.508,254.003,418.355z"/>
	<g>
		<path fill="#D9D9D9" d="M245.801,415.834c0,0.709-0.57,1.282-1.281,1.282c-0.71,0-1.281-0.573-1.281-1.282
			c0-0.703,0.571-1.28,1.281-1.28C245.23,414.554,245.801,415.131,245.801,415.834z"/>
		<path fill="#D9D9D9" d="M250.841,415.834c0,0.709-0.578,1.282-1.282,1.282c-0.7,0-1.28-0.573-1.28-1.282
			c0-0.703,0.58-1.28,1.28-1.28C250.263,414.554,250.841,415.131,250.841,415.834z"/>
		<path fill="#D9D9D9" d="M250.841,420.874c0,0.706-0.578,1.28-1.282,1.28c-0.7,0-1.28-0.574-1.28-1.28
			c0-0.703,0.58-1.279,1.28-1.279C250.263,419.595,250.841,420.171,250.841,420.874z"/>
		<path fill="#D9D9D9" d="M245.801,420.874c0,0.706-0.57,1.28-1.281,1.28c-0.71,0-1.281-0.574-1.281-1.28
			c0-0.703,0.571-1.279,1.281-1.279C245.23,419.595,245.801,420.171,245.801,420.874z"/>
	</g>
</g>
<polygon fill="#BFBFC0" points="167.79,199.373 217.126,244.853 244.52,176.509 "/>
<polygon fill="#BFBFC0" points="328.06,197.346 277.151,244.853 251.331,176.509 "/>
<polygon fill="#F5F7F8" points="190.785,174.13 245.668,174.13 216.189,235.193 167.79,194.186 "/>
<polygon fill="#F5F7F8" points="303.307,174.13 248.278,174.13 277.901,235.193 326.301,194.186 "/>
</svg>
