<?xml version="1.0" encoding="utf-8"?>
<!-- Generator: Adobe Illustrator 16.0.1, SVG Export Plug-In . SVG Version: 6.00 Build 0)  -->
<!DOCTYPE svg PUBLIC "-//W3C//DTD SVG 1.1//EN" "http://www.w3.org/Graphics/SVG/1.1/DTD/svg11.dtd">
<svg version="1.1" id="content" xmlns="http://www.w3.org/2000/svg" xmlns:xlink="http://www.w3.org/1999/xlink" x="0px" y="0px"
	 width="500px" height="500px" viewBox="0 0 500 500" enable-background="new 0 0 500 500" xml:space="preserve">
<rect x="116.403" y="174.13" fill="#E8EFF2" width="265.854" height="307.251"/>
<path fill="#A9ABBE" d="M381.971,174.16H115.708l0.695,91.183c0,0,28.723-71.617,71.487-71.617s66.605,0.102,116.219,0.102
	s78.148,73.592,78.148,73.592"/>
<g>
	<g>
		<polygon fill="#AA0E00" points="222.067,234.323 222.073,234.336 222.077,234.344 		"/>
	</g>
	<g>
		<polygon fill="#AA0E00" points="198.06,255.556 198.073,255.564 198.083,255.569 		"/>
	</g>
	<g>
		<path fill="#AA0E00" d="M187.89,285.952h0.006c0.007,0,0.013,0,0.02,0H187.89z"/>
	</g>
	<g>
		<path fill="#AA0E00" d="M194.281,317.361h0.002c0.007-0.003,0.011-0.008,0.018-0.013L194.281,317.361z"/>
	</g>
	<g>
		<path fill="#AA0E00" d="M215.519,341.369l0.002-0.003c0.003-0.01,0.006-0.017,0.009-0.022L215.519,341.369z"/>
	</g>
	<g>
		<path fill="#852C2E" d="M320.563,292.333c3.03-0.601,5.946-1.588,8.69-2.818c-2.941,0.671-5.914,1.055-8.866,1.05
			c-2.95,0.005-5.91-0.311-8.912-0.604l0.292,0.026c-6.104-1.637-12.046-3.921-18.624-5.482c-3.291-0.772-6.758-1.324-10.354-1.415
			c-1.789-0.042-3.597,0.026-5.411,0.215c-0.324-1.412-0.756-2.783-1.281-4.103c0.326-0.398,0.658-0.802,1.012-1.183
			c0.931-1.023,1.943-1.988,3.028-2.896c2.168-1.82,4.653-3.42,7.336-4.854c5.381-2.864,11.495-5.143,17.351-8.024l0.289-0.142
			l-0.024,0.018c2.448-1.762,4.969-3.529,7.282-5.571c2.325-2.034,4.354-4.341,6.119-6.78c-2.216,2.053-4.6,3.87-7.159,5.34
			c-2.552,1.48-5.273,2.688-8.018,3.935l0.265-0.125c-6.104,1.634-12.39,2.625-18.87,4.565c-3.234,0.975-6.513,2.231-9.673,3.952
			c-1.574,0.855-3.11,1.822-4.589,2.896c-0.977-1.049-2.029-2.025-3.153-2.91c0.085-0.512,0.17-1.028,0.286-1.538
			c0.295-1.352,0.69-2.693,1.176-4.023c0.969-2.658,2.319-5.286,3.927-7.868c3.227-5.169,7.384-10.201,11.013-15.624l0.18-0.265
			l-0.008,0.026c1.235-2.749,2.535-5.541,3.514-8.466c0.999-2.923,1.601-5.941,1.908-8.934c-0.891,2.887-2.045,5.652-3.528,8.208
			c-1.466,2.556-3.221,4.962-4.975,7.414l0.167-0.24c-4.47,4.467-9.42,8.47-14.062,13.39c-2.31,2.461-4.522,5.185-6.397,8.251
			c-0.931,1.521-1.773,3.121-2.512,4.777c-1.358-0.416-2.766-0.7-4.197-0.906c-0.184-0.488-0.369-0.985-0.528-1.486
			c-0.418-1.319-0.749-2.678-0.995-4.07c-0.489-2.789-0.631-5.73-0.524-8.773c0.203-6.092,1.281-12.529,1.724-19.042l0.021-0.303
			c-0.301-2.994-0.572-6.057-1.184-9.08c-0.6-3.028-1.582-5.94-2.814-8.69c0.671,2.945,1.053,5.919,1.05,8.871
			c0.005,2.952-0.313,5.906-0.604,8.911l0.026-0.292c-1.642,6.106-3.927,12.047-5.49,18.628c-0.771,3.287-1.325,6.754-1.413,10.348
			c-0.043,1.785,0.024,3.6,0.215,5.407c-1.413,0.328-2.784,0.754-4.108,1.284c-0.397-0.328-0.799-0.663-1.182-1.013
			c-1.018-0.933-1.985-1.94-2.895-3.026c-1.823-2.17-3.416-4.65-4.847-7.333c-2.868-5.379-5.151-11.495-8.027-17.351l-0.134-0.274
			c-1.756-2.443-3.523-4.961-5.563-7.273c-2.033-2.322-4.343-4.353-6.783-6.119c2.053,2.214,3.869,4.601,5.343,7.159
			c1.482,2.553,2.684,5.27,3.935,8.017l-0.125-0.264c1.636,6.106,2.626,12.392,4.564,18.868c0.977,3.234,2.233,6.515,3.955,9.671
			c0.855,1.573,1.822,3.11,2.895,4.585c-1.047,0.979-2.024,2.032-2.915,3.16c-0.51-0.086-1.027-0.174-1.536-0.287
			c-1.35-0.3-2.693-0.688-4.023-1.175c-2.663-0.97-5.282-2.317-7.866-3.93c-5.171-3.225-10.207-7.379-15.627-11.014l-0.252-0.171
			c-2.743-1.236-5.531-2.53-8.454-3.512c-2.923-0.996-5.937-1.599-8.935-1.908c2.887,0.891,5.652,2.048,8.208,3.527
			c2.559,1.468,4.958,3.218,7.413,4.976l-0.238-0.17c4.469,4.474,8.471,9.42,13.389,14.064c2.463,2.309,5.189,4.522,8.259,6.396
			c1.518,0.928,3.118,1.771,4.774,2.51c-0.414,1.358-0.702,2.766-0.908,4.205c-0.488,0.181-0.983,0.364-1.485,0.521
			c-1.318,0.419-2.675,0.749-4.071,0.994c-2.791,0.493-5.734,0.637-8.775,0.531c-6.094-0.207-12.53-1.288-19.041-1.723l-0.314-0.024
			c-2.99,0.302-6.05,0.57-9.07,1.183c-3.03,0.6-5.942,1.585-8.691,2.815c2.945-0.672,5.919-1.053,8.872-1.047
			c2.95-0.007,5.905,0.311,8.908,0.601l-0.29-0.023c6.105,1.639,12.045,3.92,18.626,5.481c3.289,0.773,6.755,1.324,10.352,1.414
			c1.786,0.044,3.599-0.026,5.41-0.216c0.327,1.413,0.752,2.783,1.281,4.105c-0.326,0.4-0.659,0.803-1.011,1.183
			c-0.931,1.021-1.942,1.988-3.028,2.896c-2.17,1.822-4.649,3.419-7.335,4.85c-5.38,2.866-11.496,5.149-17.352,8.026l-0.285,0.141
			c-2.438,1.754-4.953,3.516-7.262,5.554c-2.324,2.035-4.353,4.345-6.119,6.786c2.214-2.053,4.599-3.87,7.158-5.345
			c2.551-1.48,5.27-2.683,8.017-3.932l-0.263,0.125c6.105-1.635,12.393-2.629,18.871-4.567c3.235-0.976,6.515-2.23,9.672-3.951
			c1.571-0.858,3.109-1.825,4.586-2.897c0.98,1.049,2.03,2.023,3.156,2.913c-0.084,0.511-0.17,1.027-0.286,1.537
			c-0.296,1.351-0.688,2.69-1.174,4.023c-0.969,2.662-2.319,5.281-3.927,7.867c-3.228,5.173-7.381,10.204-11.014,15.625
			l-0.177,0.267c-1.235,2.738-2.532,5.523-3.511,8.438c-0.997,2.924-1.598,5.941-1.907,8.938c0.892-2.889,2.049-5.651,3.528-8.209
			c1.468-2.559,3.221-4.958,4.977-7.413l-0.167,0.237c4.47-4.465,9.418-8.47,14.061-13.39c2.313-2.46,4.526-5.186,6.4-8.254
			c0.928-1.523,1.769-3.119,2.509-4.779c1.364,0.416,2.768,0.721,4.208,0.928c0.18,0.482,0.362,0.971,0.517,1.465
			c0.418,1.32,0.749,2.676,0.995,4.073c0.492,2.788,0.635,5.733,0.531,8.775c-0.207,6.095-1.289,12.53-1.724,19.041l-0.021,0.32
			l-0.002-0.027c0.302,3,0.571,6.064,1.181,9.091c0.601,3.028,1.588,5.94,2.823,8.692c-0.673-2.945-1.055-5.922-1.053-8.872
			c-0.005-2.949,0.313-5.906,0.605-8.911l-0.025,0.293c1.641-6.104,3.924-12.047,5.484-18.627c0.771-3.288,1.324-6.756,1.413-10.351
			c0.045-1.791-0.022-3.611-0.216-5.428c1.408-0.332,2.786-0.74,4.104-1.265c0.4,0.324,0.802,0.657,1.184,1.01
			c1.025,0.933,1.988,1.943,2.898,3.027c1.818,2.172,3.419,4.653,4.848,7.335c2.868,5.385,5.146,11.495,8.029,17.354l0.143,0.289
			l-0.02-0.022c1.765,2.445,3.532,4.967,5.571,7.279c2.034,2.322,4.343,4.355,6.782,6.12c-2.053-2.214-3.871-4.6-5.342-7.16
			c-1.481-2.55-2.686-5.269-3.933-8.017l0.123,0.266c-1.634-6.104-2.626-12.396-4.565-18.873c-0.978-3.232-2.231-6.512-3.953-9.671
			c-0.854-1.571-1.823-3.111-2.896-4.587c1.05-0.981,2.024-2.031,2.912-3.155c0.509,0.083,1.027,0.17,1.535,0.285
			c1.354,0.298,2.696,0.689,4.022,1.175c2.665,0.968,5.29,2.316,7.872,3.928c5.174,3.23,10.201,7.379,15.625,11.015l0.27,0.18
			l-0.028-0.012c2.749,1.236,5.541,2.537,8.466,3.518c2.922,0.998,5.938,1.6,8.934,1.908c-2.885-0.891-5.65-2.045-8.206-3.528
			c-2.556-1.466-4.961-3.221-7.419-4.977l0.242,0.168c-4.466-4.472-8.469-9.419-13.387-14.061c-2.464-2.312-5.19-4.524-8.262-6.4
			c-1.517-0.928-3.113-1.771-4.772-2.512c0.412-1.358,0.696-2.763,0.904-4.196c0.49-0.184,0.986-0.368,1.482-0.523
			c1.323-0.423,2.68-0.75,4.074-0.995c2.789-0.49,5.737-0.636,8.781-0.531c6.093,0.208,12.524,1.291,19.038,1.723l0.321,0.022
			l-0.029,0.004C314.473,293.213,317.539,292.94,320.563,292.333z"/>
	</g>
</g>
<g>
	<circle fill="#FEE058" cx="249.697" cy="289.732" r="22.314"/>
</g>
<g>
	<g>
		<polygon fill="#543B37" points="382.257,443.745 145.479,390.661 142.756,403.208 382.257,461.658 		"/>
	</g>
	<g>
		<circle fill="#3F2C29" cx="242.341" cy="420.037" r="3.561"/>
	</g>
	<g>
		<circle fill="#3F2C29" cx="257.575" cy="423.563" r="3.562"/>
	</g>
	<g>
		<circle fill="#3F2C29" cx="226.725" cy="416.33" r="3.561"/>
	</g>
	<g>
		<circle fill="#3F2C29" cx="213.1" cy="413.095" r="3.561"/>
	</g>
	<g>
		<circle fill="#3F2C29" cx="199.477" cy="409.862" r="3.561"/>
	</g>
	<g>
		<circle fill="#3F2C29" cx="185.852" cy="406.627" r="3.561"/>
	</g>
	<g>
		<circle fill="#3F2C29" cx="172.228" cy="403.394" r="3.561"/>
	</g>
	<g>
		<g>
			<path fill="#A5B2B7" d="M288.892,419.841l-13.266-3.149c-5.354-1.27-10.709,1.896-12.247,7.108
				c-0.97,5.349,2.393,10.582,7.745,11.853l13.268,3.149c5.354,1.271,10.709-1.892,12.248-7.108
				C297.609,426.347,294.245,421.112,288.892,419.841z M292.638,431.18c-0.701,2.957-4.415,4.607-8.292,3.688l-11.418-2.712
				c-3.878-0.919-6.452-4.062-5.752-7.019c0.032-0.134,0.1-0.251,0.145-0.373c0.016-0.135,0.009-0.27,0.039-0.401
				c0.703-2.954,4.416-4.606,8.293-3.686l11.418,2.709c3.878,0.921,6.452,4.065,5.752,7.021c-0.032,0.133-0.1,0.248-0.145,0.375
				C292.661,430.914,292.67,431.048,292.638,431.18z"/>
		</g>
		<g>
			<g>
				<path fill="#A5B2B7" d="M269.871,425.055c-0.215,0.904-1.124,1.466-2.029,1.25l-8.969-2.13
					c-0.906-0.214-1.467-1.124-1.253-2.028l0,0c0.215-0.91,1.124-1.469,2.032-1.254l8.967,2.129
					C269.528,423.236,270.087,424.145,269.871,425.055L269.871,425.055z"/>
			</g>
			<g>
				<path fill="#EDEDED" d="M268.619,423.022l-8.967-2.129c-0.601-0.144-1.185,0.078-1.584,0.489
					c0.17,0.552,0.594,1.012,1.194,1.153l8.967,2.13c0.602,0.144,1.186-0.078,1.587-0.494
					C269.644,423.623,269.221,423.165,268.619,423.022z"/>
			</g>
		</g>
	</g>
</g>
<g>
	<g>
		<polygon fill="#543B37" points="382.257,389.407 116.26,389.407 116.546,404.226 382.257,404.226 		"/>
	</g>
	<g>
		<circle fill="#3F2C29" cx="237.317" cy="397.598" r="3.561"/>
	</g>
	<g>
		<circle fill="#3F2C29" cx="221.266" cy="397.598" r="3.561"/>
	</g>
	<g>
		<circle fill="#3F2C29" cx="207.263" cy="397.598" r="3.562"/>
	</g>
	<g>
		<circle fill="#3F2C29" cx="193.26" cy="397.598" r="3.561"/>
	</g>
	<g>
		<circle fill="#3F2C29" cx="179.258" cy="397.598" r="3.561"/>
	</g>
	<g>
		<circle fill="#3F2C29" cx="165.255" cy="397.598" r="3.561"/>
	</g>
	<g>
		<path fill="#A5B2B7" d="M254.824,388.132h-13.64c-5.501,0-9.982,4.317-10.273,9.743c0.292,5.431,4.772,9.744,10.273,9.744h13.64
			c5.502,0,9.983-4.313,10.277-9.744C264.808,392.449,260.326,388.132,254.824,388.132z M261.088,398.3
			c0,3.038-3.232,5.502-7.218,5.502h-11.74c-3.985,0-7.217-2.464-7.217-5.502c0-0.138,0.04-0.265,0.054-0.396
			c-0.014-0.132-0.054-0.261-0.054-0.398c0-3.037,3.231-5.502,7.217-5.502h11.74c3.985,0,7.218,2.465,7.218,5.502
			c0,0.138-0.04,0.267-0.054,0.398C261.048,398.035,261.088,398.162,261.088,398.3z"/>
	</g>
	<g>
		<path fill="#A5B2B7" d="M237.517,397.598c0,0.931-0.755,1.685-1.688,1.685h-9.217c-0.932,0-1.688-0.754-1.688-1.685l0,0
			c0-0.934,0.756-1.688,1.688-1.688h9.217C236.762,395.91,237.517,396.665,237.517,397.598L237.517,397.598z"/>
	</g>
	<g>
		<path fill="#EDEDED" d="M235.83,395.91h-9.217c-0.618,0-1.135,0.349-1.429,0.842c0.293,0.496,0.811,0.847,1.429,0.847h9.217
			c0.618,0,1.135-0.351,1.43-0.847C236.965,396.259,236.448,395.91,235.83,395.91z"/>
	</g>
</g>
</svg>
