<?xml version="1.0" encoding="utf-8"?>
<!-- Generator: Adobe Illustrator 16.0.1, SVG Export Plug-In . SVG Version: 6.00 Build 0)  -->
<!DOCTYPE svg PUBLIC "-//W3C//DTD SVG 1.1//EN" "http://www.w3.org/Graphics/SVG/1.1/DTD/svg11.dtd">
<svg version="1.1" id="content" xmlns="http://www.w3.org/2000/svg" xmlns:xlink="http://www.w3.org/1999/xlink" x="0px" y="0px"
	 width="500px" height="500px" viewBox="0 0 500 500" enable-background="new 0 0 500 500" xml:space="preserve">
<path fill="#0A8B92" d="M355.031,173.788c-0.965,18.868-47.105,34.067-103.917,34.067c-56.813,0-102.952-15.199-103.918-34.067
	h-24.653l22.78,258.617c1.464,17.109,16.714,31.112,33.889,31.112h143.365c17.175,0,32.394-14.006,33.819-31.118l22.088-258.611
	H355.031z"/>
<path fill="#0A8B92" d="M355.025,173.86c-1.079,18.835-47.172,33.996-103.911,33.996c-56.741,0-102.832-15.161-103.912-33.996
	h-30.799v307.25h265.854V173.86H355.025z"/>
<path fill="#2EB3B3" d="M318.016,199.986c34.75,0-176.23-0.36-136.283-0.36c41.891,0,41.684,240.393,41.684,240.393h58.205
	C281.621,440.02,287.047,199.986,318.016,199.986z"/>
<path fill="#0A8B92" d="M258.255,277.311c2.637,0.953,5.221,1.932,7.831,2.901c14.745,5.525,29.197,11.226,44.688,15.009
	c0.367-1.158,1.232-3.763,2.072-6.343c0.854-2.64,1.676-5.244,1.899-6.253c0.013-0.011,0.009-0.042,0.025-0.054
	c-10.069-2.413-19.738-5.688-29.321-9.211c-6.442-2.372-12.845-4.821-19.276-7.238c-2.594-0.973-5.18-1.962-7.789-2.908
	c-19.335-6.976-38.625-13.391-56.707-22.559c-1.642-0.83-3.207-1.126-4.641-1.058c-0.028,0-0.06-0.013-0.089-0.012
	c2.455,5.484,4.455,10.969,6.021,16.553c0.3,0.138,0.604,0.251,0.902,0.388c13.161,5.961,26.82,10.945,40.574,15.85
	C249.037,274.016,253.66,275.648,258.255,277.311z"/>
<path fill="#0A8B92" d="M250.553,275.201c2.635-1.165,5.22-2.263,7.831-3.393c14.745-6.323,29.195-12.237,44.688-20.902
	c0.365-1.455,1.231-4.756,2.07-8.011c0.854-3.326,1.676-6.593,1.9-7.781c0.014-0.021,0.008-0.048,0.025-0.074
	c-10.07,5.68-19.738,10.175-29.321,14.354c-6.442,2.808-12.845,5.504-19.275,8.255c-2.594,1.111-5.18,2.2-7.789,3.351
	c-19.335,8.562-38.626,17.651-56.707,23.016c-1.642,0.49-3.207,1.45-4.641,2.671c-0.028,0.022-0.06,0.036-0.089,0.062
	c2.456,3.509,4.455,7.386,6.021,11.71c0.3-0.103,0.604-0.235,0.902-0.337c13.161-4.613,26.82-10.608,40.574-16.755
	C241.335,279.314,245.958,277.231,250.553,275.201z"/>
<path fill="#0A8B92" d="M229.645,330.432c7.045,2.322,14.616,4.721,22.105,7.065c14.131,4.387,27.977,8.492,37.408,11.115
	c-0.089-5.812,0.255-8.85,0.562-13.451c-0.005-0.046,0.066-0.043,0.076-0.079c-4.918-1.188-10.892-2.68-17.413-4.418
	c-6.929-1.847-14.506-3.99-22.312-6.42c-15.83-4.936-32.436-11.027-45.819-18.146c0.06,0.357,0.127,0.638,0.201,0.978
	c0.987,5.162,2.005,8.909,3.075,13.712c0.149,0.713,0.304,1.37,0.474,2.141C213.811,325.108,221.38,327.708,229.645,330.432z"/>
<path fill="#0A8B92" d="M229.645,342.376c7.045-2.522,14.616-5.323,22.105-8.124c14.131-5.324,27.977-10.729,37.408-14.59
	c-0.089-5.748,0.255-9.024,0.562-13.836c-0.005-0.042,0.066-0.088,0.076-0.13c-4.918,2.188-10.892,4.803-17.413,7.547
	c-6.929,2.911-14.506,5.975-22.312,8.911c-15.83,5.938-32.436,11.257-45.819,13.332c0.06,0.317,0.127,0.553,0.201,0.841
	c0.987,4.486,2.005,7.533,3.075,11.6c0.149,0.611,0.304,1.158,0.474,1.815C213.811,347.93,221.38,345.33,229.645,342.376z"/>
<path fill="#0A8B92" d="M253.108,385.15c12.638,5.25,25.169,10.172,33.932,12.856c0.113,0.037,0.242,0.071,0.341,0.107
	c0.06-1.13-0.908-9.44-1.2-13.898c-0.028-0.008-0.057-0.02-0.085-0.02c-3.261-1.269-6.823-2.696-10.537-4.217
	c-7.213-2.939-15.059-6.264-22.836-9.585c-15.606-6.689-30.765-13.327-39.341-16.759c-0.142-0.054-0.299-0.125-0.429-0.173
	c0.052,0.145,1.186,8.563,1.525,15.167c0.029,0.009,0.054,0.022,0.084,0.034c4.275,1.832,9.817,4.25,16.033,6.935
	C237.552,378.604,245.342,381.934,253.108,385.15z"/>
<path fill="#0A8B92" d="M252.499,386.317c12.926-4.771,25.741-9.778,34.698-14.018c0.116-0.057,0.249-0.124,0.35-0.164
	c0.057-1.152-0.966-8.504-1.283-12.627c-0.027,0.011-0.057,0.022-0.086,0.045c-3.334,1.317-6.978,2.71-10.775,4.135
	c-7.376,2.778-15.401,5.678-23.356,8.523c-15.962,5.692-31.467,11.084-40.237,14.451c-0.146,0.06-0.306,0.11-0.439,0.164
	c0.054,0.099,1.245,7.434,1.619,13.612c0.029-0.014,0.055-0.017,0.086-0.031c4.372-1.558,10.041-3.537,16.398-5.785
	C236.589,392.108,244.557,389.26,252.499,386.317z"/>
<path fill="#FFFFFF" d="M197.404,321.862c2.754,2.88,3.048,2.356,2.961-5.377c0.086,7.733,0.388,8.294,3.092,5.712
	c-2.704,2.582-2.146,2.908,5.57,3.33c-7.716-0.422-8.26-0.15-5.503,2.735c-2.757-2.886-3.047-2.356-2.962,5.375
	c-0.084-7.731-0.397-8.295-3.09-5.704c2.692-2.591,2.145-2.919-5.571-3.338C199.617,325.015,200.158,324.742,197.404,321.862z"/>
<path fill="#FFFFFF" d="M245.021,298.186c2.089,2.189,2.314,1.787,2.25-4.08c0.064,5.867,0.293,6.298,2.339,4.338
	c-2.046,1.96-1.625,2.203,4.229,2.526c-5.854-0.323-6.265-0.11-4.176,2.075c-2.089-2.186-2.313-1.789-2.25,4.078
	c-0.063-5.867-0.296-6.295-2.341-4.33c2.044-1.965,1.624-2.211-4.229-2.531C246.696,300.582,247.109,300.375,245.021,298.186z"/>
<path fill="#FFFFFF" d="M179.972,262.693c2.758,2.875,3.046,2.353,2.963-5.381c0.083,7.733,0.387,8.296,3.087,5.715
	c-2.7,2.581-2.143,2.905,5.572,3.33c-7.715-0.425-8.255-0.148-5.507,2.729c-2.749-2.878-3.042-2.352-2.962,5.381
	c-0.08-7.732-0.392-8.297-3.083-5.711c2.692-2.586,2.143-2.913-5.571-3.331C182.184,265.844,182.729,265.568,179.972,262.693z"/>
<path fill="#FFFFFF" d="M167.521,308.275c3.924,4.104,4.343,3.356,4.225-7.662c0.118,11.019,0.554,11.816,4.401,8.141
	c-3.848,3.676-3.059,4.144,7.942,4.749c-11.001-0.605-11.773-0.212-7.848,3.894c-3.926-4.105-4.345-3.358-4.221,7.663
	c-0.124-11.021-0.562-11.822-4.405-8.133c3.843-3.689,3.06-4.154-7.939-4.752C170.676,312.772,171.445,312.379,167.521,308.275z"/>
<path fill="#FFFFFF" d="M338.6,298.934c3.931,4.106,4.346,3.353,4.223-7.666c0.123,11.019,0.558,11.82,4.407,8.139
	c-3.85,3.682-3.061,4.148,7.936,4.755c-10.996-0.606-11.77-0.215-7.843,3.891c-3.927-4.105-4.343-3.353-4.223,7.669
	c-0.12-11.021-0.562-11.826-4.403-8.136c3.842-3.69,3.056-4.154-7.938-4.758C341.752,303.431,342.53,303.04,338.6,298.934z"/>
<path fill="#FFFFFF" d="M146.407,368.183c3.923,4.101,4.343,3.355,4.221-7.669c0.123,11.024,0.554,11.823,4.405,8.147
	c-3.851,3.676-3.061,4.143,7.938,4.746c-10.998-0.604-11.768-0.21-7.845,3.894c-3.923-4.104-4.343-3.353-4.22,7.666
	c-0.123-11.019-0.562-11.826-4.403-8.139c3.841-3.688,3.054-4.148-7.944-4.752C149.556,372.68,150.33,372.283,146.407,368.183z"/>
<path fill="#FFFFFF" d="M161.439,332.213c1.381,1.438,1.527,1.175,1.483-2.696c0.044,3.871,0.194,4.152,1.546,2.86
	c-1.352,1.292-1.074,1.453,2.784,1.665c-3.858-0.212-4.127-0.073-2.75,1.368c-1.377-1.441-1.524-1.176-1.484,2.69
	c-0.041-3.866-0.197-4.151-1.545-2.854c1.348-1.297,1.072-1.459-2.787-1.668C162.545,333.787,162.82,333.651,161.439,332.213z"/>
<path fill="#FFFFFF" d="M196.991,392.284c1.376,1.441,1.525,1.178,1.481-2.69c0.043,3.868,0.195,4.146,1.544,2.854
	c-1.349,1.291-1.075,1.458,2.787,1.668c-3.862-0.21-4.131-0.071-2.754,1.37c-1.376-1.441-1.527-1.181-1.48,2.69
	c-0.046-3.871-0.198-4.148-1.546-2.86c1.348-1.288,1.072-1.455-2.785-1.665C198.095,393.861,198.367,393.726,196.991,392.284z"/>
<path fill="#FFFFFF" d="M181.502,351.585c1.377,1.441,1.523,1.176,1.481-2.689c0.042,3.865,0.193,4.151,1.548,2.854
	c-1.354,1.297-1.075,1.461,2.784,1.67c-3.859-0.209-4.129-0.076-2.752,1.365c-1.377-1.441-1.523-1.175-1.486,2.69
	c-0.038-3.865-0.195-4.148-1.541-2.852c1.346-1.297,1.072-1.459-2.789-1.674C182.609,353.165,182.879,353.026,181.502,351.585z"/>
<path fill="#FFFFFF" d="M235.158,240.367c1.375,1.44,1.522,1.179,1.476-2.689c0.047,3.868,0.197,4.146,1.548,2.856
	c-1.351,1.29-1.077,1.454,2.787,1.665c-3.863-0.211-4.131-0.069-2.754,1.369c-1.377-1.438-1.523-1.178-1.48,2.69
	c-0.043-3.869-0.197-4.152-1.544-2.857c1.347-1.294,1.073-1.456-2.786-1.668C236.263,241.945,236.533,241.807,235.158,240.367z"/>
<path fill="#FFFFFF" d="M308.406,282.41c-3.307-2.228-3.482-1.653-1.747,5.885c-1.735-7.538-2.148-8.02-4.241-4.919
	c2.093-3.101,1.479-3.302-6.15-2.066c7.629-1.235,8.102-1.617,4.793-3.846c3.309,2.229,3.48,1.65,1.75-5.883
	c1.73,7.533,2.156,8.018,4.234,4.911c-2.078,3.106-1.474,3.31,6.154,2.074C305.571,279.802,305.1,280.183,308.406,282.41z"/>
<path fill="#FFFFFF" d="M235.542,216.284c-2.508-1.693-2.644-1.253-1.327,4.467c-1.317-5.72-1.63-6.091-3.211-3.739
	c1.582-2.352,1.117-2.502-4.671-1.568c5.788-0.934,6.145-1.229,3.637-2.918c2.508,1.689,2.641,1.256,1.328-4.464
	c1.312,5.72,1.631,6.088,3.211,3.732c-1.58,2.356-1.114,2.506,4.671,1.572C233.396,214.3,233.035,214.591,235.542,216.284z"/>
<path fill="#FFFFFF" d="M309.526,415.519c-3.307-2.223-3.478-1.65-1.746,5.888c-1.731-7.538-2.148-8.022-4.235-4.922
	c2.087-3.101,1.473-3.296-6.156-2.067c7.629-1.229,8.1-1.617,4.8-3.843c3.3,2.226,3.472,1.651,1.746-5.887
	c1.726,7.538,2.153,8.022,4.23,4.921c-2.077,3.102-1.471,3.305,6.153,2.064C306.694,412.913,306.22,413.296,309.526,415.519z"/>
<path fill="#FFFFFF" d="M348.194,420.129c-4.708-3.175-4.957-2.354-2.491,8.385c-2.466-10.738-3.062-11.426-6.037-7.014
	c2.975-4.412,2.107-4.698-8.771-2.945c10.879-1.753,11.547-2.306,6.836-5.479c4.711,3.174,4.96,2.355,2.489-8.388
	c2.471,10.743,3.071,11.432,6.039,7.009c-2.968,4.423-2.104,4.712,8.769,2.947C344.154,416.408,343.486,416.954,348.194,420.129z"/>
<path fill="#FFFFFF" d="M155.997,217.93c-4.718-3.172-4.961-2.348-2.49,8.391c-2.471-10.738-3.068-11.429-6.042-7.012
	c2.974-4.417,2.105-4.706-8.767-2.951c10.873-1.755,11.545-2.302,6.833-5.475c4.712,3.173,4.958,2.35,2.489-8.392
	c2.469,10.742,3.071,11.434,6.038,7.01c-2.967,4.423-2.099,4.709,8.771,2.952C151.959,214.21,151.279,214.758,155.997,217.93z"/>
<path fill="#FFFFFF" d="M353.595,217.928c-4.71-3.169-4.959-2.349-2.489,8.393c-2.47-10.742-3.062-11.432-6.04-7.02
	c2.978-4.412,2.106-4.698-8.768-2.942c10.874-1.756,11.541-2.305,6.833-5.478c4.708,3.173,4.959,2.35,2.486-8.39
	c2.473,10.74,3.074,11.434,6.039,7.012c-2.965,4.422-2.097,4.705,8.775,2.946C349.56,214.208,348.885,214.759,353.595,217.928z"/>
<path fill="#FFFFFF" d="M341.333,264.627c-1.654-1.111-1.742-0.821-0.872,2.948c-0.87-3.77-1.075-4.013-2.118-2.463
	c1.043-1.55,0.737-1.649-3.076-1.034c3.813-0.615,4.047-0.808,2.396-1.923c1.65,1.115,1.738,0.823,0.875-2.945
	c0.863,3.769,1.076,4.016,2.116,2.461c-1.04,1.555-0.734,1.652,3.078,1.036C339.92,263.323,339.679,263.516,341.333,264.627z"/>
<path fill="#FFFFFF" d="M275.42,221.88c-1.654-1.113-1.743-0.822-0.874,2.945c-0.869-3.768-1.076-4.008-2.119-2.458
	c1.043-1.55,0.74-1.655-3.078-1.034c3.818-0.622,4.051-0.812,2.399-1.928c1.651,1.116,1.742,0.827,0.871-2.945
	c0.871,3.772,1.079,4.013,2.121,2.465c-1.042,1.548-0.736,1.652,3.075,1.032C274.004,220.578,273.766,220.768,275.42,221.88z"/>
<path fill="#FFFFFF" d="M317.6,249.978c-1.649-1.115-1.739-0.825-0.871,2.945c-0.868-3.77-1.074-4.018-2.122-2.459
	c1.048-1.558,0.737-1.658-3.077-1.04c3.814-0.618,4.051-0.808,2.397-1.921c1.653,1.113,1.74,0.824,0.879-2.948
	c0.861,3.772,1.076,4.014,2.114,2.461c-1.038,1.553-0.736,1.654,3.081,1.038C316.184,248.669,315.95,248.862,317.6,249.978z"/>
<path fill="#FFFFFF" d="M316.869,352.74c-3.302-2.229-3.478-1.647-1.746,5.885c-1.731-7.532-2.148-8.017-4.238-4.925
	c2.09-3.092,1.479-3.293-6.151-2.059c7.63-1.234,8.101-1.619,4.797-3.846c3.304,2.227,3.479,1.654,1.746-5.881
	c1.732,7.535,2.157,8.017,4.234,4.913c-2.077,3.104-1.471,3.305,6.152,2.069C314.04,350.133,313.567,350.512,316.869,352.74z"/>
<path fill="#FFFFFF" d="M292.881,355.688c-1.651-1.115-1.739-0.827-0.869,2.942c-0.87-3.77-1.073-4.01-2.121-2.461
	c1.048-1.549,0.743-1.651-3.077-1.033c3.82-0.618,4.051-0.813,2.398-1.923c1.652,1.109,1.739,0.824,0.874-2.945
	c0.865,3.77,1.076,4.016,2.118,2.461c-1.042,1.555-0.739,1.65,3.078,1.036C291.465,354.38,291.229,354.573,292.881,355.688z"/>
</svg>
