<?xml version="1.0" encoding="utf-8"?>
<!-- Generator: Adobe Illustrator 16.0.1, SVG Export Plug-In . SVG Version: 6.00 Build 0)  -->
<!DOCTYPE svg PUBLIC "-//W3C//DTD SVG 1.1//EN" "http://www.w3.org/Graphics/SVG/1.1/DTD/svg11.dtd">
<svg version="1.1" id="Layer_1" xmlns="http://www.w3.org/2000/svg" xmlns:xlink="http://www.w3.org/1999/xlink" x="0px" y="0px"
	 width="500px" height="500px" viewBox="0 0 500 500" enable-background="new 0 0 500 500" xml:space="preserve">
<g id="avatar">
</g>
<ellipse fill="#0EAAAA" cx="132.438" cy="233.996" rx="30.332" ry="43.743"/>
<path fill="#9DD4D7" d="M153.771,212.725c4.763-1.546,2.239,6.966,0.896,10.59c-3.513,9.48-9.71,18.56-15.925,26.527
	c-0.87,1.11-1.68,0.514-1.525-0.47c-0.095-0.175-0.125-0.425-0.025-0.794C139.922,238.685,142.203,216.489,153.771,212.725z"/>
<path fill="#9DD4D7" d="M126.494,244.198c-0.036,0.081-0.088,0.148-0.133,0.232c-0.374,0.957-1.847,1.889-2.296,1.053
	c-2.896-5.317-1.205-14.893,1.647-23.08c1.596-4.586,6.207-16.698,11.83-18.567c4.301-1.434,2.925,5.671,2.339,8.99
	C138.062,223.092,131.028,233.746,126.494,244.198z"/>
<path fill="#9DD4D7" d="M119.488,213.972c-2.657,8.342-4.478,16.411-4.442,23.826c0,0.437-0.193,0.839-0.47,1.178
	c-0.139,0.937-1.544,2.228-2.262,1.667c-4.059-3.206-4.059-10.57-3.622-17.299c0.349-5.41,1.438-14.737,6.482-20.533
	c4.003-4.602,8.116-5.249,7.279,0.238C121.914,206.586,120.658,210.279,119.488,213.972z"/>
<path fill="#FFFFFF" d="M117.057,252.115c1.896,1.987,2.1,1.622,2.042-3.709c0.059,5.331,0.268,5.72,2.132,3.941
	c-1.864,1.778-1.48,2.003,3.841,2.294c-5.322-0.291-5.696-0.102-3.797,1.885c-1.898-1.986-2.101-1.625-2.043,3.708
	c-0.058-5.333-0.273-5.72-2.129-3.935c1.856-1.785,1.478-2.012-3.842-2.301C118.58,254.288,118.954,254.103,117.057,252.115z"/>
<path fill="#FFFFFF" d="M129.451,196.939c1.896,1.987,2.1,1.622,2.042-3.709c0.059,5.331,0.268,5.72,2.132,3.941
	c-1.864,1.778-1.48,2.003,3.841,2.294c-5.322-0.291-5.696-0.102-3.797,1.885c-1.898-1.986-2.101-1.625-2.043,3.708
	c-0.058-5.333-0.273-5.72-2.129-3.935c1.856-1.785,1.478-2.012-3.842-2.301C130.974,199.112,131.348,198.926,129.451,196.939z"/>
</svg>
