<?xml version="1.0" encoding="utf-8"?>
<!-- Generator: Adobe Illustrator 16.0.1, SVG Export Plug-In . SVG Version: 6.00 Build 0)  -->
<!DOCTYPE svg PUBLIC "-//W3C//DTD SVG 1.1//EN" "http://www.w3.org/Graphics/SVG/1.1/DTD/svg11.dtd">
<svg version="1.1" id="robot" xmlns="http://www.w3.org/2000/svg" xmlns:xlink="http://www.w3.org/1999/xlink" x="0px" y="0px"
	 width="500px" height="500px" viewBox="0 0 500 500" enable-background="new 0 0 500 500" xml:space="preserve">
<g>
	<path fill="#FF7679" d="M161.024,326.74c0,15.043-50.815,15.043-50.815,0V220.784c0-15.043,9.825-27.351,21.832-27.351h7.149
		c12.008,0,21.833,12.308,21.833,27.351V326.74z"/>
	<path fill="#F3968E" d="M110.23,251.569c5.206,0,9.425-4.219,9.425-9.426c0-5.206-4.219-9.426-9.425-9.426V251.569z"/>
	<path fill="#F3968E" d="M110.23,301.458c5.206,0,9.425-4.22,9.425-9.426s-4.219-9.427-9.425-9.427V301.458z"/>
	<circle fill="#F3968E" cx="141.204" cy="317.396" r="9.502"/>
	<circle fill="#F3968E" cx="141.204" cy="268.52" r="9.501"/>
	<circle fill="#F3968E" cx="141.204" cy="215.712" r="9.502"/>
</g>
</svg>
