<?xml version="1.0" encoding="utf-8"?>
<!-- Generator: Adobe Illustrator 16.0.1, SVG Export Plug-In . SVG Version: 6.00 Build 0)  -->
<!DOCTYPE svg PUBLIC "-//W3C//DTD SVG 1.1//EN" "http://www.w3.org/Graphics/SVG/1.1/DTD/svg11.dtd">
<svg version="1.1" id="content" xmlns="http://www.w3.org/2000/svg" xmlns:xlink="http://www.w3.org/1999/xlink" x="0px" y="0px"
	 width="500px" height="500px" viewBox="0 0 500 500" enable-background="new 0 0 500 500" xml:space="preserve">
<g>
	<polygon fill="#1681A8" points="250.142,267.551 116.405,174.518 116.405,481.38 382.259,481.38 382.259,174.518 	"/>
</g>
<path fill="#1681A8" d="M325.087,174.518c0,40.834-33.103,73.936-73.938,73.936c-40.833,0-73.935-33.102-73.935-73.936h-60.81
	l22.697,273.908c1.55,18.125,17.703,32.954,35.894,32.954h151.844c18.19,0,34.309-14.834,35.818-32.959l19.602-273.903H325.087z"/>
<path fill="none" stroke="#125974" stroke-width="9.2138" stroke-miterlimit="10" d="M325.087,174.518
	c0,40.834-33.103,73.936-73.938,73.936c-40.833,0-73.935-33.102-73.935-73.936"/>
<polygon fill="#FFFFFF" points="215.802,385.836 249.837,371.315 305.507,410.777 284.367,350.883 305.656,324.282 267.924,315.838 
	253.531,281.089 233.18,317.331 196.935,320.307 222.251,349.595 "/>
</svg>
