<?xml version="1.0" encoding="utf-8"?>
<!-- Generator: Adobe Illustrator 16.0.1, SVG Export Plug-In . SVG Version: 6.00 Build 0)  -->
<!DOCTYPE svg PUBLIC "-//W3C//DTD SVG 1.1//EN" "http://www.w3.org/Graphics/SVG/1.1/DTD/svg11.dtd">
<svg version="1.1" xmlns="http://www.w3.org/2000/svg" xmlns:xlink="http://www.w3.org/1999/xlink" x="0px" y="0px" width="500px"
	 height="500px" viewBox="0 0 500 500" enable-background="new 0 0 500 500" xml:space="preserve">
<g id="avatar">
</g>
<g id="robot">
	<g display="none">
		<path display="inline" fill="#121217" d="M243.819,484.129c0.005-0.415,0.004-0.837-0.007-1.265c0-0.015,0-0.028-0.001-0.041
			c0-0.003,0-0.004,0-0.007c-0.007-0.257-0.017-0.516-0.029-0.776c-0.001-0.002-0.001-0.003-0.001-0.005
			c0-0.018,0-0.038-0.001-0.058c0-0.001,0-0.002,0-0.004c-0.058-1.136-0.17-2.306-0.325-3.485c-0.001-0.009-0.002-0.017-0.003-0.026
			c-0.001-0.008-0.001-0.016-0.002-0.023c-0.001-0.002-0.001-0.005-0.001-0.008c-0.001-0.004-0.001-0.01-0.001-0.015
			c-0.067-0.495-0.139-0.991-0.22-1.488c0-0.002,0-0.004-0.001-0.005c-0.001-0.005-0.001-0.009-0.002-0.013
			c0-0.003-0.001-0.006-0.001-0.009c-0.083-0.504-0.17-1.008-0.265-1.511c-0.619-3.276-1.497-6.477-2.403-9.11
			c-0.561-1.629-1.131-3.044-1.657-4.12c0,0-0.009-0.003-0.024-0.009c-0.005-0.001-0.015-0.005-0.025-0.009
			c-0.005-0.002-0.009-0.003-0.018-0.006c-0.004-0.002-0.008-0.002-0.013-0.005c0,0-0.003-0.001-0.005-0.002
			c-0.019-0.007-0.043-0.015-0.069-0.023c-0.007-0.002-0.013-0.004-0.021-0.007c-0.022-0.008-0.049-0.016-0.077-0.025
			c-0.013-0.004-0.022-0.007-0.036-0.012c-0.003-0.001-0.007-0.002-0.01-0.003c-0.002,0-0.002-0.001-0.005-0.001
			c-0.041-0.014-0.088-0.027-0.136-0.043c-0.009-0.002-0.018-0.005-0.025-0.007c-0.051-0.015-0.107-0.031-0.164-0.048
			c-0.009-0.002-0.017-0.004-0.026-0.007c-0.056-0.015-0.116-0.031-0.178-0.047c-0.014-0.004-0.026-0.008-0.04-0.011
			c-0.053-0.014-0.11-0.028-0.167-0.042c-0.023-0.006-0.044-0.011-0.068-0.017c-0.002-0.001-0.006-0.002-0.009-0.002
			c-0.001-0.001-0.003-0.001-0.006-0.002c-0.059-0.014-0.12-0.028-0.181-0.042c-0.025-0.005-0.049-0.011-0.075-0.016
			c0,0-0.003-0.001-0.004-0.001c-0.002,0-0.004-0.001-0.007-0.002c-0.065-0.014-0.131-0.026-0.198-0.04
			c-0.027-0.006-0.053-0.011-0.08-0.016l-0.003-0.001c-0.003,0-0.003-0.001-0.004-0.001c-0.088-0.017-0.18-0.033-0.273-0.049
			c-0.008-0.001-0.018-0.003-0.026-0.004c-0.002-0.001-0.006-0.001-0.008-0.002c-0.001,0-0.004-0.001-0.005-0.001
			c-0.091-0.015-0.187-0.029-0.283-0.043c-0.014-0.002-0.027-0.004-0.043-0.006c-0.087-0.012-0.178-0.023-0.27-0.033
			c-0.021-0.003-0.041-0.006-0.062-0.009c-0.001,0-0.003,0-0.003,0c-0.003,0-0.004,0-0.009-0.001
			c-0.094-0.01-0.193-0.019-0.292-0.026c-0.019-0.002-0.037-0.004-0.056-0.006c0,0-0.004,0-0.006,0
			c-0.004-0.001-0.009-0.001-0.011-0.001c-0.084-0.006-0.17-0.011-0.255-0.014c-0.031-0.002-0.058-0.005-0.088-0.006
			c-0.001,0-0.005,0-0.008,0c-0.004,0-0.008,0-0.013,0c-0.103-0.005-0.208-0.007-0.313-0.009c-0.018,0-0.034-0.001-0.052-0.001
			c-0.004,0-0.008,0-0.011,0s-0.007,0-0.009,0c-0.104,0-0.209,0.002-0.312,0.006c-0.024,0.001-0.047,0.001-0.07,0.001
			c-0.104,0.004-0.207,0.011-0.31,0.019c-0.018,0.001-0.035,0.001-0.052,0.003c0,0-0.002,0-0.002,0
			c-0.01,0.001-0.02,0.001-0.03,0.002c-0.103,0.008-0.206,0.02-0.309,0.032c-0.03,0.004-0.059,0.006-0.09,0.01
			c-0.099,0.013-0.2,0.03-0.299,0.047c-0.032,0.006-0.063,0.01-0.093,0.015c0,0-0.002,0.001-0.003,0.001
			c-0.002,0-0.004,0-0.005,0.001c-0.098,0.018-0.195,0.041-0.292,0.063c-0.035,0.008-0.07,0.014-0.104,0.022
			c-0.098,0.023-0.193,0.052-0.288,0.079c-0.037,0.011-0.073,0.021-0.11,0.031c-0.087,0.028-0.174,0.06-0.261,0.091
			c-0.021,0.008-0.042,0.015-0.064,0.022c-0.004,0.001-0.008,0.003-0.013,0.005c-0.018,0.007-0.036,0.012-0.054,0.019
			c-0.09,0.035-0.179,0.075-0.267,0.114c-0.041,0.018-0.081,0.033-0.119,0.052c-0.072,0.033-0.143,0.072-0.213,0.109
			c-0.028,0.016-0.056,0.029-0.084,0.044c-0.018,0.01-0.037,0.019-0.056,0.029c-0.007,0.004-0.014,0.007-0.021,0.011
			c0,0-0.002,0.001-0.002,0.001c-0.002,0-0.002,0.002-0.002,0.002c-0.075,0.042-0.147,0.089-0.22,0.135
			c-0.02,0.013-0.04,0.024-0.06,0.037c-0.006,0.004-0.01,0.006-0.017,0.01c-0.022,0.015-0.045,0.028-0.067,0.043
			c-0.001,0-0.001,0-0.001,0c-0.001,0.001-0.001,0.001-0.001,0.002c-0.08,0.053-0.156,0.112-0.233,0.171
			c-0.04,0.03-0.08,0.057-0.119,0.088l0,0.001c-0.001,0-0.002,0.001-0.002,0.001c-0.057,0.046-0.112,0.098-0.168,0.146
			c-0.023,0.022-0.048,0.042-0.074,0.064c-0.003,0.004-0.009,0.008-0.014,0.012c-0.027,0.026-0.056,0.048-0.083,0.074
			c-0.067,0.064-0.131,0.135-0.197,0.204c-0.041,0.043-0.084,0.083-0.125,0.129c0,0.001,0,0.001-0.002,0.001
			c0,0.001,0,0.002,0,0.002c-0.048,0.054-0.093,0.115-0.141,0.172c-0.026,0.032-0.053,0.064-0.079,0.098
			c-0.003,0.005-0.009,0.011-0.012,0.016c-0.024,0.03-0.05,0.058-0.072,0.089c-0.068,0.09-0.131,0.188-0.195,0.284
			c-0.021,0.03-0.042,0.058-0.062,0.089c-0.01,0.014-0.02,0.026-0.029,0.042c-0.092,0.147-0.179,0.299-0.263,0.46
			c-2.682,5.149-8.042,5.637-13.409,4.492c-0.153-0.033-0.307-0.073-0.462-0.117c-0.018-0.005-0.036-0.011-0.053-0.017
			c-0.031-0.01-0.062-0.019-0.094-0.029c-0.107-0.032-0.214-0.067-0.32-0.105c-0.056-0.019-0.111-0.04-0.167-0.061
			c-0.104-0.038-0.206-0.08-0.308-0.123c-0.054-0.022-0.105-0.044-0.159-0.067c-0.121-0.053-0.24-0.11-0.36-0.168
			c-0.034-0.017-0.066-0.031-0.099-0.047c-0.116-0.058-0.231-0.121-0.346-0.183c-0.037-0.02-0.073-0.039-0.111-0.059
			c-0.03-0.017-0.059-0.035-0.088-0.051c-0.011-0.006-0.021-0.013-0.032-0.019c-0.113-0.065-0.227-0.131-0.338-0.2
			c-0.044-0.027-0.088-0.056-0.131-0.082c-0.011-0.006-0.022-0.013-0.031-0.019c-0.102-0.063-0.202-0.128-0.303-0.195
			c-0.053-0.035-0.105-0.071-0.16-0.106c-0.062-0.044-0.125-0.087-0.188-0.131c-0.043-0.031-0.087-0.061-0.131-0.092
			c-0.021-0.014-0.041-0.03-0.062-0.043c-0.023-0.017-0.045-0.033-0.068-0.05c-0.151-0.109-0.3-0.22-0.449-0.335
			c-0.013-0.009-0.023-0.019-0.036-0.027c-0.137-0.106-0.274-0.214-0.409-0.324c-0.036-0.03-0.071-0.06-0.106-0.088
			c-0.011-0.009-0.021-0.017-0.031-0.025c-0.061-0.05-0.122-0.101-0.182-0.15c-0.043-0.036-0.086-0.072-0.129-0.108
			c-0.001-0.001-0.001-0.001-0.001-0.001c-0.048-0.04-0.094-0.08-0.141-0.12c-0.105-0.091-0.21-0.182-0.315-0.274
			c-0.037-0.033-0.074-0.066-0.112-0.1c-0.004-0.003-0.008-0.008-0.012-0.011c-0.133-0.119-0.267-0.241-0.4-0.363
			c-0.004-0.004-0.01-0.008-0.015-0.014c-0.004-0.004-0.009-0.008-0.013-0.012c-0.146-0.135-0.292-0.271-0.436-0.41
			c-0.025-0.024-0.051-0.048-0.077-0.073c-0.116-0.112-0.233-0.225-0.348-0.338c-0.036-0.036-0.073-0.071-0.108-0.106
			c-0.066-0.066-0.133-0.132-0.2-0.198c-0.039-0.039-0.081-0.079-0.121-0.12c-0.011-0.013-0.024-0.024-0.036-0.038
			c-0.022-0.021-0.042-0.042-0.063-0.062c-0.127-0.128-0.254-0.257-0.38-0.387c-0.004-0.004-0.009-0.008-0.011-0.011
			c-0.004-0.004-0.008-0.008-0.011-0.011c-0.012-0.012-0.023-0.024-0.036-0.037c-0.196-0.202-0.389-0.402-0.579-0.603
			c-0.05-0.051-0.1-0.103-0.148-0.155c-0.179-0.187-0.354-0.374-0.527-0.557c-0.444-0.473-0.87-0.929-1.277-1.358
			c-0.031-0.033-0.063-0.067-0.094-0.101c-0.004-0.004-0.009-0.008-0.013-0.013c-0.014-0.014-0.026-0.028-0.041-0.042
			c-0.053-0.057-0.104-0.111-0.157-0.166c-0.04-0.041-0.08-0.082-0.118-0.122c-0.007-0.008-0.014-0.015-0.021-0.021
			c-0.014-0.015-0.027-0.028-0.041-0.042c-0.045-0.048-0.092-0.095-0.137-0.143c-0.066-0.068-0.132-0.135-0.198-0.201
			c-0.038-0.038-0.075-0.077-0.112-0.114c-0.004-0.005-0.01-0.01-0.014-0.015c-0.01-0.01-0.02-0.019-0.029-0.028
			c-0.134-0.135-0.265-0.262-0.393-0.385c-0.004-0.002-0.007-0.006-0.009-0.008c0-0.001-0.001-0.001-0.001-0.001
			c-0.03-0.028-0.06-0.056-0.089-0.083c-0.14-0.134-0.277-0.26-0.409-0.376c-0.005-0.004-0.01-0.008-0.015-0.014
			c-0.124-0.108-0.242-0.205-0.359-0.297c-0.03-0.024-0.061-0.048-0.09-0.07c-0.051-0.039-0.102-0.077-0.151-0.112
			c-0.067-0.049-0.133-0.095-0.197-0.136c-0.084-0.055-0.177-0.105-0.274-0.155c-0.016-0.008-0.034-0.015-0.048-0.022
			c-0.087-0.043-0.177-0.084-0.274-0.124c-0.01-0.003-0.021-0.008-0.03-0.011c-0.105-0.043-0.219-0.084-0.337-0.122
			c-0.001-0.001-0.003-0.001-0.003-0.002c-0.126-0.041-0.257-0.079-0.395-0.115l-0.168-0.184l-1.498-0.102c-0.001,0-0.003,0-0.005,0
			c-0.308-0.031-0.63-0.053-0.966-0.065c-0.001,0-0.002,0-0.002,0l-1.698-0.114c0,0-2.165-0.666-4.436-0.828
			c-1.567-0.11-3.186,0.018-4.181,0.772c-2.435,1.847-12.718,7.388-14.341,7.85c-1.624,0.462-6.495,3.232-6.495,3.232
			s0,0.006,0,0.015c0,0.003,0,0.006,0,0.014c0,0.008,0,0.019,0,0.033c0.002,0.007,0.002,0.013,0.002,0.021
			c0.001,0.046,0.004,0.109,0.009,0.19c0.001,0.012,0.001,0.022,0.003,0.034c0.002,0.032,0.005,0.066,0.007,0.103
			c0.002,0.014,0.003,0.025,0.003,0.04c0.004,0.05,0.01,0.103,0.016,0.159c-0.191,0.074-0.379,0.146-0.57,0.219
			c-0.022,0.008-0.043,0.017-0.066,0.025c-0.101-0.229-0.14-0.362-0.216-0.474c-0.008-0.012-0.016-0.021-0.024-0.031
			c-0.014-0.019-0.03-0.036-0.047-0.055c-0.011-0.012-0.024-0.023-0.038-0.035c-0.021-0.018-0.044-0.036-0.07-0.055
			c-0.013-0.011-0.027-0.021-0.043-0.032c-0.044-0.031-0.095-0.062-0.155-0.097c-0.364-0.206-1.92,0.232-2.646,0.852
			c-0.042,0.037-0.08,0.077-0.11,0.119c-0.011,0.015-0.019,0.033-0.029,0.048c-0.018,0.027-0.035,0.054-0.046,0.083
			c-0.01,0.022-0.017,0.045-0.022,0.068c-0.008,0.025-0.017,0.048-0.021,0.074c-0.005,0.027-0.007,0.056-0.01,0.083
			c-0.002,0.022-0.004,0.044-0.004,0.066c-0.001,0.033,0.002,0.067,0.005,0.101c0.001,0.018,0.003,0.037,0.006,0.056
			c0.005,0.039,0.012,0.077,0.021,0.116c0.003,0.015,0.007,0.029,0.009,0.044c0.012,0.044,0.025,0.089,0.041,0.135
			c0.002,0.009,0.006,0.017,0.009,0.025c0.018,0.052,0.038,0.103,0.061,0.155c-0.007,0.003-0.014,0.005-0.021,0.008
			c-0.35,0.128-0.691,0.252-1.027,0.373c-0.02,0.008-0.04,0.014-0.059,0.022c0-0.001-0.004-0.007-0.004-0.007
			c-0.424-0.788-0.233-0.842-0.774-1.149c-0.363-0.206-1.918,0.233-2.644,0.852c-0.049,0.041-0.088,0.087-0.122,0.134
			c-0.011,0.016-0.018,0.033-0.027,0.05c-0.019,0.032-0.038,0.065-0.051,0.1c-0.008,0.021-0.013,0.043-0.018,0.064
			c-0.008,0.032-0.017,0.066-0.021,0.101c-0.001,0.022-0.004,0.046-0.004,0.071c0,0.034,0,0.07,0.001,0.107
			c0.002,0.024,0.005,0.049,0.009,0.074c0.005,0.037,0.012,0.077,0.021,0.116c0.005,0.023,0.011,0.048,0.018,0.073
			c0.012,0.042,0.027,0.085,0.042,0.129c0.009,0.022,0.015,0.045,0.024,0.066c0.02,0.052,0.043,0.104,0.068,0.157
			c0.006,0.015,0.012,0.029,0.02,0.043c0.033,0.068,0.068,0.137,0.106,0.207c0.001,0,0.001,0.001,0.002,0.003
			c-0.001,0-0.002,0-0.004,0.001c-0.474,0.165-0.92,0.319-1.328,0.459c-0.194-0.384-0.233-0.568-0.328-0.713
			c-0.006-0.009-0.011-0.018-0.017-0.026c-0.014-0.02-0.033-0.038-0.049-0.058c-0.011-0.011-0.02-0.023-0.035-0.035
			c-0.02-0.019-0.046-0.038-0.072-0.058c-0.015-0.01-0.027-0.022-0.044-0.034c-0.047-0.031-0.101-0.064-0.167-0.103
			c-0.362-0.206-1.918,0.233-2.644,0.852c-0.046,0.04-0.085,0.081-0.118,0.125c-0.009,0.015-0.016,0.03-0.024,0.045
			c-0.019,0.031-0.04,0.062-0.053,0.096c-0.007,0.016-0.007,0.032-0.012,0.047c-0.012,0.035-0.024,0.07-0.029,0.107
			c-0.002,0.014-0.002,0.029-0.003,0.044c-0.004,0.04-0.008,0.079-0.006,0.121c0,0.013,0.003,0.024,0.004,0.036
			c0.002,0.046,0.008,0.093,0.017,0.141c0.001,0.008,0.003,0.016,0.006,0.024c0.01,0.052,0.023,0.105,0.041,0.16
			c0,0.004,0.004,0.009,0.004,0.014c0.019,0.058,0.041,0.117,0.065,0.176c0.001,0.002,0.002,0.004,0.003,0.006
			c0.025,0.062,0.053,0.125,0.085,0.187c0,0.001,0,0.001,0,0.001c-0.426,0.146-0.866,0.299-1.327,0.461
			c-0.001-0.002-0.001-0.003-0.002-0.005c-0.094-0.204-0.14-0.339-0.189-0.444c-0.005-0.013-0.013-0.024-0.018-0.035
			c-0.012-0.021-0.024-0.043-0.037-0.063c-0.008-0.013-0.019-0.026-0.028-0.039c-0.013-0.016-0.028-0.034-0.044-0.05
			c-0.012-0.013-0.024-0.025-0.039-0.038c-0.018-0.019-0.043-0.037-0.067-0.054c-0.016-0.012-0.029-0.022-0.046-0.035
			c-0.044-0.03-0.096-0.062-0.159-0.098c-0.362-0.205-1.919,0.233-2.644,0.852c-0.044,0.037-0.081,0.078-0.112,0.119
			c-0.012,0.018-0.021,0.037-0.031,0.054c-0.016,0.027-0.033,0.052-0.044,0.079c-0.01,0.023-0.017,0.05-0.024,0.075
			c-0.006,0.022-0.015,0.045-0.019,0.068c-0.006,0.029-0.008,0.06-0.011,0.091c0,0.021-0.004,0.04-0.004,0.061
			c0,0.036,0.003,0.072,0.007,0.109c0.002,0.017,0.003,0.032,0.006,0.048c0.004,0.042,0.015,0.085,0.024,0.128
			c0.003,0.012,0.006,0.023,0.009,0.034c0.013,0.049,0.027,0.098,0.046,0.148c0.002,0.006,0.004,0.011,0.005,0.017
			c0.021,0.056,0.043,0.11,0.068,0.167c-0.021,0.007-0.042,0.016-0.063,0.022c-0.474,0.172-0.955,0.347-1.445,0.528
			c-0.005,0.001-0.007,0.002-0.012,0.004c-0.129-0.264-0.181-0.424-0.239-0.548c-0.002-0.004-0.005-0.009-0.007-0.014
			c-0.013-0.026-0.029-0.05-0.043-0.074c-0.007-0.012-0.016-0.023-0.023-0.035c-0.013-0.018-0.031-0.037-0.047-0.054
			c-0.012-0.012-0.023-0.025-0.036-0.037c-0.02-0.018-0.047-0.039-0.072-0.057c-0.015-0.011-0.027-0.021-0.043-0.033
			c-0.046-0.031-0.099-0.063-0.164-0.101c-0.363-0.206-1.918,0.233-2.644,0.852c-0.046,0.04-0.085,0.082-0.118,0.127
			c-0.01,0.015-0.016,0.031-0.025,0.047c-0.02,0.03-0.04,0.062-0.052,0.095c-0.007,0.018-0.009,0.035-0.016,0.053
			c-0.009,0.033-0.021,0.067-0.026,0.104c-0.002,0.016-0.002,0.033-0.003,0.05c-0.004,0.039-0.006,0.078-0.004,0.118
			c0,0.015,0.002,0.029,0.004,0.044c0.004,0.045,0.008,0.09,0.018,0.136c0.002,0.011,0.006,0.022,0.008,0.033
			c0.012,0.051,0.024,0.103,0.041,0.154c0.003,0.009,0.007,0.016,0.01,0.023c0.019,0.057,0.041,0.113,0.064,0.172
			c0.002,0.004,0.004,0.008,0.005,0.013c0.027,0.061,0.056,0.123,0.087,0.186l0,0.001c-0.016,0.007-0.034,0.014-0.051,0.021
			c-0.609,0.235-1.223,0.477-1.84,0.723c-0.014,0.005-0.028,0.011-0.042,0.016c-0.624,0.249-1.248,0.501-1.873,0.759
			c-0.059,0.024-0.118,0.05-0.179,0.074c-0.518,0.215-1.036,0.433-1.551,0.653c-0.144,0.062-0.288,0.123-0.431,0.185
			c-0.579,0.25-1.153,0.501-1.723,0.757c-1.061,0.477-2.101,0.963-3.103,1.457c-1.717,0.845-3.428,2.339-4.697,4.005
			c-0.108,0.143-0.213,0.288-0.315,0.434c-0.028,0.04-0.057,0.081-0.084,0.122c-0.08,0.114-0.155,0.229-0.229,0.345
			c-0.022,0.036-0.046,0.071-0.069,0.107c-0.092,0.148-0.183,0.297-0.267,0.446c-0.01,0.021-0.022,0.04-0.033,0.061
			c-0.073,0.13-0.142,0.261-0.208,0.391c-0.02,0.039-0.041,0.079-0.06,0.119c-0.063,0.128-0.123,0.256-0.179,0.385
			c-0.01,0.021-0.02,0.045-0.03,0.066c-0.065,0.152-0.125,0.302-0.178,0.452c-0.01,0.027-0.019,0.056-0.029,0.083
			c-0.044,0.125-0.083,0.248-0.119,0.372c-0.01,0.034-0.021,0.068-0.03,0.102c-0.079,0.287-0.137,0.568-0.171,0.843
			c-0.003,0.029-0.005,0.059-0.008,0.088c-0.011,0.101-0.019,0.201-0.022,0.301c-0.002,0.038-0.003,0.078-0.004,0.117
			c-0.001,0.092,0,0.183,0.005,0.272c0.002,0.037,0.003,0.072,0.006,0.107c0.01,0.123,0.023,0.244,0.045,0.362
			c0.177,0.971,0.766,1.783,1.895,2.3c0.032,0.157,0.07,0.31,0.128,0.446c0.126,0.297,0.32,0.542,0.595,0.704
			c0,0,0.01,0,0.027,0.003c0.081,0.009,0.387,0.045,0.935,0.102l-0.037,0.399l-0.046,0.505c-0.116,1.274,0.574,2.358,1.542,2.423
			l8.53,0.567c0.185,0.012,0.366-0.015,0.541-0.073c0.735-0.249,1.329-1.086,1.422-2.117l0.075-0.82
			c0.453,0.024,0.923,0.049,1.402,0.075c0.014,0,0.026,0.001,0.041,0.001c0.484,0.026,0.98,0.052,1.489,0.076l-0.023,0.681v0.011
			c-0.048,1.341,0.67,2.447,1.603,2.471l8.216,0.207c0.118,0.003,0.235-0.012,0.348-0.042c0.774-0.21,1.384-1.173,1.425-2.342
			l0.019-0.537c1.11,0.032,2.259,0.064,3.444,0.095c0.003,0,0.005,0,0.008,0v0.458v0.217c0,1.342,0.787,2.429,1.758,2.429h8.556
			c0.106,0,0.209-0.015,0.31-0.04c0.823-0.204,1.449-1.195,1.449-2.39v-0.456c0.042,0,0.084,0.001,0.126,0.001
			c0.934,0.011,1.886,0.02,2.853,0.028v0.19v0.457c0,1.461,0.788,2.646,1.758,2.646h8.482h0.075c0.971,0,1.758-1.185,1.758-2.646
			v-0.607c5.091-0.009,9.741-0.05,13.975-0.112c0.002,0,0.005,0,0.007,0c0.386-0.005,0.769-0.011,1.147-0.018
			c0.078,0,0.155-0.002,0.233-0.003c0.34-0.005,0.677-0.011,1.012-0.017c0.118-0.002,0.234-0.004,0.352-0.006
			c0.307-0.005,0.612-0.011,0.915-0.017c0.157-0.002,0.312-0.005,0.468-0.009c0.346-0.007,0.688-0.014,1.03-0.021
			c0.335-0.007,0.669-0.014,0.999-0.021c0.108-0.002,0.214-0.005,0.321-0.007c0.236-0.005,0.473-0.011,0.705-0.016l0.032,0.457
			l0.035,0.519c0.095,1.39,0.99,2.475,1.999,2.425l8.772-0.436l0.125-0.006c1.01-0.051,1.752-1.218,1.655-2.607l-0.051-0.752
			c0.725-0.031,1.424-0.062,2.1-0.093c0.003,0,0.008,0,0.011,0c0.271-0.015,0.536-0.026,0.798-0.038
			c0.085-0.004,0.172-0.009,0.256-0.013c0.249-0.012,0.494-0.024,0.736-0.036c0.054-0.003,0.111-0.006,0.165-0.009l0.034,0.542
			l0.002,0.03c0.083,1.338,0.936,2.389,1.905,2.345l8.022-0.364l0.523-0.023c0.968-0.044,1.687-1.165,1.604-2.504l-0.056-0.864
			c0.392-0.039,0.707-0.072,0.95-0.1c0.021-0.002,0.043-0.004,0.064-0.007c0.058-0.007,0.11-0.013,0.159-0.018
			c0.011-0.002,0.023-0.003,0.034-0.005c0.053-0.005,0.098-0.012,0.139-0.017c0.018-0.002,0.032-0.002,0.047-0.006
			c0.034-0.003,0.062-0.007,0.087-0.01c0.005-0.001,0.01-0.002,0.014-0.002c0.028-0.003,0.049-0.005,0.064-0.008
			c0.003,0,0.005,0,0.007-0.001c0.012-0.002,0.02-0.003,0.02-0.003c0.627-0.265,1.082-0.641,1.407-1.06
			c0.45-0.575,0.657-1.225,0.749-1.762c0.03-0.033,0.06-0.068,0.088-0.104c0.027-0.031,0.054-0.062,0.081-0.094
			c0.069-0.085,0.137-0.174,0.203-0.264c0.019-0.027,0.038-0.053,0.058-0.081c0.068-0.097,0.134-0.197,0.199-0.3
			c0.014-0.022,0.027-0.044,0.041-0.066c0.065-0.108,0.13-0.22,0.192-0.335c0.004-0.008,0.01-0.017,0.015-0.025
			c0.002-0.006,0.006-0.013,0.01-0.019c0.383-0.722,0.676-1.549,0.891-2.461c0.001-0.003,0.002-0.007,0.003-0.01
			c0-0.001,0-0.003,0.001-0.004c0.079-0.341,0.147-0.692,0.205-1.054c0-0.002,0-0.004,0.002-0.006
			c0.059-0.366,0.107-0.742,0.146-1.128c0-0.003,0-0.004,0.001-0.008c0-0.002,0-0.006,0-0.009c0.062-0.636,0.098-1.297,0.11-1.979
			C243.819,484.133,243.819,484.131,243.819,484.129z"/>
		
			<radialGradient id="SVGID_1_" cx="-222.7329" cy="474.0908" r="109.7515" gradientTransform="matrix(1.2256 0 0 1.0458 331.394 -22.9282)" gradientUnits="userSpaceOnUse">
			<stop  offset="0.0051" style="stop-color:#E8A81F"/>
			<stop  offset="1" style="stop-color:#A8781A"/>
		</radialGradient>
		<path display="inline" fill="url(#SVGID_1_)" d="M242.272,490.972c0-1.772-1.595-1.557-2.52-1.557l-111.021,0.489
			c-0.779,0-2.186,1.954-1.517,3.534c0.127,0.297,1.284,1.194,2.698,1.336c0,0,0.314,0.038,0.962,0.104l-0.037,0.399l-0.046,0.505
			c-0.116,1.274,0.574,2.358,1.542,2.423l8.53,0.567c0.185,0.012,0.366-0.015,0.541-0.073c0.735-0.249,1.329-1.086,1.422-2.117
			l0.075-0.82c0.923,0.051,1.903,0.103,2.932,0.152l-0.023,0.681v0.011c-0.048,1.341,0.67,2.447,1.603,2.471l8.216,0.207
			c0.118,0.003,0.235-0.012,0.348-0.042c0.774-0.21,1.384-1.173,1.425-2.342l0.019-0.537c1.112,0.032,2.265,0.064,3.452,0.095v0.458
			v0.217c0,1.342,0.787,2.429,1.758,2.429h8.556c0.106,0,0.209-0.015,0.31-0.04c0.823-0.204,1.449-1.195,1.449-2.39v-0.456
			c0.975,0.011,1.968,0.021,2.979,0.029v0.19v0.457c0,1.461,0.788,2.646,1.758,2.646h8.482h0.075c0.971,0,1.758-1.185,1.758-2.646
			v-0.607c8.148-0.015,15.166-0.108,21.162-0.245l0.032,0.457l0.035,0.519c0.095,1.39,0.99,2.475,1.999,2.425l8.772-0.436
			l0.125-0.006c1.01-0.051,1.752-1.218,1.655-2.607l-0.051-0.753c1.453-0.061,2.809-0.123,4.066-0.188l0.034,0.542l0.002,0.03
			c0.083,1.338,0.936,2.389,1.905,2.345l8.022-0.364l0.523-0.023c0.968-0.044,1.687-1.165,1.604-2.504l-0.056-0.864
			c1.083-0.107,1.585-0.175,1.585-0.175c0.627-0.265,1.718-0.641,2.044-1.059C242.442,492.587,242.272,490.972,242.272,490.972z"/>
		
			<radialGradient id="SVGID_2_" cx="-105.2236" cy="492.0479" r="12.0777" gradientTransform="matrix(1.2256 0 0 1.0458 331.394 -22.9282)" gradientUnits="userSpaceOnUse">
			<stop  offset="0.0051" style="stop-color:#E8A81F"/>
			<stop  offset="1" style="stop-color:#A8781A"/>
		</radialGradient>
		<path display="inline" fill="url(#SVGID_2_)" d="M220.191,497.195c-2.968-1.81-7.142,0.496-10.997-0.237l0.035,0.519
			c0.095,1.39,0.99,2.475,1.999,2.425l8.772-0.436C220.589,498.537,220.783,497.447,220.191,497.195z"/>
		
			<radialGradient id="SVGID_3_" cx="-105.9302" cy="484.2773" r="16.1907" gradientTransform="matrix(1.2256 0 0 1.0458 331.394 -22.9282)" gradientUnits="userSpaceOnUse">
			<stop  offset="0.0051" style="stop-color:#E8A81F"/>
			<stop  offset="1" style="stop-color:#91631A"/>
		</radialGradient>
		<path display="inline" fill="url(#SVGID_3_)" d="M221.781,496.854l-0.106-1.568c-0.095-1.39-0.991-2.475-2-2.425l-8.896,0.442
			c-1.01,0.05-1.751,1.217-1.656,2.606l0.072,1.049c3.855,0.733,8.029-1.573,10.997,0.237c0.592,0.251,0.398,1.342-0.19,2.271
			l0.125-0.006C221.136,499.41,221.878,498.243,221.781,496.854z"/>
		
			<radialGradient id="SVGID_4_" cx="-91.5293" cy="493.4282" r="11.1479" gradientTransform="matrix(1.2256 0 0 1.0458 331.394 -22.9282)" gradientUnits="userSpaceOnUse">
			<stop  offset="0.0051" style="stop-color:#E8A81F"/>
			<stop  offset="1" style="stop-color:#A8781A"/>
		</radialGradient>
		<path display="inline" fill="url(#SVGID_4_)" d="M236.733,496.813c-3.485-0.744-7.395-0.041-10.903-0.358l0.002,0.03
			c0.083,1.338,0.936,2.389,1.905,2.345l8.022-0.364C236.646,497.719,237.286,497.049,236.733,496.813z"/>
		
			<radialGradient id="SVGID_5_" cx="-92.1226" cy="483.8335" r="15.5866" gradientTransform="matrix(1.2256 0 0 1.0458 331.394 -22.9282)" gradientUnits="userSpaceOnUse">
			<stop  offset="0.0051" style="stop-color:#E8A81F"/>
			<stop  offset="1" style="stop-color:#91631A"/>
		</radialGradient>
		<path display="inline" fill="url(#SVGID_5_)" d="M237.888,495.939l-0.095-1.513c-0.083-1.338-0.937-2.389-1.906-2.345
			l-8.544,0.387c-0.97,0.044-1.688,1.166-1.605,2.505l0.093,1.481c3.508,0.317,7.417-0.386,10.903,0.358
			c0.552,0.235-0.087,0.905-0.973,1.653l0.523-0.023C237.251,498.399,237.97,497.278,237.888,495.939z"/>
		
			<radialGradient id="SVGID_6_" cx="-168.8486" cy="490.79" r="11.5419" gradientTransform="matrix(1.2256 0 0 1.0458 331.394 -22.9282)" gradientUnits="userSpaceOnUse">
			<stop  offset="0.0051" style="stop-color:#E8A81F"/>
			<stop  offset="1" style="stop-color:#A8781A"/>
		</radialGradient>
		<path display="inline" fill="url(#SVGID_6_)" d="M130.839,495.278l-0.046,0.505c-0.116,1.274,0.574,2.358,1.542,2.423l8.53,0.567
			c0.185,0.012,0.366-0.015,0.541-0.073C139.735,495.655,134.668,496.062,130.839,495.278z"/>
		
			<radialGradient id="SVGID_7_" cx="-169.5317" cy="483.688" r="15.7472" gradientTransform="matrix(1.2256 0 0 1.0458 331.394 -22.9282)" gradientUnits="userSpaceOnUse">
			<stop  offset="0.0051" style="stop-color:#E8A81F"/>
			<stop  offset="1" style="stop-color:#91631A"/>
		</radialGradient>
		<path display="inline" fill="url(#SVGID_7_)" d="M141.417,492.725l-8.529-0.567c-0.968-0.064-1.847,0.916-1.963,2.189
			l-0.084,0.932c3.829,0.784,8.896,0.377,10.566,3.422c0.735-0.249,1.329-1.086,1.422-2.117l0.131-1.438
			C143.075,493.872,142.387,492.788,141.417,492.725z"/>
		
			<radialGradient id="SVGID_8_" cx="-157.0791" cy="484.2349" r="15.4066" gradientTransform="matrix(1.2256 0 0 1.0458 331.394 -22.9282)" gradientUnits="userSpaceOnUse">
			<stop  offset="0.0051" style="stop-color:#E8A81F"/>
			<stop  offset="1" style="stop-color:#91631A"/>
		</radialGradient>
		<path display="inline" fill="url(#SVGID_8_)" d="M155.852,492.916l-8.215-0.207c-0.933-0.023-1.725,1.044-1.773,2.384
			l-0.052,1.502c3.583,0.63,9.47-0.49,10.167,2.646c0.774-0.21,1.384-1.173,1.425-2.342l0.053-1.514
			C157.502,494.046,156.785,492.94,155.852,492.916z"/>
		
			<radialGradient id="SVGID_9_" cx="-156.3633" cy="493.1416" r="10.5367" gradientTransform="matrix(1.2256 0 0 1.0458 331.394 -22.9282)" gradientUnits="userSpaceOnUse">
			<stop  offset="0.0051" style="stop-color:#E8A81F"/>
			<stop  offset="1" style="stop-color:#A8781A"/>
		</radialGradient>
		<path display="inline" fill="url(#SVGID_9_)" d="M145.812,496.596v0.011c-0.048,1.341,0.67,2.447,1.603,2.471l8.216,0.207
			c0.118,0.003,0.235-0.012,0.348-0.042C155.282,496.105,149.395,497.226,145.812,496.596z"/>
		
			<radialGradient id="SVGID_10_" cx="-144.3257" cy="493.5049" r="10.9538" gradientTransform="matrix(1.2256 0 0 1.0458 331.394 -22.9282)" gradientUnits="userSpaceOnUse">
			<stop  offset="0.0051" style="stop-color:#E8A81F"/>
			<stop  offset="1" style="stop-color:#A8781A"/>
		</radialGradient>
		<path display="inline" fill="url(#SVGID_10_)" d="M171.009,497.958c-2.536-1.804-6.668-0.542-10.134-1.042v0.217
			c0,1.342,0.787,2.429,1.758,2.429h8.556c0.106,0,0.209-0.015,0.31-0.04C171.686,498.842,171.464,498.151,171.009,497.958z"/>
		
			<radialGradient id="SVGID_11_" cx="-144.9976" cy="484.9624" r="15.4665" gradientTransform="matrix(1.2256 0 0 1.0458 331.394 -22.9282)" gradientUnits="userSpaceOnUse">
			<stop  offset="0.0051" style="stop-color:#E8A81F"/>
			<stop  offset="1" style="stop-color:#91631A"/>
		</radialGradient>
		<path display="inline" fill="url(#SVGID_11_)" d="M171.188,493.188h-8.556c-0.971,0-1.758,1.088-1.758,2.429v1.298
			c3.466,0.5,7.598-0.762,10.134,1.042c0.456,0.193,0.677,0.884,0.49,1.565c0.823-0.204,1.449-1.195,1.449-2.39v-1.516
			C172.947,494.276,172.159,493.188,171.188,493.188z"/>
		
			<radialGradient id="SVGID_12_" cx="-132.0073" cy="492.8716" r="11.2171" gradientTransform="matrix(1.2256 0 0 1.0458 331.394 -22.9282)" gradientUnits="userSpaceOnUse">
			<stop  offset="0.0051" style="stop-color:#E8A81F"/>
			<stop  offset="1" style="stop-color:#A8781A"/>
		</radialGradient>
		<path display="inline" fill="url(#SVGID_12_)" d="M185.764,497.958c-2.999-1.098-6.409-0.446-9.837-1.061v0.457
			c0,1.461,0.788,2.646,1.758,2.646h8.482C186.758,499.172,186.67,498.216,185.764,497.958z"/>
		
			<radialGradient id="SVGID_13_" cx="-132.7153" cy="484.0254" r="16.1665" gradientTransform="matrix(1.2256 0 0 1.0458 331.394 -22.9282)" gradientUnits="userSpaceOnUse">
			<stop  offset="0.0051" style="stop-color:#E8A81F"/>
			<stop  offset="1" style="stop-color:#91631A"/>
		</radialGradient>
		<path display="inline" fill="url(#SVGID_13_)" d="M186.242,493.062h-8.557c-0.97,0-1.758,1.185-1.758,2.644v1.192
			c3.428,0.614,6.838-0.037,9.837,1.061c0.907,0.258,0.995,1.214,0.403,2.042h0.075c0.971,0,1.758-1.185,1.758-2.646v-1.649
			C188,494.246,187.213,493.062,186.242,493.062z"/>
		
			<radialGradient id="SVGID_14_" cx="-103.8174" cy="464.0776" r="39.0576" gradientTransform="matrix(1.2256 0 0 1.0458 331.394 -22.9282)" gradientUnits="userSpaceOnUse">
			<stop  offset="0.0051" style="stop-color:#BDBDBF"/>
			<stop  offset="1" style="stop-color:#121217"/>
		</radialGradient>
		<path display="inline" fill="url(#SVGID_14_)" d="M238.896,462.16c0,0-6.855-2.606-9.539,2.543
			c-2.682,5.149-8.042,5.637-13.409,4.492c-5.364-1.145-10.729-9.156-13.412-10.873c-1.264-0.808-4-1.132-7.313-0.77
			c3.031,3.857,5.117,8.224,8.424,12.173c4.023,4.197,10.283,5.724,16.095,6.486c7.602,1.144,13.415-3.434,18.332-8.775
			c0.458-0.585,1.384-0.97,2.478-1.156C239.992,464.651,239.422,463.236,238.896,462.16z"/>
		<path display="inline" d="M238.896,462.16l-0.003-0.002c-5.878,0.527-6.975,4.376-11.548,7.567
			c-9.397,5.832-18.382-1.568-23.065-9.893c-0.662-0.662-1.248-1.194-1.743-1.511c-1.264-0.808-4-1.132-7.313-0.77
			c3.031,3.857,5.117,8.224,8.424,12.173c4.023,4.197,10.283,5.724,16.095,6.486c7.602,1.144,13.415-3.434,18.332-8.775
			c0.458-0.585,1.384-0.97,2.478-1.156C239.992,464.651,239.422,463.236,238.896,462.16z"/>
		<path display="inline" fill="#B2B2B2" d="M227.345,469.726c4.573-3.191,5.67-7.04,11.548-7.567
			c-0.066-0.024-6.865-2.58-9.535,2.545c-2.682,5.149-8.042,5.637-13.409,4.492c-4.375-0.934-8.75-6.434-11.669-9.362
			C208.962,468.157,217.948,475.558,227.345,469.726z"/>
		
			<radialGradient id="SVGID_15_" cx="-94.0649" cy="473.228" r="2.1132" gradientTransform="matrix(1.2256 0 0 1.0458 331.394 -22.9282)" gradientUnits="userSpaceOnUse">
			<stop  offset="0.0051" style="stop-color:#BDBDBF"/>
			<stop  offset="1" style="stop-color:#121217"/>
		</radialGradient>
		<path display="inline" fill="url(#SVGID_15_)" d="M238.075,466.865c-4.917,5.341-10.73,9.919-18.332,8.774
			c-5.812-0.764-12.072-2.289-16.095-6.486c-3.155-3.769-5.203-7.917-8.017-11.641c-0.135,0.012-0.27,0.024-0.408,0.04
			c3.031,3.857,5.117,8.224,8.424,12.173c4.023,4.197,10.283,5.724,16.095,6.486c7.602,1.144,13.415-3.434,18.332-8.775
			c0.458-0.585,1.384-0.97,2.478-1.156c-0.062-0.181-0.125-0.358-0.188-0.534C239.354,465.943,238.506,466.313,238.075,466.865z"/>
		
			<radialGradient id="SVGID_16_" cx="-149.1943" cy="466.0117" r="50.6456" gradientTransform="matrix(1.2256 0 0 1.0458 331.394 -22.9282)" gradientUnits="userSpaceOnUse">
			<stop  offset="0.0051" style="stop-color:#BDBDBF"/>
			<stop  offset="1" style="stop-color:#121217"/>
		</radialGradient>
		<path display="inline" fill="url(#SVGID_16_)" d="M148.653,483.079c3.131-0.382,2.236-3.815,4.472-5.341
			c4.918-3.052,10.731-4.579,16.989-6.104c8.943-1.908,16.097-6.104,24.144-9.538c1.395-0.297,1.156-2.449,0.348-4.467
			c-3.588,0.474-7.761,1.732-11.45,4.022c-7.377,4.577-21.506,9.481-26.528,11.19c-4.289,1.459-12.407,4.234-19.551,7.445
			C139.966,482.865,144.104,484.114,148.653,483.079z"/>
		
			<radialGradient id="SVGID_17_" cx="-149.1943" cy="466.0117" r="50.6456" gradientTransform="matrix(1.2256 0 0 1.0458 331.394 -22.9282)" gradientUnits="userSpaceOnUse">
			<stop  offset="0.0051" style="stop-color:#BDBDBF"/>
			<stop  offset="1" style="stop-color:#121217"/>
		</radialGradient>
		<path display="inline" fill="url(#SVGID_17_)" d="M148.653,483.079c3.131-0.382,2.236-3.815,4.472-5.341
			c4.918-3.052,10.731-4.579,16.989-6.104c8.943-1.908,16.097-6.104,24.144-9.538c1.395-0.297,1.156-2.449,0.348-4.467
			c-3.588,0.474-7.761,1.732-11.45,4.022c-7.377,4.577-21.506,9.481-26.528,11.19c-4.289,1.459-12.407,4.234-19.551,7.445
			C139.966,482.865,144.104,484.114,148.653,483.079z"/>
		<path display="inline" d="M148.653,483.079c3.131-0.382,2.236-3.815,4.472-5.341c4.918-3.052,10.731-4.579,16.989-6.104
			c8.943-1.908,16.097-6.104,24.144-9.538c1.395-0.297,1.156-2.449,0.348-4.467c-3.588,0.474-7.761,1.732-11.45,4.022
			c-7.377,4.577-21.506,9.481-26.528,11.19c-4.289,1.459-12.407,4.234-19.551,7.445
			C139.966,482.865,144.104,484.114,148.653,483.079z"/>
		
			<radialGradient id="SVGID_18_" cx="-161.0493" cy="476.0039" r="18.1604" gradientTransform="matrix(1.2256 0 0 1.0458 331.394 -22.9282)" gradientUnits="userSpaceOnUse">
			<stop  offset="0.0051" style="stop-color:#BDBDBF"/>
			<stop  offset="1" style="stop-color:#121217"/>
		</radialGradient>
		<path display="inline" fill="url(#SVGID_18_)" d="M194.606,457.629c-0.039,0.005-0.08,0.011-0.117,0.016
			c0.678,1.894,0.8,3.788-0.501,4.066c-8.048,3.434-15.203,7.63-24.145,9.537c-6.259,1.526-12.071,3.052-16.99,6.104
			c-2.235,1.526-1.341,4.958-4.471,5.341c-4.35,0.989-8.317-0.111-11.183-2.46c-0.041,0.018-0.083,0.036-0.123,0.054
			c2.889,2.578,7.026,3.827,11.576,2.792c3.131-0.382,2.236-3.815,4.472-5.341c4.918-3.052,10.731-4.579,16.989-6.104
			c8.943-1.908,16.097-6.104,24.144-9.538C195.653,461.799,195.414,459.647,194.606,457.629z"/>
		
			<radialGradient id="SVGID_19_" cx="-99.1704" cy="481.5215" r="37.2726" gradientTransform="matrix(1.2256 0 0 1.0458 331.394 -22.9282)" gradientUnits="userSpaceOnUse">
			<stop  offset="0.0051" style="stop-color:#BDBDBF"/>
			<stop  offset="1" style="stop-color:#121217"/>
		</radialGradient>
		<path display="inline" fill="url(#SVGID_19_)" d="M229.581,480.791c-1.789,0.763-3.578,0.763-4.919,1.526
			c-8.115,4.073-16.103,8.146-23.148,13.033c19.205-0.072,35.601-0.612,38.579-2.121c4.329-2.192,4.302-10.215,2.864-17.838
			C238.292,476.942,234.048,479.156,229.581,480.791z"/>
		<path display="inline" d="M202.485,468.259c-2.668-3.544-4.601-7.321-7.261-10.707c-0.203,0.022-0.41,0.049-0.618,0.076
			c0.808,2.019,1.047,4.17-0.348,4.467c-5.216,2.225-10.059,4.768-15.254,6.803l4.393,5.97
			C190.077,473.198,198.156,472.692,202.485,468.259z"/>
		<path display="inline" d="M153.572,486.513c7.064-4.688,14.819-8.2,23.563-10.021l-4.02-5.602
			c-0.98,0.274-1.978,0.526-3.001,0.744c-6.258,1.525-12.071,3.052-16.989,6.104c-2.236,1.526-1.341,4.959-4.472,5.341
			c-4.549,1.035-8.687-0.214-11.576-2.792c-1.061,0.477-2.101,0.963-3.103,1.457c-1.717,0.845-3.428,2.339-4.697,4.005
			c0.054,0,0.106,0,0.151,0C134.793,492.617,147.759,490.709,153.572,486.513z"/>
		<path display="inline" fill="#B2B2B2" d="M166.97,469.559c0,0,0.533,0.823,0.674,1.702c0.11,0.686-2.564,1.57-3.168,0.745
			c-0.605-0.825-1.648-2.127-0.924-2.746c0.726-0.62,2.282-1.058,2.646-0.852C166.737,468.716,166.546,468.77,166.97,469.559z"/>
		<path display="inline" fill="#B2B2B2" d="M162.351,470.829c0,0,0.533,0.824,0.674,1.703c0.11,0.687-2.564,1.57-3.169,0.745
			c-0.604-0.824-1.648-2.127-0.922-2.746c0.726-0.618,2.281-1.058,2.644-0.852C162.117,469.987,161.927,470.041,162.351,470.829z"/>
		<path display="inline" fill="#B2B2B2" d="M157.731,472.61c0,0,0.533,0.824,0.673,1.702c0.109,0.687-2.564,1.57-3.169,0.745
			c-0.604-0.825-1.649-2.127-0.922-2.746c0.725-0.619,2.282-1.058,2.644-0.852C157.498,471.769,157.305,471.822,157.731,472.61z"/>
		<path display="inline" fill="#B2B2B2" d="M153.111,474.39c0,0,0.532,0.824,0.673,1.703c0.109,0.686-2.564,1.57-3.168,0.746
			c-0.605-0.825-1.647-2.128-0.923-2.747c0.725-0.618,2.282-1.057,2.644-0.852C152.877,473.549,152.686,473.603,153.111,474.39z"/>
		<path display="inline" fill="#B2B2B2" d="M148.192,476.044c0,0,0.533,0.824,0.673,1.703c0.11,0.686-2.562,1.569-3.168,0.744
			c-0.604-0.825-1.647-2.127-0.922-2.746c0.726-0.619,2.281-1.058,2.644-0.852C147.96,475.202,147.768,475.256,148.192,476.044z"/>
		<path display="inline" d="M229.581,480.791c4.467-1.634,8.711-3.848,13.375-5.4c-0.619-3.276-1.497-6.477-2.403-9.11
			c-1.094,0.187-2.02,0.571-2.478,1.156c-4.917,5.342-10.73,9.919-18.332,8.775c-5.812-0.763-12.072-2.289-16.095-6.486
			c-0.404-0.482-0.791-0.972-1.163-1.466c-4.33,4.433-12.409,4.939-19.088,6.61l9.797,13.314c6.517-0.372,13.06-0.458,19.658,0.01
			c0.129,0.014,0.263,0.024,0.394,0.035c3.715-2.029,7.55-3.972,11.415-5.912C226.003,481.554,227.792,481.554,229.581,480.791z"/>
		<path display="inline" d="M193.195,488.184l4.688,6.37l4.841-0.014c3.341-2.241,6.877-4.317,10.523-6.312
			c-0.131-0.011-0.265-0.021-0.394-0.035C206.255,487.726,199.711,487.812,193.195,488.184z"/>
		
			<radialGradient id="SVGID_20_" cx="-111.6172" cy="491.1426" r="3.916" gradientTransform="matrix(1.2256 0 0 1.0458 331.394 -22.9282)" gradientUnits="userSpaceOnUse">
			<stop  offset="0.0051" style="stop-color:#BDBDBF"/>
			<stop  offset="1" style="stop-color:#121217"/>
		</radialGradient>
		<path display="inline" fill="url(#SVGID_20_)" d="M197.883,494.554l0.591,0.804c1.02-0.001,2.034-0.005,3.04-0.008
			c0.397-0.274,0.807-0.539,1.21-0.81L197.883,494.554z"/>
		<path display="inline" d="M153.572,486.513c-5.812,4.196-18.779,6.104-24.144-0.764c-0.045,0-0.097,0-0.151,0
			c-0.972,1.276-1.682,2.654-1.936,3.921c1.508,1.31,3.716,2.151,5.926,2.339c17.764,1.01,35.135-1.825,52.634-3.303l-8.766-12.214
			C168.391,478.312,160.636,481.824,153.572,486.513z"/>
		<path display="inline" d="M189.992,494.405l-4.091-5.698c-17.499,1.478-34.87,4.313-52.634,3.303
			c-2.21-0.188-4.418-1.03-5.926-2.339c-0.117,0.582-0.139,1.141-0.045,1.654c0.286,1.564,1.636,2.72,4.593,2.882
			c4.867,0.269,32.563,1.03,58.777,1.14L189.992,494.405z"/>
		
			<radialGradient id="SVGID_21_" cx="-147.9775" cy="475.0552" r="88.3759" gradientTransform="matrix(1.2256 0 0 1.0458 331.394 -22.9282)" gradientUnits="userSpaceOnUse">
			<stop  offset="0.0051" style="stop-color:#BDBDBF"/>
			<stop  offset="1" style="stop-color:#121217"/>
		</radialGradient>
		<polygon display="inline" fill="url(#SVGID_21_)" points="189.992,494.405 177.135,476.492 177.135,476.492 189.992,494.405 		"/>
		
			<radialGradient id="SVGID_22_" cx="-124.8423" cy="476.915" r="30.1812" gradientTransform="matrix(1.2256 0 0 1.0458 331.394 -22.9282)" gradientUnits="userSpaceOnUse">
			<stop  offset="0.0051" style="stop-color:#BDBDBF"/>
			<stop  offset="1" style="stop-color:#2E2E2E"/>
		</radialGradient>
		<polygon display="inline" fill="url(#SVGID_22_)" points="189.992,494.405 177.135,476.492 177.135,476.492 189.992,494.405 		"/>
		
			<radialGradient id="SVGID_23_" cx="-147.9292" cy="475.0498" r="88.288" gradientTransform="matrix(1.2256 0 0 1.0458 331.394 -22.9282)" gradientUnits="userSpaceOnUse">
			<stop  offset="0.0051" style="stop-color:#BDBDBF"/>
			<stop  offset="1" style="stop-color:#121217"/>
		</radialGradient>
		<polygon display="inline" fill="url(#SVGID_23_)" points="189.992,494.405 190.666,495.346 189.992,494.405 		"/>
		
			<radialGradient id="SVGID_24_" cx="-124.8281" cy="476.9106" r="30.1769" gradientTransform="matrix(1.2256 0 0 1.0458 331.394 -22.9282)" gradientUnits="userSpaceOnUse">
			<stop  offset="0.0051" style="stop-color:#BDBDBF"/>
			<stop  offset="1" style="stop-color:#2E2E2E"/>
		</radialGradient>
		<polygon display="inline" fill="url(#SVGID_24_)" points="189.992,494.405 190.666,495.346 189.992,494.405 		"/>
		<path display="inline" fill="#B2B2B2" d="M197.883,494.554l-4.688-6.37c-1.381,0.079-2.76,0.172-4.139,0.273
			c-1.053,0.078-2.103,0.161-3.155,0.25l4.091,5.698l0.674,0.941c0.718,0.003,1.431,0.004,2.146,0.006
			c1.899,0.005,3.792,0.007,5.662,0.005L197.883,494.554z"/>
		
			<radialGradient id="SVGID_25_" cx="-142.7461" cy="475.1128" r="88.1161" gradientTransform="matrix(1.2256 0 0 1.0458 331.394 -22.9282)" gradientUnits="userSpaceOnUse">
			<stop  offset="0.0051" style="stop-color:#BDBDBF"/>
			<stop  offset="1" style="stop-color:#121217"/>
		</radialGradient>
		<polygon display="inline" fill="url(#SVGID_25_)" points="197.883,494.554 198.474,495.357 197.883,494.554 		"/>
		<g display="inline">
			<path fill="#B2B2B2" d="M183.401,474.875c-0.608,0.146-1.55,0.373-2.68,0.654c-1.329,0.331-2.772,0.722-3.597,0.95l0.01,0.014
				l8.766,12.214c1.052-0.089,2.102-0.171,3.155-0.25c1.379-0.102,2.758-0.194,4.139-0.273L183.401,474.875z"/>
			<path fill="#B2B2B2" d="M183.401,474.875l-0.004-0.006l-0.391-0.53l-4.002-5.439c-1.904,0.745-3.855,1.424-5.889,1.991
				l4.01,5.588c0.824-0.228,2.268-0.619,3.597-0.95C181.852,475.248,182.793,475.021,183.401,474.875z"/>
		</g>
		
			<radialGradient id="SVGID_26_" cx="-120.2021" cy="476.2915" r="19.3193" gradientTransform="matrix(1.2256 0 0 1.0458 331.394 -22.9282)" gradientUnits="userSpaceOnUse">
			<stop  offset="0.0051" style="stop-color:#BDBDBF"/>
			<stop  offset="1" style="stop-color:#121217"/>
		</radialGradient>
		<polygon display="inline" fill="url(#SVGID_26_)" points="197.883,494.554 198.474,495.357 197.883,494.554 		"/>
		
			<radialGradient id="SVGID_27_" cx="-142.7676" cy="475.1064" r="88.1647" gradientTransform="matrix(1.2256 0 0 1.0458 331.394 -22.9282)" gradientUnits="userSpaceOnUse">
			<stop  offset="0.0051" style="stop-color:#BDBDBF"/>
			<stop  offset="1" style="stop-color:#121217"/>
		</radialGradient>
		<rect x="190.64" y="472.491" display="inline" fill="url(#SVGID_27_)" width="0" height="24.44"/>
		
			<radialGradient id="SVGID_28_" cx="-134.769" cy="461.3506" r="19.8223" gradientTransform="matrix(1.2256 0 0 1.0458 331.394 -22.9282)" gradientUnits="userSpaceOnUse">
			<stop  offset="0.0051" style="stop-color:#BDBDBF"/>
			<stop  offset="1" style="stop-color:#000803"/>
		</radialGradient>
		<path display="inline" fill="url(#SVGID_28_)" d="M202.928,459.694c-0.441,2.607-1.215,5.289-3.751,6.217
			c-4.471,1.908-10.73-0.381-15.648,1.908c-3.577,1.144-6.261,3.814-9.836,4.959c-3.623,0.883-4.999-1.046-6.209-3.418
			c0.293,1.81,1.462,5.262,6.125,4.052c6.225-1.616,8.66-4.618,13.26-5.542c4.599-0.924,9.47,0.461,12.718-0.693
			c3.247-1.154,4.059-6.695,4.059-6.695L202.928,459.694z"/>
		<path display="inline" fill="#B2B2B2" d="M201.007,457.587l-4.169-0.281c0,0-2.165-0.666-4.436-0.828
			c0.104,0.514,0.228,1.016,0.069,1.423c1.788,0.381,3.13,1.144,3.576,2.669c0.447,1.908-1.789,3.435-3.576,3.435
			c-7.155,0-12.072,2.67-17.885,6.104c-1.666,1.186-3.852,1.338-6.125,0.919c1.066,1.498,2.52,2.413,5.232,1.752
			c3.575-1.145,6.259-3.815,9.836-4.959c4.918-2.29,11.178,0,15.648-1.908c2.536-0.928,3.31-3.609,3.751-6.217L201.007,457.587z"/>
		<path display="inline" d="M174.585,470.107c5.813-3.434,10.73-6.104,17.885-6.104c1.788,0,4.023-1.526,3.576-3.435
			c-0.446-1.525-1.789-2.288-3.576-2.669c0.159-0.407,0.036-0.909-0.069-1.423c-1.567-0.11-3.186,0.018-4.181,0.772
			c-2.435,1.847-12.718,7.388-14.341,7.85c-1.624,0.462-6.495,3.232-6.495,3.232s0,0.422,0.099,1.028
			c0.304,0.596,0.618,1.164,0.977,1.666C170.734,471.445,172.919,471.293,174.585,470.107z"/>
		<path display="inline" d="M243.808,482.758c-0.04-1.395-0.166-2.849-0.36-4.319c-0.135-1.014-0.3-2.034-0.491-3.048
			c-1.512,0.503-2.978,1.078-4.424,1.678c-0.871,0.332-3.95,1.5-6.281,2.337c-2.248,0.808-5.317,2.007-6.35,2.414
			c-0.441,0.128-0.859,0.279-1.24,0.496c-3.844,1.929-7.657,3.861-11.353,5.88c3.506,0.255,6.951,0.451,10.505,0.223
			c0.584-0.142,1.169-0.284,1.755-0.427c-0.688,0.167-1.374,0.335-2.057,0.502C230.936,488.168,238.43,486.602,243.808,482.758z"/>
		<path display="inline" d="M243.808,482.758c-5.377,3.844-12.872,5.41-20.295,5.736c-0.363,0.088-0.726,0.177-1.088,0.267
			c0.463-0.115,0.925-0.228,1.39-0.342c-3.554,0.229-6.999,0.032-10.505-0.223c-3.667,2.001-7.221,4.086-10.578,6.34
			c-0.003,0.001-0.005,0.003-0.008,0.004c-0.403,0.271-0.812,0.535-1.21,0.81c0.925-0.004,1.84-0.008,2.75-0.015
			c18-0.112,32.993-0.671,35.828-2.106c1.014-0.514,1.784-1.347,2.358-2.417C243.529,488.796,243.898,485.935,243.808,482.758z"/>
		
			<radialGradient id="SVGID_29_" cx="168.8057" cy="477.0522" r="4.3781" gradientTransform="matrix(1.3003 0 0 1.0458 -73.274 -22.9282)" gradientUnits="userSpaceOnUse">
			<stop  offset="0.0051" style="stop-color:#939396"/>
			<stop  offset="1" style="stop-color:#000803"/>
		</radialGradient>
		<path display="inline" fill="url(#SVGID_29_)" d="M147.418,474.894c-0.028-0.017-0.077-0.022-0.119-0.03
			c0.069,0.148,0.131,0.355,0.333,0.729c0,0,0.532,0.823,0.673,1.703c0.093,0.578-1.788,1.293-2.745,1.011
			c0.047,0.063,0.093,0.126,0.136,0.185c0.606,0.825,3.279-0.059,3.168-0.744c-0.14-0.879-0.673-1.703-0.673-1.703
			C147.768,475.256,147.96,475.202,147.418,474.894z"/>
		
			<radialGradient id="SVGID_30_" cx="172.5884" cy="475.4722" r="4.378" gradientTransform="matrix(1.3003 0 0 1.0458 -73.274 -22.9282)" gradientUnits="userSpaceOnUse">
			<stop  offset="0.0051" style="stop-color:#939396"/>
			<stop  offset="1" style="stop-color:#000803"/>
		</radialGradient>
		<path display="inline" fill="url(#SVGID_30_)" d="M152.336,473.24c-0.028-0.016-0.076-0.021-0.119-0.03
			c0.068,0.149,0.131,0.356,0.333,0.729c0,0,0.533,0.823,0.674,1.703c0.091,0.578-1.789,1.293-2.746,1.011
			c0.047,0.063,0.094,0.126,0.137,0.186c0.604,0.824,3.278-0.06,3.168-0.746c-0.141-0.879-0.673-1.703-0.673-1.703
			C152.686,473.603,152.877,473.549,152.336,473.24z"/>
		
			<radialGradient id="SVGID_31_" cx="179.6948" cy="472.0669" r="4.3781" gradientTransform="matrix(1.3003 0 0 1.0458 -73.274 -22.9282)" gradientUnits="userSpaceOnUse">
			<stop  offset="0.0051" style="stop-color:#939396"/>
			<stop  offset="1" style="stop-color:#000803"/>
		</radialGradient>
		<path display="inline" fill="url(#SVGID_31_)" d="M161.577,469.68c-0.029-0.016-0.076-0.021-0.119-0.03
			c0.068,0.149,0.131,0.355,0.331,0.729c0,0,0.534,0.824,0.674,1.704c0.092,0.577-1.788,1.292-2.745,1.01
			c0.048,0.064,0.094,0.126,0.136,0.186c0.605,0.825,3.279-0.059,3.169-0.745c-0.141-0.879-0.674-1.703-0.674-1.703
			C161.927,470.041,162.117,469.987,161.577,469.68z"/>
		
			<radialGradient id="SVGID_32_" cx="176.1416" cy="473.769" r="4.379" gradientTransform="matrix(1.3003 0 0 1.0458 -73.274 -22.9282)" gradientUnits="userSpaceOnUse">
			<stop  offset="0.0051" style="stop-color:#939396"/>
			<stop  offset="1" style="stop-color:#000803"/>
		</radialGradient>
		<path display="inline" fill="url(#SVGID_32_)" d="M156.957,471.46c-0.029-0.017-0.076-0.022-0.12-0.03
			c0.068,0.148,0.131,0.355,0.333,0.729c0,0,0.533,0.823,0.673,1.703c0.092,0.577-1.788,1.292-2.745,1.011
			c0.047,0.063,0.093,0.126,0.137,0.185c0.605,0.825,3.278-0.059,3.169-0.745c-0.141-0.878-0.673-1.702-0.673-1.702
			C157.305,471.822,157.498,471.769,156.957,471.46z"/>
		
			<radialGradient id="SVGID_33_" cx="183.248" cy="470.8511" r="4.3778" gradientTransform="matrix(1.3003 0 0 1.0458 -73.274 -22.9282)" gradientUnits="userSpaceOnUse">
			<stop  offset="0.0051" style="stop-color:#939396"/>
			<stop  offset="1" style="stop-color:#000803"/>
		</radialGradient>
		<path display="inline" fill="url(#SVGID_33_)" d="M166.97,469.559c-0.424-0.789-0.233-0.843-0.773-1.151
			c-0.029-0.016-0.077-0.022-0.12-0.03c0.069,0.149,0.131,0.355,0.332,0.729c0,0,0.533,0.824,0.674,1.704
			c0.093,0.577-1.788,1.292-2.745,1.01c0.047,0.064,0.094,0.126,0.137,0.186c0.604,0.825,3.278-0.06,3.168-0.745
			C167.503,470.381,166.97,469.559,166.97,469.559z"/>
	</g>
	<g display="none">
		<path display="inline" fill="#121217" d="M257.329,484.129c-0.005-0.415-0.004-0.837,0.007-1.265c0-0.015,0-0.028,0.001-0.041
			c0-0.003,0-0.004,0-0.007c0.007-0.257,0.017-0.516,0.029-0.776c0.001-0.002,0.001-0.003,0.001-0.005c0-0.018,0-0.038,0.001-0.058
			c0-0.001,0-0.002,0-0.004c0.058-1.136,0.17-2.306,0.325-3.485c0.001-0.009,0.002-0.017,0.003-0.026
			c0.001-0.008,0.001-0.016,0.002-0.023c0.001-0.002,0.001-0.005,0.001-0.008c0.001-0.004,0.001-0.01,0.001-0.015
			c0.067-0.495,0.139-0.991,0.22-1.488c0-0.002,0-0.004,0.001-0.005c0.001-0.005,0.001-0.009,0.002-0.013
			c0-0.003,0.001-0.006,0.001-0.009c0.083-0.504,0.17-1.008,0.265-1.511c0.619-3.276,1.497-6.477,2.403-9.11
			c0.561-1.629,1.131-3.044,1.657-4.12c0,0,0.009-0.003,0.024-0.009c0.005-0.001,0.015-0.005,0.025-0.009
			c0.005-0.002,0.009-0.003,0.018-0.006c0.004-0.002,0.008-0.002,0.013-0.005c0,0,0.003-0.001,0.005-0.002
			c0.019-0.007,0.043-0.015,0.069-0.023c0.007-0.002,0.013-0.004,0.021-0.007c0.022-0.008,0.049-0.016,0.077-0.025
			c0.013-0.004,0.022-0.007,0.036-0.012c0.003-0.001,0.007-0.002,0.01-0.003c0.002,0,0.002-0.001,0.005-0.001
			c0.041-0.014,0.088-0.027,0.136-0.043c0.009-0.002,0.018-0.005,0.025-0.007c0.051-0.015,0.107-0.031,0.164-0.048
			c0.009-0.002,0.017-0.004,0.026-0.007c0.056-0.015,0.116-0.031,0.178-0.047c0.014-0.004,0.026-0.008,0.04-0.011
			c0.053-0.014,0.11-0.028,0.167-0.042c0.023-0.006,0.044-0.011,0.068-0.017c0.002-0.001,0.006-0.002,0.009-0.002
			c0.001-0.001,0.003-0.001,0.006-0.002c0.059-0.014,0.12-0.028,0.181-0.042c0.025-0.005,0.049-0.011,0.075-0.016
			c0,0,0.003-0.001,0.004-0.001c0.002,0,0.004-0.001,0.007-0.002c0.065-0.014,0.131-0.026,0.198-0.04
			c0.027-0.006,0.053-0.011,0.08-0.016l0.003-0.001c0.003,0,0.003-0.001,0.004-0.001c0.088-0.017,0.18-0.033,0.273-0.049
			c0.008-0.001,0.018-0.003,0.026-0.004c0.002-0.001,0.006-0.001,0.008-0.002c0.001,0,0.004-0.001,0.005-0.001
			c0.091-0.015,0.187-0.029,0.283-0.043c0.014-0.002,0.027-0.004,0.043-0.006c0.087-0.012,0.178-0.023,0.27-0.033
			c0.021-0.003,0.041-0.006,0.062-0.009c0.001,0,0.003,0,0.003,0c0.003,0,0.004,0,0.009-0.001c0.094-0.01,0.193-0.019,0.292-0.026
			c0.019-0.002,0.037-0.004,0.056-0.006c0,0,0.004,0,0.006,0c0.004-0.001,0.009-0.001,0.011-0.001
			c0.084-0.006,0.17-0.011,0.255-0.014c0.031-0.002,0.058-0.005,0.088-0.006c0.001,0,0.005,0,0.008,0c0.004,0,0.008,0,0.013,0
			c0.103-0.005,0.208-0.007,0.313-0.009c0.018,0,0.034-0.001,0.052-0.001c0.004,0,0.008,0,0.011,0s0.007,0,0.009,0
			c0.104,0,0.209,0.002,0.312,0.006c0.024,0.001,0.047,0.001,0.07,0.001c0.104,0.004,0.207,0.011,0.31,0.019
			c0.018,0.001,0.035,0.001,0.052,0.003h0.002c0.01,0.001,0.02,0.001,0.03,0.002c0.103,0.008,0.206,0.02,0.309,0.032
			c0.03,0.004,0.059,0.006,0.09,0.01c0.099,0.013,0.2,0.03,0.299,0.047c0.032,0.006,0.063,0.01,0.093,0.015
			c0,0,0.002,0.001,0.003,0.001c0.002,0,0.004,0,0.005,0.001c0.098,0.018,0.195,0.041,0.292,0.063
			c0.035,0.008,0.07,0.014,0.104,0.022c0.098,0.023,0.193,0.052,0.288,0.079c0.037,0.011,0.073,0.021,0.11,0.031
			c0.087,0.028,0.174,0.06,0.261,0.091c0.021,0.008,0.042,0.015,0.064,0.022c0.004,0.001,0.008,0.003,0.013,0.005
			c0.018,0.007,0.036,0.012,0.054,0.019c0.09,0.035,0.179,0.075,0.267,0.114c0.041,0.018,0.081,0.033,0.119,0.052
			c0.072,0.033,0.143,0.072,0.213,0.109c0.028,0.016,0.056,0.029,0.084,0.044c0.018,0.01,0.037,0.019,0.056,0.029
			c0.007,0.004,0.014,0.007,0.021,0.011c0,0,0.002,0.001,0.002,0.001c0.002,0,0.002,0.002,0.002,0.002
			c0.075,0.042,0.147,0.089,0.22,0.135c0.02,0.013,0.04,0.024,0.06,0.037c0.006,0.004,0.01,0.006,0.017,0.01
			c0.022,0.015,0.045,0.028,0.067,0.043c0.001,0,0.001,0,0.001,0c0.001,0.001,0.001,0.001,0.001,0.002
			c0.08,0.053,0.156,0.112,0.233,0.171c0.04,0.03,0.08,0.057,0.119,0.088c0,0,0,0,0,0c0.001,0.001,0.002,0.002,0.003,0.002
			c0.057,0.046,0.112,0.097,0.168,0.146c0.023,0.022,0.048,0.042,0.074,0.064c0.003,0.004,0.009,0.008,0.014,0.012
			c0.027,0.026,0.056,0.048,0.083,0.074c0.067,0.064,0.131,0.135,0.197,0.204c0.041,0.043,0.084,0.083,0.125,0.129
			c0,0.001,0,0.001,0.002,0.001c0,0.001,0,0.002,0,0.002c0.048,0.054,0.093,0.115,0.141,0.172c0.026,0.032,0.053,0.064,0.079,0.098
			c0.003,0.005,0.009,0.011,0.012,0.016c0.024,0.03,0.05,0.058,0.072,0.089c0.068,0.09,0.131,0.188,0.195,0.284
			c0.021,0.03,0.042,0.058,0.062,0.089c0.01,0.014,0.02,0.026,0.029,0.042c0.092,0.147,0.179,0.299,0.263,0.46
			c2.682,5.149,8.042,5.637,13.409,4.492c0.153-0.033,0.307-0.073,0.462-0.117c0.018-0.005,0.036-0.011,0.053-0.017
			c0.031-0.01,0.062-0.019,0.094-0.029c0.107-0.032,0.214-0.067,0.32-0.105c0.056-0.019,0.111-0.04,0.167-0.061
			c0.104-0.038,0.206-0.08,0.308-0.123c0.054-0.022,0.105-0.044,0.159-0.067c0.121-0.053,0.24-0.11,0.36-0.168
			c0.034-0.017,0.066-0.031,0.099-0.047c0.116-0.058,0.231-0.121,0.346-0.183c0.037-0.02,0.073-0.039,0.111-0.059
			c0.03-0.017,0.059-0.035,0.088-0.051c0.011-0.006,0.021-0.013,0.032-0.019c0.113-0.065,0.227-0.131,0.338-0.2
			c0.044-0.027,0.088-0.056,0.131-0.082c0.011-0.006,0.022-0.013,0.031-0.019c0.102-0.063,0.202-0.128,0.303-0.195
			c0.053-0.035,0.105-0.071,0.16-0.106c0.062-0.044,0.125-0.087,0.188-0.131c0.043-0.031,0.087-0.061,0.131-0.092
			c0.021-0.014,0.041-0.03,0.062-0.043c0.023-0.017,0.045-0.033,0.068-0.05c0.151-0.109,0.3-0.22,0.449-0.335
			c0.013-0.009,0.023-0.019,0.036-0.027c0.137-0.106,0.274-0.214,0.409-0.324c0.036-0.03,0.071-0.06,0.106-0.088
			c0.011-0.009,0.021-0.017,0.031-0.025c0.061-0.05,0.122-0.101,0.182-0.15c0.043-0.036,0.086-0.072,0.129-0.108
			c0.001-0.001,0.001-0.001,0.001-0.001c0.048-0.04,0.094-0.08,0.141-0.12c0.105-0.091,0.21-0.182,0.315-0.274
			c0.037-0.033,0.074-0.066,0.112-0.1c0.004-0.003,0.008-0.008,0.012-0.011c0.133-0.119,0.267-0.241,0.4-0.363
			c0.004-0.004,0.01-0.008,0.015-0.014c0.004-0.004,0.009-0.008,0.013-0.012c0.146-0.135,0.292-0.271,0.436-0.41
			c0.025-0.024,0.051-0.048,0.077-0.073c0.116-0.112,0.233-0.225,0.348-0.338c0.036-0.036,0.073-0.071,0.108-0.106
			c0.066-0.066,0.133-0.132,0.2-0.198c0.039-0.039,0.081-0.079,0.121-0.12c0.011-0.013,0.024-0.024,0.036-0.038
			c0.022-0.021,0.042-0.042,0.063-0.062c0.127-0.128,0.254-0.257,0.38-0.387c0.004-0.004,0.009-0.008,0.011-0.011
			c0.004-0.004,0.008-0.008,0.011-0.011c0.012-0.012,0.023-0.024,0.036-0.037c0.196-0.202,0.389-0.402,0.579-0.603
			c0.05-0.051,0.1-0.103,0.148-0.155c0.179-0.187,0.354-0.374,0.527-0.557c0.444-0.473,0.87-0.929,1.277-1.358
			c0.031-0.033,0.063-0.067,0.094-0.101c0.004-0.004,0.009-0.008,0.013-0.013c0.014-0.014,0.026-0.028,0.041-0.042
			c0.053-0.057,0.104-0.111,0.157-0.166c0.04-0.041,0.08-0.082,0.118-0.122c0.007-0.008,0.014-0.015,0.021-0.021
			c0.014-0.015,0.027-0.028,0.041-0.042c0.045-0.048,0.092-0.095,0.137-0.143c0.066-0.068,0.132-0.135,0.198-0.201
			c0.038-0.038,0.075-0.077,0.112-0.114c0.004-0.005,0.01-0.01,0.014-0.015c0.01-0.01,0.02-0.019,0.029-0.028
			c0.134-0.135,0.265-0.262,0.393-0.385c0.004-0.002,0.007-0.006,0.009-0.008c0-0.001,0.001-0.001,0.001-0.001
			c0.03-0.028,0.06-0.056,0.089-0.083c0.14-0.134,0.277-0.26,0.409-0.376c0.005-0.004,0.01-0.008,0.015-0.014
			c0.124-0.108,0.242-0.205,0.359-0.297c0.03-0.024,0.061-0.048,0.09-0.07c0.051-0.039,0.102-0.077,0.151-0.112
			c0.067-0.049,0.133-0.095,0.197-0.136c0.084-0.055,0.177-0.105,0.274-0.155c0.016-0.008,0.034-0.015,0.048-0.022
			c0.087-0.043,0.177-0.084,0.274-0.124c0.01-0.003,0.021-0.008,0.03-0.011c0.105-0.043,0.219-0.084,0.337-0.122
			c0.001-0.001,0.003-0.001,0.003-0.002c0.126-0.041,0.257-0.079,0.395-0.115l0.168-0.184l1.498-0.102c0.001,0,0.003,0,0.005,0
			c0.308-0.031,0.63-0.053,0.966-0.065c0.001,0,0.002,0,0.002,0l1.698-0.114c0,0,2.165-0.666,4.436-0.828
			c1.567-0.11,3.186,0.018,4.181,0.772c2.435,1.847,12.718,7.388,14.341,7.85c1.624,0.462,6.495,3.232,6.495,3.232s0,0.006,0,0.015
			c0,0.003,0,0.006,0,0.014c0,0.008,0,0.019,0,0.033c-0.002,0.007-0.002,0.013-0.002,0.021c-0.001,0.046-0.004,0.109-0.009,0.19
			c-0.001,0.012-0.001,0.022-0.003,0.034c-0.002,0.032-0.005,0.066-0.007,0.103c-0.002,0.014-0.003,0.025-0.003,0.04
			c-0.004,0.05-0.01,0.103-0.016,0.159c0.191,0.074,0.379,0.146,0.57,0.219c0.022,0.008,0.043,0.017,0.066,0.025
			c0.101-0.229,0.14-0.362,0.216-0.474c0.008-0.012,0.016-0.021,0.024-0.031c0.014-0.019,0.03-0.036,0.047-0.055
			c0.011-0.012,0.024-0.023,0.038-0.035c0.021-0.018,0.044-0.036,0.07-0.055c0.013-0.011,0.027-0.021,0.043-0.032
			c0.044-0.031,0.095-0.062,0.155-0.097c0.364-0.206,1.92,0.232,2.646,0.852c0.042,0.037,0.08,0.077,0.11,0.119
			c0.011,0.015,0.019,0.033,0.029,0.048c0.018,0.027,0.035,0.054,0.046,0.083c0.01,0.022,0.017,0.045,0.022,0.068
			c0.008,0.025,0.017,0.048,0.021,0.074c0.005,0.027,0.007,0.056,0.01,0.083c0.002,0.022,0.004,0.044,0.004,0.066
			c0.001,0.033-0.002,0.067-0.005,0.101c-0.001,0.018-0.003,0.037-0.006,0.056c-0.005,0.039-0.012,0.077-0.021,0.116
			c-0.003,0.015-0.007,0.029-0.009,0.044c-0.012,0.044-0.025,0.089-0.041,0.135c-0.002,0.009-0.006,0.017-0.009,0.025
			c-0.018,0.052-0.038,0.103-0.061,0.155c0.007,0.003,0.014,0.005,0.021,0.008c0.35,0.128,0.691,0.252,1.027,0.373
			c0.02,0.008,0.04,0.014,0.059,0.022c0-0.001,0.004-0.007,0.004-0.007c0.424-0.788,0.233-0.842,0.774-1.149
			c0.363-0.206,1.918,0.233,2.644,0.852c0.049,0.041,0.088,0.087,0.122,0.134c0.011,0.016,0.018,0.033,0.027,0.05
			c0.019,0.032,0.038,0.065,0.051,0.1c0.008,0.021,0.013,0.043,0.018,0.064c0.008,0.032,0.017,0.066,0.021,0.101
			c0.001,0.022,0.004,0.046,0.004,0.071c0,0.034,0,0.07-0.001,0.107c-0.002,0.024-0.005,0.049-0.009,0.074
			c-0.005,0.037-0.012,0.077-0.021,0.116c-0.005,0.023-0.011,0.048-0.018,0.073c-0.012,0.042-0.027,0.085-0.042,0.129
			c-0.009,0.022-0.015,0.045-0.024,0.066c-0.02,0.052-0.043,0.104-0.068,0.157c-0.006,0.015-0.012,0.029-0.02,0.043
			c-0.033,0.068-0.068,0.137-0.106,0.207c-0.001,0-0.001,0.001-0.002,0.003c0.001,0,0.002,0,0.004,0.001
			c0.474,0.165,0.92,0.319,1.328,0.459c0.194-0.384,0.233-0.568,0.328-0.713c0.006-0.009,0.011-0.018,0.017-0.026
			c0.014-0.02,0.033-0.038,0.049-0.058c0.011-0.011,0.02-0.023,0.035-0.035c0.02-0.019,0.046-0.038,0.072-0.058
			c0.015-0.01,0.027-0.022,0.044-0.034c0.047-0.031,0.101-0.064,0.167-0.103c0.362-0.206,1.918,0.233,2.644,0.852
			c0.046,0.04,0.085,0.081,0.118,0.125c0.009,0.015,0.016,0.03,0.024,0.045c0.019,0.031,0.04,0.062,0.053,0.096
			c0.007,0.016,0.007,0.032,0.012,0.047c0.012,0.035,0.024,0.07,0.029,0.107c0.002,0.014,0.002,0.029,0.003,0.044
			c0.004,0.04,0.008,0.079,0.006,0.121c0,0.013-0.003,0.024-0.004,0.036c-0.002,0.046-0.008,0.093-0.017,0.141
			c-0.001,0.008-0.003,0.016-0.006,0.024c-0.01,0.052-0.023,0.105-0.041,0.16c0,0.004-0.004,0.009-0.004,0.014
			c-0.019,0.058-0.041,0.117-0.065,0.176c-0.001,0.002-0.002,0.004-0.003,0.006c-0.025,0.062-0.053,0.125-0.085,0.187
			c0,0.001,0,0.001,0,0.001c0.426,0.146,0.866,0.299,1.327,0.461c0.001-0.002,0.001-0.003,0.002-0.005
			c0.094-0.204,0.14-0.339,0.189-0.444c0.005-0.013,0.013-0.024,0.018-0.035c0.012-0.021,0.024-0.043,0.037-0.063
			c0.008-0.013,0.019-0.026,0.028-0.039c0.013-0.016,0.028-0.034,0.044-0.05c0.012-0.013,0.024-0.025,0.039-0.038
			c0.018-0.019,0.043-0.037,0.067-0.054c0.016-0.012,0.029-0.022,0.046-0.035c0.044-0.03,0.096-0.062,0.159-0.098
			c0.362-0.205,1.919,0.233,2.644,0.852c0.044,0.037,0.081,0.078,0.112,0.119c0.012,0.018,0.021,0.037,0.031,0.054
			c0.016,0.027,0.033,0.052,0.044,0.079c0.01,0.023,0.017,0.05,0.024,0.075c0.006,0.022,0.015,0.045,0.019,0.068
			c0.006,0.029,0.008,0.06,0.011,0.091c0,0.021,0.004,0.04,0.004,0.061c0,0.036-0.003,0.072-0.007,0.109
			c-0.002,0.017-0.003,0.032-0.006,0.048c-0.004,0.042-0.015,0.085-0.024,0.128c-0.003,0.012-0.006,0.023-0.009,0.034
			c-0.013,0.049-0.027,0.098-0.046,0.148c-0.002,0.006-0.004,0.011-0.005,0.017c-0.021,0.056-0.043,0.11-0.068,0.167
			c0.021,0.007,0.042,0.016,0.063,0.022c0.474,0.172,0.955,0.347,1.445,0.528c0.005,0.001,0.007,0.002,0.012,0.004
			c0.129-0.264,0.181-0.424,0.239-0.548c0.002-0.004,0.005-0.009,0.007-0.014c0.013-0.026,0.029-0.05,0.043-0.074
			c0.007-0.012,0.016-0.023,0.023-0.035c0.013-0.018,0.031-0.037,0.047-0.054c0.012-0.012,0.023-0.025,0.036-0.037
			c0.02-0.018,0.047-0.039,0.072-0.057c0.015-0.011,0.027-0.021,0.043-0.033c0.046-0.031,0.099-0.063,0.164-0.101
			c0.363-0.206,1.918,0.233,2.644,0.852c0.046,0.04,0.085,0.082,0.118,0.127c0.01,0.015,0.016,0.031,0.025,0.047
			c0.02,0.03,0.04,0.062,0.052,0.095c0.007,0.018,0.009,0.035,0.016,0.053c0.009,0.033,0.021,0.067,0.026,0.104
			c0.002,0.016,0.002,0.033,0.003,0.05c0.004,0.039,0.006,0.078,0.004,0.118c0,0.015-0.002,0.029-0.004,0.044
			c-0.004,0.045-0.008,0.09-0.018,0.136c-0.002,0.011-0.006,0.022-0.008,0.033c-0.012,0.051-0.024,0.103-0.041,0.154
			c-0.003,0.009-0.007,0.016-0.01,0.023c-0.019,0.057-0.041,0.113-0.064,0.172c-0.002,0.004-0.004,0.008-0.005,0.013
			c-0.027,0.061-0.056,0.123-0.087,0.186l0,0.001c0.016,0.007,0.034,0.014,0.051,0.021c0.609,0.235,1.223,0.477,1.84,0.723
			c0.014,0.005,0.028,0.011,0.042,0.016c0.624,0.249,1.248,0.501,1.873,0.759c0.059,0.024,0.118,0.05,0.179,0.074
			c0.518,0.215,1.036,0.433,1.551,0.653c0.144,0.062,0.288,0.123,0.431,0.185c0.579,0.25,1.153,0.501,1.723,0.757
			c1.061,0.477,2.101,0.963,3.103,1.457c1.717,0.845,3.428,2.339,4.697,4.005c0.108,0.143,0.213,0.288,0.315,0.434
			c0.028,0.04,0.057,0.081,0.084,0.122c0.08,0.114,0.155,0.229,0.229,0.345c0.022,0.036,0.046,0.071,0.069,0.107
			c0.092,0.148,0.183,0.297,0.267,0.446c0.01,0.021,0.022,0.04,0.033,0.061c0.073,0.13,0.142,0.261,0.208,0.391
			c0.02,0.039,0.041,0.079,0.06,0.119c0.063,0.128,0.123,0.256,0.179,0.385c0.01,0.021,0.02,0.045,0.03,0.066
			c0.065,0.152,0.125,0.302,0.178,0.452c0.01,0.027,0.019,0.056,0.029,0.083c0.044,0.125,0.083,0.248,0.119,0.372
			c0.01,0.034,0.021,0.068,0.03,0.102c0.079,0.287,0.137,0.568,0.171,0.843c0.003,0.029,0.005,0.059,0.008,0.088
			c0.011,0.101,0.019,0.201,0.022,0.301c0.002,0.038,0.003,0.078,0.004,0.117c0.001,0.092,0,0.183-0.005,0.272
			c-0.002,0.037-0.003,0.072-0.006,0.107c-0.01,0.123-0.023,0.244-0.045,0.362c-0.177,0.971-0.766,1.783-1.895,2.3
			c-0.032,0.157-0.07,0.31-0.128,0.446c-0.126,0.297-0.32,0.542-0.595,0.704c0,0-0.01,0-0.027,0.003
			c-0.081,0.009-0.387,0.045-0.935,0.102l0.037,0.399l0.046,0.505c0.116,1.274-0.574,2.358-1.542,2.423l-8.53,0.567
			c-0.185,0.012-0.366-0.015-0.541-0.073c-0.735-0.249-1.329-1.086-1.422-2.117l-0.075-0.82c-0.453,0.024-0.923,0.049-1.402,0.075
			c-0.014,0-0.026,0.001-0.041,0.001c-0.484,0.026-0.98,0.052-1.489,0.076l0.023,0.681v0.011c0.048,1.341-0.67,2.447-1.603,2.471
			l-8.216,0.207c-0.118,0.003-0.235-0.012-0.348-0.042c-0.774-0.21-1.384-1.173-1.425-2.342l-0.019-0.537
			c-1.11,0.032-2.259,0.064-3.444,0.095c-0.003,0-0.005,0-0.008,0v0.458v0.217c0,1.342-0.787,2.429-1.758,2.429h-8.556
			c-0.106,0-0.209-0.015-0.31-0.04c-0.823-0.204-1.449-1.195-1.449-2.39v-0.456c-0.042,0-0.084,0.001-0.126,0.001
			c-0.934,0.011-1.886,0.02-2.853,0.028v0.19v0.457c0,1.461-0.788,2.646-1.758,2.646h-8.482h-0.075
			c-0.971,0-1.758-1.185-1.758-2.646v-0.607c-5.091-0.009-9.741-0.05-13.975-0.112c-0.002,0-0.005,0-0.007,0
			c-0.386-0.005-0.769-0.011-1.147-0.018c-0.078,0-0.155-0.002-0.233-0.003c-0.34-0.005-0.677-0.011-1.012-0.017
			c-0.118-0.002-0.234-0.004-0.352-0.006c-0.307-0.005-0.612-0.011-0.915-0.017c-0.157-0.002-0.312-0.005-0.468-0.009
			c-0.346-0.007-0.688-0.014-1.03-0.021c-0.335-0.007-0.669-0.014-0.999-0.021c-0.108-0.002-0.214-0.005-0.321-0.007
			c-0.236-0.005-0.473-0.011-0.705-0.016l-0.032,0.457l-0.035,0.519c-0.095,1.39-0.99,2.475-1.999,2.425l-8.772-0.436l-0.125-0.006
			c-1.01-0.051-1.752-1.218-1.655-2.607l0.051-0.752c-0.725-0.031-1.424-0.062-2.1-0.093c-0.003,0-0.008,0-0.011,0
			c-0.271-0.015-0.536-0.026-0.798-0.038c-0.085-0.004-0.172-0.009-0.256-0.013c-0.249-0.012-0.494-0.024-0.736-0.036
			c-0.054-0.003-0.111-0.006-0.165-0.009l-0.034,0.542l-0.002,0.03c-0.083,1.338-0.936,2.389-1.905,2.345l-8.022-0.364l-0.523-0.023
			c-0.968-0.044-1.687-1.165-1.604-2.504l0.056-0.864c-0.392-0.039-0.707-0.072-0.95-0.1c-0.021-0.002-0.043-0.004-0.064-0.007
			c-0.058-0.007-0.11-0.013-0.159-0.018c-0.011-0.002-0.023-0.003-0.034-0.005c-0.053-0.005-0.098-0.012-0.139-0.017
			c-0.018-0.002-0.032-0.002-0.047-0.006c-0.034-0.003-0.062-0.007-0.087-0.01c-0.005-0.001-0.01-0.002-0.014-0.002
			c-0.028-0.003-0.049-0.005-0.064-0.008c-0.003,0-0.005,0-0.007-0.001c-0.012-0.002-0.02-0.003-0.02-0.003
			c-0.627-0.265-1.082-0.641-1.407-1.06c-0.45-0.575-0.657-1.225-0.749-1.762c-0.03-0.033-0.06-0.068-0.088-0.104
			c-0.027-0.031-0.054-0.062-0.081-0.094c-0.069-0.085-0.137-0.174-0.203-0.264c-0.019-0.027-0.038-0.053-0.058-0.081
			c-0.068-0.097-0.134-0.197-0.199-0.3c-0.014-0.022-0.027-0.044-0.041-0.066c-0.065-0.108-0.13-0.22-0.192-0.335
			c-0.004-0.008-0.01-0.017-0.015-0.025c-0.002-0.006-0.006-0.013-0.01-0.019c-0.383-0.722-0.676-1.549-0.891-2.461
			c-0.001-0.003-0.002-0.007-0.003-0.01c0-0.001,0-0.003-0.001-0.004c-0.079-0.341-0.147-0.692-0.205-1.054
			c0-0.002,0-0.004-0.002-0.006c-0.059-0.366-0.107-0.742-0.146-1.128c0-0.003,0-0.004-0.001-0.008c0-0.002,0-0.006,0-0.009
			c-0.062-0.636-0.098-1.297-0.11-1.979C257.329,484.133,257.329,484.131,257.329,484.129z"/>
		
			<radialGradient id="SVGID_34_" cx="-329.0352" cy="474.0908" r="109.7511" gradientTransform="matrix(-1.2256 0 0 1.0458 39.4697 -22.9282)" gradientUnits="userSpaceOnUse">
			<stop  offset="0.0051" style="stop-color:#E8A81F"/>
			<stop  offset="1" style="stop-color:#A8781A"/>
		</radialGradient>
		<path display="inline" fill="url(#SVGID_34_)" d="M258.875,490.972c0-1.772,1.595-1.557,2.52-1.557l111.021,0.489
			c0.779,0,2.186,1.954,1.517,3.534c-0.127,0.297-1.284,1.194-2.698,1.336c0,0-0.314,0.038-0.962,0.104l0.037,0.399l0.046,0.505
			c0.116,1.274-0.574,2.358-1.542,2.423l-8.53,0.567c-0.185,0.012-0.366-0.015-0.541-0.073c-0.735-0.249-1.329-1.086-1.422-2.117
			l-0.075-0.82c-0.923,0.051-1.903,0.103-2.932,0.152l0.023,0.681v0.011c0.048,1.341-0.67,2.447-1.603,2.471l-8.216,0.207
			c-0.118,0.003-0.235-0.012-0.348-0.042c-0.774-0.21-1.384-1.173-1.425-2.342l-0.019-0.537c-1.112,0.032-2.265,0.064-3.452,0.095
			v0.458v0.217c0,1.342-0.787,2.429-1.758,2.429h-8.556c-0.106,0-0.209-0.015-0.31-0.04c-0.823-0.204-1.449-1.195-1.449-2.39v-0.456
			c-0.975,0.011-1.968,0.021-2.979,0.029v0.19v0.457c0,1.461-0.788,2.646-1.758,2.646h-8.482h-0.075
			c-0.971,0-1.758-1.185-1.758-2.646v-0.607c-8.148-0.015-15.166-0.108-21.162-0.245l-0.032,0.457l-0.035,0.519
			c-0.095,1.39-0.99,2.475-1.999,2.425l-8.772-0.436l-0.125-0.006c-1.01-0.051-1.752-1.218-1.655-2.607l0.051-0.753
			c-1.453-0.061-2.809-0.123-4.066-0.188l-0.034,0.542l-0.002,0.03c-0.083,1.338-0.936,2.389-1.905,2.345l-8.022-0.364l-0.523-0.023
			c-0.968-0.044-1.687-1.165-1.604-2.504l0.056-0.864c-1.083-0.107-1.585-0.175-1.585-0.175c-0.627-0.265-1.718-0.641-2.044-1.059
			C258.706,492.587,258.875,490.972,258.875,490.972z"/>
		
			<radialGradient id="SVGID_35_" cx="-211.5264" cy="492.0479" r="12.0777" gradientTransform="matrix(-1.2256 0 0 1.0458 39.4697 -22.9282)" gradientUnits="userSpaceOnUse">
			<stop  offset="0.0051" style="stop-color:#E8A81F"/>
			<stop  offset="1" style="stop-color:#A8781A"/>
		</radialGradient>
		<path display="inline" fill="url(#SVGID_35_)" d="M280.957,497.195c2.968-1.81,7.142,0.496,10.997-0.237l-0.035,0.519
			c-0.095,1.39-0.99,2.475-1.999,2.425l-8.772-0.436C280.559,498.537,280.365,497.447,280.957,497.195z"/>
		
			<radialGradient id="SVGID_36_" cx="-212.2329" cy="484.2773" r="16.1907" gradientTransform="matrix(-1.2256 0 0 1.0458 39.4697 -22.9282)" gradientUnits="userSpaceOnUse">
			<stop  offset="0.0051" style="stop-color:#E8A81F"/>
			<stop  offset="1" style="stop-color:#91631A"/>
		</radialGradient>
		<path display="inline" fill="url(#SVGID_36_)" d="M279.367,496.854l0.106-1.568c0.095-1.39,0.991-2.475,2-2.425l8.896,0.442
			c1.01,0.05,1.751,1.217,1.656,2.606l-0.072,1.049c-3.855,0.733-8.029-1.573-10.997,0.237c-0.592,0.251-0.398,1.342,0.19,2.271
			l-0.125-0.006C280.012,499.41,279.27,498.243,279.367,496.854z"/>
		
			<radialGradient id="SVGID_37_" cx="-197.8311" cy="493.4282" r="11.1472" gradientTransform="matrix(-1.2256 0 0 1.0458 39.4697 -22.9282)" gradientUnits="userSpaceOnUse">
			<stop  offset="0.0051" style="stop-color:#E8A81F"/>
			<stop  offset="1" style="stop-color:#A8781A"/>
		</radialGradient>
		<path display="inline" fill="url(#SVGID_37_)" d="M264.415,496.813c3.485-0.744,7.395-0.041,10.903-0.358l-0.002,0.03
			c-0.083,1.338-0.936,2.389-1.905,2.345l-8.022-0.364C264.502,497.719,263.862,497.049,264.415,496.813z"/>
		
			<radialGradient id="SVGID_38_" cx="-198.4243" cy="483.8335" r="15.5861" gradientTransform="matrix(-1.2256 0 0 1.0458 39.4697 -22.9282)" gradientUnits="userSpaceOnUse">
			<stop  offset="0.0051" style="stop-color:#E8A81F"/>
			<stop  offset="1" style="stop-color:#91631A"/>
		</radialGradient>
		<path display="inline" fill="url(#SVGID_38_)" d="M263.26,495.939l0.095-1.513c0.083-1.338,0.937-2.389,1.906-2.345l8.544,0.387
			c0.97,0.044,1.688,1.166,1.605,2.505l-0.093,1.481c-3.508,0.317-7.417-0.386-10.903,0.358c-0.552,0.235,0.087,0.905,0.973,1.653
			l-0.523-0.023C263.896,498.399,263.178,497.278,263.26,495.939z"/>
		
			<radialGradient id="SVGID_39_" cx="-275.1509" cy="490.79" r="11.5416" gradientTransform="matrix(-1.2256 0 0 1.0458 39.4697 -22.9282)" gradientUnits="userSpaceOnUse">
			<stop  offset="0.0051" style="stop-color:#E8A81F"/>
			<stop  offset="1" style="stop-color:#A8781A"/>
		</radialGradient>
		<path display="inline" fill="url(#SVGID_39_)" d="M370.309,495.278l0.046,0.505c0.116,1.274-0.574,2.358-1.542,2.423l-8.53,0.567
			c-0.185,0.012-0.366-0.015-0.541-0.073C361.413,495.655,366.48,496.062,370.309,495.278z"/>
		
			<radialGradient id="SVGID_40_" cx="-275.8345" cy="483.688" r="15.7475" gradientTransform="matrix(-1.2256 0 0 1.0458 39.4697 -22.9282)" gradientUnits="userSpaceOnUse">
			<stop  offset="0.0051" style="stop-color:#E8A81F"/>
			<stop  offset="1" style="stop-color:#91631A"/>
		</radialGradient>
		<path display="inline" fill="url(#SVGID_40_)" d="M359.731,492.725l8.529-0.567c0.968-0.064,1.847,0.916,1.963,2.189l0.084,0.932
			c-3.829,0.784-8.896,0.377-10.566,3.422c-0.735-0.249-1.329-1.086-1.422-2.117l-0.131-1.438
			C358.073,493.872,358.761,492.788,359.731,492.725z"/>
		
			<radialGradient id="SVGID_41_" cx="-263.3823" cy="484.2349" r="15.4071" gradientTransform="matrix(-1.2256 0 0 1.0458 39.4697 -22.9282)" gradientUnits="userSpaceOnUse">
			<stop  offset="0.0051" style="stop-color:#E8A81F"/>
			<stop  offset="1" style="stop-color:#91631A"/>
		</radialGradient>
		<path display="inline" fill="url(#SVGID_41_)" d="M345.296,492.916l8.215-0.207c0.933-0.023,1.725,1.044,1.773,2.384l0.052,1.502
			c-3.583,0.63-9.47-0.49-10.167,2.646c-0.774-0.21-1.384-1.173-1.425-2.342l-0.053-1.514
			C343.646,494.046,344.363,492.94,345.296,492.916z"/>
		
			<radialGradient id="SVGID_42_" cx="-262.666" cy="493.1416" r="10.537" gradientTransform="matrix(-1.2256 0 0 1.0458 39.4697 -22.9282)" gradientUnits="userSpaceOnUse">
			<stop  offset="0.0051" style="stop-color:#E8A81F"/>
			<stop  offset="1" style="stop-color:#A8781A"/>
		</radialGradient>
		<path display="inline" fill="url(#SVGID_42_)" d="M355.336,496.596v0.011c0.048,1.341-0.67,2.447-1.603,2.471l-8.216,0.207
			c-0.118,0.003-0.235-0.012-0.348-0.042C345.866,496.105,351.753,497.226,355.336,496.596z"/>
		
			<radialGradient id="SVGID_43_" cx="-250.6279" cy="493.5049" r="10.9538" gradientTransform="matrix(-1.2256 0 0 1.0458 39.4697 -22.9282)" gradientUnits="userSpaceOnUse">
			<stop  offset="0.0051" style="stop-color:#E8A81F"/>
			<stop  offset="1" style="stop-color:#A8781A"/>
		</radialGradient>
		<path display="inline" fill="url(#SVGID_43_)" d="M330.139,497.958c2.536-1.804,6.668-0.542,10.134-1.042v0.217
			c0,1.342-0.787,2.429-1.758,2.429h-8.556c-0.106,0-0.209-0.015-0.31-0.04C329.462,498.842,329.684,498.151,330.139,497.958z"/>
		
			<radialGradient id="SVGID_44_" cx="-251.2998" cy="484.9624" r="15.4665" gradientTransform="matrix(-1.2256 0 0 1.0458 39.4697 -22.9282)" gradientUnits="userSpaceOnUse">
			<stop  offset="0.0051" style="stop-color:#E8A81F"/>
			<stop  offset="1" style="stop-color:#91631A"/>
		</radialGradient>
		<path display="inline" fill="url(#SVGID_44_)" d="M329.959,493.188h8.556c0.971,0,1.758,1.088,1.758,2.429v1.298
			c-3.466,0.5-7.598-0.762-10.134,1.042c-0.456,0.193-0.677,0.884-0.49,1.565c-0.823-0.204-1.449-1.195-1.449-2.39v-1.516
			C328.201,494.276,328.989,493.188,329.959,493.188z"/>
		
			<radialGradient id="SVGID_45_" cx="-238.3101" cy="492.8716" r="11.2171" gradientTransform="matrix(-1.2256 0 0 1.0458 39.4697 -22.9282)" gradientUnits="userSpaceOnUse">
			<stop  offset="0.0051" style="stop-color:#E8A81F"/>
			<stop  offset="1" style="stop-color:#A8781A"/>
		</radialGradient>
		<path display="inline" fill="url(#SVGID_45_)" d="M315.384,497.958c2.999-1.098,6.409-0.446,9.837-1.061v0.457
			c0,1.461-0.788,2.646-1.758,2.646h-8.482C314.39,499.172,314.478,498.216,315.384,497.958z"/>
		
			<radialGradient id="SVGID_46_" cx="-239.0186" cy="484.0254" r="16.167" gradientTransform="matrix(-1.2256 0 0 1.0458 39.4697 -22.9282)" gradientUnits="userSpaceOnUse">
			<stop  offset="0.0051" style="stop-color:#E8A81F"/>
			<stop  offset="1" style="stop-color:#91631A"/>
		</radialGradient>
		<path display="inline" fill="url(#SVGID_46_)" d="M314.906,493.062h8.557c0.97,0,1.758,1.185,1.758,2.644v1.192
			c-3.428,0.614-6.838-0.037-9.837,1.061c-0.907,0.258-0.995,1.214-0.403,2.042h-0.075c-0.971,0-1.758-1.185-1.758-2.646v-1.649
			C313.148,494.246,313.935,493.062,314.906,493.062z"/>
		
			<radialGradient id="SVGID_47_" cx="-210.1196" cy="464.0776" r="39.0571" gradientTransform="matrix(-1.2256 0 0 1.0458 39.4697 -22.9282)" gradientUnits="userSpaceOnUse">
			<stop  offset="0.0051" style="stop-color:#BDBDBF"/>
			<stop  offset="1" style="stop-color:#121217"/>
		</radialGradient>
		<path display="inline" fill="url(#SVGID_47_)" d="M262.252,462.16c0,0,6.855-2.606,9.539,2.543
			c2.682,5.149,8.042,5.637,13.409,4.492c5.364-1.145,10.729-9.156,13.412-10.873c1.264-0.808,4-1.132,7.313-0.77
			c-3.031,3.857-5.117,8.224-8.424,12.173c-4.023,4.197-10.283,5.724-16.095,6.486c-7.602,1.144-13.415-3.434-18.332-8.775
			c-0.458-0.585-1.384-0.97-2.478-1.156C261.156,464.651,261.726,463.236,262.252,462.16z"/>
		<path display="inline" d="M262.252,462.16l0.003-0.002c5.878,0.527,6.975,4.376,11.548,7.567
			c9.397,5.832,18.382-1.568,23.065-9.893c0.662-0.662,1.248-1.194,1.743-1.511c1.264-0.808,4-1.132,7.313-0.77
			c-3.031,3.857-5.117,8.224-8.424,12.173c-4.023,4.197-10.283,5.724-16.095,6.486c-7.602,1.144-13.415-3.434-18.332-8.775
			c-0.458-0.585-1.384-0.97-2.478-1.156C261.156,464.651,261.726,463.236,262.252,462.16z"/>
		<path display="inline" fill="#B2B2B2" d="M273.803,469.726c-4.573-3.191-5.67-7.04-11.548-7.567
			c0.066-0.024,6.865-2.58,9.535,2.545c2.682,5.149,8.042,5.637,13.409,4.492c4.375-0.934,8.75-6.434,11.669-9.362
			C292.186,468.157,283.2,475.558,273.803,469.726z"/>
		
			<radialGradient id="SVGID_48_" cx="-200.3677" cy="473.228" r="2.1132" gradientTransform="matrix(-1.2256 0 0 1.0458 39.4697 -22.9282)" gradientUnits="userSpaceOnUse">
			<stop  offset="0.0051" style="stop-color:#BDBDBF"/>
			<stop  offset="1" style="stop-color:#121217"/>
		</radialGradient>
		<path display="inline" fill="url(#SVGID_48_)" d="M263.073,466.865c4.917,5.341,10.73,9.919,18.332,8.774
			c5.812-0.764,12.072-2.289,16.095-6.486c3.155-3.769,5.203-7.917,8.017-11.641c0.135,0.012,0.27,0.024,0.408,0.04
			c-3.031,3.857-5.117,8.224-8.424,12.173c-4.023,4.197-10.283,5.724-16.095,6.486c-7.602,1.144-13.415-3.434-18.332-8.775
			c-0.458-0.585-1.384-0.97-2.478-1.156c0.062-0.181,0.125-0.358,0.188-0.534C261.793,465.943,262.642,466.313,263.073,466.865z"/>
		
			<radialGradient id="SVGID_49_" cx="-255.4971" cy="466.0117" r="50.6456" gradientTransform="matrix(-1.2256 0 0 1.0458 39.4697 -22.9282)" gradientUnits="userSpaceOnUse">
			<stop  offset="0.0051" style="stop-color:#BDBDBF"/>
			<stop  offset="1" style="stop-color:#121217"/>
		</radialGradient>
		<path display="inline" fill="url(#SVGID_49_)" d="M352.495,483.079c-3.131-0.382-2.236-3.815-4.472-5.341
			c-4.918-3.052-10.731-4.579-16.989-6.104c-8.943-1.908-16.097-6.104-24.144-9.538c-1.395-0.297-1.156-2.449-0.348-4.467
			c3.588,0.474,7.761,1.732,11.45,4.022c7.377,4.577,21.506,9.481,26.528,11.19c4.289,1.459,12.407,4.234,19.551,7.445
			C361.182,482.865,357.044,484.114,352.495,483.079z"/>
		
			<radialGradient id="SVGID_50_" cx="-255.4971" cy="466.0117" r="50.6456" gradientTransform="matrix(-1.2256 0 0 1.0458 39.4697 -22.9282)" gradientUnits="userSpaceOnUse">
			<stop  offset="0.0051" style="stop-color:#BDBDBF"/>
			<stop  offset="1" style="stop-color:#121217"/>
		</radialGradient>
		<path display="inline" fill="url(#SVGID_50_)" d="M352.495,483.079c-3.131-0.382-2.236-3.815-4.472-5.341
			c-4.918-3.052-10.731-4.579-16.989-6.104c-8.943-1.908-16.097-6.104-24.144-9.538c-1.395-0.297-1.156-2.449-0.348-4.467
			c3.588,0.474,7.761,1.732,11.45,4.022c7.377,4.577,21.506,9.481,26.528,11.19c4.289,1.459,12.407,4.234,19.551,7.445
			C361.182,482.865,357.044,484.114,352.495,483.079z"/>
		<path display="inline" d="M352.495,483.079c-3.131-0.382-2.236-3.815-4.472-5.341c-4.918-3.052-10.731-4.579-16.989-6.104
			c-8.943-1.908-16.097-6.104-24.144-9.538c-1.395-0.297-1.156-2.449-0.348-4.467c3.588,0.474,7.761,1.732,11.45,4.022
			c7.377,4.577,21.506,9.481,26.528,11.19c4.289,1.459,12.407,4.234,19.551,7.445C361.182,482.865,357.044,484.114,352.495,483.079z
			"/>
		
			<radialGradient id="SVGID_51_" cx="-267.3521" cy="476.0039" r="18.1604" gradientTransform="matrix(-1.2256 0 0 1.0458 39.4697 -22.9282)" gradientUnits="userSpaceOnUse">
			<stop  offset="0.0051" style="stop-color:#BDBDBF"/>
			<stop  offset="1" style="stop-color:#121217"/>
		</radialGradient>
		<path display="inline" fill="url(#SVGID_51_)" d="M306.542,457.629c0.039,0.005,0.08,0.011,0.117,0.016
			c-0.678,1.894-0.8,3.788,0.501,4.066c8.048,3.434,15.203,7.63,24.145,9.537c6.259,1.526,12.071,3.052,16.99,6.104
			c2.235,1.526,1.341,4.958,4.471,5.341c4.35,0.989,8.317-0.111,11.183-2.46c0.041,0.018,0.083,0.036,0.123,0.054
			c-2.889,2.578-7.026,3.827-11.576,2.792c-3.131-0.382-2.236-3.815-4.472-5.341c-4.918-3.052-10.731-4.579-16.989-6.104
			c-8.943-1.908-16.097-6.104-24.144-9.538C305.495,461.799,305.734,459.647,306.542,457.629z"/>
		
			<radialGradient id="SVGID_52_" cx="-205.4731" cy="481.5215" r="37.2726" gradientTransform="matrix(-1.2256 0 0 1.0458 39.4697 -22.9282)" gradientUnits="userSpaceOnUse">
			<stop  offset="0.0051" style="stop-color:#BDBDBF"/>
			<stop  offset="1" style="stop-color:#121217"/>
		</radialGradient>
		<path display="inline" fill="url(#SVGID_52_)" d="M271.567,480.791c1.789,0.763,3.578,0.763,4.919,1.526
			c8.115,4.073,16.103,8.146,23.148,13.033c-19.205-0.072-35.601-0.612-38.579-2.121c-4.329-2.192-4.302-10.215-2.864-17.838
			C262.855,476.942,267.1,479.156,271.567,480.791z"/>
		<path display="inline" d="M298.663,468.259c2.668-3.544,4.601-7.321,7.261-10.707c0.203,0.022,0.41,0.049,0.618,0.076
			c-0.808,2.019-1.047,4.17,0.348,4.467c5.216,2.225,10.059,4.768,15.254,6.803l-4.393,5.97
			C311.071,473.198,302.992,472.692,298.663,468.259z"/>
		<path display="inline" d="M347.576,486.513c-7.064-4.688-14.819-8.2-23.563-10.021l4.02-5.602c0.98,0.274,1.978,0.526,3.001,0.744
			c6.258,1.525,12.071,3.052,16.989,6.104c2.236,1.526,1.341,4.959,4.472,5.341c4.549,1.035,8.687-0.214,11.576-2.792
			c1.061,0.477,2.101,0.963,3.103,1.457c1.717,0.845,3.428,2.339,4.697,4.005c-0.054,0-0.106,0-0.151,0
			C366.355,492.617,353.389,490.709,347.576,486.513z"/>
		<path display="inline" fill="#B2B2B2" d="M334.178,469.559c0,0-0.533,0.823-0.674,1.702c-0.11,0.686,2.564,1.57,3.168,0.745
			c0.605-0.825,1.648-2.127,0.924-2.746c-0.726-0.62-2.282-1.058-2.646-0.852C334.411,468.716,334.602,468.77,334.178,469.559z"/>
		<path display="inline" fill="#B2B2B2" d="M338.797,470.829c0,0-0.533,0.824-0.674,1.703c-0.11,0.687,2.564,1.57,3.169,0.745
			c0.604-0.824,1.648-2.127,0.922-2.746c-0.726-0.618-2.281-1.058-2.644-0.852C339.031,469.987,339.221,470.041,338.797,470.829z"/>
		<path display="inline" fill="#B2B2B2" d="M343.417,472.61c0,0-0.533,0.824-0.673,1.702c-0.109,0.687,2.564,1.57,3.169,0.745
			c0.604-0.825,1.649-2.127,0.922-2.746c-0.725-0.619-2.282-1.058-2.644-0.852C343.65,471.769,343.843,471.822,343.417,472.61z"/>
		<path display="inline" fill="#B2B2B2" d="M348.037,474.39c0,0-0.532,0.824-0.673,1.703c-0.109,0.686,2.564,1.57,3.168,0.746
			c0.605-0.825,1.647-2.128,0.923-2.747c-0.725-0.618-2.282-1.057-2.644-0.852C348.271,473.549,348.462,473.603,348.037,474.39z"/>
		<path display="inline" fill="#B2B2B2" d="M352.956,476.044c0,0-0.533,0.824-0.673,1.703c-0.11,0.686,2.562,1.569,3.168,0.744
			c0.604-0.825,1.647-2.127,0.922-2.746c-0.726-0.619-2.281-1.058-2.644-0.852C353.188,475.202,353.38,475.256,352.956,476.044z"/>
		<path display="inline" d="M271.567,480.791c-4.467-1.634-8.711-3.848-13.375-5.4c0.619-3.276,1.497-6.477,2.403-9.11
			c1.094,0.187,2.02,0.571,2.478,1.156c4.917,5.342,10.73,9.919,18.332,8.775c5.812-0.763,12.072-2.289,16.095-6.486
			c0.404-0.482,0.791-0.972,1.163-1.466c4.33,4.433,12.409,4.939,19.088,6.61l-9.797,13.314c-6.517-0.372-13.06-0.458-19.658,0.01
			c-0.129,0.014-0.263,0.024-0.394,0.035c-3.715-2.029-7.55-3.972-11.415-5.912C275.145,481.554,273.356,481.554,271.567,480.791z"
			/>
		<path display="inline" d="M307.953,488.184l-4.688,6.37l-4.841-0.014c-3.341-2.241-6.877-4.317-10.523-6.312
			c0.131-0.011,0.265-0.021,0.394-0.035C294.893,487.726,301.437,487.812,307.953,488.184z"/>
		
			<radialGradient id="SVGID_53_" cx="-217.9199" cy="491.1426" r="3.916" gradientTransform="matrix(-1.2256 0 0 1.0458 39.4697 -22.9282)" gradientUnits="userSpaceOnUse">
			<stop  offset="0.0051" style="stop-color:#BDBDBF"/>
			<stop  offset="1" style="stop-color:#121217"/>
		</radialGradient>
		<path display="inline" fill="url(#SVGID_53_)" d="M303.265,494.554l-0.591,0.804c-1.02-0.001-2.034-0.005-3.04-0.008
			c-0.397-0.274-0.807-0.539-1.21-0.81L303.265,494.554z"/>
		<path display="inline" d="M347.576,486.513c5.812,4.196,18.779,6.104,24.144-0.764c0.045,0,0.097,0,0.151,0
			c0.972,1.276,1.682,2.654,1.936,3.921c-1.508,1.31-3.716,2.151-5.926,2.339c-17.764,1.01-35.135-1.825-52.634-3.303l8.766-12.214
			C332.757,478.312,340.512,481.824,347.576,486.513z"/>
		<path display="inline" d="M311.156,494.405l4.091-5.698c17.499,1.478,34.87,4.313,52.634,3.303c2.21-0.188,4.418-1.03,5.926-2.339
			c0.117,0.582,0.139,1.141,0.045,1.654c-0.286,1.564-1.636,2.72-4.593,2.882c-4.867,0.269-32.563,1.03-58.777,1.14L311.156,494.405
			z"/>
		
			<radialGradient id="SVGID_54_" cx="-254.2788" cy="475.0552" r="88.373" gradientTransform="matrix(-1.2256 0 0 1.0458 39.4697 -22.9282)" gradientUnits="userSpaceOnUse">
			<stop  offset="0.0051" style="stop-color:#BDBDBF"/>
			<stop  offset="1" style="stop-color:#121217"/>
		</radialGradient>
		<polygon display="inline" fill="url(#SVGID_54_)" points="311.156,494.405 324.013,476.492 324.013,476.492 311.156,494.405 		"/>
		
			<radialGradient id="SVGID_55_" cx="-231.1445" cy="476.915" r="30.1809" gradientTransform="matrix(-1.2256 0 0 1.0458 39.4697 -22.9282)" gradientUnits="userSpaceOnUse">
			<stop  offset="0.0051" style="stop-color:#BDBDBF"/>
			<stop  offset="1" style="stop-color:#2E2E2E"/>
		</radialGradient>
		<polygon display="inline" fill="url(#SVGID_55_)" points="311.156,494.405 324.013,476.492 324.013,476.492 311.156,494.405 		"/>
		
			<radialGradient id="SVGID_56_" cx="-254.2607" cy="475.0498" r="88.3444" gradientTransform="matrix(-1.2256 0 0 1.0458 39.4697 -22.9282)" gradientUnits="userSpaceOnUse">
			<stop  offset="0.0051" style="stop-color:#BDBDBF"/>
			<stop  offset="1" style="stop-color:#121217"/>
		</radialGradient>
		<polygon display="inline" fill="url(#SVGID_56_)" points="311.156,494.405 310.482,495.346 311.156,494.405 		"/>
		
			<radialGradient id="SVGID_57_" cx="-231.1392" cy="476.9106" r="30.1828" gradientTransform="matrix(-1.2256 0 0 1.0458 39.4697 -22.9282)" gradientUnits="userSpaceOnUse">
			<stop  offset="0.0051" style="stop-color:#BDBDBF"/>
			<stop  offset="1" style="stop-color:#2E2E2E"/>
		</radialGradient>
		<polygon display="inline" fill="url(#SVGID_57_)" points="311.156,494.405 310.482,495.346 311.156,494.405 		"/>
		<path display="inline" fill="#B2B2B2" d="M303.265,494.554l4.688-6.37c1.381,0.079,2.76,0.172,4.139,0.273
			c1.053,0.078,2.103,0.161,3.155,0.25l-4.091,5.698l-0.674,0.941c-0.718,0.003-1.431,0.004-2.146,0.006
			c-1.899,0.005-3.792,0.007-5.662,0.005L303.265,494.554z"/>
		
			<radialGradient id="SVGID_58_" cx="-249.0488" cy="475.1128" r="88.1161" gradientTransform="matrix(-1.2256 0 0 1.0458 39.4697 -22.9282)" gradientUnits="userSpaceOnUse">
			<stop  offset="0.0051" style="stop-color:#BDBDBF"/>
			<stop  offset="1" style="stop-color:#121217"/>
		</radialGradient>
		<polygon display="inline" fill="url(#SVGID_58_)" points="303.265,494.554 302.674,495.357 303.265,494.554 		"/>
		<g display="inline">
			<path fill="#B2B2B2" d="M317.747,474.875c0.608,0.146,1.55,0.373,2.68,0.654c1.329,0.331,2.772,0.722,3.597,0.95l-0.01,0.014
				l-8.766,12.214c-1.052-0.089-2.102-0.171-3.155-0.25c-1.379-0.102-2.758-0.194-4.139-0.273L317.747,474.875z"/>
			<path fill="#B2B2B2" d="M317.747,474.875l0.004-0.006l0.391-0.53l4.002-5.439c1.904,0.745,3.855,1.424,5.889,1.991l-4.01,5.588
				c-0.824-0.228-2.268-0.619-3.597-0.95C319.296,475.248,318.354,475.021,317.747,474.875z"/>
		</g>
		
			<radialGradient id="SVGID_59_" cx="-226.5049" cy="476.2915" r="19.3193" gradientTransform="matrix(-1.2256 0 0 1.0458 39.4697 -22.9282)" gradientUnits="userSpaceOnUse">
			<stop  offset="0.0051" style="stop-color:#BDBDBF"/>
			<stop  offset="1" style="stop-color:#121217"/>
		</radialGradient>
		<polygon display="inline" fill="url(#SVGID_59_)" points="303.265,494.554 302.674,495.357 303.265,494.554 		"/>
		
			<radialGradient id="SVGID_60_" cx="-249.0703" cy="475.1064" r="88.1647" gradientTransform="matrix(-1.2256 0 0 1.0458 39.4697 -22.9282)" gradientUnits="userSpaceOnUse">
			<stop  offset="0.0051" style="stop-color:#BDBDBF"/>
			<stop  offset="1" style="stop-color:#121217"/>
		</radialGradient>
		<rect x="310.508" y="472.491" display="inline" fill="url(#SVGID_60_)" width="0" height="24.44"/>
		
			<radialGradient id="SVGID_61_" cx="-241.0718" cy="461.3506" r="19.8226" gradientTransform="matrix(-1.2256 0 0 1.0458 39.4697 -22.9282)" gradientUnits="userSpaceOnUse">
			<stop  offset="0.0051" style="stop-color:#BDBDBF"/>
			<stop  offset="1" style="stop-color:#000803"/>
		</radialGradient>
		<path display="inline" fill="url(#SVGID_61_)" d="M298.22,459.694c0.441,2.607,1.215,5.289,3.751,6.217
			c4.471,1.908,10.73-0.381,15.648,1.908c3.577,1.144,6.261,3.814,9.836,4.959c3.623,0.883,4.999-1.046,6.209-3.418
			c-0.293,1.81-1.462,5.262-6.125,4.052c-6.225-1.616-8.66-4.618-13.26-5.542c-4.599-0.924-9.47,0.461-12.718-0.693
			c-3.247-1.154-4.059-6.695-4.059-6.695L298.22,459.694z"/>
		<path display="inline" fill="#B2B2B2" d="M300.141,457.587l4.169-0.281c0,0,2.165-0.666,4.436-0.828
			c-0.104,0.514-0.228,1.016-0.069,1.423c-1.788,0.381-3.13,1.144-3.576,2.669c-0.447,1.908,1.789,3.435,3.576,3.435
			c7.155,0,12.072,2.67,17.885,6.104c1.666,1.186,3.852,1.338,6.125,0.919c-1.066,1.498-2.52,2.413-5.232,1.752
			c-3.575-1.145-6.259-3.815-9.836-4.959c-4.918-2.29-11.178,0-15.648-1.908c-2.536-0.928-3.31-3.609-3.751-6.217L300.141,457.587z"
			/>
		<path display="inline" d="M326.562,470.107c-5.813-3.434-10.73-6.104-17.885-6.104c-1.788,0-4.023-1.526-3.576-3.435
			c0.446-1.525,1.789-2.288,3.576-2.669c-0.159-0.407-0.036-0.909,0.069-1.423c1.567-0.11,3.186,0.018,4.181,0.772
			c2.435,1.847,12.718,7.388,14.341,7.85c1.624,0.462,6.495,3.232,6.495,3.232s0,0.422-0.099,1.028
			c-0.304,0.596-0.618,1.164-0.977,1.666C330.414,471.445,328.229,471.293,326.562,470.107z"/>
		<path display="inline" d="M257.34,482.758c0.04-1.395,0.166-2.849,0.36-4.319c0.135-1.014,0.3-2.034,0.491-3.048
			c1.512,0.503,2.978,1.078,4.424,1.678c0.871,0.332,3.95,1.5,6.281,2.337c2.248,0.808,5.317,2.007,6.35,2.414
			c0.441,0.128,0.859,0.279,1.24,0.496c3.844,1.929,7.657,3.861,11.353,5.88c-3.506,0.255-6.951,0.451-10.505,0.223
			c-0.584-0.142-1.169-0.284-1.755-0.427c0.688,0.167,1.374,0.335,2.057,0.502C270.212,488.168,262.718,486.602,257.34,482.758z"/>
		<path display="inline" d="M257.34,482.758c5.377,3.844,12.872,5.41,20.295,5.736c0.363,0.088,0.726,0.177,1.088,0.267
			c-0.463-0.115-0.925-0.228-1.39-0.342c3.554,0.229,6.999,0.032,10.505-0.223c3.667,2.001,7.221,4.086,10.578,6.34
			c0.003,0.001,0.005,0.003,0.008,0.004c0.403,0.271,0.812,0.535,1.21,0.81c-0.925-0.004-1.84-0.008-2.75-0.015
			c-18-0.112-32.993-0.671-35.828-2.106c-1.014-0.514-1.784-1.347-2.358-2.417C257.619,488.796,257.25,485.935,257.34,482.758z"/>
		
			<radialGradient id="SVGID_62_" cx="68.6113" cy="477.0522" r="4.3781" gradientTransform="matrix(-1.3003 0 0 1.0458 444.1383 -22.9282)" gradientUnits="userSpaceOnUse">
			<stop  offset="0.0051" style="stop-color:#939396"/>
			<stop  offset="1" style="stop-color:#000803"/>
		</radialGradient>
		<path display="inline" fill="url(#SVGID_62_)" d="M353.729,474.894c0.028-0.017,0.077-0.022,0.119-0.03
			c-0.069,0.148-0.131,0.355-0.333,0.729c0,0-0.532,0.823-0.673,1.703c-0.093,0.578,1.788,1.293,2.745,1.011
			c-0.047,0.063-0.093,0.126-0.136,0.185c-0.606,0.825-3.279-0.059-3.168-0.744c0.14-0.879,0.673-1.703,0.673-1.703
			C353.38,475.256,353.188,475.202,353.729,474.894z"/>
		
			<radialGradient id="SVGID_63_" cx="72.394" cy="475.4722" r="4.3776" gradientTransform="matrix(-1.3003 0 0 1.0458 444.1383 -22.9282)" gradientUnits="userSpaceOnUse">
			<stop  offset="0.0051" style="stop-color:#939396"/>
			<stop  offset="1" style="stop-color:#000803"/>
		</radialGradient>
		<path display="inline" fill="url(#SVGID_63_)" d="M348.812,473.24c0.028-0.016,0.076-0.021,0.119-0.03
			c-0.068,0.149-0.131,0.356-0.333,0.729c0,0-0.533,0.823-0.674,1.703c-0.091,0.578,1.789,1.293,2.746,1.011
			c-0.047,0.063-0.094,0.126-0.137,0.186c-0.604,0.824-3.278-0.06-3.168-0.746c0.141-0.879,0.673-1.703,0.673-1.703
			C348.462,473.603,348.271,473.549,348.812,473.24z"/>
		
			<radialGradient id="SVGID_64_" cx="79.5" cy="472.0669" r="4.3785" gradientTransform="matrix(-1.3003 0 0 1.0458 444.1383 -22.9282)" gradientUnits="userSpaceOnUse">
			<stop  offset="0.0051" style="stop-color:#939396"/>
			<stop  offset="1" style="stop-color:#000803"/>
		</radialGradient>
		<path display="inline" fill="url(#SVGID_64_)" d="M339.571,469.68c0.029-0.016,0.076-0.021,0.119-0.03
			c-0.068,0.149-0.131,0.355-0.331,0.729c0,0-0.534,0.824-0.674,1.704c-0.092,0.577,1.788,1.292,2.745,1.01
			c-0.048,0.064-0.094,0.126-0.136,0.186c-0.605,0.825-3.279-0.059-3.169-0.745c0.141-0.879,0.674-1.703,0.674-1.703
			C339.221,470.041,339.031,469.987,339.571,469.68z"/>
		
			<radialGradient id="SVGID_65_" cx="75.9468" cy="473.769" r="4.379" gradientTransform="matrix(-1.3003 0 0 1.0458 444.1383 -22.9282)" gradientUnits="userSpaceOnUse">
			<stop  offset="0.0051" style="stop-color:#939396"/>
			<stop  offset="1" style="stop-color:#000803"/>
		</radialGradient>
		<path display="inline" fill="url(#SVGID_65_)" d="M344.191,471.46c0.029-0.017,0.076-0.022,0.12-0.03
			c-0.068,0.148-0.131,0.355-0.333,0.729c0,0-0.533,0.823-0.673,1.703c-0.092,0.577,1.788,1.292,2.745,1.011
			c-0.047,0.063-0.093,0.126-0.137,0.185c-0.605,0.825-3.278-0.059-3.169-0.745c0.141-0.878,0.673-1.702,0.673-1.702
			C343.843,471.822,343.65,471.769,344.191,471.46z"/>
		
			<radialGradient id="SVGID_66_" cx="83.0532" cy="470.8511" r="4.3782" gradientTransform="matrix(-1.3003 0 0 1.0458 444.1383 -22.9282)" gradientUnits="userSpaceOnUse">
			<stop  offset="0.0051" style="stop-color:#939396"/>
			<stop  offset="1" style="stop-color:#000803"/>
		</radialGradient>
		<path display="inline" fill="url(#SVGID_66_)" d="M334.178,469.559c0.424-0.789,0.233-0.843,0.773-1.151
			c0.029-0.016,0.077-0.022,0.12-0.03c-0.069,0.149-0.131,0.355-0.332,0.729c0,0-0.533,0.824-0.674,1.704
			c-0.093,0.577,1.788,1.292,2.745,1.01c-0.047,0.064-0.094,0.126-0.137,0.186c-0.604,0.825-3.278-0.06-3.168-0.745
			C333.645,470.381,334.178,469.559,334.178,469.559z"/>
	</g>
	<path fill="#D22817" d="M161.024,254.332c0,15.043-50.815,0.122-50.815-14.921v-18.627c0-15.043,9.825-27.351,21.832-27.351h7.149
		c12.008,0,21.833,12.308,21.833,27.351V254.332z"/>
	<path fill="#F0BE64" d="M109.911,235.742c0,15.043,50.815,29.964,50.815,14.921v4.516c0,15.043-50.815,0.122-50.815-14.921V235.742
		z"/>
	<path fill="#F0BE64" d="M109.911,226.51c0,15.043,50.815,29.964,50.815,14.921v4.516c0,15.043-50.815,0.122-50.815-14.921V226.51z"
		/>
</g>
</svg>
