<?xml version="1.0" encoding="utf-8"?>
<!-- Generator: Adobe Illustrator 16.0.1, SVG Export Plug-In . SVG Version: 6.00 Build 0)  -->
<!DOCTYPE svg PUBLIC "-//W3C//DTD SVG 1.1//EN" "http://www.w3.org/Graphics/SVG/1.1/DTD/svg11.dtd">
<svg version="1.1" id="content" xmlns="http://www.w3.org/2000/svg" xmlns:xlink="http://www.w3.org/1999/xlink" x="0px" y="0px"
	 width="500px" height="500px" viewBox="0 0 500 500" enable-background="new 0 0 500 500" xml:space="preserve">
<polygon fill="#DC3E1C" points="381.699,174.13 294.219,174.13 247,226.343 199.057,174.13 116.402,174.13 116.402,480.479 
	381.699,480.479 "/>
<g>
	<polygon fill="#F3C877" points="116.402,176.98 116.402,188.539 248.196,325.477 381.699,189.167 381.699,177.967 248.29,314.393 	
		"/>
	<polygon fill="#F3C877" points="373.943,174.13 364.916,174.13 248.471,293.065 134.042,174.13 125.017,174.13 248.392,302.365 	
		"/>
	<polygon fill="#F2F2F2" points="364.916,174.13 344.384,174.13 248.65,271.909 154.576,174.13 134.042,174.13 248.471,293.065 	"/>
	<polygon fill="#97A7B0" points="344.384,174.13 314.782,174.13 310.001,174.13 304.811,174.13 300.797,174.13 293.803,174.13 
		247.797,222.174 200.476,174.13 193.505,174.13 189.128,174.13 183.468,174.13 178.251,174.13 154.576,174.13 248.65,271.909 	"/>
	<path fill="#FFFFFF" d="M318.791,267.969c-9.343,3.568-15.988,12.615-15.988,23.211c0,10.604,6.646,19.651,15.988,23.213
		c9.35-3.562,15.992-12.609,15.992-23.213C334.783,280.585,328.141,271.538,318.791,267.969z"/>
</g>
</svg>
