<?xml version="1.0" encoding="utf-8"?>
<!-- Generator: Adobe Illustrator 16.0.1, SVG Export Plug-In . SVG Version: 6.00 Build 0)  -->
<!DOCTYPE svg PUBLIC "-//W3C//DTD SVG 1.1//EN" "http://www.w3.org/Graphics/SVG/1.1/DTD/svg11.dtd">
<svg version="1.1" id="content" xmlns="http://www.w3.org/2000/svg" xmlns:xlink="http://www.w3.org/1999/xlink" x="0px" y="0px"
	 width="500px" height="500px" viewBox="0 0 500 500" enable-background="new 0 0 500 500" xml:space="preserve">
<rect id="position" x="0.5" y="0.5" display="none" fill="none" stroke="#000000" width="499" height="499"/>
<path fill-rule="evenodd" clip-rule="evenodd" fill="#F9BF3B" d="M325.328,264.692c1.812-39.265,4.322-64.001,36.076-110.778
	c2.651-3.757,3.183-7.503,5.848-11.251c-22.037-24.338-27.158-30.079-62.312-35.843c-15.449,19.159-35.542,30.641-64.983,30.641
	c-29.442,0-49.525-11.482-64.972-30.641c-35.152,5.764-42.393,11.504-64.416,35.843c2.651,3.748,5.29,7.494,7.955,11.251
	c31.748,46.776,41.904,78.689,42.993,115.861S144.86,408.583,144.86,408.583h200.452
	C345.312,408.583,323.516,303.957,325.328,264.692z"/>
<path fill="#F9BF3B" d="M177.127,185.498c-1.858,18.634-91.067,9.739-89.209-8.896l5.452-54.674
	c1.858-18.635,20.626-32.161,41.705-30.06l12.552,1.252c21.08,2.102,36.809,19.067,34.951,37.702l-5.452,54.675H177.127z"/>
<path fill="#F9BF3B" d="M393.211,175.928c2.033,18.616-87.087,28.351-89.12,9.735l-5.967-54.621
	c-2.033-18.616,13.533-35.729,34.592-38.029l12.541-1.37c21.058-2.3,39.954,11.048,41.988,29.665L393.211,175.928L393.211,175.928z"
	/>
<path fill-rule="evenodd" clip-rule="evenodd" fill="#C5992F" d="M239.958,213.867c-3.5,0-6.34-2.98-6.34-6.642
	c0-3.672,2.839-6.646,6.34-6.646c3.502,0,6.341,2.974,6.341,6.646C246.299,210.887,243.459,213.867,239.958,213.867z"/>
<path fill-rule="evenodd" clip-rule="evenodd" fill="#C5992F" d="M239.958,187.08c-3.5,0-6.34-2.976-6.34-6.644
	c0-3.682,2.839-6.645,6.34-6.645c3.502,0,6.341,2.963,6.341,6.645C246.299,184.104,243.459,187.08,239.958,187.08z"/>
<path fill-rule="evenodd" clip-rule="evenodd" fill="#C5992F" d="M239.958,160.292c-3.5,0-6.34-2.976-6.34-6.643
	c0-3.683,2.839-6.645,6.34-6.645c3.502,0,6.341,2.962,6.341,6.645C246.299,157.316,243.459,160.292,239.958,160.292z"/>
</svg>
