<?xml version="1.0" encoding="utf-8"?>
<!-- Generator: Adobe Illustrator 16.0.1, SVG Export Plug-In . SVG Version: 6.00 Build 0)  -->
<!DOCTYPE svg PUBLIC "-//W3C//DTD SVG 1.1//EN" "http://www.w3.org/Graphics/SVG/1.1/DTD/svg11.dtd">
<svg version="1.1" id="Layer_1" xmlns="http://www.w3.org/2000/svg" xmlns:xlink="http://www.w3.org/1999/xlink" x="0px" y="0px"
	 width="500px" height="500px" viewBox="0 0 500 500" enable-background="new 0 0 500 500" xml:space="preserve">
<g id="avatar">
</g>
<g>
	<polygon fill="#A50E9E" points="129.048,227.469 133.132,230.21 133.132,230.152 	"/>
	<polygon fill="#A50E9E" points="135.829,249.145 146.43,256.264 146.43,256.153 146.461,256.133 	"/>
	<polygon fill="#A50E9E" points="119.926,221.523 119.962,221.498 119.926,221.474 	"/>
	<polygon fill="#A50E9E" points="146.357,221.523 133.225,230.152 133.225,230.16 146.417,221.563 	"/>
	<polygon fill="#A50E9E" points="133.178,230.183 133.134,230.212 133.225,230.273 133.225,230.214 	"/>
	<polygon fill="#A50E9E" points="146.515,221.498 146.477,221.474 146.477,221.523 	"/>
	<polygon fill="#A50E9E" points="159.684,230.152 155.599,227.469 159.684,230.21 	"/>
	<polygon fill="#A50E9E" points="119.878,256.153 119.909,256.133 110.212,249.76 110.212,249.774 119.878,256.264 	"/>
	<polygon fill="#A50E9E" points="146.43,204.169 146.543,204.097 146.524,204.085 146.477,204.116 146.478,204.054 133.272,195.377 
		133.272,195.446 146.43,204.283 	"/>
	<polygon fill="#A50E9E" points="159.685,230.212 159.777,230.273 159.777,230.214 159.731,230.183 	"/>
	<path fill="#A50E9E" d="M142.918,275.766l-0.019,0.013c0.038-0.005,0.076-0.01,0.114-0.015l0.017-0.012
		C142.993,275.758,142.955,275.761,142.918,275.766z"/>
	<polygon fill="#A50E9E" points="133.202,195.459 133.151,195.426 120.019,204.054 120.019,204.077 133.201,195.487 	"/>
	<polygon fill="#A50E9E" points="159.777,230.16 161.023,229.348 161.023,229.333 159.777,230.152 	"/>
	<polygon fill="#A50E9E" points="119.926,273.457 119.926,273.507 119.962,273.482 	"/>
	<path fill="#A50E9E" d="M146.572,204.077l6.573-4.283c-0.011-0.012-0.022-0.025-0.034-0.037l-6.539,4.297V204.077z"/>
	<path fill="#A50E9E" d="M119.878,204.169l0.112-0.071l-0.019-0.013l-0.046,0.031v-0.062l-3.513-2.308
		c-0.036,0.046-0.07,0.093-0.105,0.139l3.57,2.398V204.169z"/>
	<polygon fill="#6060D8" points="119.805,221.523 110.212,227.826 110.212,227.854 119.865,221.563 	"/>
	<path fill="#A50E9E" d="M119.865,273.546l-0.061-0.039l-0.47,0.309c0.025,0.009,0.051,0.018,0.077,0.026L119.865,273.546z"/>
	<path fill="#FF3573" d="M147.863,274.943c0.218-0.048,0.434-0.098,0.648-0.148l-0.009-0.006
		C148.288,274.84,148.079,274.895,147.863,274.943z"/>
	<rect x="146.601" y="273.539" fill="#FF3573" width="0" height="0.008"/>
	<path fill="#FF3573" d="M146.596,275.206c0.363-0.07,0.721-0.144,1.076-0.221c-0.354,0.077-0.715,0.146-1.076,0.216V275.206z"/>
	<path fill="#FF3573" d="M143.013,275.764c0.299-0.036,0.598-0.073,0.893-0.114c-0.288,0.04-0.584,0.067-0.876,0.103
		L143.013,275.764z"/>
	<path fill="#FF3573" d="M146.069,275.307l0.407-1.53l-0.001,0.001L146.069,275.307c-0.704,0.127-1.42,0.241-2.147,0.341
		c0.91-0.125,1.802-0.274,2.675-0.442v-0.005C146.419,275.235,146.247,275.275,146.069,275.307z"/>
	<polygon fill="#FF3573" points="146.476,273.777 146.599,273.547 146.599,273.547 	"/>
	<path fill="#B90897" d="M120.046,274.054c0.463,0.147,0.939,0.285,1.423,0.418l-1.422-0.935L120.046,274.054z"/>
	<path fill="#A50E9E" d="M119.962,273.482l-0.036,0.024v0.079l-0.061-0.04l-0.454,0.296c0.21,0.072,0.42,0.145,0.635,0.213
		l0.001-0.517L119.962,273.482z"/>
	<path fill="#FF7761" d="M160.749,266.755c-0.057,0.188-0.123,0.373-0.196,0.556C160.627,267.128,160.693,266.943,160.749,266.755z"
		/>
	<path fill="#FF7761" d="M160.922,266.015c0.02-0.116,0.043-0.231,0.057-0.35l-0.004-0.002
		C160.961,265.782,160.943,265.899,160.922,266.015z"/>
	<path fill="#FF7761" d="M160.896,266.175c-0.038,0.187-0.084,0.369-0.139,0.55C160.811,266.544,160.859,266.361,160.896,266.175z"
		/>
	<path fill="#FF7761" d="M159.783,264.881l-0.001,2.818l0.508,0.183c-0.058,0.107-0.11,0.219-0.17,0.323
		c0.167-0.286,0.306-0.583,0.429-0.885l-0.505-2.268L159.783,264.881z"/>
	<path fill="#FF7761" d="M159.782,268.018l0.334,0.191c-0.062,0.105-0.134,0.208-0.2,0.312c-0.042,0.063-0.09,0.125-0.134,0.188
		v0.021c0.12-0.171,0.231-0.346,0.335-0.522L159.782,268.018L159.782,268.018z"/>
	
		<rect x="145.469" y="271.002" transform="matrix(0.4706 -0.8823 0.8823 0.4706 -160.7901 274.0103)" fill="#FF525D" width="4.974" height="0.001"/>
	
		<rect x="148.568" y="269.826" transform="matrix(-0.5344 -0.8452 0.8452 -0.5344 1.745 540.616)" fill="#FF525D" width="2.411" height="0.003"/>
	<polygon fill="#FF525D" points="146.494,256.194 146.477,256.205 146.478,256.183 146.43,256.153 146.43,256.264 146.48,256.298 
		146.477,269.816 148.423,268.697 148.946,268.394 151.087,267.164 154.691,265.09 157.138,266.499 159.677,264.856 	"/>
	<polygon fill="#FFAE71" points="159.824,247.594 159.805,247.582 159.787,258.608 161.024,258.656 161.023,248.253 
		159.824,247.466 	"/>
	<polygon fill="#FFAE71" points="159.953,264.643 159.779,263.859 159.778,264.756 	"/>
	<path fill="#FF7761" d="M152.223,273.705c-0.418,0.149-0.848,0.291-1.287,0.427C151.374,273.996,151.805,273.854,152.223,273.705z"
		/>
	<path fill="#FF7761" d="M148.502,274.789l0.009,0.006c0.775-0.186,1.528-0.39,2.256-0.611c-0.433,0.132-0.874,0.258-1.325,0.377
		C149.135,274.641,148.816,274.713,148.502,274.789z"/>
	<path fill="#FF7761" d="M159.557,269.026c-0.565,0.732-1.28,1.409-2.123,2.029c0.957-0.703,1.754-1.476,2.348-2.323v-0.021
		C159.708,268.816,159.636,268.923,159.557,269.026z"/>
	<path fill="#FF7761" d="M150.419,270.845l-0.002,0.002l1.807,2.857c0.38-0.136,0.749-0.279,1.111-0.427
		c-0.361,0.146-0.729,0.289-1.109,0.425L150.419,270.845z"/>
	<polygon fill="#FF7761" points="159.777,264.922 159.677,264.856 157.138,266.499 158.292,267.164 159.782,268.018 
		159.782,268.017 158.293,267.162 159.782,267.699 159.783,264.881 159.777,264.877 	"/>
	<path fill="#FF7761" d="M156.526,271.673c-0.603,0.379-1.258,0.733-1.956,1.063C155.268,272.406,155.922,272.052,156.526,271.673z"
		/>
	<path fill="#FF7761" d="M154.43,272.801c-0.3,0.14-0.608,0.275-0.923,0.406C153.823,273.076,154.13,272.94,154.43,272.801z"/>
	<rect x="146.694" y="273.173" fill="#FF7761" width="0" height="0.389"/>
	<path fill="#FF7761" d="M157.41,271.073c-0.272,0.199-0.558,0.394-0.856,0.581C156.853,271.467,157.138,271.272,157.41,271.073z"/>
	<path fill="#FF7761" d="M160.979,265.666c0.003-0.032,0.007-0.065,0.011-0.098c-0.003,0.032-0.011,0.063-0.015,0.096
		L160.979,265.666z"/>
	<polygon fill="#FF7761" points="159.777,264.877 159.783,264.881 160.044,265.052 159.953,264.643 159.778,264.756 	"/>
	<polygon fill="#FCB540" points="146.461,256.133 146.43,256.153 146.478,256.183 146.478,256.144 	"/>
	<polygon fill="#FF905B" points="146.572,256.143 146.572,256.205 146.524,256.173 146.494,256.194 159.677,264.856 
		159.777,264.922 159.777,264.877 159.778,264.756 159.779,263.859 159.445,262.355 155.142,258.43 159.787,258.608 
		159.805,247.582 159.702,247.516 	"/>
	<path fill="#FF3573" d="M136.864,276.19c-0.49,0.01-0.98,0.013-1.471,0.011C135.884,276.203,136.374,276.2,136.864,276.19z"/>
	<path fill="#FF3573" d="M141.691,275.91c-0.735,0.072-1.478,0.13-2.225,0.175l-0.319-2.053l2.132-1.227l2.14-1.23l-10.187-6.694
		l-0.004,11.277c0.714,0.027,1.431,0.04,2.147,0.043l0.46-0.266l3.311-1.903l0.319,2.053c-0.849,0.051-1.702,0.084-2.559,0.104
		c2.026-0.041,4.04-0.178,5.992-0.41l0.019-0.013C142.509,275.815,142.104,275.87,141.691,275.91z"/>
	<polygon fill="#E23C69" points="119.943,256.194 119.926,256.205 119.926,256.183 119.878,256.153 119.878,256.264 
		119.928,256.298 119.926,273.396 133.126,264.856 	"/>
	<polygon fill="#FF525D" points="146.43,256.264 135.829,249.145 133.272,247.466 133.272,247.594 133.253,247.582 133.226,264.756 
		146.48,256.298 	"/>
	<path fill="#CE0586" d="M133.225,264.877v0.045l-0.099-0.065l-13.2,8.54v0.061l0.036,0.025l0.085,0.056l1.422,0.935
		c0.683,0.187,1.386,0.358,2.105,0.515c-0.951-0.774-0.705-3.016,0.746-3.015c1.638,0,1.746,2.854,0.326,3.234
		c2.709,0.522,5.622,0.841,8.581,0.951l0.004-11.277L133.225,264.877z M128.334,275.778l0.37-2.465l1.446,2.651
		C129.542,275.912,128.935,275.85,128.334,275.778z"/>
	<polygon fill="#FF525D" points="146.477,269.816 146.48,256.298 133.226,264.756 133.225,264.877 133.232,264.881 143.418,271.575 
		144.153,271.153 	"/>
	<polygon fill="#E23C69" points="133.126,264.856 133.225,264.922 133.225,264.877 133.226,264.756 133.253,247.582 
		133.151,247.516 120.019,256.143 120.019,256.205 119.972,256.173 119.943,256.194 	"/>
	<polygon fill="#FCB540" points="119.926,256.144 119.909,256.133 119.878,256.153 119.926,256.183 	"/>
	<path fill="#F9BB7D" d="M159.777,230.214v0.06l0.05,0.034l-0.002,17.098l1.199-0.775v-10.308c-0.079,0.04-0.167,0.066-0.27,0.066
		c-0.877,0-0.877-1.64,0-1.64c0.103,0,0.191,0.026,0.27,0.066l0-3.835l-1.246-0.819V230.214z"/>
	<polygon fill="#F9BB7D" points="159.824,247.466 161.023,248.253 161.023,246.63 159.824,247.405 	"/>
	<polygon fill="#FFDDA5" points="161.023,230.979 161.023,229.348 159.777,230.16 	"/>
	<polygon fill="#FF905B" points="159.702,247.516 146.577,238.89 146.572,256.143 	"/>
	<polygon fill="#D353B8" points="146.478,256.183 146.477,256.205 146.494,256.194 146.524,256.173 146.478,256.144 	"/>
	<path fill="#BE73EA" d="M133.225,230.16v0.054v0.06l0.049,0.034l-0.002,17.098l13.2-8.538L133.225,230.16z M141.178,239.67
		c-0.877,0-0.877-1.641,0-1.641C142.054,238.029,142.054,239.67,141.178,239.67z"/>
	<polygon fill="#ED98D1" points="159.684,230.214 159.684,230.21 155.599,227.469 146.599,221.553 146.572,238.765 159.826,230.307 
		159.777,230.273 159.685,230.212 	"/>
	<polygon fill="#E23C69" points="146.461,256.133 146.478,256.144 146.524,256.173 146.572,256.205 146.572,256.143 146.577,238.89 
		146.572,238.885 146.572,238.931 146.472,238.867 133.272,247.405 133.272,247.466 135.829,249.145 	"/>
	<path fill="#EC9594" d="M146.572,238.885l0.006,0.005l13.125,8.626l0.103,0.065l0.02,0.013v-0.129v-0.061l0.002-17.098
		l-13.255,8.458V238.885z M152.597,237.866c1.753,0,1.753,3.278,0,3.278C150.843,241.144,150.843,237.866,152.597,237.866z"/>
	<polygon fill="#ED98D1" points="146.572,238.931 146.572,238.885 146.572,238.765 146.599,221.553 146.515,221.498 
		146.477,221.523 146.477,221.603 146.417,221.563 133.225,230.16 146.472,238.867 	"/>
	<polygon fill="#E23C69" points="120.025,238.89 120.019,256.143 133.151,247.516 	"/>
	<polygon fill="#D353B8" points="119.926,256.205 119.943,256.194 119.972,256.173 119.926,256.144 119.926,256.183 	"/>
	<polygon fill="#6060D8" points="110.212,232.486 110.212,245.146 119.92,238.867 	"/>
	<polygon fill="#8563B7" points="133.225,230.273 133.134,230.212 133.132,230.214 133.132,230.21 129.048,227.469 120.047,221.553 
		120.02,238.765 133.274,230.307 	"/>
	<polygon fill="#6060D8" points="119.926,256.144 119.972,256.173 120.019,256.205 120.019,256.143 120.025,238.89 120.019,238.885 
		120.019,238.931 119.92,238.867 110.212,245.146 110.212,249.76 119.909,256.133 	"/>
	<path fill="#BE73EA" d="M133.253,247.582l0.019,0.013v-0.129v-0.061l0.002-17.098l-13.254,8.458l-0.001,0.12l0.006,0.005
		l13.126,8.626L133.253,247.582z M131.934,237.046c-0.877,0-0.877-1.64,0-1.64C132.81,235.406,132.81,237.046,131.934,237.046z"/>
	<polygon fill="#6060D8" points="120.019,238.931 120.019,238.885 120.02,238.765 120.047,221.553 119.962,221.498 119.926,221.523 
		119.926,221.603 119.865,221.563 110.212,227.854 110.212,232.486 119.92,238.867 	"/>
	<path fill="#E5C1BE" d="M159.777,230.152l1.246-0.819v-8.549c0-2.653-0.312-5.219-0.881-7.649l-0.358-0.235L159.777,230.152z"/>
	<polygon fill="#D353B8" points="159.684,230.214 159.685,230.212 159.731,230.183 159.684,230.152 159.684,230.21 	"/>
	<path fill="#ED98D1" d="M146.48,204.316l-0.003,17.096l11.039-7.14c-0.284-0.475-0.116-1.329,0.519-1.329
		c0.354,0,0.558,0.27,0.626,0.588l1.017-0.658l-13.247-8.705v0.114L146.48,204.316z"/>
	<path fill="#D2BDC5" d="M160.022,212.618c-0.076-0.301-0.159-0.597-0.243-0.893l-0.001,1.049L160.022,212.618z"/>
	<path fill="#ED98D1" d="M158.034,214.584c-0.242,0-0.411-0.13-0.519-0.312l-11.039,7.14v0.062l0.038,0.023l0.084,0.056l9,5.916
		l4.085,2.683l0.047,0.031l0.046,0.03v-0.054v-0.008l0.007-17.253l-0.007-0.004v0.044l-0.1-0.065l-1.017,0.658
		C158.761,214.002,158.557,214.584,158.034,214.584z"/>
	<path fill="#E5C1BE" d="M159.777,212.895l0.007,0.004l0.358,0.235c-0.04-0.172-0.077-0.346-0.12-0.516l-0.244,0.156
		L159.777,212.895z"/>
	<path fill="#B1B5C7" d="M146.572,204.116l-0.028-0.019l-0.113,0.071l13.247,8.705l0.1,0.065v-0.044l0.001-0.121l0.001-1.049
		c-1.324-4.688-3.642-8.8-6.635-11.931l-6.573,4.283V204.116z"/>
	<polygon fill="#BE73EA" points="133.232,212.899 133.225,230.152 146.357,221.523 	"/>
	<polygon fill="#D353B8" points="133.132,230.152 133.132,230.21 133.132,230.214 133.134,230.212 133.178,230.183 	"/>
	<path fill="#8563B7" d="M124.321,215.566c1.081,0,1.493,1.244,1.243,2.199l7.562-4.892l-13.248-8.705v0.114l0.05,0.033
		l-0.002,17.096l4.047-2.618C122.579,218.389,122.694,215.566,124.321,215.566z"/>
	<polygon fill="#FF036A" points="133.222,195.473 133.202,195.459 133.201,195.487 	"/>
	<polygon fill="#AE87A8" points="146.48,204.316 146.43,204.283 133.272,195.446 133.272,195.506 133.253,195.493 133.226,212.774 	
		"/>
	<path fill="#8563B7" d="M133.132,230.152l0.046,0.031l0.047,0.03v-0.054v-0.008l0.007-17.253l-0.007-0.004v0.044l-0.099-0.065
		l-7.562,4.892c-0.156,0.596-0.569,1.081-1.243,1.081c-0.126,0-0.24-0.021-0.348-0.052l-4.047,2.618v0.062l0.036,0.023l0.085,0.056
		l9.001,5.916L133.132,230.152z"/>
	<path fill="#AE87A8" d="M146.417,221.563l0.06,0.04v-0.08v-0.049v-0.062l0.003-17.096l-13.254,8.458l-0.001,0.121l0.007,0.004
		l13.125,8.624L146.417,221.563z M138.459,215.402c-0.877,0-0.877-1.638,0-1.638S139.336,215.402,138.459,215.402z"/>
	<polygon fill="#8680BD" points="133.225,212.939 133.225,212.895 133.226,212.774 133.253,195.493 133.222,195.473 
		133.201,195.487 120.019,204.077 120.019,204.116 119.99,204.097 119.878,204.169 133.126,212.874 	"/>
	<polygon fill="#D353B8" points="146.524,204.085 146.478,204.054 146.477,204.116 	"/>
	<path fill="#9280E8" d="M153.111,199.758c-1.929-2.01-4.137-3.612-6.536-4.701l-0.003,8.998L153.111,199.758z"/>
	<polygon fill="#9280E8" points="136.181,193.433 133.272,193.433 133.272,195.315 	"/>
	<path fill="#8680BD" d="M133.272,195.377l13.206,8.678l0.046,0.03l0.02,0.013l0.028,0.019v-0.039v-0.022l0.003-8.998
		c-2.31-1.048-4.796-1.623-7.385-1.623h-3.009l-2.909,1.882V195.377z M141.178,193.924c1.753,0,1.753,3.279,0,3.279
		S139.425,193.924,141.178,193.924z"/>
	<path fill="#6B68B5" d="M127.173,194.133c0.367-0.106,0.738-0.201,1.113-0.283C127.911,193.932,127.541,194.027,127.173,194.133z"
		/>
	<path fill="#6B68B5" d="M133.151,195.426l-2.84-1.866l-1.607,2.943v-0.002l-2.701-1.987c-2.146,0.78-4.159,1.96-5.981,3.478
		l-0.002,6.063L133.151,195.426z"/>
	<path fill="#6B68B5" d="M126.03,194.504c0.356-0.129,0.716-0.246,1.079-0.353C126.745,194.258,126.385,194.375,126.03,194.504z"/>
	<path fill="#6B68B5" d="M128.32,193.843c0.322-0.07,0.646-0.131,0.973-0.183C128.966,193.712,128.641,193.773,128.32,193.843z"/>
	<path fill="#6B68B5" d="M130.269,193.532c-0.317,0.032-0.631,0.073-0.945,0.123C129.637,193.606,129.953,193.566,130.269,193.532
		L130.269,193.532z"/>
	<polygon fill="#D353B8" points="119.926,204.116 119.972,204.085 119.926,204.054 	"/>
	<path fill="#105CA0" d="M119.972,204.085l0.019,0.013l0.028,0.019v-0.039v-0.022l0.002-6.063c-1.308,1.088-2.516,2.349-3.607,3.755
		l3.513,2.308L119.972,204.085z"/>
	<path fill="#6B68B5" d="M133.151,195.426l0.052,0.033l0.02,0.015l0.031,0.02l0.019,0.013v-0.06v-0.069v-0.062v-1.882h-1.228
		c-0.578,0-1.148,0.037-1.715,0.093l-0.018,0.033L133.151,195.426z"/>
	<path fill="#6B68B5" d="M130.293,193.53c-0.008,0-0.016,0.001-0.023,0.002l0.001,0.001
		C130.278,193.532,130.285,193.531,130.293,193.53z"/>
	<path fill="#A50E9E" d="M110.793,267.585c1.242,2.723,4.392,4.799,8.542,6.23l0.47-0.309L110.793,267.585z"/>
	<polygon fill="#A50E9E" points="119.878,256.264 110.212,249.774 110.212,262.498 119.928,256.298 	"/>
	<path fill="#A50E9E" d="M119.865,273.546l0.061,0.04v-0.079v-0.05v-0.061l0.002-17.099l-9.716,6.2v2.423
		c0,0.948,0.203,1.836,0.581,2.664l9.012,5.922L119.865,273.546z"/>
	<path fill="#2661B5" d="M110.629,215.493c-0.271,1.713-0.417,3.481-0.417,5.291v7.042l9.593-6.303L110.629,215.493z"/>
	<path fill="#2661B5" d="M119.928,204.316l-0.05-0.033l-3.57-2.398c-0.042,0.055-0.084,0.11-0.125,0.165l0.873,4.099
		L119.928,204.316z"/>
	<path fill="#2661B5" d="M113.001,207.462c0.147-0.325,0.295-0.649,0.452-0.965C113.297,206.813,113.148,207.136,113.001,207.462z"
		/>
	<path fill="#2661B5" d="M112.859,207.771c-0.202,0.464-0.391,0.939-0.572,1.42l2.524-1.61L112.859,207.771z"/>
	<path fill="#2661B5" d="M115.67,206.256l-1.55-1.023c0.62-1.116,1.303-2.173,2.046-3.161c-1.001,1.332-1.898,2.786-2.673,4.346
		c0.201-0.402,0.409-0.798,0.625-1.186L115.67,206.256z"/>
	<path fill="#2661B5" d="M119.865,221.563l0.061,0.04v-0.08v-0.049v-0.062l0.002-17.096l-2.873,1.833l0.253,1.189l-0.001-0.001
		l-2.497,0.243l-2.524,1.61c-0.747,1.984-1.31,4.096-1.659,6.302l9.176,6.03L119.865,221.563z"/>
	<path fill="#FFDDA5" d="M158.034,214.584c0.523,0,0.727-0.582,0.626-1.052c-0.068-0.319-0.272-0.588-0.626-0.588
		c-0.635,0-0.803,0.854-0.519,1.329C157.624,214.453,157.792,214.584,158.034,214.584z"/>
	<path fill="#FFDDA5" d="M152.597,241.144c1.753,0,1.753-3.278,0-3.278C150.843,237.866,150.843,241.144,152.597,241.144z"/>
	<path fill="#FFDDA5" d="M141.178,197.203c1.753,0,1.753-3.279,0-3.279S139.425,197.203,141.178,197.203z"/>
	<path fill="#FFDDA5" d="M124.321,215.566c-1.627,0-1.741,2.823-0.348,3.228c0.108,0.031,0.222,0.052,0.348,0.052
		c0.674,0,1.087-0.485,1.243-1.081C125.814,216.81,125.401,215.567,124.321,215.566z"/>
	<path fill="#FFDDA5" d="M138.459,213.764c-0.877,0-0.877,1.638,0,1.638S139.336,213.764,138.459,213.764z"/>
	<path fill="#FFDDA5" d="M131.934,235.406c-0.877,0-0.877,1.64,0,1.64C132.81,237.046,132.81,235.406,131.934,235.406z"/>
	<path fill="#FFDDA5" d="M141.178,238.029c-0.877,0-0.877,1.641,0,1.641C142.054,239.67,142.054,238.029,141.178,238.029z"/>
	<path fill="#FFDDA5" d="M124.321,271.972c-1.451-0.001-1.697,2.24-0.746,3.015c0.354,0.077,0.711,0.15,1.072,0.22
		C126.066,274.827,125.959,271.972,124.321,271.972z"/>
	<path fill="#FFDDA5" d="M160.753,236.388c0.103,0,0.191-0.026,0.27-0.066v-1.507c-0.079-0.04-0.167-0.066-0.27-0.066
		C159.876,234.749,159.876,236.388,160.753,236.388z"/>
	<path fill="#CE0586" d="M128.334,275.778c0.601,0.072,1.208,0.134,1.816,0.187l-1.446-2.651L128.334,275.778z"/>
	
		<linearGradient id="SVGID_1_" gradientUnits="userSpaceOnUse" x1="125.6252" y1="221.3606" x2="133.7117" y2="229.451" gradientTransform="matrix(1 0 0 -1 -0.0552 499.8589)">
		<stop  offset="0" style="stop-color:#E67F76"/>
		<stop  offset="1" style="stop-color:#F2DCB8"/>
	</linearGradient>
	<path fill="url(#SVGID_1_)" d="M128.334,275.778c0.601,0.072,1.208,0.134,1.816,0.187l-1.446-2.651L128.334,275.778z"/>
	<path fill="#FF3573" d="M139.146,274.032l-3.311,1.903l-0.46,0.266c0.006,0,0.012,0,0.018,0c0.49,0.002,0.98-0.001,1.471-0.011
		c0.014,0,0.029-0.001,0.043-0.001c0.856-0.021,1.71-0.054,2.559-0.104L139.146,274.032z"/>
	
		<linearGradient id="SVGID_2_" gradientUnits="userSpaceOnUse" x1="130.6785" y1="216.9148" x2="147.6257" y2="233.8705" gradientTransform="matrix(1 0 0 -1 -0.0552 499.8589)">
		<stop  offset="0" style="stop-color:#E67F76"/>
		<stop  offset="1" style="stop-color:#F2DCB8"/>
	</linearGradient>
	<path fill="url(#SVGID_2_)" d="M139.146,274.032l-3.311,1.903l-0.46,0.266c0.006,0,0.012,0,0.018,0
		c0.49,0.002,0.98-0.001,1.471-0.011c0.014,0,0.029-0.001,0.043-0.001c0.856-0.021,1.71-0.054,2.559-0.104L139.146,274.032z"/>
	<path fill="#2661B5" d="M117.308,207.338L117.308,207.338l-0.252-1.188l-0.873-4.099c-0.005,0.007-0.011,0.014-0.016,0.021
		c-0.743,0.988-1.426,2.045-2.046,3.161l1.55,1.023l-1.552-1.024c-0.216,0.387-0.424,0.784-0.625,1.186
		c-0.013,0.027-0.027,0.053-0.041,0.08c-0.157,0.316-0.304,0.641-0.452,0.965c-0.046,0.104-0.097,0.205-0.142,0.31l1.952-0.19
		L117.308,207.338z"/>
	
		<linearGradient id="SVGID_3_" gradientUnits="userSpaceOnUse" x1="104.5642" y1="282.9216" x2="130.3821" y2="308.7524" gradientTransform="matrix(1 0 0 -1 -0.0552 499.8589)">
		<stop  offset="0" style="stop-color:#E67F76"/>
		<stop  offset="1" style="stop-color:#F2DCB8"/>
	</linearGradient>
	<path fill="url(#SVGID_3_)" d="M117.308,207.338L117.308,207.338l-0.252-1.188l-0.873-4.099c-0.005,0.007-0.011,0.014-0.016,0.021
		c-0.743,0.988-1.426,2.045-2.046,3.161l1.55,1.023l-1.552-1.024c-0.216,0.387-0.424,0.784-0.625,1.186
		c-0.013,0.027-0.027,0.053-0.041,0.08c-0.157,0.316-0.304,0.641-0.452,0.965c-0.046,0.104-0.097,0.205-0.142,0.31l1.952-0.19
		L117.308,207.338z"/>
	<path fill="#6B68B5" d="M128.703,196.503l1.607-2.943l0.018-0.033c-0.012,0.001-0.024,0.002-0.036,0.003
		c-0.007,0-0.015,0.002-0.022,0.003c-0.317,0.033-0.633,0.073-0.946,0.122c-0.011,0.001-0.021,0.003-0.032,0.005
		c-0.327,0.052-0.65,0.112-0.973,0.183c-0.011,0.002-0.022,0.005-0.034,0.008c-0.375,0.082-0.746,0.177-1.113,0.283
		c-0.021,0.006-0.043,0.012-0.064,0.019c-0.363,0.106-0.723,0.224-1.079,0.353c-0.009,0.003-0.019,0.006-0.027,0.01l2.701,1.987
		V196.503z"/>
	
		<linearGradient id="SVGID_4_" gradientUnits="userSpaceOnUse" x1="122.0876" y1="299.0281" x2="137.2516" y2="314.1997" gradientTransform="matrix(1 0 0 -1 -0.0552 499.8589)">
		<stop  offset="0" style="stop-color:#E67F76"/>
		<stop  offset="1" style="stop-color:#F2DCB8"/>
	</linearGradient>
	<path fill="url(#SVGID_4_)" d="M128.703,196.503l1.607-2.943l0.018-0.033c-0.012,0.001-0.024,0.002-0.036,0.003
		c-0.007,0-0.015,0.002-0.022,0.003c-0.317,0.033-0.633,0.073-0.946,0.122c-0.011,0.001-0.021,0.003-0.032,0.005
		c-0.327,0.052-0.65,0.112-0.973,0.183c-0.011,0.002-0.022,0.005-0.034,0.008c-0.375,0.082-0.746,0.177-1.113,0.283
		c-0.021,0.006-0.043,0.012-0.064,0.019c-0.363,0.106-0.723,0.224-1.079,0.353c-0.009,0.003-0.019,0.006-0.027,0.01l2.701,1.987
		V196.503z"/>
	<polygon fill="#FFAE71" points="159.779,263.859 159.953,264.643 161.024,263.961 161.024,258.656 159.787,258.608 	"/>
	
		<linearGradient id="SVGID_5_" gradientUnits="userSpaceOnUse" x1="148.6692" y1="226.7766" x2="174.7551" y2="252.8755" gradientTransform="matrix(1 0 0 -1 -0.0552 499.8589)">
		<stop  offset="0" style="stop-color:#E67F76"/>
		<stop  offset="1" style="stop-color:#F2DCB8"/>
	</linearGradient>
	<polygon fill="url(#SVGID_5_)" points="159.779,263.859 159.953,264.643 161.024,263.961 161.024,258.656 159.787,258.608 	"/>
	<path fill="#FF7761" d="M160.044,265.052l0.505,2.268c0.001-0.003,0.002-0.007,0.004-0.01c0.073-0.183,0.139-0.368,0.196-0.556
		c0.003-0.01,0.005-0.021,0.008-0.03c0.054-0.181,0.101-0.363,0.139-0.55c0.01-0.053,0.017-0.106,0.026-0.159
		c0.021-0.116,0.039-0.233,0.053-0.352c0.004-0.032,0.011-0.063,0.015-0.096c0.021-0.213,0.034-0.429,0.034-0.647v-0.96l-1.07,0.683
		L160.044,265.052z"/>
	
		<linearGradient id="SVGID_6_" gradientUnits="userSpaceOnUse" x1="150.9407" y1="224.5066" x2="177.0266" y2="250.6055" gradientTransform="matrix(1 0 0 -1 -0.0552 499.8589)">
		<stop  offset="0" style="stop-color:#E67F76"/>
		<stop  offset="1" style="stop-color:#F2DCB8"/>
	</linearGradient>
	<path fill="url(#SVGID_6_)" d="M160.044,265.052l0.505,2.268c0.001-0.003,0.002-0.007,0.004-0.01
		c0.073-0.183,0.139-0.368,0.196-0.556c0.003-0.01,0.005-0.021,0.008-0.03c0.054-0.181,0.101-0.363,0.139-0.55
		c0.01-0.053,0.017-0.106,0.026-0.159c0.021-0.116,0.039-0.233,0.053-0.352c0.004-0.032,0.011-0.063,0.015-0.096
		c0.021-0.213,0.034-0.429,0.034-0.647v-0.96l-1.07,0.683L160.044,265.052z"/>
	<polygon fill="#FF905B" points="159.445,262.355 159.779,263.859 159.787,258.608 155.142,258.43 	"/>
	
		<linearGradient id="SVGID_7_" gradientUnits="userSpaceOnUse" x1="147.1262" y1="228.3191" x2="173.2121" y2="254.418" gradientTransform="matrix(1 0 0 -1 -0.0552 499.8589)">
		<stop  offset="0" style="stop-color:#E67F76"/>
		<stop  offset="1" style="stop-color:#F2DCB8"/>
	</linearGradient>
	<polygon fill="url(#SVGID_7_)" points="159.445,262.355 159.779,263.859 159.787,258.608 155.142,258.43 	"/>
	<path fill="#FF7761" d="M159.782,267.699l-1.489-0.537l1.489,0.855l0.334,0.192c0.001-0.002,0.002-0.003,0.003-0.005
		c0.06-0.104,0.112-0.216,0.17-0.323L159.782,267.699z"/>
	
		<linearGradient id="SVGID_8_" gradientUnits="userSpaceOnUse" x1="157.8303" y1="230.7419" x2="161.4716" y2="234.385" gradientTransform="matrix(1 0 0 -1 -0.0552 499.8589)">
		<stop  offset="0" style="stop-color:#E67F76"/>
		<stop  offset="1" style="stop-color:#F2DCB8"/>
	</linearGradient>
	<path fill="url(#SVGID_8_)" d="M159.782,267.699l-1.489-0.537l1.489,0.855l0.334,0.192c0.001-0.002,0.002-0.003,0.003-0.005
		c0.06-0.104,0.112-0.216,0.17-0.323L159.782,267.699z"/>
	<path fill="#A50E9E" d="M142.918,275.766c0.038-0.005,0.075-0.009,0.112-0.014l3.387-2.207l-0.061-0.039L142.918,275.766z"/>
	
		<linearGradient id="SVGID_9_" gradientUnits="userSpaceOnUse" x1="113.8064" y1="194.2703" x2="195.1989" y2="275.7033" gradientTransform="matrix(1 0 0 -1 -0.0552 499.8589)">
		<stop  offset="0" style="stop-color:#E67F76"/>
		<stop  offset="1" style="stop-color:#F2DCB8"/>
	</linearGradient>
	<path fill="url(#SVGID_9_)" d="M142.918,275.766c0.038-0.005,0.075-0.009,0.112-0.014l3.387-2.207l-0.061-0.039L142.918,275.766z"
		/>
	<polygon fill="#A50E9E" points="146.477,273.507 146.515,273.482 146.477,273.457 	"/>
	
		<linearGradient id="SVGID_10_" gradientUnits="userSpaceOnUse" x1="114.1282" y1="193.949" x2="195.5207" y2="275.382" gradientTransform="matrix(1 0 0 -1 -0.0552 499.8589)">
		<stop  offset="0" style="stop-color:#E67F76"/>
		<stop  offset="1" style="stop-color:#F2DCB8"/>
	</linearGradient>
	<polygon fill="url(#SVGID_10_)" points="146.477,273.507 146.515,273.482 146.477,273.457 	"/>
	<path fill="#FF3573" d="M146.602,273.54l-0.003,0.007l-0.123,0.23l-0.407,1.53c0.179-0.032,0.351-0.072,0.528-0.106
		c0.361-0.069,0.723-0.139,1.076-0.216c0.063-0.014,0.127-0.027,0.19-0.042c0.217-0.048,0.426-0.104,0.64-0.154L146.602,273.54z"/>
	
		<linearGradient id="SVGID_11_" gradientUnits="userSpaceOnUse" x1="115.0032" y1="193.074" x2="196.3957" y2="274.507" gradientTransform="matrix(1 0 0 -1 -0.0552 499.8589)">
		<stop  offset="0" style="stop-color:#E67F76"/>
		<stop  offset="1" style="stop-color:#F2DCB8"/>
	</linearGradient>
	<path fill="url(#SVGID_11_)" d="M146.602,273.54l-0.003,0.007l-0.123,0.23l-0.407,1.53c0.179-0.032,0.351-0.072,0.528-0.106
		c0.361-0.069,0.723-0.139,1.076-0.216c0.063-0.014,0.127-0.027,0.19-0.042c0.217-0.048,0.426-0.104,0.64-0.154L146.602,273.54z"/>
	<path fill="#FF3573" d="M146.475,273.778L146.475,273.778l0.124-0.231l0.003-0.007l-0.003-0.002l-0.084-0.056l-0.038,0.024v0.079
		l-0.06-0.04l-3.387,2.207c0.292-0.035,0.588-0.062,0.876-0.103c0.005,0,0.01-0.001,0.016-0.002c0.727-0.1,1.443-0.214,2.146-0.341
		L146.475,273.778z"/>
	
		<linearGradient id="SVGID_12_" gradientUnits="userSpaceOnUse" x1="114.1838" y1="193.8933" x2="195.5764" y2="275.3264" gradientTransform="matrix(1 0 0 -1 -0.0552 499.8589)">
		<stop  offset="0" style="stop-color:#E67F76"/>
		<stop  offset="1" style="stop-color:#F2DCB8"/>
	</linearGradient>
	<path fill="url(#SVGID_12_)" d="M146.475,273.778L146.475,273.778l0.124-0.231l0.003-0.007l-0.003-0.002l-0.084-0.056l-0.038,0.024
		v0.079l-0.06-0.04l-3.387,2.207c0.292-0.035,0.588-0.062,0.876-0.103c0.005,0,0.01-0.001,0.016-0.002
		c0.727-0.1,1.443-0.214,2.146-0.341L146.475,273.778z"/>
	<polygon fill="#FF525D" points="151.087,267.164 148.946,268.394 148.423,268.697 146.477,269.816 144.153,271.153 
		143.418,271.575 146.357,273.507 146.417,273.546 146.477,273.586 146.477,273.507 146.477,273.457 146.477,273.396 
		146.785,273.197 149.126,268.808 149.126,268.809 146.785,273.196 150.417,270.847 149.128,268.809 149.132,268.81 
		150.419,270.845 157.138,266.499 154.691,265.09 	"/>
	
		<linearGradient id="SVGID_13_" gradientUnits="userSpaceOnUse" x1="113.8035" y1="194.2732" x2="195.196" y2="275.7062" gradientTransform="matrix(1 0 0 -1 -0.0552 499.8589)">
		<stop  offset="0" style="stop-color:#E67F76"/>
		<stop  offset="1" style="stop-color:#F2DCB8"/>
	</linearGradient>
	<polygon fill="url(#SVGID_13_)" points="151.087,267.164 148.946,268.394 148.423,268.697 146.477,269.816 144.153,271.153 
		143.418,271.575 146.357,273.507 146.417,273.546 146.477,273.586 146.477,273.507 146.477,273.457 146.477,273.396 
		146.785,273.197 149.126,268.808 149.126,268.809 146.785,273.196 150.417,270.847 149.128,268.809 149.132,268.81 
		150.419,270.845 157.138,266.499 154.691,265.09 	"/>
	<path fill="#FF7761" d="M159.557,269.026c0.08-0.104,0.151-0.21,0.225-0.315c0.044-0.063,0.092-0.125,0.134-0.188
		c0.066-0.104,0.138-0.207,0.2-0.312l-0.334-0.191l-1.49-0.854l-1.154-0.665l-6.719,4.347l1.807,2.857
		c0.379-0.136,0.748-0.278,1.109-0.425c0.058-0.023,0.115-0.048,0.172-0.071c0.315-0.131,0.624-0.267,0.923-0.406
		c0.046-0.021,0.093-0.042,0.139-0.064c0.698-0.33,1.353-0.685,1.956-1.063c0.01-0.006,0.019-0.012,0.029-0.019
		c0.298-0.188,0.583-0.382,0.856-0.581c0.008-0.006,0.016-0.012,0.023-0.018C158.277,270.435,158.992,269.759,159.557,269.026z"/>
	
		<linearGradient id="SVGID_14_" gradientUnits="userSpaceOnUse" x1="116.6345" y1="191.4436" x2="198.0271" y2="272.8766" gradientTransform="matrix(1 0 0 -1 -0.0552 499.8589)">
		<stop  offset="0" style="stop-color:#E67F76"/>
		<stop  offset="1" style="stop-color:#F2DCB8"/>
	</linearGradient>
	<path fill="url(#SVGID_14_)" d="M159.557,269.026c0.08-0.104,0.151-0.21,0.225-0.315c0.044-0.063,0.092-0.125,0.134-0.188
		c0.066-0.104,0.138-0.207,0.2-0.312l-0.334-0.191l-1.49-0.854l-1.154-0.665l-6.719,4.347l1.807,2.857
		c0.379-0.136,0.748-0.278,1.109-0.425c0.058-0.023,0.115-0.048,0.172-0.071c0.315-0.131,0.624-0.267,0.923-0.406
		c0.046-0.021,0.093-0.042,0.139-0.064c0.698-0.33,1.353-0.685,1.956-1.063c0.01-0.006,0.019-0.012,0.029-0.019
		c0.298-0.188,0.583-0.382,0.856-0.581c0.008-0.006,0.016-0.012,0.023-0.018C158.277,270.435,158.992,269.759,159.557,269.026z"/>
	<path fill="#FF7761" d="M146.785,273.196l-0.183,0.344l1.9,1.249c0.314-0.076,0.633-0.147,0.939-0.229
		c0.452-0.119,0.892-0.245,1.325-0.377c0.056-0.018,0.113-0.034,0.169-0.052c0.439-0.136,0.869-0.277,1.287-0.427
		c0,0,0.001,0,0.001,0l-1.807-2.857L146.785,273.196z"/>
	
		<linearGradient id="SVGID_15_" gradientUnits="userSpaceOnUse" x1="115.6233" y1="192.4543" x2="197.0158" y2="273.8874" gradientTransform="matrix(1 0 0 -1 -0.0552 499.8589)">
		<stop  offset="0" style="stop-color:#E67F76"/>
		<stop  offset="1" style="stop-color:#F2DCB8"/>
	</linearGradient>
	<path fill="url(#SVGID_15_)" d="M146.785,273.196l-0.183,0.344l1.9,1.249c0.314-0.076,0.633-0.147,0.939-0.229
		c0.452-0.119,0.892-0.245,1.325-0.377c0.056-0.018,0.113-0.034,0.169-0.052c0.439-0.136,0.869-0.277,1.287-0.427
		c0,0,0.001,0,0.001,0l-1.807-2.857L146.785,273.196z"/>
	<polygon fill="#FF7761" points="146.477,273.396 146.477,273.457 146.515,273.482 146.599,273.538 146.602,273.54 146.785,273.197 
			"/>
	
		<linearGradient id="SVGID_16_" gradientUnits="userSpaceOnUse" x1="114.1487" y1="193.928" x2="195.5412" y2="275.361" gradientTransform="matrix(1 0 0 -1 -0.0552 499.8589)">
		<stop  offset="0" style="stop-color:#E67F76"/>
		<stop  offset="1" style="stop-color:#F2DCB8"/>
	</linearGradient>
	<polygon fill="url(#SVGID_16_)" points="146.477,273.396 146.477,273.457 146.515,273.482 146.599,273.538 146.602,273.54 
		146.785,273.197 	"/>
	<path fill="#FF3573" d="M143.418,271.575l-2.14,1.23l-2.132,1.227l0.319,2.053c0.747-0.045,1.489-0.103,2.225-0.175
		c0.414-0.04,0.818-0.095,1.227-0.144l3.439-2.26L143.418,271.575z"/>
	
		<linearGradient id="SVGID_17_" gradientUnits="userSpaceOnUse" x1="112.4045" y1="195.6716" x2="193.7971" y2="277.1047" gradientTransform="matrix(1 0 0 -1 -0.0552 499.8589)">
		<stop  offset="0" style="stop-color:#E67F76"/>
		<stop  offset="1" style="stop-color:#F2DCB8"/>
	</linearGradient>
	<path fill="url(#SVGID_17_)" d="M143.418,271.575l-2.14,1.23l-2.132,1.227l0.319,2.053c0.747-0.045,1.489-0.103,2.225-0.175
		c0.414-0.04,0.818-0.095,1.227-0.144l3.439-2.26L143.418,271.575z"/>
</g>
</svg>
