<?xml version="1.0" encoding="utf-8"?>
<!-- Generator: Adobe Illustrator 16.0.1, SVG Export Plug-In . SVG Version: 6.00 Build 0)  -->
<!DOCTYPE svg PUBLIC "-//W3C//DTD SVG 1.1//EN" "http://www.w3.org/Graphics/SVG/1.1/DTD/svg11.dtd">
<svg version="1.1" id="content" xmlns="http://www.w3.org/2000/svg" xmlns:xlink="http://www.w3.org/1999/xlink" x="0px" y="0px"
	 width="500px" height="500px" viewBox="0 0 500 500" enable-background="new 0 0 500 500" xml:space="preserve">
<rect id="position" x="0" display="none" fill="none" stroke="#000000" width="500" height="500"/>
<g id="bounds" display="none">
	<rect x="0.2" y="80.2" display="inline" fill="none" stroke="#EAEAEA" stroke-miterlimit="10" width="499.491" height="499.5"/>
</g>
<path display="none" fill="#1D1D1B" d="M179.2,273.768c-31.282,3.606-63.491,9.662-90.295,17.019
	c2.498,0.387,5.044,0.737,7.625,1.075c42.961-10.814,87.029-15.615,87.029-15.615S190.507,273.096,179.2,273.768z M24.073,268.497
	c0.671,0.532,1.381,1.058,2.104,1.58c74.05-10.993,138.317-9.017,138.317-9.017s11.941-2.227,2.834-3.115
	C125.687,256.977,71.38,260.768,24.073,268.497z M156.043,268.104c-34.294,1.75-72.922,6.438-107.037,13.111
	c1.583,0.557,3.215,1.094,4.893,1.624c53.684-9.628,103.082-11.836,103.082-11.836S166.73,268.186,156.043,268.104z"/>
<path display="none" fill="#1D1D1B" d="M305.082,276.244c0,0,44.068,4.801,87.026,15.617c2.581-0.34,5.127-0.69,7.624-1.077
	c-26.805-7.354-59.013-13.41-90.292-17.019C298.132,273.096,305.082,276.244,305.082,276.244z M321.313,257.945
	c-9.109,0.891,2.836,3.115,2.836,3.115s64.27-1.979,138.317,9.017c0.722-0.522,1.433-1.048,2.103-1.58
	C417.265,260.768,362.956,256.977,321.313,257.945z M331.662,271.004c0,0,49.397,2.208,103.08,11.836
	c1.678-0.529,3.312-1.068,4.893-1.624c-34.115-6.674-72.742-11.36-107.037-13.11C321.913,268.186,331.662,271.004,331.662,271.004z"
	/>
<path fill="#332B27" d="M319.842,388.437c0,0,0.044,0.011,0.122,0H319.842z"/>
<path fill="#332B27" d="M148.881,367.062c0,0,0.043,0.011,0.123,0H148.881z"/>
<path fill="#BD9888" d="M110.71,327.556c0,0,21.779-3.172,30.249-14.044c8.472-10.871,17.546-11.389,17.546-22.777
	c0-11.39-3.632-16.585,7.257-61.096c-3.021-13.968-7.863-59.228-4.838-101.827c-1.21-5.843,9.075-71.67,82.882-73.741
	c19.361-0.518,79.252,1.929,93.774,69.857c4.232,20.302-4.237,87.729-4.842,95.172c-0.605,7.441,6.654,25.09,8.47,31.278
	c1.814,6.188,8.47,23.792,4.235,36.214c4.234,0.518,8.47,7.767,8.47,11.391c0-3.787,12.322,20.052,32.893,24.017
	c6.654,3.448-2.166,5.19-2.166,5.19s-10.156,3.925-14.997,22.56c-4.841,18.638-29.039,58.872-63.523,72.404
	c-34.484,13.533-73.202,16.638-119.785-7.691c-10.891-9.318-33.88-15.531-53.845-64.713
	C128.256,334.737,122.205,327.731,110.71,327.556z"/>
<path opacity="0.16" fill="#A07D6F" d="M307.779,117.376c19.569,15.552,18.4,42.577,18.4,63.919c0,14.452-2.127,25.904-7.202,39.621
	c-3.156,8.535-9.418,15.578-13.932,23.584c-4.395,7.795-8.277,15.729-14.6,22.371c-2.414,2.538-4.812,5.325-7.645,7.542
	c8.108,4.342,18.214-6.008,22.229-10.965c0.924,3.982-4.897,10.95-8.6,13.383c5.313,0.82,13.578-8.271,17.203-11.559
	c1.291,5.94-5.874,14.398-10.035,18.988c-6.217,6.856-15.425,12.369-23.247,17.965c-15.545,11.122-34.967,20.736-55.06,23.908
	c-16.871,2.665-38.016,3.454-54.357-0.845c-9.186-2.419-23.433-4.143-27.651-12.874c7.993-1.053,16.523,5.353,24.188,6.761
	c9.453,1.737,18.912,1.507,28.717,1.507c-5.32,0.938-10.444-5.135-14.917-7.331c28.692-1.724,58.448-13.421,81.194-27.911
	c-22.84,0.651-47.962,3.639-70.514-0.396c-14.907-2.669-27.207-8.579-31.432-21.615c7.378,2.119,11.842,7.854,19.816,9.613
	c-4.057-2.351-9.775-13.23-9.806-17.599c0.587,0.227,1.819,0.261,2.542,0.586c-0.313-2.854-1.857-5.325-2.15-8.021
	c20.898,10.834,47.58,22.388,72,21.267c-15.845-0.048-31.081-7.525-43.941-14.727c-13.889-7.78-16.735-20.624-21.721-33.432
	c-4.903-12.596-7.57-26.231-8.03-39.796c-0.394-11.667-1.612-24.727,0.542-36.174c3.282-17.436,13.627-37.3,27.232-50.497
	c10.77-10.448,24.903-13.429,40.889-13.399c14.538,0.029,27.672,0.189,41.077,4.619c13.456,4.447,20.892,11.926,29.109,21.931
	c4.045,4.926,7.541,10.139,10.104,15.698c2.632,5.708,3.146,11.373,5.291,17.031"/>
<path opacity="0.16" fill="#A07D6F" d="M137.449,314.873c0.187,25.218,30.345,43.434,55.815,51.19
	c-11.813,1.773-21.032-8.3-32.028-8.605c1.319,4.791,16.321,9.19,21.478,10.961c8.732,2.999,17.929,3.711,27.113,4.772
	c19.255,2.224,43.635,2.073,62.148-2.55c24.797-6.191,47.187-16.261,67.079-30.378c7.875-5.589,16.712-10.674,25.171-15.633
	c6.725-3.941,10.438-3.986,18.163-4.432c-4.846-6.128-25.312,1.998-31.041,2.036c0.872-4.886,9.12-9.237,14.311-10.84
	c-7.181,0.306-9.587-0.175-15.918,3.224c-5.716,3.068-11.96,5.081-17.949,7.68c-10.665,4.627-20.523,9.984-30.003,16.252
	c-23.566,15.583-57.52,14.799-86.104,14.799c11.135-0.887,23.723,0.464,35.049,0.498c-5.423-0.07-11.329,2.732-17.244,2.953
	c-5.409,0.202-11.68,0.499-16.937-0.493c-11.083-2.094-22.198-8.049-32.229-12.367c21.107-0.057,41.763,3.881,62.809-0.978
	c21.962-5.071,42.829-11.51,62.72-20.305c0.616,3.906-4.401,9.901-6.769,13.289c10.919-10.012,26.225-11.452,32.188-25.883
	c4.609-11.152,7.932-23.674,7.976-35.723c1.026,4.062-6.407,13.361-9.598,17.317c-4.599,5.707-10.458,10.999-16.921,15.07
	c-16.365,10.313-36.561,19.418-56.043,24.201c-19.041,4.677-39.383,5.459-59.117,5.647c-8.269,0.079-16.501,0.487-24.825,0.493
	c-9.64,0.007-15.877-2.921-23.625-7.311c2.623,3.41,6.791,8.78,10.55,11.302c-7.18,2.406-20.042-5.622-25.401-9.926
	c-5.364-4.308-6.021-10.368-5.229-16.189c1.589-0.147,2.905-0.883,4.41-1.061"/>
<path opacity="0.37" fill="#967164" d="M262.007,268.471c-6.9,3.979-14.421,6.323-23.406,7.205l-0.01-0.04
	c-1.408-0.06-2.928-0.166-4.536-0.323c1.618-0.155,3.235-0.351,4.688-0.729c4.507-1.171,8.9-2.435,13.282-3.82
	c2.43-0.593,4.952-1.418,7.47-2.35c1.578-0.386,3.083-0.769,4.52-1.149C263.355,267.677,262.685,268.08,262.007,268.471z
	 M276.776,261.668c0.913-0.509,1.786-1.049,2.607-1.629c6.271-2.879,12.167-6.545,16.976-10.519
	C292.393,254.076,283.04,258.989,276.776,261.668z M277.385,259.368c0.031-0.024,0.062-0.049,0.094-0.075
	c0.68-0.533,1.367-1.071,2.06-1.611c0.29-0.12,0.575-0.241,0.86-0.364c-0.594,0.552-1.24,1.071-1.929,1.564
	C278.109,259.046,277.747,259.21,277.385,259.368z M283.2,256.533c0.212-0.259,0.417-0.525,0.618-0.796
	c3.065-1.512,5.973-3.214,8.704-5.096C289.673,252.756,286.524,254.746,283.2,256.533z M298.32,244.121
	c-3.798,3.504-8.096,6.552-12.816,9.119c0.019-0.028,0.035-0.056,0.054-0.084c1.588-1.145,3.209-2.289,4.841-3.441
	c2.823-1.997,5.673-4.007,8.45-6.081L298.32,244.121z M301.065,242.91c-0.435,0.5-0.892,0.998-1.369,1.495l-0.335-1.154
	c1.306-0.98,2.591-1.975,3.852-2.988C302.531,241.166,301.815,242.049,301.065,242.91z M318.865,149.598l-0.369-2.607
	c-1.662-11.829-3.231-23.002-8.742-34.008c-1.788-3.576-6.396-12.168-12.433-18.903c4.368,2.94,8.125,6.285,11.391,10.75
	c11.788,16.114,18.278,36.588,18.278,57.649v1.363c0.006,19.351,0.011,39.36-8.599,56.785c-2.048,4.146-4.895,7.889-8.231,11.353
	c3.46-6.825,5.821-14.189,7.944-21.352c0.809-2.721,1.715-5.415,2.59-8.021c2.568-7.636,4.994-14.848,5.238-22.965l-1.597-0.192
	c-2.528,8.332-5.07,15.485-7.834,21.978C320.775,185.944,321.572,168.63,318.865,149.598z M304.184,230.597
	c1.746-2.746,2.999-5.71,4.215-8.579c0.288-0.681,0.579-1.368,0.877-2.056c0.796-1.541,1.548-3.102,2.258-4.688
	c4.46-8.094,8.196-16.743,11.766-27.316c-0.982,4.797-2.544,9.444-4.163,14.263c-0.881,2.615-1.79,5.321-2.604,8.063
	c-2.56,8.627-5.459,17.542-10.22,25.396c-5.177,4.644-11.113,8.839-16.949,12.961c-0.571,0.404-1.141,0.806-1.706,1.207
	c0.37-0.547,0.752-1.079,1.148-1.578c1.94-2.432,4.197-4.77,6.379-7.03C298.397,237.917,301.718,234.477,304.184,230.597z
	 M193.451,242.357c-1.738-2.9-3.317-5.929-4.879-8.924c-1.494-2.869-2.907-5.58-4.427-8.109
	c-3.729-6.211-8.837-14.718-10.352-22.386c-1.225-6.197-1.151-12.698-1.08-18.986c0.017-1.506,0.034-3.007,0.034-4.502v-1.389
	c-0.006-15.969-0.01-31.053,5.782-46.478c4.521-12.052,11.597-27.152,26.287-37.047c4.228-2.847,9.528-5.669,16.214-8.627
	c7.007-3.103,13.17-3.076,20.975-3.042c0.797,0.002,1.607,0.006,2.433,0.006c15.544,0,30.436,0.602,41.774,7.875
	c5.39,3.456,8.426,9.711,11.106,15.232c0.397,0.817,0.785,1.62,1.174,2.396c5.659,11.303,9.085,22.535,10.78,35.35l0.312,2.354
	c1.829,13.736,3.554,26.714,2.109,40.542c-2.371,22.64-8.256,40.271-17.486,52.406l0.638,0.386c-0.304,0.315-0.607,0.63-0.91,0.943
	c-2.206,2.286-4.487,4.648-6.469,7.132c-1.012,1.267-1.901,2.699-2.761,4.081c-0.142,0.232-0.287,0.463-0.433,0.696
	c-0.23,0.164-0.459,0.331-0.688,0.497c-1.683,1.224-3.341,2.491-4.963,3.755c-11.254,4.66-24.393,6.93-38.596,6.507
	c-8.635-0.249-15.005-1.908-22.725-5.913c-3.215-1.666-6.563-4.071-9.801-6.396c-4.551-3.268-9.26-6.648-14.007-8.344
	L193.451,242.357z M216.785,260.275l-0.2-0.114c-0.987-0.57-2.045-1.159-3.148-1.776c-6.658-3.727-14.791-8.278-18.512-13.886
	c3.854,1.771,7.746,4.565,11.531,7.281c3.285,2.359,6.679,4.798,10.002,6.521c7.981,4.14,14.573,5.854,23.514,6.112
	c12.629,0.357,24.446-1.345,34.889-4.95c-0.91,0.71-1.827,1.422-2.753,2.127c-0.806,0.35-1.642,0.714-2.494,1.088
	c-2.554,1.117-5.301,2.319-8.097,3.434c-1.016,0.333-2.005,0.661-2.956,0.991c-0.297,0.104-0.595,0.205-0.889,0.309
	c-3.993,0.955-8.423,1.929-13.327,2.934l-0.013-0.373c-0.938-0.013-1.88-0.004-2.797-0.015
	C232.658,269.421,223.928,264.392,216.785,260.275z M227.713,276.057c0.149-0.031,0.299-0.061,0.451-0.087
	c0.236,0.036,0.47,0.07,0.704,0.104C228.485,276.07,228.101,276.062,227.713,276.057z M240.482,359.235
	c-4.928,0.703-9.959,0.973-14.98,1.065c12.857-0.95,25.434-3.277,37.68-5.543c3.117-0.575,6.236-1.152,9.363-1.708
	c0.685-0.123,1.367-0.237,2.048-0.35C263.99,355.334,252.694,357.497,240.482,359.235z"/>
<g>
	<path fill="#FFFFFF" d="M278.771,256.793c51.965-47.611,37.781-109.55,37.781-109.55c-19.659-70.462-67.208-60.869-67.208-60.869
		c-71.356,4.159-76.551,74.97-71.191,105.621c7.82,44.745,39.063,63.99,39.098,64.009
		C217.251,256.005,243.964,281.297,278.771,256.793z"/>
</g>
<path fill="#302118" d="M175.91,154.537c0,0,10.792-47.59,71.013-47.051c60.223,0.541,70.798,47.679,70.798,47.679
	s-2.187-69.831-71.497-70.914C178.881,86.03,175.91,154.537,175.91,154.537z"/>
</svg>
