<?xml version="1.0" encoding="utf-8"?>
<!-- Generator: Adobe Illustrator 16.0.1, SVG Export Plug-In . SVG Version: 6.00 Build 0)  -->
<!DOCTYPE svg PUBLIC "-//W3C//DTD SVG 1.1//EN" "http://www.w3.org/Graphics/SVG/1.1/DTD/svg11.dtd">
<svg version="1.1" id="Layer_1" xmlns="http://www.w3.org/2000/svg" xmlns:xlink="http://www.w3.org/1999/xlink" x="0px" y="0px"
	 width="500px" height="500px" viewBox="0 0 500 500" enable-background="new 0 0 500 500" xml:space="preserve">
<g id="avatar">
</g>
<path fill="#1D1D1B" d="M216.394,129.848c-16.589,1.914-33.67,5.124-47.884,9.025c1.325,0.206,2.674,0.392,4.043,0.571
	c22.782-5.736,46.153-8.282,46.153-8.282S222.39,129.493,216.394,129.848z M134.128,127.054c0.355,0.282,0.731,0.561,1.116,0.837
	c39.27-5.83,73.352-4.781,73.352-4.781s6.334-1.181,1.503-1.653C188.015,120.944,159.215,122.955,134.128,127.054z M204.113,126.846
	c-18.187,0.928-38.671,3.414-56.763,6.953c0.839,0.295,1.705,0.581,2.595,0.861c28.468-5.105,54.666-6.276,54.666-6.276
	S209.781,126.889,204.113,126.846z"/>
<path fill="#1D1D1B" d="M283.151,131.162c0,0,23.371,2.546,46.152,8.282c1.369-0.18,2.719-0.366,4.043-0.571
	c-14.215-3.901-31.295-7.111-47.883-9.025C279.465,129.493,283.151,131.162,283.151,131.162z M291.758,121.458
	c-4.832,0.472,1.504,1.653,1.504,1.653s34.082-1.049,73.352,4.781c0.383-0.277,0.76-0.555,1.115-0.837
	C342.643,122.955,313.842,120.944,291.758,121.458z M297.246,128.383c0,0,26.197,1.171,54.666,6.276
	c0.889-0.28,1.756-0.566,2.594-0.861c-18.092-3.539-38.576-6.024-56.764-6.953C292.076,126.889,297.246,128.383,297.246,128.383z"/>
</svg>
