<?xml version="1.0" encoding="utf-8"?>
<!-- Generator: Adobe Illustrator 16.0.1, SVG Export Plug-In . SVG Version: 6.00 Build 0)  -->
<!DOCTYPE svg PUBLIC "-//W3C//DTD SVG 1.1//EN" "http://www.w3.org/Graphics/SVG/1.1/DTD/svg11.dtd">
<svg version="1.1" id="content" xmlns="http://www.w3.org/2000/svg" xmlns:xlink="http://www.w3.org/1999/xlink" x="0px" y="0px"
	 width="500px" height="500px" viewBox="0 0 500 500" enable-background="new 0 0 500 500" xml:space="preserve">
<circle fill="#1D1D1B" cx="255.848" cy="319.799" r="52.36"/>
<rect id="position" x="0" display="none" fill="none" stroke="#000000" width="500" height="500"/>
<g id="bounds" display="none">
	<rect x="0.2" y="80.2" display="inline" fill="none" stroke="#EAEAEA" stroke-miterlimit="10" width="499.493" height="499.5"/>
</g>
<path display="none" fill="#1D1D1B" d="M179.2,273.767c-31.282,3.607-63.491,9.662-90.293,17.018
	c2.498,0.387,5.042,0.738,7.625,1.077c42.959-10.816,87.029-15.617,87.029-15.617S190.507,273.096,179.2,273.767z M24.073,268.497
	c0.669,0.533,1.379,1.058,2.104,1.58c74.05-10.993,138.317-9.016,138.317-9.016s11.943-2.226,2.834-3.116
	C125.687,256.976,71.38,260.768,24.073,268.497z M156.043,268.104c-34.294,1.75-72.922,6.438-107.037,13.111
	c1.583,0.556,3.215,1.094,4.893,1.624c53.682-9.628,103.082-11.836,103.082-11.836S166.73,268.186,156.043,268.104z"/>
<path display="none" fill="#1D1D1B" d="M305.082,276.244c0,0,44.07,4.801,87.028,15.617c2.581-0.339,5.127-0.69,7.624-1.077
	c-26.805-7.355-59.013-13.41-90.292-17.018C298.132,273.096,305.082,276.244,305.082,276.244z M321.313,257.945
	c-9.111,0.891,2.836,3.116,2.836,3.116s64.268-1.978,138.317,9.016c0.722-0.522,1.433-1.047,2.103-1.58
	C417.265,260.768,362.956,256.976,321.313,257.945z M331.662,271.004c0,0,49.399,2.208,103.082,11.836
	c1.676-0.53,3.311-1.068,4.891-1.624c-34.115-6.674-72.742-11.361-107.037-13.111C321.913,268.186,331.662,271.004,331.662,271.004z
	"/>
<g>
	<path d="M303.606,198.912c0,0,4.785-65.369,77.066-31.358C380.672,184.563,367.914,241.425,303.606,198.912z"/>
	<path fill="#D0D0D0" d="M375.073,184.863c0.024-0.511,0.079-1.01,0.079-1.528c0-6.662-2.069-12.829-5.585-17.93
		c-34.847-13.527-50.454,0.324-57.379,13.876c-0.17,1.333-0.288,2.678-0.288,4.054c0,8.961,3.75,17.034,9.736,22.791
		C355.604,221.914,369.877,202.145,375.073,184.863z"/>
	<path d="M361.569,180.751c0,12.5-8.221,22.634-18.353,22.634c-10.138,0-18.362-10.134-18.362-22.634
		c0-12.493,8.225-22.626,18.362-22.626C353.348,158.125,361.569,168.258,361.569,180.751z"/>
	<path d="M208.092,198.912c0,0-4.782-65.369-77.063-31.358C131.029,184.563,143.782,241.425,208.092,198.912z"/>
	<path fill="#D0D0D0" d="M136.627,184.863c-0.024-0.511-0.082-1.01-0.082-1.528c0-6.662,2.067-12.829,5.588-17.93
		c34.843-13.527,50.453,0.324,57.378,13.876c0.167,1.333,0.286,2.678,0.286,4.054c0,8.961-3.748,17.034-9.734,22.791
		C156.094,221.914,141.82,202.145,136.627,184.863z"/>
	<path d="M150.129,180.751c0,12.5,8.22,22.634,18.354,22.634c10.139,0,18.359-10.134,18.359-22.634
		c0-12.493-8.22-22.626-18.359-22.626C158.349,158.125,150.129,168.258,150.129,180.751z"/>
	<path fill="#706F6F" d="M255.913,311.415c0,0,10.903,25.381,42.71,25.381c5.692,0,15.26,0,20.949,0
		c16.287,0,42.271-8.466,42.271-40.047c0-35.395-36.228-44.962-57.361-44.962c-27.576,0-48.569,6.89-48.569,19.296
		C255.913,283.495,255.913,311.415,255.913,311.415z"/>
	<path fill="#706F6F" d="M257.15,311.159c0,0-10.911,25.38-42.717,25.38c-5.687,0-15.257,0-20.943,0
		c-16.294,0-42.271-8.465-42.271-40.047c0-35.394,36.221-44.961,57.354-44.961c27.582,0,48.577,6.889,48.577,19.295
		C257.15,283.238,257.15,311.159,257.15,311.159z"/>
	<path fill="#706F6F" d="M255.812,203.385c-15.247,0-27.59,18.199-27.59,31.533c0,13.326,0,27.639,0,27.639l16.175-1.812
		l13.115-0.236l9.716,0.236l16.175,1.812c0,0,0-14.313,0-27.639C283.403,221.583,271.058,203.385,255.812,203.385z"/>
	<linearGradient id="SVGID_1_" gradientUnits="userSpaceOnUse" x1="296.3469" y1="234.4126" x2="231.7742" y2="297.3908">
		<stop  offset="0.0016" style="stop-color:#423E3B"/>
		<stop  offset="0.0298" style="stop-color:#3F3C39"/>
		<stop  offset="0.4405" style="stop-color:#1D1B1A"/>
		<stop  offset="0.7785" style="stop-color:#080707"/>
		<stop  offset="1" style="stop-color:#000000"/>
	</linearGradient>
	<path fill="url(#SVGID_1_)" d="M255.812,251.554c0,0,25.555-1.589,27.591,11.003l-17.365,13.022c0,0,0,3.967,0,7.375
		c0,3.812-4.03,9.385-10.226,9.385C255.812,283.353,255.812,251.554,255.812,251.554z"/>
	<linearGradient id="SVGID_2_" gradientUnits="userSpaceOnUse" x1="260.5627" y1="250.2334" x2="223.8953" y2="302.8432">
		<stop  offset="0.0016" style="stop-color:#423E3B"/>
		<stop  offset="0.0298" style="stop-color:#3F3C39"/>
		<stop  offset="0.4405" style="stop-color:#1D1B1A"/>
		<stop  offset="0.7785" style="stop-color:#080707"/>
		<stop  offset="1" style="stop-color:#000000"/>
	</linearGradient>
	<path fill="url(#SVGID_2_)" d="M255.937,251.554c0,0-25.555-1.589-27.589,11.003l17.362,13.022c0,0,0,3.967,0,7.375
		c0,3.812,4.03,9.385,10.227,9.385C255.937,283.353,255.937,251.554,255.937,251.554z"/>
	<path fill="#F6F6F6" d="M168.775,159.905c-6.744-0.262-14.695,0.903-24.001,3.936c0,0.094-0.024,0.18-0.024,0.268
		c0,6.85,5.554,12.407,12.404,12.407c6.853,0,12.407-5.557,12.407-12.407C169.56,162.625,169.254,161.224,168.775,159.905z"/>
	<path fill="#F6F6F6" d="M316.631,170.85c1.979,4.227,6.241,7.179,11.217,7.179c6.85,0,12.406-5.554,12.406-12.405
		c0-2.092-0.568-4.029-1.477-5.754C328.844,161.046,321.733,165.399,316.631,170.85z"/>
	<path fill="#1D1D1B" d="M322.229,303.581c-4.622-1.085-3.026,3.942-3.026,3.942s30.901,13.95,43.737,47.427
		c0.928-0.063,1.856-0.126,2.778-0.213C359.034,332.316,341.434,312.842,322.229,303.581z M334.789,294.637
		c-4.646,0.111-1.688,4.577-1.688,4.577s41.832,7.287,62.031,46.886c0.428-0.224,0.863-0.436,1.296-0.666
		C386.289,319.227,359.573,299.612,334.789,294.637z M334.405,278.718c-4.305,1.358-0.156,4.859-0.156,4.859
		s47.953-4.953,78.852,36.662C398.01,291.827,362.272,276.617,334.405,278.718z"/>
	<path fill="#1D1D1B" d="M145.986,354.737c0.921,0.087,1.85,0.149,2.779,0.213c12.835-33.477,43.74-47.427,43.74-47.427
		s1.595-5.027-3.027-3.942C170.269,312.842,152.669,332.316,145.986,354.737z M115.275,345.434c0.432,0.23,0.868,0.442,1.296,0.666
		c20.198-39.599,62.031-46.886,62.031-46.886s2.959-4.466-1.687-4.577C152.135,299.612,125.417,319.227,115.275,345.434z
		 M98.604,320.239c30.897-41.615,78.852-36.662,78.852-36.662s4.149-3.501-0.153-4.859
		C149.431,276.617,113.694,291.827,98.604,320.239z"/>
</g>
</svg>
