<?xml version="1.0" encoding="utf-8"?>
<!-- Generator: Adobe Illustrator 16.0.1, SVG Export Plug-In . SVG Version: 6.00 Build 0)  -->
<!DOCTYPE svg PUBLIC "-//W3C//DTD SVG 1.1//EN" "http://www.w3.org/Graphics/SVG/1.1/DTD/svg11.dtd">
<svg version="1.1" id="Layer_1" xmlns="http://www.w3.org/2000/svg" xmlns:xlink="http://www.w3.org/1999/xlink" x="0px" y="0px"
	 width="500px" height="500px" viewBox="0 0 500 500" enable-background="new 0 0 500 500" xml:space="preserve">
<g id="clothes">
</g>
<path display="none" fill="#CAD7D7" d="M251.227,5.982V5.971c-0.098,0-0.19,0.006-0.291,0.006c-0.098,0-0.19-0.006-0.291-0.006
	v0.012c-57.167,0.245-103.41,36.321-103.41,80.807v109.924H252.96h101.662V86.789C354.621,42.303,308.393,6.228,251.227,5.982z
	 M331.764,134.667H173.479V98.992h0.072c1.5-35.169,36.451-63.305,79.375-63.305c43.877,0,79.447,29.396,79.447,65.654
	c0,3.705-0.22,7.191-0.609,10.493V134.667z"/>
<rect x="147.235" y="180" display="none" fill="#A2AEAE" width="207.39" height="16.713"/>
<g>
	<path fill="#182B38" d="M213.719,360.274h-2.352c-13.444,0-24.444,10.999-24.444,24.441v87.294h51.24v-31.978v-4.764v-50.555
		C238.163,371.273,227.163,360.274,213.719,360.274z"/>
</g>
<g>
	<path fill="#8C8315" d="M193.667,435.754h-2v-1.211h2V435.754L193.667,435.754z M193.667,433.33h-2v-1.323h2V433.33L193.667,433.33
		z M193.667,430.685h-2v-1.322h2V430.685L193.667,430.685z M193.667,428.041h-2v-1.323h2V428.041L193.667,428.041z M193.667,425.285
		h-2v-1.322h2V425.285L193.667,425.285z M193.667,422.64h-2v-1.321h2V422.64L193.667,422.64z M193.667,419.996h-2v-1.322h2V419.996
		L193.667,419.996z M193.667,417.241h-2v-1.322h2V417.241L193.667,417.241z M193.667,414.596h-2v-1.323h2V414.596L193.667,414.596z
		 M193.667,411.952h-2v-1.322h2V411.952L193.667,411.952z"/>
	<path fill="#8C8315" d="M193.667,461.65h-2v-1.102h2V461.65L193.667,461.65z M193.667,459.667h-2v-1.322h2V459.667L193.667,459.667
		z M193.667,456.912h-2v-1.322h2V456.912L193.667,456.912z M193.667,454.267h-2v-1.323h2V454.267L193.667,454.267z M193.667,451.623
		h-2v-1.322h2V451.623L193.667,451.623z M193.667,448.868h-2v-1.322h2V448.868L193.667,448.868z M193.667,446.222h-2V444.9h2
		V446.222L193.667,446.222z M193.667,443.578h-2v-1.321h2V443.578L193.667,443.578z M193.667,440.823h-2v-1.321h2V440.823
		L193.667,440.823z M193.667,438.178h-2v-1.322h2V438.178L193.667,438.178z"/>
	<path fill="#8C8315" d="M193.667,472.01h-2v-1.322h2V472.01L193.667,472.01z M193.667,469.364h-2v-1.322h2V469.364L193.667,469.364
		z M193.667,466.719h-2v-1.322h2V466.719L193.667,466.719z M193.667,463.965h-2v-1.322h2V463.965L193.667,463.965z"/>
	<polygon fill="#8C8315" points="193.667,398.838 191.667,398.838 191.667,397.736 193.667,397.736 	"/>
	<polygon fill="#8C8315" points="193.667,396.854 191.667,396.854 191.667,395.532 193.667,395.532 	"/>
	<polygon fill="#8C8315" points="193.667,394.099 191.667,394.099 191.667,392.777 193.667,392.777 	"/>
	<polygon fill="#8C8315" points="193.667,391.455 191.667,391.455 191.667,390.132 193.667,390.132 	"/>
	<polygon fill="#8C8315" points="193.667,388.81 191.667,388.81 191.667,387.377 193.667,387.377 	"/>
	<polygon fill="#8C8315" points="193.667,386.055 191.667,386.055 191.667,384.733 193.667,384.733 	"/>
	<polygon fill="#8C8315" points="193.667,383.41 191.667,383.41 191.667,382.088 193.667,382.088 	"/>
	<polygon fill="#8C8315" points="193.667,380.765 191.667,380.765 191.667,379.333 193.667,379.333 	"/>
	<path fill="#8C8315" d="M193.667,409.197h-2v-1.322h2V409.197L193.667,409.197z M193.667,406.552h-2v-1.322h2V406.552
		L193.667,406.552z M193.667,403.907h-2v-1.322h2V403.907L193.667,403.907z M193.667,401.152h-2v-1.322h2V401.152L193.667,401.152z"
		/>
</g>
</svg>
