<?xml version="1.0" encoding="utf-8"?>
<!-- Generator: Adobe Illustrator 16.0.1, SVG Export Plug-In . SVG Version: 6.00 Build 0)  -->
<!DOCTYPE svg PUBLIC "-//W3C//DTD SVG 1.1//EN" "http://www.w3.org/Graphics/SVG/1.1/DTD/svg11.dtd">
<svg version="1.1" xmlns="http://www.w3.org/2000/svg" xmlns:xlink="http://www.w3.org/1999/xlink" x="0px" y="0px" width="500px"
	 height="500px" viewBox="0 0 500 500" enable-background="new 0 0 500 500" xml:space="preserve">
<g id="avatar">
</g>
<g id="robot">
	<g>
		<path fill="#A5B2B7" d="M213.643,360.274h-2.352c-13.444,0-24.444,10.999-24.444,24.441v87.294h51.24v-31.977v-4.764v-50.555
			C238.087,371.273,227.087,360.274,213.643,360.274z"/>
		<path fill="#A5B2B7" d="M290.1,360.272h-3.041c-13.615,0-24.755,11.141-24.755,24.756v86.671h52.551v-86.671
			C314.855,371.413,303.715,360.272,290.1,360.272z"/>
	</g>
	<g>
		<path fill="#55656B" d="M190.008,433.347h44.662c0.234,0,0.457-0.04,0.672-0.098v-10.028c-0.215-0.058-0.438-0.098-0.672-0.098
			h-44.662V433.347z"/>
	</g>
	<g>
		<path fill="#778488" d="M238.087,427.653c0,1.356-1.132,2.454-2.528,2.454h-46.165c-1.396,0-2.528-1.097-2.528-2.454v-5.314
			c0-1.356,1.132-2.454,2.528-2.454h46.165c1.396,0,2.528,1.097,2.528,2.454V427.653z"/>
	</g>
	<g>
		<path fill="#55656B" d="M266.107,433.347h44.662c0.234,0,0.457-0.04,0.672-0.098v-10.028c-0.215-0.058-0.438-0.098-0.672-0.098
			h-44.662V433.347z"/>
	</g>
	<g>
		<path fill="#778488" d="M314.187,427.653c0,1.356-1.132,2.454-2.528,2.454h-46.165c-1.396,0-2.528-1.097-2.528-2.454v-5.314
			c0-1.356,1.132-2.454,2.528-2.454h46.165c1.396,0,2.528,1.097,2.528,2.454V427.653z"/>
	</g>
</g>
</svg>
