<?xml version="1.0" encoding="utf-8"?>
<!-- Generator: Adobe Illustrator 16.0.1, SVG Export Plug-In . SVG Version: 6.00 Build 0)  -->
<!DOCTYPE svg PUBLIC "-//W3C//DTD SVG 1.1//EN" "http://www.w3.org/Graphics/SVG/1.1/DTD/svg11.dtd">
<svg version="1.1" id="Layer_1" xmlns="http://www.w3.org/2000/svg" xmlns:xlink="http://www.w3.org/1999/xlink" x="0px" y="0px"
	 width="500px" height="500px" viewBox="0 0 500 500" enable-background="new 0 0 500 500" xml:space="preserve">
<g id="avatar">
</g>
<g id="top">
	<g>
		<path fill="#2EB3B3" d="M340.51,442.091c0,0-9.727,12.799-31.183,6.024c-14.112,9.235-35.007,3.814-36.276,1.978
			c-9.021,4.257-15.841,5.749-20.924,5.832c-5.081-0.083-11.901-1.575-20.923-5.832c-1.271,1.837-24.736,8.442-36.278-1.978
			c-21.456,6.774-31.181-6.024-31.181-6.024l15.682-61.757h141.868L340.51,442.091z"/>
	</g>
</g>
<g id="top_1_" opacity="0.6">
	<path fill="#7EC8C9" d="M389.793,428.809c0,0-44.301,10.046-65.757,4.729c-14.112,7.249-49.716,2.994-50.985,1.553
		c-9.021,3.341-15.841,4.512-20.924,4.577c-5.081-0.065-11.901-1.236-20.923-4.577c-1.271,1.441-37.947,6.626-49.489-1.553
		c-21.456,5.317-56.061-4.729-56.061-4.729l53.772-48.475h141.868L389.793,428.809z"/>
</g>
<g>
	<path fill="#FFFFFF" d="M321.882,398.271c1.939,2.029,2.146,1.658,2.085-3.787c0.062,5.445,0.274,5.842,2.18,4.022
		c-1.905,1.819-1.513,2.049,3.924,2.35c-5.437-0.301-5.816-0.105-3.878,1.923c-1.938-2.028-2.146-1.658-2.086,3.789
		c-0.06-5.447-0.278-5.845-2.179-4.021c1.9-1.823,1.511-2.052-3.926-2.351C323.438,400.494,323.821,400.3,321.882,398.271z"/>
	<path fill="#FFFFFF" d="M255.131,418.651c1.939,2.027,2.145,1.661,2.086-3.787c0.059,5.448,0.275,5.843,2.177,4.023
		c-1.901,1.819-1.513,2.05,3.924,2.347c-5.437-0.297-5.815-0.106-3.877,1.926c-1.938-2.032-2.146-1.661-2.089,3.789
		c-0.058-5.45-0.275-5.85-2.175-4.023c1.899-1.826,1.511-2.051-3.922-2.35C256.688,420.875,257.07,420.679,255.131,418.651z"/>
	<path fill="#FFFFFF" d="M226.802,418.651c1.941,2.027,2.146,1.661,2.087-3.787c0.059,5.448,0.272,5.843,2.177,4.023
		c-1.904,1.819-1.512,2.05,3.922,2.347c-5.435-0.297-5.815-0.106-3.878,1.926c-1.937-2.032-2.145-1.661-2.084,3.789
		c-0.061-5.45-0.278-5.85-2.176-4.023c1.898-1.826,1.509-2.051-3.927-2.35C228.358,420.875,228.743,420.679,226.802,418.651z"/>
	<path fill="#FFFFFF" d="M251.766,395.843c0.969,1.016,1.074,0.832,1.042-1.896c0.032,2.728,0.14,2.923,1.091,2.012
		c-0.951,0.911-0.758,1.025,1.963,1.173c-2.721-0.147-2.912-0.048-1.939,0.965c-0.973-1.013-1.076-0.827-1.045,1.896
		c-0.031-2.724-0.138-2.924-1.09-2.011c0.952-0.913,0.757-1.027-1.963-1.179C252.544,396.955,252.734,396.858,251.766,395.843z"/>
	<path fill="#FFFFFF" d="M279.825,413.299c0.968,1.018,1.071,0.832,1.041-1.896c0.03,2.728,0.135,2.923,1.089,2.014
		c-0.954,0.909-0.754,1.027,1.965,1.177c-2.719-0.149-2.911-0.053-1.939,0.962c-0.972-1.015-1.075-0.828-1.045,1.896
		c-0.03-2.724-0.14-2.922-1.088-2.012c0.948-0.91,0.756-1.029-1.966-1.176C280.604,414.41,280.793,414.316,279.825,413.299z"/>
	<path fill="#FFFFFF" d="M179.016,409.673c0.97,1.012,1.075,0.828,1.043-1.896c0.031,2.725,0.137,2.924,1.088,2.014
		c-0.951,0.91-0.754,1.026,1.966,1.175c-2.72-0.148-2.913-0.051-1.94,0.966c-0.972-1.017-1.076-0.831-1.047,1.893
		c-0.029-2.724-0.139-2.924-1.088-2.013c0.95-0.911,0.756-1.026-1.962-1.176C179.794,410.784,179.986,410.685,179.016,409.673z"/>
</g>
</svg>
