<?xml version="1.0" encoding="utf-8"?>
<!-- Generator: Adobe Illustrator 16.0.1, SVG Export Plug-In . SVG Version: 6.00 Build 0)  -->
<!DOCTYPE svg PUBLIC "-//W3C//DTD SVG 1.1//EN" "http://www.w3.org/Graphics/SVG/1.1/DTD/svg11.dtd">
<svg version="1.1" id="Layer_1" xmlns="http://www.w3.org/2000/svg" xmlns:xlink="http://www.w3.org/1999/xlink" x="0px" y="0px"
	 width="500px" height="500px" viewBox="0 0 500 500" enable-background="new 0 0 500 500" xml:space="preserve">
<g>
	<path id="SVGID_1_" fill="#343959" d="M340.51,442.091c0,0-9.727,12.799-31.183,6.024c-14.112,9.234-35.007,3.813-36.276,1.978
		c-9.021,4.257-15.841,5.749-20.924,5.832c-5.081-0.083-11.901-1.575-20.923-5.832c-1.271,1.837-24.736,8.442-36.278-1.978
		c-21.456,6.773-31.181-6.024-31.181-6.024l15.682-61.757h141.868L340.51,442.091z"/>
</g>
<g id="avatar">
</g>
<g>
	<rect x="215.639" y="412.533" fill="none" width="9.809" height="10.106"/>
	<rect x="312.645" y="402.12" fill="none" width="9.81" height="8.413"/>
	<rect x="264.143" y="412.533" fill="none" width="9.809" height="10.106"/>
	<rect x="275.951" y="402.12" fill="none" width="10.441" height="8.413"/>
	<rect x="239.89" y="412.533" fill="none" width="9.809" height="10.106"/>
	<rect x="300.202" y="402.12" fill="none" width="10.442" height="8.413"/>
	<rect x="227.448" y="412.533" fill="none" width="10.442" height="10.106"/>
	<rect x="251.699" y="412.533" fill="none" width="10.443" height="10.106"/>
	<rect x="288.393" y="402.12" fill="none" width="9.81" height="8.413"/>
	<rect x="239.89" y="402.12" fill="none" width="9.809" height="8.413"/>
	<rect x="191.387" y="402.12" fill="none" width="10.121" height="8.413"/>
	<rect x="180.06" y="390.014" fill="none" width="9.327" height="10.106"/>
	<rect x="312.645" y="412.533" fill="none" width="9.81" height="10.106"/>
	<rect x="300.202" y="412.533" fill="none" width="10.442" height="10.106"/>
	<rect x="180.06" y="402.12" fill="none" width="9.327" height="8.413"/>
	<rect x="203.508" y="402.12" fill="none" width="10.131" height="8.413"/>
	<rect x="251.699" y="402.12" fill="none" width="10.443" height="8.413"/>
	<rect x="275.951" y="412.533" fill="none" width="10.441" height="10.106"/>
	<rect x="264.143" y="402.12" fill="none" width="9.809" height="8.413"/>
	<rect x="227.448" y="402.12" fill="none" width="10.442" height="8.413"/>
	<rect x="215.639" y="402.12" fill="none" width="9.809" height="8.413"/>
	<rect x="288.393" y="412.533" fill="none" width="9.81" height="10.106"/>
	<rect x="180.06" y="424.64" fill="none" width="9.327" height="8.979"/>
	<rect x="227.448" y="435.618" fill="none" width="10.442" height="9.54"/>
	<rect x="264.143" y="435.618" fill="none" width="9.809" height="9.54"/>
	<rect x="251.699" y="435.618" fill="none" width="10.443" height="9.54"/>
	<rect x="239.89" y="435.618" fill="none" width="9.809" height="9.54"/>
	<rect x="180.06" y="412.533" fill="none" width="9.327" height="10.106"/>
	<rect x="312.645" y="424.64" fill="none" width="9.81" height="8.979"/>
	<rect x="300.202" y="435.618" fill="none" width="10.442" height="9.54"/>
	<rect x="312.645" y="435.618" fill="none" width="9.81" height="9.54"/>
	<rect x="288.393" y="435.618" fill="none" width="9.81" height="9.54"/>
	<rect x="275.951" y="435.618" fill="none" width="10.441" height="9.54"/>
	<rect x="264.143" y="424.64" fill="none" width="9.809" height="8.979"/>
	<rect x="288.393" y="424.64" fill="none" width="9.81" height="8.979"/>
	<rect x="275.951" y="424.64" fill="none" width="10.441" height="8.979"/>
	<rect x="300.202" y="424.64" fill="none" width="10.442" height="8.979"/>
	<rect x="203.508" y="435.618" fill="none" width="10.131" height="9.54"/>
	<rect x="180.06" y="435.618" fill="none" width="9.327" height="9.54"/>
	<rect x="215.639" y="435.618" fill="none" width="9.809" height="9.54"/>
	<rect x="191.387" y="435.618" fill="none" width="10.121" height="9.54"/>
	<rect x="251.699" y="390.014" fill="none" width="10.443" height="10.106"/>
	<rect x="275.951" y="390.014" fill="none" width="10.441" height="10.106"/>
	<rect x="239.89" y="390.014" fill="none" width="9.809" height="10.106"/>
	<rect x="227.448" y="390.014" fill="none" width="10.442" height="10.106"/>
	<rect x="264.143" y="390.014" fill="none" width="9.809" height="10.106"/>
	<rect x="239.89" y="424.64" fill="none" width="9.809" height="8.979"/>
	<rect x="191.387" y="390.014" fill="none" width="10.121" height="10.106"/>
	<rect x="215.639" y="390.014" fill="none" width="9.809" height="10.106"/>
	<rect x="203.508" y="390.014" fill="none" width="10.131" height="10.106"/>
	<rect x="227.448" y="424.64" fill="none" width="10.442" height="8.979"/>
	<rect x="251.699" y="424.64" fill="none" width="10.443" height="8.979"/>
	<rect x="191.387" y="412.533" fill="none" width="10.121" height="10.106"/>
	<rect x="203.508" y="424.64" fill="none" width="10.131" height="8.979"/>
	<rect x="312.645" y="390.014" fill="none" width="9.81" height="10.106"/>
	<rect x="191.387" y="424.64" fill="none" width="10.121" height="8.979"/>
	<rect x="215.639" y="424.64" fill="none" width="9.809" height="8.979"/>
	<rect x="300.202" y="390.014" fill="none" width="10.442" height="10.106"/>
	<rect x="288.393" y="390.014" fill="none" width="9.81" height="10.106"/>
	<rect x="203.508" y="412.533" fill="none" width="10.131" height="10.106"/>
	<path fill="#4E536E" d="M189.387,449.493c0.653-0.118,1.321-0.258,2-0.415v-1.92h-2V449.493z"/>
	<rect x="189.387" y="380.334" fill="#4E536E" width="2" height="7.68"/>
	<rect x="189.387" y="424.64" fill="#4E536E" width="2" height="8.979"/>
	<rect x="189.387" y="435.618" fill="#4E536E" width="2" height="9.54"/>
	<rect x="189.387" y="412.533" fill="#4E536E" width="2" height="10.106"/>
	<rect x="189.387" y="402.12" fill="#4E536E" width="2" height="8.413"/>
	<rect x="189.387" y="390.014" fill="#4E536E" width="2" height="10.106"/>
	<polygon fill="#4E536E" points="180.06,380.334 179.427,380.334 178.06,385.716 178.06,388.014 180.06,388.014 	"/>
	<rect x="178.06" y="402.12" fill="#4E536E" width="2" height="8.413"/>
	<path fill="#4E536E" d="M178.06,449.696c0.643,0.105,1.312,0.188,2,0.253v-2.791h-2V449.696z"/>
	<rect x="178.06" y="424.64" fill="#4E536E" width="2" height="8.979"/>
	<rect x="178.06" y="412.533" fill="#4E536E" width="2" height="10.106"/>
	<rect x="178.06" y="390.014" fill="#4E536E" width="2" height="10.106"/>
	<rect x="178.06" y="435.618" fill="#4E536E" width="2" height="9.54"/>
	<rect x="201.508" y="424.64" fill="#4E536E" width="2" height="8.979"/>
	<rect x="201.508" y="380.334" fill="#4E536E" width="2" height="7.68"/>
	<rect x="201.508" y="402.12" fill="#4E536E" width="2" height="8.413"/>
	<rect x="201.508" y="435.618" fill="#4E536E" width="2" height="9.54"/>
	<rect x="201.508" y="412.533" fill="#4E536E" width="2" height="10.106"/>
	<path fill="#4E536E" d="M201.508,451.988c0.655,0.242,1.322,0.458,2,0.647v-5.478h-2V451.988z"/>
	<rect x="201.508" y="390.014" fill="#4E536E" width="2" height="10.106"/>
	<rect x="213.639" y="380.334" fill="#4E536E" width="2" height="7.68"/>
	<rect x="213.639" y="435.618" fill="#4E536E" width="2" height="9.54"/>
	<rect x="213.639" y="390.014" fill="#4E536E" width="2" height="10.106"/>
	<path fill="#4E536E" d="M213.639,453.842c0.672-0.007,1.34-0.025,2-0.061v-6.623h-2V453.842z"/>
	<rect x="213.639" y="424.64" fill="#4E536E" width="2" height="8.979"/>
	<rect x="213.639" y="402.12" fill="#4E536E" width="2" height="8.413"/>
	<rect x="213.639" y="412.533" fill="#4E536E" width="2" height="10.106"/>
	<rect x="225.448" y="390.014" fill="#4E536E" width="2" height="10.106"/>
	<rect x="225.448" y="435.618" fill="#4E536E" width="2" height="9.54"/>
	<rect x="225.448" y="402.12" fill="#4E536E" width="2" height="8.413"/>
	<path fill="#4E536E" d="M225.448,452.332c0.721-0.18,1.392-0.364,2-0.55v-4.624h-2V452.332z"/>
	<rect x="225.448" y="380.334" fill="#4E536E" width="2" height="7.68"/>
	<rect x="225.448" y="424.64" fill="#4E536E" width="2" height="8.979"/>
	<rect x="225.448" y="412.533" fill="#4E536E" width="2" height="10.106"/>
	<path fill="#4E536E" d="M237.89,452.905c0.683,0.25,1.348,0.48,2,0.695v-6.442h-2V452.905z"/>
	<rect x="237.89" y="435.618" fill="#4E536E" width="2" height="9.54"/>
	<rect x="237.89" y="402.12" fill="#4E536E" width="2" height="8.413"/>
	<rect x="237.89" y="424.64" fill="#4E536E" width="2" height="8.979"/>
	<rect x="237.89" y="390.014" fill="#4E536E" width="2" height="10.106"/>
	<rect x="237.89" y="412.533" fill="#4E536E" width="2" height="10.106"/>
	<rect x="237.89" y="380.334" fill="#4E536E" width="2" height="7.68"/>
	<rect x="249.699" y="435.618" fill="#4E536E" width="2" height="9.54"/>
	<rect x="249.699" y="424.64" fill="#4E536E" width="2" height="8.979"/>
	<rect x="249.699" y="390.014" fill="#4E536E" width="2" height="10.106"/>
	<rect x="249.699" y="402.12" fill="#4E536E" width="2" height="8.413"/>
	<rect x="249.699" y="380.334" fill="#4E536E" width="2" height="7.68"/>
	<path fill="#4E536E" d="M249.699,455.781c0.694,0.066,1.36,0.109,2,0.129v-8.752h-2V455.781z"/>
	<rect x="249.699" y="412.533" fill="#4E536E" width="2" height="10.106"/>
	<path fill="#4E536E" d="M262.143,454.287c0.649-0.186,1.316-0.39,2-0.612v-6.517h-2V454.287z"/>
	<rect x="262.143" y="424.64" fill="#4E536E" width="2" height="8.979"/>
	<rect x="262.143" y="390.014" fill="#4E536E" width="2" height="10.106"/>
	<rect x="262.143" y="402.12" fill="#4E536E" width="2" height="8.413"/>
	<rect x="262.143" y="380.334" fill="#4E536E" width="2" height="7.68"/>
	<rect x="262.143" y="412.533" fill="#4E536E" width="2" height="10.106"/>
	<rect x="262.143" y="435.618" fill="#4E536E" width="2" height="9.54"/>
	<rect x="273.951" y="380.334" fill="#4E536E" width="2" height="7.68"/>
	<rect x="273.951" y="402.12" fill="#4E536E" width="2" height="8.413"/>
	<rect x="273.951" y="424.64" fill="#4E536E" width="2" height="8.979"/>
	<rect x="273.951" y="390.014" fill="#4E536E" width="2" height="10.106"/>
	<path fill="#4E536E" d="M273.951,450.71c0.494,0.242,1.175,0.503,2,0.764v-4.315h-2V450.71z"/>
	<rect x="273.951" y="412.533" fill="#4E536E" width="2" height="10.106"/>
	<rect x="273.951" y="435.618" fill="#4E536E" width="2" height="9.54"/>
	<rect x="286.393" y="412.533" fill="#4E536E" width="2" height="10.106"/>
	<rect x="286.393" y="424.64" fill="#4E536E" width="2" height="8.979"/>
	<rect x="286.393" y="435.618" fill="#4E536E" width="2" height="9.54"/>
	<path fill="#4E536E" d="M286.393,453.256c0.653,0.039,1.323,0.062,2,0.077v-6.175h-2V453.256z"/>
	<rect x="286.393" y="390.014" fill="#4E536E" width="2" height="10.106"/>
	<rect x="286.393" y="380.334" fill="#4E536E" width="2" height="7.68"/>
	<rect x="286.393" y="402.12" fill="#4E536E" width="2" height="8.413"/>
	<rect x="298.202" y="390.014" fill="#4E536E" width="2" height="10.106"/>
	<rect x="298.202" y="412.533" fill="#4E536E" width="2" height="10.106"/>
	<rect x="298.202" y="424.64" fill="#4E536E" width="2" height="8.979"/>
	<rect x="298.202" y="380.334" fill="#4E536E" width="2" height="7.68"/>
	<rect x="298.202" y="402.12" fill="#4E536E" width="2" height="8.413"/>
	<path fill="#4E536E" d="M298.202,452.511c0.668-0.135,1.335-0.29,2-0.462v-4.891h-2V452.511z"/>
	<rect x="298.202" y="435.618" fill="#4E536E" width="2" height="9.54"/>
	<rect x="310.645" y="390.014" fill="#4E536E" width="2" height="10.106"/>
	<rect x="310.645" y="424.64" fill="#4E536E" width="2" height="8.979"/>
	<path fill="#4E536E" d="M310.645,448.501c0.679,0.193,1.346,0.368,2,0.522v-1.865h-2V448.501z"/>
	<rect x="310.645" y="402.12" fill="#4E536E" width="2" height="8.413"/>
	<rect x="310.645" y="380.334" fill="#4E536E" width="2" height="7.68"/>
	<rect x="310.645" y="435.618" fill="#4E536E" width="2" height="9.54"/>
	<rect x="310.645" y="412.533" fill="#4E536E" width="2" height="10.106"/>
	<rect x="322.454" y="424.64" fill="#4E536E" width="2" height="8.979"/>
	<rect x="322.454" y="402.12" fill="#4E536E" width="2" height="8.413"/>
	<polygon fill="#4E536E" points="322.454,400.12 324.454,400.12 324.454,390.487 324.307,390.014 322.454,390.014 	"/>
	<rect x="322.454" y="435.618" fill="#4E536E" width="2" height="9.54"/>
	<path fill="#4E536E" d="M322.454,450.062c0.686-0.025,1.354-0.068,2-0.136v-2.769h-2V450.062z"/>
	<rect x="322.454" y="412.533" fill="#4E536E" width="2" height="10.106"/>
	<polygon fill="#4E536E" points="322.454,384.06 322.454,388.014 323.685,388.014 	"/>
	<polygon fill="#4E536E" points="189.387,402.12 191.387,402.12 201.508,402.12 203.508,402.12 213.639,402.12 215.639,402.12 
		225.448,402.12 227.448,402.12 237.89,402.12 239.89,402.12 249.699,402.12 251.699,402.12 262.143,402.12 264.143,402.12 
		273.951,402.12 275.951,402.12 286.393,402.12 288.393,402.12 298.202,402.12 300.202,402.12 310.645,402.12 312.645,402.12 
		322.454,402.12 324.454,402.12 328.073,402.12 327.451,400.12 324.454,400.12 322.454,400.12 312.645,400.12 310.645,400.12 
		300.202,400.12 298.202,400.12 288.393,400.12 286.393,400.12 275.951,400.12 273.951,400.12 264.143,400.12 262.143,400.12 
		251.699,400.12 249.699,400.12 239.89,400.12 237.89,400.12 227.448,400.12 225.448,400.12 215.639,400.12 213.639,400.12 
		203.508,400.12 201.508,400.12 191.387,400.12 189.387,400.12 180.06,400.12 178.06,400.12 174.402,400.12 173.895,402.12 
		178.06,402.12 180.06,402.12 	"/>
	<polygon fill="#4E536E" points="189.387,390.014 191.387,390.014 201.508,390.014 203.508,390.014 213.639,390.014 
		215.639,390.014 225.448,390.014 227.448,390.014 237.89,390.014 239.89,390.014 249.699,390.014 251.699,390.014 262.143,390.014 
		264.143,390.014 273.951,390.014 275.951,390.014 286.393,390.014 288.393,390.014 298.202,390.014 300.202,390.014 
		310.645,390.014 312.645,390.014 322.454,390.014 324.307,390.014 323.685,388.014 322.454,388.014 312.645,388.014 
		310.645,388.014 300.202,388.014 298.202,388.014 288.393,388.014 286.393,388.014 275.951,388.014 273.951,388.014 
		264.143,388.014 262.143,388.014 251.699,388.014 249.699,388.014 239.89,388.014 237.89,388.014 227.448,388.014 225.448,388.014 
		215.639,388.014 213.639,388.014 203.508,388.014 201.508,388.014 191.387,388.014 189.387,388.014 180.06,388.014 178.06,388.014 
		177.477,388.014 176.969,390.014 178.06,390.014 180.06,390.014 	"/>
	<polygon fill="#4E536E" points="189.387,424.64 191.387,424.64 201.508,424.64 203.508,424.64 213.639,424.64 215.639,424.64 
		225.448,424.64 227.448,424.64 237.89,424.64 239.89,424.64 249.699,424.64 251.699,424.64 262.143,424.64 264.143,424.64 
		273.951,424.64 275.951,424.64 286.393,424.64 288.393,424.64 298.202,424.64 300.202,424.64 310.645,424.64 312.645,424.64 
		322.454,424.64 324.454,424.64 335.08,424.64 334.458,422.64 324.454,422.64 322.454,422.64 312.645,422.64 310.645,422.64 
		300.202,422.64 298.202,422.64 288.393,422.64 286.393,422.64 275.951,422.64 273.951,422.64 264.143,422.64 262.143,422.64 
		251.699,422.64 249.699,422.64 239.89,422.64 237.89,422.64 227.448,422.64 225.448,422.64 215.639,422.64 213.639,422.64 
		203.508,422.64 201.508,422.64 191.387,422.64 189.387,422.64 180.06,422.64 178.06,422.64 168.684,422.64 168.176,424.64 
		178.06,424.64 180.06,424.64 	"/>
	<polygon fill="#4E536E" points="189.387,412.533 191.387,412.533 201.508,412.533 203.508,412.533 213.639,412.533 
		215.639,412.533 225.448,412.533 227.448,412.533 237.89,412.533 239.89,412.533 249.699,412.533 251.699,412.533 262.143,412.533 
		264.143,412.533 273.951,412.533 275.951,412.533 286.393,412.533 288.393,412.533 298.202,412.533 300.202,412.533 
		310.645,412.533 312.645,412.533 322.454,412.533 324.454,412.533 331.313,412.533 330.691,410.533 324.454,410.533 
		322.454,410.533 312.645,410.533 310.645,410.533 300.202,410.533 298.202,410.533 288.393,410.533 286.393,410.533 
		275.951,410.533 273.951,410.533 264.143,410.533 262.143,410.533 251.699,410.533 249.699,410.533 239.89,410.533 237.89,410.533 
		227.448,410.533 225.448,410.533 215.639,410.533 213.639,410.533 203.508,410.533 201.508,410.533 191.387,410.533 
		189.387,410.533 180.06,410.533 178.06,410.533 171.758,410.533 171.25,412.533 178.06,412.533 180.06,412.533 	"/>
	<path fill="#4E536E" d="M312.645,445.158h-2h-10.442h-2h-9.81h-2h-10.441h-2h-9.809h-2h-10.443h-2h-9.809h-2h-10.442h-2h-9.809h-2
		h-10.131h-2h-10.121h-2h-9.327h-2h-10.769v0.166c0.846,0.606,1.848,1.237,3.006,1.834h7.763h2h9.327h2h10.121h2h10.131h2h9.809h2
		h10.442h2h9.809h2h10.443h2h9.809h2h10.441h2h9.81h2h10.442h2h9.81h2h9.503c0.945-0.486,1.78-0.994,2.517-1.494v-0.506h-12.02h-2
		H312.645z"/>
	<polygon fill="#4E536E" points="312.645,433.618 310.645,433.618 300.202,433.618 298.202,433.618 288.393,433.618 
		286.393,433.618 275.951,433.618 273.951,433.618 264.143,433.618 262.143,433.618 251.699,433.618 249.699,433.618 
		239.89,433.618 237.89,433.618 227.448,433.618 225.448,433.618 215.639,433.618 213.639,433.618 203.508,433.618 201.508,433.618 
		191.387,433.618 189.387,433.618 180.06,433.618 178.06,433.618 166.069,433.618 165.294,435.618 178.06,435.618 180.06,435.618 
		189.387,435.618 191.387,435.618 201.508,435.618 203.508,435.618 213.639,435.618 215.639,435.618 225.448,435.618 
		227.448,435.618 237.89,435.618 239.89,435.618 249.699,435.618 251.699,435.618 262.143,435.618 264.143,435.618 273.951,435.618 
		275.951,435.618 286.393,435.618 288.393,435.618 298.202,435.618 300.202,435.618 310.645,435.618 312.645,435.618 
		322.454,435.618 324.454,435.618 338.613,435.618 337.972,433.618 324.454,433.618 322.454,433.618 	"/>
</g>
</svg>
