<?xml version="1.0" encoding="utf-8"?>
<!-- Generator: Adobe Illustrator 16.0.1, SVG Export Plug-In . SVG Version: 6.00 Build 0)  -->
<!DOCTYPE svg PUBLIC "-//W3C//DTD SVG 1.1//EN" "http://www.w3.org/Graphics/SVG/1.1/DTD/svg11.dtd">
<svg version="1.1" id="Layer_1" xmlns="http://www.w3.org/2000/svg" xmlns:xlink="http://www.w3.org/1999/xlink" x="0px" y="0px"
	 width="500px" height="500px" viewBox="0 0 500 500" enable-background="new 0 0 500 500" xml:space="preserve">
<g id="clothes">
</g>
<path display="none" fill="#CAD7D7" d="M251.227,5.982V5.971c-0.098,0-0.191,0.006-0.291,0.006c-0.098,0-0.191-0.006-0.291-0.006
	v0.012c-57.167,0.245-103.41,36.321-103.41,80.807v109.924H252.96h101.662V86.789C354.621,42.303,308.393,6.228,251.227,5.982z
	 M331.764,134.667H173.479V98.992h0.072c1.5-35.169,36.451-63.305,79.375-63.305c43.877,0,79.447,29.396,79.447,65.655
	c0,3.705-0.219,7.191-0.609,10.493V134.667z"/>
<rect x="147.235" y="180" display="none" fill="#A2AEAE" width="207.389" height="16.713"/>
<g>
	<path fill="#3293B4" d="M213.719,360.274h-2.352c-13.444,0-24.444,10.999-24.444,24.441v87.294h51.24v-31.977v-4.764v-50.555
		C238.163,371.273,227.163,360.274,213.719,360.274z"/>
	<path fill="#3293B4" d="M290.176,360.272h-3.041c-13.615,0-24.755,11.141-24.755,24.756v50.243h-0.19v4.763h0.19v31.665h52.551
		v-31.665v-4.763v-50.243C314.931,371.413,303.791,360.272,290.176,360.272z"/>
</g>
</svg>
