<?xml version="1.0" encoding="utf-8"?>
<!-- Generator: Adobe Illustrator 16.0.1, SVG Export Plug-In . SVG Version: 6.00 Build 0)  -->
<!DOCTYPE svg PUBLIC "-//W3C//DTD SVG 1.1//EN" "http://www.w3.org/Graphics/SVG/1.1/DTD/svg11.dtd">
<svg version="1.1" id="Layer_1" xmlns="http://www.w3.org/2000/svg" xmlns:xlink="http://www.w3.org/1999/xlink" x="0px" y="0px"
	 width="500px" height="500px" viewBox="0 0 500 500" enable-background="new 0 0 500 500" xml:space="preserve">
<path fill="none" d="M317.239,196.713H292.5c0,23.887-19.364,43.252-43.252,43.252c-23.887,0-43.251-19.365-43.251-43.252h-21.378
	c-11.846,0-20.729,9.658-19.742,21.463l13.127,156.901c0.987,11.805,11.487,21.463,23.333,21.463h98.88
	c11.849,0,22.361-9.657,23.366-21.46l13.366-156.907C337.954,206.37,329.085,196.713,317.239,196.713z"/>
<path fill="none" d="M249.248,296.627c-2.558,0-4.631-2.078-4.631-4.632c0-2.562,2.074-4.636,4.631-4.636
	c2.557,0,4.632,2.074,4.632,4.636C253.88,294.549,251.807,296.627,249.248,296.627z"/>
<path fill="none" d="M249.248,277.947c-2.558,0-4.631-2.075-4.631-4.635c0-2.566,2.074-4.633,4.631-4.633
	c2.557,0,4.632,2.064,4.632,4.633C253.88,275.872,251.807,277.947,249.248,277.947z"/>
<path fill="none" d="M249.248,259.266c-2.558,0-4.631-2.074-4.631-4.633c0-2.566,2.074-4.633,4.631-4.633
	c2.557,0,4.632,2.064,4.632,4.633C253.88,257.189,251.807,259.266,249.248,259.266z"/>
<path fill="#F9BF3B" d="M177.421,365.461c-1.218,10.796-52.921,57.039-52.921,86.43c14.758,10.574,242.667,17.943,251.333-4.02
	c-5.037-26.12-51.602-82.41-51.602-82.41H177.421z"/>
<polygon fill="#DAA933" points="190.991,377.27 164.802,458.491 172.325,458.977 "/>
<polygon fill="#DAA933" points="228.5,376.5 213.139,461.016 220.835,461.299 "/>
<polygon fill="#DAA933" points="299.865,378.876 326.055,460.099 318.532,460.584 "/>
<polygon fill="#DAA933" points="261.287,378.876 273.464,461.773 265.766,462.057 "/>
</svg>
