<?xml version="1.0" encoding="utf-8"?>
<!-- Generator: Adobe Illustrator 16.0.1, SVG Export Plug-In . SVG Version: 6.00 Build 0)  -->
<!DOCTYPE svg PUBLIC "-//W3C//DTD SVG 1.1//EN" "http://www.w3.org/Graphics/SVG/1.1/DTD/svg11.dtd">
<svg version="1.1" id="content" xmlns="http://www.w3.org/2000/svg" xmlns:xlink="http://www.w3.org/1999/xlink" x="0px" y="0px"
	 width="500px" height="500px" viewBox="0 0 500 500" enable-background="new 0 0 500 500" xml:space="preserve">
<rect id="position" fill="none" width="500" height="500"/>
<g>
	<path fill="#C1272D" d="M96.807,411.763c4.377-11.178,79.477-7.04,84.209-9.022c4.733-1.986,7.91-3.697,7.91-3.697l3.917-2.751
		c0,0,68.7-40.903,72.015-40.903c3.313,0,46.465,43.882,88.879,31.983c26.021-7.305,18.926-13.386,23.187-12.897
		c4.255,0.502,8.129-9.062,13.336-5.096c5.204,3.966,7.401,71.314,7.401,71.314L278.971,441.4l-91.805,4.46l-89.434-19.828
		c0,0-2.362-4.956,0.473-6.942C101.046,417.118,95.573,414.913,96.807,411.763z"/>
	<g>
		<path fill="#911D22" d="M391.448,373.295c-2.892,1.782-35.598,23.612-60.061,28.922c-24.47,5.308-76.128-28.674-82.645-31.46
			c-6.522-2.77-3.431-12.038-3.431-12.038s5.616-7.821,9.538-8.605c3.918-0.787,56.203,36.889,72.411,34.779
			c16.198-2.113,43.575-21.469,49.827-25.606c6.26-4.127,11.577,5.656,11.577,5.656S394.342,371.507,391.448,373.295z"/>
	</g>
	<path fill="#999999" d="M240.218,385.032c0.418-3.787-2.12-7.409-5.664-8.091c-3.548-0.682-6.761,1.841-7.175,5.63
		c-0.415,3.792,2.123,7.412,5.669,8.093C236.593,391.341,239.802,388.818,240.218,385.032z"/>
	<path fill="#911D22" d="M237.256,384.464c0.223-2.041-1.144-3.997-3.051-4.356c-1.909-0.367-3.638,0.99-3.861,3.031
		c-0.225,2.039,1.14,3.99,3.051,4.357C235.305,387.86,237.033,386.503,237.256,384.464z"/>
	<path fill="#E6E6E6" d="M236.09,373.672c-1.076-2.402-2.689-4.008-3.591-3.583l-9.126,4.278c-0.909,0.428-0.771,2.72,0.306,5.128
		l0,0c1.076,2.405,8.193,6.673,9.097,6.247l3.131-2.455C236.812,382.858,237.17,376.08,236.09,373.672L236.09,373.672z"/>
	<path fill="#999999" d="M255.238,378.399c0.414-3.79-2.125-7.413-5.665-8.091c-3.545-0.682-6.76,1.838-7.174,5.627
		c-0.415,3.789,2.123,7.412,5.67,8.091C251.613,384.707,254.822,382.188,255.238,378.399z"/>
	<path fill="#911D22" d="M252.277,377.831c0.219-2.041-1.147-3.99-3.056-4.356c-1.908-0.365-3.638,0.99-3.863,3.031
		c-0.224,2.038,1.146,3.995,3.055,4.356C250.321,381.227,252.053,379.87,252.277,377.831z"/>
	<path fill="#E6E6E6" d="M251.11,367.039c-1.076-2.405-2.688-4.003-3.591-3.583l-9.13,4.277c-0.91,0.426-0.769,2.723,0.309,5.128
		l0,0c1.078,2.403,8.194,6.673,9.099,6.245l3.127-2.456C251.832,376.226,252.186,369.442,251.11,367.039L251.11,367.039z"/>
	<path fill="#999999" d="M225.29,392.407c0.418-3.784-2.119-7.407-5.668-8.086c-3.542-0.684-6.753,1.838-7.17,5.622
		c-0.414,3.789,2.122,7.412,5.67,8.091C221.665,398.713,224.875,396.196,225.29,392.407z"/>
	<path fill="#911D22" d="M222.33,391.84c0.223-2.044-1.143-3.993-3.052-4.354c-1.91-0.37-3.642,0.99-3.864,3.028
		c-0.222,2.044,1.144,3.995,3.054,4.354C220.376,395.235,222.105,393.878,222.33,391.84z"/>
	<path fill="#E6E6E6" d="M221.163,381.045c-1.071-2.405-2.685-4.006-3.591-3.581l-9.13,4.278c-0.903,0.422-0.768,2.72,0.312,5.122
		l0,0c1.075,2.408,8.195,6.676,9.099,6.253l3.128-2.453C221.889,390.231,222.241,383.453,221.163,381.045L221.163,381.045z"/>
	<path fill="#E6E6E6" d="M96.807,411.763c-0.477,3.599-6.179,36.577,1.427,41.972c7.607,5.393,48.978,21.582,90.822,22.783
		c41.847,1.199,155.017,0,155.017,0s40.896-0.602,48.026-3.599s7.143-34.562,7.143-34.562s0.953-3.737-3.328-6.135
		c-4.278-2.405-155.024,6.522-197.346,5.918C156.244,437.545,97.282,408.169,96.807,411.763z"/>
	<path fill="#666666" d="M96.567,414.913c0,0,48.127,23.097,86.368,27.287c38.241,4.201,216.141-0.248,216.141-0.248l-0.332,5.926
		c0,0-178.868,5.115-214.811,1.302c-35.944-3.805-88.362-29.825-88.362-29.825L96.567,414.913z"/>
</g>
</svg>
