<?xml version="1.0" encoding="utf-8"?>
<!-- Generator: Adobe Illustrator 16.0.1, SVG Export Plug-In . SVG Version: 6.00 Build 0)  -->
<!DOCTYPE svg PUBLIC "-//W3C//DTD SVG 1.1//EN" "http://www.w3.org/Graphics/SVG/1.1/DTD/svg11.dtd">
<svg version="1.1" xmlns="http://www.w3.org/2000/svg" xmlns:xlink="http://www.w3.org/1999/xlink" x="0px" y="0px" width="500px"
	 height="500px" viewBox="0 0 500 500" enable-background="new 0 0 500 500" xml:space="preserve">
<g id="avatar">
</g>
<g id="robot">
	<path fill-rule="evenodd" clip-rule="evenodd" fill="#595959" d="M200.084,456.056l-46.219,43.702l-35.082-0.263
		c-1.438-0.012-2.587-1.151-2.607-2.566c-0.057-13.884-1.272-14.35,14.76-17.688c30.565-6.383,35.326-11.77,56.788-30.706
		c1.165-1.07,3.041-0.986,4.158,0.185C194.612,451.564,197.347,454.009,200.084,456.056L200.084,456.056z"/>
	<path fill-rule="evenodd" clip-rule="evenodd" fill="#333333" d="M153.865,499.758l46.219-43.702
		c10.731,7.902,21.697,9.084,35.247-0.869c1.54-1.122,3.818-0.501,4.586,1.333c6.608,16.044,6.432,23.103,1.86,41.398
		c-0.226,0.915-1.043,1.536-2.012,1.538c-10.257,0.036-20.483,0.073-30.74,0.11c-1.094-0.003-16.514,0.497-26.675,0.444
		L153.865,499.758z"/>
	<path fill-rule="evenodd" clip-rule="evenodd" fill="#595959" d="M304.051,456.056l46.219,43.702l35.082-0.263
		c1.438-0.012,2.587-1.151,2.607-2.566c0.057-13.884,1.272-14.35-14.76-17.688c-30.565-6.383-35.326-11.77-56.788-30.706
		c-1.165-1.07-3.041-0.986-4.158,0.185C309.523,451.564,306.789,454.009,304.051,456.056L304.051,456.056z"/>
	<path fill-rule="evenodd" clip-rule="evenodd" fill="#333333" d="M350.27,499.758l-46.219-43.702
		c-10.731,7.902-21.697,9.084-35.247-0.869c-1.54-1.122-3.818-0.501-4.586,1.333c-6.608,16.044-6.432,23.103-1.86,41.398
		c0.226,0.915,1.043,1.536,2.012,1.538c10.257,0.036,20.483,0.073,30.74,0.11c1.094-0.003,16.514,0.497,26.675,0.444L350.27,499.758
		z"/>
</g>
</svg>
