<?xml version="1.0" encoding="utf-8"?>
<!-- Generator: Adobe Illustrator 16.0.1, SVG Export Plug-In . SVG Version: 6.00 Build 0)  -->
<!DOCTYPE svg PUBLIC "-//W3C//DTD SVG 1.1//EN" "http://www.w3.org/Graphics/SVG/1.1/DTD/svg11.dtd">
<svg version="1.1" xmlns="http://www.w3.org/2000/svg" xmlns:xlink="http://www.w3.org/1999/xlink" x="0px" y="0px" width="500px"
	 height="500px" viewBox="0 0 500 500" enable-background="new 0 0 500 500" xml:space="preserve">
<g id="avatar">
</g>
<g id="robot">
	<g>
		<g>
			<path fill="#39150B" d="M230.707,482.512l-62.751,7.115l-1.562,1.189v1.56c0,0,5.32,6.751,22.439,6.751
				c17.123,0,30.54-5.367,30.54-5.367s9.95-2.074,12.723-4.846l0.928-5.538L230.707,482.512z"/>
			<path fill="#462218" d="M184.588,423.062c0,0,14.401,10.037,21.537,18.284c6.331-5.324,6.092-5.939,34.151-17.269
				c0,0-1.543,27.466-2.189,39.352c-0.652,11.881,5.403,30.502-2.377,33.896c-7.783,3.397-24.524,2.674-43.003,2.674
				c-14.763,0-37.241,1.23-39.833-2.674c-0.654-0.979-7.134-5.551-0.793-14.814c7.977-11.652,22.479-7.766,30.701-5.509
				c0,0,0.283-4.612,2.554-12.127C187.603,457.357,180.697,438.343,184.588,423.062z"/>
			<path fill="#512F26" d="M195.358,453.708c-1.824,5.459-3.649,12.285,1.825,17.745c-7.089,0-10.714,3.867-7.575,9.089
				c10.013,3.825,21.455,5.098,27.646,0.466c7.299-8.189,3.649-21.84,7.299-34.124C213.604,450.979,206.307,460.533,195.358,453.708
				z"/>
			<path fill="#462218" d="M182.65,476.973c-1.518-0.401-3.029-0.521-4.473-0.407C179.721,477.093,181.326,477.159,182.65,476.973z"
				/>
			<path fill="#462218" d="M194.963,496.652c-9.226,0.168-14.291-0.675-14.291-0.675l-0.901,1.766
				c4.729,1.015,15.419,0.928,15.419,0.928L194.963,496.652z"/>
			<path fill="#71564E" d="M183.272,477.125c0,0,4.462,0.478,8.712,3.024c4.246,2.538,13.169,4.453,19.547,2.382
				c0,0-5.738,3.495-12.114,2.387C193.046,483.803,189.219,478.398,183.272,477.125z"/>
		</g>
		<polygon fill="#71564E" points="186.591,430.19 204.657,450.156 233.808,428.961 204.657,453.842 		"/>
	</g>
	<g>
		<g>
			<path fill="#39150B" d="M269.946,482.512l62.751,7.115l1.562,1.189v1.56c0,0-5.32,6.751-22.439,6.751
				c-17.123,0-30.54-5.367-30.54-5.367s-9.95-2.074-12.723-4.846l-0.928-5.538L269.946,482.512z"/>
			<path fill="#462218" d="M316.064,423.062c0,0-14.401,10.037-21.537,18.284c-6.331-5.324-6.092-5.939-34.151-17.269
				c0,0,1.543,27.466,2.189,39.352c0.652,11.881-5.403,30.502,2.377,33.896c7.783,3.397,24.524,2.674,43.003,2.674
				c14.763,0,37.241,1.23,39.833-2.674c0.654-0.979,7.134-5.551,0.793-14.814c-7.977-11.652-22.479-7.766-30.701-5.509
				c0,0-0.283-4.612-2.554-12.127C313.049,457.357,319.955,438.343,316.064,423.062z"/>
			<path fill="#512F26" d="M305.294,453.708c1.824,5.459,3.649,12.285-1.825,17.745c7.089,0,10.714,3.867,7.575,9.089
				c-10.013,3.825-21.455,5.098-27.646,0.466c-7.299-8.189-3.649-21.84-7.299-34.124
				C287.048,450.979,294.346,460.533,305.294,453.708z"/>
			<path fill="#462218" d="M318.002,476.973c1.518-0.401,3.029-0.521,4.473-0.407C320.931,477.093,319.326,477.159,318.002,476.973z
				"/>
			<path fill="#462218" d="M305.689,496.652c9.226,0.168,14.291-0.675,14.291-0.675l0.901,1.766
				c-4.729,1.015-15.419,0.928-15.419,0.928L305.689,496.652z"/>
			<path fill="#71564E" d="M317.38,477.125c0,0-4.462,0.478-8.712,3.024c-4.246,2.538-13.169,4.453-19.547,2.382
				c0,0,5.738,3.495,12.114,2.387C307.606,483.803,311.434,478.398,317.38,477.125z"/>
		</g>
		<polygon fill="#71564E" points="314.062,430.19 295.996,450.156 266.844,428.961 295.996,453.842 		"/>
	</g>
</g>
</svg>
