<?xml version="1.0" encoding="utf-8"?>
<!-- Generator: Adobe Illustrator 16.0.1, SVG Export Plug-In . SVG Version: 6.00 Build 0)  -->
<!DOCTYPE svg PUBLIC "-//W3C//DTD SVG 1.1//EN" "http://www.w3.org/Graphics/SVG/1.1/DTD/svg11.dtd">
<svg version="1.1" id="Layer_1" xmlns="http://www.w3.org/2000/svg" xmlns:xlink="http://www.w3.org/1999/xlink" x="0px" y="0px"
	 width="500px" height="500px" viewBox="0 0 500 500" enable-background="new 0 0 500 500" xml:space="preserve">
<g id="avatar" display="none">
	<g display="inline">
		<g>
			<g>
				<path fill="#FED9AE" d="M157.406,338.494c0,11.978-9.8,21.777-21.777,21.777h-0.589c-11.979,0-21.778-9.8-21.778-21.777V218.491
					c0-11.978,9.8-21.778,21.778-21.778h0.589c11.978,0,21.777,9.8,21.777,21.778V338.494z"/>
			</g>
		</g>
		<g>
			<g>
				<path fill="#FED9AE" d="M388.595,338.494c0,11.978-9.8,21.777-21.778,21.777h-0.589c-11.978,0-21.777-9.8-21.777-21.777V218.491
					c0-11.978,9.8-21.778,21.777-21.778h0.589c11.979,0,21.778,9.8,21.778,21.778V338.494L388.595,338.494z"/>
			</g>
		</g>
		<g>
			<g>
				<path fill="#FED9AE" d="M238.163,472.011c0,13.443-11,24.443-24.444,24.443h-2.352c-13.444,0-24.444-11-24.444-24.443v-128.63
					c0-13.443,11-24.443,24.444-24.443h2.352c13.444,0,24.444,11,24.444,24.443V472.011z"/>
			</g>
			<g>
				<path fill="#335DA8" d="M314.275,472.011c0,13.443-11,24.443-24.443,24.443h-2.354c-13.443,0-24.443-11-24.443-24.443v-128.63
					c0-13.443,11-24.443,24.443-24.443h2.354c13.443,0,24.443,11,24.443,24.443V472.011z"/>
			</g>
			<g>
				<path fill="#FED9AE" d="M314.931,471.699c0,13.615-11.14,24.755-24.755,24.755h-3.041c-13.615,0-24.755-11.14-24.755-24.755
					V343.692c0-13.615,11.14-24.756,24.755-24.756h3.041c13.615,0,24.755,11.141,24.755,24.756V471.699z"/>
			</g>
		</g>
		<g>
			<circle fill="#FED9AE" cx="250.928" cy="105.505" r="85.691"/>
		</g>
		<g>
			<circle fill="#FFFFFF" cx="218.528" cy="96.644" r="15.116"/>
			<circle fill="#FFFFFF" cx="282.103" cy="96.644" r="15.116"/>
			<path fill="#FFFFFF" d="M266.044,139.444c0,8.348-6.768,15.115-15.116,15.115c-8.348,0-15.117-6.768-15.117-15.115H266.044z"/>
		</g>
		<g>
			<path fill="#FED9AE" d="M323.582,375.08c-1.005,11.803-11.521,21.46-23.366,21.46h-98.88c-11.847,0-22.347-9.658-23.333-21.463
				l-13.127-156.901c-0.987-11.805,7.896-21.463,19.742-21.463h132.62c11.847,0,20.716,9.657,19.709,21.46L323.582,375.08z"/>
		</g>
	</g>
</g>
<g id="robot">
	<path fill="#E5007E" d="M261.157,499.077c0,0-2.682-15.361-2.634-24.427c0.033-6.334,0.787-16.045,3.856-20.573
		c1.725-2.544,1.323,0,11.539,14.174c7.421,10.295,18.967,14.838,32.134,14.425c6.457-0.203,8.223-5.626,8.223-5.626
		s33.257,5.128,33.256,14.398c0,2.757-19.345,6.704-27.693,7.627c-35.239,2.193-49.577-7.627-49.577-7.627l-0.382,7.628
		L261.157,499.077L261.157,499.077z"/>
	<path fill="#E5007E" d="M240.398,499.077c0,0,2.682-15.361,2.633-24.427c-0.032-6.334-0.786-16.045-3.855-20.573
		c-1.725-2.544-1.323,0-11.539,14.174c-7.421,10.295-18.967,14.838-32.134,14.425c-6.457-0.203-8.224-5.626-8.224-5.626
		s-33.257,5.128-33.256,14.398c0,2.757,19.346,6.704,27.694,7.627c35.239,2.193,49.577-7.627,49.577-7.627l0.382,7.628
		L240.398,499.077L240.398,499.077z"/>
</g>
<rect x="231.639" y="498.328" fill-rule="evenodd" clip-rule="evenodd" fill="#084453" width="8.893" height="1.672"/>
<rect x="261.056" y="498.328" fill-rule="evenodd" clip-rule="evenodd" fill="#084453" width="8.893" height="1.672"/>
</svg>
