<?xml version="1.0" encoding="utf-8"?>
<!-- Generator: Adobe Illustrator 16.0.1, SVG Export Plug-In . SVG Version: 6.00 Build 0)  -->
<!DOCTYPE svg PUBLIC "-//W3C//DTD SVG 1.1//EN" "http://www.w3.org/Graphics/SVG/1.1/DTD/svg11.dtd">
<svg version="1.1" id="robot" xmlns="http://www.w3.org/2000/svg" xmlns:xlink="http://www.w3.org/1999/xlink" x="0px" y="0px"
	 width="500px" height="500px" viewBox="0 0 500 500" enable-background="new 0 0 500 500" xml:space="preserve">
<polygon fill="#EFEFEF" points="174.605,461.816 235.119,462.16 234.547,437.277 186.396,437.552 "/>
<rect x="189.762" y="437.277" fill="#D8D8D8" width="44.785" height="5.197"/>
<g>
	<path fill="#6B7980" d="M195.375,451.19c-0.729-0.451-1.446-0.933-2.133-1.475c-8.073-6.372-8.728-7.19-8.728-7.19
		s-10.738,23.185-28.135,32.597c-2.846,1.538-11.738,1.218-19.532,3.121c23.572-7.28,41.759-28.157,47.23-40.69
		c1.112-2.548,5.481-2.144,6.099-1.301C193.44,440.728,195.375,451.19,195.375,451.19L195.375,451.19z"/>
</g>
<g>
	<g>
		<path fill="#EFEFEF" d="M227.512,490.932c-24.398,0.3-55.724,0.791-79.781-0.104c-15.18-0.565-22.747-2.459-28.573-3.505
			c0.907-3.229,3.578-8.713,11.292-8.354c4.327,0.2,11.577-1.723,19.06-4.769c14.542-5.919,31.045-24.32,31.045-24.32
			s-0.664,1.472,6.528,6.382c12.718,8.683,37.271,3.047,41.746-1.09c4.473-4.137,11.482-3.819,11.482-3.819l0.305,13.185
			c0,0,5.671,9.453,3.275,26.232L227.512,490.932z"/>
		<g>
			<g>
				<path fill="#6B7980" d="M243.89,490.769l-16.378,0.163c-3.032,0.037-6.173,0.077-9.392,0.118
					c-0.009-0.214-0.024-0.41-0.03-0.628c-0.672-21.837,22.525-25.884,22.525-25.884S246.286,473.989,243.89,490.769z"/>
				<path fill="#6B7980" d="M168.392,491.049c-10.163-0.032-11.762-0.222-20.662-0.222c-18.979,0-28.573-3.505-28.573-3.505
					c0.907-3.229,3.578-8.713,11.292-8.354c0,0-0.534,5,9.006,5.247c2.093,0.054,14.657,0.013,17.276,0.013
					C164.376,484.228,168.392,487.812,168.392,491.049z"/>
			</g>
		</g>
		<g>
			<path fill="#D8D8D8" d="M118.535,487.207l-1.542,8.181c0,0,8.579,3.278,30.291,4.169c28.028,1.147,63.675-0.298,97.813-0.298
				l-0.197-8.504c-24.285,0-65.124,1.265-97.17,0.073C126.396,490.035,118.535,487.207,118.535,487.207z"/>
			<path fill="#C0C2C2" d="M176.028,465.53c0.687,0.668,1.772,0.636,2.421-0.07l0,0c0.651-0.707,0.621-1.82-0.067-2.49l-6.32-6.142
				c-0.688-0.669-1.771-0.638-2.421,0.069l0,0c-0.651,0.707-0.62,1.821,0.067,2.489L176.028,465.53z"/>
			<path fill="#C0C2C2" d="M180.902,459.063c0.687,0.668,1.772,0.636,2.421-0.07l0,0c0.651-0.707,0.621-1.821-0.067-2.49
				l-6.32-6.142c-0.688-0.669-1.771-0.639-2.421,0.068l0,0c-0.651,0.707-0.62,1.821,0.067,2.49L180.902,459.063z"/>
			<path fill="#C0C2C2" d="M185.327,450.865c0.687,0.668,1.772,0.636,2.421-0.07l0,0c0.651-0.707,0.621-1.82-0.067-2.49l-6.32-6.142
				c-0.688-0.669-1.771-0.638-2.421,0.069l0,0c-0.651,0.707-0.62,1.821,0.067,2.49L185.327,450.865z"/>
			<path fill="#C0C2C2" d="M169.542,469.437c0.688,0.668,1.771,0.637,2.422-0.069l0,0c0.65-0.707,0.62-1.821-0.067-2.488
				l-5.582-5.509c-0.688-0.668-1.771-0.636-2.422,0.069l0,0c-0.651,0.706-0.62,1.821,0.068,2.489L169.542,469.437z"/>
			<path fill="#C0C2C2" d="M163.055,473.344c0.688,0.668,1.772,0.637,2.422-0.071l0,0c0.651-0.706,0.621-1.819-0.066-2.488
				l-5.247-5.274c-0.688-0.668-1.772-0.636-2.422,0.069l0,0c-0.65,0.706-0.62,1.822,0.068,2.49L163.055,473.344z"/>
			<path fill="#C0C2C2" d="M156.569,477.253c0.687,0.668,1.771,0.636,2.421-0.07l0,0c0.651-0.706,0.62-1.82-0.068-2.489
				l-5.468-5.278c-0.688-0.667-1.772-0.637-2.422,0.07l0,0c-0.65,0.707-0.621,1.82,0.068,2.488L156.569,477.253z"/>
			<path fill="#C0C2C2" d="M148.164,480.479c0.687,0.669,1.772,0.639,2.422-0.068l0,0c0.65-0.706,0.62-1.821-0.067-2.489
				l-4.669-4.539c-0.688-0.667-1.773-0.638-2.423,0.069l0,0c-0.65,0.707-0.619,1.822,0.068,2.49L148.164,480.479z"/>
			<path fill="#C0C2C2" d="M140.335,482.084c0.688,0.668,1.772,0.637,2.422-0.07l0,0c0.65-0.706,0.619-1.82-0.068-2.489
				l-4.054-4.077c-0.688-0.667-1.772-0.636-2.421,0.071l0,0c-0.65,0.706-0.621,1.82,0.067,2.487L140.335,482.084z"/>
			<g>
				<path fill="#D8D8D8" d="M202.309,478.45l-12.546-13.24l7.272,0.964l11.568,12.205
					C206.529,478.403,204.427,478.426,202.309,478.45z"/>
				<path fill="#D8D8D8" d="M186.646,472.906l11.634,12.314c-2.1,0.016-4.208,0.031-6.32,0.043l-12.274-12.992L186.646,472.906z"/>
			</g>
		</g>
	</g>
</g>
<path fill="#6B7980" d="M240.706,464.41c-10.112,4.972-15.541-9.972-11.877-19.913c3.662-9.938,9.185-11.412,11.482-7.233
	C242.575,441.383,240.706,464.41,240.706,464.41z"/>
<polygon fill="#EFEFEF" points="325.613,461.816 265.099,462.16 265.671,437.277 313.822,437.552 "/>
<rect x="265.671" y="437.277" fill="#D8D8D8" width="44.785" height="5.197"/>
<g>
	<path fill="#6B7980" d="M304.842,451.19c0.729-0.451,1.446-0.933,2.133-1.475c8.073-6.372,8.728-7.19,8.728-7.19
		s10.738,23.185,28.135,32.597c2.846,1.538,11.738,1.218,19.532,3.121c-23.572-7.28-41.759-28.157-47.23-40.69
		c-1.112-2.548-5.481-2.144-6.099-1.301C306.777,440.728,304.842,451.19,304.842,451.19L304.842,451.19z"/>
</g>
<g>
	<g>
		<path fill="#EFEFEF" d="M272.706,490.932c24.398,0.3,55.724,0.791,79.781-0.104c15.18-0.565,22.747-2.459,28.573-3.505
			c-0.907-3.229-3.578-8.713-11.292-8.354c-4.327,0.2-11.577-1.723-19.06-4.769c-14.542-5.919-31.045-24.32-31.045-24.32
			s0.664,1.472-6.528,6.382c-12.718,8.683-37.271,3.047-41.746-1.09c-4.473-4.137-11.482-3.819-11.482-3.819l-0.305,13.185
			c0,0-5.671,9.453-3.275,26.232L272.706,490.932z"/>
		<g>
			<g>
				<path fill="#6B7980" d="M256.328,490.769l16.378,0.163c3.032,0.037,6.173,0.077,9.392,0.118c0.009-0.214,0.024-0.41,0.03-0.628
					c0.672-21.837-22.525-25.884-22.525-25.884S253.932,473.989,256.328,490.769z"/>
				<path fill="#6B7980" d="M331.826,491.049c10.163-0.032,11.762-0.222,20.662-0.222c18.979,0,28.573-3.505,28.573-3.505
					c-0.907-3.229-3.578-8.713-11.292-8.354c0,0,0.534,5-9.006,5.247c-2.093,0.054-14.657,0.013-17.276,0.013
					C335.842,484.228,331.826,487.812,331.826,491.049z"/>
			</g>
		</g>
		<g>
			<path fill="#D8D8D8" d="M381.683,487.207l1.542,8.181c0,0-8.579,3.278-30.291,4.169c-28.028,1.147-63.675-0.298-97.813-0.298
				l0.197-8.504c24.285,0,65.124,1.265,97.17,0.073C373.822,490.035,381.683,487.207,381.683,487.207z"/>
			<path fill="#C0C2C2" d="M324.189,465.53c-0.687,0.668-1.772,0.636-2.421-0.07l0,0c-0.651-0.707-0.621-1.82,0.067-2.49l6.32-6.142
				c0.688-0.669,1.771-0.638,2.421,0.069l0,0c0.651,0.707,0.62,1.821-0.067,2.489L324.189,465.53z"/>
			<path fill="#C0C2C2" d="M319.316,459.063c-0.687,0.668-1.772,0.636-2.421-0.07l0,0c-0.651-0.707-0.621-1.821,0.067-2.49
				l6.32-6.142c0.688-0.669,1.771-0.639,2.421,0.068l0,0c0.651,0.707,0.62,1.821-0.067,2.49L319.316,459.063z"/>
			<path fill="#C0C2C2" d="M314.891,450.865c-0.687,0.668-1.772,0.636-2.421-0.07l0,0c-0.651-0.707-0.621-1.82,0.067-2.49
				l6.32-6.142c0.688-0.669,1.771-0.638,2.421,0.069l0,0c0.651,0.707,0.62,1.821-0.067,2.49L314.891,450.865z"/>
			<path fill="#C0C2C2" d="M330.676,469.437c-0.688,0.668-1.771,0.637-2.422-0.069l0,0c-0.65-0.707-0.62-1.821,0.067-2.488
				l5.582-5.509c0.688-0.668,1.771-0.636,2.422,0.069l0,0c0.651,0.706,0.62,1.821-0.068,2.489L330.676,469.437z"/>
			<path fill="#C0C2C2" d="M337.163,473.344c-0.688,0.668-1.772,0.637-2.422-0.071l0,0c-0.651-0.706-0.621-1.819,0.066-2.488
				l5.247-5.274c0.688-0.668,1.772-0.636,2.422,0.069l0,0c0.65,0.706,0.62,1.822-0.068,2.49L337.163,473.344z"/>
			<path fill="#C0C2C2" d="M343.648,477.253c-0.687,0.668-1.771,0.636-2.421-0.07l0,0c-0.651-0.706-0.62-1.82,0.068-2.489
				l5.468-5.278c0.688-0.667,1.772-0.637,2.422,0.07l0,0c0.65,0.707,0.621,1.82-0.068,2.488L343.648,477.253z"/>
			<path fill="#C0C2C2" d="M352.054,480.479c-0.687,0.669-1.772,0.639-2.422-0.068l0,0c-0.65-0.706-0.62-1.821,0.067-2.489
				l4.669-4.539c0.688-0.667,1.773-0.638,2.423,0.069l0,0c0.65,0.707,0.619,1.822-0.068,2.49L352.054,480.479z"/>
			<path fill="#C0C2C2" d="M359.883,482.084c-0.688,0.668-1.772,0.637-2.422-0.07l0,0c-0.65-0.706-0.619-1.82,0.068-2.489
				l4.054-4.077c0.688-0.667,1.772-0.636,2.421,0.071l0,0c0.65,0.706,0.621,1.82-0.067,2.487L359.883,482.084z"/>
			<g>
				<path fill="#D8D8D8" d="M297.909,478.45l12.546-13.24l-7.272,0.964l-11.568,12.205
					C293.689,478.403,295.791,478.426,297.909,478.45z"/>
				<path fill="#D8D8D8" d="M313.572,472.906l-11.634,12.314c2.1,0.016,4.208,0.031,6.32,0.043l12.274-12.992L313.572,472.906z"/>
			</g>
		</g>
	</g>
</g>
<path fill="#6B7980" d="M259.512,464.41c10.112,4.972,15.541-9.972,11.877-19.913c-3.662-9.938-9.185-11.412-11.482-7.233
	C257.643,441.383,259.512,464.41,259.512,464.41z"/>
</svg>
