<?xml version="1.0" encoding="utf-8"?>
<!-- Generator: Adobe Illustrator 16.0.1, SVG Export Plug-In . SVG Version: 6.00 Build 0)  -->
<!DOCTYPE svg PUBLIC "-//W3C//DTD SVG 1.1//EN" "http://www.w3.org/Graphics/SVG/1.1/DTD/svg11.dtd">
<svg version="1.1" id="content" xmlns="http://www.w3.org/2000/svg" xmlns:xlink="http://www.w3.org/1999/xlink" x="0px" y="0px"
	 width="500px" height="500px" viewBox="0 0 500 500" enable-background="new 0 0 500 500" xml:space="preserve">
<polygon fill="#EFEFEF" points="222.156,244.19 385.539,245.246 383.994,168.841 253.99,169.684 "/>
<path fill="#969797" d="M395.225,167.25c0-6.121-32.008-11.083-71.492-11.083c-39.482,0-71.49,4.962-71.49,11.083
	s32.008,16.25,71.49,16.25C363.217,183.5,395.225,173.371,395.225,167.25z"/>
<path fill="none" stroke="#D8D8D8" stroke-width="13" stroke-miterlimit="10" d="M258.909,171.269
	c0,7.128,30.516,18.924,68.157,18.924c37.643,0,63.434-9.897,63.434-17.026"/>
<rect id="position" x="0" display="none" fill="none" stroke="#000000" width="500" height="500"/>
<g id="bounds" display="none">
	<rect x="0.2" y="80.2" display="inline" fill="none" stroke="#EAEAEA" stroke-miterlimit="10" width="499.496" height="499.5"/>
</g>
<g>
	<g>
		<g>
			<path fill="#6B7980" d="M278.317,211.882c-1.976-1.341-3.917-2.784-5.775-4.413c-21.859-19.223-23.618-21.834-23.621-21.8
				c0.029-0.362-29.031,71.984-76.286,97.552c-7.721,4.152-31.794,1.443-52.794,4.314c63.672-13.086,113.236-79.153,127.896-117.064
				c2.999-7.791,14.793-6.552,16.466-3.984C273.028,180.152,278.317,211.891,278.317,211.882L278.317,211.882z"/>
		</g>
		<g>
			<g>
				<path fill="#EFEFEF" d="M365.462,323.169c-65.516,12.779-151.357,16.164-216.371,4.804
					c-41.021-6.859-61.174-16.843-76.714-22.771c2.423-8.264,9.542-21.837,30.254-17.893c11.611,2.279,31.153-0.687,51.422-8.175
					c39.424-14.143,84.208-71.053,84.166-70.971c0.003-0.024-1.805,4.553,17.676,19.446c34.521,26.687,100.857,5.292,112.823-7.267
					c12.023-12.525,30.894-12.604,30.89-12.663c0.288,12.076,0.574,24.137,0.86,36.185c0.021,0.287,15.196,23.652,8.803,70.141
					C394.746,317.486,380.136,320.542,365.462,323.169z"/>
				<g>
					<g>
						<path fill="#6B7980" d="M409.268,314.006c-14.523,3.479-29.133,6.535-43.806,9.163c-8.15,1.479-16.61,2.883-25.301,4.169
							c-0.027-0.626-0.069-1.196-0.087-1.834c-1.964-64.312,60.445-81.481,60.391-81.638
							C400.487,244.154,415.661,267.513,409.268,314.006z"/>
						<path fill="#6B7980" d="M205.127,333.263c-27.612-1.608-31.953-2.646-56.038-5.292c-51.298-6.637-76.679-23.175-76.717-22.772
							c2.425-8.264,9.543-21.836,30.257-17.892c0.013-0.075-1.499,14.088,24.185,18.43c5.614,1.124,39.581,4.604,46.701,4.92
							C194.239,312.182,205.142,323.358,205.127,333.263z"/>
					</g>
				</g>
				<g>
					<path fill="#D8D8D8" d="M70.718,304.533c-1.372,7.116-2.741,14.184-4.105,21.2c0.068-0.574,22.542,16.253,81.193,27.916
						c75.657,14.857,174.119,7.698,264.673-17.465c-0.174-7.605-0.349-15.218-0.524-22.837
						c-64.247,16.659-176.108,30.506-262.865,14.625C91.459,318.035,70.776,304.049,70.718,304.533z"/>
					<path fill="#C0C2C2" d="M225.941,255.951c1.863,2.06,4.805,1.983,6.567-0.166l0,0c1.764-2.154,1.682-5.558-0.181-7.614
						c-5.708-6.286-11.411-12.598-17.108-18.916c-1.859-2.063-4.791-2.007-6.555,0.118l0,0c-1.766,2.123-1.687,5.515,0.172,7.584
						C214.532,243.298,220.235,249.637,225.941,255.951z"/>
					<path fill="#C0C2C2" d="M239.156,236.241c1.862,2.047,4.802,1.943,6.558-0.223l0,0c1.764-2.168,1.681-5.574-0.183-7.613
						c-5.706-6.241-11.408-12.512-17.104-18.792c-1.859-2.052-4.789-1.976-6.55,0.171l0,0c-1.764,2.148-1.683,5.549,0.176,7.607
						C227.749,223.688,233.45,229.979,239.156,236.241z"/>
					<path fill="#C0C2C2" d="M251.132,211.152c1.858,2.033,4.795,1.917,6.55-0.251l0,0c1.758-2.172,1.676-5.569-0.188-7.604
						c-5.703-6.22-11.402-12.469-17.096-18.729c-1.858-2.045-4.785-1.95-6.543,0.209l0,0c-1.758,2.16-1.678,5.562,0.181,7.61
						C239.729,198.657,245.428,204.918,251.132,211.152z"/>
					<path fill="#C0C2C2" d="M208.345,267.567c1.861,2.084,4.799,2.058,6.568-0.062l0,0c1.763-2.122,1.687-5.525-0.175-7.594
						c-5.038-5.695-10.072-11.404-15.102-17.109c-1.858-2.077-4.791-2.053-6.559,0.033l0,0c-1.766,2.089-1.69,5.464,0.17,7.551
						C198.276,256.114,203.308,261.846,208.345,267.567z"/>
					<path fill="#C0C2C2" d="M190.735,278.828c1.862,2.106,4.802,2.142,6.567,0.059l0,0c1.77-2.077,1.693-5.465-0.164-7.562
						c-4.732-5.509-9.459-11.021-14.183-16.523c-1.86-2.094-4.794-2.117-6.558-0.076l0,0c-1.766,2.045-1.692,5.402,0.164,7.507
						C181.282,267.757,186.007,273.294,190.735,278.828z"/>
					<path fill="#C0C2C2" d="M173.131,289.657c1.857,2.134,4.795,2.229,6.56,0.203l0,0c1.771-2.024,1.694-5.393-0.165-7.513
						c-4.925-5.584-9.846-11.165-14.762-16.729c-1.857-2.107-4.79-2.196-6.552-0.207l0,0c-1.765,1.987-1.696,5.298,0.161,7.423
						C163.287,278.428,168.206,284.04,173.131,289.657z"/>
					<path fill="#C0C2C2" d="M150.358,297.443c1.85,2.166,4.785,2.355,6.55,0.406l0,0c1.763-1.945,1.694-5.282-0.16-7.425
						c-4.196-4.858-8.389-9.706-12.579-14.535c-1.852-2.129-4.781-2.295-6.543-0.387l0,0c-1.762,1.91-1.688,5.181,0.162,7.326
						C141.974,287.683,146.164,292.557,150.358,297.443z"/>
					<path fill="#C0C2C2" d="M129.205,299.838c1.847,2.178,4.771,2.448,6.533,0.579l0,0c1.759-1.866,1.688-5.148-0.161-7.311
						c-3.634-4.383-7.266-8.75-10.896-13.096c-1.85-2.14-4.771-2.369-6.522-0.541l0,0c-1.757,1.828-1.688,5.036,0.158,7.191
						C121.944,291.033,125.573,295.427,129.205,299.838z"/>
					<g>
						<path fill="#D8D8D8" d="M297.263,293.812c-11.368-12.648-22.734-25.7-34.084-38.974c6.572,0.869,13.144,1.689,19.713,2.454
							c10.47,12.015,20.948,23.776,31.422,35.144C308.698,292.941,303.005,293.397,297.263,293.812z"/>
						<path fill="#D8D8D8" d="M254.744,278.467c10.532,12.396,21.08,24.596,31.633,36.455c-5.699,0.368-11.427,0.671-17.164,0.909
							c-11.134-12.805-22.256-25.931-33.357-39.207C242.152,277.291,248.448,277.906,254.744,278.467z"/>
					</g>
				</g>
			</g>
		</g>
		<path fill="#6B7980" d="M400.711,243.486c-27.092,17.39-41.884-24.598-32.078-53.658c9.797-28.715,24.718-32.315,30.93-20.912
			C405.682,180.103,400.701,243.326,400.711,243.486z"/>
	</g>
</g>
</svg>
