<?xml version="1.0" encoding="utf-8"?>
<!-- Generator: Adobe Illustrator 16.0.1, SVG Export Plug-In . SVG Version: 6.00 Build 0)  -->
<!DOCTYPE svg PUBLIC "-//W3C//DTD SVG 1.1//EN" "http://www.w3.org/Graphics/SVG/1.1/DTD/svg11.dtd">
<svg version="1.1" id="Layer_1" xmlns="http://www.w3.org/2000/svg" xmlns:xlink="http://www.w3.org/1999/xlink" x="0px" y="0px"
	 width="500px" height="500px" viewBox="0 0 500 500" enable-background="new 0 0 500 500" xml:space="preserve">
<g>
	<g>
		<path id="XMLID_58_" fill="#FBC9C3" d="M238.82,489.452l-82.476,2.246c0,0-7.158,3.255-6.939-5.4
			c-0.274-13.195,32.989-20.963,41.605-21.512c15.395-1.23,34.98,3.089,45.388,2.025C244.646,477.639,238.82,489.452,238.82,489.452
			z"/>
		<path fill="#FBC9C3" d="M172.036,473.721c15.468-0.904,24.928,3.583,28.252,13.373c17.268,0.875,34.447-0.216,39.257-0.512
			c2.236,3.891,0.729,9.713-0.725,11.372c-0.644,0.616-57.116,3.44-90.283,1.188C146.635,492.787,143.59,475.385,172.036,473.721z"
			/>
		<path fill="#FBC9C3" d="M171.948,469.032c12.042-2.715,32.044,0.128,39.087,5.297c1.357-0.145,4.739-0.804,6.078-1.582
			c-7.659-6.124-27.659-8.083-38.858-5.974C175.844,467.14,172.426,468.23,171.948,469.032z"/>
		<path fill="#FBC9C3" d="M166.942,470.639c-2.464,0.372-6.883,1.82-6.627,3.146c20.716-4.771,36.61,1.589,39.758,3.498
			c1.771-0.16,6.523-1.463,7.392-2.011C204.54,472.977,187.286,467.576,166.942,470.639z"/>
	</g>
	<g>
		<path id="XMLID_56_" fill="#1681A8" d="M238.82,489.452l-82.476,2.246c0,0-7.158,3.255-6.939-5.4
			c-0.274-13.195,32.989-20.963,41.605-21.512c15.395-1.23,34.98,3.089,45.388,2.025C244.646,477.639,238.82,489.452,238.82,489.452
			z"/>
		<path fill="#C4C4C4" d="M172.036,473.721c15.468-0.904,24.928,3.583,28.252,13.373c17.268,0.875,34.447-0.216,39.257-0.512
			c2.236,3.891,0.729,9.713-0.725,11.372c-0.644,0.616-57.116,3.44-90.283,1.188C146.635,492.787,143.59,475.385,172.036,473.721z"
			/>
		<path fill="#C4C4C4" d="M171.948,469.032c12.042-2.715,32.044,0.128,39.087,5.297c1.357-0.145,4.739-0.804,6.078-1.582
			c-7.659-6.124-27.659-8.083-38.858-5.974C175.844,467.14,172.426,468.23,171.948,469.032z"/>
		<path fill="#C4C4C4" d="M166.942,470.639c-2.464,0.372-6.883,1.82-6.627,3.146c20.716-4.771,36.61,1.589,39.758,3.498
			c1.771-0.16,6.523-1.463,7.392-2.011C204.54,472.977,187.286,467.576,166.942,470.639z"/>
	</g>
</g>
<g>
	<g>
		<path id="XMLID_2_" fill="#FBC9C3" d="M258.862,489.452l82.476,2.246c0,0,7.157,3.255,6.939-5.4
			c0.274-13.195-32.989-20.963-41.605-21.512c-15.395-1.23-34.98,3.089-45.388,2.025
			C253.035,477.639,258.862,489.452,258.862,489.452z"/>
		<path fill="#FBC9C3" d="M325.646,473.721c-15.468-0.904-24.929,3.583-28.252,13.373c-17.269,0.875-34.446-0.216-39.257-0.512
			c-2.236,3.891-0.729,9.713,0.725,11.372c0.645,0.616,57.116,3.44,90.283,1.188C351.047,492.787,354.092,475.385,325.646,473.721z"
			/>
		<path fill="#FBC9C3" d="M325.733,469.032c-12.041-2.715-32.043,0.128-39.086,5.297c-1.357-0.145-4.739-0.804-6.078-1.582
			c7.658-6.124,27.658-8.083,38.857-5.974C321.838,467.14,325.256,468.23,325.733,469.032z"/>
		<path fill="#FBC9C3" d="M330.74,470.639c2.464,0.372,6.884,1.82,6.627,3.146c-20.716-4.771-36.61,1.589-39.759,3.498
			c-1.771-0.16-6.523-1.463-7.391-2.011C293.142,472.977,310.395,467.576,330.74,470.639z"/>
	</g>
	<g>
		<path id="XMLID_1_" fill="#1681A8" d="M258.862,489.452l82.476,2.246c0,0,7.157,3.255,6.939-5.4
			c0.274-13.195-32.989-20.963-41.605-21.512c-15.395-1.23-34.98,3.089-45.388,2.025
			C253.035,477.639,258.862,489.452,258.862,489.452z"/>
		<path fill="#C4C4C4" d="M325.646,473.721c-15.468-0.904-24.929,3.583-28.252,13.373c-17.269,0.875-34.446-0.216-39.257-0.512
			c-2.236,3.891-0.729,9.713,0.725,11.372c0.645,0.616,57.116,3.44,90.283,1.188C351.047,492.787,354.092,475.385,325.646,473.721z"
			/>
		<path fill="#C4C4C4" d="M325.733,469.032c-12.041-2.715-32.043,0.128-39.086,5.297c-1.357-0.145-4.739-0.804-6.078-1.582
			c7.658-6.124,27.658-8.083,38.857-5.974C321.838,467.14,325.256,468.23,325.733,469.032z"/>
		<path fill="#C4C4C4" d="M330.74,470.639c2.464,0.372,6.884,1.82,6.627,3.146c-20.716-4.771-36.61,1.589-39.759,3.498
			c-1.771-0.16-6.523-1.463-7.391-2.011C293.142,472.977,310.395,467.576,330.74,470.639z"/>
	</g>
</g>
</svg>
