<?xml version="1.0" encoding="utf-8"?>
<!-- Generator: Adobe Illustrator 16.0.1, SVG Export Plug-In . SVG Version: 6.00 Build 0)  -->
<!DOCTYPE svg PUBLIC "-//W3C//DTD SVG 1.1//EN" "http://www.w3.org/Graphics/SVG/1.1/DTD/svg11.dtd">
<svg version="1.1" id="Layer_1" xmlns="http://www.w3.org/2000/svg" xmlns:xlink="http://www.w3.org/1999/xlink" x="0px" y="0px"
	 width="500px" height="500px" viewBox="0 0 500 500" enable-background="new 0 0 500 500" xml:space="preserve">
<g id="clothes">
</g>
<path display="none" fill="#CAD7D7" d="M251.227,5.982V5.971c-0.098,0-0.191,0.006-0.291,0.006c-0.098,0-0.191-0.006-0.291-0.006
	v0.012c-57.167,0.245-103.41,36.321-103.41,80.807v109.924H252.96h101.662V86.789C354.621,42.303,308.393,6.228,251.227,5.982z
	 M331.764,134.667H173.479V98.992h0.072c1.5-35.169,36.451-63.305,79.375-63.305c43.877,0,79.447,29.396,79.447,65.655
	c0,3.705-0.219,7.191-0.609,10.493V134.667z"/>
<rect x="147.235" y="180" display="none" fill="#A2AEAE" width="207.389" height="16.713"/>
<g>
	<g>
		<path fill="#8596A0" d="M270.84,493.199c25.238,0.271,57.643,0.718,82.529-0.095c15.701-0.513,23.529-2.232,29.555-3.182
			c-0.938-2.93-3.701-7.907-11.682-7.582c-4.476,0.182-11.975-1.563-19.715-4.328c-15.043-5.372-31.428-20.736-31.428-20.736
			s0,0-7.438,4.456c-13.155,7.881-38.554,2.766-43.183-0.989c-4.626-3.755-11.877-3.467-11.877-3.467l-0.315,11.967
			c0,0-5.866,8.579-3.388,23.808L270.84,493.199z"/>
		<g>
			<g>
				<path fill="#1F1A3B" d="M253.899,493.051l16.941,0.148c3.138,0.033,6.386,0.069,9.717,0.106c0.009-0.194,0.023-0.372,0.031-0.57
					c0.693-19.819-23.302-23.492-23.302-23.492S251.42,477.822,253.899,493.051z"/>
				<path fill="#1F1A3B" d="M331.996,493.306c10.513-0.028,12.166-0.201,21.373-0.201c19.631,0,29.555-3.182,29.555-3.182
					c-0.938-2.93-3.701-7.907-11.682-7.582c0,0,0.553,4.538-9.315,4.762c-2.165,0.049-15.161,0.012-17.87,0.012
					C336.149,487.114,331.996,490.368,331.996,493.306z"/>
			</g>
			<g>
				<path fill="#1F1A3B" d="M310.696,462.764c0.673-0.315,1.334-0.652,1.966-1.031c7.438-4.456,7.438-4.456,7.438-4.456
					s10.498,15.642,26.528,22.224c2.623,1.076,10.815,0.852,17.997,2.183c-21.72-5.091-38.477-19.691-43.519-28.456
					c-1.024-1.782-5.052-1.5-5.619-0.91C312.479,455.447,310.696,462.764,310.696,462.764L310.696,462.764z"/>
				<path fill="#1F1A3B" d="M257.194,469.585c10.461,2.208,16.075-4.428,12.285-8.842c-3.787-4.413-9.501-5.067-11.877-3.212
					C255.259,459.36,257.194,469.585,257.194,469.585z"/>
			</g>
		</g>
		<g>
			<path fill="#D8D8D8" d="M383.569,489.818l1.595,7.425c0,0-8.874,2.976-31.333,3.784c-28.993,1.041-65.867-0.271-101.18-0.271
				l0.203-7.719c25.121,0,67.365,1.148,100.516,0.066C375.438,492.385,383.569,489.818,383.569,489.818z"/>
			<path fill="#C0C2C2" d="M324.097,470.145c-0.711,0.606-1.833,0.577-2.505-0.063l0,0c-0.674-0.642-0.643-1.652,0.069-2.26
				l6.537-5.574c0.712-0.607,1.833-0.579,2.505,0.062l0,0c0.674,0.642,0.643,1.653-0.068,2.26L324.097,470.145z"/>
			<path fill="#C0C2C2" d="M330.807,473.69c-0.713,0.606-1.834,0.578-2.506-0.063l0,0c-0.672-0.642-0.641-1.652,0.069-2.258l5.774-5
				c0.711-0.606,1.832-0.577,2.504,0.062l0,0c0.674,0.642,0.643,1.653-0.069,2.26L330.807,473.69z"/>
			<path fill="#C0C2C2" d="M337.516,477.236c-0.711,0.607-1.832,0.578-2.506-0.063l0,0c-0.672-0.641-0.641-1.651,0.07-2.259
				l5.426-4.787c0.711-0.606,1.833-0.577,2.506,0.063l0,0c0.672,0.641,0.641,1.653-0.07,2.259L337.516,477.236z"/>
			<path fill="#C0C2C2" d="M344.225,480.784c-0.711,0.606-1.832,0.577-2.504-0.063l0,0c-0.674-0.641-0.643-1.652,0.068-2.26
				l5.658-4.79c0.711-0.606,1.834-0.578,2.505,0.063l0,0c0.673,0.642,0.642,1.652-0.069,2.259L344.225,480.784z"/>
			<path fill="#C0C2C2" d="M352.92,483.713c-0.711,0.607-1.834,0.58-2.506-0.062l0,0c-0.674-0.641-0.642-1.652,0.069-2.259
				l4.83-4.12c0.712-0.605,1.833-0.578,2.507,0.063l0,0c0.672,0.642,0.641,1.653-0.071,2.26L352.92,483.713z"/>
			<path fill="#C0C2C2" d="M361.018,485.169c-0.711,0.606-1.834,0.578-2.506-0.063l0,0c-0.672-0.641-0.641-1.651,0.07-2.259
				l4.193-3.7c0.711-0.605,1.832-0.577,2.506,0.064l0,0c0.672,0.641,0.641,1.652-0.07,2.258L361.018,485.169z"/>
			<g>
				<path fill="#D8D8D8" d="M296.785,484.657l12.979-12.017l-7.523,0.875l-11.966,11.077
					C292.421,484.615,294.596,484.636,296.785,484.657z"/>
				<path fill="#D8D8D8" d="M313.354,477.132l-12.035,11.176c2.172,0.015,4.354,0.028,6.538,0.039l12.697-11.791L313.354,477.132z"
					/>
			</g>
		</g>
	</g>
</g>
<g>
	<g>
		<path fill="#8596A0" d="M230.963,493.199c-24.972,0.271-57.034,0.718-81.658-0.095c-15.537-0.513-23.282-2.232-29.245-3.182
			c0.928-2.93,3.662-7.907,11.558-7.582c4.429,0.182,11.849-1.563,19.508-4.328c14.884-5.372,31.096-20.736,31.096-20.736
			s0,0,7.36,4.456c13.017,7.881,38.148,2.766,42.728-0.989c4.578-3.755,11.752-3.467,11.752-3.467l0.312,11.967
			c0,0,5.804,8.579,3.352,23.808L230.963,493.199z"/>
		<g>
			<g>
				<path fill="#1F1A3B" d="M247.726,493.051l-16.764,0.148c-3.104,0.033-6.318,0.069-9.613,0.106
					c-0.009-0.194-0.024-0.372-0.031-0.57c-0.688-19.819,23.055-23.492,23.055-23.492S250.178,477.822,247.726,493.051z"/>
				<path fill="#1F1A3B" d="M170.452,493.306c-10.402-0.028-12.039-0.201-21.147-0.201c-19.425,0-29.245-3.182-29.245-3.182
					c0.928-2.93,3.662-7.907,11.558-7.582c0,0-0.546,4.538,9.218,4.762c2.142,0.049,15.001,0.012,17.683,0.012
					C166.342,487.114,170.452,490.368,170.452,493.306z"/>
			</g>
			<g>
				<path fill="#1F1A3B" d="M191.527,462.764c-0.665-0.315-1.318-0.652-1.944-1.031c-7.36-4.456-7.36-4.456-7.36-4.456
					s-10.388,15.642-26.249,22.224c-2.595,1.076-10.702,0.852-17.808,2.183c21.491-5.091,38.073-19.691,43.061-28.456
					c1.014-1.782,4.998-1.5,5.56-0.91C189.763,455.447,191.527,462.764,191.527,462.764L191.527,462.764z"/>
				<path fill="#1F1A3B" d="M244.467,469.585c-10.35,2.208-15.906-4.428-12.157-8.842c3.749-4.413,9.401-5.067,11.752-3.212
					C246.381,459.36,244.467,469.585,244.467,469.585z"/>
			</g>
		</g>
		<g>
			<path fill="#D8D8D8" d="M119.422,489.818l-1.578,7.425c0,0,8.78,2.976,31.003,3.784c28.688,1.041,65.173-0.271,100.114-0.271
				l-0.201-7.719c-24.856,0-66.656,1.148-99.456,0.066C127.468,492.385,119.422,489.818,119.422,489.818z"/>
			<path fill="#C0C2C2" d="M178.268,470.145c0.703,0.606,1.813,0.577,2.478-0.063l0,0c0.667-0.642,0.635-1.652-0.069-2.26
				l-6.469-5.574c-0.704-0.607-1.813-0.579-2.479,0.062l0,0c-0.666,0.642-0.635,1.653,0.069,2.26L178.268,470.145z"/>
			<path fill="#C0C2C2" d="M171.629,473.69c0.704,0.606,1.813,0.578,2.479-0.063l0,0c0.665-0.642,0.635-1.652-0.068-2.258l-5.713-5
				c-0.704-0.606-1.813-0.577-2.479,0.062l0,0c-0.666,0.642-0.635,1.653,0.069,2.26L171.629,473.69z"/>
			<path fill="#C0C2C2" d="M164.99,477.236c0.704,0.607,1.813,0.578,2.479-0.063l0,0c0.666-0.641,0.635-1.651-0.068-2.259
				l-5.37-4.787c-0.704-0.606-1.814-0.577-2.479,0.063l0,0c-0.666,0.641-0.635,1.653,0.07,2.259L164.99,477.236z"/>
			<path fill="#C0C2C2" d="M158.351,480.784c0.703,0.606,1.813,0.577,2.479-0.063l0,0c0.666-0.641,0.635-1.652-0.069-2.26
				l-5.597-4.79c-0.704-0.606-1.814-0.578-2.479,0.063l0,0c-0.666,0.642-0.635,1.652,0.069,2.259L158.351,480.784z"/>
			<path fill="#C0C2C2" d="M149.749,483.713c0.703,0.607,1.814,0.58,2.479-0.062l0,0c0.666-0.641,0.635-1.652-0.069-2.259
				l-4.779-4.12c-0.704-0.605-1.814-0.578-2.48,0.063l0,0c-0.666,0.642-0.633,1.653,0.07,2.26L149.749,483.713z"/>
			<path fill="#C0C2C2" d="M141.735,485.169c0.704,0.606,1.814,0.578,2.479-0.063l0,0c0.665-0.641,0.634-1.651-0.069-2.259
				l-4.149-3.7c-0.704-0.605-1.814-0.577-2.479,0.064l0,0c-0.666,0.641-0.635,1.652,0.069,2.258L141.735,485.169z"/>
			<g>
				<path fill="#D8D8D8" d="M205.291,484.657l-12.842-12.017l7.444,0.875l11.84,11.077
					C209.61,484.615,207.459,484.636,205.291,484.657z"/>
				<path fill="#D8D8D8" d="M188.898,477.132l11.908,11.176c-2.149,0.015-4.307,0.028-6.469,0.039l-12.563-11.791L188.898,477.132z"
					/>
			</g>
		</g>
	</g>
</g>
</svg>
