<?xml version="1.0" encoding="utf-8"?>
<!-- Generator: Adobe Illustrator 16.0.1, SVG Export Plug-In . SVG Version: 6.00 Build 0)  -->
<!DOCTYPE svg PUBLIC "-//W3C//DTD SVG 1.1//EN" "http://www.w3.org/Graphics/SVG/1.1/DTD/svg11.dtd">
<svg version="1.1" id="Layer_1" xmlns="http://www.w3.org/2000/svg" xmlns:xlink="http://www.w3.org/1999/xlink" x="0px" y="0px"
	 width="500px" height="500px" viewBox="0 0 500 500" enable-background="new 0 0 500 500" xml:space="preserve">
<g id="clothes">
</g>
<path display="none" fill="#CAD7D7" d="M251.227,5.982V5.971c-0.098,0-0.192,0.006-0.291,0.006c-0.098,0-0.192-0.006-0.291-0.006
	v0.012c-57.167,0.245-103.41,36.321-103.41,80.807v109.924H252.96h101.662V86.789C354.621,42.303,308.393,6.228,251.227,5.982z
	 M331.764,134.667H173.479V98.992h0.072c1.5-35.169,36.451-63.305,79.375-63.305c43.877,0,79.447,29.396,79.447,65.655
	c0,3.705-0.218,7.191-0.609,10.493V134.667z"/>
<rect x="147.235" y="180" display="none" fill="#A2AEAE" width="207.388" height="16.713"/>
<g>
	<path fill="#93C01F" d="M338.362,131.583c-17.383,48.521-70.785,73.743-119.294,56.363
		c-48.501-17.383-73.738-70.805-56.348-119.301c17.378-48.497,70.78-73.733,119.29-56.339
		C330.506,29.676,355.742,83.087,338.362,131.583z"/>
	<path fill="#FDF29D" d="M327.133,127.558c-15.481,43.21-63.055,65.675-106.269,50.209c-43.193-15.498-65.671-63.053-50.189-106.27
		c15.481-43.193,63.054-65.668,106.251-50.198C320.137,36.768,342.606,84.358,327.133,127.558z"/>
	<path opacity="0.33" fill="#CF9C0A" d="M330.54,83.917c-1.663,30.721-20.392,59.319-50.626,72.107
		c-42.269,17.887-91.033-1.89-108.916-44.159c-2.324-5.501-4.003-11.118-5.096-16.758c-0.652,12.223,1.387,24.764,6.465,36.788
		c17.878,42.287,66.638,62.046,108.912,44.169C318.043,160.525,337.779,121.608,330.54,83.917z"/>
	<path opacity="0.45" fill="#FFFFFF" d="M188.795,85.667c14.981-41.793,61.007-63.532,102.793-48.562
		c5.449,1.959,10.545,4.428,15.266,7.367c-8.258-8.492-18.518-15.254-30.415-19.53c-41.79-14.977-87.816,6.773-102.793,48.576
		c-13.016,36.344,1.728,75.882,33.291,95.419C186.165,147.629,178.09,115.562,188.795,85.667z"/>
	<path fill="#351A15" d="M288.362,139.314c-9.66,26.963-39.354,40.991-66.327,31.325c-26.964-9.656-40.995-39.352-31.33-66.325
		c9.66-26.973,39.362-40.998,66.331-31.325C284.004,82.628,298.031,112.331,288.362,139.314z"/>
	<path fill="#12100B" d="M267.344,146.032c-6.396,17.87-26.066,27.146-43.928,20.756c-17.857-6.401-27.159-26.077-20.754-43.936
		c6.4-17.863,26.07-27.146,43.927-20.745C264.463,108.504,273.744,128.173,267.344,146.032z"/>
	<path opacity="0.86" fill="#FFFFFF" d="M244.866,107.538c-2.154,6.002-8.757,9.11-14.752,6.96
		c-6.002-2.15-9.129-8.749-6.987-14.761c2.16-5.991,8.758-9.11,14.761-6.967C243.89,94.92,247.017,101.526,244.866,107.538z"/>
</g>
</svg>
