<?xml version="1.0" encoding="utf-8"?>
<!-- Generator: Adobe Illustrator 16.0.1, SVG Export Plug-In . SVG Version: 6.00 Build 0)  -->
<!DOCTYPE svg PUBLIC "-//W3C//DTD SVG 1.1//EN" "http://www.w3.org/Graphics/SVG/1.1/DTD/svg11.dtd">
<svg version="1.1" id="Layer_1" xmlns="http://www.w3.org/2000/svg" xmlns:xlink="http://www.w3.org/1999/xlink" x="0px" y="0px"
	 width="500px" height="500px" viewBox="0 0 500 500" enable-background="new 0 0 500 500" xml:space="preserve">
<g id="clothes">
</g>
<path display="none" fill="#CAD7D7" d="M251.227,5.982V5.971c-0.098,0-0.192,0.006-0.291,0.006c-0.098,0-0.192-0.006-0.291-0.006
	v0.012c-57.167,0.245-103.41,36.321-103.41,80.807v109.924H252.96h101.662V86.789C354.621,42.303,308.393,6.228,251.227,5.982z
	 M331.764,134.667H173.479V98.992h0.072c1.5-35.169,36.451-63.305,79.375-63.305c43.877,0,79.447,29.396,79.447,65.655
	c0,3.705-0.218,7.191-0.609,10.493V134.667z"/>
<rect x="147.235" y="180" display="none" fill="#A2AEAE" width="207.388" height="16.713"/>
<g>
	<path fill="#D74323" d="M249.999,4.804l-18.451,94.83l18.451,14.567h108.417V99.634C358.416,47.257,309.879,4.804,249.999,4.804z"
		/>
	<path fill="#FF9329" d="M141.584,99.634v14.567h108.415V99.634V4.804C190.116,4.804,141.584,47.257,141.584,99.634z"/>
	<rect x="141.584" y="99.634" fill="#F9732B" width="216.832" height="14.567"/>
	<rect x="223.881" y="-0.736" fill="#F9732B" width="52.231" height="101.976"/>
	<path fill="#FFFFFF" d="M198.398,46.326c0,5.607-4.688,10.138-10.469,10.138c-5.789,0-10.479-4.531-10.479-10.138
		c0-5.611,4.69-10.145,10.479-10.145C193.709,36.182,198.398,40.715,198.398,46.326z"/>
</g>
</svg>
