<?xml version="1.0" encoding="utf-8"?>
<!-- Generator: Adobe Illustrator 16.0.1, SVG Export Plug-In . SVG Version: 6.00 Build 0)  -->
<!DOCTYPE svg PUBLIC "-//W3C//DTD SVG 1.1//EN" "http://www.w3.org/Graphics/SVG/1.1/DTD/svg11.dtd">
<svg version="1.1" id="Layer_1" xmlns="http://www.w3.org/2000/svg" xmlns:xlink="http://www.w3.org/1999/xlink" x="0px" y="0px"
	 width="500px" height="500px" viewBox="0 0 500 500" enable-background="new 0 0 500 500" xml:space="preserve">
<g id="avatar">
</g>
<rect x="178.958" y="62.652" fill-rule="evenodd" clip-rule="evenodd" fill="#5CBEDC" width="150.191" height="15.243"/>
<path fill-rule="evenodd" clip-rule="evenodd" fill="#39495D" d="M306.663,31.074c-16.742-9.764-34.993-14.647-53.36-14.647
	c-15.552,0-31.105,3.575-46.009,10.726c-48.169,23.193-58.29,70.972-42.231,108.639s36.614,43.596,32.188,57.196
	c-3.565,11.336-13.827,13.777-10.804,28.423c3.889,18.661,35.429,26.857,66.855,26.508c32.406-0.35,64.7-9.853,66.86-26.508
	c1.946-14.734-7.128-17.087-10.804-28.423c-4.317-13.601,8.096-13.91,32.188-57.196C362.356,84.848,349.756,56.101,306.663,31.074z
	 M253.303,184.27c-30.021,0-59.938-37.667-67.07-112.915c-0.11-1.395,1.078-2.526,2.592-2.526h64.478h64.482
	c1.51,0,2.699,1.132,2.594,2.526C313.356,146.604,283.332,184.27,253.303,184.27z"/>
</svg>
