<?xml version="1.0" encoding="utf-8"?>
<!-- Generator: Adobe Illustrator 16.0.1, SVG Export Plug-In . SVG Version: 6.00 Build 0)  -->
<!DOCTYPE svg PUBLIC "-//W3C//DTD SVG 1.1//EN" "http://www.w3.org/Graphics/SVG/1.1/DTD/svg11.dtd">
<svg version="1.1" xmlns="http://www.w3.org/2000/svg" xmlns:xlink="http://www.w3.org/1999/xlink" x="0px" y="0px" width="500px"
	 height="500px" viewBox="0 0 500 500" enable-background="new 0 0 500 500" xml:space="preserve">
<g id="avatar">
</g>
<g id="tennis">
	<g>
		<path fill="none" stroke="#000000" stroke-width="14.5099" stroke-miterlimit="10" d="M346.561,108.977
			c0-52.822-42.821-95.644-95.644-95.644c-52.824,0-95.645,42.821-95.645,95.644"/>
	</g>
	<path fill="#DBDBDB" d="M172.053,69.921c0,7.399-5.996,13.398-13.395,13.398s-13.393-5.999-13.393-13.398
		s5.995-13.389,13.393-13.389S172.053,62.521,172.053,69.921z"/>
	<path fill="#ADADAD" d="M329.906,69.921c0,7.398,5.995,13.398,13.396,13.398c7.396,0,13.392-6,13.392-13.398
		c0-7.399-5.996-13.389-13.392-13.389C335.901,56.532,329.906,62.521,329.906,69.921z"/>
	<g>
		<polygon points="170.15,135.212 153.189,137.893 142.159,72.604 159.121,69.926 		"/>
		<path fill="#DBDBDB" d="M142.159,72.604c-17.729,3.529-29.59,19.973-26.643,37.413c2.948,17.439,19.599,29.375,37.565,27.26
			L142.159,72.604z"/>
	</g>
	<polygon points="331.895,135.212 348.854,137.893 359.888,72.604 342.925,69.926 	"/>
	<path fill="#ADADAD" d="M359.888,72.604c17.724,3.529,29.585,19.973,26.64,37.413c-2.947,17.439-19.598,29.375-37.571,27.26
		L359.888,72.604z"/>
</g>
</svg>
