<?xml version="1.0" encoding="utf-8"?>
<!-- Generator: Adobe Illustrator 16.0.1, SVG Export Plug-In . SVG Version: 6.00 Build 0)  -->
<!DOCTYPE svg PUBLIC "-//W3C//DTD SVG 1.1//EN" "http://www.w3.org/Graphics/SVG/1.1/DTD/svg11.dtd">
<svg version="1.1" id="robot" xmlns="http://www.w3.org/2000/svg" xmlns:xlink="http://www.w3.org/1999/xlink" x="0px" y="0px"
	 width="500px" height="535.973px" viewBox="0 0 500 535.973" enable-background="new 0 0 500 535.973" xml:space="preserve">
<g>
	<g>
		<path fill="#852C2E" d="M69.011,65.278c-2.7,1.979-2.144,9.259,0.965,19.755l13.437,15.358l-7.094,2.182
			c4.275,10.318,9.913,21.992,16.576,34.015c19.334,34.881,39.985,59.504,46.126,55.003c6.141-4.504-4.553-36.43-23.886-71.311
			C95.803,85.4,75.151,60.774,69.011,65.278z"/>
	</g>
	<g>
		<path fill="#642123" d="M115.136,120.28C95.803,85.4,75.151,60.774,69.011,65.278l70.011,126.312
			C145.162,187.087,134.469,155.161,115.136,120.28z"/>
	</g>
	<g>
		<path fill="#E8EFF2" d="M378.854,195.205c3.707,8.617-3.566,18.302-16.436,20.95c-71.218,14.694-146.112,14.697-217.332,0
			c-12.874-2.648-20.15-12.333-16.437-20.95l0,0c3.712-8.637,15.815-13.252,27.191-10.919c64.171,13.241,131.648,13.241,195.821,0
			C363.035,181.953,375.135,186.568,378.854,195.205L378.854,195.205z"/>
	</g>
	<g>
		<path fill="#A5B2B7" d="M377.74,187.982c3.71,8.618-3.565,18.302-16.436,20.949c-71.218,14.695-146.109,14.697-217.33,0
			c-12.875-2.647-20.151-12.331-16.438-20.949l0,0c3.713-8.637,15.815-13.253,27.191-10.919c64.17,13.241,131.647,13.241,195.824,0
			C361.922,174.729,374.022,179.346,377.74,187.982L377.74,187.982z"/>
	</g>
	<g>
		<path fill="#E8EFF2" d="M350.552,177.063c-64.176,13.241-131.653,13.241-195.824,0c-11.376-2.334-23.478,2.282-27.191,10.919
			c-0.211,0.485-0.374,0.976-0.515,1.469c1.658,5.989,7.917,11.315,16.953,13.175c71.22,14.696,146.112,14.695,217.33,0
			c9.035-1.859,15.29-7.188,16.948-13.177c-0.142-0.491-0.303-0.981-0.513-1.467C374.022,179.346,361.922,174.729,350.552,177.063z"
			/>
	</g>
	<g>
		<ellipse fill="#E8EFF2" cx="252.299" cy="5.874" rx="76.144" ry="5.874"/>
	</g>
	<g>
		<path fill="#E8EFF2" d="M328.1,5.876H176.498L160.107,161.8c0,5.896,41.276,10.678,92.192,10.678
			c50.915,0,92.191-4.781,92.191-10.678L328.1,5.876z"/>
	</g>
	<g>
		<path fill="#A5B2B7" d="M252.638,5.876v166.6c50.761-0.02,91.853-4.792,91.853-10.676L328.1,5.876H252.638z"/>
	</g>
	<g>
		<path fill="#E8EFF2" d="M336.981,35.777c0,2.362-2.444,4.274-5.461,4.274H171.04c-3.017,0-5.464-1.912-5.464-4.274l0,0
			c0-2.358,2.447-4.271,5.464-4.271H331.52C334.537,31.507,336.981,33.419,336.981,35.777L336.981,35.777z"/>
	</g>
	<g>
		<path fill="#A5B2B7" d="M331.088,35.777H170.607c-1.861,0-3.426,0.775-4.411,1.886c0.898,1.402,2.705,2.389,4.844,2.389H331.52
			c1.864,0,3.429-0.774,4.413-1.886C335.032,36.764,333.229,35.777,331.088,35.777z"/>
	</g>
	<g>
		<path fill="#D5DCDF" d="M356.163,170.847c1.826,4.312-1.872,9.152-8.325,10.599c-62.208,13.942-128.185,13.942-190.393,0
			c-6.458-1.445-10.158-6.286-8.324-10.599c1.746-4.203,3.492-8.405,5.24-12.609c1.833-4.316,7.88-6.636,13.558-5.365
			c55.365,12.407,114.082,12.407,169.446-0.002c5.678-1.269,11.725,1.051,13.555,5.367
			C352.666,162.441,354.412,166.644,356.163,170.847z"/>
	</g>
	<g>
		<path fill="#E8EFF2" d="M338.3,157.116c-55.365,12.409-114.081,12.409-169.445,0.003c-5.678-1.271-11.726,1.048-13.558,5.363
			c-1.747,4.206-3.493,8.409-5.239,12.611c-0.191,0.446-0.285,0.901-0.359,1.354c1.388,2.274,4.104,4.183,7.747,4.998
			c62.208,13.942,128.185,13.942,190.393,0c5.005-1.122,8.321-4.288,8.712-7.667c-1.565-3.763-3.13-7.528-4.694-11.296
			C350.024,158.167,343.979,155.849,338.3,157.116z"/>
	</g>
	<g>
		<path fill="#A5B2B7" d="M350.552,177.063c-64.176,13.241-131.653,13.241-195.824,0c-4.534-0.931-9.16-0.718-13.345,0.375
			c-0.3,0.664-0.6,1.325-0.899,1.986c-0.209,0.446-0.311,0.901-0.394,1.354c1.518,2.273,4.476,4.182,8.45,4.996
			c67.836,13.942,139.784,13.942,207.623,0c5.457-1.12,9.07-4.287,9.499-7.665c-0.021-0.047-0.045-0.096-0.065-0.142
			C360.986,176.438,355.711,176.004,350.552,177.063z"/>
	</g>
	<g>
		<path fill="#A5B2B7" d="M356.163,170.847c-0.404-0.966-0.807-1.932-1.207-2.898c-0.891,2.969-3.992,5.618-8.478,6.625
			c-62.208,13.94-128.186,13.94-190.394,0c-3.009-0.674-5.382-2.099-6.912-3.85c-0.018,0.042-0.034,0.081-0.052,0.123
			c-1.833,4.312,1.866,9.153,8.324,10.599c62.208,13.942,128.185,13.942,190.393,0C354.291,179.999,357.989,175.159,356.163,170.847
			z"/>
	</g>
	<g>
		<path fill="#A5B2B7" d="M253.751,188.706c0,0.771-0.649,1.395-1.452,1.395l0,0c-0.803,0-1.452-0.624-1.452-1.395v-19.218
			c0-0.771,0.649-1.395,1.452-1.395l0,0c0.802,0,1.452,0.624,1.452,1.395V188.706z"/>
	</g>
	<g>
		<path fill="#A5B2B7" d="M264.253,185.181c0,6.236-5.203,11.29-11.615,11.29l0,0c-6.414,0-11.616-5.054-11.616-11.29V16.664
			c0-6.233,5.202-11.29,11.616-11.29l0,0c6.413,0,11.615,5.057,11.615,11.29V185.181z"/>
	</g>
	<g>
		<path fill="#D5DCDF" d="M263.914,178.898c0,6.02-5.202,10.897-11.615,10.897l0,0c-6.415,0-11.616-4.878-11.616-10.897V16.252
			c0-6.017,5.201-10.896,11.616-10.896l0,0c6.413,0,11.615,4.879,11.615,10.896V178.898z"/>
	</g>
	<g>
		<ellipse fill="#8E9EA6" cx="250.847" cy="48.651" rx="6.486" ry="6.306"/>
	</g>
	<g>
		<ellipse fill="#8E9EA6" cx="250.847" cy="23.434" rx="6.486" ry="6.304"/>
	</g>
	<g>
		<ellipse fill="#8E9EA6" cx="250.847" cy="74.872" rx="6.486" ry="6.304"/>
	</g>
	<g>
		<ellipse fill="#8E9EA6" cx="250.847" cy="100.757" rx="6.486" ry="6.305"/>
	</g>
	<g>
		<ellipse fill="#8E9EA6" cx="250.847" cy="126.643" rx="6.486" ry="6.304"/>
	</g>
	<g>
		<path fill="#8E9EA6" d="M244.361,152.527c0-3.482,2.904-6.306,6.486-6.306s6.485,2.823,6.485,6.306"/>
	</g>
	<g>
		<path fill="#8E9EA6" d="M257.333,178.411c0,3.482-2.904,6.306-6.485,6.306s-6.486-2.823-6.486-6.306
			c0-3.479,2.904-6.304,6.486-6.304S257.333,174.932,257.333,178.411z"/>
	</g>
	<g>
		<path fill="#E8EFF2" d="M257.764,46.494c0,3.483-2.904,6.306-6.486,6.306c-3.581,0-6.485-2.822-6.485-6.306
			c0-3.479,2.904-6.305,6.485-6.305C254.86,40.189,257.764,43.016,257.764,46.494z"/>
	</g>
	<g>
		<ellipse fill="#E8EFF2" cx="251.279" cy="21.275" rx="6.486" ry="6.304"/>
	</g>
	<g>
		<path fill="#E8EFF2" d="M257.764,72.713c0,3.482-2.904,6.307-6.486,6.307c-3.581,0-6.485-2.824-6.485-6.307
			c0-3.479,2.904-6.302,6.485-6.302C254.86,66.411,257.764,69.233,257.764,72.713z"/>
	</g>
	<g>
		<ellipse fill="#E8EFF2" cx="251.279" cy="98.602" rx="6.486" ry="6.303"/>
	</g>
	<g>
		<ellipse fill="#E8EFF2" cx="251.279" cy="124.485" rx="6.486" ry="6.306"/>
	</g>
	<g>
		<ellipse fill="#E8EFF2" cx="251.279" cy="176.257" rx="6.486" ry="6.304"/>
	</g>
	<g>
		<path fill="#A5B2B7" d="M276.2,187.273c0.096,0.767-0.46,1.44-1.255,1.51l0,0c-0.795,0.064-1.529-0.504-1.633-1.269l-2.604-19.111
			c-0.097-0.764,0.458-1.438,1.253-1.505l0,0c0.8-0.069,1.529,0.501,1.634,1.264L276.2,187.273z"/>
	</g>
	<g>
		<path fill="#A5B2B7" d="M298.027,185.414c0.178,0.755-0.313,1.465-1.097,1.58l0,0c-0.786,0.112-1.572-0.408-1.755-1.164
			l-4.501-18.897c-0.177-0.751,0.311-1.46,1.101-1.576l0,0c0.787-0.115,1.573,0.407,1.75,1.163L298.027,185.414z"/>
	</g>
	<g>
		<path fill="#A5B2B7" d="M319.162,182.012c0.246,0.742-0.178,1.479-0.944,1.64l0,0c-0.774,0.162-1.61-0.312-1.863-1.056
			l-6.324-18.572c-0.25-0.742,0.169-1.478,0.944-1.64l0,0c0.774-0.162,1.609,0.312,1.859,1.056L319.162,182.012z"/>
	</g>
	<g>
		<path fill="#A5B2B7" d="M336.852,178.417c0.286,0.734-0.101,1.485-0.858,1.671l0,0c-0.763,0.186-1.622-0.261-1.917-0.995
			l-7.3-18.354c-0.289-0.732,0.093-1.48,0.856-1.667l0,0c0.766-0.187,1.625,0.26,1.916,0.993L336.852,178.417z"/>
	</g>
	<g>
		<path fill="#A5B2B7" d="M228.399,187.273c-0.102,0.767,0.458,1.44,1.252,1.51l0,0c0.796,0.064,1.528-0.504,1.631-1.269
			l2.606-19.111c0.1-0.764-0.457-1.438-1.252-1.505l0,0c-0.801-0.069-1.527,0.501-1.633,1.264L228.399,187.273z"/>
	</g>
	<g>
		<path fill="#A5B2B7" d="M206.567,185.414c-0.176,0.755,0.315,1.465,1.1,1.58l0,0c0.785,0.112,1.574-0.408,1.753-1.164
			l4.502-18.897c0.175-0.751-0.312-1.46-1.101-1.576l0,0c-0.787-0.115-1.571,0.407-1.752,1.163L206.567,185.414z"/>
	</g>
	<g>
		<path fill="#A5B2B7" d="M185.437,182.012c-0.249,0.742,0.175,1.479,0.943,1.64l0,0c0.773,0.162,1.609-0.312,1.862-1.056
			l6.326-18.572c0.248-0.742-0.172-1.478-0.945-1.64l0,0c-0.776-0.162-1.608,0.312-1.86,1.056L185.437,182.012z"/>
	</g>
	<g>
		<path fill="#A5B2B7" d="M167.747,178.417c-0.289,0.734,0.1,1.485,0.855,1.671l0,0c0.765,0.186,1.625-0.261,1.918-0.995
			l7.301-18.354c0.289-0.732-0.095-1.48-0.856-1.667l0,0c-0.768-0.187-1.625,0.26-1.917,0.993L167.747,178.417z"/>
	</g>
	<g>
		<ellipse fill="#F6F6F6" cx="251.28" cy="122.993" rx="2.731" ry="2.657"/>
	</g>
</g>
<g>
	<path fill="#D5DCDF" d="M345.511,144.608c0,7.966-5.502,14.422-12.293,14.422H171.379c-6.785,0-12.291-6.456-12.291-14.422v-19.227
		c0-7.964,5.506-14.422,12.291-14.422h161.839c6.792,0,12.293,6.458,12.293,14.422V144.608z"/>
</g>
<g>
	<path fill="#56555B" d="M331.813,139.71c0,2.793-3.669,5.057-8.195,5.057H178.771c-4.527,0-8.196-2.263-8.196-5.057v-9.908
		c0-2.794,3.669-5.059,8.196-5.059h144.848c4.526,0,8.195,2.265,8.195,5.059V139.71z"/>
</g>
</svg>
