<?xml version="1.0" encoding="utf-8"?>
<!-- Generator: Adobe Illustrator 16.0.1, SVG Export Plug-In . SVG Version: 6.00 Build 0)  -->
<!DOCTYPE svg PUBLIC "-//W3C//DTD SVG 1.1//EN" "http://www.w3.org/Graphics/SVG/1.1/DTD/svg11.dtd">
<svg version="1.1" id="Layer_1" xmlns="http://www.w3.org/2000/svg" xmlns:xlink="http://www.w3.org/1999/xlink" x="0px" y="0px"
	 width="500px" height="500px" viewBox="0 0 500 500" enable-background="new 0 0 500 500" xml:space="preserve">
<path fill="#89949B" d="M378.781,94.807l-17.318-0.012c10.085,19.295,16.882,39.315,21.338,56.101
	c12.592-2.101,22.266-13.689,22.279-27.8C405.094,107.484,393.319,94.823,378.781,94.807z"/>
<path fill="#9EABB4" d="M110.052,191.198c0,0,0-171.177,139.248-171.177c0.201,0,0.397-0.014,0.599-0.014c0.004,0,0.008,0,0.012,0
	c0.004,0,0.008,0,0.008,0c0.201,0,0.401,0.009,0.598,0.014c0.078,0,0.151,0.004,0.226,0.004l-0.157,171.164L110.052,191.198z"/>
<path fill="#C0C5CD" d="M390.738,191.181c0,0,6.063-171.16-138.938-171.16c-0.2,0-0.397-0.009-0.599-0.013c-0.004,0-0.008,0-0.008,0
	c-0.009,0-0.013,0-0.013,0c-0.2,0-0.401,0.009-0.599,0.014c-0.078,0-0.152,0.004-0.225,0.004L250.2,191.189L390.738,191.181z"/>
<path fill="#FFFFFF" d="M241.625,115.174c-0.018,20.16-17.07,36.485-38.085,36.464l0,0c-21.022-0.02-38.046-16.382-38.026-36.539
	l0,0c0.018-20.157,17.07-36.482,38.085-36.461l0,0C224.616,78.659,241.641,95.018,241.625,115.174L241.625,115.174z"/>
<path fill="#FFFFFF" d="M337.094,115.664c-0.01,14.083-11.924,25.485-26.606,25.473l0,0c-14.685-0.016-26.577-11.445-26.567-25.529
	l0,0c0.014-14.084,11.928-25.487,26.611-25.471l0,0C325.215,90.15,337.108,101.579,337.094,115.664L337.094,115.664z"/>
<g>
	<path fill="#9EABB4" d="M122.198,94.571l17.319,0.017c-10.121,19.276-16.953,39.287-21.439,56.061
		c-12.588-2.121-22.239-13.727-22.227-27.841C95.865,107.201,107.662,94.559,122.198,94.571z"/>
</g>
<path fill="#93A7AA" d="M265.817,34.377c0,2.5-2.08,4.524-4.646,4.521c-2.566,0-4.644-2.028-4.639-4.529
	c-0.001-2.501,2.084-4.525,4.646-4.521C263.743,29.848,265.821,31.875,265.817,34.377z"/>
<path fill="#93A7AA" d="M265.797,58.514c-0.004,2.501-2.084,4.526-4.65,4.525c-2.562-0.003-4.639-2.032-4.639-4.533
	c0.004-2.497,2.084-4.524,4.646-4.521C263.721,53.99,265.797,56.018,265.797,58.514z"/>
<path fill="#93A7AA" d="M265.774,82.656c-0.004,2.497-2.084,4.521-4.646,4.521c-2.567-0.003-4.644-2.032-4.644-4.529
	c0.004-2.501,2.084-4.525,4.651-4.525C263.698,78.127,265.774,80.155,265.774,82.656z"/>
<ellipse fill="#93A7AA" cx="261.108" cy="106.79" rx="4.643" ry="4.525"/>
<ellipse fill="#93A7AA" cx="261.085" cy="130.928" rx="4.643" ry="4.525"/>
<ellipse fill="#93A7AA" cx="261.088" cy="154.158" rx="4.643" ry="4.526"/>
<ellipse fill="#93A7AA" cx="261.088" cy="177.389" rx="4.643" ry="4.525"/>
</svg>
